{
 "cells": [
  {
   "cell_type": "code",
   "execution_count": 36,
   "metadata": {
    "collapsed": true
   },
   "outputs": [],
   "source": [
    "import midi\n",
    "import numpy as np\n",
    "import h5py\n",
    "class MidiContainer:\n",
    "    '''\n",
    "    The MidiContainer class contains a vector representation of \n",
    "    the midi track to be fed to our neural net. It is a 67 x n matrix,\n",
    "    contents specified in the README. \n",
    "    '''\n",
    "    def __init__(self):\n",
    "        self.data = np.array([], dtype=np.int64).reshape(66,0) \n",
    "        self.curr_bpm = 120\n",
    "        self.curr_instrument = 0\n",
    "        self.abs_time = 0\n",
    "        self.active_pitches = {} #[pitch] = (velocity, time note was turned on)\n",
    "        \n",
    "    def note_to_vector(self, pitch, time):\n",
    "        velocity = self.active_pitches[pitch][0]\n",
    "        note_start = self.active_pitches[pitch][1]\n",
    "        return np.vstack((self.curr_instrument, pitch, velocity, time + self.abs_time - note_start))\n",
    "    \n",
    "    def add_data(self, note_vector, note_start):\n",
    "        event_column = np.vstack((note_start, self.curr_bpm, note_vector, np.ones((60,1))*-1))\n",
    "        self.data = np.hstack((self.data, event_column))\n",
    "    \n",
    "    def combine_tracks(self):\n",
    "        self.data = self.data.T[self.data.T[:, 0].argsort()].T #maybe we dont need so many transposes\n",
    "        prev_duration = -1\n",
    "        edit_index = 0 \n",
    "        i = 0\n",
    "        delete_this = []\n",
    "        old_inst = self.data[2,0]\n",
    "        for col in self.data.T:\n",
    "            curr_duration = col[0]\n",
    "            if curr_duration == prev_duration:\n",
    "                for ni in xrange(2,67,4):\n",
    "                    note_vec = col[ni:ni+4]\n",
    "                    curr_inst = note_vec[0] if note_vec.any() else -1\n",
    "                    if np.sum(note_vec) > 0 and curr_inst != old_inst:\n",
    "                        i_rep = np.where(self.data[:,edit_index] == -1)[0][0]\n",
    "                        self.data[i_rep:i_rep+4, edit_index] = note_vec\n",
    "                        delete_this.append(i)\n",
    "            else:\n",
    "                old_inst = col[2]\n",
    "                edit_index = i\n",
    "            i += 1 \n",
    "            prev_duration = curr_duration\n",
    "            \n",
    "        mask = np.ones(self.data.shape, np.bool)\n",
    "        mask[:,delete_this] = 0\n",
    "        self.data = self.data[mask].reshape(66,-1)\n",
    "       \n",
    "                \n",
    "    \n",
    "def midi_to_vector(fname):\n",
    "    '''\n",
    "    Given a filename of a midi to read, returns a MidiContainer object of its vector representation.\n",
    "    '''\n",
    "    pattern = midi.read_midifile(fname)\n",
    "    midi_vector = MidiContainer()\n",
    "    for track in pattern:\n",
    "        midi_vector.abs_time = 0\n",
    "        for event in track:\n",
    "            if isinstance(event, midi.SetTempoEvent): \n",
    "                midi_vector.curr_bpm = event.get_bpm()\n",
    "            if isinstance(event, midi.EndOfTrackEvent): #first metadata track\n",
    "                continue \n",
    "            if isinstance(event, midi.ProgramChangeEvent):\n",
    "                midi_vector.curr_instrument = event.get_value()\n",
    "            if isinstance(event, midi.NoteOnEvent):\n",
    "                midi_vector.abs_time += event.tick\n",
    "                midi_vector.active_pitches[event.get_pitch()] = (event.get_velocity(), midi_vector.abs_time)\n",
    "            if isinstance(event, midi.NoteOffEvent):\n",
    "                pitch = event.get_pitch()\n",
    "                time = event.tick\n",
    "                if pitch in midi_vector.active_pitches:\n",
    "                    note_vec = midi_vector.note_to_vector(pitch, time)\n",
    "                    midi_vector.add_data(note_vec, midi_vector.active_pitches[pitch][1]) #ugh bad data abstraction\n",
    "                    midi_vector.active_pitches.pop(pitch, None)\n",
    "                    midi_vector.abs_time += event.tick\n",
    "                    \n",
    "#     assert midi_vector.data.all(), \"Read midifile is empty.\"            \n",
    "    midi_vector.combine_tracks()        \n",
    "    return midi_vector\n",
    "\n",
    "def vector_to_midi(vector):\n",
    "    '''Given a np array (vector.data), returns a python midi pattern'''\n",
    "    pattern = midi.Pattern(resolution=192)\n",
    "    #first, separate tracks\n",
    "    tracklist = {}\n",
    "    for i in xrange(2,vector.shape[0],4):\n",
    "        for j in xrange(0, vector.shape[1]):\n",
    "            track = vector[i:i+4,j]\n",
    "            if np.sum(track) > 0:\n",
    "                instrument = int(track[0])\n",
    "                if instrument not in tracklist:\n",
    "                    tracklist[instrument] = np.vstack((vector[0:2,j].reshape(-1,1), track.reshape(-1,1)))\n",
    "                else: \n",
    "                    tracklist[instrument] = np.hstack((tracklist[instrument], np.vstack((vector[0:2,j].reshape(-1,1), track.reshape(-1,1)))))\n",
    "\n",
    "\n",
    "    for k, track in tracklist.iteritems():\n",
    "        miditrack = midi.Track()\n",
    "        pattern.append(miditrack)\n",
    "        bpm = track[1,0]\n",
    "        tempoevent = midi.SetTempoEvent(tick=0, bpm=bpm)\n",
    "        miditrack.append(tempoevent)\n",
    "        instrument = int(track[2,0])\n",
    "        fontevent = midi.ProgramChangeEvent(tick=0, value=instrument)\n",
    "        miditrack.append(fontevent)\n",
    "        if not np.array_equal(bpm * np.ones(track.shape[1]), track[1,:]):\n",
    "            print 'Tempo changes. Code assumes it doesn\\'t. Contact Jingyi.'\n",
    "        \n",
    "        event_tick = 0   \n",
    "        track_duration = np.max(track[0,:] + track[-1,:])\n",
    "        active_notes = {}\n",
    "        start_times = track[0,:]\n",
    "        for t in xrange(0, int(track_duration)+1):\n",
    "            for pitch in active_notes:\n",
    "                active_notes[pitch] -= 1\n",
    "            \n",
    "            negs = [k for k,v in active_notes.iteritems() if v < 0]\n",
    "            for n in negs:\n",
    "                active_notes.pop(n)\n",
    "                \n",
    "            while 0 in active_notes.values():\n",
    "                pitches = [k for k,v in active_notes.iteritems() if v == 0]\n",
    "                for pitch in pitches:\n",
    "                    off = midi.NoteOffEvent(tick=t - event_tick, pitch=pitch)\n",
    "                    miditrack.append(off)\n",
    "                    active_notes.pop(pitch)\n",
    "                    event_tick = t\n",
    "                    \n",
    "            #run through track to add on/off events\n",
    "            if t in start_times:\n",
    "                ni = np.where(t == start_times)\n",
    "                for n in ni[0]:\n",
    "                    note = track[:, n]\n",
    "                    start_time = int(note[0])\n",
    "                    pitch = int(note[3])\n",
    "                    velocity = int(note[4])\n",
    "                    duration = int(note[5])\n",
    "                    active_notes[pitch] = duration\n",
    "                    on = midi.NoteOnEvent(tick = t - event_tick, velocity=velocity, pitch=pitch)\n",
    "                    miditrack.append(on)\n",
    "                    event_tick = start_time\n",
    "                    \n",
    "        miditrack.append(midi.EndOfTrackEvent(tick=0))\n",
    "    return pattern\n",
    "\n"
   ]
  },
  {
   "cell_type": "code",
   "execution_count": 43,
   "metadata": {
    "collapsed": false,
    "scrolled": true
   },
   "outputs": [
    {
     "name": "stdout",
     "output_type": "stream",
     "text": [
      "SUCCESS! finished writing for  aliaskyu.mid\n",
      "index 0 is out of bounds for axis 1 with size 0 almostlk.mid\n",
      "index 0 is out of bounds for axis 1 with size 0 america.mid\n",
      "SUCCESS! finished writing for  angel.mid\n",
      "index 0 is out of bounds for axis 1 with size 0 baliha'i.mid\n",
      "index 0 is out of bounds for axis 1 with size 0 belinyou.mid\n",
      "index 0 is out of bounds for axis 1 with size 0 bring.mid\n",
      "SUCCESS! finished writing for  broadway.mid\n",
      "index 0 is out of bounds for axis 1 with size 0 cabaret.mid\n",
      "index 0 is out of bounds for axis 1 with size 0 castle.mid\n",
      "SUCCESS! finished writing for  chess.mid\n",
      "index 0 is out of bounds for axis 1 with size 0 close.mid\n",
      "index 0 is out of bounds for axis 1 with size 0 crapshot.mid\n",
      "SUCCESS! finished writing for  ditesmoi.mid\n",
      "index 0 is out of bounds for axis 1 with size 0 dolly.mid\n",
      "index 0 is out of bounds for axis 1 with size 0 domphan.mid\n",
      "index 0 is out of bounds for axis 1 with size 0 dphanrk.mid\n",
      "SUCCESS! finished writing for  eapoe.mid\n",
      "SUCCESS! finished writing for  edelweis.mid\n",
      "SUCCESS! finished writing for  eternal.mid\n",
      "SUCCESS! finished writing for  evita.mid\n",
      "SUCCESS! finished writing for  fantast.mid\n",
      "SUCCESS! finished writing for  getoknow.mid\n",
      "index 0 is out of bounds for axis 1 with size 0 guydolls.mid\n",
      "SUCCESS! finished writing for  hapevaf.mid\n",
      "index 0 is out of bounds for axis 1 with size 0 hearsing.mid\n",
      "SUCCESS! finished writing for  hernando.mid\n",
      "SUCCESS! finished writing for  heythere.mid\n",
      "SUCCESS! finished writing for  hndohdwy.mid\n",
      "SUCCESS! finished writing for  hopeless.mid\n",
      "index 0 is out of bounds for axis 1 with size 0 magctodo.mid\n",
      "SUCCESS! finished writing for  maria.mid\n",
      "SUCCESS! finished writing for  mhbring.mid\n",
      "SUCCESS! finished writing for  music.mid\n",
      "SUCCESS! finished writing for  noinlove.mid\n",
      "SUCCESS! finished writing for  oncewasa.mid\n",
      "SUCCESS! finished writing for  onceyear.mid\n",
      "index 0 is out of bounds for axis 1 with size 0 peoplew.mid\n",
      "index 0 is out of bounds for axis 1 with size 0 phantom2.mid\n",
      "index 0 is out of bounds for axis 1 with size 0 river.mid\n",
      "SUCCESS! finished writing for  smaltalk.mid\n",
      "SUCCESS! finished writing for  steam.mid\n",
      "SUCCESS! finished writing for  tinhorn.mid\n",
      "SUCCESS! finished writing for  youcando.mid\n",
      "got  59.0909090909 % working\n"
     ]
    }
   ],
   "source": [
    "path = '/Users/noon/Desktop/midis/broadway/' #change me, make sure to make a 'data' folder\n",
    "import os\n",
    "i = 0\n",
    "b = 1\n",
    "for fname in os.listdir(path):\n",
    "    if '.mid' in fname.lower():\n",
    "        try:\n",
    "            vectorized = midi_to_vector(path+fname)\n",
    "            h5f = h5py.File(path+'data/'+fname[0:-4]+'.h5', 'w')\n",
    "            h5f.create_dataset('dataset_1', data=vectorized.data)\n",
    "            h5f.close()\n",
    "            print 'SUCCESS! finished writing for ', fname\n",
    "            i += 1\n",
    "        except (TypeError, AssertionError, IndexError) as e:\n",
    "            print e, fname\n",
    "            b += 1\n",
    "            continue\n",
    "b-=1\n",
    "print 'got ', i*1.0/(i+b) * 100, '% working'"
   ]
  },
  {
   "cell_type": "code",
   "execution_count": 57,
   "metadata": {
    "collapsed": true
   },
   "outputs": [],
   "source": [
    "def gen_channel():\n",
    "    font = np.random.random_integers(0,127) * np.ones((1,500))\n",
    "    note = np.random.random_integers(0,127, size=(1,500))\n",
    "    vel = np.random.random_integers(0,255, size=(1,500))\n",
    "    duration = np.random.random_integers(0,1000, size=(1,500))\n",
    "    return np.vstack((font, note, vel, duration))\n",
    "\n",
    "def gen_random_midi():\n",
    "    times = np.random.random_integers(0,1000, size=(1,500))\n",
    "    bpm = np.random.random_integers(50,300) * np.ones((1,500))\n",
    "    midi = np.vstack((times,bpm))\n",
    "    for i in xrange(0,16):\n",
    "        midi = np.vstack((midi, gen_channel()))\n",
    "    return midi\n"
   ]
  },
  {
   "cell_type": "code",
   "execution_count": 58,
   "metadata": {
    "collapsed": false,
    "scrolled": false
   },
   "outputs": [
    {
     "name": "stdout",
     "output_type": "stream",
     "text": [
      "[[ 882.  480.  432. ...,  185.  138.  591.]\n",
      " [ 200.  200.  200. ...,  200.  200.  200.]\n",
      " [ 101.  101.  101. ...,  101.  101.  101.]\n",
      " ..., \n",
      " [  95.   58.    0. ...,   39.   95.  121.]\n",
      " [  27.  248.   68. ...,  228.   56.  102.]\n",
      " [  65.  140.  896. ...,  511.  369.   58.]]\n",
      "midi.Pattern(format=1, resolution=192, tracks=\\\n",
      "[midi.Track(\\\n",
      "  [midi.SetTempoEvent(tick=0, data=[4, 147, 224]),\n",
      "   midi.ProgramChangeEvent(tick=0, channel=0, data=[96]),\n",
      "   midi.NoteOnEvent(tick=0, channel=0, data=[69, 246]),\n",
      "   midi.NoteOnEvent(tick=0, channel=0, data=[82, 224]),\n",
      "   midi.NoteOnEvent(tick=0, channel=0, data=[59, 191]),\n",
      "   midi.NoteOnEvent(tick=1, channel=0, data=[81, 90]),\n",
      "   midi.NoteOnEvent(tick=1, channel=0, data=[69, 92]),\n",
      "   midi.NoteOnEvent(tick=0, channel=0, data=[38, 140]),\n",
      "   midi.NoteOnEvent(tick=1, channel=0, data=[19, 116]),\n",
      "   midi.NoteOnEvent(tick=4, channel=0, data=[36, 141]),\n",
      "   midi.NoteOnEvent(tick=6, channel=0, data=[36, 115]),\n",
      "   midi.NoteOnEvent(tick=1, channel=0, data=[54, 199]),\n",
      "   midi.NoteOffEvent(tick=2, channel=0, data=[59, 0]),\n",
      "   midi.NoteOnEvent(tick=1, channel=0, data=[14, 191]),\n",
      "   midi.NoteOnEvent(tick=0, channel=0, data=[95, 7]),\n",
      "   midi.NoteOnEvent(tick=1, channel=0, data=[112, 83]),\n",
      "   midi.NoteOnEvent(tick=3, channel=0, data=[61, 179]),\n",
      "   midi.NoteOnEvent(tick=1, channel=0, data=[102, 114]),\n",
      "   midi.NoteOnEvent(tick=2, channel=0, data=[16, 8]),\n",
      "   midi.NoteOnEvent(tick=4, channel=0, data=[83, 223]),\n",
      "   midi.NoteOnEvent(tick=1, channel=0, data=[127, 125]),\n",
      "   midi.NoteOnEvent(tick=0, channel=0, data=[58, 167]),\n",
      "   midi.NoteOnEvent(tick=3, channel=0, data=[70, 20]),\n",
      "   midi.NoteOnEvent(tick=2, channel=0, data=[107, 209]),\n",
      "   midi.NoteOnEvent(tick=1, channel=0, data=[42, 187]),\n",
      "   midi.NoteOnEvent(tick=1, channel=0, data=[7, 40]),\n",
      "   midi.NoteOnEvent(tick=1, channel=0, data=[48, 161]),\n",
      "   midi.NoteOnEvent(tick=5, channel=0, data=[69, 202]),\n",
      "   midi.NoteOnEvent(tick=3, channel=0, data=[31, 223]),\n",
      "   midi.NoteOnEvent(tick=1, channel=0, data=[9, 143]),\n",
      "   midi.NoteOffEvent(tick=1, channel=0, data=[112, 0]),\n",
      "   midi.NoteOnEvent(tick=1, channel=0, data=[12, 158]),\n",
      "   midi.NoteOnEvent(tick=8, channel=0, data=[44, 173]),\n",
      "   midi.NoteOnEvent(tick=3, channel=0, data=[127, 179]),\n",
      "   midi.NoteOnEvent(tick=2, channel=0, data=[127, 104]),\n",
      "   midi.NoteOnEvent(tick=5, channel=0, data=[80, 110]),\n",
      "   midi.NoteOnEvent(tick=2, channel=0, data=[17, 57]),\n",
      "   midi.NoteOnEvent(tick=1, channel=0, data=[47, 208]),\n",
      "   midi.NoteOnEvent(tick=0, channel=0, data=[70, 62]),\n",
      "   midi.NoteOnEvent(tick=1, channel=0, data=[30, 49]),\n",
      "   midi.NoteOnEvent(tick=0, channel=0, data=[90, 7]),\n",
      "   midi.NoteOnEvent(tick=2, channel=0, data=[116, 86]),\n",
      "   midi.NoteOnEvent(tick=0, channel=0, data=[85, 0]),\n",
      "   midi.NoteOnEvent(tick=1, channel=0, data=[122, 97]),\n",
      "   midi.NoteOnEvent(tick=1, channel=0, data=[100, 147]),\n",
      "   midi.NoteOnEvent(tick=8, channel=0, data=[123, 209]),\n",
      "   midi.NoteOnEvent(tick=4, channel=0, data=[47, 96]),\n",
      "   midi.NoteOnEvent(tick=1, channel=0, data=[109, 250]),\n",
      "   midi.NoteOnEvent(tick=0, channel=0, data=[12, 239]),\n",
      "   midi.NoteOnEvent(tick=4, channel=0, data=[57, 115]),\n",
      "   midi.NoteOnEvent(tick=2, channel=0, data=[23, 20]),\n",
      "   midi.NoteOnEvent(tick=0, channel=0, data=[64, 131]),\n",
      "   midi.NoteOnEvent(tick=1, channel=0, data=[79, 73]),\n",
      "   midi.NoteOffEvent(tick=3, channel=0, data=[12, 0]),\n",
      "   midi.NoteOnEvent(tick=0, channel=0, data=[110, 177]),\n",
      "   midi.NoteOnEvent(tick=1, channel=0, data=[45, 240]),\n",
      "   midi.NoteOnEvent(tick=3, channel=0, data=[55, 87]),\n",
      "   midi.NoteOnEvent(tick=3, channel=0, data=[106, 229]),\n",
      "   midi.NoteOnEvent(tick=0, channel=0, data=[25, 30]),\n",
      "   midi.NoteOnEvent(tick=1, channel=0, data=[34, 189]),\n",
      "   midi.NoteOnEvent(tick=1, channel=0, data=[4, 100]),\n",
      "   midi.NoteOnEvent(tick=1, channel=0, data=[56, 189]),\n",
      "   midi.NoteOnEvent(tick=3, channel=0, data=[66, 226]),\n",
      "   midi.NoteOnEvent(tick=0, channel=0, data=[68, 187]),\n",
      "   midi.NoteOnEvent(tick=0, channel=0, data=[28, 136]),\n",
      "   midi.NoteOffEvent(tick=2, channel=0, data=[95, 0]),\n",
      "   midi.NoteOffEvent(tick=2, channel=0, data=[90, 0]),\n",
      "   midi.NoteOnEvent(tick=4, channel=0, data=[24, 145]),\n",
      "   midi.NoteOnEvent(tick=0, channel=0, data=[22, 89]),\n",
      "   midi.NoteOnEvent(tick=4, channel=0, data=[127, 15]),\n",
      "   midi.NoteOnEvent(tick=0, channel=0, data=[56, 9]),\n",
      "   midi.NoteOnEvent(tick=0, channel=0, data=[61, 39]),\n",
      "   midi.NoteOffEvent(tick=1, channel=0, data=[127, 0]),\n",
      "   midi.NoteOnEvent(tick=0, channel=0, data=[125, 128]),\n",
      "   midi.NoteOnEvent(tick=0, channel=0, data=[11, 79]),\n",
      "   midi.NoteOnEvent(tick=1, channel=0, data=[112, 89]),\n",
      "   midi.NoteOnEvent(tick=0, channel=0, data=[96, 52]),\n",
      "   midi.NoteOnEvent(tick=12, channel=0, data=[66, 241]),\n",
      "   midi.NoteOnEvent(tick=1, channel=0, data=[50, 193]),\n",
      "   midi.NoteOnEvent(tick=0, channel=0, data=[74, 188]),\n",
      "   midi.NoteOnEvent(tick=1, channel=0, data=[98, 69]),\n",
      "   midi.NoteOnEvent(tick=0, channel=0, data=[77, 212]),\n",
      "   midi.NoteOnEvent(tick=2, channel=0, data=[39, 167]),\n",
      "   midi.NoteOnEvent(tick=1, channel=0, data=[2, 5]),\n",
      "   midi.NoteOnEvent(tick=1, channel=0, data=[42, 64]),\n",
      "   midi.NoteOnEvent(tick=2, channel=0, data=[96, 203]),\n",
      "   midi.NoteOffEvent(tick=2, channel=0, data=[11, 0]),\n",
      "   midi.NoteOnEvent(tick=4, channel=0, data=[35, 179]),\n",
      "   midi.NoteOnEvent(tick=3, channel=0, data=[96, 160]),\n",
      "   midi.NoteOnEvent(tick=2, channel=0, data=[28, 66]),\n",
      "   midi.NoteOnEvent(tick=1, channel=0, data=[26, 105]),\n",
      "   midi.NoteOnEvent(tick=1, channel=0, data=[89, 175]),\n",
      "   midi.NoteOnEvent(tick=1, channel=0, data=[96, 10]),\n",
      "   midi.NoteOnEvent(tick=1, channel=0, data=[48, 144]),\n",
      "   midi.NoteOffEvent(tick=1, channel=0, data=[57, 0]),\n",
      "   midi.NoteOnEvent(tick=0, channel=0, data=[113, 189]),\n",
      "   midi.NoteOnEvent(tick=1, channel=0, data=[92, 152]),\n",
      "   midi.NoteOffEvent(tick=2, channel=0, data=[7, 0]),\n",
      "   midi.NoteOnEvent(tick=0, channel=0, data=[87, 22]),\n",
      "   midi.NoteOnEvent(tick=2, channel=0, data=[70, 142]),\n",
      "   midi.NoteOnEvent(tick=2, channel=0, data=[79, 20]),\n",
      "   midi.NoteOnEvent(tick=3, channel=0, data=[18, 132]),\n",
      "   midi.NoteOnEvent(tick=1, channel=0, data=[78, 94]),\n",
      "   midi.NoteOnEvent(tick=0, channel=0, data=[109, 132]),\n",
      "   midi.NoteOnEvent(tick=1, channel=0, data=[11, 133]),\n",
      "   midi.NoteOnEvent(tick=1, channel=0, data=[84, 253]),\n",
      "   midi.NoteOffEvent(tick=1, channel=0, data=[14, 0]),\n",
      "   midi.NoteOnEvent(tick=4, channel=0, data=[13, 93]),\n",
      "   midi.NoteOnEvent(tick=0, channel=0, data=[110, 144]),\n",
      "   midi.NoteOffEvent(tick=6, channel=0, data=[11, 0]),\n",
      "   midi.NoteOnEvent(tick=1, channel=0, data=[2, 170]),\n",
      "   midi.NoteOnEvent(tick=8, channel=0, data=[122, 194]),\n",
      "   midi.NoteOnEvent(tick=3, channel=0, data=[93, 181]),\n",
      "   midi.NoteOnEvent(tick=1, channel=0, data=[124, 14]),\n",
      "   midi.NoteOnEvent(tick=2, channel=0, data=[67, 248]),\n",
      "   midi.NoteOnEvent(tick=2, channel=0, data=[47, 12]),\n",
      "   midi.NoteOnEvent(tick=1, channel=0, data=[12, 180]),\n",
      "   midi.NoteOffEvent(tick=2, channel=0, data=[106, 0]),\n",
      "   midi.NoteOnEvent(tick=1, channel=0, data=[109, 235]),\n",
      "   midi.NoteOnEvent(tick=1, channel=0, data=[33, 110]),\n",
      "   midi.NoteOnEvent(tick=0, channel=0, data=[65, 182]),\n",
      "   midi.NoteOnEvent(tick=3, channel=0, data=[72, 230]),\n",
      "   midi.NoteOnEvent(tick=0, channel=0, data=[118, 32]),\n",
      "   midi.NoteOnEvent(tick=2, channel=0, data=[23, 143]),\n",
      "   midi.NoteOnEvent(tick=0, channel=0, data=[51, 133]),\n",
      "   midi.NoteOnEvent(tick=6, channel=0, data=[7, 164]),\n",
      "   midi.NoteOnEvent(tick=1, channel=0, data=[39, 232]),\n",
      "   midi.NoteOnEvent(tick=2, channel=0, data=[10, 79]),\n",
      "   midi.NoteOnEvent(tick=1, channel=0, data=[92, 37]),\n",
      "   midi.NoteOffEvent(tick=1, channel=0, data=[93, 0]),\n",
      "   midi.NoteOnEvent(tick=1, channel=0, data=[92, 98]),\n",
      "   midi.NoteOnEvent(tick=4, channel=0, data=[76, 0]),\n",
      "   midi.NoteOnEvent(tick=0, channel=0, data=[84, 157]),\n",
      "   midi.NoteOffEvent(tick=2, channel=0, data=[4, 0]),\n",
      "   midi.NoteOnEvent(tick=2, channel=0, data=[102, 242]),\n",
      "   midi.NoteOnEvent(tick=8, channel=0, data=[76, 174]),\n",
      "   midi.NoteOffEvent(tick=1, channel=0, data=[44, 0]),\n",
      "   midi.NoteOnEvent(tick=0, channel=0, data=[118, 151]),\n",
      "   midi.NoteOffEvent(tick=6, channel=0, data=[45, 0]),\n",
      "   midi.NoteOnEvent(tick=0, channel=0, data=[49, 216]),\n",
      "   midi.NoteOnEvent(tick=0, channel=0, data=[118, 198]),\n",
      "   midi.NoteOnEvent(tick=5, channel=0, data=[76, 190]),\n",
      "   midi.NoteOnEvent(tick=3, channel=0, data=[57, 68]),\n",
      "   midi.NoteOnEvent(tick=3, channel=0, data=[98, 186]),\n",
      "   midi.NoteOnEvent(tick=7, channel=0, data=[119, 184]),\n",
      "   midi.NoteOnEvent(tick=2, channel=0, data=[77, 13]),\n",
      "   midi.NoteOnEvent(tick=5, channel=0, data=[62, 127]),\n",
      "   midi.NoteOnEvent(tick=3, channel=0, data=[79, 120]),\n",
      "   midi.NoteOffEvent(tick=3, channel=0, data=[81, 0]),\n",
      "   midi.NoteOnEvent(tick=4, channel=0, data=[17, 46]),\n",
      "   midi.NoteOnEvent(tick=1, channel=0, data=[2, 0]),\n",
      "   midi.NoteOnEvent(tick=2, channel=0, data=[86, 13]),\n",
      "   midi.NoteOnEvent(tick=5, channel=0, data=[54, 254]),\n",
      "   midi.NoteOnEvent(tick=0, channel=0, data=[99, 208]),\n",
      "   midi.NoteOnEvent(tick=1, channel=0, data=[24, 146]),\n",
      "   midi.NoteOnEvent(tick=5, channel=0, data=[122, 207]),\n",
      "   midi.NoteOnEvent(tick=7, channel=0, data=[106, 100]),\n",
      "   midi.NoteOffEvent(tick=6, channel=0, data=[86, 0]),\n",
      "   midi.NoteOnEvent(tick=0, channel=0, data=[52, 172]),\n",
      "   midi.NoteOffEvent(tick=1, channel=0, data=[16, 0]),\n",
      "   midi.NoteOnEvent(tick=0, channel=0, data=[46, 55]),\n",
      "   midi.NoteOnEvent(tick=1, channel=0, data=[99, 217]),\n",
      "   midi.NoteOnEvent(tick=1, channel=0, data=[109, 224]),\n",
      "   midi.NoteOffEvent(tick=4, channel=0, data=[25, 0]),\n",
      "   midi.NoteOnEvent(tick=6, channel=0, data=[71, 166]),\n",
      "   midi.NoteOnEvent(tick=4, channel=0, data=[58, 154]),\n",
      "   midi.NoteOnEvent(tick=2, channel=0, data=[105, 41]),\n",
      "   midi.NoteOnEvent(tick=1, channel=0, data=[114, 24]),\n",
      "   midi.NoteOnEvent(tick=2, channel=0, data=[69, 197]),\n",
      "   midi.NoteOnEvent(tick=2, channel=0, data=[23, 106]),\n",
      "   midi.NoteOnEvent(tick=0, channel=0, data=[42, 151]),\n",
      "   midi.NoteOnEvent(tick=3, channel=0, data=[116, 160]),\n",
      "   midi.NoteOnEvent(tick=2, channel=0, data=[49, 126]),\n",
      "   midi.NoteOnEvent(tick=2, channel=0, data=[27, 104]),\n",
      "   midi.NoteOnEvent(tick=0, channel=0, data=[17, 203]),\n",
      "   midi.NoteOnEvent(tick=2, channel=0, data=[77, 199]),\n",
      "   midi.NoteOnEvent(tick=0, channel=0, data=[21, 224]),\n",
      "   midi.NoteOnEvent(tick=3, channel=0, data=[94, 104]),\n",
      "   midi.NoteOffEvent(tick=3, channel=0, data=[80, 0]),\n",
      "   midi.NoteOnEvent(tick=3, channel=0, data=[36, 8]),\n",
      "   midi.NoteOnEvent(tick=2, channel=0, data=[80, 225]),\n",
      "   midi.NoteOnEvent(tick=1, channel=0, data=[26, 178]),\n",
      "   midi.NoteOnEvent(tick=1, channel=0, data=[126, 218]),\n",
      "   midi.NoteOnEvent(tick=1, channel=0, data=[114, 185]),\n",
      "   midi.NoteOnEvent(tick=1, channel=0, data=[27, 51]),\n",
      "   midi.NoteOnEvent(tick=1, channel=0, data=[42, 213]),\n",
      "   midi.NoteOnEvent(tick=1, channel=0, data=[111, 79]),\n",
      "   midi.NoteOnEvent(tick=1, channel=0, data=[12, 205]),\n",
      "   midi.NoteOnEvent(tick=0, channel=0, data=[79, 213]),\n",
      "   midi.NoteOnEvent(tick=3, channel=0, data=[122, 197]),\n",
      "   midi.NoteOnEvent(tick=0, channel=0, data=[21, 154]),\n",
      "   midi.NoteOnEvent(tick=1, channel=0, data=[76, 64]),\n",
      "   midi.NoteOnEvent(tick=2, channel=0, data=[66, 137]),\n",
      "   midi.NoteOnEvent(tick=2, channel=0, data=[62, 105]),\n",
      "   midi.NoteOnEvent(tick=0, channel=0, data=[93, 225]),\n",
      "   midi.NoteOnEvent(tick=1, channel=0, data=[38, 145]),\n",
      "   midi.NoteOnEvent(tick=5, channel=0, data=[83, 126]),\n",
      "   midi.NoteOffEvent(tick=3, channel=0, data=[30, 0]),\n",
      "   midi.NoteOffEvent(tick=0, channel=0, data=[102, 0]),\n",
      "   midi.NoteOnEvent(tick=1, channel=0, data=[99, 193]),\n",
      "   midi.NoteOnEvent(tick=0, channel=0, data=[2, 8]),\n",
      "   midi.NoteOnEvent(tick=0, channel=0, data=[32, 244]),\n",
      "   midi.NoteOnEvent(tick=0, channel=0, data=[97, 206]),\n",
      "   midi.NoteOnEvent(tick=1, channel=0, data=[44, 125]),\n",
      "   midi.NoteOffEvent(tick=2, channel=0, data=[2, 0]),\n",
      "   midi.NoteOffEvent(tick=2, channel=0, data=[70, 0]),\n",
      "   midi.NoteOnEvent(tick=2, channel=0, data=[1, 102]),\n",
      "   midi.NoteOnEvent(tick=9, channel=0, data=[124, 8]),\n",
      "   midi.NoteOnEvent(tick=0, channel=0, data=[120, 34]),\n",
      "   midi.NoteOnEvent(tick=3, channel=0, data=[27, 172]),\n",
      "   midi.NoteOnEvent(tick=0, channel=0, data=[5, 180]),\n",
      "   midi.NoteOnEvent(tick=0, channel=0, data=[94, 235]),\n",
      "   midi.NoteOnEvent(tick=5, channel=0, data=[50, 50]),\n",
      "   midi.NoteOnEvent(tick=0, channel=0, data=[4, 201]),\n",
      "   midi.NoteOnEvent(tick=1, channel=0, data=[17, 157]),\n",
      "   midi.NoteOnEvent(tick=1, channel=0, data=[30, 180]),\n",
      "   midi.NoteOnEvent(tick=2, channel=0, data=[24, 4]),\n",
      "   midi.NoteOnEvent(tick=0, channel=0, data=[98, 49]),\n",
      "   midi.NoteOnEvent(tick=1, channel=0, data=[78, 125]),\n",
      "   midi.NoteOnEvent(tick=0, channel=0, data=[74, 134]),\n",
      "   midi.NoteOffEvent(tick=2, channel=0, data=[30, 0]),\n",
      "   midi.NoteOnEvent(tick=0, channel=0, data=[45, 30]),\n",
      "   midi.NoteOnEvent(tick=3, channel=0, data=[61, 186]),\n",
      "   midi.NoteOffEvent(tick=1, channel=0, data=[18, 0]),\n",
      "   midi.NoteOnEvent(tick=6, channel=0, data=[126, 77]),\n",
      "   midi.NoteOnEvent(tick=1, channel=0, data=[23, 25]),\n",
      "   midi.NoteOnEvent(tick=0, channel=0, data=[3, 78]),\n",
      "   midi.NoteOnEvent(tick=1, channel=0, data=[36, 18]),\n",
      "   midi.NoteOnEvent(tick=2, channel=0, data=[49, 135]),\n",
      "   midi.NoteOnEvent(tick=0, channel=0, data=[1, 95]),\n",
      "   midi.NoteOnEvent(tick=1, channel=0, data=[127, 123]),\n",
      "   midi.NoteOnEvent(tick=4, channel=0, data=[85, 210]),\n",
      "   midi.NoteOffEvent(tick=1, channel=0, data=[46, 0]),\n",
      "   midi.NoteOnEvent(tick=0, channel=0, data=[88, 46]),\n",
      "   midi.NoteOnEvent(tick=0, channel=0, data=[81, 233]),\n",
      "   midi.NoteOnEvent(tick=0, channel=0, data=[44, 16]),\n",
      "   midi.NoteOnEvent(tick=1, channel=0, data=[10, 238]),\n",
      "   midi.NoteOnEvent(tick=1, channel=0, data=[23, 4]),\n",
      "   midi.NoteOnEvent(tick=0, channel=0, data=[70, 188]),\n",
      "   midi.NoteOnEvent(tick=0, channel=0, data=[30, 85]),\n",
      "   midi.NoteOnEvent(tick=1, channel=0, data=[75, 108]),\n",
      "   midi.NoteOnEvent(tick=0, channel=0, data=[26, 16]),\n",
      "   midi.NoteOffEvent(tick=1, channel=0, data=[42, 0]),\n",
      "   midi.NoteOnEvent(tick=0, channel=0, data=[45, 205]),\n",
      "   midi.NoteOnEvent(tick=0, channel=0, data=[13, 115]),\n",
      "   midi.NoteOnEvent(tick=1, channel=0, data=[85, 132]),\n",
      "   midi.NoteOnEvent(tick=4, channel=0, data=[123, 109]),\n",
      "   midi.NoteOnEvent(tick=2, channel=0, data=[10, 97]),\n",
      "   midi.NoteOnEvent(tick=1, channel=0, data=[67, 212]),\n",
      "   midi.NoteOnEvent(tick=1, channel=0, data=[114, 88]),\n",
      "   midi.NoteOnEvent(tick=1, channel=0, data=[59, 23]),\n",
      "   midi.NoteOnEvent(tick=0, channel=0, data=[100, 118]),\n",
      "   midi.NoteOnEvent(tick=2, channel=0, data=[109, 189]),\n",
      "   midi.NoteOnEvent(tick=0, channel=0, data=[87, 72]),\n",
      "   midi.NoteOnEvent(tick=1, channel=0, data=[100, 103]),\n",
      "   midi.NoteOnEvent(tick=3, channel=0, data=[43, 226]),\n",
      "   midi.NoteOnEvent(tick=1, channel=0, data=[29, 222]),\n",
      "   midi.NoteOnEvent(tick=1, channel=0, data=[26, 53]),\n",
      "   midi.NoteOnEvent(tick=2, channel=0, data=[8, 3]),\n",
      "   midi.NoteOnEvent(tick=2, channel=0, data=[35, 107]),\n",
      "   midi.NoteOnEvent(tick=2, channel=0, data=[69, 222]),\n",
      "   midi.NoteOnEvent(tick=1, channel=0, data=[30, 69]),\n",
      "   midi.NoteOnEvent(tick=1, channel=0, data=[118, 46]),\n",
      "   midi.NoteOnEvent(tick=1, channel=0, data=[86, 77]),\n",
      "   midi.NoteOnEvent(tick=1, channel=0, data=[96, 21]),\n",
      "   midi.NoteOnEvent(tick=7, channel=0, data=[65, 233]),\n",
      "   midi.NoteOnEvent(tick=6, channel=0, data=[71, 56]),\n",
      "   midi.NoteOnEvent(tick=2, channel=0, data=[117, 13]),\n",
      "   midi.NoteOffEvent(tick=2, channel=0, data=[58, 0]),\n",
      "   midi.NoteOnEvent(tick=1, channel=0, data=[31, 2]),\n",
      "   midi.NoteOnEvent(tick=2, channel=0, data=[73, 154]),\n",
      "   midi.NoteOffEvent(tick=1, channel=0, data=[93, 0]),\n",
      "   midi.NoteOnEvent(tick=3, channel=0, data=[23, 16]),\n",
      "   midi.NoteOnEvent(tick=6, channel=0, data=[86, 207]),\n",
      "   midi.NoteOnEvent(tick=1, channel=0, data=[63, 13]),\n",
      "   midi.NoteOnEvent(tick=4, channel=0, data=[24, 131]),\n",
      "   midi.NoteOnEvent(tick=1, channel=0, data=[116, 142]),\n",
      "   midi.NoteOnEvent(tick=1, channel=0, data=[120, 56]),\n",
      "   midi.NoteOnEvent(tick=0, channel=0, data=[98, 188]),\n",
      "   midi.NoteOffEvent(tick=1, channel=0, data=[87, 0]),\n",
      "   midi.NoteOnEvent(tick=0, channel=0, data=[92, 171]),\n",
      "   midi.NoteOnEvent(tick=1, channel=0, data=[121, 174]),\n",
      "   midi.NoteOnEvent(tick=1, channel=0, data=[81, 246]),\n",
      "   midi.NoteOffEvent(tick=1, channel=0, data=[77, 0]),\n",
      "   midi.NoteOnEvent(tick=1, channel=0, data=[105, 253]),\n",
      "   midi.NoteOnEvent(tick=0, channel=0, data=[98, 138]),\n",
      "   midi.NoteOnEvent(tick=1, channel=0, data=[90, 88]),\n",
      "   midi.NoteOffEvent(tick=1, channel=0, data=[113, 0]),\n",
      "   midi.NoteOnEvent(tick=1, channel=0, data=[84, 49]),\n",
      "   midi.NoteOnEvent(tick=1, channel=0, data=[50, 231]),\n",
      "   midi.NoteOnEvent(tick=3, channel=0, data=[117, 90]),\n",
      "   midi.NoteOnEvent(tick=2, channel=0, data=[98, 163]),\n",
      "   midi.NoteOnEvent(tick=1, channel=0, data=[32, 6]),\n",
      "   midi.NoteOnEvent(tick=1, channel=0, data=[104, 199]),\n",
      "   midi.NoteOnEvent(tick=1, channel=0, data=[92, 78]),\n",
      "   midi.NoteOnEvent(tick=1, channel=0, data=[65, 191]),\n",
      "   midi.NoteOnEvent(tick=2, channel=0, data=[44, 174]),\n",
      "   midi.NoteOffEvent(tick=1, channel=0, data=[85, 0]),\n",
      "   midi.NoteOnEvent(tick=1, channel=0, data=[72, 51]),\n",
      "   midi.NoteOffEvent(tick=1, channel=0, data=[82, 0]),\n",
      "   midi.NoteOnEvent(tick=0, channel=0, data=[58, 226]),\n",
      "   midi.NoteOnEvent(tick=2, channel=0, data=[73, 80]),\n",
      "   midi.NoteOnEvent(tick=3, channel=0, data=[85, 137]),\n",
      "   midi.NoteOnEvent(tick=1, channel=0, data=[83, 150]),\n",
      "   midi.NoteOnEvent(tick=5, channel=0, data=[21, 19]),\n",
      "   midi.NoteOnEvent(tick=4, channel=0, data=[23, 98]),\n",
      "   midi.NoteOnEvent(tick=0, channel=0, data=[110, 117]),\n",
      "   midi.NoteOffEvent(tick=1, channel=0, data=[63, 0]),\n",
      "   midi.NoteOffEvent(tick=2, channel=0, data=[119, 0]),\n",
      "   midi.NoteOnEvent(tick=1, channel=0, data=[114, 200]),\n",
      "   midi.NoteOnEvent(tick=1, channel=0, data=[4, 180]),\n",
      "   midi.NoteOnEvent(tick=4, channel=0, data=[123, 123]),\n",
      "   midi.NoteOnEvent(tick=5, channel=0, data=[106, 17]),\n",
      "   midi.NoteOnEvent(tick=1, channel=0, data=[112, 173]),\n",
      "   midi.NoteOnEvent(tick=1, channel=0, data=[14, 15]),\n",
      "   midi.NoteOnEvent(tick=1, channel=0, data=[13, 107]),\n",
      "   midi.NoteOnEvent(tick=0, channel=0, data=[111, 53]),\n",
      "   midi.NoteOnEvent(tick=2, channel=0, data=[24, 5]),\n",
      "   midi.NoteOnEvent(tick=2, channel=0, data=[9, 59]),\n",
      "   midi.NoteOnEvent(tick=0, channel=0, data=[125, 139]),\n",
      "   midi.NoteOnEvent(tick=1, channel=0, data=[120, 185]),\n",
      "   midi.NoteOnEvent(tick=2, channel=0, data=[46, 6]),\n",
      "   midi.NoteOnEvent(tick=0, channel=0, data=[70, 108]),\n",
      "   midi.NoteOnEvent(tick=2, channel=0, data=[46, 20]),\n",
      "   midi.NoteOnEvent(tick=2, channel=0, data=[125, 86]),\n",
      "   midi.NoteOffEvent(tick=1, channel=0, data=[52, 0]),\n",
      "   midi.NoteOnEvent(tick=1, channel=0, data=[23, 240]),\n",
      "   midi.NoteOnEvent(tick=0, channel=0, data=[27, 215]),\n",
      "   midi.NoteOnEvent(tick=0, channel=0, data=[104, 16]),\n",
      "   midi.NoteOnEvent(tick=2, channel=0, data=[31, 252]),\n",
      "   midi.NoteOnEvent(tick=1, channel=0, data=[109, 32]),\n",
      "   midi.NoteOnEvent(tick=0, channel=0, data=[104, 102]),\n",
      "   midi.NoteOnEvent(tick=0, channel=0, data=[34, 163]),\n",
      "   midi.NoteOnEvent(tick=2, channel=0, data=[117, 229]),\n",
      "   midi.NoteOnEvent(tick=0, channel=0, data=[44, 172]),\n",
      "   midi.NoteOnEvent(tick=0, channel=0, data=[113, 72]),\n",
      "   midi.NoteOnEvent(tick=1, channel=0, data=[3, 81]),\n",
      "   midi.NoteOnEvent(tick=2, channel=0, data=[81, 166]),\n",
      "   midi.NoteOnEvent(tick=2, channel=0, data=[58, 20]),\n",
      "   midi.NoteOffEvent(tick=1, channel=0, data=[67, 0]),\n",
      "   midi.NoteOnEvent(tick=0, channel=0, data=[94, 61]),\n",
      "   midi.NoteOnEvent(tick=1, channel=0, data=[50, 183]),\n",
      "   midi.NoteOnEvent(tick=2, channel=0, data=[70, 84]),\n",
      "   midi.NoteOffEvent(tick=3, channel=0, data=[84, 0]),\n",
      "   midi.NoteOnEvent(tick=0, channel=0, data=[109, 247]),\n",
      "   midi.NoteOffEvent(tick=2, channel=0, data=[3, 0]),\n",
      "   midi.NoteOnEvent(tick=1, channel=0, data=[42, 111]),\n",
      "   midi.NoteOnEvent(tick=1, channel=0, data=[96, 232]),\n",
      "   midi.NoteOnEvent(tick=0, channel=0, data=[26, 5]),\n",
      "   midi.NoteOffEvent(tick=1, channel=0, data=[17, 0]),\n",
      "   midi.NoteOffEvent(tick=4, channel=0, data=[127, 0]),\n",
      "   midi.NoteOnEvent(tick=0, channel=0, data=[60, 145]),\n",
      "   midi.NoteOnEvent(tick=1, channel=0, data=[5, 210]),\n",
      "   midi.NoteOnEvent(tick=0, channel=0, data=[1, 102]),\n",
      "   midi.NoteOffEvent(tick=1, channel=0, data=[1, 0]),\n",
      "   midi.NoteOnEvent(tick=0, channel=0, data=[58, 33]),\n",
      "   midi.NoteOffEvent(tick=3, channel=0, data=[86, 0]),\n",
      "   midi.NoteOnEvent(tick=0, channel=0, data=[74, 47]),\n",
      "   midi.NoteOnEvent(tick=1, channel=0, data=[41, 255]),\n",
      "   midi.NoteOnEvent(tick=1, channel=0, data=[66, 25]),\n",
      "   midi.NoteOnEvent(tick=5, channel=0, data=[21, 63]),\n",
      "   midi.NoteOnEvent(tick=2, channel=0, data=[14, 107]),\n",
      "   midi.NoteOnEvent(tick=1, channel=0, data=[119, 7]),\n",
      "   midi.NoteOnEvent(tick=4, channel=0, data=[90, 186]),\n",
      "   midi.NoteOnEvent(tick=3, channel=0, data=[29, 33]),\n",
      "   midi.NoteOffEvent(tick=1, channel=0, data=[57, 0]),\n",
      "   midi.NoteOnEvent(tick=0, channel=0, data=[37, 55]),\n",
      "   midi.NoteOnEvent(tick=3, channel=0, data=[34, 81]),\n",
      "   midi.NoteOnEvent(tick=1, channel=0, data=[97, 174]),\n",
      "   midi.NoteOnEvent(tick=1, channel=0, data=[41, 228]),\n",
      "   midi.NoteOnEvent(tick=2, channel=0, data=[47, 216]),\n",
      "   midi.NoteOnEvent(tick=1, channel=0, data=[110, 182]),\n",
      "   midi.NoteOnEvent(tick=0, channel=0, data=[54, 187]),\n",
      "   midi.NoteOnEvent(tick=0, channel=0, data=[100, 57]),\n",
      "   midi.NoteOnEvent(tick=1, channel=0, data=[17, 154]),\n",
      "   midi.NoteOnEvent(tick=1, channel=0, data=[15, 134]),\n",
      "   midi.NoteOnEvent(tick=0, channel=0, data=[35, 105]),\n",
      "   midi.NoteOnEvent(tick=1, channel=0, data=[59, 104]),\n",
      "   midi.NoteOffEvent(tick=2, channel=0, data=[35, 0]),\n",
      "   midi.NoteOnEvent(tick=1, channel=0, data=[9, 122]),\n",
      "   midi.NoteOnEvent(tick=1, channel=0, data=[59, 153]),\n",
      "   midi.NoteOnEvent(tick=2, channel=0, data=[21, 221]),\n",
      "   midi.NoteOnEvent(tick=5, channel=0, data=[50, 148]),\n",
      "   midi.NoteOnEvent(tick=2, channel=0, data=[71, 147]),\n",
      "   midi.NoteOffEvent(tick=5, channel=0, data=[70, 0]),\n",
      "   midi.NoteOnEvent(tick=0, channel=0, data=[36, 244]),\n",
      "   midi.NoteOnEvent(tick=1, channel=0, data=[66, 241]),\n",
      "   midi.NoteOnEvent(tick=0, channel=0, data=[91, 60]),\n",
      "   midi.NoteOffEvent(tick=2, channel=0, data=[21, 0]),\n",
      "   midi.NoteOnEvent(tick=4, channel=0, data=[115, 161]),\n",
      "   midi.NoteOnEvent(tick=0, channel=0, data=[34, 197]),\n",
      "   midi.NoteOnEvent(tick=1, channel=0, data=[44, 214]),\n",
      "   midi.NoteOnEvent(tick=1, channel=0, data=[108, 87]),\n",
      "   midi.NoteOnEvent(tick=1, channel=0, data=[88, 213]),\n",
      "   midi.NoteOnEvent(tick=1, channel=0, data=[38, 185]),\n",
      "   midi.NoteOnEvent(tick=1, channel=0, data=[55, 111]),\n",
      "   midi.NoteOnEvent(tick=1, channel=0, data=[95, 66]),\n",
      "   midi.NoteOnEvent(tick=0, channel=0, data=[37, 154]),\n",
      "   midi.NoteOffEvent(tick=1, channel=0, data=[95, 0]),\n",
      "   midi.NoteOnEvent(tick=0, channel=0, data=[114, 126]),\n",
      "   midi.NoteOnEvent(tick=1, channel=0, data=[38, 166]),\n",
      "   midi.NoteOnEvent(tick=1, channel=0, data=[62, 237]),\n",
      "   midi.NoteOnEvent(tick=2, channel=0, data=[15, 149]),\n",
      "   midi.NoteOnEvent(tick=2, channel=0, data=[63, 82]),\n",
      "   midi.NoteOffEvent(tick=2, channel=0, data=[24, 0]),\n",
      "   midi.NoteOnEvent(tick=4, channel=0, data=[69, 246]),\n",
      "   midi.NoteOffEvent(tick=3, channel=0, data=[55, 0]),\n",
      "   midi.NoteOnEvent(tick=0, channel=0, data=[21, 139]),\n",
      "   midi.NoteOnEvent(tick=0, channel=0, data=[121, 125]),\n",
      "   midi.NoteOnEvent(tick=2, channel=0, data=[28, 236]),\n",
      "   midi.NoteOnEvent(tick=1, channel=0, data=[34, 194]),\n",
      "   midi.NoteOnEvent(tick=0, channel=0, data=[13, 204]),\n",
      "   midi.NoteOnEvent(tick=1, channel=0, data=[96, 74]),\n",
      "   midi.NoteOnEvent(tick=3, channel=0, data=[49, 93]),\n",
      "   midi.NoteOnEvent(tick=1, channel=0, data=[0, 229]),\n",
      "   midi.NoteOnEvent(tick=2, channel=0, data=[73, 62]),\n",
      "   midi.NoteOffEvent(tick=3, channel=0, data=[118, 0]),\n",
      "   midi.NoteOnEvent(tick=0, channel=0, data=[36, 239]),\n",
      "   midi.NoteOffEvent(tick=1, channel=0, data=[74, 0]),\n",
      "   midi.NoteOnEvent(tick=4, channel=0, data=[80, 188]),\n",
      "   midi.NoteOnEvent(tick=1, channel=0, data=[1, 209]),\n",
      "   midi.NoteOffEvent(tick=2, channel=0, data=[54, 0]),\n",
      "   midi.NoteOnEvent(tick=0, channel=0, data=[36, 205]),\n",
      "   midi.NoteOnEvent(tick=0, channel=0, data=[13, 158]),\n",
      "   midi.NoteOnEvent(tick=1, channel=0, data=[123, 177]),\n",
      "   midi.NoteOnEvent(tick=0, channel=0, data=[34, 71]),\n",
      "   midi.NoteOnEvent(tick=4, channel=0, data=[13, 152]),\n",
      "   midi.NoteOnEvent(tick=1, channel=0, data=[83, 102]),\n",
      "   midi.NoteOffEvent(tick=2, channel=0, data=[13, 0]),\n",
      "   midi.NoteOnEvent(tick=1, channel=0, data=[13, 201]),\n",
      "   midi.NoteOffEvent(tick=1, channel=0, data=[23, 0]),\n",
      "   midi.NoteOnEvent(tick=1, channel=0, data=[18, 84]),\n",
      "   midi.NoteOnEvent(tick=2, channel=0, data=[108, 239]),\n",
      "   midi.NoteOffEvent(tick=1, channel=0, data=[109, 0]),\n",
      "   midi.NoteOnEvent(tick=0, channel=0, data=[19, 108]),\n",
      "   midi.NoteOnEvent(tick=5, channel=0, data=[10, 26]),\n",
      "   midi.NoteOnEvent(tick=2, channel=0, data=[82, 204]),\n",
      "   midi.NoteOnEvent(tick=1, channel=0, data=[33, 120]),\n",
      "   midi.NoteOffEvent(tick=2, channel=0, data=[96, 0]),\n",
      "   midi.NoteOnEvent(tick=3, channel=0, data=[26, 194]),\n",
      "   midi.NoteOnEvent(tick=1, channel=0, data=[61, 217]),\n",
      "   midi.NoteOnEvent(tick=1, channel=0, data=[8, 146]),\n",
      "   midi.NoteOffEvent(tick=2, channel=0, data=[111, 0]),\n",
      "   midi.NoteOnEvent(tick=2, channel=0, data=[40, 119]),\n",
      "   midi.NoteOnEvent(tick=2, channel=0, data=[34, 192]),\n",
      "   midi.NoteOnEvent(tick=2, channel=0, data=[15, 113]),\n",
      "   midi.NoteOnEvent(tick=6, channel=0, data=[4, 45]),\n",
      "   midi.NoteOnEvent(tick=1, channel=0, data=[91, 39]),\n",
      "   midi.NoteOnEvent(tick=1, channel=0, data=[16, 48]),\n",
      "   midi.NoteOnEvent(tick=0, channel=0, data=[101, 118]),\n",
      "   midi.NoteOnEvent(tick=3, channel=0, data=[84, 98]),\n",
      "   midi.NoteOffEvent(tick=3, channel=0, data=[58, 0]),\n",
      "   midi.NoteOnEvent(tick=2, channel=0, data=[31, 174]),\n",
      "   midi.NoteOffEvent(tick=3, channel=0, data=[39, 0]),\n",
      "   midi.NoteOffEvent(tick=0, channel=0, data=[89, 0]),\n",
      "   midi.NoteOnEvent(tick=1, channel=0, data=[28, 40]),\n",
      "   midi.NoteOffEvent(tick=1, channel=0, data=[21, 0]),\n",
      "   midi.NoteOnEvent(tick=0, channel=0, data=[103, 76]),\n",
      "   midi.NoteOnEvent(tick=0, channel=0, data=[124, 89]),\n",
      "   midi.NoteOnEvent(tick=1, channel=0, data=[14, 60]),\n",
      "   midi.NoteOnEvent(tick=1, channel=0, data=[11, 97]),\n",
      "   midi.NoteOffEvent(tick=6, channel=0, data=[101, 0]),\n",
      "   midi.NoteOnEvent(tick=0, channel=0, data=[30, 232]),\n",
      "   midi.NoteOffEvent(tick=5, channel=0, data=[98, 0]),\n",
      "   midi.NoteOnEvent(tick=3, channel=0, data=[43, 60]),\n",
      "   midi.NoteOnEvent(tick=1, channel=0, data=[119, 104]),\n",
      "   midi.NoteOnEvent(tick=3, channel=0, data=[63, 249]),\n",
      "   midi.NoteOnEvent(tick=1, channel=0, data=[10, 156]),\n",
      "   midi.NoteOnEvent(tick=1, channel=0, data=[21, 238]),\n",
      "   midi.NoteOnEvent(tick=0, channel=0, data=[15, 75]),\n",
      "   midi.NoteOnEvent(tick=1, channel=0, data=[9, 14]),\n",
      "   midi.NoteOnEvent(tick=0, channel=0, data=[89, 102]),\n",
      "   midi.NoteOnEvent(tick=4, channel=0, data=[76, 79]),\n",
      "   midi.NoteOnEvent(tick=0, channel=0, data=[38, 135]),\n",
      "   midi.NoteOnEvent(tick=3, channel=0, data=[0, 43]),\n",
      "   midi.NoteOnEvent(tick=2, channel=0, data=[106, 22]),\n",
      "   midi.NoteOnEvent(tick=1, channel=0, data=[63, 253]),\n",
      "   midi.NoteOnEvent(tick=1, channel=0, data=[104, 57]),\n",
      "   midi.NoteOnEvent(tick=5, channel=0, data=[12, 140]),\n",
      "   midi.NoteOnEvent(tick=0, channel=0, data=[3, 194]),\n",
      "   midi.NoteOnEvent(tick=7, channel=0, data=[28, 95]),\n",
      "   midi.NoteOnEvent(tick=4, channel=0, data=[30, 27]),\n",
      "   midi.NoteOnEvent(tick=2, channel=0, data=[39, 189]),\n",
      "   midi.NoteOffEvent(tick=1, channel=0, data=[64, 0]),\n",
      "   midi.NoteOnEvent(tick=1, channel=0, data=[126, 26]),\n",
      "   midi.NoteOnEvent(tick=0, channel=0, data=[55, 188]),\n",
      "   midi.NoteOnEvent(tick=0, channel=0, data=[119, 56]),\n",
      "   midi.NoteOnEvent(tick=1, channel=0, data=[3, 195]),\n",
      "   midi.NoteOnEvent(tick=1, channel=0, data=[4, 136]),\n",
      "   midi.NoteOnEvent(tick=1, channel=0, data=[91, 170]),\n",
      "   midi.NoteOffEvent(tick=6, channel=0, data=[78, 0]),\n",
      "   midi.NoteOffEvent(tick=1, channel=0, data=[121, 0]),\n",
      "   midi.NoteOnEvent(tick=2, channel=0, data=[38, 105]),\n",
      "   midi.NoteOnEvent(tick=6, channel=0, data=[31, 127]),\n",
      "   midi.NoteOffEvent(tick=7, channel=0, data=[44, 0]),\n",
      "   midi.NoteOnEvent(tick=0, channel=0, data=[36, 178]),\n",
      "   midi.NoteOnEvent(tick=0, channel=0, data=[86, 139]),\n",
      "   midi.NoteOffEvent(tick=2, channel=0, data=[88, 0]),\n",
      "   midi.NoteOnEvent(tick=1, channel=0, data=[0, 103]),\n",
      "   midi.NoteOnEvent(tick=0, channel=0, data=[14, 240]),\n",
      "   midi.NoteOnEvent(tick=2, channel=0, data=[18, 72]),\n",
      "   midi.NoteOnEvent(tick=0, channel=0, data=[30, 4]),\n",
      "   midi.NoteOnEvent(tick=0, channel=0, data=[59, 36]),\n",
      "   midi.NoteOnEvent(tick=0, channel=0, data=[107, 187]),\n",
      "   midi.NoteOffEvent(tick=1, channel=0, data=[115, 0]),\n",
      "   midi.NoteOffEvent(tick=4, channel=0, data=[75, 0]),\n",
      "   midi.NoteOnEvent(tick=0, channel=0, data=[37, 23]),\n",
      "   midi.NoteOnEvent(tick=3, channel=0, data=[113, 183]),\n",
      "   midi.NoteOnEvent(tick=4, channel=0, data=[56, 122]),\n",
      "   midi.NoteOnEvent(tick=0, channel=0, data=[105, 86]),\n",
      "   midi.NoteOnEvent(tick=1, channel=0, data=[40, 250]),\n",
      "   midi.NoteOnEvent(tick=1, channel=0, data=[44, 152]),\n",
      "   midi.NoteOnEvent(tick=0, channel=0, data=[108, 184]),\n",
      "   midi.NoteOffEvent(tick=1, channel=0, data=[50, 0]),\n",
      "   midi.NoteOffEvent(tick=1, channel=0, data=[32, 0]),\n",
      "   midi.NoteOnEvent(tick=1, channel=0, data=[60, 102]),\n",
      "   midi.NoteOnEvent(tick=1, channel=0, data=[107, 106]),\n",
      "   midi.NoteOffEvent(tick=5, channel=0, data=[72, 0]),\n",
      "   midi.NoteOnEvent(tick=0, channel=0, data=[88, 51]),\n",
      "   midi.NoteOffEvent(tick=1, channel=0, data=[90, 0]),\n",
      "   midi.NoteOnEvent(tick=0, channel=0, data=[16, 89]),\n",
      "   midi.NoteOnEvent(tick=1, channel=0, data=[59, 227]),\n",
      "   midi.NoteOnEvent(tick=2, channel=0, data=[32, 203]),\n",
      "   midi.NoteOnEvent(tick=3, channel=0, data=[127, 22]),\n",
      "   midi.NoteOnEvent(tick=6, channel=0, data=[81, 60]),\n",
      "   midi.NoteOffEvent(tick=3, channel=0, data=[10, 0]),\n",
      "   midi.NoteOnEvent(tick=0, channel=0, data=[84, 54]),\n",
      "   midi.NoteOnEvent(tick=2, channel=0, data=[115, 206]),\n",
      "   midi.NoteOnEvent(tick=5, channel=0, data=[39, 3]),\n",
      "   midi.NoteOffEvent(tick=1, channel=0, data=[89, 0]),\n",
      "   midi.NoteOnEvent(tick=0, channel=0, data=[77, 172]),\n",
      "   midi.NoteOnEvent(tick=4, channel=0, data=[33, 13]),\n",
      "   midi.NoteOnEvent(tick=0, channel=0, data=[116, 106]),\n",
      "   midi.NoteOnEvent(tick=2, channel=0, data=[118, 132]),\n",
      "   midi.NoteOnEvent(tick=2, channel=0, data=[73, 6]),\n",
      "   midi.NoteOffEvent(tick=1, channel=0, data=[16, 0]),\n",
      "   midi.NoteOnEvent(tick=3, channel=0, data=[72, 133]),\n",
      "   midi.NoteOffEvent(tick=1, channel=0, data=[106, 0]),\n",
      "   midi.NoteOnEvent(tick=2, channel=0, data=[52, 229]),\n",
      "   midi.NoteOffEvent(tick=1, channel=0, data=[85, 0]),\n",
      "   midi.NoteOnEvent(tick=0, channel=0, data=[127, 113]),\n",
      "   midi.NoteOnEvent(tick=7, channel=0, data=[17, 228]),\n",
      "   midi.NoteOnEvent(tick=3, channel=0, data=[22, 196]),\n",
      "   midi.NoteOnEvent(tick=3, channel=0, data=[29, 183]),\n",
      "   midi.NoteOnEvent(tick=4, channel=0, data=[90, 206]),\n",
      "   midi.NoteOffEvent(tick=1, channel=0, data=[32, 0]),\n",
      "   midi.NoteOnEvent(tick=3, channel=0, data=[117, 153]),\n",
      "   midi.NoteOnEvent(tick=1, channel=0, data=[86, 231]),\n",
      "   midi.NoteOffEvent(tick=4, channel=0, data=[55, 0]),\n",
      "   midi.NoteOffEvent(tick=2, channel=0, data=[68, 0]),\n",
      "   midi.NoteOnEvent(tick=0, channel=0, data=[46, 195]),\n",
      "   midi.NoteOnEvent(tick=4, channel=0, data=[47, 15]),\n",
      "   midi.NoteOnEvent(tick=2, channel=0, data=[9, 172]),\n",
      "   midi.NoteOnEvent(tick=0, channel=0, data=[12, 116]),\n",
      "   midi.NoteOnEvent(tick=2, channel=0, data=[63, 33]),\n",
      "   midi.NoteOffEvent(tick=2, channel=0, data=[49, 0]),\n",
      "   midi.NoteOnEvent(tick=2, channel=0, data=[40, 116]),\n",
      "   midi.NoteOnEvent(tick=1, channel=0, data=[7, 7]),\n",
      "   midi.NoteOnEvent(tick=0, channel=0, data=[11, 190]),\n",
      "   midi.NoteOnEvent(tick=1, channel=0, data=[40, 89]),\n",
      "   midi.NoteOffEvent(tick=4, channel=0, data=[34, 0]),\n",
      "   midi.NoteOnEvent(tick=0, channel=0, data=[52, 236]),\n",
      "   midi.NoteOnEvent(tick=0, channel=0, data=[83, 63]),\n",
      "   midi.NoteOnEvent(tick=2, channel=0, data=[102, 204]),\n",
      "   midi.NoteOnEvent(tick=1, channel=0, data=[66, 177]),\n",
      "   midi.NoteOffEvent(tick=2, channel=0, data=[3, 0]),\n",
      "   midi.NoteOnEvent(tick=1, channel=0, data=[127, 192]),\n",
      "   midi.NoteOnEvent(tick=1, channel=0, data=[71, 157]),\n",
      "   midi.NoteOnEvent(tick=2, channel=0, data=[79, 53]),\n",
      "   midi.NoteOnEvent(tick=1, channel=0, data=[116, 129]),\n",
      "   midi.NoteOffEvent(tick=1, channel=0, data=[84, 0]),\n",
      "   midi.NoteOnEvent(tick=0, channel=0, data=[90, 195]),\n",
      "   midi.NoteOnEvent(tick=1, channel=0, data=[81, 242]),\n",
      "   midi.NoteOnEvent(tick=0, channel=0, data=[46, 182]),\n",
      "   midi.NoteOnEvent(tick=0, channel=0, data=[10, 189]),\n",
      "   midi.NoteOnEvent(tick=1, channel=0, data=[99, 165]),\n",
      "   midi.NoteOffEvent(tick=2, channel=0, data=[112, 0]),\n",
      "   midi.NoteOnEvent(tick=0, channel=0, data=[105, 248]),\n",
      "   midi.NoteOnEvent(tick=4, channel=0, data=[121, 132]),\n",
      "   midi.NoteOnEvent(tick=2, channel=0, data=[14, 219]),\n",
      "   midi.NoteOnEvent(tick=1, channel=0, data=[84, 42]),\n",
      "   midi.NoteOnEvent(tick=5, channel=0, data=[6, 253]),\n",
      "   midi.NoteOnEvent(tick=1, channel=0, data=[65, 120]),\n",
      "   midi.NoteOnEvent(tick=2, channel=0, data=[24, 107]),\n",
      "   midi.NoteOnEvent(tick=0, channel=0, data=[91, 102]),\n",
      "   midi.NoteOnEvent(tick=2, channel=0, data=[40, 150]),\n",
      "   midi.NoteOffEvent(tick=5, channel=0, data=[52, 0]),\n",
      "   midi.NoteOnEvent(tick=0, channel=0, data=[25, 128]),\n",
      "   midi.NoteOnEvent(tick=1, channel=0, data=[5, 103]),\n",
      "   midi.NoteOnEvent(tick=2, channel=0, data=[54, 133]),\n",
      "   midi.NoteOnEvent(tick=0, channel=0, data=[8, 119]),\n",
      "   midi.NoteOnEvent(tick=1, channel=0, data=[115, 127]),\n",
      "   midi.NoteOnEvent(tick=3, channel=0, data=[56, 239]),\n",
      "   midi.NoteOffEvent(tick=6, channel=0, data=[38, 0]),\n",
      "   midi.NoteOnEvent(tick=3, channel=0, data=[94, 84]),\n",
      "   midi.NoteOffEvent(tick=4, channel=0, data=[88, 0]),\n",
      "   midi.NoteOffEvent(tick=25, channel=0, data=[10, 0]),\n",
      "   midi.NoteOffEvent(tick=3, channel=0, data=[19, 0]),\n",
      "   midi.NoteOffEvent(tick=1, channel=0, data=[69, 0]),\n",
      "   midi.NoteOffEvent(tick=14, channel=0, data=[22, 0]),\n",
      "   midi.NoteOffEvent(tick=17, channel=0, data=[48, 0]),\n",
      "   midi.NoteOffEvent(tick=16, channel=0, data=[90, 0]),\n",
      "   midi.NoteOffEvent(tick=5, channel=0, data=[21, 0]),\n",
      "   midi.NoteOffEvent(tick=5, channel=0, data=[124, 0]),\n",
      "   midi.NoteOffEvent(tick=3, channel=0, data=[100, 0]),\n",
      "   midi.NoteOffEvent(tick=13, channel=0, data=[25, 0]),\n",
      "   midi.NoteOffEvent(tick=6, channel=0, data=[120, 0]),\n",
      "   midi.NoteOffEvent(tick=5, channel=0, data=[17, 0]),\n",
      "   midi.NoteOffEvent(tick=1, channel=0, data=[6, 0]),\n",
      "   midi.NoteOffEvent(tick=39, channel=0, data=[56, 0]),\n",
      "   midi.NoteOffEvent(tick=11, channel=0, data=[62, 0]),\n",
      "   midi.NoteOffEvent(tick=5, channel=0, data=[81, 0]),\n",
      "   midi.NoteOffEvent(tick=22, channel=0, data=[9, 0]),\n",
      "   midi.NoteOffEvent(tick=7, channel=0, data=[123, 0]),\n",
      "   midi.NoteOffEvent(tick=1, channel=0, data=[31, 0]),\n",
      "   midi.NoteOffEvent(tick=0, channel=0, data=[51, 0]),\n",
      "   midi.NoteOffEvent(tick=1, channel=0, data=[125, 0]),\n",
      "   midi.NoteOffEvent(tick=9, channel=0, data=[37, 0]),\n",
      "   midi.NoteOffEvent(tick=2, channel=0, data=[26, 0]),\n",
      "   midi.NoteOffEvent(tick=1, channel=0, data=[82, 0]),\n",
      "   midi.NoteOffEvent(tick=3, channel=0, data=[39, 0]),\n",
      "   midi.NoteOffEvent(tick=4, channel=0, data=[91, 0]),\n",
      "   midi.NoteOffEvent(tick=5, channel=0, data=[13, 0]),\n",
      "   midi.NoteOffEvent(tick=9, channel=0, data=[126, 0]),\n",
      "   midi.NoteOffEvent(tick=20, channel=0, data=[15, 0]),\n",
      "   midi.NoteOffEvent(tick=2, channel=0, data=[94, 0]),\n",
      "   midi.NoteOffEvent(tick=8, channel=0, data=[44, 0]),\n",
      "   midi.NoteOffEvent(tick=0, channel=0, data=[118, 0]),\n",
      "   midi.NoteOffEvent(tick=9, channel=0, data=[107, 0]),\n",
      "   midi.NoteOffEvent(tick=3, channel=0, data=[114, 0]),\n",
      "   midi.NoteOffEvent(tick=6, channel=0, data=[122, 0]),\n",
      "   midi.NoteOffEvent(tick=4, channel=0, data=[43, 0]),\n",
      "   midi.NoteOffEvent(tick=14, channel=0, data=[29, 0]),\n",
      "   midi.NoteOffEvent(tick=4, channel=0, data=[71, 0]),\n",
      "   midi.NoteOffEvent(tick=5, channel=0, data=[66, 0]),\n",
      "   midi.NoteOffEvent(tick=1, channel=0, data=[42, 0]),\n",
      "   midi.NoteOffEvent(tick=8, channel=0, data=[116, 0]),\n",
      "   midi.NoteOffEvent(tick=2, channel=0, data=[108, 0]),\n",
      "   midi.NoteOffEvent(tick=6, channel=0, data=[7, 0]),\n",
      "   midi.NoteOffEvent(tick=2, channel=0, data=[36, 0]),\n",
      "   midi.NoteOffEvent(tick=2, channel=0, data=[110, 0]),\n",
      "   midi.NoteOffEvent(tick=25, channel=0, data=[45, 0]),\n",
      "   midi.NoteOffEvent(tick=19, channel=0, data=[115, 0]),\n",
      "   midi.NoteOffEvent(tick=3, channel=0, data=[92, 0]),\n",
      "   midi.NoteOffEvent(tick=6, channel=0, data=[117, 0]),\n",
      "   midi.NoteOffEvent(tick=26, channel=0, data=[27, 0]),\n",
      "   midi.NoteOffEvent(tick=20, channel=0, data=[41, 0]),\n",
      "   midi.NoteOffEvent(tick=20, channel=0, data=[97, 0]),\n",
      "   midi.NoteOffEvent(tick=3, channel=0, data=[46, 0]),\n",
      "   midi.NoteOffEvent(tick=2, channel=0, data=[61, 0]),\n",
      "   midi.NoteOffEvent(tick=1, channel=0, data=[77, 0]),\n",
      "   midi.NoteOffEvent(tick=2, channel=0, data=[47, 0]),\n",
      "   midi.NoteOffEvent(tick=14, channel=0, data=[80, 0]),\n",
      "   midi.NoteOffEvent(tick=19, channel=0, data=[28, 0]),\n",
      "   midi.NoteOffEvent(tick=16, channel=0, data=[0, 0]),\n",
      "   midi.NoteOffEvent(tick=36, channel=0, data=[30, 0]),\n",
      "   midi.NoteOffEvent(tick=5, channel=0, data=[4, 0]),\n",
      "   midi.NoteOffEvent(tick=16, channel=0, data=[99, 0]),\n",
      "   midi.NoteOffEvent(tick=1, channel=0, data=[18, 0]),\n",
      "   midi.NoteOffEvent(tick=15, channel=0, data=[73, 0]),\n",
      "   midi.NoteOffEvent(tick=1, channel=0, data=[5, 0]),\n",
      "   midi.NoteOffEvent(tick=3, channel=0, data=[54, 0]),\n",
      "   midi.NoteOffEvent(tick=17, channel=0, data=[11, 0]),\n",
      "   midi.NoteOffEvent(tick=10, channel=0, data=[103, 0]),\n",
      "   midi.NoteOffEvent(tick=38, channel=0, data=[33, 0]),\n",
      "   midi.NoteOffEvent(tick=38, channel=0, data=[127, 0]),\n",
      "   midi.NoteOffEvent(tick=1, channel=0, data=[104, 0]),\n",
      "   midi.NoteOffEvent(tick=2, channel=0, data=[1, 0]),\n",
      "   midi.NoteOffEvent(tick=0, channel=0, data=[60, 0]),\n",
      "   midi.NoteOffEvent(tick=33, channel=0, data=[119, 0]),\n",
      "   midi.NoteOffEvent(tick=14, channel=0, data=[83, 0]),\n",
      "   midi.NoteOffEvent(tick=2, channel=0, data=[102, 0]),\n",
      "   midi.NoteOffEvent(tick=17, channel=0, data=[76, 0]),\n",
      "   midi.NoteOffEvent(tick=1, channel=0, data=[72, 0]),\n",
      "   midi.NoteOffEvent(tick=5, channel=0, data=[59, 0]),\n",
      "   midi.NoteOffEvent(tick=14, channel=0, data=[8, 0]),\n",
      "   midi.NoteOffEvent(tick=0, channel=0, data=[113, 0]),\n",
      "   midi.NoteOffEvent(tick=7, channel=0, data=[86, 0]),\n",
      "   midi.NoteOffEvent(tick=15, channel=0, data=[84, 0]),\n",
      "   midi.NoteOffEvent(tick=22, channel=0, data=[63, 0]),\n",
      "   midi.NoteOffEvent(tick=2, channel=0, data=[65, 0]),\n",
      "   midi.NoteOffEvent(tick=6, channel=0, data=[14, 0]),\n",
      "   midi.NoteOffEvent(tick=55, channel=0, data=[79, 0]),\n",
      "   midi.NoteOffEvent(tick=10, channel=0, data=[105, 0]),\n",
      "   midi.NoteOffEvent(tick=9, channel=0, data=[24, 0]),\n",
      "   midi.NoteOffEvent(tick=31, channel=0, data=[121, 0]),\n",
      "   midi.NoteOffEvent(tick=21, channel=0, data=[40, 0]),\n",
      "   midi.EndOfTrackEvent(tick=0, data=[])]),\n",
      " midi.Track(\\\n",
      "  [midi.SetTempoEvent(tick=0, data=[4, 147, 224]),\n",
      "   midi.ProgramChangeEvent(tick=0, channel=0, data=[80]),\n",
      "   midi.NoteOnEvent(tick=0, channel=0, data=[69, 114]),\n",
      "   midi.NoteOnEvent(tick=0, channel=0, data=[3, 121]),\n",
      "   midi.NoteOnEvent(tick=0, channel=0, data=[71, 254]),\n",
      "   midi.NoteOnEvent(tick=1, channel=0, data=[73, 203]),\n",
      "   midi.NoteOffEvent(tick=1, channel=0, data=[3, 0]),\n",
      "   midi.NoteOnEvent(tick=0, channel=0, data=[120, 54]),\n",
      "   midi.NoteOnEvent(tick=0, channel=0, data=[20, 93]),\n",
      "   midi.NoteOnEvent(tick=1, channel=0, data=[104, 11]),\n",
      "   midi.NoteOnEvent(tick=4, channel=0, data=[105, 55]),\n",
      "   midi.NoteOnEvent(tick=6, channel=0, data=[50, 156]),\n",
      "   midi.NoteOnEvent(tick=1, channel=0, data=[77, 117]),\n",
      "   midi.NoteOnEvent(tick=3, channel=0, data=[115, 101]),\n",
      "   midi.NoteOnEvent(tick=0, channel=0, data=[119, 57]),\n",
      "   midi.NoteOnEvent(tick=1, channel=0, data=[50, 39]),\n",
      "   midi.NoteOnEvent(tick=3, channel=0, data=[7, 13]),\n",
      "   midi.NoteOnEvent(tick=1, channel=0, data=[70, 159]),\n",
      "   midi.NoteOnEvent(tick=2, channel=0, data=[6, 185]),\n",
      "   midi.NoteOnEvent(tick=4, channel=0, data=[119, 241]),\n",
      "   midi.NoteOnEvent(tick=1, channel=0, data=[56, 41]),\n",
      "   midi.NoteOnEvent(tick=0, channel=0, data=[124, 102]),\n",
      "   midi.NoteOnEvent(tick=3, channel=0, data=[37, 129]),\n",
      "   midi.NoteOnEvent(tick=2, channel=0, data=[125, 152]),\n",
      "   midi.NoteOnEvent(tick=1, channel=0, data=[67, 83]),\n",
      "   midi.NoteOnEvent(tick=1, channel=0, data=[124, 195]),\n",
      "   midi.NoteOnEvent(tick=1, channel=0, data=[112, 161]),\n",
      "   midi.NoteOnEvent(tick=5, channel=0, data=[74, 63]),\n",
      "   midi.NoteOnEvent(tick=3, channel=0, data=[126, 211]),\n",
      "   midi.NoteOnEvent(tick=1, channel=0, data=[55, 101]),\n",
      "   midi.NoteOnEvent(tick=2, channel=0, data=[122, 154]),\n",
      "   midi.NoteOnEvent(tick=8, channel=0, data=[98, 100]),\n",
      "   midi.NoteOnEvent(tick=3, channel=0, data=[85, 99]),\n",
      "   midi.NoteOnEvent(tick=2, channel=0, data=[57, 81]),\n",
      "   midi.NoteOnEvent(tick=5, channel=0, data=[34, 238]),\n",
      "   midi.NoteOnEvent(tick=2, channel=0, data=[68, 107]),\n",
      "   midi.NoteOnEvent(tick=1, channel=0, data=[10, 223]),\n",
      "   midi.NoteOnEvent(tick=0, channel=0, data=[97, 164]),\n",
      "   midi.NoteOnEvent(tick=1, channel=0, data=[8, 218]),\n",
      "   midi.NoteOnEvent(tick=0, channel=0, data=[37, 58]),\n",
      "   midi.NoteOnEvent(tick=2, channel=0, data=[85, 87]),\n",
      "   midi.NoteOnEvent(tick=0, channel=0, data=[2, 6]),\n",
      "   midi.NoteOnEvent(tick=1, channel=0, data=[114, 96]),\n",
      "   midi.NoteOnEvent(tick=1, channel=0, data=[35, 251]),\n",
      "   midi.NoteOffEvent(tick=8, channel=0, data=[2, 0]),\n",
      "   midi.NoteOnEvent(tick=0, channel=0, data=[12, 77]),\n",
      "   midi.NoteOnEvent(tick=4, channel=0, data=[12, 205]),\n",
      "   midi.NoteOnEvent(tick=1, channel=0, data=[36, 214]),\n",
      "   midi.NoteOnEvent(tick=0, channel=0, data=[10, 246]),\n",
      "   midi.NoteOnEvent(tick=4, channel=0, data=[97, 16]),\n",
      "   midi.NoteOnEvent(tick=2, channel=0, data=[10, 245]),\n",
      "   midi.NoteOnEvent(tick=0, channel=0, data=[53, 82]),\n",
      "   midi.NoteOnEvent(tick=1, channel=0, data=[67, 143]),\n",
      "   midi.NoteOnEvent(tick=3, channel=0, data=[60, 197]),\n",
      "   midi.NoteOnEvent(tick=1, channel=0, data=[9, 9]),\n",
      "   midi.NoteOnEvent(tick=3, channel=0, data=[22, 182]),\n",
      "   midi.NoteOnEvent(tick=3, channel=0, data=[107, 28]),\n",
      "   midi.NoteOnEvent(tick=0, channel=0, data=[41, 24]),\n",
      "   midi.NoteOnEvent(tick=1, channel=0, data=[75, 116]),\n",
      "   midi.NoteOnEvent(tick=1, channel=0, data=[82, 37]),\n",
      "   midi.NoteOnEvent(tick=1, channel=0, data=[57, 163]),\n",
      "   midi.NoteOnEvent(tick=3, channel=0, data=[125, 24]),\n",
      "   midi.NoteOnEvent(tick=0, channel=0, data=[25, 23]),\n",
      "   midi.NoteOnEvent(tick=0, channel=0, data=[28, 188]),\n",
      "   midi.NoteOnEvent(tick=8, channel=0, data=[82, 43]),\n",
      "   midi.NoteOnEvent(tick=0, channel=0, data=[3, 150]),\n",
      "   midi.NoteOffEvent(tick=2, channel=0, data=[98, 0]),\n",
      "   midi.NoteOnEvent(tick=2, channel=0, data=[64, 139]),\n",
      "   midi.NoteOnEvent(tick=0, channel=0, data=[123, 237]),\n",
      "   midi.NoteOnEvent(tick=0, channel=0, data=[85, 127]),\n",
      "   midi.NoteOffEvent(tick=1, channel=0, data=[68, 0]),\n",
      "   midi.NoteOnEvent(tick=0, channel=0, data=[75, 190]),\n",
      "   midi.NoteOnEvent(tick=0, channel=0, data=[85, 244]),\n",
      "   midi.NoteOnEvent(tick=1, channel=0, data=[44, 84]),\n",
      "   midi.NoteOnEvent(tick=0, channel=0, data=[114, 233]),\n",
      "   midi.NoteOffEvent(tick=4, channel=0, data=[107, 0]),\n",
      "   midi.NoteOnEvent(tick=8, channel=0, data=[66, 150]),\n",
      "   midi.NoteOnEvent(tick=1, channel=0, data=[39, 133]),\n",
      "   midi.NoteOnEvent(tick=0, channel=0, data=[58, 234]),\n",
      "   midi.NoteOnEvent(tick=1, channel=0, data=[6, 24]),\n",
      "   midi.NoteOnEvent(tick=0, channel=0, data=[89, 240]),\n",
      "   midi.NoteOnEvent(tick=2, channel=0, data=[46, 4]),\n",
      "   midi.NoteOnEvent(tick=1, channel=0, data=[90, 12]),\n",
      "   midi.NoteOnEvent(tick=1, channel=0, data=[45, 161]),\n",
      "   midi.NoteOnEvent(tick=2, channel=0, data=[35, 73]),\n",
      "   midi.NoteOnEvent(tick=6, channel=0, data=[15, 4]),\n",
      "   midi.NoteOnEvent(tick=3, channel=0, data=[10, 206]),\n",
      "   midi.NoteOnEvent(tick=2, channel=0, data=[17, 2]),\n",
      "   midi.NoteOnEvent(tick=1, channel=0, data=[30, 167]),\n",
      "   midi.NoteOnEvent(tick=1, channel=0, data=[40, 78]),\n",
      "   midi.NoteOnEvent(tick=1, channel=0, data=[13, 137]),\n",
      "   midi.NoteOnEvent(tick=1, channel=0, data=[29, 138]),\n",
      "   midi.NoteOnEvent(tick=1, channel=0, data=[82, 50]),\n",
      "   midi.NoteOnEvent(tick=1, channel=0, data=[107, 177]),\n",
      "   midi.NoteOnEvent(tick=2, channel=0, data=[35, 19]),\n",
      "   midi.NoteOnEvent(tick=2, channel=0, data=[3, 145]),\n",
      "   midi.NoteOnEvent(tick=2, channel=0, data=[13, 109]),\n",
      "   midi.NoteOnEvent(tick=3, channel=0, data=[2, 64]),\n",
      "   midi.NoteOnEvent(tick=1, channel=0, data=[88, 144]),\n",
      "   midi.NoteOnEvent(tick=0, channel=0, data=[41, 208]),\n",
      "   midi.NoteOnEvent(tick=1, channel=0, data=[5, 57]),\n",
      "   midi.NoteOnEvent(tick=1, channel=0, data=[127, 18]),\n",
      "   midi.NoteOffEvent(tick=3, channel=0, data=[36, 0]),\n",
      "   midi.NoteOnEvent(tick=2, channel=0, data=[42, 4]),\n",
      "   midi.NoteOnEvent(tick=0, channel=0, data=[109, 218]),\n",
      "   midi.NoteOffEvent(tick=2, channel=0, data=[41, 0]),\n",
      "   midi.NoteOnEvent(tick=5, channel=0, data=[7, 212]),\n",
      "   midi.NoteOnEvent(tick=8, channel=0, data=[24, 67]),\n",
      "   midi.NoteOnEvent(tick=3, channel=0, data=[1, 89]),\n",
      "   midi.NoteOnEvent(tick=1, channel=0, data=[29, 198]),\n",
      "   midi.NoteOnEvent(tick=2, channel=0, data=[71, 218]),\n",
      "   midi.NoteOnEvent(tick=2, channel=0, data=[124, 90]),\n",
      "   midi.NoteOnEvent(tick=1, channel=0, data=[116, 30]),\n",
      "   midi.NoteOnEvent(tick=3, channel=0, data=[29, 173]),\n",
      "   midi.NoteOnEvent(tick=1, channel=0, data=[48, 167]),\n",
      "   midi.NoteOnEvent(tick=0, channel=0, data=[111, 163]),\n",
      "   midi.NoteOnEvent(tick=3, channel=0, data=[87, 198]),\n",
      "   midi.NoteOnEvent(tick=0, channel=0, data=[48, 102]),\n",
      "   midi.NoteOnEvent(tick=2, channel=0, data=[31, 254]),\n",
      "   midi.NoteOnEvent(tick=0, channel=0, data=[122, 161]),\n",
      "   midi.NoteOnEvent(tick=6, channel=0, data=[122, 172]),\n",
      "   midi.NoteOnEvent(tick=1, channel=0, data=[125, 183]),\n",
      "   midi.NoteOnEvent(tick=2, channel=0, data=[83, 181]),\n",
      "   midi.NoteOnEvent(tick=1, channel=0, data=[0, 114]),\n",
      "   midi.NoteOnEvent(tick=2, channel=0, data=[19, 0]),\n",
      "   midi.NoteOnEvent(tick=4, channel=0, data=[73, 214]),\n",
      "   midi.NoteOnEvent(tick=0, channel=0, data=[44, 106]),\n",
      "   midi.NoteOnEvent(tick=4, channel=0, data=[127, 98]),\n",
      "   midi.NoteOnEvent(tick=8, channel=0, data=[77, 13]),\n",
      "   midi.NoteOnEvent(tick=1, channel=0, data=[43, 170]),\n",
      "   midi.NoteOnEvent(tick=6, channel=0, data=[35, 24]),\n",
      "   midi.NoteOnEvent(tick=0, channel=0, data=[86, 87]),\n",
      "   midi.NoteOnEvent(tick=5, channel=0, data=[46, 189]),\n",
      "   midi.NoteOffEvent(tick=3, channel=0, data=[43, 0]),\n",
      "   midi.NoteOnEvent(tick=0, channel=0, data=[2, 34]),\n",
      "   midi.NoteOnEvent(tick=3, channel=0, data=[74, 82]),\n",
      "   midi.NoteOnEvent(tick=7, channel=0, data=[91, 58]),\n",
      "   midi.NoteOnEvent(tick=2, channel=0, data=[19, 0]),\n",
      "   midi.NoteOnEvent(tick=5, channel=0, data=[41, 226]),\n",
      "   midi.NoteOnEvent(tick=3, channel=0, data=[100, 23]),\n",
      "   midi.NoteOnEvent(tick=7, channel=0, data=[61, 75]),\n",
      "   midi.NoteOnEvent(tick=1, channel=0, data=[18, 109]),\n",
      "   midi.NoteOnEvent(tick=2, channel=0, data=[112, 193]),\n",
      "   midi.NoteOnEvent(tick=5, channel=0, data=[15, 129]),\n",
      "   midi.NoteOnEvent(tick=0, channel=0, data=[94, 126]),\n",
      "   midi.NoteOnEvent(tick=1, channel=0, data=[115, 125]),\n",
      "   midi.NoteOnEvent(tick=5, channel=0, data=[68, 132]),\n",
      "   midi.NoteOnEvent(tick=7, channel=0, data=[85, 27]),\n",
      "   midi.NoteOnEvent(tick=6, channel=0, data=[2, 22]),\n",
      "   midi.NoteOnEvent(tick=1, channel=0, data=[50, 124]),\n",
      "   midi.NoteOnEvent(tick=1, channel=0, data=[0, 166]),\n",
      "   midi.NoteOnEvent(tick=1, channel=0, data=[75, 82]),\n",
      "   midi.NoteOffEvent(tick=7, channel=0, data=[70, 0]),\n",
      "   midi.NoteOnEvent(tick=3, channel=0, data=[17, 132]),\n",
      "   midi.NoteOnEvent(tick=4, channel=0, data=[46, 84]),\n",
      "   midi.NoteOnEvent(tick=2, channel=0, data=[46, 49]),\n",
      "   midi.NoteOnEvent(tick=1, channel=0, data=[84, 97]),\n",
      "   midi.NoteOffEvent(tick=2, channel=0, data=[111, 0]),\n",
      "   midi.NoteOnEvent(tick=0, channel=0, data=[37, 232]),\n",
      "   midi.NoteOnEvent(tick=2, channel=0, data=[45, 196]),\n",
      "   midi.NoteOnEvent(tick=0, channel=0, data=[25, 207]),\n",
      "   midi.NoteOnEvent(tick=3, channel=0, data=[74, 147]),\n",
      "   midi.NoteOffEvent(tick=1, channel=0, data=[18, 0]),\n",
      "   midi.NoteOnEvent(tick=1, channel=0, data=[16, 243]),\n",
      "   midi.NoteOnEvent(tick=2, channel=0, data=[22, 185]),\n",
      "   midi.NoteOnEvent(tick=0, channel=0, data=[79, 232]),\n",
      "   midi.NoteOnEvent(tick=2, channel=0, data=[39, 109]),\n",
      "   midi.NoteOnEvent(tick=0, channel=0, data=[0, 87]),\n",
      "   midi.NoteOnEvent(tick=3, channel=0, data=[77, 152]),\n",
      "   midi.NoteOnEvent(tick=6, channel=0, data=[54, 123]),\n",
      "   midi.NoteOnEvent(tick=2, channel=0, data=[56, 248]),\n",
      "   midi.NoteOnEvent(tick=1, channel=0, data=[113, 16]),\n",
      "   midi.NoteOnEvent(tick=1, channel=0, data=[61, 189]),\n",
      "   midi.NoteOnEvent(tick=1, channel=0, data=[16, 251]),\n",
      "   midi.NoteOnEvent(tick=1, channel=0, data=[91, 180]),\n",
      "   midi.NoteOnEvent(tick=1, channel=0, data=[95, 21]),\n",
      "   midi.NoteOffEvent(tick=1, channel=0, data=[34, 0]),\n",
      "   midi.NoteOnEvent(tick=0, channel=0, data=[65, 44]),\n",
      "   midi.NoteOnEvent(tick=1, channel=0, data=[91, 158]),\n",
      "   midi.NoteOnEvent(tick=0, channel=0, data=[59, 228]),\n",
      "   midi.NoteOffEvent(tick=1, channel=0, data=[45, 0]),\n",
      "   midi.NoteOnEvent(tick=2, channel=0, data=[55, 153]),\n",
      "   midi.NoteOnEvent(tick=0, channel=0, data=[86, 25]),\n",
      "   midi.NoteOnEvent(tick=1, channel=0, data=[81, 134]),\n",
      "   midi.NoteOnEvent(tick=2, channel=0, data=[101, 177]),\n",
      "   midi.NoteOnEvent(tick=2, channel=0, data=[87, 246]),\n",
      "   midi.NoteOnEvent(tick=0, channel=0, data=[31, 246]),\n",
      "   midi.NoteOnEvent(tick=1, channel=0, data=[95, 133]),\n",
      "   midi.NoteOnEvent(tick=5, channel=0, data=[95, 157]),\n",
      "   midi.NoteOffEvent(tick=4, channel=0, data=[64, 0]),\n",
      "   midi.NoteOnEvent(tick=0, channel=0, data=[86, 238]),\n",
      "   midi.NoteOnEvent(tick=0, channel=0, data=[37, 181]),\n",
      "   midi.NoteOnEvent(tick=0, channel=0, data=[8, 238]),\n",
      "   midi.NoteOnEvent(tick=0, channel=0, data=[66, 118]),\n",
      "   midi.NoteOnEvent(tick=1, channel=0, data=[0, 144]),\n",
      "   midi.NoteOffEvent(tick=3, channel=0, data=[73, 0]),\n",
      "   midi.NoteOffEvent(tick=0, channel=0, data=[124, 0]),\n",
      "   midi.NoteOffEvent(tick=1, channel=0, data=[105, 0]),\n",
      "   midi.NoteOnEvent(tick=2, channel=0, data=[122, 100]),\n",
      "   midi.NoteOnEvent(tick=9, channel=0, data=[127, 247]),\n",
      "   midi.NoteOnEvent(tick=0, channel=0, data=[11, 202]),\n",
      "   midi.NoteOnEvent(tick=3, channel=0, data=[27, 53]),\n",
      "   midi.NoteOnEvent(tick=0, channel=0, data=[97, 191]),\n",
      "   midi.NoteOnEvent(tick=0, channel=0, data=[42, 153]),\n",
      "   midi.NoteOnEvent(tick=5, channel=0, data=[60, 132]),\n",
      "   midi.NoteOnEvent(tick=0, channel=0, data=[35, 50]),\n",
      "   midi.NoteOnEvent(tick=1, channel=0, data=[107, 136]),\n",
      "   midi.NoteOffEvent(tick=1, channel=0, data=[60, 0]),\n",
      "   midi.NoteOnEvent(tick=0, channel=0, data=[60, 112]),\n",
      "   midi.NoteOnEvent(tick=2, channel=0, data=[55, 4]),\n",
      "   midi.NoteOnEvent(tick=0, channel=0, data=[45, 44]),\n",
      "   midi.NoteOnEvent(tick=1, channel=0, data=[94, 179]),\n",
      "   midi.NoteOnEvent(tick=0, channel=0, data=[105, 168]),\n",
      "   midi.NoteOnEvent(tick=2, channel=0, data=[58, 236]),\n",
      "   midi.NoteOnEvent(tick=3, channel=0, data=[55, 90]),\n",
      "   midi.NoteOnEvent(tick=7, channel=0, data=[120, 79]),\n",
      "   midi.NoteOnEvent(tick=1, channel=0, data=[16, 61]),\n",
      "   midi.NoteOnEvent(tick=0, channel=0, data=[73, 46]),\n",
      "   midi.NoteOnEvent(tick=1, channel=0, data=[14, 188]),\n",
      "   midi.NoteOnEvent(tick=2, channel=0, data=[96, 236]),\n",
      "   midi.NoteOnEvent(tick=0, channel=0, data=[109, 103]),\n",
      "   midi.NoteOnEvent(tick=1, channel=0, data=[44, 1]),\n",
      "   midi.NoteOnEvent(tick=4, channel=0, data=[64, 196]),\n",
      "   midi.NoteOnEvent(tick=1, channel=0, data=[57, 173]),\n",
      "   midi.NoteOnEvent(tick=0, channel=0, data=[28, 41]),\n",
      "   midi.NoteOnEvent(tick=0, channel=0, data=[46, 149]),\n",
      "   midi.NoteOnEvent(tick=1, channel=0, data=[90, 238]),\n",
      "   midi.NoteOnEvent(tick=1, channel=0, data=[29, 23]),\n",
      "   midi.NoteOnEvent(tick=0, channel=0, data=[24, 161]),\n",
      "   midi.NoteOnEvent(tick=0, channel=0, data=[14, 102]),\n",
      "   midi.NoteOnEvent(tick=1, channel=0, data=[81, 207]),\n",
      "   midi.NoteOnEvent(tick=0, channel=0, data=[68, 75]),\n",
      "   midi.NoteOnEvent(tick=1, channel=0, data=[59, 83]),\n",
      "   midi.NoteOnEvent(tick=0, channel=0, data=[26, 112]),\n",
      "   midi.NoteOnEvent(tick=1, channel=0, data=[93, 192]),\n",
      "   midi.NoteOffEvent(tick=4, channel=0, data=[30, 0]),\n",
      "   midi.NoteOnEvent(tick=0, channel=0, data=[7, 101]),\n",
      "   midi.NoteOnEvent(tick=2, channel=0, data=[84, 50]),\n",
      "   midi.NoteOnEvent(tick=1, channel=0, data=[103, 173]),\n",
      "   midi.NoteOnEvent(tick=1, channel=0, data=[90, 109]),\n",
      "   midi.NoteOnEvent(tick=1, channel=0, data=[8, 220]),\n",
      "   midi.NoteOnEvent(tick=0, channel=0, data=[14, 226]),\n",
      "   midi.NoteOnEvent(tick=2, channel=0, data=[90, 120]),\n",
      "   midi.NoteOnEvent(tick=0, channel=0, data=[74, 131]),\n",
      "   midi.NoteOnEvent(tick=1, channel=0, data=[18, 243]),\n",
      "   midi.NoteOnEvent(tick=3, channel=0, data=[54, 100]),\n",
      "   midi.NoteOffEvent(tick=1, channel=0, data=[89, 0]),\n",
      "   midi.NoteOnEvent(tick=0, channel=0, data=[64, 200]),\n",
      "   midi.NoteOnEvent(tick=1, channel=0, data=[91, 155]),\n",
      "   midi.NoteOnEvent(tick=2, channel=0, data=[119, 119]),\n",
      "   midi.NoteOffEvent(tick=1, channel=0, data=[126, 0]),\n",
      "   midi.NoteOnEvent(tick=1, channel=0, data=[32, 121]),\n",
      "   midi.NoteOnEvent(tick=2, channel=0, data=[75, 231]),\n",
      "   midi.NoteOnEvent(tick=1, channel=0, data=[86, 61]),\n",
      "   midi.NoteOnEvent(tick=1, channel=0, data=[20, 238]),\n",
      "   midi.NoteOnEvent(tick=1, channel=0, data=[18, 210]),\n",
      "   midi.NoteOnEvent(tick=1, channel=0, data=[126, 33]),\n",
      "   midi.NoteOffEvent(tick=2, channel=0, data=[56, 0]),\n",
      "   midi.NoteOffEvent(tick=2, channel=0, data=[85, 0]),\n",
      "   midi.NoteOnEvent(tick=3, channel=0, data=[32, 204]),\n",
      "   midi.NoteOnEvent(tick=6, channel=0, data=[21, 21]),\n",
      "   midi.NoteOnEvent(tick=2, channel=0, data=[84, 251]),\n",
      "   midi.NoteOffEvent(tick=3, channel=0, data=[5, 0]),\n",
      "   midi.NoteOnEvent(tick=0, channel=0, data=[98, 157]),\n",
      "   midi.NoteOffEvent(tick=2, channel=0, data=[65, 0]),\n",
      "   midi.NoteOnEvent(tick=0, channel=0, data=[70, 105]),\n",
      "   midi.NoteOffEvent(tick=3, channel=0, data=[112, 0]),\n",
      "   midi.NoteOnEvent(tick=1, channel=0, data=[121, 82]),\n",
      "   midi.NoteOffEvent(tick=1, channel=0, data=[107, 0]),\n",
      "   midi.NoteOnEvent(tick=5, channel=0, data=[127, 188]),\n",
      "   midi.NoteOnEvent(tick=1, channel=0, data=[92, 96]),\n",
      "   midi.NoteOnEvent(tick=4, channel=0, data=[116, 150]),\n",
      "   midi.NoteOnEvent(tick=1, channel=0, data=[35, 77]),\n",
      "   midi.NoteOnEvent(tick=1, channel=0, data=[14, 45]),\n",
      "   midi.NoteOnEvent(tick=0, channel=0, data=[49, 172]),\n",
      "   midi.NoteOffEvent(tick=1, channel=0, data=[123, 0]),\n",
      "   midi.NoteOnEvent(tick=0, channel=0, data=[2, 152]),\n",
      "   midi.NoteOnEvent(tick=1, channel=0, data=[7, 207]),\n",
      "   midi.NoteOnEvent(tick=1, channel=0, data=[52, 41]),\n",
      "   midi.NoteOnEvent(tick=2, channel=0, data=[54, 13]),\n",
      "   midi.NoteOnEvent(tick=0, channel=0, data=[15, 221]),\n",
      "   midi.NoteOnEvent(tick=1, channel=0, data=[52, 96]),\n",
      "   midi.NoteOnEvent(tick=2, channel=0, data=[25, 170]),\n",
      "   midi.NoteOnEvent(tick=1, channel=0, data=[124, 129]),\n",
      "   midi.NoteOnEvent(tick=3, channel=0, data=[119, 176]),\n",
      "   midi.NoteOnEvent(tick=2, channel=0, data=[109, 178]),\n",
      "   midi.NoteOnEvent(tick=1, channel=0, data=[69, 232]),\n",
      "   midi.NoteOnEvent(tick=1, channel=0, data=[122, 25]),\n",
      "   midi.NoteOnEvent(tick=1, channel=0, data=[94, 199]),\n",
      "   midi.NoteOnEvent(tick=1, channel=0, data=[70, 153]),\n",
      "   midi.NoteOnEvent(tick=2, channel=0, data=[103, 138]),\n",
      "   midi.NoteOffEvent(tick=2, channel=0, data=[126, 0]),\n",
      "   midi.NoteOnEvent(tick=0, channel=0, data=[12, 152]),\n",
      "   midi.NoteOnEvent(tick=1, channel=0, data=[3, 194]),\n",
      "   midi.NoteOnEvent(tick=2, channel=0, data=[107, 206]),\n",
      "   midi.NoteOnEvent(tick=3, channel=0, data=[112, 202]),\n",
      "   midi.NoteOnEvent(tick=1, channel=0, data=[119, 154]),\n",
      "   midi.NoteOffEvent(tick=3, channel=0, data=[81, 0]),\n",
      "   midi.NoteOnEvent(tick=2, channel=0, data=[86, 253]),\n",
      "   midi.NoteOnEvent(tick=4, channel=0, data=[70, 6]),\n",
      "   midi.NoteOnEvent(tick=0, channel=0, data=[5, 18]),\n",
      "   midi.NoteOnEvent(tick=4, channel=0, data=[124, 107]),\n",
      "   midi.NoteOnEvent(tick=1, channel=0, data=[118, 111]),\n",
      "   midi.NoteOffEvent(tick=4, channel=0, data=[0, 0]),\n",
      "   midi.NoteOnEvent(tick=0, channel=0, data=[110, 132]),\n",
      "   midi.NoteOnEvent(tick=5, channel=0, data=[30, 104]),\n",
      "   midi.NoteOnEvent(tick=1, channel=0, data=[116, 176]),\n",
      "   midi.NoteOnEvent(tick=1, channel=0, data=[9, 31]),\n",
      "   midi.NoteOnEvent(tick=1, channel=0, data=[43, 109]),\n",
      "   midi.NoteOnEvent(tick=0, channel=0, data=[57, 127]),\n",
      "   midi.NoteOnEvent(tick=2, channel=0, data=[47, 252]),\n",
      "   midi.NoteOnEvent(tick=2, channel=0, data=[124, 74]),\n",
      "   midi.NoteOnEvent(tick=0, channel=0, data=[54, 135]),\n",
      "   midi.NoteOnEvent(tick=1, channel=0, data=[77, 94]),\n",
      "   midi.NoteOnEvent(tick=2, channel=0, data=[61, 213]),\n",
      "   midi.NoteOnEvent(tick=0, channel=0, data=[116, 52]),\n",
      "   midi.NoteOnEvent(tick=2, channel=0, data=[103, 249]),\n",
      "   midi.NoteOnEvent(tick=2, channel=0, data=[46, 255]),\n",
      "   midi.NoteOnEvent(tick=2, channel=0, data=[102, 82]),\n",
      "   midi.NoteOnEvent(tick=0, channel=0, data=[6, 60]),\n",
      "   midi.NoteOnEvent(tick=0, channel=0, data=[5, 61]),\n",
      "   midi.NoteOnEvent(tick=2, channel=0, data=[12, 251]),\n",
      "   midi.NoteOnEvent(tick=1, channel=0, data=[38, 205]),\n",
      "   midi.NoteOnEvent(tick=0, channel=0, data=[79, 0]),\n",
      "   midi.NoteOnEvent(tick=0, channel=0, data=[20, 84]),\n",
      "   midi.NoteOnEvent(tick=2, channel=0, data=[65, 121]),\n",
      "   midi.NoteOnEvent(tick=0, channel=0, data=[34, 72]),\n",
      "   midi.NoteOnEvent(tick=0, channel=0, data=[91, 132]),\n",
      "   midi.NoteOffEvent(tick=1, channel=0, data=[37, 0]),\n",
      "   midi.NoteOnEvent(tick=0, channel=0, data=[100, 197]),\n",
      "   midi.NoteOnEvent(tick=2, channel=0, data=[84, 224]),\n",
      "   midi.NoteOffEvent(tick=1, channel=0, data=[57, 0]),\n",
      "   midi.NoteOnEvent(tick=1, channel=0, data=[4, 25]),\n",
      "   midi.NoteOnEvent(tick=1, channel=0, data=[113, 41]),\n",
      "   midi.NoteOnEvent(tick=1, channel=0, data=[5, 203]),\n",
      "   midi.NoteOnEvent(tick=2, channel=0, data=[124, 44]),\n",
      "   midi.NoteOffEvent(tick=3, channel=0, data=[53, 0]),\n",
      "   midi.NoteOnEvent(tick=0, channel=0, data=[62, 214]),\n",
      "   midi.NoteOnEvent(tick=3, channel=0, data=[6, 176]),\n",
      "   midi.NoteOnEvent(tick=1, channel=0, data=[73, 20]),\n",
      "   midi.NoteOnEvent(tick=0, channel=0, data=[95, 33]),\n",
      "   midi.NoteOnEvent(tick=5, channel=0, data=[31, 129]),\n",
      "   midi.NoteOnEvent(tick=1, channel=0, data=[75, 155]),\n",
      "   midi.NoteOnEvent(tick=0, channel=0, data=[72, 18]),\n",
      "   midi.NoteOnEvent(tick=1, channel=0, data=[34, 19]),\n",
      "   midi.NoteOnEvent(tick=3, channel=0, data=[49, 109]),\n",
      "   midi.NoteOnEvent(tick=1, channel=0, data=[82, 29]),\n",
      "   midi.NoteOnEvent(tick=1, channel=0, data=[4, 215]),\n",
      "   midi.NoteOffEvent(tick=2, channel=0, data=[39, 0]),\n",
      "   midi.NoteOffEvent(tick=0, channel=0, data=[109, 0]),\n",
      "   midi.NoteOnEvent(tick=3, channel=0, data=[44, 19]),\n",
      "   midi.NoteOnEvent(tick=2, channel=0, data=[94, 133]),\n",
      "   midi.NoteOnEvent(tick=1, channel=0, data=[46, 57]),\n",
      "   midi.NoteOffEvent(tick=3, channel=0, data=[88, 0]),\n",
      "   midi.NoteOnEvent(tick=1, channel=0, data=[35, 116]),\n",
      "   midi.NoteOnEvent(tick=3, channel=0, data=[51, 166]),\n",
      "   midi.NoteOnEvent(tick=1, channel=0, data=[59, 166]),\n",
      "   midi.NoteOnEvent(tick=3, channel=0, data=[21, 210]),\n",
      "   midi.NoteOnEvent(tick=1, channel=0, data=[122, 123]),\n",
      "   midi.NoteOnEvent(tick=1, channel=0, data=[14, 40]),\n",
      "   midi.NoteOffEvent(tick=2, channel=0, data=[107, 0]),\n",
      "   midi.NoteOnEvent(tick=0, channel=0, data=[62, 24]),\n",
      "   midi.NoteOnEvent(tick=1, channel=0, data=[64, 219]),\n",
      "   midi.NoteOnEvent(tick=0, channel=0, data=[114, 230]),\n",
      "   midi.NoteOnEvent(tick=0, channel=0, data=[112, 138]),\n",
      "   midi.NoteOnEvent(tick=1, channel=0, data=[63, 36]),\n",
      "   midi.NoteOnEvent(tick=1, channel=0, data=[104, 178]),\n",
      "   midi.NoteOnEvent(tick=0, channel=0, data=[30, 174]),\n",
      "   midi.NoteOffEvent(tick=1, channel=0, data=[125, 0]),\n",
      "   midi.NoteOnEvent(tick=0, channel=0, data=[43, 41]),\n",
      "   midi.NoteOffEvent(tick=1, channel=0, data=[40, 0]),\n",
      "   midi.NoteOnEvent(tick=2, channel=0, data=[115, 206]),\n",
      "   midi.NoteOnEvent(tick=1, channel=0, data=[104, 139]),\n",
      "   midi.NoteOnEvent(tick=2, channel=0, data=[114, 57]),\n",
      "   midi.NoteOffEvent(tick=1, channel=0, data=[18, 0]),\n",
      "   midi.NoteOnEvent(tick=4, channel=0, data=[104, 184]),\n",
      "   midi.NoteOnEvent(tick=2, channel=0, data=[20, 237]),\n",
      "   midi.NoteOnEvent(tick=5, channel=0, data=[44, 12]),\n",
      "   midi.NoteOffEvent(tick=1, channel=0, data=[14, 0]),\n",
      "   midi.NoteOnEvent(tick=0, channel=0, data=[25, 17]),\n",
      "   midi.NoteOnEvent(tick=0, channel=0, data=[87, 89]),\n",
      "   midi.NoteOnEvent(tick=6, channel=0, data=[75, 216]),\n",
      "   midi.NoteOnEvent(tick=0, channel=0, data=[26, 209]),\n",
      "   midi.NoteOnEvent(tick=1, channel=0, data=[8, 104]),\n",
      "   midi.NoteOnEvent(tick=1, channel=0, data=[117, 236]),\n",
      "   midi.NoteOnEvent(tick=1, channel=0, data=[102, 64]),\n",
      "   midi.NoteOnEvent(tick=1, channel=0, data=[66, 2]),\n",
      "   midi.NoteOnEvent(tick=1, channel=0, data=[115, 254]),\n",
      "   midi.NoteOnEvent(tick=1, channel=0, data=[78, 65]),\n",
      "   midi.NoteOnEvent(tick=0, channel=0, data=[94, 128]),\n",
      "   midi.NoteOnEvent(tick=1, channel=0, data=[84, 116]),\n",
      "   midi.NoteOnEvent(tick=1, channel=0, data=[103, 3]),\n",
      "   midi.NoteOffEvent(tick=1, channel=0, data=[45, 0]),\n",
      "   midi.NoteOnEvent(tick=0, channel=0, data=[59, 25]),\n",
      "   midi.NoteOnEvent(tick=2, channel=0, data=[59, 118]),\n",
      "   midi.NoteOnEvent(tick=2, channel=0, data=[30, 54]),\n",
      "   midi.NoteOffEvent(tick=4, channel=0, data=[31, 0]),\n",
      "   midi.NoteOnEvent(tick=2, channel=0, data=[2, 161]),\n",
      "   midi.NoteOnEvent(tick=3, channel=0, data=[50, 190]),\n",
      "   midi.NoteOnEvent(tick=0, channel=0, data=[104, 2]),\n",
      "   midi.NoteOnEvent(tick=2, channel=0, data=[66, 38]),\n",
      "   midi.NoteOnEvent(tick=1, channel=0, data=[13, 204]),\n",
      "   midi.NoteOnEvent(tick=0, channel=0, data=[46, 76]),\n",
      "   midi.NoteOffEvent(tick=1, channel=0, data=[90, 0]),\n",
      "   midi.NoteOnEvent(tick=0, channel=0, data=[92, 65]),\n",
      "   midi.NoteOffEvent(tick=1, channel=0, data=[20, 0]),\n",
      "   midi.NoteOnEvent(tick=2, channel=0, data=[49, 250]),\n",
      "   midi.NoteOnEvent(tick=1, channel=0, data=[113, 203]),\n",
      "   midi.NoteOffEvent(tick=2, channel=0, data=[117, 0]),\n",
      "   midi.NoteOnEvent(tick=0, channel=0, data=[2, 50]),\n",
      "   midi.NoteOnEvent(tick=3, channel=0, data=[86, 159]),\n",
      "   midi.NoteOffEvent(tick=3, channel=0, data=[66, 0]),\n",
      "   midi.NoteOnEvent(tick=2, channel=0, data=[24, 11]),\n",
      "   midi.NoteOnEvent(tick=1, channel=0, data=[107, 145]),\n",
      "   midi.NoteOffEvent(tick=1, channel=0, data=[7, 0]),\n",
      "   midi.NoteOnEvent(tick=1, channel=0, data=[80, 158]),\n",
      "   midi.NoteOnEvent(tick=0, channel=0, data=[57, 242]),\n",
      "   midi.NoteOnEvent(tick=1, channel=0, data=[57, 238]),\n",
      "   midi.NoteOnEvent(tick=0, channel=0, data=[34, 70]),\n",
      "   midi.NoteOnEvent(tick=4, channel=0, data=[119, 143]),\n",
      "   midi.NoteOffEvent(tick=1, channel=0, data=[57, 0]),\n",
      "   midi.NoteOnEvent(tick=0, channel=0, data=[107, 102]),\n",
      "   midi.NoteOffEvent(tick=3, channel=0, data=[28, 0]),\n",
      "   midi.NoteOnEvent(tick=0, channel=0, data=[91, 240]),\n",
      "   midi.NoteOnEvent(tick=2, channel=0, data=[47, 48]),\n",
      "   midi.NoteOnEvent(tick=2, channel=0, data=[10, 243]),\n",
      "   midi.NoteOffEvent(tick=1, channel=0, data=[83, 0]),\n",
      "   midi.NoteOnEvent(tick=0, channel=0, data=[105, 167]),\n",
      "   midi.NoteOffEvent(tick=1, channel=0, data=[4, 0]),\n",
      "   midi.NoteOffEvent(tick=0, channel=0, data=[105, 0]),\n",
      "   midi.NoteOnEvent(tick=4, channel=0, data=[49, 66]),\n",
      "   midi.NoteOffEvent(tick=1, channel=0, data=[11, 0]),\n",
      "   midi.NoteOnEvent(tick=1, channel=0, data=[1, 71]),\n",
      "   midi.NoteOffEvent(tick=1, channel=0, data=[65, 0]),\n",
      "   midi.NoteOnEvent(tick=0, channel=0, data=[9, 229]),\n",
      "   midi.NoteOnEvent(tick=5, channel=0, data=[53, 37]),\n",
      "   midi.NoteOnEvent(tick=1, channel=0, data=[51, 238]),\n",
      "   midi.NoteOnEvent(tick=1, channel=0, data=[44, 39]),\n",
      "   midi.NoteOnEvent(tick=4, channel=0, data=[15, 17]),\n",
      "   midi.NoteOnEvent(tick=2, channel=0, data=[113, 204]),\n",
      "   midi.NoteOnEvent(tick=2, channel=0, data=[92, 36]),\n",
      "   midi.NoteOnEvent(tick=6, channel=0, data=[23, 83]),\n",
      "   midi.NoteOnEvent(tick=1, channel=0, data=[35, 31]),\n",
      "   midi.NoteOnEvent(tick=1, channel=0, data=[120, 74]),\n",
      "   midi.NoteOnEvent(tick=0, channel=0, data=[13, 34]),\n",
      "   midi.NoteOnEvent(tick=3, channel=0, data=[126, 74]),\n",
      "   midi.NoteOnEvent(tick=5, channel=0, data=[20, 100]),\n",
      "   midi.NoteOnEvent(tick=4, channel=0, data=[0, 254]),\n",
      "   midi.NoteOnEvent(tick=1, channel=0, data=[18, 191]),\n",
      "   midi.NoteOnEvent(tick=0, channel=0, data=[66, 121]),\n",
      "   midi.NoteOnEvent(tick=1, channel=0, data=[57, 207]),\n",
      "   midi.NoteOnEvent(tick=1, channel=0, data=[62, 251]),\n",
      "   midi.NoteOnEvent(tick=6, channel=0, data=[25, 56]),\n",
      "   midi.NoteOnEvent(tick=8, channel=0, data=[93, 56]),\n",
      "   midi.NoteOnEvent(tick=1, channel=0, data=[124, 105]),\n",
      "   midi.NoteOnEvent(tick=3, channel=0, data=[117, 87]),\n",
      "   midi.NoteOnEvent(tick=1, channel=0, data=[13, 59]),\n",
      "   midi.NoteOffEvent(tick=1, channel=0, data=[122, 0]),\n",
      "   midi.NoteOnEvent(tick=0, channel=0, data=[111, 134]),\n",
      "   midi.NoteOnEvent(tick=0, channel=0, data=[36, 63]),\n",
      "   midi.NoteOnEvent(tick=1, channel=0, data=[81, 185]),\n",
      "   midi.NoteOnEvent(tick=0, channel=0, data=[44, 116]),\n",
      "   midi.NoteOnEvent(tick=4, channel=0, data=[15, 149]),\n",
      "   midi.NoteOnEvent(tick=0, channel=0, data=[35, 69]),\n",
      "   midi.NoteOffEvent(tick=3, channel=0, data=[61, 0]),\n",
      "   midi.NoteOnEvent(tick=0, channel=0, data=[111, 243]),\n",
      "   midi.NoteOnEvent(tick=2, channel=0, data=[39, 149]),\n",
      "   midi.NoteOnEvent(tick=1, channel=0, data=[119, 102]),\n",
      "   midi.NoteOnEvent(tick=1, channel=0, data=[42, 204]),\n",
      "   midi.NoteOnEvent(tick=5, channel=0, data=[6, 185]),\n",
      "   midi.NoteOnEvent(tick=0, channel=0, data=[104, 85]),\n",
      "   midi.NoteOnEvent(tick=7, channel=0, data=[5, 38]),\n",
      "   midi.NoteOnEvent(tick=4, channel=0, data=[7, 31]),\n",
      "   midi.NoteOnEvent(tick=2, channel=0, data=[127, 68]),\n",
      "   midi.NoteOffEvent(tick=1, channel=0, data=[126, 0]),\n",
      "   midi.NoteOnEvent(tick=1, channel=0, data=[104, 65]),\n",
      "   midi.NoteOnEvent(tick=0, channel=0, data=[79, 182]),\n",
      "   midi.NoteOnEvent(tick=0, channel=0, data=[10, 130]),\n",
      "   midi.NoteOnEvent(tick=1, channel=0, data=[78, 154]),\n",
      "   midi.NoteOffEvent(tick=1, channel=0, data=[17, 0]),\n",
      "   midi.NoteOnEvent(tick=0, channel=0, data=[16, 242]),\n",
      "   midi.NoteOnEvent(tick=1, channel=0, data=[24, 141]),\n",
      "   midi.NoteOnEvent(tick=9, channel=0, data=[30, 229]),\n",
      "   midi.NoteOnEvent(tick=6, channel=0, data=[79, 14]),\n",
      "   midi.NoteOnEvent(tick=7, channel=0, data=[62, 205]),\n",
      "   midi.NoteOnEvent(tick=0, channel=0, data=[6, 132]),\n",
      "   midi.NoteOffEvent(tick=1, channel=0, data=[60, 0]),\n",
      "   midi.NoteOnEvent(tick=2, channel=0, data=[42, 14]),\n",
      "   midi.NoteOnEvent(tick=0, channel=0, data=[108, 136]),\n",
      "   midi.NoteOffEvent(tick=1, channel=0, data=[7, 0]),\n",
      "   midi.NoteOnEvent(tick=1, channel=0, data=[45, 58]),\n",
      "   midi.NoteOnEvent(tick=0, channel=0, data=[41, 37]),\n",
      "   midi.NoteOnEvent(tick=0, channel=0, data=[18, 220]),\n",
      "   midi.NoteOnEvent(tick=0, channel=0, data=[113, 150]),\n",
      "   midi.NoteOnEvent(tick=5, channel=0, data=[54, 81]),\n",
      "   midi.NoteOffEvent(tick=3, channel=0, data=[27, 0]),\n",
      "   midi.NoteOnEvent(tick=0, channel=0, data=[37, 139]),\n",
      "   midi.NoteOnEvent(tick=4, channel=0, data=[36, 66]),\n",
      "   midi.NoteOnEvent(tick=0, channel=0, data=[84, 96]),\n",
      "   midi.NoteOnEvent(tick=1, channel=0, data=[117, 58]),\n",
      "   midi.NoteOnEvent(tick=1, channel=0, data=[28, 86]),\n",
      "   midi.NoteOnEvent(tick=0, channel=0, data=[58, 49]),\n",
      "   midi.NoteOnEvent(tick=3, channel=0, data=[17, 119]),\n",
      "   midi.NoteOnEvent(tick=1, channel=0, data=[42, 195]),\n",
      "   midi.NoteOnEvent(tick=5, channel=0, data=[49, 30]),\n",
      "   midi.NoteOnEvent(tick=1, channel=0, data=[33, 0]),\n",
      "   midi.NoteOffEvent(tick=1, channel=0, data=[37, 0]),\n",
      "   midi.NoteOnEvent(tick=0, channel=0, data=[112, 167]),\n",
      "   midi.NoteOffEvent(tick=1, channel=0, data=[97, 0]),\n",
      "   midi.NoteOnEvent(tick=1, channel=0, data=[124, 209]),\n",
      "   midi.NoteOffEvent(tick=2, channel=0, data=[71, 0]),\n",
      "   midi.NoteOnEvent(tick=1, channel=0, data=[98, 167]),\n",
      "   midi.NoteOffEvent(tick=5, channel=0, data=[102, 0]),\n",
      "   midi.NoteOnEvent(tick=1, channel=0, data=[8, 254]),\n",
      "   midi.NoteOnEvent(tick=3, channel=0, data=[6, 189]),\n",
      "   midi.NoteOnEvent(tick=2, channel=0, data=[25, 227]),\n",
      "   midi.NoteOnEvent(tick=5, channel=0, data=[53, 138]),\n",
      "   midi.NoteOnEvent(tick=1, channel=0, data=[77, 194]),\n",
      "   midi.NoteOnEvent(tick=4, channel=0, data=[49, 236]),\n",
      "   midi.NoteOnEvent(tick=0, channel=0, data=[40, 123]),\n",
      "   midi.NoteOnEvent(tick=2, channel=0, data=[56, 2]),\n",
      "   midi.NoteOnEvent(tick=2, channel=0, data=[83, 127]),\n",
      "   midi.NoteOffEvent(tick=2, channel=0, data=[70, 0]),\n",
      "   midi.NoteOnEvent(tick=2, channel=0, data=[28, 163]),\n",
      "   midi.NoteOnEvent(tick=3, channel=0, data=[3, 14]),\n",
      "   midi.NoteOnEvent(tick=1, channel=0, data=[7, 98]),\n",
      "   midi.NoteOffEvent(tick=1, channel=0, data=[24, 0]),\n",
      "   midi.NoteOffEvent(tick=2, channel=0, data=[5, 0]),\n",
      "   midi.NoteOnEvent(tick=4, channel=0, data=[1, 237]),\n",
      "   midi.NoteOnEvent(tick=3, channel=0, data=[85, 129]),\n",
      "   midi.NoteOnEvent(tick=3, channel=0, data=[104, 60]),\n",
      "   midi.NoteOnEvent(tick=4, channel=0, data=[19, 200]),\n",
      "   midi.NoteOnEvent(tick=4, channel=0, data=[30, 8]),\n",
      "   midi.NoteOnEvent(tick=1, channel=0, data=[73, 42]),\n",
      "   midi.NoteOffEvent(tick=2, channel=0, data=[63, 0]),\n",
      "   midi.NoteOffEvent(tick=2, channel=0, data=[17, 0]),\n",
      "   midi.NoteOnEvent(tick=2, channel=0, data=[95, 8]),\n",
      "   midi.NoteOffEvent(tick=1, channel=0, data=[57, 0]),\n",
      "   midi.NoteOffEvent(tick=1, channel=0, data=[51, 0]),\n",
      "   midi.NoteOffEvent(tick=1, channel=0, data=[42, 0]),\n",
      "   midi.NoteOnEvent(tick=1, channel=0, data=[121, 144]),\n",
      "   midi.NoteOnEvent(tick=2, channel=0, data=[104, 230]),\n",
      "   midi.NoteOnEvent(tick=0, channel=0, data=[33, 116]),\n",
      "   midi.NoteOffEvent(tick=1, channel=0, data=[2, 0]),\n",
      "   midi.NoteOffEvent(tick=1, channel=0, data=[22, 0]),\n",
      "   midi.NoteOnEvent(tick=0, channel=0, data=[66, 234]),\n",
      "   midi.NoteOffEvent(tick=3, channel=0, data=[68, 0]),\n",
      "   midi.NoteOnEvent(tick=1, channel=0, data=[13, 232]),\n",
      "   midi.NoteOnEvent(tick=1, channel=0, data=[72, 71]),\n",
      "   midi.NoteOnEvent(tick=0, channel=0, data=[10, 186]),\n",
      "   midi.NoteOnEvent(tick=1, channel=0, data=[67, 243]),\n",
      "   midi.NoteOnEvent(tick=4, channel=0, data=[42, 52]),\n",
      "   midi.NoteOnEvent(tick=0, channel=0, data=[13, 87]),\n",
      "   midi.NoteOnEvent(tick=2, channel=0, data=[11, 69]),\n",
      "   midi.NoteOnEvent(tick=1, channel=0, data=[1, 117]),\n",
      "   midi.NoteOffEvent(tick=2, channel=0, data=[39, 0]),\n",
      "   midi.NoteOffEvent(tick=1, channel=0, data=[94, 0]),\n",
      "   midi.NoteOffEvent(tick=0, channel=0, data=[118, 0]),\n",
      "   midi.NoteOnEvent(tick=0, channel=0, data=[126, 149]),\n",
      "   midi.NoteOnEvent(tick=1, channel=0, data=[122, 152]),\n",
      "   midi.NoteOnEvent(tick=2, channel=0, data=[71, 164]),\n",
      "   midi.NoteOnEvent(tick=1, channel=0, data=[95, 41]),\n",
      "   midi.NoteOnEvent(tick=1, channel=0, data=[104, 21]),\n",
      "   midi.NoteOnEvent(tick=1, channel=0, data=[29, 94]),\n",
      "   midi.NoteOnEvent(tick=0, channel=0, data=[49, 18]),\n",
      "   midi.NoteOnEvent(tick=0, channel=0, data=[16, 48]),\n",
      "   midi.NoteOnEvent(tick=1, channel=0, data=[89, 233]),\n",
      "   midi.NoteOnEvent(tick=2, channel=0, data=[64, 78]),\n",
      "   midi.NoteOffEvent(tick=2, channel=0, data=[103, 0]),\n",
      "   midi.NoteOnEvent(tick=2, channel=0, data=[95, 10]),\n",
      "   midi.NoteOnEvent(tick=2, channel=0, data=[126, 6]),\n",
      "   midi.NoteOnEvent(tick=1, channel=0, data=[72, 96]),\n",
      "   midi.NoteOnEvent(tick=5, channel=0, data=[69, 8]),\n",
      "   midi.NoteOnEvent(tick=1, channel=0, data=[109, 105]),\n",
      "   midi.NoteOffEvent(tick=1, channel=0, data=[23, 0]),\n",
      "   midi.NoteOnEvent(tick=1, channel=0, data=[68, 163]),\n",
      "   midi.NoteOnEvent(tick=0, channel=0, data=[68, 118]),\n",
      "   midi.NoteOnEvent(tick=2, channel=0, data=[81, 219]),\n",
      "   midi.NoteOnEvent(tick=5, channel=0, data=[106, 115]),\n",
      "   midi.NoteOnEvent(tick=1, channel=0, data=[29, 158]),\n",
      "   midi.NoteOnEvent(tick=2, channel=0, data=[1, 167]),\n",
      "   midi.NoteOnEvent(tick=0, channel=0, data=[77, 91]),\n",
      "   midi.NoteOnEvent(tick=1, channel=0, data=[42, 110]),\n",
      "   midi.NoteOffEvent(tick=2, channel=0, data=[43, 0]),\n",
      "   midi.NoteOnEvent(tick=1, channel=0, data=[12, 152]),\n",
      "   midi.NoteOffEvent(tick=7, channel=0, data=[29, 0]),\n",
      "   midi.NoteOnEvent(tick=2, channel=0, data=[121, 77]),\n",
      "   midi.NoteOffEvent(tick=8, channel=0, data=[48, 0]),\n",
      "   midi.NoteOffEvent(tick=10, channel=0, data=[26, 0]),\n",
      "   midi.NoteOffEvent(tick=16, channel=0, data=[117, 0]),\n",
      "   midi.NoteOffEvent(tick=31, channel=0, data=[20, 0]),\n",
      "   midi.NoteOffEvent(tick=3, channel=0, data=[36, 0]),\n",
      "   midi.NoteOffEvent(tick=8, channel=0, data=[19, 0]),\n",
      "   midi.NoteOffEvent(tick=49, channel=0, data=[111, 0]),\n",
      "   midi.NoteOffEvent(tick=3, channel=0, data=[101, 0]),\n",
      "   midi.NoteOffEvent(tick=1, channel=0, data=[32, 0]),\n",
      "   midi.NoteOffEvent(tick=14, channel=0, data=[55, 0]),\n",
      "   midi.NoteOffEvent(tick=14, channel=0, data=[50, 0]),\n",
      "   midi.NoteOffEvent(tick=6, channel=0, data=[91, 0]),\n",
      "   midi.NoteOffEvent(tick=0, channel=0, data=[92, 0]),\n",
      "   midi.NoteOffEvent(tick=5, channel=0, data=[46, 0]),\n",
      "   midi.NoteOffEvent(tick=18, channel=0, data=[96, 0]),\n",
      "   midi.NoteOffEvent(tick=1, channel=0, data=[86, 0]),\n",
      "   midi.NoteOffEvent(tick=25, channel=0, data=[119, 0]),\n",
      "   midi.NoteOffEvent(tick=17, channel=0, data=[84, 0]),\n",
      "   midi.NoteOffEvent(tick=18, channel=0, data=[100, 0]),\n",
      "   midi.NoteOffEvent(tick=4, channel=0, data=[49, 0]),\n",
      "   midi.NoteOffEvent(tick=3, channel=0, data=[109, 0]),\n",
      "   midi.NoteOffEvent(tick=3, channel=0, data=[69, 0]),\n",
      "   midi.NoteOffEvent(tick=6, channel=0, data=[11, 0]),\n",
      "   midi.NoteOffEvent(tick=1, channel=0, data=[54, 0]),\n",
      "   midi.NoteOffEvent(tick=2, channel=0, data=[85, 0]),\n",
      "   midi.NoteOffEvent(tick=1, channel=0, data=[67, 0]),\n",
      "   midi.NoteOffEvent(tick=6, channel=0, data=[38, 0]),\n",
      "   midi.NoteOffEvent(tick=6, channel=0, data=[6, 0]),\n",
      "   midi.NoteOffEvent(tick=0, channel=0, data=[56, 0]),\n",
      "   midi.NoteOffEvent(tick=2, channel=0, data=[82, 0]),\n",
      "   midi.NoteOffEvent(tick=13, channel=0, data=[74, 0]),\n",
      "   midi.NoteOffEvent(tick=0, channel=0, data=[114, 0]),\n",
      "   midi.NoteOffEvent(tick=17, channel=0, data=[72, 0]),\n",
      "   midi.NoteOffEvent(tick=8, channel=0, data=[3, 0]),\n",
      "   midi.NoteOffEvent(tick=0, channel=0, data=[47, 0]),\n",
      "   midi.NoteOffEvent(tick=3, channel=0, data=[95, 0]),\n",
      "   midi.NoteOffEvent(tick=6, channel=0, data=[77, 0]),\n",
      "   midi.NoteOffEvent(tick=1, channel=0, data=[45, 0]),\n",
      "   midi.NoteOffEvent(tick=1, channel=0, data=[71, 0]),\n",
      "   midi.NoteOffEvent(tick=2, channel=0, data=[81, 0]),\n",
      "   midi.NoteOffEvent(tick=1, channel=0, data=[21, 0]),\n",
      "   midi.NoteOffEvent(tick=1, channel=0, data=[15, 0]),\n",
      "   midi.NoteOffEvent(tick=14, channel=0, data=[59, 0]),\n",
      "   midi.NoteOffEvent(tick=2, channel=0, data=[122, 0]),\n",
      "   midi.NoteOffEvent(tick=3, channel=0, data=[35, 0]),\n",
      "   midi.NoteOffEvent(tick=0, channel=0, data=[53, 0]),\n",
      "   midi.NoteOffEvent(tick=28, channel=0, data=[16, 0]),\n",
      "   midi.NoteOffEvent(tick=9, channel=0, data=[108, 0]),\n",
      "   midi.NoteOffEvent(tick=6, channel=0, data=[112, 0]),\n",
      "   midi.NoteOffEvent(tick=7, channel=0, data=[80, 0]),\n",
      "   midi.NoteOffEvent(tick=14, channel=0, data=[8, 0]),\n",
      "   midi.NoteOffEvent(tick=1, channel=0, data=[52, 0]),\n",
      "   midi.NoteOffEvent(tick=7, channel=0, data=[75, 0]),\n",
      "   midi.NoteOffEvent(tick=1, channel=0, data=[98, 0]),\n",
      "   midi.NoteOffEvent(tick=1, channel=0, data=[64, 0]),\n",
      "   midi.NoteOffEvent(tick=7, channel=0, data=[66, 0]),\n",
      "   midi.NoteOffEvent(tick=1, channel=0, data=[30, 0]),\n",
      "   midi.NoteOffEvent(tick=5, channel=0, data=[120, 0]),\n",
      "   midi.NoteOffEvent(tick=5, channel=0, data=[93, 0]),\n",
      "   midi.NoteOffEvent(tick=3, channel=0, data=[83, 0]),\n",
      "   midi.NoteOffEvent(tick=14, channel=0, data=[106, 0]),\n",
      "   midi.NoteOffEvent(tick=0, channel=0, data=[116, 0]),\n",
      "   midi.NoteOffEvent(tick=0, channel=0, data=[124, 0]),\n",
      "   midi.NoteOffEvent(tick=14, channel=0, data=[113, 0]),\n",
      "   midi.NoteOffEvent(tick=6, channel=0, data=[41, 0]),\n",
      "   midi.NoteOffEvent(tick=7, channel=0, data=[9, 0]),\n",
      "   midi.NoteOffEvent(tick=0, channel=0, data=[28, 0]),\n",
      "   midi.NoteOffEvent(tick=0, channel=0, data=[110, 0]),\n",
      "   midi.NoteOffEvent(tick=14, channel=0, data=[87, 0]),\n",
      "   midi.NoteOffEvent(tick=19, channel=0, data=[73, 0]),\n",
      "   midi.NoteOffEvent(tick=7, channel=0, data=[79, 0]),\n",
      "   midi.NoteOffEvent(tick=9, channel=0, data=[68, 0]),\n",
      "   midi.NoteOffEvent(tick=19, channel=0, data=[62, 0]),\n",
      "   midi.NoteOffEvent(tick=2, channel=0, data=[115, 0]),\n",
      "   midi.NoteOffEvent(tick=7, channel=0, data=[107, 0]),\n",
      "   midi.NoteOffEvent(tick=35, channel=0, data=[10, 0]),\n",
      "   midi.NoteOffEvent(tick=2, channel=0, data=[12, 0]),\n",
      "   midi.NoteOffEvent(tick=1, channel=0, data=[34, 0]),\n",
      "   midi.NoteOffEvent(tick=9, channel=0, data=[104, 0]),\n",
      "   midi.NoteOffEvent(tick=6, channel=0, data=[13, 0]),\n",
      "   midi.NoteOffEvent(tick=3, channel=0, data=[25, 0]),\n",
      "   midi.NoteOffEvent(tick=15, channel=0, data=[44, 0]),\n",
      "   midi.NoteOffEvent(tick=1, channel=0, data=[89, 0]),\n",
      "   midi.NoteOffEvent(tick=6, channel=0, data=[7, 0]),\n",
      "   midi.NoteOffEvent(tick=3, channel=0, data=[127, 0]),\n",
      "   midi.NoteOffEvent(tick=4, channel=0, data=[40, 0]),\n",
      "   midi.NoteOffEvent(tick=19, channel=0, data=[0, 0]),\n",
      "   midi.NoteOffEvent(tick=14, channel=0, data=[58, 0]),\n",
      "   midi.NoteOffEvent(tick=28, channel=0, data=[78, 0]),\n",
      "   midi.NoteOffEvent(tick=36, channel=0, data=[42, 0]),\n",
      "   midi.NoteOffEvent(tick=28, channel=0, data=[1, 0]),\n",
      "   midi.NoteOffEvent(tick=20, channel=0, data=[33, 0]),\n",
      "   midi.NoteOffEvent(tick=29, channel=0, data=[126, 0]),\n",
      "   midi.NoteOffEvent(tick=12, channel=0, data=[18, 0]),\n",
      "   midi.NoteOffEvent(tick=99, channel=0, data=[121, 0]),\n",
      "   midi.EndOfTrackEvent(tick=0, data=[])]),\n",
      " midi.Track(\\\n",
      "  [midi.SetTempoEvent(tick=0, data=[4, 147, 224]),\n",
      "   midi.ProgramChangeEvent(tick=0, channel=0, data=[66]),\n",
      "   midi.NoteOnEvent(tick=0, channel=0, data=[119, 65]),\n",
      "   midi.NoteOnEvent(tick=0, channel=0, data=[106, 65]),\n",
      "   midi.NoteOnEvent(tick=0, channel=0, data=[122, 145]),\n",
      "   midi.NoteOnEvent(tick=1, channel=0, data=[83, 38]),\n",
      "   midi.NoteOnEvent(tick=1, channel=0, data=[95, 135]),\n",
      "   midi.NoteOnEvent(tick=0, channel=0, data=[43, 16]),\n",
      "   midi.NoteOnEvent(tick=1, channel=0, data=[2, 151]),\n",
      "   midi.NoteOnEvent(tick=4, channel=0, data=[78, 182]),\n",
      "   midi.NoteOnEvent(tick=6, channel=0, data=[84, 251]),\n",
      "   midi.NoteOnEvent(tick=1, channel=0, data=[106, 111]),\n",
      "   midi.NoteOnEvent(tick=3, channel=0, data=[48, 134]),\n",
      "   midi.NoteOnEvent(tick=0, channel=0, data=[53, 39]),\n",
      "   midi.NoteOnEvent(tick=1, channel=0, data=[36, 31]),\n",
      "   midi.NoteOnEvent(tick=3, channel=0, data=[50, 126]),\n",
      "   midi.NoteOnEvent(tick=1, channel=0, data=[101, 194]),\n",
      "   midi.NoteOnEvent(tick=2, channel=0, data=[19, 212]),\n",
      "   midi.NoteOnEvent(tick=4, channel=0, data=[10, 68]),\n",
      "   midi.NoteOnEvent(tick=1, channel=0, data=[32, 16]),\n",
      "   midi.NoteOnEvent(tick=0, channel=0, data=[95, 236]),\n",
      "   midi.NoteOnEvent(tick=3, channel=0, data=[51, 68]),\n",
      "   midi.NoteOnEvent(tick=2, channel=0, data=[14, 52]),\n",
      "   midi.NoteOnEvent(tick=1, channel=0, data=[17, 253]),\n",
      "   midi.NoteOffEvent(tick=1, channel=0, data=[51, 0]),\n",
      "   midi.NoteOnEvent(tick=0, channel=0, data=[51, 115]),\n",
      "   midi.NoteOnEvent(tick=1, channel=0, data=[85, 86]),\n",
      "   midi.NoteOffEvent(tick=5, channel=0, data=[48, 0]),\n",
      "   midi.NoteOnEvent(tick=0, channel=0, data=[91, 177]),\n",
      "   midi.NoteOnEvent(tick=3, channel=0, data=[33, 108]),\n",
      "   midi.NoteOnEvent(tick=1, channel=0, data=[21, 81]),\n",
      "   midi.NoteOnEvent(tick=2, channel=0, data=[105, 35]),\n",
      "   midi.NoteOnEvent(tick=8, channel=0, data=[123, 7]),\n",
      "   midi.NoteOnEvent(tick=3, channel=0, data=[90, 226]),\n",
      "   midi.NoteOnEvent(tick=2, channel=0, data=[50, 109]),\n",
      "   midi.NoteOnEvent(tick=5, channel=0, data=[78, 170]),\n",
      "   midi.NoteOnEvent(tick=2, channel=0, data=[39, 168]),\n",
      "   midi.NoteOnEvent(tick=1, channel=0, data=[21, 107]),\n",
      "   midi.NoteOnEvent(tick=0, channel=0, data=[59, 108]),\n",
      "   midi.NoteOnEvent(tick=1, channel=0, data=[52, 65]),\n",
      "   midi.NoteOnEvent(tick=0, channel=0, data=[1, 251]),\n",
      "   midi.NoteOffEvent(tick=2, channel=0, data=[90, 0]),\n",
      "   midi.NoteOnEvent(tick=0, channel=0, data=[20, 118]),\n",
      "   midi.NoteOnEvent(tick=0, channel=0, data=[105, 24]),\n",
      "   midi.NoteOnEvent(tick=1, channel=0, data=[37, 4]),\n",
      "   midi.NoteOnEvent(tick=1, channel=0, data=[0, 232]),\n",
      "   midi.NoteOffEvent(tick=2, channel=0, data=[36, 0]),\n",
      "   midi.NoteOffEvent(tick=0, channel=0, data=[59, 0]),\n",
      "   midi.NoteOffEvent(tick=1, channel=0, data=[105, 0]),\n",
      "   midi.NoteOnEvent(tick=5, channel=0, data=[126, 229]),\n",
      "   midi.NoteOnEvent(tick=4, channel=0, data=[75, 144]),\n",
      "   midi.NoteOnEvent(tick=1, channel=0, data=[104, 91]),\n",
      "   midi.NoteOnEvent(tick=0, channel=0, data=[115, 47]),\n",
      "   midi.NoteOnEvent(tick=4, channel=0, data=[62, 136]),\n",
      "   midi.NoteOnEvent(tick=2, channel=0, data=[30, 34]),\n",
      "   midi.NoteOnEvent(tick=0, channel=0, data=[78, 202]),\n",
      "   midi.NoteOnEvent(tick=1, channel=0, data=[61, 40]),\n",
      "   midi.NoteOnEvent(tick=3, channel=0, data=[47, 206]),\n",
      "   midi.NoteOnEvent(tick=1, channel=0, data=[50, 148]),\n",
      "   midi.NoteOnEvent(tick=3, channel=0, data=[89, 159]),\n",
      "   midi.NoteOnEvent(tick=3, channel=0, data=[53, 97]),\n",
      "   midi.NoteOnEvent(tick=0, channel=0, data=[127, 25]),\n",
      "   midi.NoteOnEvent(tick=1, channel=0, data=[87, 228]),\n",
      "   midi.NoteOnEvent(tick=1, channel=0, data=[119, 73]),\n",
      "   midi.NoteOnEvent(tick=1, channel=0, data=[17, 33]),\n",
      "   midi.NoteOnEvent(tick=3, channel=0, data=[53, 142]),\n",
      "   midi.NoteOnEvent(tick=0, channel=0, data=[112, 174]),\n",
      "   midi.NoteOnEvent(tick=0, channel=0, data=[94, 61]),\n",
      "   midi.NoteOnEvent(tick=8, channel=0, data=[124, 248]),\n",
      "   midi.NoteOnEvent(tick=0, channel=0, data=[101, 75]),\n",
      "   midi.NoteOnEvent(tick=4, channel=0, data=[85, 56]),\n",
      "   midi.NoteOnEvent(tick=0, channel=0, data=[42, 110]),\n",
      "   midi.NoteOnEvent(tick=0, channel=0, data=[62, 223]),\n",
      "   midi.NoteOnEvent(tick=1, channel=0, data=[109, 139]),\n",
      "   midi.NoteOnEvent(tick=0, channel=0, data=[57, 206]),\n",
      "   midi.NoteOnEvent(tick=1, channel=0, data=[88, 149]),\n",
      "   midi.NoteOnEvent(tick=0, channel=0, data=[0, 48]),\n",
      "   midi.NoteOnEvent(tick=12, channel=0, data=[112, 58]),\n",
      "   midi.NoteOnEvent(tick=1, channel=0, data=[108, 128]),\n",
      "   midi.NoteOnEvent(tick=0, channel=0, data=[0, 130]),\n",
      "   midi.NoteOnEvent(tick=1, channel=0, data=[54, 150]),\n",
      "   midi.NoteOnEvent(tick=0, channel=0, data=[36, 253]),\n",
      "   midi.NoteOnEvent(tick=2, channel=0, data=[60, 194]),\n",
      "   midi.NoteOnEvent(tick=1, channel=0, data=[73, 85]),\n",
      "   midi.NoteOnEvent(tick=1, channel=0, data=[43, 144]),\n",
      "   midi.NoteOnEvent(tick=2, channel=0, data=[33, 149]),\n",
      "   midi.NoteOnEvent(tick=6, channel=0, data=[66, 163]),\n",
      "   midi.NoteOnEvent(tick=3, channel=0, data=[122, 222]),\n",
      "   midi.NoteOnEvent(tick=2, channel=0, data=[103, 53]),\n",
      "   midi.NoteOnEvent(tick=1, channel=0, data=[100, 188]),\n",
      "   midi.NoteOnEvent(tick=1, channel=0, data=[26, 70]),\n",
      "   midi.NoteOnEvent(tick=1, channel=0, data=[122, 9]),\n",
      "   midi.NoteOffEvent(tick=1, channel=0, data=[88, 0]),\n",
      "   midi.NoteOnEvent(tick=0, channel=0, data=[122, 72]),\n",
      "   midi.NoteOnEvent(tick=1, channel=0, data=[57, 114]),\n",
      "   midi.NoteOnEvent(tick=1, channel=0, data=[27, 245]),\n",
      "   midi.NoteOnEvent(tick=2, channel=0, data=[96, 18]),\n",
      "   midi.NoteOnEvent(tick=2, channel=0, data=[66, 252]),\n",
      "   midi.NoteOnEvent(tick=2, channel=0, data=[108, 162]),\n",
      "   midi.NoteOnEvent(tick=3, channel=0, data=[99, 60]),\n",
      "   midi.NoteOnEvent(tick=1, channel=0, data=[88, 19]),\n",
      "   midi.NoteOnEvent(tick=0, channel=0, data=[112, 2]),\n",
      "   midi.NoteOnEvent(tick=1, channel=0, data=[60, 219]),\n",
      "   midi.NoteOnEvent(tick=1, channel=0, data=[42, 71]),\n",
      "   midi.NoteOffEvent(tick=3, channel=0, data=[87, 0]),\n",
      "   midi.NoteOnEvent(tick=2, channel=0, data=[121, 217]),\n",
      "   midi.NoteOnEvent(tick=0, channel=0, data=[118, 60]),\n",
      "   midi.NoteOnEvent(tick=7, channel=0, data=[20, 197]),\n",
      "   midi.NoteOnEvent(tick=8, channel=0, data=[54, 161]),\n",
      "   midi.NoteOnEvent(tick=3, channel=0, data=[82, 129]),\n",
      "   midi.NoteOnEvent(tick=1, channel=0, data=[47, 43]),\n",
      "   midi.NoteOnEvent(tick=2, channel=0, data=[74, 141]),\n",
      "   midi.NoteOnEvent(tick=2, channel=0, data=[57, 209]),\n",
      "   midi.NoteOffEvent(tick=1, channel=0, data=[57, 0]),\n",
      "   midi.NoteOnEvent(tick=0, channel=0, data=[12, 216]),\n",
      "   midi.NoteOffEvent(tick=1, channel=0, data=[50, 0]),\n",
      "   midi.NoteOnEvent(tick=2, channel=0, data=[54, 34]),\n",
      "   midi.NoteOnEvent(tick=1, channel=0, data=[61, 225]),\n",
      "   midi.NoteOnEvent(tick=0, channel=0, data=[114, 61]),\n",
      "   midi.NoteOnEvent(tick=3, channel=0, data=[49, 81]),\n",
      "   midi.NoteOnEvent(tick=0, channel=0, data=[125, 142]),\n",
      "   midi.NoteOffEvent(tick=2, channel=0, data=[78, 0]),\n",
      "   midi.NoteOnEvent(tick=0, channel=0, data=[72, 133]),\n",
      "   midi.NoteOnEvent(tick=0, channel=0, data=[117, 1]),\n",
      "   midi.NoteOnEvent(tick=6, channel=0, data=[4, 193]),\n",
      "   midi.NoteOnEvent(tick=1, channel=0, data=[31, 107]),\n",
      "   midi.NoteOnEvent(tick=2, channel=0, data=[48, 209]),\n",
      "   midi.NoteOnEvent(tick=1, channel=0, data=[101, 230]),\n",
      "   midi.NoteOnEvent(tick=2, channel=0, data=[97, 205]),\n",
      "   midi.NoteOnEvent(tick=4, channel=0, data=[106, 154]),\n",
      "   midi.NoteOnEvent(tick=0, channel=0, data=[127, 95]),\n",
      "   midi.NoteOnEvent(tick=4, channel=0, data=[125, 44]),\n",
      "   midi.NoteOnEvent(tick=8, channel=0, data=[14, 89]),\n",
      "   midi.NoteOnEvent(tick=1, channel=0, data=[0, 127]),\n",
      "   midi.NoteOnEvent(tick=6, channel=0, data=[71, 134]),\n",
      "   midi.NoteOnEvent(tick=0, channel=0, data=[39, 35]),\n",
      "   midi.NoteOffEvent(tick=5, channel=0, data=[124, 0]),\n",
      "   midi.NoteOnEvent(tick=0, channel=0, data=[115, 223]),\n",
      "   midi.NoteOnEvent(tick=3, channel=0, data=[10, 241]),\n",
      "   midi.NoteOnEvent(tick=3, channel=0, data=[14, 136]),\n",
      "   midi.NoteOffEvent(tick=3, channel=0, data=[1, 0]),\n",
      "   midi.NoteOffEvent(tick=2, channel=0, data=[33, 0]),\n",
      "   midi.NoteOnEvent(tick=2, channel=0, data=[19, 246]),\n",
      "   midi.NoteOffEvent(tick=2, channel=0, data=[72, 0]),\n",
      "   midi.NoteOnEvent(tick=0, channel=0, data=[61, 153]),\n",
      "   midi.NoteOnEvent(tick=5, channel=0, data=[70, 157]),\n",
      "   midi.NoteOffEvent(tick=2, channel=0, data=[119, 0]),\n",
      "   midi.NoteOnEvent(tick=1, channel=0, data=[87, 154]),\n",
      "   midi.NoteOnEvent(tick=7, channel=0, data=[87, 174]),\n",
      "   midi.NoteOffEvent(tick=1, channel=0, data=[94, 0]),\n",
      "   midi.NoteOnEvent(tick=0, channel=0, data=[50, 33]),\n",
      "   midi.NoteOffEvent(tick=1, channel=0, data=[83, 0]),\n",
      "   midi.NoteOnEvent(tick=1, channel=0, data=[28, 199]),\n",
      "   midi.NoteOnEvent(tick=5, channel=0, data=[58, 108]),\n",
      "   midi.NoteOnEvent(tick=0, channel=0, data=[29, 25]),\n",
      "   midi.NoteOnEvent(tick=1, channel=0, data=[6, 16]),\n",
      "   midi.NoteOnEvent(tick=5, channel=0, data=[43, 88]),\n",
      "   midi.NoteOnEvent(tick=7, channel=0, data=[49, 217]),\n",
      "   midi.NoteOnEvent(tick=6, channel=0, data=[59, 222]),\n",
      "   midi.NoteOnEvent(tick=1, channel=0, data=[50, 217]),\n",
      "   midi.NoteOnEvent(tick=1, channel=0, data=[14, 152]),\n",
      "   midi.NoteOnEvent(tick=1, channel=0, data=[15, 75]),\n",
      "   midi.NoteOnEvent(tick=10, channel=0, data=[84, 34]),\n",
      "   midi.NoteOnEvent(tick=4, channel=0, data=[25, 180]),\n",
      "   midi.NoteOnEvent(tick=2, channel=0, data=[106, 238]),\n",
      "   midi.NoteOnEvent(tick=1, channel=0, data=[120, 72]),\n",
      "   midi.NoteOnEvent(tick=2, channel=0, data=[113, 101]),\n",
      "   midi.NoteOnEvent(tick=2, channel=0, data=[45, 149]),\n",
      "   midi.NoteOnEvent(tick=0, channel=0, data=[120, 35]),\n",
      "   midi.NoteOnEvent(tick=3, channel=0, data=[10, 147]),\n",
      "   midi.NoteOnEvent(tick=2, channel=0, data=[69, 235]),\n",
      "   midi.NoteOnEvent(tick=2, channel=0, data=[60, 70]),\n",
      "   midi.NoteOnEvent(tick=0, channel=0, data=[94, 48]),\n",
      "   midi.NoteOnEvent(tick=2, channel=0, data=[19, 122]),\n",
      "   midi.NoteOnEvent(tick=0, channel=0, data=[67, 184]),\n",
      "   midi.NoteOnEvent(tick=3, channel=0, data=[114, 190]),\n",
      "   midi.NoteOnEvent(tick=6, channel=0, data=[5, 42]),\n",
      "   midi.NoteOnEvent(tick=2, channel=0, data=[52, 127]),\n",
      "   midi.NoteOnEvent(tick=1, channel=0, data=[72, 227]),\n",
      "   midi.NoteOffEvent(tick=1, channel=0, data=[91, 0]),\n",
      "   midi.NoteOnEvent(tick=0, channel=0, data=[75, 221]),\n",
      "   midi.NoteOnEvent(tick=1, channel=0, data=[45, 184]),\n",
      "   midi.NoteOnEvent(tick=1, channel=0, data=[41, 121]),\n",
      "   midi.NoteOnEvent(tick=1, channel=0, data=[122, 2]),\n",
      "   midi.NoteOffEvent(tick=1, channel=0, data=[126, 0]),\n",
      "   midi.NoteOnEvent(tick=0, channel=0, data=[64, 91]),\n",
      "   midi.NoteOnEvent(tick=1, channel=0, data=[10, 35]),\n",
      "   midi.NoteOnEvent(tick=0, channel=0, data=[1, 84]),\n",
      "   midi.NoteOnEvent(tick=3, channel=0, data=[86, 52]),\n",
      "   midi.NoteOnEvent(tick=0, channel=0, data=[74, 175]),\n",
      "   midi.NoteOnEvent(tick=1, channel=0, data=[17, 112]),\n",
      "   midi.NoteOffEvent(tick=1, channel=0, data=[58, 0]),\n",
      "   midi.NoteOnEvent(tick=1, channel=0, data=[70, 89]),\n",
      "   midi.NoteOnEvent(tick=2, channel=0, data=[62, 65]),\n",
      "   midi.NoteOnEvent(tick=0, channel=0, data=[34, 104]),\n",
      "   midi.NoteOnEvent(tick=1, channel=0, data=[15, 146]),\n",
      "   midi.NoteOnEvent(tick=5, channel=0, data=[8, 177]),\n",
      "   midi.NoteOnEvent(tick=4, channel=0, data=[91, 43]),\n",
      "   midi.NoteOnEvent(tick=0, channel=0, data=[45, 139]),\n",
      "   midi.NoteOnEvent(tick=0, channel=0, data=[118, 23]),\n",
      "   midi.NoteOnEvent(tick=0, channel=0, data=[121, 151]),\n",
      "   midi.NoteOnEvent(tick=1, channel=0, data=[7, 108]),\n",
      "   midi.NoteOnEvent(tick=6, channel=0, data=[93, 4]),\n",
      "   midi.NoteOnEvent(tick=9, channel=0, data=[106, 241]),\n",
      "   midi.NoteOnEvent(tick=0, channel=0, data=[8, 118]),\n",
      "   midi.NoteOffEvent(tick=1, channel=0, data=[103, 0]),\n",
      "   midi.NoteOnEvent(tick=2, channel=0, data=[25, 14]),\n",
      "   midi.NoteOnEvent(tick=0, channel=0, data=[114, 159]),\n",
      "   midi.NoteOnEvent(tick=0, channel=0, data=[106, 80]),\n",
      "   midi.NoteOnEvent(tick=5, channel=0, data=[14, 170]),\n",
      "   midi.NoteOnEvent(tick=0, channel=0, data=[27, 31]),\n",
      "   midi.NoteOffEvent(tick=1, channel=0, data=[42, 0]),\n",
      "   midi.NoteOnEvent(tick=0, channel=0, data=[71, 128]),\n",
      "   midi.NoteOnEvent(tick=1, channel=0, data=[31, 41]),\n",
      "   midi.NoteOnEvent(tick=2, channel=0, data=[114, 26]),\n",
      "   midi.NoteOnEvent(tick=0, channel=0, data=[69, 36]),\n",
      "   midi.NoteOnEvent(tick=1, channel=0, data=[67, 5]),\n",
      "   midi.NoteOnEvent(tick=0, channel=0, data=[83, 35]),\n",
      "   midi.NoteOffEvent(tick=1, channel=0, data=[60, 0]),\n",
      "   midi.NoteOffEvent(tick=1, channel=0, data=[2, 0]),\n",
      "   midi.NoteOnEvent(tick=0, channel=0, data=[40, 240]),\n",
      "   midi.NoteOnEvent(tick=3, channel=0, data=[43, 21]),\n",
      "   midi.NoteOnEvent(tick=7, channel=0, data=[76, 93]),\n",
      "   midi.NoteOnEvent(tick=1, channel=0, data=[107, 243]),\n",
      "   midi.NoteOnEvent(tick=0, channel=0, data=[30, 237]),\n",
      "   midi.NoteOnEvent(tick=1, channel=0, data=[21, 15]),\n",
      "   midi.NoteOnEvent(tick=2, channel=0, data=[126, 145]),\n",
      "   midi.NoteOnEvent(tick=0, channel=0, data=[122, 27]),\n",
      "   midi.NoteOnEvent(tick=1, channel=0, data=[107, 145]),\n",
      "   midi.NoteOffEvent(tick=4, channel=0, data=[37, 0]),\n",
      "   midi.NoteOnEvent(tick=0, channel=0, data=[46, 94]),\n",
      "   midi.NoteOnEvent(tick=1, channel=0, data=[2, 4]),\n",
      "   midi.NoteOnEvent(tick=0, channel=0, data=[45, 100]),\n",
      "   midi.NoteOnEvent(tick=0, channel=0, data=[15, 220]),\n",
      "   midi.NoteOnEvent(tick=1, channel=0, data=[0, 211]),\n",
      "   midi.NoteOnEvent(tick=1, channel=0, data=[119, 13]),\n",
      "   midi.NoteOnEvent(tick=0, channel=0, data=[119, 49]),\n",
      "   midi.NoteOnEvent(tick=0, channel=0, data=[6, 241]),\n",
      "   midi.NoteOnEvent(tick=1, channel=0, data=[100, 197]),\n",
      "   midi.NoteOnEvent(tick=0, channel=0, data=[81, 5]),\n",
      "   midi.NoteOnEvent(tick=1, channel=0, data=[114, 148]),\n",
      "   midi.NoteOnEvent(tick=0, channel=0, data=[40, 173]),\n",
      "   midi.NoteOnEvent(tick=1, channel=0, data=[16, 156]),\n",
      "   midi.NoteOnEvent(tick=4, channel=0, data=[13, 232]),\n",
      "   midi.NoteOffEvent(tick=2, channel=0, data=[30, 0]),\n",
      "   midi.NoteOnEvent(tick=0, channel=0, data=[55, 215]),\n",
      "   midi.NoteOnEvent(tick=1, channel=0, data=[62, 150]),\n",
      "   midi.NoteOnEvent(tick=1, channel=0, data=[17, 222]),\n",
      "   midi.NoteOffEvent(tick=1, channel=0, data=[43, 0]),\n",
      "   midi.NoteOffEvent(tick=0, channel=0, data=[101, 0]),\n",
      "   midi.NoteOnEvent(tick=0, channel=0, data=[13, 19]),\n",
      "   midi.NoteOnEvent(tick=0, channel=0, data=[61, 248]),\n",
      "   midi.NoteOnEvent(tick=2, channel=0, data=[124, 145]),\n",
      "   midi.NoteOnEvent(tick=0, channel=0, data=[66, 2]),\n",
      "   midi.NoteOnEvent(tick=1, channel=0, data=[69, 189]),\n",
      "   midi.NoteOnEvent(tick=3, channel=0, data=[47, 48]),\n",
      "   midi.NoteOnEvent(tick=1, channel=0, data=[12, 174]),\n",
      "   midi.NoteOnEvent(tick=1, channel=0, data=[36, 176]),\n",
      "   midi.NoteOnEvent(tick=2, channel=0, data=[111, 159]),\n",
      "   midi.NoteOnEvent(tick=2, channel=0, data=[51, 91]),\n",
      "   midi.NoteOffEvent(tick=2, channel=0, data=[104, 0]),\n",
      "   midi.NoteOnEvent(tick=0, channel=0, data=[51, 5]),\n",
      "   midi.NoteOnEvent(tick=1, channel=0, data=[19, 179]),\n",
      "   midi.NoteOnEvent(tick=1, channel=0, data=[31, 169]),\n",
      "   midi.NoteOnEvent(tick=1, channel=0, data=[121, 1]),\n",
      "   midi.NoteOnEvent(tick=1, channel=0, data=[30, 68]),\n",
      "   midi.NoteOffEvent(tick=5, channel=0, data=[53, 0]),\n",
      "   midi.NoteOnEvent(tick=2, channel=0, data=[120, 44]),\n",
      "   midi.NoteOffEvent(tick=4, channel=0, data=[0, 0]),\n",
      "   midi.NoteOnEvent(tick=2, channel=0, data=[119, 39]),\n",
      "   midi.NoteOnEvent(tick=2, channel=0, data=[0, 138]),\n",
      "   midi.NoteOnEvent(tick=3, channel=0, data=[69, 74]),\n",
      "   midi.NoteOnEvent(tick=2, channel=0, data=[23, 63]),\n",
      "   midi.NoteOnEvent(tick=4, channel=0, data=[91, 188]),\n",
      "   midi.NoteOnEvent(tick=6, channel=0, data=[27, 177]),\n",
      "   midi.NoteOffEvent(tick=1, channel=0, data=[87, 0]),\n",
      "   midi.NoteOnEvent(tick=0, channel=0, data=[11, 249]),\n",
      "   midi.NoteOnEvent(tick=4, channel=0, data=[120, 255]),\n",
      "   midi.NoteOnEvent(tick=1, channel=0, data=[49, 106]),\n",
      "   midi.NoteOnEvent(tick=1, channel=0, data=[15, 200]),\n",
      "   midi.NoteOnEvent(tick=0, channel=0, data=[93, 65]),\n",
      "   midi.NoteOnEvent(tick=1, channel=0, data=[118, 68]),\n",
      "   midi.NoteOnEvent(tick=1, channel=0, data=[6, 167]),\n",
      "   midi.NoteOnEvent(tick=1, channel=0, data=[65, 248]),\n",
      "   midi.NoteOnEvent(tick=2, channel=0, data=[60, 157]),\n",
      "   midi.NoteOnEvent(tick=0, channel=0, data=[53, 228]),\n",
      "   midi.NoteOnEvent(tick=1, channel=0, data=[71, 215]),\n",
      "   midi.NoteOnEvent(tick=2, channel=0, data=[19, 226]),\n",
      "   midi.NoteOnEvent(tick=1, channel=0, data=[22, 202]),\n",
      "   midi.NoteOnEvent(tick=3, channel=0, data=[102, 228]),\n",
      "   midi.NoteOnEvent(tick=2, channel=0, data=[0, 229]),\n",
      "   midi.NoteOnEvent(tick=1, channel=0, data=[82, 91]),\n",
      "   midi.NoteOnEvent(tick=1, channel=0, data=[90, 156]),\n",
      "   midi.NoteOnEvent(tick=1, channel=0, data=[119, 120]),\n",
      "   midi.NoteOnEvent(tick=1, channel=0, data=[113, 158]),\n",
      "   midi.NoteOnEvent(tick=2, channel=0, data=[50, 246]),\n",
      "   midi.NoteOnEvent(tick=2, channel=0, data=[30, 41]),\n",
      "   midi.NoteOnEvent(tick=1, channel=0, data=[35, 5]),\n",
      "   midi.NoteOnEvent(tick=2, channel=0, data=[69, 158]),\n",
      "   midi.NoteOffEvent(tick=2, channel=0, data=[36, 0]),\n",
      "   midi.NoteOnEvent(tick=1, channel=0, data=[92, 98]),\n",
      "   midi.NoteOnEvent(tick=1, channel=0, data=[102, 128]),\n",
      "   midi.NoteOnEvent(tick=5, channel=0, data=[124, 179]),\n",
      "   midi.NoteOffEvent(tick=1, channel=0, data=[83, 0]),\n",
      "   midi.NoteOnEvent(tick=3, channel=0, data=[23, 197]),\n",
      "   midi.NoteOnEvent(tick=0, channel=0, data=[81, 140]),\n",
      "   midi.NoteOnEvent(tick=4, channel=0, data=[85, 210]),\n",
      "   midi.NoteOnEvent(tick=1, channel=0, data=[44, 40]),\n",
      "   midi.NoteOnEvent(tick=4, channel=0, data=[30, 147]),\n",
      "   midi.NoteOnEvent(tick=5, channel=0, data=[30, 88]),\n",
      "   midi.NoteOnEvent(tick=1, channel=0, data=[28, 63]),\n",
      "   midi.NoteOnEvent(tick=1, channel=0, data=[84, 123]),\n",
      "   midi.NoteOnEvent(tick=1, channel=0, data=[13, 230]),\n",
      "   midi.NoteOnEvent(tick=0, channel=0, data=[29, 3]),\n",
      "   midi.NoteOnEvent(tick=2, channel=0, data=[42, 181]),\n",
      "   midi.NoteOnEvent(tick=2, channel=0, data=[40, 235]),\n",
      "   midi.NoteOnEvent(tick=0, channel=0, data=[31, 202]),\n",
      "   midi.NoteOnEvent(tick=1, channel=0, data=[49, 96]),\n",
      "   midi.NoteOffEvent(tick=1, channel=0, data=[72, 0]),\n",
      "   midi.NoteOnEvent(tick=1, channel=0, data=[67, 23]),\n",
      "   midi.NoteOnEvent(tick=0, channel=0, data=[27, 118]),\n",
      "   midi.NoteOnEvent(tick=2, channel=0, data=[83, 209]),\n",
      "   midi.NoteOnEvent(tick=2, channel=0, data=[96, 91]),\n",
      "   midi.NoteOnEvent(tick=2, channel=0, data=[86, 81]),\n",
      "   midi.NoteOnEvent(tick=0, channel=0, data=[116, 88]),\n",
      "   midi.NoteOnEvent(tick=0, channel=0, data=[114, 102]),\n",
      "   midi.NoteOnEvent(tick=2, channel=0, data=[82, 226]),\n",
      "   midi.NoteOnEvent(tick=1, channel=0, data=[38, 116]),\n",
      "   midi.NoteOnEvent(tick=0, channel=0, data=[58, 87]),\n",
      "   midi.NoteOnEvent(tick=0, channel=0, data=[5, 135]),\n",
      "   midi.NoteOffEvent(tick=1, channel=0, data=[50, 0]),\n",
      "   midi.NoteOnEvent(tick=1, channel=0, data=[123, 137]),\n",
      "   midi.NoteOnEvent(tick=0, channel=0, data=[17, 194]),\n",
      "   midi.NoteOnEvent(tick=0, channel=0, data=[58, 248]),\n",
      "   midi.NoteOffEvent(tick=1, channel=0, data=[85, 0]),\n",
      "   midi.NoteOnEvent(tick=0, channel=0, data=[9, 62]),\n",
      "   midi.NoteOnEvent(tick=2, channel=0, data=[8, 207]),\n",
      "   midi.NoteOnEvent(tick=2, channel=0, data=[99, 74]),\n",
      "   midi.NoteOnEvent(tick=1, channel=0, data=[16, 202]),\n",
      "   midi.NoteOnEvent(tick=1, channel=0, data=[33, 230]),\n",
      "   midi.NoteOffEvent(tick=2, channel=0, data=[45, 0]),\n",
      "   midi.NoteOnEvent(tick=0, channel=0, data=[60, 185]),\n",
      "   midi.NoteOnEvent(tick=3, channel=0, data=[68, 69]),\n",
      "   midi.NoteOnEvent(tick=3, channel=0, data=[14, 4]),\n",
      "   midi.NoteOnEvent(tick=1, channel=0, data=[75, 176]),\n",
      "   midi.NoteOnEvent(tick=0, channel=0, data=[12, 78]),\n",
      "   midi.NoteOnEvent(tick=5, channel=0, data=[96, 162]),\n",
      "   midi.NoteOnEvent(tick=1, channel=0, data=[70, 178]),\n",
      "   midi.NoteOnEvent(tick=0, channel=0, data=[84, 90]),\n",
      "   midi.NoteOffEvent(tick=1, channel=0, data=[107, 0]),\n",
      "   midi.NoteOnEvent(tick=0, channel=0, data=[84, 216]),\n",
      "   midi.NoteOnEvent(tick=3, channel=0, data=[115, 43]),\n",
      "   midi.NoteOnEvent(tick=1, channel=0, data=[44, 118]),\n",
      "   midi.NoteOnEvent(tick=1, channel=0, data=[0, 118]),\n",
      "   midi.NoteOffEvent(tick=2, channel=0, data=[4, 0]),\n",
      "   midi.NoteOnEvent(tick=3, channel=0, data=[42, 160]),\n",
      "   midi.NoteOnEvent(tick=2, channel=0, data=[54, 91]),\n",
      "   midi.NoteOnEvent(tick=1, channel=0, data=[79, 253]),\n",
      "   midi.NoteOnEvent(tick=4, channel=0, data=[83, 72]),\n",
      "   midi.NoteOffEvent(tick=2, channel=0, data=[13, 0]),\n",
      "   midi.NoteOnEvent(tick=1, channel=0, data=[120, 232]),\n",
      "   midi.NoteOnEvent(tick=1, channel=0, data=[90, 35]),\n",
      "   midi.NoteOnEvent(tick=3, channel=0, data=[34, 200]),\n",
      "   midi.NoteOnEvent(tick=1, channel=0, data=[97, 56]),\n",
      "   midi.NoteOffEvent(tick=1, channel=0, data=[65, 0]),\n",
      "   midi.NoteOnEvent(tick=0, channel=0, data=[82, 231]),\n",
      "   midi.NoteOnEvent(tick=2, channel=0, data=[11, 94]),\n",
      "   midi.NoteOnEvent(tick=1, channel=0, data=[94, 128]),\n",
      "   midi.NoteOnEvent(tick=0, channel=0, data=[0, 199]),\n",
      "   midi.NoteOnEvent(tick=0, channel=0, data=[122, 7]),\n",
      "   midi.NoteOnEvent(tick=1, channel=0, data=[9, 91]),\n",
      "   midi.NoteOnEvent(tick=1, channel=0, data=[54, 98]),\n",
      "   midi.NoteOnEvent(tick=0, channel=0, data=[111, 27]),\n",
      "   midi.NoteOnEvent(tick=1, channel=0, data=[78, 147]),\n",
      "   midi.NoteOnEvent(tick=3, channel=0, data=[86, 93]),\n",
      "   midi.NoteOnEvent(tick=1, channel=0, data=[86, 241]),\n",
      "   midi.NoteOnEvent(tick=2, channel=0, data=[84, 65]),\n",
      "   midi.NoteOffEvent(tick=3, channel=0, data=[9, 0]),\n",
      "   midi.NoteOffEvent(tick=1, channel=0, data=[112, 0]),\n",
      "   midi.NoteOnEvent(tick=1, channel=0, data=[117, 183]),\n",
      "   midi.NoteOnEvent(tick=2, channel=0, data=[73, 85]),\n",
      "   midi.NoteOffEvent(tick=2, channel=0, data=[83, 0]),\n",
      "   midi.NoteOnEvent(tick=3, channel=0, data=[19, 90]),\n",
      "   midi.NoteOnEvent(tick=1, channel=0, data=[24, 195]),\n",
      "   midi.NoteOnEvent(tick=0, channel=0, data=[28, 65]),\n",
      "   midi.NoteOffEvent(tick=4, channel=0, data=[49, 0]),\n",
      "   midi.NoteOnEvent(tick=2, channel=0, data=[11, 169]),\n",
      "   midi.NoteOnEvent(tick=0, channel=0, data=[64, 10]),\n",
      "   midi.NoteOnEvent(tick=1, channel=0, data=[110, 156]),\n",
      "   midi.NoteOnEvent(tick=1, channel=0, data=[33, 169]),\n",
      "   midi.NoteOnEvent(tick=1, channel=0, data=[24, 34]),\n",
      "   midi.NoteOnEvent(tick=1, channel=0, data=[69, 174]),\n",
      "   midi.NoteOnEvent(tick=1, channel=0, data=[118, 31]),\n",
      "   midi.NoteOnEvent(tick=1, channel=0, data=[90, 121]),\n",
      "   midi.NoteOnEvent(tick=0, channel=0, data=[92, 38]),\n",
      "   midi.NoteOnEvent(tick=1, channel=0, data=[126, 1]),\n",
      "   midi.NoteOnEvent(tick=1, channel=0, data=[76, 247]),\n",
      "   midi.NoteOnEvent(tick=1, channel=0, data=[19, 105]),\n",
      "   midi.NoteOnEvent(tick=2, channel=0, data=[38, 93]),\n",
      "   midi.NoteOnEvent(tick=2, channel=0, data=[79, 117]),\n",
      "   midi.NoteOnEvent(tick=6, channel=0, data=[108, 87]),\n",
      "   midi.NoteOnEvent(tick=3, channel=0, data=[78, 186]),\n",
      "   midi.NoteOnEvent(tick=0, channel=0, data=[90, 233]),\n",
      "   midi.NoteOnEvent(tick=2, channel=0, data=[82, 114]),\n",
      "   midi.NoteOnEvent(tick=1, channel=0, data=[51, 13]),\n",
      "   midi.NoteOnEvent(tick=0, channel=0, data=[67, 76]),\n",
      "   midi.NoteOnEvent(tick=1, channel=0, data=[48, 129]),\n",
      "   midi.NoteOnEvent(tick=3, channel=0, data=[15, 7]),\n",
      "   midi.NoteOnEvent(tick=1, channel=0, data=[10, 106]),\n",
      "   midi.NoteOffEvent(tick=2, channel=0, data=[1, 0]),\n",
      "   midi.NoteOnEvent(tick=0, channel=0, data=[107, 22]),\n",
      "   midi.NoteOffEvent(tick=3, channel=0, data=[34, 0]),\n",
      "   midi.NoteOnEvent(tick=0, channel=0, data=[81, 100]),\n",
      "   midi.NoteOnEvent(tick=5, channel=0, data=[19, 168]),\n",
      "   midi.NoteOnEvent(tick=1, channel=0, data=[82, 4]),\n",
      "   midi.NoteOnEvent(tick=2, channel=0, data=[121, 1]),\n",
      "   midi.NoteOnEvent(tick=0, channel=0, data=[119, 194]),\n",
      "   midi.NoteOnEvent(tick=1, channel=0, data=[93, 195]),\n",
      "   midi.NoteOnEvent(tick=0, channel=0, data=[65, 71]),\n",
      "   midi.NoteOnEvent(tick=4, channel=0, data=[75, 84]),\n",
      "   midi.NoteOnEvent(tick=1, channel=0, data=[25, 237]),\n",
      "   midi.NoteOnEvent(tick=3, channel=0, data=[67, 127]),\n",
      "   midi.NoteOnEvent(tick=2, channel=0, data=[113, 235]),\n",
      "   midi.NoteOnEvent(tick=2, channel=0, data=[93, 235]),\n",
      "   midi.NoteOnEvent(tick=1, channel=0, data=[66, 213]),\n",
      "   midi.NoteOffEvent(tick=4, channel=0, data=[20, 0]),\n",
      "   midi.NoteOnEvent(tick=1, channel=0, data=[105, 59]),\n",
      "   midi.NoteOnEvent(tick=2, channel=0, data=[37, 225]),\n",
      "   midi.NoteOnEvent(tick=1, channel=0, data=[109, 153]),\n",
      "   midi.NoteOnEvent(tick=5, channel=0, data=[7, 44]),\n",
      "   midi.NoteOnEvent(tick=1, channel=0, data=[53, 46]),\n",
      "   midi.NoteOnEvent(tick=1, channel=0, data=[105, 73]),\n",
      "   midi.NoteOnEvent(tick=4, channel=0, data=[74, 147]),\n",
      "   midi.NoteOnEvent(tick=2, channel=0, data=[126, 144]),\n",
      "   midi.NoteOnEvent(tick=2, channel=0, data=[55, 66]),\n",
      "   midi.NoteOffEvent(tick=6, channel=0, data=[11, 0]),\n",
      "   midi.NoteOnEvent(tick=0, channel=0, data=[37, 206]),\n",
      "   midi.NoteOnEvent(tick=1, channel=0, data=[50, 57]),\n",
      "   midi.NoteOnEvent(tick=1, channel=0, data=[64, 114]),\n",
      "   midi.NoteOnEvent(tick=0, channel=0, data=[16, 111]),\n",
      "   midi.NoteOnEvent(tick=3, channel=0, data=[49, 40]),\n",
      "   midi.NoteOffEvent(tick=4, channel=0, data=[15, 0]),\n",
      "   midi.NoteOnEvent(tick=1, channel=0, data=[68, 195]),\n",
      "   midi.NoteOffEvent(tick=1, channel=0, data=[12, 0]),\n",
      "   midi.NoteOnEvent(tick=3, channel=0, data=[16, 207]),\n",
      "   midi.NoteOnEvent(tick=1, channel=0, data=[77, 130]),\n",
      "   midi.NoteOnEvent(tick=0, channel=0, data=[70, 176]),\n",
      "   midi.NoteOnEvent(tick=1, channel=0, data=[99, 68]),\n",
      "   midi.NoteOnEvent(tick=1, channel=0, data=[103, 31]),\n",
      "   midi.NoteOnEvent(tick=6, channel=0, data=[31, 85]),\n",
      "   midi.NoteOffEvent(tick=2, channel=0, data=[32, 0]),\n",
      "   midi.NoteOffEvent(tick=6, channel=0, data=[46, 0]),\n",
      "   midi.NoteOnEvent(tick=0, channel=0, data=[55, 171]),\n",
      "   midi.NoteOnEvent(tick=1, channel=0, data=[6, 98]),\n",
      "   midi.NoteOffEvent(tick=1, channel=0, data=[71, 0]),\n",
      "   midi.NoteOnEvent(tick=2, channel=0, data=[46, 102]),\n",
      "   midi.NoteOnEvent(tick=1, channel=0, data=[82, 77]),\n",
      "   midi.NoteOnEvent(tick=1, channel=0, data=[122, 140]),\n",
      "   midi.NoteOnEvent(tick=0, channel=0, data=[43, 131]),\n",
      "   midi.NoteOnEvent(tick=1, channel=0, data=[61, 57]),\n",
      "   midi.NoteOnEvent(tick=0, channel=0, data=[109, 83]),\n",
      "   midi.NoteOnEvent(tick=4, channel=0, data=[102, 39]),\n",
      "   midi.NoteOnEvent(tick=0, channel=0, data=[107, 23]),\n",
      "   midi.NoteOnEvent(tick=3, channel=0, data=[38, 29]),\n",
      "   midi.NoteOnEvent(tick=2, channel=0, data=[42, 132]),\n",
      "   midi.NoteOnEvent(tick=1, channel=0, data=[111, 172]),\n",
      "   midi.NoteOnEvent(tick=1, channel=0, data=[48, 175]),\n",
      "   midi.NoteOffEvent(tick=1, channel=0, data=[29, 0]),\n",
      "   midi.NoteOffEvent(tick=0, channel=0, data=[95, 0]),\n",
      "   midi.NoteOnEvent(tick=4, channel=0, data=[124, 115]),\n",
      "   midi.NoteOnEvent(tick=0, channel=0, data=[26, 242]),\n",
      "   midi.NoteOnEvent(tick=7, channel=0, data=[64, 168]),\n",
      "   midi.NoteOnEvent(tick=4, channel=0, data=[7, 158]),\n",
      "   midi.NoteOnEvent(tick=2, channel=0, data=[49, 110]),\n",
      "   midi.NoteOffEvent(tick=2, channel=0, data=[84, 0]),\n",
      "   midi.NoteOnEvent(tick=0, channel=0, data=[48, 169]),\n",
      "   midi.NoteOnEvent(tick=0, channel=0, data=[106, 109]),\n",
      "   midi.NoteOnEvent(tick=0, channel=0, data=[27, 134]),\n",
      "   midi.NoteOnEvent(tick=1, channel=0, data=[70, 143]),\n",
      "   midi.NoteOnEvent(tick=1, channel=0, data=[39, 157]),\n",
      "   midi.NoteOnEvent(tick=1, channel=0, data=[55, 24]),\n",
      "   midi.NoteOffEvent(tick=6, channel=0, data=[78, 0]),\n",
      "   midi.NoteOffEvent(tick=3, channel=0, data=[107, 0]),\n",
      "   midi.NoteOnEvent(tick=0, channel=0, data=[75, 77]),\n",
      "   midi.NoteOffEvent(tick=3, channel=0, data=[91, 0]),\n",
      "   midi.NoteOnEvent(tick=3, channel=0, data=[109, 216]),\n",
      "   midi.NoteOnEvent(tick=7, channel=0, data=[7, 63]),\n",
      "   midi.NoteOnEvent(tick=0, channel=0, data=[29, 84]),\n",
      "   midi.NoteOnEvent(tick=3, channel=0, data=[62, 97]),\n",
      "   midi.NoteOnEvent(tick=0, channel=0, data=[111, 229]),\n",
      "   midi.NoteOnEvent(tick=2, channel=0, data=[24, 210]),\n",
      "   midi.NoteOnEvent(tick=0, channel=0, data=[15, 155]),\n",
      "   midi.NoteOnEvent(tick=0, channel=0, data=[88, 3]),\n",
      "   midi.NoteOnEvent(tick=0, channel=0, data=[83, 159]),\n",
      "   midi.NoteOnEvent(tick=5, channel=0, data=[117, 107]),\n",
      "   midi.NoteOnEvent(tick=3, channel=0, data=[103, 217]),\n",
      "   midi.NoteOffEvent(tick=3, channel=0, data=[126, 0]),\n",
      "   midi.NoteOnEvent(tick=1, channel=0, data=[38, 105]),\n",
      "   midi.NoteOnEvent(tick=0, channel=0, data=[125, 85]),\n",
      "   midi.NoteOnEvent(tick=1, channel=0, data=[18, 211]),\n",
      "   midi.NoteOnEvent(tick=1, channel=0, data=[102, 205]),\n",
      "   midi.NoteOnEvent(tick=0, channel=0, data=[99, 24]),\n",
      "   midi.NoteOnEvent(tick=3, channel=0, data=[56, 34]),\n",
      "   midi.NoteOffEvent(tick=1, channel=0, data=[2, 0]),\n",
      "   midi.NoteOnEvent(tick=0, channel=0, data=[100, 185]),\n",
      "   midi.NoteOnEvent(tick=5, channel=0, data=[3, 190]),\n",
      "   midi.NoteOnEvent(tick=1, channel=0, data=[19, 21]),\n",
      "   midi.NoteOnEvent(tick=1, channel=0, data=[19, 249]),\n",
      "   midi.NoteOnEvent(tick=2, channel=0, data=[20, 185]),\n",
      "   midi.NoteOnEvent(tick=3, channel=0, data=[53, 194]),\n",
      "   midi.NoteOnEvent(tick=6, channel=0, data=[6, 102]),\n",
      "   midi.NoteOnEvent(tick=3, channel=0, data=[24, 110]),\n",
      "   midi.NoteOnEvent(tick=2, channel=0, data=[119, 245]),\n",
      "   midi.NoteOffEvent(tick=3, channel=0, data=[118, 0]),\n",
      "   midi.NoteOffEvent(tick=0, channel=0, data=[122, 0]),\n",
      "   midi.NoteOffEvent(tick=1, channel=0, data=[82, 0]),\n",
      "   midi.NoteOnEvent(tick=1, channel=0, data=[0, 231]),\n",
      "   midi.NoteOnEvent(tick=1, channel=0, data=[58, 169]),\n",
      "   midi.NoteOnEvent(tick=4, channel=0, data=[66, 235]),\n",
      "   midi.NoteOnEvent(tick=0, channel=0, data=[77, 32]),\n",
      "   midi.NoteOnEvent(tick=2, channel=0, data=[47, 252]),\n",
      "   midi.NoteOffEvent(tick=1, channel=0, data=[30, 0]),\n",
      "   midi.NoteOnEvent(tick=1, channel=0, data=[98, 71]),\n",
      "   midi.NoteOffEvent(tick=3, channel=0, data=[29, 0]),\n",
      "   midi.NoteOnEvent(tick=1, channel=0, data=[98, 91]),\n",
      "   midi.NoteOffEvent(tick=2, channel=0, data=[28, 0]),\n",
      "   midi.NoteOffEvent(tick=0, channel=0, data=[79, 0]),\n",
      "   midi.NoteOnEvent(tick=1, channel=0, data=[28, 24]),\n",
      "   midi.NoteOnEvent(tick=1, channel=0, data=[43, 160]),\n",
      "   midi.NoteOnEvent(tick=7, channel=0, data=[38, 145]),\n",
      "   midi.NoteOnEvent(tick=3, channel=0, data=[80, 52]),\n",
      "   midi.NoteOffEvent(tick=2, channel=0, data=[89, 0]),\n",
      "   midi.NoteOffEvent(tick=1, channel=0, data=[58, 0]),\n",
      "   midi.NoteOnEvent(tick=0, channel=0, data=[126, 6]),\n",
      "   midi.NoteOnEvent(tick=4, channel=0, data=[42, 68]),\n",
      "   midi.NoteOnEvent(tick=4, channel=0, data=[123, 210]),\n",
      "   midi.NoteOnEvent(tick=1, channel=0, data=[48, 59]),\n",
      "   midi.NoteOffEvent(tick=6, channel=0, data=[77, 0]),\n",
      "   midi.NoteOnEvent(tick=0, channel=0, data=[69, 243]),\n",
      "   midi.NoteOffEvent(tick=1, channel=0, data=[117, 0]),\n",
      "   midi.NoteOnEvent(tick=3, channel=0, data=[72, 252]),\n",
      "   midi.NoteOffEvent(tick=1, channel=0, data=[40, 0]),\n",
      "   midi.NoteOnEvent(tick=1, channel=0, data=[2, 159]),\n",
      "   midi.NoteOnEvent(tick=0, channel=0, data=[60, 242]),\n",
      "   midi.NoteOnEvent(tick=2, channel=0, data=[97, 15]),\n",
      "   midi.NoteOnEvent(tick=4, channel=0, data=[46, 25]),\n",
      "   midi.NoteOnEvent(tick=1, channel=0, data=[85, 115]),\n",
      "   midi.NoteOnEvent(tick=0, channel=0, data=[4, 113]),\n",
      "   midi.NoteOnEvent(tick=1, channel=0, data=[81, 69]),\n",
      "   midi.NoteOnEvent(tick=4, channel=0, data=[49, 105]),\n",
      "   midi.NoteOnEvent(tick=0, channel=0, data=[91, 161]),\n",
      "   midi.NoteOffEvent(tick=2, channel=0, data=[6, 0]),\n",
      "   midi.NoteOnEvent(tick=0, channel=0, data=[126, 99]),\n",
      "   midi.NoteOnEvent(tick=1, channel=0, data=[25, 124]),\n",
      "   midi.NoteOnEvent(tick=3, channel=0, data=[13, 167]),\n",
      "   midi.NoteOnEvent(tick=1, channel=0, data=[86, 120]),\n",
      "   midi.NoteOnEvent(tick=2, channel=0, data=[9, 18]),\n",
      "   midi.NoteOnEvent(tick=1, channel=0, data=[34, 3]),\n",
      "   midi.NoteOnEvent(tick=1, channel=0, data=[73, 245]),\n",
      "   midi.NoteOnEvent(tick=1, channel=0, data=[9, 9]),\n",
      "   midi.NoteOnEvent(tick=0, channel=0, data=[84, 5]),\n",
      "   midi.NoteOnEvent(tick=0, channel=0, data=[49, 173]),\n",
      "   midi.NoteOnEvent(tick=1, channel=0, data=[99, 230]),\n",
      "   midi.NoteOnEvent(tick=2, channel=0, data=[69, 230]),\n",
      "   midi.NoteOffEvent(tick=1, channel=0, data=[14, 0]),\n",
      "   midi.NoteOffEvent(tick=1, channel=0, data=[66, 0]),\n",
      "   midi.NoteOnEvent(tick=2, channel=0, data=[92, 255]),\n",
      "   midi.NoteOnEvent(tick=2, channel=0, data=[101, 86]),\n",
      "   midi.NoteOnEvent(tick=1, channel=0, data=[65, 128]),\n",
      "   midi.NoteOnEvent(tick=5, channel=0, data=[113, 20]),\n",
      "   midi.NoteOnEvent(tick=1, channel=0, data=[44, 205]),\n",
      "   midi.NoteOffEvent(tick=2, channel=0, data=[123, 0]),\n",
      "   midi.NoteOnEvent(tick=0, channel=0, data=[42, 102]),\n",
      "   midi.NoteOnEvent(tick=0, channel=0, data=[86, 202]),\n",
      "   midi.NoteOnEvent(tick=2, channel=0, data=[15, 25]),\n",
      "   midi.NoteOnEvent(tick=5, channel=0, data=[51, 96]),\n",
      "   midi.NoteOnEvent(tick=1, channel=0, data=[7, 238]),\n",
      "   midi.NoteOnEvent(tick=2, channel=0, data=[0, 208]),\n",
      "   midi.NoteOnEvent(tick=0, channel=0, data=[111, 174]),\n",
      "   midi.NoteOnEvent(tick=1, channel=0, data=[122, 208]),\n",
      "   midi.NoteOnEvent(tick=3, channel=0, data=[35, 198]),\n",
      "   midi.NoteOffEvent(tick=7, channel=0, data=[109, 0]),\n",
      "   midi.NoteOnEvent(tick=2, channel=0, data=[100, 101]),\n",
      "   midi.NoteOffEvent(tick=7, channel=0, data=[90, 0]),\n",
      "   midi.NoteOffEvent(tick=16, channel=0, data=[19, 0]),\n",
      "   midi.NoteOffEvent(tick=0, channel=0, data=[124, 0]),\n",
      "   midi.NoteOffEvent(tick=15, channel=0, data=[76, 0]),\n",
      "   midi.NoteOffEvent(tick=4, channel=0, data=[59, 0]),\n",
      "   midi.NoteOffEvent(tick=3, channel=0, data=[116, 0]),\n",
      "   midi.NoteOffEvent(tick=7, channel=0, data=[17, 0]),\n",
      "   midi.NoteOffEvent(tick=3, channel=0, data=[28, 0]),\n",
      "   midi.NoteOffEvent(tick=2, channel=0, data=[10, 0]),\n",
      "   midi.NoteOffEvent(tick=13, channel=0, data=[18, 0]),\n",
      "   midi.NoteOffEvent(tick=5, channel=0, data=[111, 0]),\n",
      "   midi.NoteOffEvent(tick=9, channel=0, data=[41, 0]),\n",
      "   midi.NoteOffEvent(tick=7, channel=0, data=[60, 0]),\n",
      "   midi.NoteOffEvent(tick=6, channel=0, data=[92, 0]),\n",
      "   midi.NoteOffEvent(tick=2, channel=0, data=[24, 0]),\n",
      "   midi.NoteOffEvent(tick=28, channel=0, data=[8, 0]),\n",
      "   midi.NoteOffEvent(tick=6, channel=0, data=[21, 0]),\n",
      "   midi.NoteOffEvent(tick=4, channel=0, data=[26, 0]),\n",
      "   midi.NoteOffEvent(tick=3, channel=0, data=[101, 0]),\n",
      "   midi.NoteOffEvent(tick=3, channel=0, data=[75, 0]),\n",
      "   midi.NoteOffEvent(tick=9, channel=0, data=[70, 0]),\n",
      "   midi.NoteOffEvent(tick=41, channel=0, data=[127, 0]),\n",
      "   midi.NoteOffEvent(tick=8, channel=0, data=[4, 0]),\n",
      "   midi.NoteOffEvent(tick=5, channel=0, data=[25, 0]),\n",
      "   midi.NoteOffEvent(tick=20, channel=0, data=[108, 0]),\n",
      "   midi.NoteOffEvent(tick=3, channel=0, data=[23, 0]),\n",
      "   midi.NoteOffEvent(tick=11, channel=0, data=[54, 0]),\n",
      "   midi.NoteOffEvent(tick=23, channel=0, data=[5, 0]),\n",
      "   midi.NoteOffEvent(tick=12, channel=0, data=[52, 0]),\n",
      "   midi.NoteOffEvent(tick=8, channel=0, data=[35, 0]),\n",
      "   midi.NoteOffEvent(tick=1, channel=0, data=[106, 0]),\n",
      "   midi.NoteOffEvent(tick=3, channel=0, data=[9, 0]),\n",
      "   midi.NoteOffEvent(tick=11, channel=0, data=[13, 0]),\n",
      "   midi.NoteOffEvent(tick=7, channel=0, data=[31, 0]),\n",
      "   midi.NoteOffEvent(tick=9, channel=0, data=[2, 0]),\n",
      "   midi.NoteOffEvent(tick=0, channel=0, data=[113, 0]),\n",
      "   midi.NoteOffEvent(tick=1, channel=0, data=[73, 0]),\n",
      "   midi.NoteOffEvent(tick=1, channel=0, data=[22, 0]),\n",
      "   midi.NoteOffEvent(tick=1, channel=0, data=[115, 0]),\n",
      "   midi.NoteOffEvent(tick=2, channel=0, data=[37, 0]),\n",
      "   midi.NoteOffEvent(tick=0, channel=0, data=[42, 0]),\n",
      "   midi.NoteOffEvent(tick=6, channel=0, data=[47, 0]),\n",
      "   midi.NoteOffEvent(tick=14, channel=0, data=[62, 0]),\n",
      "   midi.NoteOffEvent(tick=9, channel=0, data=[38, 0]),\n",
      "   midi.NoteOffEvent(tick=15, channel=0, data=[53, 0]),\n",
      "   midi.NoteOffEvent(tick=5, channel=0, data=[16, 0]),\n",
      "   midi.NoteOffEvent(tick=21, channel=0, data=[126, 0]),\n",
      "   midi.NoteOffEvent(tick=3, channel=0, data=[83, 0]),\n",
      "   midi.NoteOffEvent(tick=2, channel=0, data=[81, 0]),\n",
      "   midi.NoteOffEvent(tick=3, channel=0, data=[43, 0]),\n",
      "   midi.NoteOffEvent(tick=9, channel=0, data=[84, 0]),\n",
      "   midi.NoteOffEvent(tick=8, channel=0, data=[98, 0]),\n",
      "   midi.NoteOffEvent(tick=2, channel=0, data=[64, 0]),\n",
      "   midi.NoteOffEvent(tick=11, channel=0, data=[56, 0]),\n",
      "   midi.NoteOffEvent(tick=12, channel=0, data=[103, 0]),\n",
      "   midi.NoteOffEvent(tick=3, channel=0, data=[34, 0]),\n",
      "   midi.NoteOffEvent(tick=2, channel=0, data=[33, 0]),\n",
      "   midi.NoteOffEvent(tick=3, channel=0, data=[94, 0]),\n",
      "   midi.NoteOffEvent(tick=1, channel=0, data=[86, 0]),\n",
      "   midi.NoteOffEvent(tick=21, channel=0, data=[114, 0]),\n",
      "   midi.NoteOffEvent(tick=10, channel=0, data=[80, 0]),\n",
      "   midi.NoteOffEvent(tick=4, channel=0, data=[27, 0]),\n",
      "   midi.NoteOffEvent(tick=1, channel=0, data=[44, 0]),\n",
      "   midi.NoteOffEvent(tick=6, channel=0, data=[125, 0]),\n",
      "   midi.NoteOffEvent(tick=5, channel=0, data=[119, 0]),\n",
      "   midi.NoteOffEvent(tick=7, channel=0, data=[96, 0]),\n",
      "   midi.NoteOffEvent(tick=4, channel=0, data=[15, 0]),\n",
      "   midi.NoteOffEvent(tick=6, channel=0, data=[69, 0]),\n",
      "   midi.NoteOffEvent(tick=8, channel=0, data=[122, 0]),\n",
      "   midi.NoteOffEvent(tick=3, channel=0, data=[51, 0]),\n",
      "   midi.NoteOffEvent(tick=2, channel=0, data=[50, 0]),\n",
      "   midi.NoteOffEvent(tick=48, channel=0, data=[7, 0]),\n",
      "   midi.NoteOffEvent(tick=6, channel=0, data=[99, 0]),\n",
      "   midi.NoteOffEvent(tick=5, channel=0, data=[55, 0]),\n",
      "   midi.NoteOffEvent(tick=8, channel=0, data=[67, 0]),\n",
      "   midi.NoteOffEvent(tick=1, channel=0, data=[39, 0]),\n",
      "   midi.NoteOffEvent(tick=3, channel=0, data=[93, 0]),\n",
      "   midi.NoteOffEvent(tick=1, channel=0, data=[120, 0]),\n",
      "   midi.NoteOffEvent(tick=19, channel=0, data=[74, 0]),\n",
      "   midi.NoteOffEvent(tick=3, channel=0, data=[121, 0]),\n",
      "   midi.NoteOffEvent(tick=7, channel=0, data=[110, 0]),\n",
      "   midi.NoteOffEvent(tick=6, channel=0, data=[102, 0]),\n",
      "   midi.NoteOffEvent(tick=8, channel=0, data=[61, 0]),\n",
      "   midi.NoteOffEvent(tick=2, channel=0, data=[48, 0]),\n",
      "   midi.NoteOffEvent(tick=11, channel=0, data=[3, 0]),\n",
      "   midi.NoteOffEvent(tick=2, channel=0, data=[105, 0]),\n",
      "   midi.NoteOffEvent(tick=20, channel=0, data=[88, 0]),\n",
      "   midi.NoteOffEvent(tick=5, channel=0, data=[46, 0]),\n",
      "   midi.NoteOffEvent(tick=8, channel=0, data=[85, 0]),\n",
      "   midi.NoteOffEvent(tick=34, channel=0, data=[68, 0]),\n",
      "   midi.NoteOffEvent(tick=58, channel=0, data=[91, 0]),\n",
      "   midi.NoteOffEvent(tick=21, channel=0, data=[0, 0]),\n",
      "   midi.NoteOffEvent(tick=18, channel=0, data=[20, 0]),\n",
      "   midi.NoteOffEvent(tick=0, channel=0, data=[97, 0]),\n",
      "   midi.NoteOffEvent(tick=28, channel=0, data=[65, 0]),\n",
      "   midi.NoteOffEvent(tick=13, channel=0, data=[49, 0]),\n",
      "   midi.NoteOffEvent(tick=53, channel=0, data=[72, 0]),\n",
      "   midi.NoteOffEvent(tick=37, channel=0, data=[100, 0]),\n",
      "   midi.EndOfTrackEvent(tick=0, data=[])]),\n",
      " midi.Track(\\\n",
      "  [midi.SetTempoEvent(tick=0, data=[4, 147, 224]),\n",
      "   midi.ProgramChangeEvent(tick=0, channel=0, data=[36]),\n",
      "   midi.NoteOnEvent(tick=0, channel=0, data=[65, 194]),\n",
      "   midi.NoteOnEvent(tick=0, channel=0, data=[78, 77]),\n",
      "   midi.NoteOnEvent(tick=0, channel=0, data=[62, 169]),\n",
      "   midi.NoteOnEvent(tick=1, channel=0, data=[95, 222]),\n",
      "   midi.NoteOnEvent(tick=1, channel=0, data=[97, 213]),\n",
      "   midi.NoteOnEvent(tick=0, channel=0, data=[88, 67]),\n",
      "   midi.NoteOnEvent(tick=1, channel=0, data=[43, 246]),\n",
      "   midi.NoteOnEvent(tick=4, channel=0, data=[106, 7]),\n",
      "   midi.NoteOnEvent(tick=6, channel=0, data=[55, 158]),\n",
      "   midi.NoteOnEvent(tick=1, channel=0, data=[85, 106]),\n",
      "   midi.NoteOnEvent(tick=3, channel=0, data=[25, 92]),\n",
      "   midi.NoteOnEvent(tick=0, channel=0, data=[18, 26]),\n",
      "   midi.NoteOnEvent(tick=1, channel=0, data=[86, 29]),\n",
      "   midi.NoteOnEvent(tick=3, channel=0, data=[107, 34]),\n",
      "   midi.NoteOnEvent(tick=1, channel=0, data=[111, 91]),\n",
      "   midi.NoteOnEvent(tick=2, channel=0, data=[109, 229]),\n",
      "   midi.NoteOnEvent(tick=4, channel=0, data=[58, 90]),\n",
      "   midi.NoteOnEvent(tick=1, channel=0, data=[75, 164]),\n",
      "   midi.NoteOnEvent(tick=0, channel=0, data=[74, 154]),\n",
      "   midi.NoteOnEvent(tick=3, channel=0, data=[83, 154]),\n",
      "   midi.NoteOnEvent(tick=2, channel=0, data=[115, 195]),\n",
      "   midi.NoteOnEvent(tick=1, channel=0, data=[55, 236]),\n",
      "   midi.NoteOnEvent(tick=1, channel=0, data=[68, 247]),\n",
      "   midi.NoteOnEvent(tick=1, channel=0, data=[75, 19]),\n",
      "   midi.NoteOnEvent(tick=5, channel=0, data=[55, 172]),\n",
      "   midi.NoteOnEvent(tick=3, channel=0, data=[5, 201]),\n",
      "   midi.NoteOnEvent(tick=1, channel=0, data=[79, 83]),\n",
      "   midi.NoteOnEvent(tick=2, channel=0, data=[18, 36]),\n",
      "   midi.NoteOnEvent(tick=8, channel=0, data=[39, 133]),\n",
      "   midi.NoteOnEvent(tick=3, channel=0, data=[30, 168]),\n",
      "   midi.NoteOnEvent(tick=2, channel=0, data=[31, 179]),\n",
      "   midi.NoteOnEvent(tick=5, channel=0, data=[15, 114]),\n",
      "   midi.NoteOnEvent(tick=2, channel=0, data=[115, 228]),\n",
      "   midi.NoteOnEvent(tick=1, channel=0, data=[64, 218]),\n",
      "   midi.NoteOnEvent(tick=0, channel=0, data=[48, 86]),\n",
      "   midi.NoteOnEvent(tick=1, channel=0, data=[112, 149]),\n",
      "   midi.NoteOnEvent(tick=0, channel=0, data=[34, 77]),\n",
      "   midi.NoteOffEvent(tick=2, channel=0, data=[25, 0]),\n",
      "   midi.NoteOnEvent(tick=0, channel=0, data=[73, 252]),\n",
      "   midi.NoteOnEvent(tick=0, channel=0, data=[111, 210]),\n",
      "   midi.NoteOffEvent(tick=1, channel=0, data=[5, 0]),\n",
      "   midi.NoteOnEvent(tick=0, channel=0, data=[32, 61]),\n",
      "   midi.NoteOnEvent(tick=1, channel=0, data=[10, 94]),\n",
      "   midi.NoteOffEvent(tick=5, channel=0, data=[62, 0]),\n",
      "   midi.NoteOnEvent(tick=3, channel=0, data=[42, 146]),\n",
      "   midi.NoteOnEvent(tick=4, channel=0, data=[67, 5]),\n",
      "   midi.NoteOnEvent(tick=1, channel=0, data=[65, 166]),\n",
      "   midi.NoteOnEvent(tick=0, channel=0, data=[119, 192]),\n",
      "   midi.NoteOnEvent(tick=4, channel=0, data=[72, 89]),\n",
      "   midi.NoteOnEvent(tick=2, channel=0, data=[53, 32]),\n",
      "   midi.NoteOnEvent(tick=0, channel=0, data=[70, 145]),\n",
      "   midi.NoteOnEvent(tick=1, channel=0, data=[110, 172]),\n",
      "   midi.NoteOnEvent(tick=3, channel=0, data=[105, 11]),\n",
      "   midi.NoteOnEvent(tick=1, channel=0, data=[19, 202]),\n",
      "   midi.NoteOnEvent(tick=3, channel=0, data=[78, 212]),\n",
      "   midi.NoteOnEvent(tick=3, channel=0, data=[94, 227]),\n",
      "   midi.NoteOnEvent(tick=0, channel=0, data=[15, 31]),\n",
      "   midi.NoteOnEvent(tick=1, channel=0, data=[119, 174]),\n",
      "   midi.NoteOnEvent(tick=1, channel=0, data=[0, 84]),\n",
      "   midi.NoteOnEvent(tick=1, channel=0, data=[118, 204]),\n",
      "   midi.NoteOnEvent(tick=3, channel=0, data=[106, 52]),\n",
      "   midi.NoteOnEvent(tick=0, channel=0, data=[48, 80]),\n",
      "   midi.NoteOnEvent(tick=0, channel=0, data=[80, 157]),\n",
      "   midi.NoteOffEvent(tick=2, channel=0, data=[86, 0]),\n",
      "   midi.NoteOnEvent(tick=6, channel=0, data=[121, 148]),\n",
      "   midi.NoteOnEvent(tick=0, channel=0, data=[29, 84]),\n",
      "   midi.NoteOnEvent(tick=4, channel=0, data=[78, 127]),\n",
      "   midi.NoteOnEvent(tick=0, channel=0, data=[7, 120]),\n",
      "   midi.NoteOnEvent(tick=0, channel=0, data=[45, 104]),\n",
      "   midi.NoteOnEvent(tick=1, channel=0, data=[57, 206]),\n",
      "   midi.NoteOnEvent(tick=0, channel=0, data=[38, 165]),\n",
      "   midi.NoteOnEvent(tick=1, channel=0, data=[75, 105]),\n",
      "   midi.NoteOnEvent(tick=0, channel=0, data=[126, 59]),\n",
      "   midi.NoteOnEvent(tick=12, channel=0, data=[66, 67]),\n",
      "   midi.NoteOnEvent(tick=1, channel=0, data=[11, 178]),\n",
      "   midi.NoteOnEvent(tick=0, channel=0, data=[22, 157]),\n",
      "   midi.NoteOnEvent(tick=1, channel=0, data=[51, 65]),\n",
      "   midi.NoteOnEvent(tick=0, channel=0, data=[122, 228]),\n",
      "   midi.NoteOnEvent(tick=2, channel=0, data=[62, 158]),\n",
      "   midi.NoteOnEvent(tick=1, channel=0, data=[99, 223]),\n",
      "   midi.NoteOnEvent(tick=1, channel=0, data=[95, 5]),\n",
      "   midi.NoteOnEvent(tick=2, channel=0, data=[60, 1]),\n",
      "   midi.NoteOnEvent(tick=6, channel=0, data=[91, 162]),\n",
      "   midi.NoteOnEvent(tick=3, channel=0, data=[34, 10]),\n",
      "   midi.NoteOnEvent(tick=2, channel=0, data=[120, 251]),\n",
      "   midi.NoteOnEvent(tick=1, channel=0, data=[50, 84]),\n",
      "   midi.NoteOnEvent(tick=1, channel=0, data=[98, 21]),\n",
      "   midi.NoteOnEvent(tick=1, channel=0, data=[1, 108]),\n",
      "   midi.NoteOnEvent(tick=1, channel=0, data=[84, 131]),\n",
      "   midi.NoteOnEvent(tick=1, channel=0, data=[17, 48]),\n",
      "   midi.NoteOnEvent(tick=1, channel=0, data=[83, 165]),\n",
      "   midi.NoteOnEvent(tick=2, channel=0, data=[24, 47]),\n",
      "   midi.NoteOnEvent(tick=2, channel=0, data=[98, 235]),\n",
      "   midi.NoteOnEvent(tick=2, channel=0, data=[9, 112]),\n",
      "   midi.NoteOnEvent(tick=3, channel=0, data=[86, 29]),\n",
      "   midi.NoteOnEvent(tick=1, channel=0, data=[56, 61]),\n",
      "   midi.NoteOnEvent(tick=0, channel=0, data=[20, 4]),\n",
      "   midi.NoteOnEvent(tick=1, channel=0, data=[78, 247]),\n",
      "   midi.NoteOnEvent(tick=1, channel=0, data=[104, 204]),\n",
      "   midi.NoteOnEvent(tick=5, channel=0, data=[22, 35]),\n",
      "   midi.NoteOnEvent(tick=0, channel=0, data=[61, 219]),\n",
      "   midi.NoteOffEvent(tick=4, channel=0, data=[112, 0]),\n",
      "   midi.NoteOffEvent(tick=1, channel=0, data=[91, 0]),\n",
      "   midi.NoteOnEvent(tick=2, channel=0, data=[23, 225]),\n",
      "   midi.NoteOnEvent(tick=8, channel=0, data=[109, 152]),\n",
      "   midi.NoteOnEvent(tick=3, channel=0, data=[99, 154]),\n",
      "   midi.NoteOnEvent(tick=1, channel=0, data=[87, 2]),\n",
      "   midi.NoteOnEvent(tick=2, channel=0, data=[49, 131]),\n",
      "   midi.NoteOnEvent(tick=2, channel=0, data=[56, 112]),\n",
      "   midi.NoteOnEvent(tick=1, channel=0, data=[2, 239]),\n",
      "   midi.NoteOnEvent(tick=3, channel=0, data=[108, 161]),\n",
      "   midi.NoteOffEvent(tick=1, channel=0, data=[56, 0]),\n",
      "   midi.NoteOnEvent(tick=0, channel=0, data=[60, 121]),\n",
      "   midi.NoteOnEvent(tick=0, channel=0, data=[24, 152]),\n",
      "   midi.NoteOnEvent(tick=3, channel=0, data=[41, 143]),\n",
      "   midi.NoteOnEvent(tick=0, channel=0, data=[78, 2]),\n",
      "   midi.NoteOnEvent(tick=2, channel=0, data=[106, 30]),\n",
      "   midi.NoteOnEvent(tick=0, channel=0, data=[16, 35]),\n",
      "   midi.NoteOnEvent(tick=6, channel=0, data=[17, 210]),\n",
      "   midi.NoteOnEvent(tick=1, channel=0, data=[98, 159]),\n",
      "   midi.NoteOffEvent(tick=2, channel=0, data=[94, 0]),\n",
      "   midi.NoteOnEvent(tick=0, channel=0, data=[55, 95]),\n",
      "   midi.NoteOffEvent(tick=1, channel=0, data=[38, 0]),\n",
      "   midi.NoteOnEvent(tick=0, channel=0, data=[108, 253]),\n",
      "   midi.NoteOnEvent(tick=2, channel=0, data=[89, 230]),\n",
      "   midi.NoteOffEvent(tick=4, channel=0, data=[79, 0]),\n",
      "   midi.NoteOnEvent(tick=0, channel=0, data=[4, 105]),\n",
      "   midi.NoteOnEvent(tick=0, channel=0, data=[109, 149]),\n",
      "   midi.NoteOnEvent(tick=4, channel=0, data=[17, 183]),\n",
      "   midi.NoteOffEvent(tick=8, channel=0, data=[18, 0]),\n",
      "   midi.NoteOnEvent(tick=0, channel=0, data=[102, 171]),\n",
      "   midi.NoteOnEvent(tick=1, channel=0, data=[69, 143]),\n",
      "   midi.NoteOnEvent(tick=6, channel=0, data=[97, 101]),\n",
      "   midi.NoteOnEvent(tick=0, channel=0, data=[41, 122]),\n",
      "   midi.NoteOnEvent(tick=5, channel=0, data=[108, 109]),\n",
      "   midi.NoteOnEvent(tick=3, channel=0, data=[13, 153]),\n",
      "   midi.NoteOnEvent(tick=3, channel=0, data=[25, 245]),\n",
      "   midi.NoteOffEvent(tick=4, channel=0, data=[102, 0]),\n",
      "   midi.NoteOffEvent(tick=3, channel=0, data=[107, 0]),\n",
      "   midi.NoteOnEvent(tick=0, channel=0, data=[69, 213]),\n",
      "   midi.NoteOnEvent(tick=2, channel=0, data=[76, 78]),\n",
      "   midi.NoteOffEvent(tick=4, channel=0, data=[7, 0]),\n",
      "   midi.NoteOnEvent(tick=1, channel=0, data=[6, 135]),\n",
      "   midi.NoteOnEvent(tick=3, channel=0, data=[0, 133]),\n",
      "   midi.NoteOnEvent(tick=7, channel=0, data=[13, 49]),\n",
      "   midi.NoteOnEvent(tick=1, channel=0, data=[16, 189]),\n",
      "   midi.NoteOnEvent(tick=2, channel=0, data=[108, 144]),\n",
      "   midi.NoteOnEvent(tick=5, channel=0, data=[113, 21]),\n",
      "   midi.NoteOnEvent(tick=0, channel=0, data=[86, 215]),\n",
      "   midi.NoteOnEvent(tick=1, channel=0, data=[65, 189]),\n",
      "   midi.NoteOnEvent(tick=5, channel=0, data=[47, 235]),\n",
      "   midi.NoteOnEvent(tick=7, channel=0, data=[6, 144]),\n",
      "   midi.NoteOffEvent(tick=2, channel=0, data=[64, 0]),\n",
      "   midi.NoteOnEvent(tick=4, channel=0, data=[58, 163]),\n",
      "   midi.NoteOnEvent(tick=1, channel=0, data=[17, 183]),\n",
      "   midi.NoteOnEvent(tick=1, channel=0, data=[15, 123]),\n",
      "   midi.NoteOnEvent(tick=1, channel=0, data=[102, 127]),\n",
      "   midi.NoteOffEvent(tick=3, channel=0, data=[42, 0]),\n",
      "   midi.NoteOnEvent(tick=7, channel=0, data=[31, 15]),\n",
      "   midi.NoteOffEvent(tick=3, channel=0, data=[97, 0]),\n",
      "   midi.NoteOnEvent(tick=1, channel=0, data=[109, 36]),\n",
      "   midi.NoteOnEvent(tick=2, channel=0, data=[30, 110]),\n",
      "   midi.NoteOnEvent(tick=1, channel=0, data=[110, 144]),\n",
      "   midi.NoteOffEvent(tick=2, channel=0, data=[43, 0]),\n",
      "   midi.NoteOnEvent(tick=0, channel=0, data=[120, 127]),\n",
      "   midi.NoteOnEvent(tick=2, channel=0, data=[20, 180]),\n",
      "   midi.NoteOnEvent(tick=0, channel=0, data=[77, 85]),\n",
      "   midi.NoteOnEvent(tick=3, channel=0, data=[62, 25]),\n",
      "   midi.NoteOnEvent(tick=2, channel=0, data=[14, 245]),\n",
      "   midi.NoteOnEvent(tick=2, channel=0, data=[42, 19]),\n",
      "   midi.NoteOnEvent(tick=0, channel=0, data=[87, 70]),\n",
      "   midi.NoteOnEvent(tick=2, channel=0, data=[72, 222]),\n",
      "   midi.NoteOnEvent(tick=0, channel=0, data=[29, 8]),\n",
      "   midi.NoteOffEvent(tick=1, channel=0, data=[98, 0]),\n",
      "   midi.NoteOnEvent(tick=2, channel=0, data=[113, 160]),\n",
      "   midi.NoteOnEvent(tick=6, channel=0, data=[31, 193]),\n",
      "   midi.NoteOffEvent(tick=2, channel=0, data=[77, 0]),\n",
      "   midi.NoteOnEvent(tick=0, channel=0, data=[66, 77]),\n",
      "   midi.NoteOnEvent(tick=1, channel=0, data=[28, 164]),\n",
      "   midi.NoteOnEvent(tick=1, channel=0, data=[56, 57]),\n",
      "   midi.NoteOnEvent(tick=1, channel=0, data=[112, 47]),\n",
      "   midi.NoteOnEvent(tick=1, channel=0, data=[76, 114]),\n",
      "   midi.NoteOnEvent(tick=1, channel=0, data=[93, 212]),\n",
      "   midi.NoteOnEvent(tick=1, channel=0, data=[34, 245]),\n",
      "   midi.NoteOnEvent(tick=1, channel=0, data=[43, 125]),\n",
      "   midi.NoteOnEvent(tick=0, channel=0, data=[124, 62]),\n",
      "   midi.NoteOnEvent(tick=3, channel=0, data=[57, 61]),\n",
      "   midi.NoteOnEvent(tick=0, channel=0, data=[1, 148]),\n",
      "   midi.NoteOffEvent(tick=1, channel=0, data=[11, 0]),\n",
      "   midi.NoteOffEvent(tick=0, channel=0, data=[66, 0]),\n",
      "   midi.NoteOnEvent(tick=0, channel=0, data=[43, 190]),\n",
      "   midi.NoteOnEvent(tick=2, channel=0, data=[23, 232]),\n",
      "   midi.NoteOnEvent(tick=2, channel=0, data=[37, 205]),\n",
      "   midi.NoteOnEvent(tick=0, channel=0, data=[102, 60]),\n",
      "   midi.NoteOnEvent(tick=1, channel=0, data=[117, 31]),\n",
      "   midi.NoteOffEvent(tick=5, channel=0, data=[62, 0]),\n",
      "   midi.NoteOnEvent(tick=0, channel=0, data=[51, 229]),\n",
      "   midi.NoteOnEvent(tick=4, channel=0, data=[25, 76]),\n",
      "   midi.NoteOnEvent(tick=0, channel=0, data=[52, 136]),\n",
      "   midi.NoteOnEvent(tick=0, channel=0, data=[121, 175]),\n",
      "   midi.NoteOnEvent(tick=0, channel=0, data=[75, 253]),\n",
      "   midi.NoteOnEvent(tick=1, channel=0, data=[99, 90]),\n",
      "   midi.NoteOnEvent(tick=6, channel=0, data=[7, 163]),\n",
      "   midi.NoteOffEvent(tick=7, channel=0, data=[52, 0]),\n",
      "   midi.NoteOnEvent(tick=2, channel=0, data=[81, 126]),\n",
      "   midi.NoteOnEvent(tick=0, channel=0, data=[27, 37]),\n",
      "   midi.NoteOnEvent(tick=3, channel=0, data=[58, 169]),\n",
      "   midi.NoteOnEvent(tick=0, channel=0, data=[117, 158]),\n",
      "   midi.NoteOnEvent(tick=0, channel=0, data=[104, 125]),\n",
      "   midi.NoteOnEvent(tick=5, channel=0, data=[109, 115]),\n",
      "   midi.NoteOnEvent(tick=0, channel=0, data=[18, 230]),\n",
      "   midi.NoteOnEvent(tick=1, channel=0, data=[4, 100]),\n",
      "   midi.NoteOffEvent(tick=1, channel=0, data=[48, 0]),\n",
      "   midi.NoteOnEvent(tick=0, channel=0, data=[45, 81]),\n",
      "   midi.NoteOnEvent(tick=2, channel=0, data=[126, 110]),\n",
      "   midi.NoteOnEvent(tick=0, channel=0, data=[35, 158]),\n",
      "   midi.NoteOnEvent(tick=1, channel=0, data=[52, 187]),\n",
      "   midi.NoteOnEvent(tick=0, channel=0, data=[74, 182]),\n",
      "   midi.NoteOffEvent(tick=2, channel=0, data=[88, 0]),\n",
      "   midi.NoteOnEvent(tick=0, channel=0, data=[11, 155]),\n",
      "   midi.NoteOnEvent(tick=3, channel=0, data=[3, 28]),\n",
      "   midi.NoteOnEvent(tick=7, channel=0, data=[67, 247]),\n",
      "   midi.NoteOnEvent(tick=1, channel=0, data=[92, 248]),\n",
      "   midi.NoteOnEvent(tick=0, channel=0, data=[78, 148]),\n",
      "   midi.NoteOnEvent(tick=1, channel=0, data=[29, 4]),\n",
      "   midi.NoteOnEvent(tick=2, channel=0, data=[70, 82]),\n",
      "   midi.NoteOnEvent(tick=0, channel=0, data=[92, 85]),\n",
      "   midi.NoteOnEvent(tick=1, channel=0, data=[86, 54]),\n",
      "   midi.NoteOffEvent(tick=4, channel=0, data=[57, 0]),\n",
      "   midi.NoteOnEvent(tick=0, channel=0, data=[114, 112]),\n",
      "   midi.NoteOnEvent(tick=1, channel=0, data=[62, 89]),\n",
      "   midi.NoteOnEvent(tick=0, channel=0, data=[92, 106]),\n",
      "   midi.NoteOnEvent(tick=0, channel=0, data=[4, 111]),\n",
      "   midi.NoteOnEvent(tick=1, channel=0, data=[73, 153]),\n",
      "   midi.NoteOnEvent(tick=1, channel=0, data=[104, 120]),\n",
      "   midi.NoteOnEvent(tick=0, channel=0, data=[109, 96]),\n",
      "   midi.NoteOnEvent(tick=0, channel=0, data=[127, 75]),\n",
      "   midi.NoteOnEvent(tick=1, channel=0, data=[116, 103]),\n",
      "   midi.NoteOnEvent(tick=0, channel=0, data=[47, 117]),\n",
      "   midi.NoteOnEvent(tick=1, channel=0, data=[78, 241]),\n",
      "   midi.NoteOnEvent(tick=0, channel=0, data=[82, 40]),\n",
      "   midi.NoteOnEvent(tick=1, channel=0, data=[42, 117]),\n",
      "   midi.NoteOnEvent(tick=4, channel=0, data=[3, 199]),\n",
      "   midi.NoteOnEvent(tick=2, channel=0, data=[89, 189]),\n",
      "   midi.NoteOnEvent(tick=1, channel=0, data=[24, 219]),\n",
      "   midi.NoteOnEvent(tick=1, channel=0, data=[90, 81]),\n",
      "   midi.NoteOnEvent(tick=1, channel=0, data=[37, 39]),\n",
      "   midi.NoteOnEvent(tick=0, channel=0, data=[66, 2]),\n",
      "   midi.NoteOnEvent(tick=2, channel=0, data=[16, 22]),\n",
      "   midi.NoteOnEvent(tick=0, channel=0, data=[48, 0]),\n",
      "   midi.NoteOnEvent(tick=1, channel=0, data=[124, 34]),\n",
      "   midi.NoteOnEvent(tick=3, channel=0, data=[14, 77]),\n",
      "   midi.NoteOnEvent(tick=1, channel=0, data=[94, 244]),\n",
      "   midi.NoteOnEvent(tick=1, channel=0, data=[72, 64]),\n",
      "   midi.NoteOffEvent(tick=1, channel=0, data=[52, 0]),\n",
      "   midi.NoteOnEvent(tick=1, channel=0, data=[98, 169]),\n",
      "   midi.NoteOnEvent(tick=2, channel=0, data=[73, 214]),\n",
      "   midi.NoteOnEvent(tick=2, channel=0, data=[29, 205]),\n",
      "   midi.NoteOnEvent(tick=1, channel=0, data=[65, 81]),\n",
      "   midi.NoteOnEvent(tick=1, channel=0, data=[27, 206]),\n",
      "   midi.NoteOnEvent(tick=1, channel=0, data=[7, 56]),\n",
      "   midi.NoteOffEvent(tick=1, channel=0, data=[0, 0]),\n",
      "   midi.NoteOffEvent(tick=0, channel=0, data=[47, 0]),\n",
      "   midi.NoteOnEvent(tick=0, channel=0, data=[123, 157]),\n",
      "   midi.NoteOffEvent(tick=3, channel=0, data=[109, 0]),\n",
      "   midi.NoteOffEvent(tick=0, channel=0, data=[113, 0]),\n",
      "   midi.NoteOffEvent(tick=4, channel=0, data=[99, 0]),\n",
      "   midi.NoteOnEvent(tick=0, channel=0, data=[103, 12]),\n",
      "   midi.NoteOffEvent(tick=2, channel=0, data=[73, 0]),\n",
      "   midi.NoteOnEvent(tick=4, channel=0, data=[8, 198]),\n",
      "   midi.NoteOnEvent(tick=2, channel=0, data=[90, 62]),\n",
      "   midi.NoteOnEvent(tick=3, channel=0, data=[53, 224]),\n",
      "   midi.NoteOnEvent(tick=2, channel=0, data=[27, 16]),\n",
      "   midi.NoteOnEvent(tick=4, channel=0, data=[20, 34]),\n",
      "   midi.NoteOnEvent(tick=6, channel=0, data=[108, 135]),\n",
      "   midi.NoteOffEvent(tick=1, channel=0, data=[75, 0]),\n",
      "   midi.NoteOnEvent(tick=0, channel=0, data=[16, 80]),\n",
      "   midi.NoteOffEvent(tick=1, channel=0, data=[25, 0]),\n",
      "   midi.NoteOnEvent(tick=3, channel=0, data=[71, 49]),\n",
      "   midi.NoteOnEvent(tick=1, channel=0, data=[35, 215]),\n",
      "   midi.NoteOnEvent(tick=1, channel=0, data=[21, 170]),\n",
      "   midi.NoteOnEvent(tick=0, channel=0, data=[85, 128]),\n",
      "   midi.NoteOnEvent(tick=1, channel=0, data=[91, 30]),\n",
      "   midi.NoteOnEvent(tick=1, channel=0, data=[15, 31]),\n",
      "   midi.NoteOnEvent(tick=1, channel=0, data=[93, 6]),\n",
      "   midi.NoteOffEvent(tick=1, channel=0, data=[3, 0]),\n",
      "   midi.NoteOnEvent(tick=1, channel=0, data=[78, 177]),\n",
      "   midi.NoteOnEvent(tick=0, channel=0, data=[78, 169]),\n",
      "   midi.NoteOnEvent(tick=1, channel=0, data=[115, 69]),\n",
      "   midi.NoteOnEvent(tick=2, channel=0, data=[96, 155]),\n",
      "   midi.NoteOnEvent(tick=1, channel=0, data=[127, 248]),\n",
      "   midi.NoteOnEvent(tick=3, channel=0, data=[115, 68]),\n",
      "   midi.NoteOnEvent(tick=2, channel=0, data=[23, 92]),\n",
      "   midi.NoteOnEvent(tick=1, channel=0, data=[58, 82]),\n",
      "   midi.NoteOnEvent(tick=1, channel=0, data=[63, 101]),\n",
      "   midi.NoteOnEvent(tick=1, channel=0, data=[34, 101]),\n",
      "   midi.NoteOnEvent(tick=1, channel=0, data=[126, 14]),\n",
      "   midi.NoteOffEvent(tick=1, channel=0, data=[121, 0]),\n",
      "   midi.NoteOnEvent(tick=1, channel=0, data=[5, 160]),\n",
      "   midi.NoteOffEvent(tick=1, channel=0, data=[30, 0]),\n",
      "   midi.NoteOnEvent(tick=1, channel=0, data=[7, 66]),\n",
      "   midi.NoteOnEvent(tick=1, channel=0, data=[29, 252]),\n",
      "   midi.NoteOffEvent(tick=1, channel=0, data=[43, 0]),\n",
      "   midi.NoteOnEvent(tick=1, channel=0, data=[79, 103]),\n",
      "   midi.NoteOnEvent(tick=3, channel=0, data=[41, 119]),\n",
      "   midi.NoteOnEvent(tick=1, channel=0, data=[91, 212]),\n",
      "   midi.NoteOnEvent(tick=5, channel=0, data=[100, 222]),\n",
      "   midi.NoteOffEvent(tick=1, channel=0, data=[114, 0]),\n",
      "   midi.NoteOnEvent(tick=3, channel=0, data=[46, 49]),\n",
      "   midi.NoteOnEvent(tick=0, channel=0, data=[30, 216]),\n",
      "   midi.NoteOnEvent(tick=4, channel=0, data=[109, 165]),\n",
      "   midi.NoteOnEvent(tick=1, channel=0, data=[113, 185]),\n",
      "   midi.NoteOffEvent(tick=1, channel=0, data=[96, 0]),\n",
      "   midi.NoteOffEvent(tick=2, channel=0, data=[70, 0]),\n",
      "   midi.NoteOnEvent(tick=1, channel=0, data=[101, 144]),\n",
      "   midi.NoteOnEvent(tick=5, channel=0, data=[40, 209]),\n",
      "   midi.NoteOnEvent(tick=1, channel=0, data=[98, 133]),\n",
      "   midi.NoteOnEvent(tick=1, channel=0, data=[64, 215]),\n",
      "   midi.NoteOnEvent(tick=1, channel=0, data=[94, 14]),\n",
      "   midi.NoteOnEvent(tick=0, channel=0, data=[53, 242]),\n",
      "   midi.NoteOnEvent(tick=2, channel=0, data=[30, 176]),\n",
      "   midi.NoteOnEvent(tick=2, channel=0, data=[5, 88]),\n",
      "   midi.NoteOnEvent(tick=0, channel=0, data=[117, 25]),\n",
      "   midi.NoteOnEvent(tick=1, channel=0, data=[90, 233]),\n",
      "   midi.NoteOnEvent(tick=2, channel=0, data=[15, 222]),\n",
      "   midi.NoteOnEvent(tick=0, channel=0, data=[59, 107]),\n",
      "   midi.NoteOnEvent(tick=2, channel=0, data=[77, 97]),\n",
      "   midi.NoteOnEvent(tick=2, channel=0, data=[12, 135]),\n",
      "   midi.NoteOnEvent(tick=2, channel=0, data=[29, 229]),\n",
      "   midi.NoteOnEvent(tick=0, channel=0, data=[67, 4]),\n",
      "   midi.NoteOnEvent(tick=0, channel=0, data=[11, 103]),\n",
      "   midi.NoteOnEvent(tick=2, channel=0, data=[14, 187]),\n",
      "   midi.NoteOnEvent(tick=1, channel=0, data=[63, 226]),\n",
      "   midi.NoteOnEvent(tick=0, channel=0, data=[14, 252]),\n",
      "   midi.NoteOnEvent(tick=0, channel=0, data=[113, 221]),\n",
      "   midi.NoteOffEvent(tick=2, channel=0, data=[63, 0]),\n",
      "   midi.NoteOnEvent(tick=0, channel=0, data=[20, 62]),\n",
      "   midi.NoteOnEvent(tick=0, channel=0, data=[36, 100]),\n",
      "   midi.NoteOnEvent(tick=0, channel=0, data=[103, 168]),\n",
      "   midi.NoteOnEvent(tick=1, channel=0, data=[4, 185]),\n",
      "   midi.NoteOnEvent(tick=2, channel=0, data=[79, 127]),\n",
      "   midi.NoteOnEvent(tick=2, channel=0, data=[16, 21]),\n",
      "   midi.NoteOffEvent(tick=1, channel=0, data=[110, 0]),\n",
      "   midi.NoteOnEvent(tick=0, channel=0, data=[9, 118]),\n",
      "   midi.NoteOnEvent(tick=1, channel=0, data=[4, 43]),\n",
      "   midi.NoteOnEvent(tick=2, channel=0, data=[114, 14]),\n",
      "   midi.NoteOnEvent(tick=3, channel=0, data=[83, 210]),\n",
      "   midi.NoteOnEvent(tick=3, channel=0, data=[67, 40]),\n",
      "   midi.NoteOffEvent(tick=1, channel=0, data=[68, 0]),\n",
      "   midi.NoteOnEvent(tick=0, channel=0, data=[111, 28]),\n",
      "   midi.NoteOnEvent(tick=0, channel=0, data=[87, 55]),\n",
      "   midi.NoteOnEvent(tick=5, channel=0, data=[104, 247]),\n",
      "   midi.NoteOnEvent(tick=1, channel=0, data=[9, 70]),\n",
      "   midi.NoteOnEvent(tick=0, channel=0, data=[53, 219]),\n",
      "   midi.NoteOnEvent(tick=1, channel=0, data=[47, 248]),\n",
      "   midi.NoteOnEvent(tick=3, channel=0, data=[25, 71]),\n",
      "   midi.NoteOnEvent(tick=1, channel=0, data=[17, 177]),\n",
      "   midi.NoteOnEvent(tick=1, channel=0, data=[107, 218]),\n",
      "   midi.NoteOnEvent(tick=5, channel=0, data=[72, 220]),\n",
      "   midi.NoteOffEvent(tick=2, channel=0, data=[78, 0]),\n",
      "   midi.NoteOnEvent(tick=0, channel=0, data=[74, 51]),\n",
      "   midi.NoteOnEvent(tick=1, channel=0, data=[15, 131]),\n",
      "   midi.NoteOnEvent(tick=4, channel=0, data=[112, 193]),\n",
      "   midi.NoteOnEvent(tick=3, channel=0, data=[10, 185]),\n",
      "   midi.NoteOnEvent(tick=1, channel=0, data=[86, 204]),\n",
      "   midi.NoteOnEvent(tick=3, channel=0, data=[87, 50]),\n",
      "   midi.NoteOffEvent(tick=1, channel=0, data=[85, 0]),\n",
      "   midi.NoteOnEvent(tick=0, channel=0, data=[96, 220]),\n",
      "   midi.NoteOnEvent(tick=1, channel=0, data=[22, 99]),\n",
      "   midi.NoteOnEvent(tick=2, channel=0, data=[100, 224]),\n",
      "   midi.NoteOnEvent(tick=1, channel=0, data=[9, 85]),\n",
      "   midi.NoteOnEvent(tick=0, channel=0, data=[115, 176]),\n",
      "   midi.NoteOnEvent(tick=0, channel=0, data=[42, 213]),\n",
      "   midi.NoteOnEvent(tick=1, channel=0, data=[29, 172]),\n",
      "   midi.NoteOnEvent(tick=1, channel=0, data=[68, 145]),\n",
      "   midi.NoteOnEvent(tick=0, channel=0, data=[73, 23]),\n",
      "   midi.NoteOnEvent(tick=1, channel=0, data=[19, 83]),\n",
      "   midi.NoteOnEvent(tick=3, channel=0, data=[45, 183]),\n",
      "   midi.NoteOnEvent(tick=1, channel=0, data=[104, 94]),\n",
      "   midi.NoteOnEvent(tick=2, channel=0, data=[35, 219]),\n",
      "   midi.NoteOnEvent(tick=5, channel=0, data=[71, 195]),\n",
      "   midi.NoteOnEvent(tick=2, channel=0, data=[25, 118]),\n",
      "   midi.NoteOnEvent(tick=5, channel=0, data=[27, 61]),\n",
      "   midi.NoteOnEvent(tick=1, channel=0, data=[1, 174]),\n",
      "   midi.NoteOnEvent(tick=0, channel=0, data=[119, 120]),\n",
      "   midi.NoteOffEvent(tick=3, channel=0, data=[84, 0]),\n",
      "   midi.NoteOnEvent(tick=3, channel=0, data=[53, 51]),\n",
      "   midi.NoteOnEvent(tick=0, channel=0, data=[89, 93]),\n",
      "   midi.NoteOnEvent(tick=1, channel=0, data=[109, 81]),\n",
      "   midi.NoteOffEvent(tick=1, channel=0, data=[39, 0]),\n",
      "   midi.NoteOnEvent(tick=0, channel=0, data=[32, 110]),\n",
      "   midi.NoteOnEvent(tick=1, channel=0, data=[50, 67]),\n",
      "   midi.NoteOnEvent(tick=1, channel=0, data=[51, 73]),\n",
      "   midi.NoteOnEvent(tick=1, channel=0, data=[82, 23]),\n",
      "   midi.NoteOnEvent(tick=1, channel=0, data=[71, 112]),\n",
      "   midi.NoteOnEvent(tick=0, channel=0, data=[20, 245]),\n",
      "   midi.NoteOnEvent(tick=1, channel=0, data=[59, 203]),\n",
      "   midi.NoteOnEvent(tick=1, channel=0, data=[49, 231]),\n",
      "   midi.NoteOnEvent(tick=1, channel=0, data=[5, 94]),\n",
      "   midi.NoteOnEvent(tick=2, channel=0, data=[2, 61]),\n",
      "   midi.NoteOnEvent(tick=2, channel=0, data=[97, 149]),\n",
      "   midi.NoteOffEvent(tick=6, channel=0, data=[25, 0]),\n",
      "   midi.NoteOnEvent(tick=0, channel=0, data=[83, 4]),\n",
      "   midi.NoteOnEvent(tick=3, channel=0, data=[37, 173]),\n",
      "   midi.NoteOnEvent(tick=0, channel=0, data=[102, 172]),\n",
      "   midi.NoteOnEvent(tick=2, channel=0, data=[46, 164]),\n",
      "   midi.NoteOnEvent(tick=1, channel=0, data=[46, 119]),\n",
      "   midi.NoteOnEvent(tick=0, channel=0, data=[95, 252]),\n",
      "   midi.NoteOnEvent(tick=1, channel=0, data=[96, 34]),\n",
      "   midi.NoteOnEvent(tick=3, channel=0, data=[37, 117]),\n",
      "   midi.NoteOnEvent(tick=1, channel=0, data=[82, 146]),\n",
      "   midi.NoteOffEvent(tick=1, channel=0, data=[50, 0]),\n",
      "   midi.NoteOnEvent(tick=1, channel=0, data=[8, 188]),\n",
      "   midi.NoteOnEvent(tick=3, channel=0, data=[97, 127]),\n",
      "   midi.NoteOnEvent(tick=5, channel=0, data=[125, 38]),\n",
      "   midi.NoteOffEvent(tick=1, channel=0, data=[118, 0]),\n",
      "   midi.NoteOnEvent(tick=0, channel=0, data=[91, 234]),\n",
      "   midi.NoteOnEvent(tick=2, channel=0, data=[32, 240]),\n",
      "   midi.NoteOnEvent(tick=0, channel=0, data=[90, 28]),\n",
      "   midi.NoteOnEvent(tick=1, channel=0, data=[4, 25]),\n",
      "   midi.NoteOnEvent(tick=0, channel=0, data=[51, 38]),\n",
      "   midi.NoteOffEvent(tick=2, channel=0, data=[69, 0]),\n",
      "   midi.NoteOffEvent(tick=2, channel=0, data=[56, 0]),\n",
      "   midi.NoteOnEvent(tick=0, channel=0, data=[53, 199]),\n",
      "   midi.NoteOnEvent(tick=1, channel=0, data=[72, 31]),\n",
      "   midi.NoteOnEvent(tick=3, channel=0, data=[52, 114]),\n",
      "   midi.NoteOffEvent(tick=2, channel=0, data=[55, 0]),\n",
      "   midi.NoteOnEvent(tick=0, channel=0, data=[49, 172]),\n",
      "   midi.NoteOffEvent(tick=2, channel=0, data=[15, 0]),\n",
      "   midi.NoteOnEvent(tick=0, channel=0, data=[31, 147]),\n",
      "   midi.NoteOnEvent(tick=1, channel=0, data=[20, 117]),\n",
      "   midi.NoteOffEvent(tick=3, channel=0, data=[79, 0]),\n",
      "   midi.NoteOnEvent(tick=2, channel=0, data=[112, 232]),\n",
      "   midi.NoteOnEvent(tick=2, channel=0, data=[75, 137]),\n",
      "   midi.NoteOnEvent(tick=1, channel=0, data=[118, 227]),\n",
      "   midi.NoteOffEvent(tick=2, channel=0, data=[115, 0]),\n",
      "   midi.NoteOnEvent(tick=3, channel=0, data=[1, 147]),\n",
      "   midi.NoteOffEvent(tick=1, channel=0, data=[4, 0]),\n",
      "   midi.NoteOnEvent(tick=0, channel=0, data=[25, 160]),\n",
      "   midi.NoteOnEvent(tick=1, channel=0, data=[3, 234]),\n",
      "   midi.NoteOffEvent(tick=1, channel=0, data=[24, 0]),\n",
      "   midi.NoteOnEvent(tick=3, channel=0, data=[44, 128]),\n",
      "   midi.NoteOnEvent(tick=2, channel=0, data=[119, 10]),\n",
      "   midi.NoteOnEvent(tick=2, channel=0, data=[37, 109]),\n",
      "   midi.NoteOnEvent(tick=6, channel=0, data=[110, 98]),\n",
      "   midi.NoteOffEvent(tick=1, channel=0, data=[67, 0]),\n",
      "   midi.NoteOnEvent(tick=0, channel=0, data=[106, 234]),\n",
      "   midi.NoteOnEvent(tick=1, channel=0, data=[3, 22]),\n",
      "   midi.NoteOnEvent(tick=0, channel=0, data=[33, 198]),\n",
      "   midi.NoteOffEvent(tick=2, channel=0, data=[36, 0]),\n",
      "   midi.NoteOnEvent(tick=1, channel=0, data=[24, 37]),\n",
      "   midi.NoteOffEvent(tick=5, channel=0, data=[72, 0]),\n",
      "   midi.NoteOnEvent(tick=0, channel=0, data=[53, 166]),\n",
      "   midi.NoteOffEvent(tick=2, channel=0, data=[110, 0]),\n",
      "   midi.NoteOnEvent(tick=2, channel=0, data=[84, 116]),\n",
      "   midi.NoteOffEvent(tick=1, channel=0, data=[3, 0]),\n",
      "   midi.NoteOnEvent(tick=0, channel=0, data=[36, 177]),\n",
      "   midi.NoteOnEvent(tick=0, channel=0, data=[0, 84]),\n",
      "   midi.NoteOnEvent(tick=1, channel=0, data=[97, 158]),\n",
      "   midi.NoteOnEvent(tick=1, channel=0, data=[116, 163]),\n",
      "   midi.NoteOffEvent(tick=6, channel=0, data=[105, 0]),\n",
      "   midi.NoteOnEvent(tick=0, channel=0, data=[94, 137]),\n",
      "   midi.NoteOffEvent(tick=1, channel=0, data=[89, 0]),\n",
      "   midi.NoteOffEvent(tick=7, channel=0, data=[11, 0]),\n",
      "   midi.NoteOnEvent(tick=0, channel=0, data=[83, 139]),\n",
      "   midi.NoteOnEvent(tick=1, channel=0, data=[22, 94]),\n",
      "   midi.NoteOnEvent(tick=3, channel=0, data=[1, 93]),\n",
      "   midi.NoteOnEvent(tick=1, channel=0, data=[89, 106]),\n",
      "   midi.NoteOnEvent(tick=1, channel=0, data=[1, 37]),\n",
      "   midi.NoteOnEvent(tick=0, channel=0, data=[50, 204]),\n",
      "   midi.NoteOnEvent(tick=1, channel=0, data=[29, 179]),\n",
      "   midi.NoteOnEvent(tick=0, channel=0, data=[46, 251]),\n",
      "   midi.NoteOnEvent(tick=4, channel=0, data=[15, 33]),\n",
      "   midi.NoteOnEvent(tick=0, channel=0, data=[28, 101]),\n",
      "   midi.NoteOnEvent(tick=3, channel=0, data=[53, 120]),\n",
      "   midi.NoteOnEvent(tick=2, channel=0, data=[115, 196]),\n",
      "   midi.NoteOnEvent(tick=1, channel=0, data=[19, 87]),\n",
      "   midi.NoteOnEvent(tick=1, channel=0, data=[53, 195]),\n",
      "   midi.NoteOffEvent(tick=1, channel=0, data=[111, 0]),\n",
      "   midi.NoteOffEvent(tick=2, channel=0, data=[86, 0]),\n",
      "   midi.NoteOffEvent(tick=0, channel=0, data=[116, 0]),\n",
      "   midi.NoteOnEvent(tick=2, channel=0, data=[46, 243]),\n",
      "   midi.NoteOnEvent(tick=0, channel=0, data=[124, 199]),\n",
      "   midi.NoteOffEvent(tick=2, channel=0, data=[44, 0]),\n",
      "   midi.NoteOffEvent(tick=1, channel=0, data=[25, 0]),\n",
      "   midi.NoteOffEvent(tick=3, channel=0, data=[24, 0]),\n",
      "   midi.NoteOnEvent(tick=1, channel=0, data=[25, 196]),\n",
      "   midi.NoteOnEvent(tick=4, channel=0, data=[26, 140]),\n",
      "   midi.NoteOffEvent(tick=1, channel=0, data=[104, 0]),\n",
      "   midi.NoteOnEvent(tick=1, channel=0, data=[53, 67]),\n",
      "   midi.NoteOnEvent(tick=2, channel=0, data=[58, 240]),\n",
      "   midi.NoteOnEvent(tick=0, channel=0, data=[18, 237]),\n",
      "   midi.NoteOnEvent(tick=0, channel=0, data=[62, 110]),\n",
      "   midi.NoteOnEvent(tick=1, channel=0, data=[43, 92]),\n",
      "   midi.NoteOnEvent(tick=1, channel=0, data=[10, 214]),\n",
      "   midi.NoteOnEvent(tick=1, channel=0, data=[29, 35]),\n",
      "   midi.NoteOffEvent(tick=1, channel=0, data=[93, 0]),\n",
      "   midi.NoteOffEvent(tick=2, channel=0, data=[41, 0]),\n",
      "   midi.NoteOffEvent(tick=2, channel=0, data=[64, 0]),\n",
      "   midi.NoteOnEvent(tick=4, channel=0, data=[9, 53]),\n",
      "   midi.NoteOffEvent(tick=1, channel=0, data=[34, 0]),\n",
      "   midi.NoteOffEvent(tick=0, channel=0, data=[108, 0]),\n",
      "   midi.NoteOffEvent(tick=4, channel=0, data=[87, 0]),\n",
      "   midi.NoteOnEvent(tick=1, channel=0, data=[44, 40]),\n",
      "   midi.NoteOnEvent(tick=7, channel=0, data=[97, 55]),\n",
      "   midi.NoteOnEvent(tick=0, channel=0, data=[107, 157]),\n",
      "   midi.NoteOffEvent(tick=1, channel=0, data=[26, 0]),\n",
      "   midi.NoteOffEvent(tick=2, channel=0, data=[13, 0]),\n",
      "   midi.NoteOnEvent(tick=0, channel=0, data=[65, 203]),\n",
      "   midi.NoteOnEvent(tick=0, channel=0, data=[96, 229]),\n",
      "   midi.NoteOnEvent(tick=2, channel=0, data=[114, 246]),\n",
      "   midi.NoteOnEvent(tick=0, channel=0, data=[4, 90]),\n",
      "   midi.NoteOnEvent(tick=0, channel=0, data=[76, 2]),\n",
      "   midi.NoteOnEvent(tick=0, channel=0, data=[78, 127]),\n",
      "   midi.NoteOnEvent(tick=5, channel=0, data=[39, 187]),\n",
      "   midi.NoteOffEvent(tick=1, channel=0, data=[123, 0]),\n",
      "   midi.NoteOnEvent(tick=2, channel=0, data=[24, 207]),\n",
      "   midi.NoteOnEvent(tick=4, channel=0, data=[89, 134]),\n",
      "   midi.NoteOnEvent(tick=0, channel=0, data=[0, 118]),\n",
      "   midi.NoteOnEvent(tick=1, channel=0, data=[69, 84]),\n",
      "   midi.NoteOnEvent(tick=1, channel=0, data=[86, 251]),\n",
      "   midi.NoteOnEvent(tick=0, channel=0, data=[71, 237]),\n",
      "   midi.NoteOnEvent(tick=3, channel=0, data=[116, 203]),\n",
      "   midi.NoteOnEvent(tick=1, channel=0, data=[25, 215]),\n",
      "   midi.NoteOffEvent(tick=1, channel=0, data=[1, 0]),\n",
      "   midi.NoteOffEvent(tick=2, channel=0, data=[24, 0]),\n",
      "   midi.NoteOnEvent(tick=2, channel=0, data=[30, 82]),\n",
      "   midi.NoteOnEvent(tick=1, channel=0, data=[94, 157]),\n",
      "   midi.NoteOnEvent(tick=1, channel=0, data=[89, 207]),\n",
      "   midi.NoteOnEvent(tick=2, channel=0, data=[27, 31]),\n",
      "   midi.NoteOffEvent(tick=3, channel=0, data=[14, 0]),\n",
      "   midi.NoteOnEvent(tick=0, channel=0, data=[44, 190]),\n",
      "   midi.NoteOnEvent(tick=6, channel=0, data=[77, 188]),\n",
      "   midi.NoteOnEvent(tick=3, channel=0, data=[117, 55]),\n",
      "   midi.NoteOffEvent(tick=2, channel=0, data=[92, 0]),\n",
      "   midi.NoteOnEvent(tick=0, channel=0, data=[40, 103]),\n",
      "   midi.NoteOffEvent(tick=3, channel=0, data=[32, 0]),\n",
      "   midi.NoteOnEvent(tick=2, channel=0, data=[78, 107]),\n",
      "   midi.NoteOnEvent(tick=1, channel=0, data=[87, 130]),\n",
      "   midi.NoteOnEvent(tick=4, channel=0, data=[9, 35]),\n",
      "   midi.NoteOnEvent(tick=0, channel=0, data=[36, 49]),\n",
      "   midi.NoteOnEvent(tick=2, channel=0, data=[86, 181]),\n",
      "   midi.NoteOnEvent(tick=2, channel=0, data=[43, 164]),\n",
      "   midi.NoteOffEvent(tick=4, channel=0, data=[35, 0]),\n",
      "   midi.NoteOnEvent(tick=0, channel=0, data=[107, 195]),\n",
      "   midi.NoteOffEvent(tick=3, channel=0, data=[7, 0]),\n",
      "   midi.NoteOnEvent(tick=0, channel=0, data=[99, 103]),\n",
      "   midi.NoteOnEvent(tick=1, channel=0, data=[31, 231]),\n",
      "   midi.NoteOffEvent(tick=2, channel=0, data=[80, 0]),\n",
      "   midi.NoteOffEvent(tick=2, channel=0, data=[118, 0]),\n",
      "   midi.NoteOnEvent(tick=3, channel=0, data=[125, 9]),\n",
      "   midi.NoteOnEvent(tick=3, channel=0, data=[79, 128]),\n",
      "   midi.NoteOnEvent(tick=3, channel=0, data=[82, 251]),\n",
      "   midi.NoteOnEvent(tick=4, channel=0, data=[8, 14]),\n",
      "   midi.NoteOnEvent(tick=4, channel=0, data=[65, 75]),\n",
      "   midi.NoteOffEvent(tick=1, channel=0, data=[21, 0]),\n",
      "   midi.NoteOnEvent(tick=0, channel=0, data=[95, 40]),\n",
      "   midi.NoteOnEvent(tick=6, channel=0, data=[60, 147]),\n",
      "   midi.NoteOnEvent(tick=4, channel=0, data=[33, 141]),\n",
      "   midi.NoteOffEvent(tick=2, channel=0, data=[82, 0]),\n",
      "   midi.NoteOnEvent(tick=0, channel=0, data=[120, 37]),\n",
      "   midi.NoteOnEvent(tick=0, channel=0, data=[44, 156]),\n",
      "   midi.NoteOnEvent(tick=2, channel=0, data=[95, 105]),\n",
      "   midi.NoteOffEvent(tick=2, channel=0, data=[36, 0]),\n",
      "   midi.NoteOffEvent(tick=1, channel=0, data=[6, 0]),\n",
      "   midi.NoteOnEvent(tick=1, channel=0, data=[116, 144]),\n",
      "   midi.NoteOnEvent(tick=1, channel=0, data=[61, 234]),\n",
      "   midi.NoteOnEvent(tick=0, channel=0, data=[29, 130]),\n",
      "   midi.NoteOffEvent(tick=1, channel=0, data=[27, 0]),\n",
      "   midi.NoteOnEvent(tick=0, channel=0, data=[24, 255]),\n",
      "   midi.NoteOnEvent(tick=4, channel=0, data=[121, 45]),\n",
      "   midi.NoteOnEvent(tick=0, channel=0, data=[114, 108]),\n",
      "   midi.NoteOnEvent(tick=2, channel=0, data=[14, 93]),\n",
      "   midi.NoteOnEvent(tick=1, channel=0, data=[24, 23]),\n",
      "   midi.NoteOffEvent(tick=1, channel=0, data=[8, 0]),\n",
      "   midi.NoteOffEvent(tick=0, channel=0, data=[107, 0]),\n",
      "   midi.NoteOnEvent(tick=2, channel=0, data=[26, 237]),\n",
      "   midi.NoteOnEvent(tick=1, channel=0, data=[113, 182]),\n",
      "   midi.NoteOffEvent(tick=1, channel=0, data=[91, 0]),\n",
      "   midi.NoteOnEvent(tick=1, channel=0, data=[3, 40]),\n",
      "   midi.NoteOnEvent(tick=1, channel=0, data=[3, 239]),\n",
      "   midi.NoteOnEvent(tick=1, channel=0, data=[13, 170]),\n",
      "   midi.NoteOnEvent(tick=1, channel=0, data=[93, 192]),\n",
      "   midi.NoteOnEvent(tick=0, channel=0, data=[63, 8]),\n",
      "   midi.NoteOnEvent(tick=0, channel=0, data=[69, 74]),\n",
      "   midi.NoteOnEvent(tick=1, channel=0, data=[113, 11]),\n",
      "   midi.NoteOnEvent(tick=2, channel=0, data=[74, 153]),\n",
      "   midi.NoteOnEvent(tick=4, channel=0, data=[17, 79]),\n",
      "   midi.NoteOnEvent(tick=2, channel=0, data=[12, 151]),\n",
      "   midi.NoteOnEvent(tick=1, channel=0, data=[116, 57]),\n",
      "   midi.NoteOffEvent(tick=4, channel=0, data=[19, 0]),\n",
      "   midi.NoteOnEvent(tick=1, channel=0, data=[6, 138]),\n",
      "   midi.NoteOnEvent(tick=1, channel=0, data=[62, 28]),\n",
      "   midi.NoteOffEvent(tick=1, channel=0, data=[103, 0]),\n",
      "   midi.NoteOnEvent(tick=1, channel=0, data=[120, 2]),\n",
      "   midi.NoteOnEvent(tick=0, channel=0, data=[33, 87]),\n",
      "   midi.NoteOnEvent(tick=2, channel=0, data=[8, 72]),\n",
      "   midi.NoteOnEvent(tick=5, channel=0, data=[70, 132]),\n",
      "   midi.NoteOnEvent(tick=1, channel=0, data=[70, 238]),\n",
      "   midi.NoteOnEvent(tick=2, channel=0, data=[43, 207]),\n",
      "   midi.NoteOnEvent(tick=0, channel=0, data=[35, 216]),\n",
      "   midi.NoteOnEvent(tick=1, channel=0, data=[88, 246]),\n",
      "   midi.NoteOffEvent(tick=2, channel=0, data=[12, 0]),\n",
      "   midi.NoteOnEvent(tick=1, channel=0, data=[95, 36]),\n",
      "   midi.NoteOffEvent(tick=1, channel=0, data=[48, 0]),\n",
      "   midi.NoteOffEvent(tick=2, channel=0, data=[58, 0]),\n",
      "   midi.NoteOffEvent(tick=2, channel=0, data=[62, 0]),\n",
      "   midi.NoteOffEvent(tick=0, channel=0, data=[65, 0]),\n",
      "   midi.NoteOffEvent(tick=0, channel=0, data=[112, 0]),\n",
      "   midi.NoteOffEvent(tick=4, channel=0, data=[0, 0]),\n",
      "   midi.NoteOnEvent(tick=0, channel=0, data=[107, 38]),\n",
      "   midi.NoteOffEvent(tick=5, channel=0, data=[98, 0]),\n",
      "   midi.NoteOffEvent(tick=9, channel=0, data=[122, 0]),\n",
      "   midi.NoteOffEvent(tick=30, channel=0, data=[3, 0]),\n",
      "   midi.NoteOffEvent(tick=9, channel=0, data=[88, 0]),\n",
      "   midi.NoteOffEvent(tick=26, channel=0, data=[115, 0]),\n",
      "   midi.NoteOffEvent(tick=13, channel=0, data=[100, 0]),\n",
      "   midi.NoteOffEvent(tick=13, channel=0, data=[59, 0]),\n",
      "   midi.NoteOffEvent(tick=15, channel=0, data=[73, 0]),\n",
      "   midi.NoteOffEvent(tick=1, channel=0, data=[47, 0]),\n",
      "   midi.NoteOffEvent(tick=5, channel=0, data=[83, 0]),\n",
      "   midi.NoteOffEvent(tick=4, channel=0, data=[68, 0]),\n",
      "   midi.NoteOffEvent(tick=7, channel=0, data=[116, 0]),\n",
      "   midi.NoteOffEvent(tick=14, channel=0, data=[81, 0]),\n",
      "   midi.NoteOffEvent(tick=7, channel=0, data=[53, 0]),\n",
      "   midi.NoteOffEvent(tick=2, channel=0, data=[52, 0]),\n",
      "   midi.NoteOffEvent(tick=16, channel=0, data=[75, 0]),\n",
      "   midi.NoteOffEvent(tick=6, channel=0, data=[109, 0]),\n",
      "   midi.NoteOffEvent(tick=1, channel=0, data=[71, 0]),\n",
      "   midi.NoteOffEvent(tick=18, channel=0, data=[45, 0]),\n",
      "   midi.NoteOffEvent(tick=0, channel=0, data=[50, 0]),\n",
      "   midi.NoteOffEvent(tick=1, channel=0, data=[37, 0]),\n",
      "   midi.NoteOffEvent(tick=14, channel=0, data=[60, 0]),\n",
      "   midi.NoteOffEvent(tick=4, channel=0, data=[28, 0]),\n",
      "   midi.NoteOffEvent(tick=2, channel=0, data=[69, 0]),\n",
      "   midi.NoteOffEvent(tick=7, channel=0, data=[49, 0]),\n",
      "   midi.NoteOffEvent(tick=2, channel=0, data=[120, 0]),\n",
      "   midi.NoteOffEvent(tick=11, channel=0, data=[101, 0]),\n",
      "   midi.NoteOffEvent(tick=7, channel=0, data=[66, 0]),\n",
      "   midi.NoteOffEvent(tick=8, channel=0, data=[30, 0]),\n",
      "   midi.NoteOffEvent(tick=3, channel=0, data=[113, 0]),\n",
      "   midi.NoteOffEvent(tick=2, channel=0, data=[127, 0]),\n",
      "   midi.NoteOffEvent(tick=16, channel=0, data=[89, 0]),\n",
      "   midi.NoteOffEvent(tick=15, channel=0, data=[10, 0]),\n",
      "   midi.NoteOffEvent(tick=18, channel=0, data=[90, 0]),\n",
      "   midi.NoteOffEvent(tick=5, channel=0, data=[126, 0]),\n",
      "   midi.NoteOffEvent(tick=12, channel=0, data=[40, 0]),\n",
      "   midi.NoteOffEvent(tick=3, channel=0, data=[26, 0]),\n",
      "   midi.NoteOffEvent(tick=0, channel=0, data=[94, 0]),\n",
      "   midi.NoteOffEvent(tick=29, channel=0, data=[15, 0]),\n",
      "   midi.NoteOffEvent(tick=9, channel=0, data=[87, 0]),\n",
      "   midi.NoteOffEvent(tick=3, channel=0, data=[106, 0]),\n",
      "   midi.NoteOffEvent(tick=4, channel=0, data=[33, 0]),\n",
      "   midi.NoteOffEvent(tick=0, channel=0, data=[102, 0]),\n",
      "   midi.NoteOffEvent(tick=3, channel=0, data=[23, 0]),\n",
      "   midi.NoteOffEvent(tick=5, channel=0, data=[76, 0]),\n",
      "   midi.NoteOffEvent(tick=3, channel=0, data=[121, 0]),\n",
      "   midi.NoteOffEvent(tick=33, channel=0, data=[43, 0]),\n",
      "   midi.NoteOffEvent(tick=3, channel=0, data=[18, 0]),\n",
      "   midi.NoteOffEvent(tick=1, channel=0, data=[84, 0]),\n",
      "   midi.NoteOffEvent(tick=6, channel=0, data=[5, 0]),\n",
      "   midi.NoteOffEvent(tick=3, channel=0, data=[42, 0]),\n",
      "   midi.NoteOffEvent(tick=9, channel=0, data=[14, 0]),\n",
      "   midi.NoteOffEvent(tick=37, channel=0, data=[16, 0]),\n",
      "   midi.NoteOffEvent(tick=20, channel=0, data=[119, 0]),\n",
      "   midi.NoteOffEvent(tick=6, channel=0, data=[25, 0]),\n",
      "   midi.NoteOffEvent(tick=3, channel=0, data=[61, 0]),\n",
      "   midi.NoteOffEvent(tick=5, channel=0, data=[51, 0]),\n",
      "   midi.NoteOffEvent(tick=8, channel=0, data=[24, 0]),\n",
      "   midi.NoteOffEvent(tick=0, channel=0, data=[117, 0]),\n",
      "   midi.NoteOffEvent(tick=14, channel=0, data=[95, 0]),\n",
      "   midi.NoteOffEvent(tick=14, channel=0, data=[22, 0]),\n",
      "   midi.NoteOffEvent(tick=1, channel=0, data=[20, 0]),\n",
      "   midi.NoteOffEvent(tick=1, channel=0, data=[8, 0]),\n",
      "   midi.NoteOffEvent(tick=2, channel=0, data=[4, 0]),\n",
      "   midi.NoteOffEvent(tick=39, channel=0, data=[78, 0]),\n",
      "   midi.NoteOffEvent(tick=0, channel=0, data=[86, 0]),\n",
      "   midi.NoteOffEvent(tick=3, channel=0, data=[2, 0]),\n",
      "   midi.NoteOffEvent(tick=29, channel=0, data=[96, 0]),\n",
      "   midi.NoteOffEvent(tick=1, channel=0, data=[124, 0]),\n",
      "   midi.NoteOffEvent(tick=5, channel=0, data=[63, 0]),\n",
      "   midi.NoteOffEvent(tick=19, channel=0, data=[46, 0]),\n",
      "   midi.NoteOffEvent(tick=4, channel=0, data=[39, 0]),\n",
      "   midi.NoteOffEvent(tick=27, channel=0, data=[79, 0]),\n",
      "   midi.NoteOffEvent(tick=11, channel=0, data=[114, 0]),\n",
      "   midi.NoteOffEvent(tick=16, channel=0, data=[107, 0]),\n",
      "   midi.NoteOffEvent(tick=7, channel=0, data=[44, 0]),\n",
      "   midi.NoteOffEvent(tick=34, channel=0, data=[77, 0]),\n",
      "   midi.NoteOffEvent(tick=2, channel=0, data=[99, 0]),\n",
      "   midi.NoteOffEvent(tick=17, channel=0, data=[97, 0]),\n",
      "   midi.NoteOffEvent(tick=11, channel=0, data=[125, 0]),\n",
      "   midi.NoteOffEvent(tick=37, channel=0, data=[31, 0]),\n",
      "   midi.NoteOffEvent(tick=7, channel=0, data=[17, 0]),\n",
      "   midi.NoteOffEvent(tick=46, channel=0, data=[13, 0]),\n",
      "   midi.NoteOffEvent(tick=13, channel=0, data=[29, 0]),\n",
      "   midi.NoteOffEvent(tick=8, channel=0, data=[9, 0]),\n",
      "   midi.NoteOffEvent(tick=4, channel=0, data=[74, 0]),\n",
      "   midi.NoteOffEvent(tick=1, channel=0, data=[70, 0]),\n",
      "   midi.NoteOffEvent(tick=1, channel=0, data=[93, 0]),\n",
      "   midi.NoteOffEvent(tick=70, channel=0, data=[35, 0]),\n",
      "   midi.NoteOffEvent(tick=7, channel=0, data=[6, 0]),\n",
      "   midi.EndOfTrackEvent(tick=0, data=[])]),\n",
      " midi.Track(\\\n",
      "  [midi.SetTempoEvent(tick=0, data=[4, 147, 224]),\n",
      "   midi.ProgramChangeEvent(tick=0, channel=0, data=[101]),\n",
      "   midi.NoteOnEvent(tick=0, channel=0, data=[32, 110]),\n",
      "   midi.NoteOnEvent(tick=0, channel=0, data=[118, 105]),\n",
      "   midi.NoteOnEvent(tick=0, channel=0, data=[95, 0]),\n",
      "   midi.NoteOnEvent(tick=1, channel=0, data=[120, 226]),\n",
      "   midi.NoteOnEvent(tick=1, channel=0, data=[21, 46]),\n",
      "   midi.NoteOnEvent(tick=0, channel=0, data=[32, 6]),\n",
      "   midi.NoteOnEvent(tick=1, channel=0, data=[18, 216]),\n",
      "   midi.NoteOnEvent(tick=4, channel=0, data=[87, 5]),\n",
      "   midi.NoteOnEvent(tick=6, channel=0, data=[34, 13]),\n",
      "   midi.NoteOnEvent(tick=1, channel=0, data=[6, 229]),\n",
      "   midi.NoteOnEvent(tick=3, channel=0, data=[43, 206]),\n",
      "   midi.NoteOnEvent(tick=0, channel=0, data=[123, 8]),\n",
      "   midi.NoteOnEvent(tick=1, channel=0, data=[23, 251]),\n",
      "   midi.NoteOnEvent(tick=3, channel=0, data=[103, 135]),\n",
      "   midi.NoteOnEvent(tick=1, channel=0, data=[11, 181]),\n",
      "   midi.NoteOnEvent(tick=2, channel=0, data=[96, 83]),\n",
      "   midi.NoteOnEvent(tick=4, channel=0, data=[118, 179]),\n",
      "   midi.NoteOnEvent(tick=1, channel=0, data=[79, 213]),\n",
      "   midi.NoteOnEvent(tick=0, channel=0, data=[60, 29]),\n",
      "   midi.NoteOnEvent(tick=3, channel=0, data=[122, 128]),\n",
      "   midi.NoteOffEvent(tick=2, channel=0, data=[43, 0]),\n",
      "   midi.NoteOnEvent(tick=0, channel=0, data=[76, 251]),\n",
      "   midi.NoteOnEvent(tick=1, channel=0, data=[11, 6]),\n",
      "   midi.NoteOnEvent(tick=1, channel=0, data=[86, 91]),\n",
      "   midi.NoteOnEvent(tick=1, channel=0, data=[74, 57]),\n",
      "   midi.NoteOnEvent(tick=5, channel=0, data=[92, 238]),\n",
      "   midi.NoteOnEvent(tick=3, channel=0, data=[75, 123]),\n",
      "   midi.NoteOnEvent(tick=1, channel=0, data=[105, 40]),\n",
      "   midi.NoteOnEvent(tick=2, channel=0, data=[117, 141]),\n",
      "   midi.NoteOnEvent(tick=8, channel=0, data=[13, 151]),\n",
      "   midi.NoteOnEvent(tick=3, channel=0, data=[99, 173]),\n",
      "   midi.NoteOnEvent(tick=2, channel=0, data=[16, 233]),\n",
      "   midi.NoteOnEvent(tick=5, channel=0, data=[48, 247]),\n",
      "   midi.NoteOnEvent(tick=2, channel=0, data=[51, 21]),\n",
      "   midi.NoteOnEvent(tick=1, channel=0, data=[71, 133]),\n",
      "   midi.NoteOnEvent(tick=0, channel=0, data=[22, 204]),\n",
      "   midi.NoteOnEvent(tick=1, channel=0, data=[97, 67]),\n",
      "   midi.NoteOnEvent(tick=0, channel=0, data=[118, 101]),\n",
      "   midi.NoteOnEvent(tick=2, channel=0, data=[54, 17]),\n",
      "   midi.NoteOnEvent(tick=0, channel=0, data=[76, 185]),\n",
      "   midi.NoteOnEvent(tick=1, channel=0, data=[93, 55]),\n",
      "   midi.NoteOnEvent(tick=1, channel=0, data=[27, 25]),\n",
      "   midi.NoteOnEvent(tick=8, channel=0, data=[70, 142]),\n",
      "   midi.NoteOnEvent(tick=4, channel=0, data=[85, 145]),\n",
      "   midi.NoteOnEvent(tick=1, channel=0, data=[43, 218]),\n",
      "   midi.NoteOnEvent(tick=0, channel=0, data=[76, 5]),\n",
      "   midi.NoteOnEvent(tick=4, channel=0, data=[61, 21]),\n",
      "   midi.NoteOnEvent(tick=2, channel=0, data=[116, 219]),\n",
      "   midi.NoteOnEvent(tick=0, channel=0, data=[9, 167]),\n",
      "   midi.NoteOffEvent(tick=1, channel=0, data=[117, 0]),\n",
      "   midi.NoteOnEvent(tick=0, channel=0, data=[43, 48]),\n",
      "   midi.NoteOnEvent(tick=3, channel=0, data=[20, 120]),\n",
      "   midi.NoteOnEvent(tick=1, channel=0, data=[102, 139]),\n",
      "   midi.NoteOnEvent(tick=3, channel=0, data=[102, 238]),\n",
      "   midi.NoteOnEvent(tick=3, channel=0, data=[48, 228]),\n",
      "   midi.NoteOnEvent(tick=0, channel=0, data=[36, 74]),\n",
      "   midi.NoteOnEvent(tick=1, channel=0, data=[107, 70]),\n",
      "   midi.NoteOnEvent(tick=1, channel=0, data=[117, 226]),\n",
      "   midi.NoteOnEvent(tick=1, channel=0, data=[100, 31]),\n",
      "   midi.NoteOnEvent(tick=3, channel=0, data=[20, 135]),\n",
      "   midi.NoteOnEvent(tick=0, channel=0, data=[36, 212]),\n",
      "   midi.NoteOnEvent(tick=0, channel=0, data=[92, 154]),\n",
      "   midi.NoteOnEvent(tick=8, channel=0, data=[36, 222]),\n",
      "   midi.NoteOnEvent(tick=0, channel=0, data=[67, 104]),\n",
      "   midi.NoteOnEvent(tick=4, channel=0, data=[63, 203]),\n",
      "   midi.NoteOnEvent(tick=0, channel=0, data=[126, 14]),\n",
      "   midi.NoteOnEvent(tick=0, channel=0, data=[43, 113]),\n",
      "   midi.NoteOnEvent(tick=1, channel=0, data=[85, 197]),\n",
      "   midi.NoteOnEvent(tick=0, channel=0, data=[42, 33]),\n",
      "   midi.NoteOnEvent(tick=1, channel=0, data=[48, 255]),\n",
      "   midi.NoteOnEvent(tick=0, channel=0, data=[111, 83]),\n",
      "   midi.NoteOnEvent(tick=12, channel=0, data=[114, 150]),\n",
      "   midi.NoteOnEvent(tick=1, channel=0, data=[87, 197]),\n",
      "   midi.NoteOnEvent(tick=0, channel=0, data=[57, 192]),\n",
      "   midi.NoteOnEvent(tick=1, channel=0, data=[27, 228]),\n",
      "   midi.NoteOnEvent(tick=0, channel=0, data=[74, 15]),\n",
      "   midi.NoteOnEvent(tick=2, channel=0, data=[102, 184]),\n",
      "   midi.NoteOnEvent(tick=1, channel=0, data=[33, 49]),\n",
      "   midi.NoteOnEvent(tick=1, channel=0, data=[6, 166]),\n",
      "   midi.NoteOnEvent(tick=2, channel=0, data=[41, 118]),\n",
      "   midi.NoteOffEvent(tick=1, channel=0, data=[100, 0]),\n",
      "   midi.NoteOnEvent(tick=5, channel=0, data=[117, 177]),\n",
      "   midi.NoteOffEvent(tick=2, channel=0, data=[13, 0]),\n",
      "   midi.NoteOnEvent(tick=1, channel=0, data=[106, 183]),\n",
      "   midi.NoteOnEvent(tick=2, channel=0, data=[87, 252]),\n",
      "   midi.NoteOnEvent(tick=1, channel=0, data=[82, 169]),\n",
      "   midi.NoteOnEvent(tick=1, channel=0, data=[84, 211]),\n",
      "   midi.NoteOnEvent(tick=1, channel=0, data=[94, 105]),\n",
      "   midi.NoteOnEvent(tick=1, channel=0, data=[125, 15]),\n",
      "   midi.NoteOnEvent(tick=1, channel=0, data=[3, 132]),\n",
      "   midi.NoteOnEvent(tick=1, channel=0, data=[23, 171]),\n",
      "   midi.NoteOnEvent(tick=2, channel=0, data=[48, 34]),\n",
      "   midi.NoteOnEvent(tick=2, channel=0, data=[88, 139]),\n",
      "   midi.NoteOnEvent(tick=2, channel=0, data=[87, 251]),\n",
      "   midi.NoteOffEvent(tick=2, channel=0, data=[106, 0]),\n",
      "   midi.NoteOnEvent(tick=1, channel=0, data=[101, 192]),\n",
      "   midi.NoteOnEvent(tick=1, channel=0, data=[109, 61]),\n",
      "   midi.NoteOnEvent(tick=0, channel=0, data=[83, 29]),\n",
      "   midi.NoteOnEvent(tick=1, channel=0, data=[89, 31]),\n",
      "   midi.NoteOnEvent(tick=1, channel=0, data=[41, 74]),\n",
      "   midi.NoteOnEvent(tick=5, channel=0, data=[52, 24]),\n",
      "   midi.NoteOnEvent(tick=0, channel=0, data=[15, 72]),\n",
      "   midi.NoteOffEvent(tick=3, channel=0, data=[74, 0]),\n",
      "   midi.NoteOnEvent(tick=4, channel=0, data=[9, 39]),\n",
      "   midi.NoteOnEvent(tick=8, channel=0, data=[68, 116]),\n",
      "   midi.NoteOnEvent(tick=3, channel=0, data=[105, 165]),\n",
      "   midi.NoteOnEvent(tick=1, channel=0, data=[92, 166]),\n",
      "   midi.NoteOnEvent(tick=2, channel=0, data=[67, 184]),\n",
      "   midi.NoteOnEvent(tick=2, channel=0, data=[2, 64]),\n",
      "   midi.NoteOnEvent(tick=1, channel=0, data=[0, 132]),\n",
      "   midi.NoteOnEvent(tick=3, channel=0, data=[3, 167]),\n",
      "   midi.NoteOnEvent(tick=1, channel=0, data=[103, 53]),\n",
      "   midi.NoteOnEvent(tick=0, channel=0, data=[110, 176]),\n",
      "   midi.NoteOnEvent(tick=3, channel=0, data=[92, 150]),\n",
      "   midi.NoteOnEvent(tick=0, channel=0, data=[107, 80]),\n",
      "   midi.NoteOffEvent(tick=2, channel=0, data=[89, 0]),\n",
      "   midi.NoteOnEvent(tick=0, channel=0, data=[103, 138]),\n",
      "   midi.NoteOnEvent(tick=0, channel=0, data=[26, 223]),\n",
      "   midi.NoteOffEvent(tick=2, channel=0, data=[122, 0]),\n",
      "   midi.NoteOnEvent(tick=4, channel=0, data=[0, 196]),\n",
      "   midi.NoteOnEvent(tick=1, channel=0, data=[62, 243]),\n",
      "   midi.NoteOnEvent(tick=2, channel=0, data=[121, 4]),\n",
      "   midi.NoteOnEvent(tick=1, channel=0, data=[12, 194]),\n",
      "   midi.NoteOnEvent(tick=2, channel=0, data=[105, 159]),\n",
      "   midi.NoteOnEvent(tick=4, channel=0, data=[87, 246]),\n",
      "   midi.NoteOnEvent(tick=0, channel=0, data=[8, 72]),\n",
      "   midi.NoteOnEvent(tick=4, channel=0, data=[7, 101]),\n",
      "   midi.NoteOnEvent(tick=8, channel=0, data=[117, 202]),\n",
      "   midi.NoteOnEvent(tick=1, channel=0, data=[78, 117]),\n",
      "   midi.NoteOnEvent(tick=6, channel=0, data=[0, 198]),\n",
      "   midi.NoteOnEvent(tick=0, channel=0, data=[120, 117]),\n",
      "   midi.NoteOnEvent(tick=5, channel=0, data=[99, 33]),\n",
      "   midi.NoteOnEvent(tick=3, channel=0, data=[37, 197]),\n",
      "   midi.NoteOnEvent(tick=3, channel=0, data=[9, 79]),\n",
      "   midi.NoteOnEvent(tick=7, channel=0, data=[117, 203]),\n",
      "   midi.NoteOffEvent(tick=1, channel=0, data=[121, 0]),\n",
      "   midi.NoteOnEvent(tick=1, channel=0, data=[126, 243]),\n",
      "   midi.NoteOnEvent(tick=5, channel=0, data=[5, 121]),\n",
      "   midi.NoteOnEvent(tick=3, channel=0, data=[76, 171]),\n",
      "   midi.NoteOnEvent(tick=7, channel=0, data=[113, 68]),\n",
      "   midi.NoteOnEvent(tick=1, channel=0, data=[17, 234]),\n",
      "   midi.NoteOnEvent(tick=2, channel=0, data=[92, 85]),\n",
      "   midi.NoteOffEvent(tick=3, channel=0, data=[37, 0]),\n",
      "   midi.NoteOffEvent(tick=0, channel=0, data=[82, 0]),\n",
      "   midi.NoteOnEvent(tick=2, channel=0, data=[122, 200]),\n",
      "   midi.NoteOnEvent(tick=0, channel=0, data=[1, 209]),\n",
      "   midi.NoteOnEvent(tick=1, channel=0, data=[28, 55]),\n",
      "   midi.NoteOnEvent(tick=5, channel=0, data=[48, 168]),\n",
      "   midi.NoteOffEvent(tick=7, channel=0, data=[18, 0]),\n",
      "   midi.NoteOnEvent(tick=0, channel=0, data=[18, 48]),\n",
      "   midi.NoteOnEvent(tick=6, channel=0, data=[34, 25]),\n",
      "   midi.NoteOnEvent(tick=1, channel=0, data=[95, 228]),\n",
      "   midi.NoteOnEvent(tick=1, channel=0, data=[20, 197]),\n",
      "   midi.NoteOnEvent(tick=1, channel=0, data=[8, 140]),\n",
      "   midi.NoteOnEvent(tick=10, channel=0, data=[111, 40]),\n",
      "   midi.NoteOnEvent(tick=4, channel=0, data=[102, 163]),\n",
      "   midi.NoteOnEvent(tick=2, channel=0, data=[94, 180]),\n",
      "   midi.NoteOnEvent(tick=1, channel=0, data=[118, 89]),\n",
      "   midi.NoteOnEvent(tick=2, channel=0, data=[103, 145]),\n",
      "   midi.NoteOnEvent(tick=2, channel=0, data=[112, 251]),\n",
      "   midi.NoteOnEvent(tick=0, channel=0, data=[112, 133]),\n",
      "   midi.NoteOffEvent(tick=3, channel=0, data=[23, 0]),\n",
      "   midi.NoteOnEvent(tick=0, channel=0, data=[62, 19]),\n",
      "   midi.NoteOnEvent(tick=2, channel=0, data=[116, 36]),\n",
      "   midi.NoteOnEvent(tick=2, channel=0, data=[15, 16]),\n",
      "   midi.NoteOnEvent(tick=0, channel=0, data=[121, 90]),\n",
      "   midi.NoteOffEvent(tick=2, channel=0, data=[61, 0]),\n",
      "   midi.NoteOnEvent(tick=0, channel=0, data=[22, 247]),\n",
      "   midi.NoteOnEvent(tick=0, channel=0, data=[127, 18]),\n",
      "   midi.NoteOnEvent(tick=3, channel=0, data=[44, 241]),\n",
      "   midi.NoteOnEvent(tick=6, channel=0, data=[17, 78]),\n",
      "   midi.NoteOnEvent(tick=2, channel=0, data=[17, 59]),\n",
      "   midi.NoteOnEvent(tick=1, channel=0, data=[116, 1]),\n",
      "   midi.NoteOnEvent(tick=1, channel=0, data=[18, 143]),\n",
      "   midi.NoteOnEvent(tick=1, channel=0, data=[5, 249]),\n",
      "   midi.NoteOffEvent(tick=1, channel=0, data=[1, 0]),\n",
      "   midi.NoteOnEvent(tick=0, channel=0, data=[97, 110]),\n",
      "   midi.NoteOnEvent(tick=1, channel=0, data=[126, 208]),\n",
      "   midi.NoteOnEvent(tick=1, channel=0, data=[99, 129]),\n",
      "   midi.NoteOnEvent(tick=1, channel=0, data=[104, 227]),\n",
      "   midi.NoteOnEvent(tick=0, channel=0, data=[96, 233]),\n",
      "   midi.NoteOnEvent(tick=3, channel=0, data=[83, 138]),\n",
      "   midi.NoteOnEvent(tick=0, channel=0, data=[36, 250]),\n",
      "   midi.NoteOnEvent(tick=1, channel=0, data=[16, 193]),\n",
      "   midi.NoteOnEvent(tick=2, channel=0, data=[115, 17]),\n",
      "   midi.NoteOnEvent(tick=2, channel=0, data=[115, 48]),\n",
      "   midi.NoteOnEvent(tick=0, channel=0, data=[45, 68]),\n",
      "   midi.NoteOnEvent(tick=1, channel=0, data=[36, 181]),\n",
      "   midi.NoteOnEvent(tick=5, channel=0, data=[3, 177]),\n",
      "   midi.NoteOnEvent(tick=4, channel=0, data=[79, 120]),\n",
      "   midi.NoteOnEvent(tick=0, channel=0, data=[127, 192]),\n",
      "   midi.NoteOnEvent(tick=0, channel=0, data=[8, 251]),\n",
      "   midi.NoteOnEvent(tick=0, channel=0, data=[67, 120]),\n",
      "   midi.NoteOnEvent(tick=1, channel=0, data=[22, 130]),\n",
      "   midi.NoteOnEvent(tick=6, channel=0, data=[16, 120]),\n",
      "   midi.NoteOnEvent(tick=9, channel=0, data=[46, 31]),\n",
      "   midi.NoteOnEvent(tick=0, channel=0, data=[94, 91]),\n",
      "   midi.NoteOnEvent(tick=3, channel=0, data=[30, 232]),\n",
      "   midi.NoteOnEvent(tick=0, channel=0, data=[11, 146]),\n",
      "   midi.NoteOnEvent(tick=0, channel=0, data=[51, 63]),\n",
      "   midi.NoteOnEvent(tick=5, channel=0, data=[84, 205]),\n",
      "   midi.NoteOnEvent(tick=0, channel=0, data=[83, 42]),\n",
      "   midi.NoteOnEvent(tick=1, channel=0, data=[24, 189]),\n",
      "   midi.NoteOnEvent(tick=1, channel=0, data=[50, 241]),\n",
      "   midi.NoteOnEvent(tick=2, channel=0, data=[32, 25]),\n",
      "   midi.NoteOnEvent(tick=0, channel=0, data=[2, 104]),\n",
      "   midi.NoteOnEvent(tick=1, channel=0, data=[124, 225]),\n",
      "   midi.NoteOnEvent(tick=0, channel=0, data=[52, 202]),\n",
      "   midi.NoteOffEvent(tick=1, channel=0, data=[78, 0]),\n",
      "   midi.NoteOnEvent(tick=1, channel=0, data=[111, 207]),\n",
      "   midi.NoteOnEvent(tick=3, channel=0, data=[41, 184]),\n",
      "   midi.NoteOffEvent(tick=6, channel=0, data=[123, 0]),\n",
      "   midi.NoteOnEvent(tick=1, channel=0, data=[45, 234]),\n",
      "   midi.NoteOnEvent(tick=1, channel=0, data=[94, 230]),\n",
      "   midi.NoteOnEvent(tick=0, channel=0, data=[1, 67]),\n",
      "   midi.NoteOnEvent(tick=1, channel=0, data=[59, 66]),\n",
      "   midi.NoteOffEvent(tick=2, channel=0, data=[87, 0]),\n",
      "   midi.NoteOnEvent(tick=0, channel=0, data=[98, 196]),\n",
      "   midi.NoteOnEvent(tick=0, channel=0, data=[93, 162]),\n",
      "   midi.NoteOnEvent(tick=1, channel=0, data=[66, 7]),\n",
      "   midi.NoteOffEvent(tick=2, channel=0, data=[52, 0]),\n",
      "   midi.NoteOnEvent(tick=2, channel=0, data=[53, 139]),\n",
      "   midi.NoteOnEvent(tick=1, channel=0, data=[122, 132]),\n",
      "   midi.NoteOnEvent(tick=0, channel=0, data=[14, 19]),\n",
      "   midi.NoteOnEvent(tick=0, channel=0, data=[106, 69]),\n",
      "   midi.NoteOnEvent(tick=1, channel=0, data=[100, 33]),\n",
      "   midi.NoteOnEvent(tick=1, channel=0, data=[127, 206]),\n",
      "   midi.NoteOnEvent(tick=0, channel=0, data=[2, 55]),\n",
      "   midi.NoteOnEvent(tick=0, channel=0, data=[94, 29]),\n",
      "   midi.NoteOnEvent(tick=1, channel=0, data=[5, 207]),\n",
      "   midi.NoteOnEvent(tick=0, channel=0, data=[98, 141]),\n",
      "   midi.NoteOnEvent(tick=1, channel=0, data=[42, 129]),\n",
      "   midi.NoteOnEvent(tick=0, channel=0, data=[15, 153]),\n",
      "   midi.NoteOnEvent(tick=1, channel=0, data=[100, 98]),\n",
      "   midi.NoteOffEvent(tick=3, channel=0, data=[63, 0]),\n",
      "   midi.NoteOnEvent(tick=1, channel=0, data=[127, 238]),\n",
      "   midi.NoteOnEvent(tick=2, channel=0, data=[47, 19]),\n",
      "   midi.NoteOnEvent(tick=1, channel=0, data=[43, 254]),\n",
      "   midi.NoteOnEvent(tick=1, channel=0, data=[18, 128]),\n",
      "   midi.NoteOnEvent(tick=1, channel=0, data=[10, 230]),\n",
      "   midi.NoteOnEvent(tick=0, channel=0, data=[37, 84]),\n",
      "   midi.NoteOnEvent(tick=2, channel=0, data=[105, 240]),\n",
      "   midi.NoteOnEvent(tick=0, channel=0, data=[41, 238]),\n",
      "   midi.NoteOnEvent(tick=1, channel=0, data=[14, 188]),\n",
      "   midi.NoteOffEvent(tick=2, channel=0, data=[125, 0]),\n",
      "   midi.NoteOnEvent(tick=1, channel=0, data=[6, 203]),\n",
      "   midi.NoteOnEvent(tick=1, channel=0, data=[120, 138]),\n",
      "   midi.NoteOnEvent(tick=1, channel=0, data=[112, 197]),\n",
      "   midi.NoteOnEvent(tick=2, channel=0, data=[127, 26]),\n",
      "   midi.NoteOnEvent(tick=2, channel=0, data=[10, 183]),\n",
      "   midi.NoteOffEvent(tick=2, channel=0, data=[48, 0]),\n",
      "   midi.NoteOnEvent(tick=0, channel=0, data=[27, 79]),\n",
      "   midi.NoteOnEvent(tick=1, channel=0, data=[106, 178]),\n",
      "   midi.NoteOnEvent(tick=1, channel=0, data=[57, 26]),\n",
      "   midi.NoteOffEvent(tick=1, channel=0, data=[101, 0]),\n",
      "   midi.NoteOnEvent(tick=0, channel=0, data=[5, 76]),\n",
      "   midi.NoteOnEvent(tick=1, channel=0, data=[78, 204]),\n",
      "   midi.NoteOffEvent(tick=1, channel=0, data=[100, 0]),\n",
      "   midi.NoteOffEvent(tick=3, channel=0, data=[113, 0]),\n",
      "   midi.NoteOnEvent(tick=3, channel=0, data=[14, 17]),\n",
      "   midi.NoteOffEvent(tick=3, channel=0, data=[71, 0]),\n",
      "   midi.NoteOnEvent(tick=3, channel=0, data=[45, 6]),\n",
      "   midi.NoteOnEvent(tick=2, channel=0, data=[49, 1]),\n",
      "   midi.NoteOffEvent(tick=3, channel=0, data=[96, 0]),\n",
      "   midi.NoteOnEvent(tick=0, channel=0, data=[113, 88]),\n",
      "   midi.NoteOnEvent(tick=2, channel=0, data=[47, 57]),\n",
      "   midi.NoteOnEvent(tick=4, channel=0, data=[86, 192]),\n",
      "   midi.NoteOffEvent(tick=3, channel=0, data=[99, 0]),\n",
      "   midi.NoteOnEvent(tick=3, channel=0, data=[14, 155]),\n",
      "   midi.NoteOnEvent(tick=1, channel=0, data=[119, 8]),\n",
      "   midi.NoteOnEvent(tick=4, channel=0, data=[71, 19]),\n",
      "   midi.NoteOnEvent(tick=1, channel=0, data=[88, 239]),\n",
      "   midi.NoteOnEvent(tick=1, channel=0, data=[124, 157]),\n",
      "   midi.NoteOnEvent(tick=0, channel=0, data=[19, 12]),\n",
      "   midi.NoteOnEvent(tick=1, channel=0, data=[113, 130]),\n",
      "   midi.NoteOnEvent(tick=1, channel=0, data=[84, 202]),\n",
      "   midi.NoteOnEvent(tick=1, channel=0, data=[123, 13]),\n",
      "   midi.NoteOffEvent(tick=2, channel=0, data=[17, 0]),\n",
      "   midi.NoteOnEvent(tick=0, channel=0, data=[126, 162]),\n",
      "   midi.NoteOnEvent(tick=0, channel=0, data=[111, 123]),\n",
      "   midi.NoteOnEvent(tick=1, channel=0, data=[61, 137]),\n",
      "   midi.NoteOnEvent(tick=2, channel=0, data=[75, 201]),\n",
      "   midi.NoteOnEvent(tick=1, channel=0, data=[64, 165]),\n",
      "   midi.NoteOnEvent(tick=3, channel=0, data=[114, 62]),\n",
      "   midi.NoteOffEvent(tick=1, channel=0, data=[49, 0]),\n",
      "   midi.NoteOnEvent(tick=1, channel=0, data=[28, 228]),\n",
      "   midi.NoteOnEvent(tick=1, channel=0, data=[13, 15]),\n",
      "   midi.NoteOffEvent(tick=1, channel=0, data=[60, 0]),\n",
      "   midi.NoteOnEvent(tick=0, channel=0, data=[11, 155]),\n",
      "   midi.NoteOnEvent(tick=1, channel=0, data=[98, 94]),\n",
      "   midi.NoteOnEvent(tick=1, channel=0, data=[98, 182]),\n",
      "   midi.NoteOnEvent(tick=2, channel=0, data=[116, 232]),\n",
      "   midi.NoteOnEvent(tick=2, channel=0, data=[108, 203]),\n",
      "   midi.NoteOnEvent(tick=1, channel=0, data=[117, 35]),\n",
      "   midi.NoteOnEvent(tick=2, channel=0, data=[116, 45]),\n",
      "   midi.NoteOnEvent(tick=3, channel=0, data=[77, 215]),\n",
      "   midi.NoteOnEvent(tick=1, channel=0, data=[111, 60]),\n",
      "   midi.NoteOnEvent(tick=5, channel=0, data=[63, 16]),\n",
      "   midi.NoteOnEvent(tick=4, channel=0, data=[40, 88]),\n",
      "   midi.NoteOnEvent(tick=0, channel=0, data=[94, 73]),\n",
      "   midi.NoteOnEvent(tick=4, channel=0, data=[23, 144]),\n",
      "   midi.NoteOnEvent(tick=1, channel=0, data=[96, 50]),\n",
      "   midi.NoteOnEvent(tick=4, channel=0, data=[57, 245]),\n",
      "   midi.NoteOnEvent(tick=5, channel=0, data=[96, 141]),\n",
      "   midi.NoteOnEvent(tick=1, channel=0, data=[38, 230]),\n",
      "   midi.NoteOnEvent(tick=1, channel=0, data=[37, 153]),\n",
      "   midi.NoteOffEvent(tick=1, channel=0, data=[28, 0]),\n",
      "   midi.NoteOnEvent(tick=0, channel=0, data=[7, 239]),\n",
      "   midi.NoteOnEvent(tick=0, channel=0, data=[19, 185]),\n",
      "   midi.NoteOnEvent(tick=2, channel=0, data=[22, 11]),\n",
      "   midi.NoteOffEvent(tick=1, channel=0, data=[64, 0]),\n",
      "   midi.NoteOnEvent(tick=1, channel=0, data=[27, 192]),\n",
      "   midi.NoteOnEvent(tick=0, channel=0, data=[95, 182]),\n",
      "   midi.NoteOnEvent(tick=1, channel=0, data=[17, 200]),\n",
      "   midi.NoteOnEvent(tick=2, channel=0, data=[117, 114]),\n",
      "   midi.NoteOnEvent(tick=0, channel=0, data=[46, 31]),\n",
      "   midi.NoteOnEvent(tick=2, channel=0, data=[17, 132]),\n",
      "   midi.NoteOnEvent(tick=2, channel=0, data=[51, 157]),\n",
      "   midi.NoteOnEvent(tick=2, channel=0, data=[1, 225]),\n",
      "   midi.NoteOnEvent(tick=0, channel=0, data=[124, 218]),\n",
      "   midi.NoteOnEvent(tick=0, channel=0, data=[108, 5]),\n",
      "   midi.NoteOffEvent(tick=1, channel=0, data=[108, 0]),\n",
      "   midi.NoteOnEvent(tick=1, channel=0, data=[105, 148]),\n",
      "   midi.NoteOnEvent(tick=1, channel=0, data=[31, 86]),\n",
      "   midi.NoteOnEvent(tick=0, channel=0, data=[99, 189]),\n",
      "   midi.NoteOnEvent(tick=0, channel=0, data=[20, 220]),\n",
      "   midi.NoteOnEvent(tick=2, channel=0, data=[102, 133]),\n",
      "   midi.NoteOnEvent(tick=0, channel=0, data=[21, 211]),\n",
      "   midi.NoteOnEvent(tick=0, channel=0, data=[18, 175]),\n",
      "   midi.NoteOnEvent(tick=1, channel=0, data=[95, 93]),\n",
      "   midi.NoteOnEvent(tick=2, channel=0, data=[6, 159]),\n",
      "   midi.NoteOffEvent(tick=1, channel=0, data=[54, 0]),\n",
      "   midi.NoteOnEvent(tick=1, channel=0, data=[52, 43]),\n",
      "   midi.NoteOnEvent(tick=1, channel=0, data=[31, 170]),\n",
      "   midi.NoteOnEvent(tick=1, channel=0, data=[93, 25]),\n",
      "   midi.NoteOnEvent(tick=2, channel=0, data=[42, 208]),\n",
      "   midi.NoteOnEvent(tick=3, channel=0, data=[24, 103]),\n",
      "   midi.NoteOnEvent(tick=3, channel=0, data=[23, 179]),\n",
      "   midi.NoteOnEvent(tick=1, channel=0, data=[96, 23]),\n",
      "   midi.NoteOnEvent(tick=0, channel=0, data=[24, 134]),\n",
      "   midi.NoteOffEvent(tick=1, channel=0, data=[16, 0]),\n",
      "   midi.NoteOffEvent(tick=4, channel=0, data=[62, 0]),\n",
      "   midi.NoteOnEvent(tick=0, channel=0, data=[104, 50]),\n",
      "   midi.NoteOnEvent(tick=1, channel=0, data=[95, 191]),\n",
      "   midi.NoteOnEvent(tick=0, channel=0, data=[28, 219]),\n",
      "   midi.NoteOnEvent(tick=1, channel=0, data=[96, 44]),\n",
      "   midi.NoteOffEvent(tick=1, channel=0, data=[70, 0]),\n",
      "   midi.NoteOnEvent(tick=2, channel=0, data=[4, 51]),\n",
      "   midi.NoteOnEvent(tick=1, channel=0, data=[104, 158]),\n",
      "   midi.NoteOnEvent(tick=1, channel=0, data=[124, 233]),\n",
      "   midi.NoteOffEvent(tick=3, channel=0, data=[51, 0]),\n",
      "   midi.NoteOnEvent(tick=2, channel=0, data=[35, 75]),\n",
      "   midi.NoteOnEvent(tick=2, channel=0, data=[98, 136]),\n",
      "   midi.NoteOnEvent(tick=1, channel=0, data=[31, 13]),\n",
      "   midi.NoteOnEvent(tick=4, channel=0, data=[86, 186]),\n",
      "   midi.NoteOffEvent(tick=2, channel=0, data=[115, 0]),\n",
      "   midi.NoteOnEvent(tick=1, channel=0, data=[122, 26]),\n",
      "   midi.NoteOnEvent(tick=1, channel=0, data=[17, 3]),\n",
      "   midi.NoteOffEvent(tick=1, channel=0, data=[13, 0]),\n",
      "   midi.NoteOnEvent(tick=2, channel=0, data=[112, 4]),\n",
      "   midi.NoteOffEvent(tick=1, channel=0, data=[119, 0]),\n",
      "   midi.NoteOnEvent(tick=0, channel=0, data=[109, 153]),\n",
      "   midi.NoteOnEvent(tick=1, channel=0, data=[78, 224]),\n",
      "   midi.NoteOnEvent(tick=2, channel=0, data=[18, 57]),\n",
      "   midi.NoteOnEvent(tick=1, channel=0, data=[104, 35]),\n",
      "   midi.NoteOnEvent(tick=0, channel=0, data=[112, 230]),\n",
      "   midi.NoteOnEvent(tick=0, channel=0, data=[58, 131]),\n",
      "   midi.NoteOnEvent(tick=1, channel=0, data=[126, 153]),\n",
      "   midi.NoteOnEvent(tick=1, channel=0, data=[85, 190]),\n",
      "   midi.NoteOnEvent(tick=0, channel=0, data=[12, 29]),\n",
      "   midi.NoteOnEvent(tick=1, channel=0, data=[53, 202]),\n",
      "   midi.NoteOnEvent(tick=3, channel=0, data=[91, 71]),\n",
      "   midi.NoteOnEvent(tick=1, channel=0, data=[20, 163]),\n",
      "   midi.NoteOffEvent(tick=2, channel=0, data=[97, 0]),\n",
      "   midi.NoteOnEvent(tick=0, channel=0, data=[79, 3]),\n",
      "   midi.NoteOffEvent(tick=3, channel=0, data=[38, 0]),\n",
      "   midi.NoteOnEvent(tick=2, channel=0, data=[22, 118]),\n",
      "   midi.NoteOnEvent(tick=2, channel=0, data=[80, 2]),\n",
      "   midi.NoteOffEvent(tick=4, channel=0, data=[9, 0]),\n",
      "   midi.NoteOnEvent(tick=1, channel=0, data=[48, 185]),\n",
      "   midi.NoteOnEvent(tick=1, channel=0, data=[13, 72]),\n",
      "   midi.NoteOnEvent(tick=0, channel=0, data=[101, 155]),\n",
      "   midi.NoteOffEvent(tick=1, channel=0, data=[28, 0]),\n",
      "   midi.NoteOnEvent(tick=5, channel=0, data=[59, 63]),\n",
      "   midi.NoteOnEvent(tick=0, channel=0, data=[40, 188]),\n",
      "   midi.NoteOffEvent(tick=1, channel=0, data=[35, 0]),\n",
      "   midi.NoteOnEvent(tick=0, channel=0, data=[56, 28]),\n",
      "   midi.NoteOnEvent(tick=1, channel=0, data=[123, 76]),\n",
      "   midi.NoteOnEvent(tick=1, channel=0, data=[88, 37]),\n",
      "   midi.NoteOffEvent(tick=1, channel=0, data=[94, 0]),\n",
      "   midi.NoteOnEvent(tick=0, channel=0, data=[59, 190]),\n",
      "   midi.NoteOnEvent(tick=1, channel=0, data=[51, 42]),\n",
      "   midi.NoteOnEvent(tick=1, channel=0, data=[114, 33]),\n",
      "   midi.NoteOnEvent(tick=0, channel=0, data=[72, 211]),\n",
      "   midi.NoteOnEvent(tick=1, channel=0, data=[103, 129]),\n",
      "   midi.NoteOnEvent(tick=1, channel=0, data=[64, 71]),\n",
      "   midi.NoteOnEvent(tick=1, channel=0, data=[121, 182]),\n",
      "   midi.NoteOnEvent(tick=2, channel=0, data=[121, 101]),\n",
      "   midi.NoteOnEvent(tick=2, channel=0, data=[56, 34]),\n",
      "   midi.NoteOnEvent(tick=6, channel=0, data=[4, 86]),\n",
      "   midi.NoteOffEvent(tick=2, channel=0, data=[91, 0]),\n",
      "   midi.NoteOffEvent(tick=0, channel=0, data=[124, 0]),\n",
      "   midi.NoteOnEvent(tick=1, channel=0, data=[82, 120]),\n",
      "   midi.NoteOnEvent(tick=0, channel=0, data=[107, 144]),\n",
      "   midi.NoteOnEvent(tick=2, channel=0, data=[86, 255]),\n",
      "   midi.NoteOnEvent(tick=1, channel=0, data=[58, 159]),\n",
      "   midi.NoteOnEvent(tick=0, channel=0, data=[73, 232]),\n",
      "   midi.NoteOnEvent(tick=1, channel=0, data=[73, 180]),\n",
      "   midi.NoteOnEvent(tick=3, channel=0, data=[108, 193]),\n",
      "   midi.NoteOnEvent(tick=1, channel=0, data=[44, 24]),\n",
      "   midi.NoteOnEvent(tick=2, channel=0, data=[58, 61]),\n",
      "   midi.NoteOnEvent(tick=3, channel=0, data=[88, 250]),\n",
      "   midi.NoteOnEvent(tick=5, channel=0, data=[98, 229]),\n",
      "   midi.NoteOnEvent(tick=1, channel=0, data=[68, 47]),\n",
      "   midi.NoteOnEvent(tick=2, channel=0, data=[44, 149]),\n",
      "   midi.NoteOnEvent(tick=0, channel=0, data=[124, 132]),\n",
      "   midi.NoteOnEvent(tick=1, channel=0, data=[105, 162]),\n",
      "   midi.NoteOnEvent(tick=0, channel=0, data=[33, 147]),\n",
      "   midi.NoteOffEvent(tick=1, channel=0, data=[40, 0]),\n",
      "   midi.NoteOnEvent(tick=3, channel=0, data=[125, 135]),\n",
      "   midi.NoteOnEvent(tick=1, channel=0, data=[81, 0]),\n",
      "   midi.NoteOffEvent(tick=3, channel=0, data=[11, 0]),\n",
      "   midi.NoteOnEvent(tick=0, channel=0, data=[17, 115]),\n",
      "   midi.NoteOnEvent(tick=2, channel=0, data=[66, 19]),\n",
      "   midi.NoteOnEvent(tick=2, channel=0, data=[3, 40]),\n",
      "   midi.NoteOnEvent(tick=1, channel=0, data=[51, 220]),\n",
      "   midi.NoteOnEvent(tick=5, channel=0, data=[122, 201]),\n",
      "   midi.NoteOnEvent(tick=2, channel=0, data=[39, 202]),\n",
      "   midi.NoteOnEvent(tick=1, channel=0, data=[101, 148]),\n",
      "   midi.NoteOnEvent(tick=5, channel=0, data=[11, 125]),\n",
      "   midi.NoteOnEvent(tick=1, channel=0, data=[96, 161]),\n",
      "   midi.NoteOnEvent(tick=1, channel=0, data=[119, 218]),\n",
      "   midi.NoteOffEvent(tick=1, channel=0, data=[3, 0]),\n",
      "   midi.NoteOnEvent(tick=3, channel=0, data=[85, 81]),\n",
      "   midi.NoteOnEvent(tick=2, channel=0, data=[39, 94]),\n",
      "   midi.NoteOffEvent(tick=1, channel=0, data=[80, 0]),\n",
      "   midi.NoteOnEvent(tick=1, channel=0, data=[114, 68]),\n",
      "   midi.NoteOnEvent(tick=6, channel=0, data=[45, 236]),\n",
      "   midi.NoteOnEvent(tick=1, channel=0, data=[60, 94]),\n",
      "   midi.NoteOnEvent(tick=1, channel=0, data=[71, 231]),\n",
      "   midi.NoteOnEvent(tick=0, channel=0, data=[96, 136]),\n",
      "   midi.NoteOffEvent(tick=1, channel=0, data=[88, 0]),\n",
      "   midi.NoteOnEvent(tick=2, channel=0, data=[116, 10]),\n",
      "   midi.NoteOnEvent(tick=5, channel=0, data=[127, 192]),\n",
      "   midi.NoteOffEvent(tick=1, channel=0, data=[14, 0]),\n",
      "   midi.NoteOnEvent(tick=3, channel=0, data=[3, 110]),\n",
      "   midi.NoteOnEvent(tick=1, channel=0, data=[33, 166]),\n",
      "   midi.NoteOnEvent(tick=0, channel=0, data=[43, 166]),\n",
      "   midi.NoteOffEvent(tick=1, channel=0, data=[51, 0]),\n",
      "   midi.NoteOnEvent(tick=0, channel=0, data=[22, 177]),\n",
      "   midi.NoteOffEvent(tick=1, channel=0, data=[20, 0]),\n",
      "   midi.NoteOnEvent(tick=0, channel=0, data=[3, 133]),\n",
      "   midi.NoteOffEvent(tick=4, channel=0, data=[19, 0]),\n",
      "   midi.NoteOffEvent(tick=1, channel=0, data=[43, 0]),\n",
      "   midi.NoteOffEvent(tick=1, channel=0, data=[23, 0]),\n",
      "   midi.NoteOffEvent(tick=0, channel=0, data=[92, 0]),\n",
      "   midi.NoteOnEvent(tick=0, channel=0, data=[78, 157]),\n",
      "   midi.NoteOffEvent(tick=3, channel=0, data=[111, 0]),\n",
      "   midi.NoteOnEvent(tick=5, channel=0, data=[112, 176]),\n",
      "   midi.NoteOnEvent(tick=1, channel=0, data=[24, 138]),\n",
      "   midi.NoteOnEvent(tick=3, channel=0, data=[22, 2]),\n",
      "   midi.NoteOnEvent(tick=1, channel=0, data=[16, 245]),\n",
      "   midi.NoteOnEvent(tick=1, channel=0, data=[16, 137]),\n",
      "   midi.NoteOnEvent(tick=0, channel=0, data=[48, 229]),\n",
      "   midi.NoteOnEvent(tick=1, channel=0, data=[100, 55]),\n",
      "   midi.NoteOnEvent(tick=0, channel=0, data=[124, 51]),\n",
      "   midi.NoteOnEvent(tick=4, channel=0, data=[113, 44]),\n",
      "   midi.NoteOnEvent(tick=0, channel=0, data=[110, 80]),\n",
      "   midi.NoteOnEvent(tick=3, channel=0, data=[112, 204]),\n",
      "   midi.NoteOnEvent(tick=2, channel=0, data=[88, 188]),\n",
      "   midi.NoteOnEvent(tick=1, channel=0, data=[13, 188]),\n",
      "   midi.NoteOnEvent(tick=1, channel=0, data=[113, 159]),\n",
      "   midi.NoteOnEvent(tick=5, channel=0, data=[58, 226]),\n",
      "   midi.NoteOnEvent(tick=0, channel=0, data=[120, 248]),\n",
      "   midi.NoteOffEvent(tick=4, channel=0, data=[95, 0]),\n",
      "   midi.NoteOnEvent(tick=3, channel=0, data=[126, 235]),\n",
      "   midi.NoteOffEvent(tick=2, channel=0, data=[41, 0]),\n",
      "   midi.NoteOnEvent(tick=2, channel=0, data=[99, 86]),\n",
      "   midi.NoteOnEvent(tick=2, channel=0, data=[0, 245]),\n",
      "   midi.NoteOnEvent(tick=2, channel=0, data=[101, 166]),\n",
      "   midi.NoteOnEvent(tick=0, channel=0, data=[112, 56]),\n",
      "   midi.NoteOnEvent(tick=0, channel=0, data=[112, 41]),\n",
      "   midi.NoteOnEvent(tick=1, channel=0, data=[95, 122]),\n",
      "   midi.NoteOnEvent(tick=1, channel=0, data=[59, 235]),\n",
      "   midi.NoteOnEvent(tick=1, channel=0, data=[118, 155]),\n",
      "   midi.NoteOnEvent(tick=9, channel=0, data=[124, 174]),\n",
      "   midi.NoteOffEvent(tick=1, channel=0, data=[17, 0]),\n",
      "   midi.NoteOffEvent(tick=0, channel=0, data=[98, 0]),\n",
      "   midi.NoteOffEvent(tick=1, channel=0, data=[2, 0]),\n",
      "   midi.NoteOnEvent(tick=4, channel=0, data=[77, 66]),\n",
      "   midi.NoteOnEvent(tick=7, channel=0, data=[89, 237]),\n",
      "   midi.NoteOnEvent(tick=0, channel=0, data=[95, 135]),\n",
      "   midi.NoteOnEvent(tick=3, channel=0, data=[99, 111]),\n",
      "   midi.NoteOnEvent(tick=0, channel=0, data=[104, 146]),\n",
      "   midi.NoteOnEvent(tick=2, channel=0, data=[103, 55]),\n",
      "   midi.NoteOnEvent(tick=0, channel=0, data=[92, 190]),\n",
      "   midi.NoteOnEvent(tick=0, channel=0, data=[72, 176]),\n",
      "   midi.NoteOnEvent(tick=0, channel=0, data=[12, 81]),\n",
      "   midi.NoteOnEvent(tick=5, channel=0, data=[54, 127]),\n",
      "   midi.NoteOnEvent(tick=3, channel=0, data=[16, 7]),\n",
      "   midi.NoteOnEvent(tick=4, channel=0, data=[57, 26]),\n",
      "   midi.NoteOnEvent(tick=0, channel=0, data=[73, 21]),\n",
      "   midi.NoteOnEvent(tick=1, channel=0, data=[87, 204]),\n",
      "   midi.NoteOnEvent(tick=1, channel=0, data=[24, 145]),\n",
      "   midi.NoteOnEvent(tick=0, channel=0, data=[85, 247]),\n",
      "   midi.NoteOffEvent(tick=3, channel=0, data=[52, 0]),\n",
      "   midi.NoteOnEvent(tick=0, channel=0, data=[7, 146]),\n",
      "   midi.NoteOnEvent(tick=1, channel=0, data=[22, 82]),\n",
      "   midi.NoteOffEvent(tick=3, channel=0, data=[101, 0]),\n",
      "   midi.NoteOnEvent(tick=2, channel=0, data=[60, 181]),\n",
      "   midi.NoteOnEvent(tick=1, channel=0, data=[94, 92]),\n",
      "   midi.NoteOnEvent(tick=1, channel=0, data=[89, 171]),\n",
      "   midi.NoteOnEvent(tick=2, channel=0, data=[77, 116]),\n",
      "   midi.NoteOnEvent(tick=3, channel=0, data=[10, 51]),\n",
      "   midi.NoteOffEvent(tick=2, channel=0, data=[99, 0]),\n",
      "   midi.NoteOnEvent(tick=4, channel=0, data=[58, 171]),\n",
      "   midi.NoteOffEvent(tick=3, channel=0, data=[95, 0]),\n",
      "   midi.NoteOnEvent(tick=0, channel=0, data=[118, 105]),\n",
      "   midi.NoteOnEvent(tick=2, channel=0, data=[53, 138]),\n",
      "   midi.NoteOnEvent(tick=5, channel=0, data=[123, 111]),\n",
      "   midi.NoteOnEvent(tick=1, channel=0, data=[67, 133]),\n",
      "   midi.NoteOnEvent(tick=4, channel=0, data=[27, 68]),\n",
      "   midi.NoteOnEvent(tick=0, channel=0, data=[68, 6]),\n",
      "   midi.NoteOffEvent(tick=1, channel=0, data=[0, 0]),\n",
      "   midi.NoteOnEvent(tick=1, channel=0, data=[44, 161]),\n",
      "   midi.NoteOffEvent(tick=2, channel=0, data=[50, 0]),\n",
      "   midi.NoteOnEvent(tick=0, channel=0, data=[82, 217]),\n",
      "   midi.NoteOffEvent(tick=3, channel=0, data=[75, 0]),\n",
      "   midi.NoteOnEvent(tick=1, channel=0, data=[8, 239]),\n",
      "   midi.NoteOffEvent(tick=3, channel=0, data=[26, 0]),\n",
      "   midi.NoteOnEvent(tick=0, channel=0, data=[51, 224]),\n",
      "   midi.NoteOffEvent(tick=1, channel=0, data=[30, 0]),\n",
      "   midi.NoteOnEvent(tick=0, channel=0, data=[99, 3]),\n",
      "   midi.NoteOffEvent(tick=2, channel=0, data=[121, 0]),\n",
      "   midi.NoteOnEvent(tick=5, channel=0, data=[109, 10]),\n",
      "   midi.NoteOnEvent(tick=3, channel=0, data=[116, 116]),\n",
      "   midi.NoteOnEvent(tick=3, channel=0, data=[110, 82]),\n",
      "   midi.NoteOnEvent(tick=4, channel=0, data=[65, 136]),\n",
      "   midi.NoteOnEvent(tick=4, channel=0, data=[78, 34]),\n",
      "   midi.NoteOnEvent(tick=1, channel=0, data=[68, 242]),\n",
      "   midi.NoteOnEvent(tick=6, channel=0, data=[57, 236]),\n",
      "   midi.NoteOnEvent(tick=4, channel=0, data=[20, 251]),\n",
      "   midi.NoteOnEvent(tick=2, channel=0, data=[32, 164]),\n",
      "   midi.NoteOnEvent(tick=0, channel=0, data=[38, 215]),\n",
      "   midi.NoteOnEvent(tick=2, channel=0, data=[118, 203]),\n",
      "   midi.NoteOffEvent(tick=1, channel=0, data=[67, 0]),\n",
      "   midi.NoteOffEvent(tick=2, channel=0, data=[47, 0]),\n",
      "   midi.NoteOnEvent(tick=1, channel=0, data=[50, 120]),\n",
      "   midi.NoteOnEvent(tick=1, channel=0, data=[102, 89]),\n",
      "   midi.NoteOnEvent(tick=0, channel=0, data=[110, 104]),\n",
      "   midi.NoteOnEvent(tick=1, channel=0, data=[111, 158]),\n",
      "   midi.NoteOffEvent(tick=1, channel=0, data=[31, 0]),\n",
      "   midi.NoteOffEvent(tick=0, channel=0, data=[73, 0]),\n",
      "   midi.NoteOffEvent(tick=1, channel=0, data=[118, 0]),\n",
      "   midi.NoteOffEvent(tick=0, channel=0, data=[122, 0]),\n",
      "   midi.NoteOnEvent(tick=2, channel=0, data=[83, 182]),\n",
      "   midi.NoteOnEvent(tick=0, channel=0, data=[121, 215]),\n",
      "   midi.NoteOnEvent(tick=2, channel=0, data=[98, 29]),\n",
      "   midi.NoteOnEvent(tick=1, channel=0, data=[94, 181]),\n",
      "   midi.NoteOffEvent(tick=3, channel=0, data=[5, 0]),\n",
      "   midi.NoteOnEvent(tick=0, channel=0, data=[43, 11]),\n",
      "   midi.NoteOnEvent(tick=1, channel=0, data=[60, 215]),\n",
      "   midi.NoteOnEvent(tick=2, channel=0, data=[6, 137]),\n",
      "   midi.NoteOnEvent(tick=1, channel=0, data=[23, 41]),\n",
      "   midi.NoteOnEvent(tick=1, channel=0, data=[36, 188]),\n",
      "   midi.NoteOnEvent(tick=1, channel=0, data=[117, 1]),\n",
      "   midi.NoteOnEvent(tick=0, channel=0, data=[43, 219]),\n",
      "   midi.NoteOnEvent(tick=0, channel=0, data=[93, 41]),\n",
      "   midi.NoteOnEvent(tick=1, channel=0, data=[70, 81]),\n",
      "   midi.NoteOnEvent(tick=2, channel=0, data=[39, 4]),\n",
      "   midi.NoteOffEvent(tick=4, channel=0, data=[104, 0]),\n",
      "   midi.NoteOnEvent(tick=0, channel=0, data=[7, 4]),\n",
      "   midi.NoteOnEvent(tick=2, channel=0, data=[89, 217]),\n",
      "   midi.NoteOnEvent(tick=1, channel=0, data=[39, 93]),\n",
      "   midi.NoteOnEvent(tick=5, channel=0, data=[7, 107]),\n",
      "   midi.NoteOnEvent(tick=1, channel=0, data=[51, 141]),\n",
      "   midi.NoteOffEvent(tick=2, channel=0, data=[108, 0]),\n",
      "   midi.NoteOnEvent(tick=0, channel=0, data=[49, 59]),\n",
      "   midi.NoteOnEvent(tick=0, channel=0, data=[80, 28]),\n",
      "   midi.NoteOnEvent(tick=2, channel=0, data=[13, 174]),\n",
      "   midi.NoteOnEvent(tick=5, channel=0, data=[99, 23]),\n",
      "   midi.NoteOffEvent(tick=1, channel=0, data=[34, 0]),\n",
      "   midi.NoteOnEvent(tick=0, channel=0, data=[0, 33]),\n",
      "   midi.NoteOnEvent(tick=2, channel=0, data=[107, 70]),\n",
      "   midi.NoteOnEvent(tick=0, channel=0, data=[80, 186]),\n",
      "   midi.NoteOnEvent(tick=1, channel=0, data=[117, 33]),\n",
      "   midi.NoteOnEvent(tick=3, channel=0, data=[26, 53]),\n",
      "   midi.NoteOnEvent(tick=9, channel=0, data=[47, 246]),\n",
      "   midi.NoteOffEvent(tick=18, channel=0, data=[92, 0]),\n",
      "   midi.NoteOffEvent(tick=1, channel=0, data=[120, 0]),\n",
      "   midi.NoteOffEvent(tick=14, channel=0, data=[109, 0]),\n",
      "   midi.NoteOffEvent(tick=8, channel=0, data=[11, 0]),\n",
      "   midi.NoteOffEvent(tick=4, channel=0, data=[45, 0]),\n",
      "   midi.NoteOffEvent(tick=16, channel=0, data=[111, 0]),\n",
      "   midi.NoteOffEvent(tick=15, channel=0, data=[12, 0]),\n",
      "   midi.NoteOffEvent(tick=1, channel=0, data=[36, 0]),\n",
      "   midi.NoteOffEvent(tick=1, channel=0, data=[42, 0]),\n",
      "   midi.NoteOffEvent(tick=5, channel=0, data=[26, 0]),\n",
      "   midi.NoteOffEvent(tick=6, channel=0, data=[116, 0]),\n",
      "   midi.NoteOffEvent(tick=2, channel=0, data=[8, 0]),\n",
      "   midi.NoteOffEvent(tick=6, channel=0, data=[82, 0]),\n",
      "   midi.NoteOffEvent(tick=1, channel=0, data=[44, 0]),\n",
      "   midi.NoteOffEvent(tick=3, channel=0, data=[86, 0]),\n",
      "   midi.NoteOffEvent(tick=5, channel=0, data=[66, 0]),\n",
      "   midi.NoteOffEvent(tick=2, channel=0, data=[126, 0]),\n",
      "   midi.NoteOffEvent(tick=11, channel=0, data=[96, 0]),\n",
      "   midi.NoteOffEvent(tick=2, channel=0, data=[54, 0]),\n",
      "   midi.NoteOffEvent(tick=6, channel=0, data=[7, 0]),\n",
      "   midi.NoteOffEvent(tick=14, channel=0, data=[103, 0]),\n",
      "   midi.NoteOffEvent(tick=16, channel=0, data=[119, 0]),\n",
      "   midi.NoteOffEvent(tick=25, channel=0, data=[72, 0]),\n",
      "   midi.NoteOffEvent(tick=9, channel=0, data=[0, 0]),\n",
      "   midi.NoteOffEvent(tick=21, channel=0, data=[4, 0]),\n",
      "   midi.NoteOffEvent(tick=15, channel=0, data=[46, 0]),\n",
      "   midi.NoteOffEvent(tick=0, channel=0, data=[65, 0]),\n",
      "   midi.NoteOffEvent(tick=4, channel=0, data=[124, 0]),\n",
      "   midi.NoteOffEvent(tick=2, channel=0, data=[112, 0]),\n",
      "   midi.NoteOffEvent(tick=7, channel=0, data=[3, 0]),\n",
      "   midi.NoteOffEvent(tick=3, channel=0, data=[88, 0]),\n",
      "   midi.NoteOffEvent(tick=4, channel=0, data=[110, 0]),\n",
      "   midi.NoteOffEvent(tick=5, channel=0, data=[105, 0]),\n",
      "   midi.NoteOffEvent(tick=2, channel=0, data=[49, 0]),\n",
      "   midi.NoteOffEvent(tick=1, channel=0, data=[79, 0]),\n",
      "   midi.NoteOffEvent(tick=2, channel=0, data=[1, 0]),\n",
      "   midi.NoteOffEvent(tick=4, channel=0, data=[21, 0]),\n",
      "   midi.NoteOffEvent(tick=16, channel=0, data=[76, 0]),\n",
      "   midi.NoteOffEvent(tick=0, channel=0, data=[83, 0]),\n",
      "   midi.NoteOffEvent(tick=1, channel=0, data=[98, 0]),\n",
      "   midi.NoteOffEvent(tick=10, channel=0, data=[48, 0]),\n",
      "   midi.NoteOffEvent(tick=15, channel=0, data=[107, 0]),\n",
      "   midi.NoteOffEvent(tick=2, channel=0, data=[64, 0]),\n",
      "   midi.NoteOffEvent(tick=0, channel=0, data=[114, 0]),\n",
      "   midi.NoteOffEvent(tick=9, channel=0, data=[56, 0]),\n",
      "   midi.NoteOffEvent(tick=58, channel=0, data=[10, 0]),\n",
      "   midi.NoteOffEvent(tick=1, channel=0, data=[94, 0]),\n",
      "   midi.NoteOffEvent(tick=1, channel=0, data=[100, 0]),\n",
      "   midi.NoteOffEvent(tick=8, channel=0, data=[53, 0]),\n",
      "   midi.NoteOffEvent(tick=2, channel=0, data=[37, 0]),\n",
      "   midi.NoteOffEvent(tick=9, channel=0, data=[61, 0]),\n",
      "   midi.NoteOffEvent(tick=0, channel=0, data=[89, 0]),\n",
      "   midi.NoteOffEvent(tick=1, channel=0, data=[127, 0]),\n",
      "   midi.NoteOffEvent(tick=6, channel=0, data=[16, 0]),\n",
      "   midi.NoteOffEvent(tick=8, channel=0, data=[77, 0]),\n",
      "   midi.NoteOffEvent(tick=8, channel=0, data=[63, 0]),\n",
      "   midi.NoteOffEvent(tick=2, channel=0, data=[15, 0]),\n",
      "   midi.NoteOffEvent(tick=0, channel=0, data=[125, 0]),\n",
      "   midi.NoteOffEvent(tick=2, channel=0, data=[57, 0]),\n",
      "   midi.NoteOffEvent(tick=0, channel=0, data=[121, 0]),\n",
      "   midi.NoteOffEvent(tick=7, channel=0, data=[60, 0]),\n",
      "   midi.NoteOffEvent(tick=0, channel=0, data=[93, 0]),\n",
      "   midi.NoteOffEvent(tick=7, channel=0, data=[71, 0]),\n",
      "   midi.NoteOffEvent(tick=4, channel=0, data=[117, 0]),\n",
      "   midi.NoteOffEvent(tick=1, channel=0, data=[106, 0]),\n",
      "   midi.NoteOffEvent(tick=21, channel=0, data=[51, 0]),\n",
      "   midi.NoteOffEvent(tick=10, channel=0, data=[123, 0]),\n",
      "   midi.NoteOffEvent(tick=12, channel=0, data=[102, 0]),\n",
      "   midi.NoteOffEvent(tick=4, channel=0, data=[84, 0]),\n",
      "   midi.NoteOffEvent(tick=1, channel=0, data=[85, 0]),\n",
      "   midi.NoteOffEvent(tick=26, channel=0, data=[33, 0]),\n",
      "   midi.NoteOffEvent(tick=26, channel=0, data=[39, 0]),\n",
      "   midi.NoteOffEvent(tick=6, channel=0, data=[50, 0]),\n",
      "   midi.NoteOffEvent(tick=6, channel=0, data=[81, 0]),\n",
      "   midi.NoteOffEvent(tick=1, channel=0, data=[24, 0]),\n",
      "   midi.NoteOffEvent(tick=2, channel=0, data=[18, 0]),\n",
      "   midi.NoteOffEvent(tick=25, channel=0, data=[78, 0]),\n",
      "   midi.NoteOffEvent(tick=11, channel=0, data=[68, 0]),\n",
      "   midi.NoteOffEvent(tick=7, channel=0, data=[80, 0]),\n",
      "   midi.NoteOffEvent(tick=2, channel=0, data=[59, 0]),\n",
      "   midi.NoteOffEvent(tick=8, channel=0, data=[38, 0]),\n",
      "   midi.NoteOffEvent(tick=22, channel=0, data=[113, 0]),\n",
      "   midi.NoteOffEvent(tick=34, channel=0, data=[32, 0]),\n",
      "   midi.NoteOffEvent(tick=30, channel=0, data=[22, 0]),\n",
      "   midi.NoteOffEvent(tick=54, channel=0, data=[99, 0]),\n",
      "   midi.NoteOffEvent(tick=26, channel=0, data=[23, 0]),\n",
      "   midi.NoteOffEvent(tick=6, channel=0, data=[87, 0]),\n",
      "   midi.NoteOffEvent(tick=6, channel=0, data=[6, 0]),\n",
      "   midi.NoteOffEvent(tick=4, channel=0, data=[20, 0]),\n",
      "   midi.NoteOffEvent(tick=22, channel=0, data=[47, 0]),\n",
      "   midi.NoteOffEvent(tick=8, channel=0, data=[27, 0]),\n",
      "   midi.NoteOffEvent(tick=15, channel=0, data=[58, 0]),\n",
      "   midi.NoteOffEvent(tick=32, channel=0, data=[13, 0]),\n",
      "   midi.NoteOffEvent(tick=16, channel=0, data=[43, 0]),\n",
      "   midi.NoteOffEvent(tick=26, channel=0, data=[70, 0]),\n",
      "   midi.EndOfTrackEvent(tick=0, data=[])]),\n",
      " midi.Track(\\\n",
      "  [midi.SetTempoEvent(tick=0, data=[4, 147, 224]),\n",
      "   midi.ProgramChangeEvent(tick=0, channel=0, data=[70]),\n",
      "   midi.NoteOnEvent(tick=0, channel=0, data=[115, 159]),\n",
      "   midi.NoteOnEvent(tick=0, channel=0, data=[63, 14]),\n",
      "   midi.NoteOnEvent(tick=0, channel=0, data=[50, 185]),\n",
      "   midi.NoteOnEvent(tick=1, channel=0, data=[112, 138]),\n",
      "   midi.NoteOnEvent(tick=1, channel=0, data=[29, 244]),\n",
      "   midi.NoteOnEvent(tick=0, channel=0, data=[116, 239]),\n",
      "   midi.NoteOnEvent(tick=1, channel=0, data=[60, 189]),\n",
      "   midi.NoteOnEvent(tick=4, channel=0, data=[54, 52]),\n",
      "   midi.NoteOnEvent(tick=6, channel=0, data=[93, 160]),\n",
      "   midi.NoteOnEvent(tick=1, channel=0, data=[25, 226]),\n",
      "   midi.NoteOnEvent(tick=3, channel=0, data=[40, 254]),\n",
      "   midi.NoteOnEvent(tick=0, channel=0, data=[24, 70]),\n",
      "   midi.NoteOnEvent(tick=1, channel=0, data=[119, 250]),\n",
      "   midi.NoteOnEvent(tick=3, channel=0, data=[107, 116]),\n",
      "   midi.NoteOnEvent(tick=1, channel=0, data=[65, 0]),\n",
      "   midi.NoteOnEvent(tick=2, channel=0, data=[110, 159]),\n",
      "   midi.NoteOnEvent(tick=4, channel=0, data=[23, 63]),\n",
      "   midi.NoteOnEvent(tick=1, channel=0, data=[39, 199]),\n",
      "   midi.NoteOnEvent(tick=0, channel=0, data=[57, 166]),\n",
      "   midi.NoteOnEvent(tick=3, channel=0, data=[75, 59]),\n",
      "   midi.NoteOnEvent(tick=2, channel=0, data=[110, 184]),\n",
      "   midi.NoteOnEvent(tick=1, channel=0, data=[72, 180]),\n",
      "   midi.NoteOnEvent(tick=1, channel=0, data=[6, 59]),\n",
      "   midi.NoteOnEvent(tick=1, channel=0, data=[10, 167]),\n",
      "   midi.NoteOnEvent(tick=5, channel=0, data=[28, 163]),\n",
      "   midi.NoteOnEvent(tick=3, channel=0, data=[34, 221]),\n",
      "   midi.NoteOnEvent(tick=1, channel=0, data=[35, 213]),\n",
      "   midi.NoteOnEvent(tick=2, channel=0, data=[81, 53]),\n",
      "   midi.NoteOnEvent(tick=8, channel=0, data=[118, 111]),\n",
      "   midi.NoteOnEvent(tick=3, channel=0, data=[102, 216]),\n",
      "   midi.NoteOnEvent(tick=2, channel=0, data=[23, 239]),\n",
      "   midi.NoteOnEvent(tick=5, channel=0, data=[72, 7]),\n",
      "   midi.NoteOnEvent(tick=2, channel=0, data=[59, 125]),\n",
      "   midi.NoteOnEvent(tick=1, channel=0, data=[6, 140]),\n",
      "   midi.NoteOnEvent(tick=0, channel=0, data=[12, 80]),\n",
      "   midi.NoteOnEvent(tick=1, channel=0, data=[26, 54]),\n",
      "   midi.NoteOnEvent(tick=0, channel=0, data=[69, 246]),\n",
      "   midi.NoteOnEvent(tick=2, channel=0, data=[26, 142]),\n",
      "   midi.NoteOnEvent(tick=0, channel=0, data=[119, 53]),\n",
      "   midi.NoteOnEvent(tick=1, channel=0, data=[16, 181]),\n",
      "   midi.NoteOnEvent(tick=1, channel=0, data=[103, 140]),\n",
      "   midi.NoteOnEvent(tick=8, channel=0, data=[89, 149]),\n",
      "   midi.NoteOnEvent(tick=4, channel=0, data=[11, 144]),\n",
      "   midi.NoteOnEvent(tick=1, channel=0, data=[111, 205]),\n",
      "   midi.NoteOnEvent(tick=0, channel=0, data=[36, 208]),\n",
      "   midi.NoteOnEvent(tick=4, channel=0, data=[124, 1]),\n",
      "   midi.NoteOffEvent(tick=2, channel=0, data=[40, 0]),\n",
      "   midi.NoteOnEvent(tick=0, channel=0, data=[66, 0]),\n",
      "   midi.NoteOnEvent(tick=0, channel=0, data=[98, 171]),\n",
      "   midi.NoteOnEvent(tick=1, channel=0, data=[36, 2]),\n",
      "   midi.NoteOnEvent(tick=3, channel=0, data=[44, 64]),\n",
      "   midi.NoteOnEvent(tick=1, channel=0, data=[125, 191]),\n",
      "   midi.NoteOnEvent(tick=3, channel=0, data=[84, 44]),\n",
      "   midi.NoteOnEvent(tick=3, channel=0, data=[85, 50]),\n",
      "   midi.NoteOnEvent(tick=0, channel=0, data=[123, 131]),\n",
      "   midi.NoteOnEvent(tick=1, channel=0, data=[99, 176]),\n",
      "   midi.NoteOnEvent(tick=1, channel=0, data=[55, 189]),\n",
      "   midi.NoteOffEvent(tick=1, channel=0, data=[125, 0]),\n",
      "   midi.NoteOnEvent(tick=0, channel=0, data=[120, 232]),\n",
      "   midi.NoteOnEvent(tick=3, channel=0, data=[48, 159]),\n",
      "   midi.NoteOnEvent(tick=0, channel=0, data=[121, 217]),\n",
      "   midi.NoteOnEvent(tick=0, channel=0, data=[58, 32]),\n",
      "   midi.NoteOnEvent(tick=8, channel=0, data=[36, 240]),\n",
      "   midi.NoteOnEvent(tick=0, channel=0, data=[93, 142]),\n",
      "   midi.NoteOnEvent(tick=4, channel=0, data=[36, 177]),\n",
      "   midi.NoteOnEvent(tick=0, channel=0, data=[78, 141]),\n",
      "   midi.NoteOnEvent(tick=0, channel=0, data=[24, 133]),\n",
      "   midi.NoteOnEvent(tick=1, channel=0, data=[54, 233]),\n",
      "   midi.NoteOnEvent(tick=0, channel=0, data=[84, 231]),\n",
      "   midi.NoteOnEvent(tick=1, channel=0, data=[98, 229]),\n",
      "   midi.NoteOnEvent(tick=0, channel=0, data=[34, 219]),\n",
      "   midi.NoteOnEvent(tick=12, channel=0, data=[66, 194]),\n",
      "   midi.NoteOnEvent(tick=1, channel=0, data=[122, 85]),\n",
      "   midi.NoteOnEvent(tick=0, channel=0, data=[104, 30]),\n",
      "   midi.NoteOnEvent(tick=1, channel=0, data=[32, 233]),\n",
      "   midi.NoteOnEvent(tick=0, channel=0, data=[107, 173]),\n",
      "   midi.NoteOnEvent(tick=2, channel=0, data=[55, 160]),\n",
      "   midi.NoteOnEvent(tick=1, channel=0, data=[92, 125]),\n",
      "   midi.NoteOnEvent(tick=1, channel=0, data=[80, 94]),\n",
      "   midi.NoteOnEvent(tick=2, channel=0, data=[51, 165]),\n",
      "   midi.NoteOnEvent(tick=6, channel=0, data=[15, 130]),\n",
      "   midi.NoteOnEvent(tick=3, channel=0, data=[10, 200]),\n",
      "   midi.NoteOffEvent(tick=1, channel=0, data=[98, 0]),\n",
      "   midi.NoteOnEvent(tick=1, channel=0, data=[31, 94]),\n",
      "   midi.NoteOnEvent(tick=1, channel=0, data=[41, 53]),\n",
      "   midi.NoteOnEvent(tick=1, channel=0, data=[16, 51]),\n",
      "   midi.NoteOnEvent(tick=1, channel=0, data=[62, 212]),\n",
      "   midi.NoteOnEvent(tick=1, channel=0, data=[26, 212]),\n",
      "   midi.NoteOnEvent(tick=1, channel=0, data=[86, 13]),\n",
      "   midi.NoteOnEvent(tick=1, channel=0, data=[31, 240]),\n",
      "   midi.NoteOnEvent(tick=2, channel=0, data=[93, 207]),\n",
      "   midi.NoteOnEvent(tick=2, channel=0, data=[5, 144]),\n",
      "   midi.NoteOnEvent(tick=2, channel=0, data=[118, 61]),\n",
      "   midi.NoteOnEvent(tick=3, channel=0, data=[20, 176]),\n",
      "   midi.NoteOnEvent(tick=1, channel=0, data=[102, 86]),\n",
      "   midi.NoteOnEvent(tick=0, channel=0, data=[58, 120]),\n",
      "   midi.NoteOnEvent(tick=1, channel=0, data=[35, 237]),\n",
      "   midi.NoteOnEvent(tick=1, channel=0, data=[27, 162]),\n",
      "   midi.NoteOnEvent(tick=5, channel=0, data=[99, 111]),\n",
      "   midi.NoteOnEvent(tick=0, channel=0, data=[57, 188]),\n",
      "   midi.NoteOffEvent(tick=2, channel=0, data=[120, 0]),\n",
      "   midi.NoteOnEvent(tick=5, channel=0, data=[72, 192]),\n",
      "   midi.NoteOffEvent(tick=3, channel=0, data=[123, 0]),\n",
      "   midi.NoteOnEvent(tick=5, channel=0, data=[83, 39]),\n",
      "   midi.NoteOnEvent(tick=3, channel=0, data=[28, 222]),\n",
      "   midi.NoteOnEvent(tick=1, channel=0, data=[78, 187]),\n",
      "   midi.NoteOnEvent(tick=2, channel=0, data=[127, 62]),\n",
      "   midi.NoteOffEvent(tick=2, channel=0, data=[50, 0]),\n",
      "   midi.NoteOnEvent(tick=0, channel=0, data=[107, 116]),\n",
      "   midi.NoteOnEvent(tick=1, channel=0, data=[71, 239]),\n",
      "   midi.NoteOnEvent(tick=3, channel=0, data=[64, 46]),\n",
      "   midi.NoteOnEvent(tick=1, channel=0, data=[52, 255]),\n",
      "   midi.NoteOnEvent(tick=0, channel=0, data=[9, 104]),\n",
      "   midi.NoteOnEvent(tick=3, channel=0, data=[38, 95]),\n",
      "   midi.NoteOnEvent(tick=0, channel=0, data=[51, 220]),\n",
      "   midi.NoteOnEvent(tick=2, channel=0, data=[57, 189]),\n",
      "   midi.NoteOnEvent(tick=0, channel=0, data=[8, 180]),\n",
      "   midi.NoteOffEvent(tick=4, channel=0, data=[103, 0]),\n",
      "   midi.NoteOnEvent(tick=2, channel=0, data=[53, 184]),\n",
      "   midi.NoteOnEvent(tick=1, channel=0, data=[99, 16]),\n",
      "   midi.NoteOnEvent(tick=2, channel=0, data=[2, 238]),\n",
      "   midi.NoteOnEvent(tick=1, channel=0, data=[3, 13]),\n",
      "   midi.NoteOnEvent(tick=2, channel=0, data=[50, 97]),\n",
      "   midi.NoteOnEvent(tick=4, channel=0, data=[52, 60]),\n",
      "   midi.NoteOnEvent(tick=0, channel=0, data=[7, 205]),\n",
      "   midi.NoteOffEvent(tick=1, channel=0, data=[35, 0]),\n",
      "   midi.NoteOnEvent(tick=3, channel=0, data=[7, 23]),\n",
      "   midi.NoteOffEvent(tick=5, channel=0, data=[81, 0]),\n",
      "   midi.NoteOnEvent(tick=3, channel=0, data=[125, 196]),\n",
      "   midi.NoteOnEvent(tick=1, channel=0, data=[3, 231]),\n",
      "   midi.NoteOnEvent(tick=6, channel=0, data=[52, 62]),\n",
      "   midi.NoteOnEvent(tick=0, channel=0, data=[80, 46]),\n",
      "   midi.NoteOffEvent(tick=4, channel=0, data=[44, 0]),\n",
      "   midi.NoteOnEvent(tick=1, channel=0, data=[33, 176]),\n",
      "   midi.NoteOffEvent(tick=1, channel=0, data=[84, 0]),\n",
      "   midi.NoteOnEvent(tick=2, channel=0, data=[29, 6]),\n",
      "   midi.NoteOnEvent(tick=3, channel=0, data=[40, 78]),\n",
      "   midi.NoteOffEvent(tick=3, channel=0, data=[89, 0]),\n",
      "   midi.NoteOnEvent(tick=4, channel=0, data=[44, 106]),\n",
      "   midi.NoteOnEvent(tick=2, channel=0, data=[21, 217]),\n",
      "   midi.NoteOnEvent(tick=5, channel=0, data=[84, 3]),\n",
      "   midi.NoteOnEvent(tick=3, channel=0, data=[101, 3]),\n",
      "   midi.NoteOnEvent(tick=7, channel=0, data=[37, 11]),\n",
      "   midi.NoteOnEvent(tick=1, channel=0, data=[43, 145]),\n",
      "   midi.NoteOnEvent(tick=2, channel=0, data=[44, 172]),\n",
      "   midi.NoteOnEvent(tick=5, channel=0, data=[42, 75]),\n",
      "   midi.NoteOnEvent(tick=0, channel=0, data=[64, 34]),\n",
      "   midi.NoteOnEvent(tick=1, channel=0, data=[1, 68]),\n",
      "   midi.NoteOnEvent(tick=5, channel=0, data=[96, 133]),\n",
      "   midi.NoteOnEvent(tick=7, channel=0, data=[115, 191]),\n",
      "   midi.NoteOffEvent(tick=3, channel=0, data=[124, 0]),\n",
      "   midi.NoteOnEvent(tick=3, channel=0, data=[59, 37]),\n",
      "   midi.NoteOnEvent(tick=1, channel=0, data=[68, 80]),\n",
      "   midi.NoteOnEvent(tick=1, channel=0, data=[57, 215]),\n",
      "   midi.NoteOnEvent(tick=1, channel=0, data=[15, 0]),\n",
      "   midi.NoteOffEvent(tick=3, channel=0, data=[101, 0]),\n",
      "   midi.NoteOnEvent(tick=7, channel=0, data=[91, 87]),\n",
      "   midi.NoteOffEvent(tick=1, channel=0, data=[26, 0]),\n",
      "   midi.NoteOnEvent(tick=3, channel=0, data=[22, 94]),\n",
      "   midi.NoteOnEvent(tick=2, channel=0, data=[6, 56]),\n",
      "   midi.NoteOnEvent(tick=1, channel=0, data=[74, 21]),\n",
      "   midi.NoteOffEvent(tick=1, channel=0, data=[85, 0]),\n",
      "   midi.NoteOnEvent(tick=1, channel=0, data=[25, 104]),\n",
      "   midi.NoteOffEvent(tick=2, channel=0, data=[10, 0]),\n",
      "   midi.NoteOnEvent(tick=0, channel=0, data=[75, 255]),\n",
      "   midi.NoteOnEvent(tick=0, channel=0, data=[94, 178]),\n",
      "   midi.NoteOnEvent(tick=3, channel=0, data=[99, 252]),\n",
      "   midi.NoteOffEvent(tick=1, channel=0, data=[119, 0]),\n",
      "   midi.NoteOnEvent(tick=1, channel=0, data=[3, 101]),\n",
      "   midi.NoteOffEvent(tick=2, channel=0, data=[15, 0]),\n",
      "   midi.NoteOnEvent(tick=0, channel=0, data=[67, 4]),\n",
      "   midi.NoteOnEvent(tick=0, channel=0, data=[85, 67]),\n",
      "   midi.NoteOnEvent(tick=2, channel=0, data=[107, 253]),\n",
      "   midi.NoteOnEvent(tick=0, channel=0, data=[21, 101]),\n",
      "   midi.NoteOnEvent(tick=3, channel=0, data=[16, 246]),\n",
      "   midi.NoteOnEvent(tick=6, channel=0, data=[97, 55]),\n",
      "   midi.NoteOnEvent(tick=2, channel=0, data=[75, 95]),\n",
      "   midi.NoteOnEvent(tick=1, channel=0, data=[15, 140]),\n",
      "   midi.NoteOnEvent(tick=1, channel=0, data=[111, 27]),\n",
      "   midi.NoteOnEvent(tick=1, channel=0, data=[43, 142]),\n",
      "   midi.NoteOffEvent(tick=1, channel=0, data=[23, 0]),\n",
      "   midi.NoteOnEvent(tick=0, channel=0, data=[28, 226]),\n",
      "   midi.NoteOnEvent(tick=1, channel=0, data=[34, 37]),\n",
      "   midi.NoteOnEvent(tick=1, channel=0, data=[25, 223]),\n",
      "   midi.NoteOffEvent(tick=1, channel=0, data=[92, 0]),\n",
      "   midi.NoteOnEvent(tick=0, channel=0, data=[6, 187]),\n",
      "   midi.NoteOnEvent(tick=0, channel=0, data=[83, 250]),\n",
      "   midi.NoteOffEvent(tick=2, channel=0, data=[93, 0]),\n",
      "   midi.NoteOnEvent(tick=1, channel=0, data=[82, 243]),\n",
      "   midi.NoteOnEvent(tick=0, channel=0, data=[125, 101]),\n",
      "   midi.NoteOnEvent(tick=1, channel=0, data=[123, 25]),\n",
      "   midi.NoteOnEvent(tick=2, channel=0, data=[73, 126]),\n",
      "   midi.NoteOnEvent(tick=2, channel=0, data=[27, 253]),\n",
      "   midi.NoteOnEvent(tick=0, channel=0, data=[104, 199]),\n",
      "   midi.NoteOnEvent(tick=1, channel=0, data=[40, 72]),\n",
      "   midi.NoteOnEvent(tick=5, channel=0, data=[10, 85]),\n",
      "   midi.NoteOffEvent(tick=1, channel=0, data=[67, 0]),\n",
      "   midi.NoteOffEvent(tick=0, channel=0, data=[116, 0]),\n",
      "   midi.NoteOnEvent(tick=3, channel=0, data=[113, 184]),\n",
      "   midi.NoteOnEvent(tick=0, channel=0, data=[119, 230]),\n",
      "   midi.NoteOnEvent(tick=0, channel=0, data=[118, 83]),\n",
      "   midi.NoteOnEvent(tick=0, channel=0, data=[84, 243]),\n",
      "   midi.NoteOnEvent(tick=1, channel=0, data=[95, 142]),\n",
      "   midi.NoteOffEvent(tick=4, channel=0, data=[99, 0]),\n",
      "   midi.NoteOnEvent(tick=2, channel=0, data=[31, 47]),\n",
      "   midi.NoteOffEvent(tick=5, channel=0, data=[28, 0]),\n",
      "   midi.NoteOffEvent(tick=0, channel=0, data=[57, 0]),\n",
      "   midi.NoteOnEvent(tick=4, channel=0, data=[84, 23]),\n",
      "   midi.NoteOnEvent(tick=0, channel=0, data=[103, 19]),\n",
      "   midi.NoteOnEvent(tick=3, channel=0, data=[44, 38]),\n",
      "   midi.NoteOnEvent(tick=0, channel=0, data=[85, 150]),\n",
      "   midi.NoteOnEvent(tick=0, channel=0, data=[61, 150]),\n",
      "   midi.NoteOnEvent(tick=5, channel=0, data=[55, 157]),\n",
      "   midi.NoteOnEvent(tick=0, channel=0, data=[15, 24]),\n",
      "   midi.NoteOnEvent(tick=1, channel=0, data=[14, 89]),\n",
      "   midi.NoteOnEvent(tick=1, channel=0, data=[10, 112]),\n",
      "   midi.NoteOnEvent(tick=2, channel=0, data=[25, 147]),\n",
      "   midi.NoteOnEvent(tick=0, channel=0, data=[89, 106]),\n",
      "   midi.NoteOnEvent(tick=1, channel=0, data=[40, 242]),\n",
      "   midi.NoteOnEvent(tick=0, channel=0, data=[33, 218]),\n",
      "   midi.NoteOnEvent(tick=2, channel=0, data=[41, 220]),\n",
      "   midi.NoteOnEvent(tick=3, channel=0, data=[18, 119]),\n",
      "   midi.NoteOffEvent(tick=2, channel=0, data=[15, 0]),\n",
      "   midi.NoteOnEvent(tick=5, channel=0, data=[48, 8]),\n",
      "   midi.NoteOnEvent(tick=1, channel=0, data=[19, 123]),\n",
      "   midi.NoteOnEvent(tick=0, channel=0, data=[127, 230]),\n",
      "   midi.NoteOnEvent(tick=1, channel=0, data=[50, 232]),\n",
      "   midi.NoteOnEvent(tick=2, channel=0, data=[41, 153]),\n",
      "   midi.NoteOnEvent(tick=0, channel=0, data=[115, 182]),\n",
      "   midi.NoteOnEvent(tick=1, channel=0, data=[59, 216]),\n",
      "   midi.NoteOnEvent(tick=4, channel=0, data=[106, 12]),\n",
      "   midi.NoteOnEvent(tick=1, channel=0, data=[35, 171]),\n",
      "   midi.NoteOnEvent(tick=0, channel=0, data=[22, 109]),\n",
      "   midi.NoteOnEvent(tick=0, channel=0, data=[61, 58]),\n",
      "   midi.NoteOnEvent(tick=1, channel=0, data=[91, 2]),\n",
      "   midi.NoteOnEvent(tick=1, channel=0, data=[109, 73]),\n",
      "   midi.NoteOnEvent(tick=0, channel=0, data=[75, 9]),\n",
      "   midi.NoteOnEvent(tick=0, channel=0, data=[63, 172]),\n",
      "   midi.NoteOnEvent(tick=1, channel=0, data=[113, 130]),\n",
      "   midi.NoteOnEvent(tick=0, channel=0, data=[107, 118]),\n",
      "   midi.NoteOnEvent(tick=1, channel=0, data=[48, 0]),\n",
      "   midi.NoteOnEvent(tick=0, channel=0, data=[7, 156]),\n",
      "   midi.NoteOnEvent(tick=1, channel=0, data=[120, 203]),\n",
      "   midi.NoteOnEvent(tick=4, channel=0, data=[116, 1]),\n",
      "   midi.NoteOnEvent(tick=2, channel=0, data=[1, 143]),\n",
      "   midi.NoteOnEvent(tick=1, channel=0, data=[27, 110]),\n",
      "   midi.NoteOnEvent(tick=1, channel=0, data=[91, 84]),\n",
      "   midi.NoteOnEvent(tick=1, channel=0, data=[93, 140]),\n",
      "   midi.NoteOnEvent(tick=0, channel=0, data=[11, 67]),\n",
      "   midi.NoteOffEvent(tick=1, channel=0, data=[82, 0]),\n",
      "   midi.NoteOffEvent(tick=1, channel=0, data=[11, 0]),\n",
      "   midi.NoteOnEvent(tick=0, channel=0, data=[115, 169]),\n",
      "   midi.NoteOnEvent(tick=0, channel=0, data=[124, 81]),\n",
      "   midi.NoteOnEvent(tick=1, channel=0, data=[45, 225]),\n",
      "   midi.NoteOnEvent(tick=3, channel=0, data=[115, 81]),\n",
      "   midi.NoteOnEvent(tick=1, channel=0, data=[2, 122]),\n",
      "   midi.NoteOffEvent(tick=1, channel=0, data=[89, 0]),\n",
      "   midi.NoteOnEvent(tick=0, channel=0, data=[44, 161]),\n",
      "   midi.NoteOffEvent(tick=1, channel=0, data=[61, 0]),\n",
      "   midi.NoteOnEvent(tick=1, channel=0, data=[76, 157]),\n",
      "   midi.NoteOffEvent(tick=1, channel=0, data=[127, 0]),\n",
      "   midi.NoteOnEvent(tick=1, channel=0, data=[110, 107]),\n",
      "   midi.NoteOnEvent(tick=2, channel=0, data=[100, 28]),\n",
      "   midi.NoteOnEvent(tick=1, channel=0, data=[66, 114]),\n",
      "   midi.NoteOnEvent(tick=1, channel=0, data=[54, 215]),\n",
      "   midi.NoteOnEvent(tick=1, channel=0, data=[87, 212]),\n",
      "   midi.NoteOnEvent(tick=1, channel=0, data=[65, 8]),\n",
      "   midi.NoteOffEvent(tick=2, channel=0, data=[29, 0]),\n",
      "   midi.NoteOnEvent(tick=5, channel=0, data=[103, 141]),\n",
      "   midi.NoteOnEvent(tick=6, channel=0, data=[20, 24]),\n",
      "   midi.NoteOnEvent(tick=2, channel=0, data=[18, 59]),\n",
      "   midi.NoteOnEvent(tick=3, channel=0, data=[96, 43]),\n",
      "   midi.NoteOffEvent(tick=2, channel=0, data=[68, 0]),\n",
      "   midi.NoteOnEvent(tick=0, channel=0, data=[127, 129]),\n",
      "   midi.NoteOnEvent(tick=4, channel=0, data=[85, 62]),\n",
      "   midi.NoteOnEvent(tick=6, channel=0, data=[121, 167]),\n",
      "   midi.NoteOnEvent(tick=1, channel=0, data=[97, 52]),\n",
      "   midi.NoteOnEvent(tick=4, channel=0, data=[2, 36]),\n",
      "   midi.NoteOffEvent(tick=1, channel=0, data=[24, 0]),\n",
      "   midi.NoteOnEvent(tick=0, channel=0, data=[108, 115]),\n",
      "   midi.NoteOnEvent(tick=1, channel=0, data=[9, 177]),\n",
      "   midi.NoteOnEvent(tick=0, channel=0, data=[17, 88]),\n",
      "   midi.NoteOnEvent(tick=1, channel=0, data=[12, 212]),\n",
      "   midi.NoteOnEvent(tick=1, channel=0, data=[74, 42]),\n",
      "   midi.NoteOnEvent(tick=1, channel=0, data=[88, 138]),\n",
      "   midi.NoteOnEvent(tick=2, channel=0, data=[79, 129]),\n",
      "   midi.NoteOnEvent(tick=0, channel=0, data=[35, 79]),\n",
      "   midi.NoteOnEvent(tick=1, channel=0, data=[69, 60]),\n",
      "   midi.NoteOnEvent(tick=2, channel=0, data=[32, 49]),\n",
      "   midi.NoteOnEvent(tick=1, channel=0, data=[33, 24]),\n",
      "   midi.NoteOnEvent(tick=3, channel=0, data=[23, 93]),\n",
      "   midi.NoteOffEvent(tick=1, channel=0, data=[41, 0]),\n",
      "   midi.NoteOnEvent(tick=1, channel=0, data=[53, 108]),\n",
      "   midi.NoteOnEvent(tick=1, channel=0, data=[66, 207]),\n",
      "   midi.NoteOnEvent(tick=1, channel=0, data=[93, 122]),\n",
      "   midi.NoteOnEvent(tick=1, channel=0, data=[101, 1]),\n",
      "   midi.NoteOnEvent(tick=1, channel=0, data=[126, 116]),\n",
      "   midi.NoteOffEvent(tick=1, channel=0, data=[54, 0]),\n",
      "   midi.NoteOnEvent(tick=1, channel=0, data=[4, 126]),\n",
      "   midi.NoteOnEvent(tick=2, channel=0, data=[30, 95]),\n",
      "   midi.NoteOnEvent(tick=1, channel=0, data=[49, 118]),\n",
      "   midi.NoteOnEvent(tick=2, channel=0, data=[14, 71]),\n",
      "   midi.NoteOnEvent(tick=3, channel=0, data=[121, 117]),\n",
      "   midi.NoteOnEvent(tick=1, channel=0, data=[90, 184]),\n",
      "   midi.NoteOnEvent(tick=5, channel=0, data=[41, 45]),\n",
      "   midi.NoteOffEvent(tick=1, channel=0, data=[40, 0]),\n",
      "   midi.NoteOnEvent(tick=3, channel=0, data=[122, 223]),\n",
      "   midi.NoteOnEvent(tick=0, channel=0, data=[6, 42]),\n",
      "   midi.NoteOffEvent(tick=4, channel=0, data=[100, 0]),\n",
      "   midi.NoteOnEvent(tick=0, channel=0, data=[25, 70]),\n",
      "   midi.NoteOnEvent(tick=1, channel=0, data=[126, 190]),\n",
      "   midi.NoteOnEvent(tick=4, channel=0, data=[79, 21]),\n",
      "   midi.NoteOnEvent(tick=5, channel=0, data=[111, 204]),\n",
      "   midi.NoteOnEvent(tick=1, channel=0, data=[98, 121]),\n",
      "   midi.NoteOnEvent(tick=1, channel=0, data=[72, 32]),\n",
      "   midi.NoteOnEvent(tick=1, channel=0, data=[101, 109]),\n",
      "   midi.NoteOnEvent(tick=0, channel=0, data=[119, 120]),\n",
      "   midi.NoteOnEvent(tick=2, channel=0, data=[37, 22]),\n",
      "   midi.NoteOnEvent(tick=2, channel=0, data=[9, 108]),\n",
      "   midi.NoteOnEvent(tick=0, channel=0, data=[111, 37]),\n",
      "   midi.NoteOffEvent(tick=1, channel=0, data=[104, 0]),\n",
      "   midi.NoteOnEvent(tick=0, channel=0, data=[35, 195]),\n",
      "   midi.NoteOffEvent(tick=2, channel=0, data=[16, 0]),\n",
      "   midi.NoteOnEvent(tick=0, channel=0, data=[44, 57]),\n",
      "   midi.NoteOnEvent(tick=0, channel=0, data=[15, 87]),\n",
      "   midi.NoteOnEvent(tick=2, channel=0, data=[73, 130]),\n",
      "   midi.NoteOffEvent(tick=1, channel=0, data=[87, 0]),\n",
      "   midi.NoteOnEvent(tick=1, channel=0, data=[126, 63]),\n",
      "   midi.NoteOnEvent(tick=2, channel=0, data=[34, 77]),\n",
      "   midi.NoteOnEvent(tick=0, channel=0, data=[56, 234]),\n",
      "   midi.NoteOnEvent(tick=0, channel=0, data=[23, 198]),\n",
      "   midi.NoteOnEvent(tick=2, channel=0, data=[86, 154]),\n",
      "   midi.NoteOnEvent(tick=1, channel=0, data=[127, 131]),\n",
      "   midi.NoteOnEvent(tick=0, channel=0, data=[18, 98]),\n",
      "   midi.NoteOnEvent(tick=0, channel=0, data=[100, 83]),\n",
      "   midi.NoteOnEvent(tick=2, channel=0, data=[41, 212]),\n",
      "   midi.NoteOnEvent(tick=0, channel=0, data=[43, 213]),\n",
      "   midi.NoteOnEvent(tick=0, channel=0, data=[17, 87]),\n",
      "   midi.NoteOnEvent(tick=1, channel=0, data=[15, 49]),\n",
      "   midi.NoteOnEvent(tick=2, channel=0, data=[24, 113]),\n",
      "   midi.NoteOnEvent(tick=2, channel=0, data=[120, 121]),\n",
      "   midi.NoteOffEvent(tick=1, channel=0, data=[1, 0]),\n",
      "   midi.NoteOnEvent(tick=0, channel=0, data=[56, 32]),\n",
      "   midi.NoteOnEvent(tick=1, channel=0, data=[21, 180]),\n",
      "   midi.NoteOnEvent(tick=2, channel=0, data=[86, 21]),\n",
      "   midi.NoteOnEvent(tick=3, channel=0, data=[2, 43]),\n",
      "   midi.NoteOnEvent(tick=3, channel=0, data=[120, 50]),\n",
      "   midi.NoteOnEvent(tick=1, channel=0, data=[124, 221]),\n",
      "   midi.NoteOnEvent(tick=0, channel=0, data=[93, 116]),\n",
      "   midi.NoteOnEvent(tick=5, channel=0, data=[3, 105]),\n",
      "   midi.NoteOnEvent(tick=1, channel=0, data=[77, 186]),\n",
      "   midi.NoteOnEvent(tick=0, channel=0, data=[110, 215]),\n",
      "   midi.NoteOnEvent(tick=1, channel=0, data=[7, 141]),\n",
      "   midi.NoteOnEvent(tick=3, channel=0, data=[124, 89]),\n",
      "   midi.NoteOnEvent(tick=1, channel=0, data=[79, 58]),\n",
      "   midi.NoteOnEvent(tick=1, channel=0, data=[14, 85]),\n",
      "   midi.NoteOffEvent(tick=2, channel=0, data=[50, 0]),\n",
      "   midi.NoteOnEvent(tick=3, channel=0, data=[45, 252]),\n",
      "   midi.NoteOffEvent(tick=2, channel=0, data=[33, 0]),\n",
      "   midi.NoteOffEvent(tick=0, channel=0, data=[83, 0]),\n",
      "   midi.NoteOnEvent(tick=0, channel=0, data=[59, 91]),\n",
      "   midi.NoteOnEvent(tick=1, channel=0, data=[37, 245]),\n",
      "   midi.NoteOffEvent(tick=3, channel=0, data=[79, 0]),\n",
      "   midi.NoteOffEvent(tick=1, channel=0, data=[80, 0]),\n",
      "   midi.NoteOnEvent(tick=0, channel=0, data=[33, 233]),\n",
      "   midi.NoteOnEvent(tick=3, channel=0, data=[77, 86]),\n",
      "   midi.NoteOnEvent(tick=1, channel=0, data=[55, 197]),\n",
      "   midi.NoteOnEvent(tick=3, channel=0, data=[59, 203]),\n",
      "   midi.NoteOnEvent(tick=1, channel=0, data=[72, 25]),\n",
      "   midi.NoteOffEvent(tick=1, channel=0, data=[62, 0]),\n",
      "   midi.NoteOnEvent(tick=0, channel=0, data=[41, 195]),\n",
      "   midi.NoteOnEvent(tick=2, channel=0, data=[16, 146]),\n",
      "   midi.NoteOnEvent(tick=1, channel=0, data=[69, 118]),\n",
      "   midi.NoteOnEvent(tick=0, channel=0, data=[91, 249]),\n",
      "   midi.NoteOnEvent(tick=0, channel=0, data=[7, 29]),\n",
      "   midi.NoteOnEvent(tick=1, channel=0, data=[54, 95]),\n",
      "   midi.NoteOnEvent(tick=1, channel=0, data=[11, 34]),\n",
      "   midi.NoteOnEvent(tick=0, channel=0, data=[95, 140]),\n",
      "   midi.NoteOnEvent(tick=1, channel=0, data=[8, 243]),\n",
      "   midi.NoteOnEvent(tick=3, channel=0, data=[85, 82]),\n",
      "   midi.NoteOnEvent(tick=1, channel=0, data=[120, 142]),\n",
      "   midi.NoteOnEvent(tick=2, channel=0, data=[106, 245]),\n",
      "   midi.NoteOnEvent(tick=5, channel=0, data=[68, 98]),\n",
      "   midi.NoteOffEvent(tick=1, channel=0, data=[72, 0]),\n",
      "   midi.NoteOffEvent(tick=1, channel=0, data=[123, 0]),\n",
      "   midi.NoteOnEvent(tick=0, channel=0, data=[71, 106]),\n",
      "   midi.NoteOffEvent(tick=4, channel=0, data=[5, 0]),\n",
      "   midi.NoteOnEvent(tick=1, channel=0, data=[3, 172]),\n",
      "   midi.NoteOnEvent(tick=1, channel=0, data=[13, 142]),\n",
      "   midi.NoteOnEvent(tick=0, channel=0, data=[82, 146]),\n",
      "   midi.NoteOnEvent(tick=6, channel=0, data=[5, 208]),\n",
      "   midi.NoteOnEvent(tick=0, channel=0, data=[31, 152]),\n",
      "   midi.NoteOnEvent(tick=1, channel=0, data=[110, 169]),\n",
      "   midi.NoteOffEvent(tick=1, channel=0, data=[64, 0]),\n",
      "   midi.NoteOnEvent(tick=0, channel=0, data=[3, 28]),\n",
      "   midi.NoteOnEvent(tick=1, channel=0, data=[101, 124]),\n",
      "   midi.NoteOnEvent(tick=1, channel=0, data=[63, 198]),\n",
      "   midi.NoteOnEvent(tick=1, channel=0, data=[42, 177]),\n",
      "   midi.NoteOffEvent(tick=1, channel=0, data=[35, 0]),\n",
      "   midi.NoteOnEvent(tick=0, channel=0, data=[26, 12]),\n",
      "   midi.NoteOnEvent(tick=0, channel=0, data=[67, 128]),\n",
      "   midi.NoteOnEvent(tick=1, channel=0, data=[11, 82]),\n",
      "   midi.NoteOnEvent(tick=1, channel=0, data=[121, 62]),\n",
      "   midi.NoteOnEvent(tick=1, channel=0, data=[87, 203]),\n",
      "   midi.NoteOffEvent(tick=1, channel=0, data=[52, 0]),\n",
      "   midi.NoteOnEvent(tick=1, channel=0, data=[26, 159]),\n",
      "   midi.NoteOffEvent(tick=2, channel=0, data=[69, 0]),\n",
      "   midi.NoteOnEvent(tick=0, channel=0, data=[5, 14]),\n",
      "   midi.NoteOffEvent(tick=4, channel=0, data=[78, 0]),\n",
      "   midi.NoteOffEvent(tick=2, channel=0, data=[88, 0]),\n",
      "   midi.NoteOnEvent(tick=0, channel=0, data=[73, 105]),\n",
      "   midi.NoteOnEvent(tick=3, channel=0, data=[83, 225]),\n",
      "   midi.NoteOnEvent(tick=0, channel=0, data=[103, 19]),\n",
      "   midi.NoteOnEvent(tick=2, channel=0, data=[59, 151]),\n",
      "   midi.NoteOnEvent(tick=1, channel=0, data=[58, 153]),\n",
      "   midi.NoteOnEvent(tick=0, channel=0, data=[110, 238]),\n",
      "   midi.NoteOnEvent(tick=1, channel=0, data=[95, 63]),\n",
      "   midi.NoteOnEvent(tick=3, channel=0, data=[59, 6]),\n",
      "   midi.NoteOnEvent(tick=1, channel=0, data=[59, 146]),\n",
      "   midi.NoteOnEvent(tick=2, channel=0, data=[72, 182]),\n",
      "   midi.NoteOnEvent(tick=3, channel=0, data=[89, 1]),\n",
      "   midi.NoteOffEvent(tick=5, channel=0, data=[126, 0]),\n",
      "   midi.NoteOnEvent(tick=0, channel=0, data=[76, 189]),\n",
      "   midi.NoteOnEvent(tick=1, channel=0, data=[85, 161]),\n",
      "   midi.NoteOffEvent(tick=1, channel=0, data=[39, 0]),\n",
      "   midi.NoteOffEvent(tick=1, channel=0, data=[127, 0]),\n",
      "   midi.NoteOnEvent(tick=0, channel=0, data=[29, 130]),\n",
      "   midi.NoteOnEvent(tick=0, channel=0, data=[8, 115]),\n",
      "   midi.NoteOnEvent(tick=1, channel=0, data=[12, 219]),\n",
      "   midi.NoteOnEvent(tick=0, channel=0, data=[119, 230]),\n",
      "   midi.NoteOffEvent(tick=4, channel=0, data=[48, 0]),\n",
      "   midi.NoteOnEvent(tick=0, channel=0, data=[120, 151]),\n",
      "   midi.NoteOnEvent(tick=1, channel=0, data=[84, 233]),\n",
      "   midi.NoteOffEvent(tick=1, channel=0, data=[75, 0]),\n",
      "   midi.NoteOnEvent(tick=2, channel=0, data=[12, 26]),\n",
      "   midi.NoteOnEvent(tick=2, channel=0, data=[100, 5]),\n",
      "   midi.NoteOffEvent(tick=1, channel=0, data=[33, 0]),\n",
      "   midi.NoteOnEvent(tick=1, channel=0, data=[44, 234]),\n",
      "   midi.NoteOnEvent(tick=1, channel=0, data=[50, 236]),\n",
      "   midi.NoteOnEvent(tick=5, channel=0, data=[110, 178]),\n",
      "   midi.NoteOffEvent(tick=1, channel=0, data=[74, 0]),\n",
      "   midi.NoteOnEvent(tick=1, channel=0, data=[83, 159]),\n",
      "   midi.NoteOnEvent(tick=1, channel=0, data=[32, 244]),\n",
      "   midi.NoteOnEvent(tick=5, channel=0, data=[73, 224]),\n",
      "   midi.NoteOnEvent(tick=1, channel=0, data=[94, 51]),\n",
      "   midi.NoteOnEvent(tick=1, channel=0, data=[127, 132]),\n",
      "   midi.NoteOffEvent(tick=3, channel=0, data=[41, 0]),\n",
      "   midi.NoteOnEvent(tick=1, channel=0, data=[127, 168]),\n",
      "   midi.NoteOnEvent(tick=2, channel=0, data=[73, 213]),\n",
      "   midi.NoteOnEvent(tick=2, channel=0, data=[84, 55]),\n",
      "   midi.NoteOffEvent(tick=3, channel=0, data=[67, 0]),\n",
      "   midi.NoteOffEvent(tick=3, channel=0, data=[16, 0]),\n",
      "   midi.NoteOffEvent(tick=0, channel=0, data=[65, 0]),\n",
      "   midi.NoteOnEvent(tick=0, channel=0, data=[47, 9]),\n",
      "   midi.NoteOnEvent(tick=1, channel=0, data=[104, 69]),\n",
      "   midi.NoteOnEvent(tick=1, channel=0, data=[120, 174]),\n",
      "   midi.NoteOnEvent(tick=0, channel=0, data=[14, 181]),\n",
      "   midi.NoteOffEvent(tick=2, channel=0, data=[115, 0]),\n",
      "   midi.NoteOnEvent(tick=1, channel=0, data=[11, 207]),\n",
      "   midi.NoteOnEvent(tick=5, channel=0, data=[64, 61]),\n",
      "   midi.NoteOffEvent(tick=1, channel=0, data=[60, 0]),\n",
      "   midi.NoteOnEvent(tick=3, channel=0, data=[55, 137]),\n",
      "   midi.NoteOffEvent(tick=1, channel=0, data=[100, 0]),\n",
      "   midi.NoteOnEvent(tick=0, channel=0, data=[51, 84]),\n",
      "   midi.NoteOnEvent(tick=0, channel=0, data=[13, 47]),\n",
      "   midi.NoteOnEvent(tick=1, channel=0, data=[110, 138]),\n",
      "   midi.NoteOnEvent(tick=1, channel=0, data=[71, 253]),\n",
      "   midi.NoteOffEvent(tick=1, channel=0, data=[102, 0]),\n",
      "   midi.NoteOffEvent(tick=3, channel=0, data=[66, 0]),\n",
      "   midi.NoteOnEvent(tick=2, channel=0, data=[45, 51]),\n",
      "   midi.NoteOffEvent(tick=8, channel=0, data=[91, 0]),\n",
      "   midi.NoteOnEvent(tick=0, channel=0, data=[98, 48]),\n",
      "   midi.NoteOnEvent(tick=1, channel=0, data=[116, 132]),\n",
      "   midi.NoteOffEvent(tick=2, channel=0, data=[43, 0]),\n",
      "   midi.NoteOnEvent(tick=1, channel=0, data=[60, 127]),\n",
      "   midi.NoteOnEvent(tick=1, channel=0, data=[116, 170]),\n",
      "   midi.NoteOnEvent(tick=1, channel=0, data=[102, 162]),\n",
      "   midi.NoteOnEvent(tick=0, channel=0, data=[35, 209]),\n",
      "   midi.NoteOffEvent(tick=1, channel=0, data=[5, 0]),\n",
      "   midi.NoteOnEvent(tick=0, channel=0, data=[29, 189]),\n",
      "   midi.NoteOnEvent(tick=0, channel=0, data=[81, 251]),\n",
      "   midi.NoteOnEvent(tick=4, channel=0, data=[94, 177]),\n",
      "   midi.NoteOnEvent(tick=0, channel=0, data=[94, 10]),\n",
      "   midi.NoteOffEvent(tick=2, channel=0, data=[49, 0]),\n",
      "   midi.NoteOnEvent(tick=1, channel=0, data=[64, 179]),\n",
      "   midi.NoteOnEvent(tick=2, channel=0, data=[88, 167]),\n",
      "   midi.NoteOnEvent(tick=1, channel=0, data=[83, 137]),\n",
      "   midi.NoteOnEvent(tick=1, channel=0, data=[55, 145]),\n",
      "   midi.NoteOnEvent(tick=5, channel=0, data=[126, 190]),\n",
      "   midi.NoteOnEvent(tick=0, channel=0, data=[102, 155]),\n",
      "   midi.NoteOffEvent(tick=1, channel=0, data=[127, 0]),\n",
      "   midi.NoteOnEvent(tick=6, channel=0, data=[58, 213]),\n",
      "   midi.NoteOffEvent(tick=2, channel=0, data=[97, 0]),\n",
      "   midi.NoteOnEvent(tick=2, channel=0, data=[57, 228]),\n",
      "   midi.NoteOffEvent(tick=2, channel=0, data=[22, 0]),\n",
      "   midi.NoteOnEvent(tick=0, channel=0, data=[64, 183]),\n",
      "   midi.NoteOnEvent(tick=2, channel=0, data=[1, 229]),\n",
      "   midi.NoteOnEvent(tick=0, channel=0, data=[104, 184]),\n",
      "   midi.NoteOnEvent(tick=0, channel=0, data=[11, 187]),\n",
      "   midi.NoteOnEvent(tick=1, channel=0, data=[66, 224]),\n",
      "   midi.NoteOnEvent(tick=1, channel=0, data=[78, 149]),\n",
      "   midi.NoteOnEvent(tick=1, channel=0, data=[30, 58]),\n",
      "   midi.NoteOffEvent(tick=3, channel=0, data=[47, 0]),\n",
      "   midi.NoteOnEvent(tick=6, channel=0, data=[46, 151]),\n",
      "   midi.NoteOnEvent(tick=6, channel=0, data=[122, 81]),\n",
      "   midi.NoteOnEvent(tick=7, channel=0, data=[101, 150]),\n",
      "   midi.NoteOnEvent(tick=0, channel=0, data=[43, 100]),\n",
      "   midi.NoteOnEvent(tick=3, channel=0, data=[9, 62]),\n",
      "   midi.NoteOnEvent(tick=0, channel=0, data=[57, 38]),\n",
      "   midi.NoteOnEvent(tick=2, channel=0, data=[28, 128]),\n",
      "   midi.NoteOnEvent(tick=0, channel=0, data=[25, 104]),\n",
      "   midi.NoteOnEvent(tick=0, channel=0, data=[56, 7]),\n",
      "   midi.NoteOnEvent(tick=0, channel=0, data=[31, 158]),\n",
      "   midi.NoteOffEvent(tick=1, channel=0, data=[120, 0]),\n",
      "   midi.NoteOnEvent(tick=4, channel=0, data=[40, 222]),\n",
      "   midi.NoteOnEvent(tick=3, channel=0, data=[126, 37]),\n",
      "   midi.NoteOffEvent(tick=4, channel=0, data=[95, 0]),\n",
      "   midi.NoteOnEvent(tick=0, channel=0, data=[30, 177]),\n",
      "   midi.NoteOnEvent(tick=0, channel=0, data=[70, 91]),\n",
      "   midi.NoteOffEvent(tick=1, channel=0, data=[87, 0]),\n",
      "   midi.NoteOnEvent(tick=0, channel=0, data=[9, 85]),\n",
      "   midi.NoteOnEvent(tick=1, channel=0, data=[42, 67]),\n",
      "   midi.NoteOnEvent(tick=0, channel=0, data=[41, 231]),\n",
      "   midi.NoteOnEvent(tick=3, channel=0, data=[103, 158]),\n",
      "   midi.NoteOnEvent(tick=1, channel=0, data=[81, 214]),\n",
      "   midi.NoteOnEvent(tick=5, channel=0, data=[76, 180]),\n",
      "   midi.NoteOnEvent(tick=1, channel=0, data=[87, 0]),\n",
      "   midi.NoteOnEvent(tick=1, channel=0, data=[75, 48]),\n",
      "   midi.NoteOnEvent(tick=2, channel=0, data=[91, 227]),\n",
      "   midi.NoteOnEvent(tick=3, channel=0, data=[1, 133]),\n",
      "   midi.NoteOffEvent(tick=1, channel=0, data=[44, 0]),\n",
      "   midi.NoteOnEvent(tick=5, channel=0, data=[43, 228]),\n",
      "   midi.NoteOffEvent(tick=3, channel=0, data=[72, 0]),\n",
      "   midi.NoteOnEvent(tick=0, channel=0, data=[111, 133]),\n",
      "   midi.NoteOnEvent(tick=2, channel=0, data=[27, 234]),\n",
      "   midi.NoteOffEvent(tick=1, channel=0, data=[55, 0]),\n",
      "   midi.NoteOnEvent(tick=4, channel=0, data=[88, 164]),\n",
      "   midi.NoteOnEvent(tick=1, channel=0, data=[126, 193]),\n",
      "   midi.NoteOffEvent(tick=4, channel=0, data=[106, 0]),\n",
      "   midi.NoteOnEvent(tick=0, channel=0, data=[88, 181]),\n",
      "   midi.NoteOnEvent(tick=0, channel=0, data=[15, 153]),\n",
      "   midi.NoteOnEvent(tick=2, channel=0, data=[79, 132]),\n",
      "   midi.NoteOnEvent(tick=2, channel=0, data=[7, 74]),\n",
      "   midi.NoteOffEvent(tick=2, channel=0, data=[37, 0]),\n",
      "   midi.NoteOnEvent(tick=2, channel=0, data=[41, 152]),\n",
      "   midi.NoteOffEvent(tick=3, channel=0, data=[56, 0]),\n",
      "   midi.NoteOnEvent(tick=0, channel=0, data=[52, 187]),\n",
      "   midi.NoteOnEvent(tick=1, channel=0, data=[52, 29]),\n",
      "   midi.NoteOffEvent(tick=7, channel=0, data=[3, 0]),\n",
      "   midi.NoteOnEvent(tick=0, channel=0, data=[39, 55]),\n",
      "   midi.NoteOnEvent(tick=3, channel=0, data=[24, 247]),\n",
      "   midi.NoteOnEvent(tick=3, channel=0, data=[109, 108]),\n",
      "   midi.NoteOnEvent(tick=4, channel=0, data=[90, 158]),\n",
      "   midi.NoteOnEvent(tick=4, channel=0, data=[70, 18]),\n",
      "   midi.NoteOnEvent(tick=1, channel=0, data=[24, 208]),\n",
      "   midi.NoteOffEvent(tick=5, channel=0, data=[75, 0]),\n",
      "   midi.NoteOnEvent(tick=1, channel=0, data=[113, 73]),\n",
      "   midi.NoteOnEvent(tick=4, channel=0, data=[6, 241]),\n",
      "   midi.NoteOnEvent(tick=2, channel=0, data=[3, 201]),\n",
      "   midi.NoteOnEvent(tick=0, channel=0, data=[48, 83]),\n",
      "   midi.NoteOnEvent(tick=2, channel=0, data=[9, 191]),\n",
      "   midi.NoteOnEvent(tick=4, channel=0, data=[11, 205]),\n",
      "   midi.NoteOnEvent(tick=1, channel=0, data=[12, 41]),\n",
      "   midi.NoteOnEvent(tick=0, channel=0, data=[113, 75]),\n",
      "   midi.NoteOnEvent(tick=1, channel=0, data=[98, 64]),\n",
      "   midi.NoteOffEvent(tick=3, channel=0, data=[118, 0]),\n",
      "   midi.NoteOnEvent(tick=1, channel=0, data=[101, 94]),\n",
      "   midi.NoteOnEvent(tick=0, channel=0, data=[23, 198]),\n",
      "   midi.NoteOnEvent(tick=2, channel=0, data=[31, 55]),\n",
      "   midi.NoteOnEvent(tick=1, channel=0, data=[70, 163]),\n",
      "   midi.NoteOffEvent(tick=1, channel=0, data=[107, 0]),\n",
      "   midi.NoteOnEvent(tick=2, channel=0, data=[123, 122]),\n",
      "   midi.NoteOnEvent(tick=1, channel=0, data=[30, 164]),\n",
      "   midi.NoteOnEvent(tick=2, channel=0, data=[125, 28]),\n",
      "   midi.NoteOnEvent(tick=1, channel=0, data=[78, 153]),\n",
      "   midi.NoteOnEvent(tick=1, channel=0, data=[49, 28]),\n",
      "   midi.NoteOnEvent(tick=1, channel=0, data=[64, 163]),\n",
      "   midi.NoteOnEvent(tick=0, channel=0, data=[22, 28]),\n",
      "   midi.NoteOnEvent(tick=0, channel=0, data=[117, 217]),\n",
      "   midi.NoteOffEvent(tick=1, channel=0, data=[42, 0]),\n",
      "   midi.NoteOnEvent(tick=0, channel=0, data=[87, 22]),\n",
      "   midi.NoteOnEvent(tick=2, channel=0, data=[29, 60]),\n",
      "   midi.NoteOffEvent(tick=2, channel=0, data=[39, 0]),\n",
      "   midi.NoteOnEvent(tick=2, channel=0, data=[73, 190]),\n",
      "   midi.NoteOnEvent(tick=2, channel=0, data=[102, 156]),\n",
      "   midi.NoteOffEvent(tick=1, channel=0, data=[3, 0]),\n",
      "   midi.NoteOnEvent(tick=0, channel=0, data=[109, 116]),\n",
      "   midi.NoteOnEvent(tick=5, channel=0, data=[5, 223]),\n",
      "   midi.NoteOnEvent(tick=1, channel=0, data=[71, 133]),\n",
      "   midi.NoteOnEvent(tick=2, channel=0, data=[112, 70]),\n",
      "   midi.NoteOnEvent(tick=0, channel=0, data=[15, 117]),\n",
      "   midi.NoteOffEvent(tick=1, channel=0, data=[84, 0]),\n",
      "   midi.NoteOffEvent(tick=1, channel=0, data=[38, 0]),\n",
      "   midi.NoteOnEvent(tick=0, channel=0, data=[116, 132]),\n",
      "   midi.NoteOffEvent(tick=4, channel=0, data=[87, 0]),\n",
      "   midi.NoteOnEvent(tick=1, channel=0, data=[50, 150]),\n",
      "   midi.NoteOnEvent(tick=1, channel=0, data=[119, 243]),\n",
      "   midi.NoteOffEvent(tick=1, channel=0, data=[111, 0]),\n",
      "   midi.NoteOnEvent(tick=1, channel=0, data=[102, 172]),\n",
      "   midi.NoteOnEvent(tick=0, channel=0, data=[53, 0]),\n",
      "   midi.NoteOnEvent(tick=1, channel=0, data=[75, 30]),\n",
      "   midi.NoteOnEvent(tick=3, channel=0, data=[36, 221]),\n",
      "   midi.NoteOnEvent(tick=9, channel=0, data=[63, 206]),\n",
      "   midi.NoteOffEvent(tick=15, channel=0, data=[14, 0]),\n",
      "   midi.NoteOffEvent(tick=1, channel=0, data=[108, 0]),\n",
      "   midi.NoteOffEvent(tick=0, channel=0, data=[116, 0]),\n",
      "   midi.NoteOffEvent(tick=2, channel=0, data=[34, 0]),\n",
      "   midi.NoteOffEvent(tick=5, channel=0, data=[93, 0]),\n",
      "   midi.NoteOffEvent(tick=2, channel=0, data=[19, 0]),\n",
      "   midi.NoteOffEvent(tick=5, channel=0, data=[109, 0]),\n",
      "   midi.NoteOffEvent(tick=21, channel=0, data=[32, 0]),\n",
      "   midi.NoteOffEvent(tick=13, channel=0, data=[41, 0]),\n",
      "   midi.NoteOffEvent(tick=18, channel=0, data=[73, 0]),\n",
      "   midi.NoteOffEvent(tick=1, channel=0, data=[28, 0]),\n",
      "   midi.NoteOffEvent(tick=5, channel=0, data=[121, 0]),\n",
      "   midi.NoteOffEvent(tick=8, channel=0, data=[86, 0]),\n",
      "   midi.NoteOffEvent(tick=15, channel=0, data=[77, 0]),\n",
      "   midi.NoteOffEvent(tick=1, channel=0, data=[96, 0]),\n",
      "   midi.NoteOffEvent(tick=6, channel=0, data=[119, 0]),\n",
      "   midi.NoteOffEvent(tick=7, channel=0, data=[103, 0]),\n",
      "   midi.NoteOffEvent(tick=21, channel=0, data=[60, 0]),\n",
      "   midi.NoteOffEvent(tick=14, channel=0, data=[53, 0]),\n",
      "   midi.NoteOffEvent(tick=13, channel=0, data=[4, 0]),\n",
      "   midi.NoteOffEvent(tick=4, channel=0, data=[54, 0]),\n",
      "   midi.NoteOffEvent(tick=3, channel=0, data=[26, 0]),\n",
      "   midi.NoteOffEvent(tick=3, channel=0, data=[17, 0]),\n",
      "   midi.NoteOffEvent(tick=4, channel=0, data=[82, 0]),\n",
      "   midi.NoteOffEvent(tick=20, channel=0, data=[10, 0]),\n",
      "   midi.NoteOffEvent(tick=6, channel=0, data=[21, 0]),\n",
      "   midi.NoteOffEvent(tick=16, channel=0, data=[81, 0]),\n",
      "   midi.NoteOffEvent(tick=2, channel=0, data=[66, 0]),\n",
      "   midi.NoteOffEvent(tick=16, channel=0, data=[20, 0]),\n",
      "   midi.NoteOffEvent(tick=17, channel=0, data=[29, 0]),\n",
      "   midi.NoteOffEvent(tick=6, channel=0, data=[43, 0]),\n",
      "   midi.NoteOffEvent(tick=12, channel=0, data=[68, 0]),\n",
      "   midi.NoteOffEvent(tick=5, channel=0, data=[9, 0]),\n",
      "   midi.NoteOffEvent(tick=0, channel=0, data=[30, 0]),\n",
      "   midi.NoteOffEvent(tick=1, channel=0, data=[8, 0]),\n",
      "   midi.NoteOffEvent(tick=9, channel=0, data=[50, 0]),\n",
      "   midi.NoteOffEvent(tick=3, channel=0, data=[11, 0]),\n",
      "   midi.NoteOffEvent(tick=16, channel=0, data=[113, 0]),\n",
      "   midi.NoteOffEvent(tick=15, channel=0, data=[2, 0]),\n",
      "   midi.NoteOffEvent(tick=6, channel=0, data=[48, 0]),\n",
      "   midi.NoteOffEvent(tick=25, channel=0, data=[101, 0]),\n",
      "   midi.NoteOffEvent(tick=6, channel=0, data=[124, 0]),\n",
      "   midi.NoteOffEvent(tick=3, channel=0, data=[51, 0]),\n",
      "   midi.NoteOffEvent(tick=6, channel=0, data=[78, 0]),\n",
      "   midi.NoteOffEvent(tick=3, channel=0, data=[94, 0]),\n",
      "   midi.NoteOffEvent(tick=1, channel=0, data=[58, 0]),\n",
      "   midi.NoteOffEvent(tick=2, channel=0, data=[12, 0]),\n",
      "   midi.NoteOffEvent(tick=4, channel=0, data=[57, 0]),\n",
      "   midi.NoteOffEvent(tick=7, channel=0, data=[18, 0]),\n",
      "   midi.NoteOffEvent(tick=8, channel=0, data=[85, 0]),\n",
      "   midi.NoteOffEvent(tick=1, channel=0, data=[49, 0]),\n",
      "   midi.NoteOffEvent(tick=9, channel=0, data=[40, 0]),\n",
      "   midi.NoteOffEvent(tick=4, channel=0, data=[13, 0]),\n",
      "   midi.NoteOffEvent(tick=2, channel=0, data=[70, 0]),\n",
      "   midi.NoteOffEvent(tick=2, channel=0, data=[24, 0]),\n",
      "   midi.NoteOffEvent(tick=3, channel=0, data=[125, 0]),\n",
      "   midi.NoteOffEvent(tick=5, channel=0, data=[64, 0]),\n",
      "   midi.NoteOffEvent(tick=20, channel=0, data=[117, 0]),\n",
      "   midi.NoteOffEvent(tick=2, channel=0, data=[76, 0]),\n",
      "   midi.NoteOffEvent(tick=40, channel=0, data=[36, 0]),\n",
      "   midi.NoteOffEvent(tick=33, channel=0, data=[83, 0]),\n",
      "   midi.NoteOffEvent(tick=9, channel=0, data=[23, 0]),\n",
      "   midi.NoteOffEvent(tick=2, channel=0, data=[31, 0]),\n",
      "   midi.NoteOffEvent(tick=4, channel=0, data=[90, 0]),\n",
      "   midi.NoteOffEvent(tick=5, channel=0, data=[91, 0]),\n",
      "   midi.NoteOffEvent(tick=18, channel=0, data=[1, 0]),\n",
      "   midi.NoteOffEvent(tick=3, channel=0, data=[110, 0]),\n",
      "   midi.NoteOffEvent(tick=2, channel=0, data=[27, 0]),\n",
      "   midi.NoteOffEvent(tick=14, channel=0, data=[59, 0]),\n",
      "   midi.NoteOffEvent(tick=14, channel=0, data=[15, 0]),\n",
      "   midi.NoteOffEvent(tick=4, channel=0, data=[22, 0]),\n",
      "   midi.NoteOffEvent(tick=10, channel=0, data=[79, 0]),\n",
      "   midi.NoteOffEvent(tick=40, channel=0, data=[89, 0]),\n",
      "   midi.NoteOffEvent(tick=2, channel=0, data=[75, 0]),\n",
      "   midi.NoteOffEvent(tick=21, channel=0, data=[123, 0]),\n",
      "   midi.NoteOffEvent(tick=5, channel=0, data=[46, 0]),\n",
      "   midi.NoteOffEvent(tick=27, channel=0, data=[122, 0]),\n",
      "   midi.NoteOffEvent(tick=4, channel=0, data=[35, 0]),\n",
      "   midi.NoteOffEvent(tick=1, channel=0, data=[6, 0]),\n",
      "   midi.NoteOffEvent(tick=5, channel=0, data=[104, 0]),\n",
      "   midi.NoteOffEvent(tick=27, channel=0, data=[98, 0]),\n",
      "   midi.NoteOffEvent(tick=14, channel=0, data=[45, 0]),\n",
      "   midi.NoteOffEvent(tick=13, channel=0, data=[5, 0]),\n",
      "   midi.NoteOffEvent(tick=14, channel=0, data=[25, 0]),\n",
      "   midi.NoteOffEvent(tick=16, channel=0, data=[88, 0]),\n",
      "   midi.NoteOffEvent(tick=14, channel=0, data=[7, 0]),\n",
      "   midi.NoteOffEvent(tick=0, channel=0, data=[63, 0]),\n",
      "   midi.NoteOffEvent(tick=14, channel=0, data=[102, 0]),\n",
      "   midi.NoteOffEvent(tick=8, channel=0, data=[71, 0]),\n",
      "   midi.NoteOffEvent(tick=5, channel=0, data=[126, 0]),\n",
      "   midi.NoteOffEvent(tick=26, channel=0, data=[52, 0]),\n",
      "   midi.NoteOffEvent(tick=113, channel=0, data=[112, 0]),\n",
      "   midi.EndOfTrackEvent(tick=0, data=[])]),\n",
      " midi.Track(\\\n",
      "  [midi.SetTempoEvent(tick=0, data=[4, 147, 224]),\n",
      "   midi.ProgramChangeEvent(tick=0, channel=0, data=[103]),\n",
      "   midi.NoteOnEvent(tick=0, channel=0, data=[80, 201]),\n",
      "   midi.NoteOnEvent(tick=0, channel=0, data=[68, 25]),\n",
      "   midi.NoteOnEvent(tick=0, channel=0, data=[111, 0]),\n",
      "   midi.NoteOnEvent(tick=1, channel=0, data=[99, 139]),\n",
      "   midi.NoteOnEvent(tick=1, channel=0, data=[37, 100]),\n",
      "   midi.NoteOnEvent(tick=0, channel=0, data=[115, 103]),\n",
      "   midi.NoteOnEvent(tick=1, channel=0, data=[67, 205]),\n",
      "   midi.NoteOnEvent(tick=4, channel=0, data=[93, 208]),\n",
      "   midi.NoteOnEvent(tick=6, channel=0, data=[58, 45]),\n",
      "   midi.NoteOnEvent(tick=1, channel=0, data=[9, 147]),\n",
      "   midi.NoteOnEvent(tick=3, channel=0, data=[118, 174]),\n",
      "   midi.NoteOnEvent(tick=0, channel=0, data=[110, 95]),\n",
      "   midi.NoteOnEvent(tick=1, channel=0, data=[43, 66]),\n",
      "   midi.NoteOnEvent(tick=3, channel=0, data=[63, 103]),\n",
      "   midi.NoteOnEvent(tick=1, channel=0, data=[105, 24]),\n",
      "   midi.NoteOnEvent(tick=2, channel=0, data=[37, 14]),\n",
      "   midi.NoteOnEvent(tick=4, channel=0, data=[76, 175]),\n",
      "   midi.NoteOnEvent(tick=1, channel=0, data=[27, 222]),\n",
      "   midi.NoteOnEvent(tick=0, channel=0, data=[115, 185]),\n",
      "   midi.NoteOnEvent(tick=3, channel=0, data=[117, 0]),\n",
      "   midi.NoteOnEvent(tick=2, channel=0, data=[75, 52]),\n",
      "   midi.NoteOnEvent(tick=1, channel=0, data=[14, 138]),\n",
      "   midi.NoteOnEvent(tick=1, channel=0, data=[63, 162]),\n",
      "   midi.NoteOnEvent(tick=1, channel=0, data=[33, 50]),\n",
      "   midi.NoteOnEvent(tick=5, channel=0, data=[119, 247]),\n",
      "   midi.NoteOnEvent(tick=3, channel=0, data=[87, 51]),\n",
      "   midi.NoteOnEvent(tick=1, channel=0, data=[74, 181]),\n",
      "   midi.NoteOnEvent(tick=2, channel=0, data=[24, 98]),\n",
      "   midi.NoteOnEvent(tick=8, channel=0, data=[57, 250]),\n",
      "   midi.NoteOnEvent(tick=3, channel=0, data=[68, 244]),\n",
      "   midi.NoteOnEvent(tick=2, channel=0, data=[40, 166]),\n",
      "   midi.NoteOnEvent(tick=5, channel=0, data=[78, 41]),\n",
      "   midi.NoteOnEvent(tick=2, channel=0, data=[3, 87]),\n",
      "   midi.NoteOnEvent(tick=1, channel=0, data=[40, 128]),\n",
      "   midi.NoteOnEvent(tick=0, channel=0, data=[57, 166]),\n",
      "   midi.NoteOnEvent(tick=1, channel=0, data=[126, 64]),\n",
      "   midi.NoteOnEvent(tick=0, channel=0, data=[16, 114]),\n",
      "   midi.NoteOnEvent(tick=2, channel=0, data=[18, 170]),\n",
      "   midi.NoteOnEvent(tick=0, channel=0, data=[32, 132]),\n",
      "   midi.NoteOnEvent(tick=1, channel=0, data=[63, 59]),\n",
      "   midi.NoteOnEvent(tick=1, channel=0, data=[30, 251]),\n",
      "   midi.NoteOnEvent(tick=8, channel=0, data=[80, 96]),\n",
      "   midi.NoteOnEvent(tick=4, channel=0, data=[47, 160]),\n",
      "   midi.NoteOnEvent(tick=1, channel=0, data=[33, 162]),\n",
      "   midi.NoteOnEvent(tick=0, channel=0, data=[16, 192]),\n",
      "   midi.NoteOnEvent(tick=4, channel=0, data=[108, 63]),\n",
      "   midi.NoteOnEvent(tick=2, channel=0, data=[106, 31]),\n",
      "   midi.NoteOnEvent(tick=0, channel=0, data=[121, 38]),\n",
      "   midi.NoteOnEvent(tick=1, channel=0, data=[56, 70]),\n",
      "   midi.NoteOnEvent(tick=3, channel=0, data=[31, 85]),\n",
      "   midi.NoteOnEvent(tick=1, channel=0, data=[55, 36]),\n",
      "   midi.NoteOnEvent(tick=3, channel=0, data=[25, 10]),\n",
      "   midi.NoteOnEvent(tick=3, channel=0, data=[36, 133]),\n",
      "   midi.NoteOnEvent(tick=0, channel=0, data=[52, 248]),\n",
      "   midi.NoteOnEvent(tick=1, channel=0, data=[56, 135]),\n",
      "   midi.NoteOnEvent(tick=1, channel=0, data=[116, 198]),\n",
      "   midi.NoteOnEvent(tick=1, channel=0, data=[19, 132]),\n",
      "   midi.NoteOnEvent(tick=3, channel=0, data=[71, 23]),\n",
      "   midi.NoteOnEvent(tick=0, channel=0, data=[101, 254]),\n",
      "   midi.NoteOnEvent(tick=0, channel=0, data=[35, 9]),\n",
      "   midi.NoteOffEvent(tick=4, channel=0, data=[16, 0]),\n",
      "   midi.NoteOnEvent(tick=4, channel=0, data=[51, 196]),\n",
      "   midi.NoteOnEvent(tick=0, channel=0, data=[28, 223]),\n",
      "   midi.NoteOnEvent(tick=4, channel=0, data=[64, 194]),\n",
      "   midi.NoteOnEvent(tick=0, channel=0, data=[98, 242]),\n",
      "   midi.NoteOnEvent(tick=0, channel=0, data=[67, 201]),\n",
      "   midi.NoteOnEvent(tick=1, channel=0, data=[61, 40]),\n",
      "   midi.NoteOnEvent(tick=0, channel=0, data=[108, 151]),\n",
      "   midi.NoteOnEvent(tick=1, channel=0, data=[106, 167]),\n",
      "   midi.NoteOnEvent(tick=0, channel=0, data=[46, 91]),\n",
      "   midi.NoteOffEvent(tick=8, channel=0, data=[111, 0]),\n",
      "   midi.NoteOnEvent(tick=4, channel=0, data=[72, 32]),\n",
      "   midi.NoteOnEvent(tick=1, channel=0, data=[44, 9]),\n",
      "   midi.NoteOnEvent(tick=0, channel=0, data=[42, 55]),\n",
      "   midi.NoteOnEvent(tick=1, channel=0, data=[82, 143]),\n",
      "   midi.NoteOnEvent(tick=0, channel=0, data=[54, 171]),\n",
      "   midi.NoteOnEvent(tick=2, channel=0, data=[78, 106]),\n",
      "   midi.NoteOnEvent(tick=1, channel=0, data=[65, 190]),\n",
      "   midi.NoteOnEvent(tick=1, channel=0, data=[99, 29]),\n",
      "   midi.NoteOnEvent(tick=2, channel=0, data=[82, 137]),\n",
      "   midi.NoteOffEvent(tick=5, channel=0, data=[98, 0]),\n",
      "   midi.NoteOnEvent(tick=1, channel=0, data=[80, 251]),\n",
      "   midi.NoteOffEvent(tick=2, channel=0, data=[61, 0]),\n",
      "   midi.NoteOnEvent(tick=1, channel=0, data=[83, 201]),\n",
      "   midi.NoteOnEvent(tick=2, channel=0, data=[102, 67]),\n",
      "   midi.NoteOnEvent(tick=1, channel=0, data=[97, 209]),\n",
      "   midi.NoteOnEvent(tick=1, channel=0, data=[27, 191]),\n",
      "   midi.NoteOnEvent(tick=1, channel=0, data=[77, 53]),\n",
      "   midi.NoteOnEvent(tick=1, channel=0, data=[63, 73]),\n",
      "   midi.NoteOnEvent(tick=1, channel=0, data=[20, 196]),\n",
      "   midi.NoteOnEvent(tick=1, channel=0, data=[11, 184]),\n",
      "   midi.NoteOffEvent(tick=2, channel=0, data=[3, 0]),\n",
      "   midi.NoteOnEvent(tick=0, channel=0, data=[68, 87]),\n",
      "   midi.NoteOnEvent(tick=2, channel=0, data=[4, 48]),\n",
      "   midi.NoteOffEvent(tick=1, channel=0, data=[87, 0]),\n",
      "   midi.NoteOnEvent(tick=1, channel=0, data=[15, 42]),\n",
      "   midi.NoteOnEvent(tick=3, channel=0, data=[109, 229]),\n",
      "   midi.NoteOnEvent(tick=1, channel=0, data=[24, 75]),\n",
      "   midi.NoteOnEvent(tick=0, channel=0, data=[76, 27]),\n",
      "   midi.NoteOffEvent(tick=1, channel=0, data=[126, 0]),\n",
      "   midi.NoteOnEvent(tick=0, channel=0, data=[50, 51]),\n",
      "   midi.NoteOnEvent(tick=1, channel=0, data=[110, 173]),\n",
      "   midi.NoteOnEvent(tick=5, channel=0, data=[39, 180]),\n",
      "   midi.NoteOnEvent(tick=0, channel=0, data=[11, 210]),\n",
      "   midi.NoteOnEvent(tick=7, channel=0, data=[96, 221]),\n",
      "   midi.NoteOnEvent(tick=8, channel=0, data=[17, 27]),\n",
      "   midi.NoteOffEvent(tick=3, channel=0, data=[110, 0]),\n",
      "   midi.NoteOnEvent(tick=0, channel=0, data=[107, 218]),\n",
      "   midi.NoteOnEvent(tick=1, channel=0, data=[2, 85]),\n",
      "   midi.NoteOnEvent(tick=2, channel=0, data=[51, 10]),\n",
      "   midi.NoteOnEvent(tick=2, channel=0, data=[47, 117]),\n",
      "   midi.NoteOnEvent(tick=1, channel=0, data=[14, 204]),\n",
      "   midi.NoteOffEvent(tick=3, channel=0, data=[55, 0]),\n",
      "   midi.NoteOnEvent(tick=0, channel=0, data=[123, 148]),\n",
      "   midi.NoteOnEvent(tick=1, channel=0, data=[93, 33]),\n",
      "   midi.NoteOnEvent(tick=0, channel=0, data=[120, 180]),\n",
      "   midi.NoteOnEvent(tick=3, channel=0, data=[7, 255]),\n",
      "   midi.NoteOnEvent(tick=0, channel=0, data=[51, 110]),\n",
      "   midi.NoteOnEvent(tick=2, channel=0, data=[4, 164]),\n",
      "   midi.NoteOnEvent(tick=0, channel=0, data=[83, 241]),\n",
      "   midi.NoteOnEvent(tick=6, channel=0, data=[19, 140]),\n",
      "   midi.NoteOnEvent(tick=1, channel=0, data=[102, 218]),\n",
      "   midi.NoteOnEvent(tick=2, channel=0, data=[13, 61]),\n",
      "   midi.NoteOnEvent(tick=1, channel=0, data=[6, 211]),\n",
      "   midi.NoteOnEvent(tick=2, channel=0, data=[98, 71]),\n",
      "   midi.NoteOnEvent(tick=4, channel=0, data=[85, 18]),\n",
      "   midi.NoteOnEvent(tick=0, channel=0, data=[90, 78]),\n",
      "   midi.NoteOnEvent(tick=4, channel=0, data=[42, 251]),\n",
      "   midi.NoteOffEvent(tick=7, channel=0, data=[35, 0]),\n",
      "   midi.NoteOffEvent(tick=0, channel=0, data=[67, 0]),\n",
      "   midi.NoteOnEvent(tick=1, channel=0, data=[14, 212]),\n",
      "   midi.NoteOnEvent(tick=1, channel=0, data=[115, 110]),\n",
      "   midi.NoteOnEvent(tick=6, channel=0, data=[86, 185]),\n",
      "   midi.NoteOnEvent(tick=0, channel=0, data=[104, 118]),\n",
      "   midi.NoteOnEvent(tick=5, channel=0, data=[51, 18]),\n",
      "   midi.NoteOffEvent(tick=2, channel=0, data=[50, 0]),\n",
      "   midi.NoteOffEvent(tick=1, channel=0, data=[102, 0]),\n",
      "   midi.NoteOnEvent(tick=0, channel=0, data=[92, 36]),\n",
      "   midi.NoteOnEvent(tick=3, channel=0, data=[78, 119]),\n",
      "   midi.NoteOnEvent(tick=7, channel=0, data=[45, 181]),\n",
      "   midi.NoteOnEvent(tick=2, channel=0, data=[62, 252]),\n",
      "   midi.NoteOffEvent(tick=5, channel=0, data=[62, 0]),\n",
      "   midi.NoteOnEvent(tick=0, channel=0, data=[99, 38]),\n",
      "   midi.NoteOnEvent(tick=3, channel=0, data=[104, 145]),\n",
      "   midi.NoteOffEvent(tick=3, channel=0, data=[97, 0]),\n",
      "   midi.NoteOnEvent(tick=4, channel=0, data=[118, 250]),\n",
      "   midi.NoteOnEvent(tick=1, channel=0, data=[7, 214]),\n",
      "   midi.NoteOnEvent(tick=2, channel=0, data=[96, 176]),\n",
      "   midi.NoteOnEvent(tick=5, channel=0, data=[39, 128]),\n",
      "   midi.NoteOnEvent(tick=0, channel=0, data=[44, 253]),\n",
      "   midi.NoteOnEvent(tick=1, channel=0, data=[14, 53]),\n",
      "   midi.NoteOnEvent(tick=5, channel=0, data=[44, 141]),\n",
      "   midi.NoteOnEvent(tick=7, channel=0, data=[20, 184]),\n",
      "   midi.NoteOffEvent(tick=2, channel=0, data=[11, 0]),\n",
      "   midi.NoteOnEvent(tick=4, channel=0, data=[69, 184]),\n",
      "   midi.NoteOnEvent(tick=1, channel=0, data=[115, 16]),\n",
      "   midi.NoteOnEvent(tick=1, channel=0, data=[86, 184]),\n",
      "   midi.NoteOnEvent(tick=1, channel=0, data=[8, 156]),\n",
      "   midi.NoteOnEvent(tick=10, channel=0, data=[98, 23]),\n",
      "   midi.NoteOnEvent(tick=4, channel=0, data=[24, 123]),\n",
      "   midi.NoteOnEvent(tick=2, channel=0, data=[111, 22]),\n",
      "   midi.NoteOnEvent(tick=1, channel=0, data=[90, 132]),\n",
      "   midi.NoteOnEvent(tick=2, channel=0, data=[13, 187]),\n",
      "   midi.NoteOnEvent(tick=2, channel=0, data=[94, 110]),\n",
      "   midi.NoteOnEvent(tick=0, channel=0, data=[99, 86]),\n",
      "   midi.NoteOnEvent(tick=3, channel=0, data=[73, 149]),\n",
      "   midi.NoteOnEvent(tick=2, channel=0, data=[33, 127]),\n",
      "   midi.NoteOnEvent(tick=2, channel=0, data=[77, 135]),\n",
      "   midi.NoteOnEvent(tick=0, channel=0, data=[19, 60]),\n",
      "   midi.NoteOnEvent(tick=2, channel=0, data=[8, 138]),\n",
      "   midi.NoteOnEvent(tick=0, channel=0, data=[62, 35]),\n",
      "   midi.NoteOnEvent(tick=3, channel=0, data=[96, 179]),\n",
      "   midi.NoteOffEvent(tick=3, channel=0, data=[109, 0]),\n",
      "   midi.NoteOnEvent(tick=3, channel=0, data=[106, 80]),\n",
      "   midi.NoteOnEvent(tick=2, channel=0, data=[19, 162]),\n",
      "   midi.NoteOnEvent(tick=1, channel=0, data=[126, 62]),\n",
      "   midi.NoteOnEvent(tick=1, channel=0, data=[0, 142]),\n",
      "   midi.NoteOnEvent(tick=1, channel=0, data=[43, 221]),\n",
      "   midi.NoteOnEvent(tick=1, channel=0, data=[108, 232]),\n",
      "   midi.NoteOnEvent(tick=1, channel=0, data=[125, 168]),\n",
      "   midi.NoteOffEvent(tick=1, channel=0, data=[63, 0]),\n",
      "   midi.NoteOnEvent(tick=0, channel=0, data=[56, 2]),\n",
      "   midi.NoteOnEvent(tick=1, channel=0, data=[107, 156]),\n",
      "   midi.NoteOnEvent(tick=0, channel=0, data=[57, 19]),\n",
      "   midi.NoteOnEvent(tick=3, channel=0, data=[75, 51]),\n",
      "   midi.NoteOnEvent(tick=0, channel=0, data=[76, 191]),\n",
      "   midi.NoteOnEvent(tick=1, channel=0, data=[16, 141]),\n",
      "   midi.NoteOnEvent(tick=2, channel=0, data=[122, 1]),\n",
      "   midi.NoteOnEvent(tick=2, channel=0, data=[68, 38]),\n",
      "   midi.NoteOnEvent(tick=0, channel=0, data=[44, 202]),\n",
      "   midi.NoteOnEvent(tick=1, channel=0, data=[87, 230]),\n",
      "   midi.NoteOffEvent(tick=5, channel=0, data=[122, 0]),\n",
      "   midi.NoteOnEvent(tick=0, channel=0, data=[61, 29]),\n",
      "   midi.NoteOnEvent(tick=4, channel=0, data=[123, 117]),\n",
      "   midi.NoteOnEvent(tick=0, channel=0, data=[87, 163]),\n",
      "   midi.NoteOnEvent(tick=0, channel=0, data=[12, 122]),\n",
      "   midi.NoteOnEvent(tick=0, channel=0, data=[61, 107]),\n",
      "   midi.NoteOnEvent(tick=1, channel=0, data=[68, 63]),\n",
      "   midi.NoteOffEvent(tick=3, channel=0, data=[68, 0]),\n",
      "   midi.NoteOnEvent(tick=3, channel=0, data=[8, 218]),\n",
      "   midi.NoteOnEvent(tick=9, channel=0, data=[25, 207]),\n",
      "   midi.NoteOnEvent(tick=0, channel=0, data=[120, 131]),\n",
      "   midi.NoteOnEvent(tick=3, channel=0, data=[82, 157]),\n",
      "   midi.NoteOnEvent(tick=0, channel=0, data=[64, 160]),\n",
      "   midi.NoteOnEvent(tick=0, channel=0, data=[25, 191]),\n",
      "   midi.NoteOnEvent(tick=5, channel=0, data=[48, 91]),\n",
      "   midi.NoteOnEvent(tick=0, channel=0, data=[48, 159]),\n",
      "   midi.NoteOnEvent(tick=1, channel=0, data=[72, 34]),\n",
      "   midi.NoteOnEvent(tick=1, channel=0, data=[41, 143]),\n",
      "   midi.NoteOnEvent(tick=2, channel=0, data=[81, 96]),\n",
      "   midi.NoteOnEvent(tick=0, channel=0, data=[45, 193]),\n",
      "   midi.NoteOnEvent(tick=1, channel=0, data=[30, 121]),\n",
      "   midi.NoteOnEvent(tick=0, channel=0, data=[62, 7]),\n",
      "   midi.NoteOnEvent(tick=2, channel=0, data=[59, 210]),\n",
      "   midi.NoteOffEvent(tick=1, channel=0, data=[43, 0]),\n",
      "   midi.NoteOnEvent(tick=2, channel=0, data=[110, 151]),\n",
      "   midi.NoteOnEvent(tick=7, channel=0, data=[69, 209]),\n",
      "   midi.NoteOffEvent(tick=1, channel=0, data=[75, 0]),\n",
      "   midi.NoteOnEvent(tick=0, channel=0, data=[29, 122]),\n",
      "   midi.NoteOnEvent(tick=0, channel=0, data=[4, 18]),\n",
      "   midi.NoteOnEvent(tick=1, channel=0, data=[75, 113]),\n",
      "   midi.NoteOffEvent(tick=2, channel=0, data=[121, 0]),\n",
      "   midi.NoteOnEvent(tick=0, channel=0, data=[79, 72]),\n",
      "   midi.NoteOnEvent(tick=0, channel=0, data=[72, 152]),\n",
      "   midi.NoteOnEvent(tick=1, channel=0, data=[126, 113]),\n",
      "   midi.NoteOnEvent(tick=4, channel=0, data=[74, 93]),\n",
      "   midi.NoteOnEvent(tick=1, channel=0, data=[9, 52]),\n",
      "   midi.NoteOnEvent(tick=0, channel=0, data=[77, 162]),\n",
      "   midi.NoteOnEvent(tick=0, channel=0, data=[91, 197]),\n",
      "   midi.NoteOnEvent(tick=1, channel=0, data=[58, 51]),\n",
      "   midi.NoteOnEvent(tick=1, channel=0, data=[18, 105]),\n",
      "   midi.NoteOnEvent(tick=0, channel=0, data=[61, 113]),\n",
      "   midi.NoteOnEvent(tick=0, channel=0, data=[101, 197]),\n",
      "   midi.NoteOnEvent(tick=1, channel=0, data=[31, 38]),\n",
      "   midi.NoteOnEvent(tick=0, channel=0, data=[72, 33]),\n",
      "   midi.NoteOnEvent(tick=1, channel=0, data=[108, 191]),\n",
      "   midi.NoteOnEvent(tick=0, channel=0, data=[24, 36]),\n",
      "   midi.NoteOnEvent(tick=1, channel=0, data=[86, 3]),\n",
      "   midi.NoteOnEvent(tick=4, channel=0, data=[35, 21]),\n",
      "   midi.NoteOnEvent(tick=2, channel=0, data=[103, 111]),\n",
      "   midi.NoteOnEvent(tick=1, channel=0, data=[50, 94]),\n",
      "   midi.NoteOnEvent(tick=1, channel=0, data=[15, 87]),\n",
      "   midi.NoteOnEvent(tick=1, channel=0, data=[83, 103]),\n",
      "   midi.NoteOnEvent(tick=0, channel=0, data=[15, 52]),\n",
      "   midi.NoteOnEvent(tick=2, channel=0, data=[24, 222]),\n",
      "   midi.NoteOnEvent(tick=0, channel=0, data=[20, 8]),\n",
      "   midi.NoteOnEvent(tick=1, channel=0, data=[90, 188]),\n",
      "   midi.NoteOnEvent(tick=3, channel=0, data=[37, 177]),\n",
      "   midi.NoteOnEvent(tick=1, channel=0, data=[49, 72]),\n",
      "   midi.NoteOnEvent(tick=1, channel=0, data=[22, 200]),\n",
      "   midi.NoteOnEvent(tick=2, channel=0, data=[33, 86]),\n",
      "   midi.NoteOnEvent(tick=2, channel=0, data=[45, 201]),\n",
      "   midi.NoteOnEvent(tick=2, channel=0, data=[119, 67]),\n",
      "   midi.NoteOnEvent(tick=1, channel=0, data=[8, 104]),\n",
      "   midi.NoteOnEvent(tick=1, channel=0, data=[125, 7]),\n",
      "   midi.NoteOnEvent(tick=1, channel=0, data=[77, 181]),\n",
      "   midi.NoteOnEvent(tick=1, channel=0, data=[95, 158]),\n",
      "   midi.NoteOffEvent(tick=2, channel=0, data=[35, 0]),\n",
      "   midi.NoteOnEvent(tick=5, channel=0, data=[115, 253]),\n",
      "   midi.NoteOffEvent(tick=3, channel=0, data=[51, 0]),\n",
      "   midi.NoteOnEvent(tick=3, channel=0, data=[24, 225]),\n",
      "   midi.NoteOnEvent(tick=2, channel=0, data=[108, 55]),\n",
      "   midi.NoteOnEvent(tick=3, channel=0, data=[60, 113]),\n",
      "   midi.NoteOffEvent(tick=2, channel=0, data=[44, 0]),\n",
      "   midi.NoteOnEvent(tick=0, channel=0, data=[49, 185]),\n",
      "   midi.NoteOnEvent(tick=4, channel=0, data=[46, 2]),\n",
      "   midi.NoteOnEvent(tick=6, channel=0, data=[104, 109]),\n",
      "   midi.NoteOnEvent(tick=1, channel=0, data=[118, 82]),\n",
      "   midi.NoteOnEvent(tick=4, channel=0, data=[69, 10]),\n",
      "   midi.NoteOnEvent(tick=1, channel=0, data=[81, 153]),\n",
      "   midi.NoteOnEvent(tick=1, channel=0, data=[30, 33]),\n",
      "   midi.NoteOnEvent(tick=0, channel=0, data=[113, 226]),\n",
      "   midi.NoteOnEvent(tick=1, channel=0, data=[88, 175]),\n",
      "   midi.NoteOffEvent(tick=1, channel=0, data=[62, 0]),\n",
      "   midi.NoteOnEvent(tick=0, channel=0, data=[1, 188]),\n",
      "   midi.NoteOnEvent(tick=1, channel=0, data=[78, 170]),\n",
      "   midi.NoteOnEvent(tick=2, channel=0, data=[69, 59]),\n",
      "   midi.NoteOnEvent(tick=0, channel=0, data=[45, 177]),\n",
      "   midi.NoteOnEvent(tick=1, channel=0, data=[42, 182]),\n",
      "   midi.NoteOnEvent(tick=2, channel=0, data=[66, 131]),\n",
      "   midi.NoteOnEvent(tick=1, channel=0, data=[75, 132]),\n",
      "   midi.NoteOnEvent(tick=3, channel=0, data=[3, 225]),\n",
      "   midi.NoteOnEvent(tick=2, channel=0, data=[21, 47]),\n",
      "   midi.NoteOnEvent(tick=1, channel=0, data=[6, 117]),\n",
      "   midi.NoteOnEvent(tick=1, channel=0, data=[94, 206]),\n",
      "   midi.NoteOnEvent(tick=1, channel=0, data=[79, 241]),\n",
      "   midi.NoteOnEvent(tick=1, channel=0, data=[69, 205]),\n",
      "   midi.NoteOnEvent(tick=2, channel=0, data=[39, 71]),\n",
      "   midi.NoteOffEvent(tick=2, channel=0, data=[52, 0]),\n",
      "   midi.NoteOnEvent(tick=0, channel=0, data=[47, 244]),\n",
      "   midi.NoteOnEvent(tick=1, channel=0, data=[98, 38]),\n",
      "   midi.NoteOffEvent(tick=2, channel=0, data=[6, 0]),\n",
      "   midi.NoteOnEvent(tick=0, channel=0, data=[117, 107]),\n",
      "   midi.NoteOnEvent(tick=3, channel=0, data=[23, 10]),\n",
      "   midi.NoteOnEvent(tick=1, channel=0, data=[14, 37]),\n",
      "   midi.NoteOnEvent(tick=5, channel=0, data=[3, 222]),\n",
      "   midi.NoteOffEvent(tick=3, channel=0, data=[71, 0]),\n",
      "   midi.NoteOnEvent(tick=1, channel=0, data=[21, 44]),\n",
      "   midi.NoteOnEvent(tick=0, channel=0, data=[40, 161]),\n",
      "   midi.NoteOnEvent(tick=4, channel=0, data=[15, 39]),\n",
      "   midi.NoteOnEvent(tick=1, channel=0, data=[37, 87]),\n",
      "   midi.NoteOnEvent(tick=4, channel=0, data=[95, 62]),\n",
      "   midi.NoteOffEvent(tick=3, channel=0, data=[126, 0]),\n",
      "   midi.NoteOffEvent(tick=2, channel=0, data=[123, 0]),\n",
      "   midi.NoteOnEvent(tick=0, channel=0, data=[39, 253]),\n",
      "   midi.NoteOnEvent(tick=1, channel=0, data=[114, 183]),\n",
      "   midi.NoteOnEvent(tick=1, channel=0, data=[111, 214]),\n",
      "   midi.NoteOnEvent(tick=1, channel=0, data=[28, 164]),\n",
      "   midi.NoteOnEvent(tick=0, channel=0, data=[55, 23]),\n",
      "   midi.NoteOnEvent(tick=2, channel=0, data=[106, 239]),\n",
      "   midi.NoteOffEvent(tick=1, channel=0, data=[66, 0]),\n",
      "   midi.NoteOnEvent(tick=1, channel=0, data=[103, 169]),\n",
      "   midi.NoteOnEvent(tick=0, channel=0, data=[44, 201]),\n",
      "   midi.NoteOffEvent(tick=1, channel=0, data=[75, 0]),\n",
      "   midi.NoteOnEvent(tick=0, channel=0, data=[70, 67]),\n",
      "   midi.NoteOnEvent(tick=2, channel=0, data=[93, 222]),\n",
      "   midi.NoteOnEvent(tick=0, channel=0, data=[103, 14]),\n",
      "   midi.NoteOnEvent(tick=2, channel=0, data=[123, 79]),\n",
      "   midi.NoteOnEvent(tick=2, channel=0, data=[67, 237]),\n",
      "   midi.NoteOnEvent(tick=2, channel=0, data=[12, 140]),\n",
      "   midi.NoteOnEvent(tick=0, channel=0, data=[57, 171]),\n",
      "   midi.NoteOnEvent(tick=0, channel=0, data=[26, 35]),\n",
      "   midi.NoteOnEvent(tick=2, channel=0, data=[78, 101]),\n",
      "   midi.NoteOnEvent(tick=1, channel=0, data=[51, 88]),\n",
      "   midi.NoteOnEvent(tick=0, channel=0, data=[74, 71]),\n",
      "   midi.NoteOnEvent(tick=0, channel=0, data=[53, 244]),\n",
      "   midi.NoteOnEvent(tick=2, channel=0, data=[119, 86]),\n",
      "   midi.NoteOnEvent(tick=0, channel=0, data=[80, 127]),\n",
      "   midi.NoteOnEvent(tick=0, channel=0, data=[54, 244]),\n",
      "   midi.NoteOffEvent(tick=1, channel=0, data=[119, 0]),\n",
      "   midi.NoteOnEvent(tick=0, channel=0, data=[15, 1]),\n",
      "   midi.NoteOnEvent(tick=2, channel=0, data=[101, 119]),\n",
      "   midi.NoteOnEvent(tick=2, channel=0, data=[94, 183]),\n",
      "   midi.NoteOnEvent(tick=1, channel=0, data=[96, 163]),\n",
      "   midi.NoteOnEvent(tick=1, channel=0, data=[113, 91]),\n",
      "   midi.NoteOnEvent(tick=2, channel=0, data=[123, 219]),\n",
      "   midi.NoteOnEvent(tick=3, channel=0, data=[43, 180]),\n",
      "   midi.NoteOnEvent(tick=3, channel=0, data=[119, 124]),\n",
      "   midi.NoteOnEvent(tick=1, channel=0, data=[42, 207]),\n",
      "   midi.NoteOnEvent(tick=0, channel=0, data=[49, 89]),\n",
      "   midi.NoteOffEvent(tick=3, channel=0, data=[36, 0]),\n",
      "   midi.NoteOffEvent(tick=1, channel=0, data=[28, 0]),\n",
      "   midi.NoteOnEvent(tick=1, channel=0, data=[72, 62]),\n",
      "   midi.NoteOnEvent(tick=1, channel=0, data=[42, 36]),\n",
      "   midi.NoteOnEvent(tick=0, channel=0, data=[11, 226]),\n",
      "   midi.NoteOnEvent(tick=1, channel=0, data=[50, 91]),\n",
      "   midi.NoteOnEvent(tick=3, channel=0, data=[38, 225]),\n",
      "   midi.NoteOffEvent(tick=1, channel=0, data=[70, 0]),\n",
      "   midi.NoteOnEvent(tick=0, channel=0, data=[38, 31]),\n",
      "   midi.NoteOnEvent(tick=1, channel=0, data=[85, 145]),\n",
      "   midi.NoteOnEvent(tick=5, channel=0, data=[91, 23]),\n",
      "   midi.NoteOffEvent(tick=2, channel=0, data=[48, 0]),\n",
      "   midi.NoteOnEvent(tick=0, channel=0, data=[24, 94]),\n",
      "   midi.NoteOnEvent(tick=1, channel=0, data=[90, 177]),\n",
      "   midi.NoteOffEvent(tick=3, channel=0, data=[27, 0]),\n",
      "   midi.NoteOnEvent(tick=1, channel=0, data=[127, 187]),\n",
      "   midi.NoteOnEvent(tick=3, channel=0, data=[22, 145]),\n",
      "   midi.NoteOnEvent(tick=1, channel=0, data=[17, 248]),\n",
      "   midi.NoteOffEvent(tick=1, channel=0, data=[76, 0]),\n",
      "   midi.NoteOnEvent(tick=2, channel=0, data=[23, 253]),\n",
      "   midi.NoteOnEvent(tick=1, channel=0, data=[10, 188]),\n",
      "   midi.NoteOnEvent(tick=1, channel=0, data=[69, 14]),\n",
      "   midi.NoteOffEvent(tick=2, channel=0, data=[72, 0]),\n",
      "   midi.NoteOnEvent(tick=0, channel=0, data=[5, 210]),\n",
      "   midi.NoteOnEvent(tick=1, channel=0, data=[93, 178]),\n",
      "   midi.NoteOnEvent(tick=0, channel=0, data=[127, 247]),\n",
      "   midi.NoteOnEvent(tick=0, channel=0, data=[68, 164]),\n",
      "   midi.NoteOffEvent(tick=1, channel=0, data=[44, 0]),\n",
      "   midi.NoteOnEvent(tick=0, channel=0, data=[1, 32]),\n",
      "   midi.NoteOnEvent(tick=1, channel=0, data=[105, 146]),\n",
      "   midi.NoteOnEvent(tick=0, channel=0, data=[108, 155]),\n",
      "   midi.NoteOnEvent(tick=1, channel=0, data=[14, 214]),\n",
      "   midi.NoteOnEvent(tick=3, channel=0, data=[118, 18]),\n",
      "   midi.NoteOnEvent(tick=1, channel=0, data=[109, 86]),\n",
      "   midi.NoteOnEvent(tick=2, channel=0, data=[106, 68]),\n",
      "   midi.NoteOnEvent(tick=5, channel=0, data=[110, 203]),\n",
      "   midi.NoteOnEvent(tick=2, channel=0, data=[25, 92]),\n",
      "   midi.NoteOnEvent(tick=5, channel=0, data=[42, 179]),\n",
      "   midi.NoteOnEvent(tick=1, channel=0, data=[63, 0]),\n",
      "   midi.NoteOnEvent(tick=0, channel=0, data=[106, 221]),\n",
      "   midi.NoteOnEvent(tick=6, channel=0, data=[73, 87]),\n",
      "   midi.NoteOnEvent(tick=0, channel=0, data=[18, 33]),\n",
      "   midi.NoteOnEvent(tick=1, channel=0, data=[34, 48]),\n",
      "   midi.NoteOnEvent(tick=1, channel=0, data=[99, 223]),\n",
      "   midi.NoteOnEvent(tick=1, channel=0, data=[48, 243]),\n",
      "   midi.NoteOnEvent(tick=1, channel=0, data=[51, 202]),\n",
      "   midi.NoteOnEvent(tick=1, channel=0, data=[26, 203]),\n",
      "   midi.NoteOffEvent(tick=1, channel=0, data=[47, 0]),\n",
      "   midi.NoteOnEvent(tick=0, channel=0, data=[72, 235]),\n",
      "   midi.NoteOnEvent(tick=0, channel=0, data=[117, 60]),\n",
      "   midi.NoteOnEvent(tick=1, channel=0, data=[11, 11]),\n",
      "   midi.NoteOnEvent(tick=1, channel=0, data=[26, 219]),\n",
      "   midi.NoteOnEvent(tick=1, channel=0, data=[114, 212]),\n",
      "   midi.NoteOnEvent(tick=2, channel=0, data=[19, 204]),\n",
      "   midi.NoteOnEvent(tick=2, channel=0, data=[15, 15]),\n",
      "   midi.NoteOffEvent(tick=2, channel=0, data=[61, 0]),\n",
      "   midi.NoteOffEvent(tick=3, channel=0, data=[55, 0]),\n",
      "   midi.NoteOnEvent(tick=1, channel=0, data=[104, 125]),\n",
      "   midi.NoteOnEvent(tick=3, channel=0, data=[56, 3]),\n",
      "   midi.NoteOnEvent(tick=0, channel=0, data=[49, 11]),\n",
      "   midi.NoteOnEvent(tick=2, channel=0, data=[77, 30]),\n",
      "   midi.NoteOffEvent(tick=1, channel=0, data=[11, 0]),\n",
      "   midi.NoteOnEvent(tick=0, channel=0, data=[12, 92]),\n",
      "   midi.NoteOnEvent(tick=0, channel=0, data=[95, 234]),\n",
      "   midi.NoteOnEvent(tick=1, channel=0, data=[62, 88]),\n",
      "   midi.NoteOnEvent(tick=3, channel=0, data=[66, 198]),\n",
      "   midi.NoteOffEvent(tick=1, channel=0, data=[33, 0]),\n",
      "   midi.NoteOnEvent(tick=0, channel=0, data=[34, 6]),\n",
      "   midi.NoteOnEvent(tick=2, channel=0, data=[14, 207]),\n",
      "   midi.NoteOnEvent(tick=3, channel=0, data=[83, 216]),\n",
      "   midi.NoteOffEvent(tick=2, channel=0, data=[42, 0]),\n",
      "   midi.NoteOnEvent(tick=3, channel=0, data=[67, 91]),\n",
      "   midi.NoteOnEvent(tick=1, channel=0, data=[103, 34]),\n",
      "   midi.NoteOnEvent(tick=2, channel=0, data=[120, 184]),\n",
      "   midi.NoteOnEvent(tick=0, channel=0, data=[78, 122]),\n",
      "   midi.NoteOnEvent(tick=1, channel=0, data=[15, 218]),\n",
      "   midi.NoteOnEvent(tick=0, channel=0, data=[59, 24]),\n",
      "   midi.NoteOffEvent(tick=1, channel=0, data=[21, 0]),\n",
      "   midi.NoteOnEvent(tick=3, channel=0, data=[117, 113]),\n",
      "   midi.NoteOnEvent(tick=1, channel=0, data=[19, 43]),\n",
      "   midi.NoteOnEvent(tick=3, channel=0, data=[21, 196]),\n",
      "   midi.NoteOffEvent(tick=2, channel=0, data=[95, 0]),\n",
      "   midi.NoteOnEvent(tick=0, channel=0, data=[116, 136]),\n",
      "   midi.NoteOnEvent(tick=2, channel=0, data=[112, 205]),\n",
      "   midi.NoteOnEvent(tick=1, channel=0, data=[91, 21]),\n",
      "   midi.NoteOnEvent(tick=5, channel=0, data=[71, 227]),\n",
      "   midi.NoteOnEvent(tick=2, channel=0, data=[59, 32]),\n",
      "   midi.NoteOnEvent(tick=1, channel=0, data=[8, 200]),\n",
      "   midi.NoteOffEvent(tick=3, channel=0, data=[94, 0]),\n",
      "   midi.NoteOffEvent(tick=2, channel=0, data=[90, 0]),\n",
      "   midi.NoteOnEvent(tick=0, channel=0, data=[87, 108]),\n",
      "   midi.NoteOnEvent(tick=1, channel=0, data=[20, 223]),\n",
      "   midi.NoteOnEvent(tick=1, channel=0, data=[124, 222]),\n",
      "   midi.NoteOnEvent(tick=4, channel=0, data=[97, 102]),\n",
      "   midi.NoteOnEvent(tick=2, channel=0, data=[50, 121]),\n",
      "   midi.NoteOnEvent(tick=2, channel=0, data=[40, 181]),\n",
      "   midi.NoteOffEvent(tick=3, channel=0, data=[19, 0]),\n",
      "   midi.NoteOffEvent(tick=1, channel=0, data=[24, 0]),\n",
      "   midi.NoteOffEvent(tick=2, channel=0, data=[60, 0]),\n",
      "   midi.NoteOnEvent(tick=0, channel=0, data=[8, 255]),\n",
      "   midi.NoteOnEvent(tick=1, channel=0, data=[47, 33]),\n",
      "   midi.NoteOnEvent(tick=1, channel=0, data=[90, 66]),\n",
      "   midi.NoteOnEvent(tick=0, channel=0, data=[91, 149]),\n",
      "   midi.NoteOnEvent(tick=3, channel=0, data=[124, 229]),\n",
      "   midi.NoteOffEvent(tick=3, channel=0, data=[103, 0]),\n",
      "   midi.NoteOffEvent(tick=2, channel=0, data=[2, 0]),\n",
      "   midi.NoteOnEvent(tick=0, channel=0, data=[19, 201]),\n",
      "   midi.NoteOffEvent(tick=3, channel=0, data=[20, 0]),\n",
      "   midi.NoteOnEvent(tick=1, channel=0, data=[40, 44]),\n",
      "   midi.NoteOnEvent(tick=1, channel=0, data=[66, 27]),\n",
      "   midi.NoteOnEvent(tick=0, channel=0, data=[30, 8]),\n",
      "   midi.NoteOnEvent(tick=1, channel=0, data=[116, 104]),\n",
      "   midi.NoteOnEvent(tick=1, channel=0, data=[61, 50]),\n",
      "   midi.NoteOffEvent(tick=3, channel=0, data=[39, 0]),\n",
      "   midi.NoteOffEvent(tick=0, channel=0, data=[109, 0]),\n",
      "   midi.NoteOnEvent(tick=3, channel=0, data=[113, 43]),\n",
      "   midi.NoteOnEvent(tick=8, channel=0, data=[43, 83]),\n",
      "   midi.NoteOnEvent(tick=1, channel=0, data=[115, 68]),\n",
      "   midi.NoteOnEvent(tick=3, channel=0, data=[58, 214]),\n",
      "   midi.NoteOnEvent(tick=1, channel=0, data=[11, 202]),\n",
      "   midi.NoteOnEvent(tick=1, channel=0, data=[92, 241]),\n",
      "   midi.NoteOnEvent(tick=0, channel=0, data=[119, 250]),\n",
      "   midi.NoteOnEvent(tick=1, channel=0, data=[17, 154]),\n",
      "   midi.NoteOnEvent(tick=0, channel=0, data=[74, 129]),\n",
      "   midi.NoteOffEvent(tick=4, channel=0, data=[96, 0]),\n",
      "   midi.NoteOnEvent(tick=0, channel=0, data=[51, 174]),\n",
      "   midi.NoteOnEvent(tick=0, channel=0, data=[11, 6]),\n",
      "   midi.NoteOnEvent(tick=3, channel=0, data=[19, 25]),\n",
      "   midi.NoteOnEvent(tick=2, channel=0, data=[109, 54]),\n",
      "   midi.NoteOnEvent(tick=1, channel=0, data=[127, 41]),\n",
      "   midi.NoteOffEvent(tick=1, channel=0, data=[93, 0]),\n",
      "   midi.NoteOnEvent(tick=0, channel=0, data=[107, 74]),\n",
      "   midi.NoteOnEvent(tick=5, channel=0, data=[14, 188]),\n",
      "   midi.NoteOnEvent(tick=0, channel=0, data=[118, 137]),\n",
      "   midi.NoteOffEvent(tick=4, channel=0, data=[107, 0]),\n",
      "   midi.NoteOffEvent(tick=2, channel=0, data=[81, 0]),\n",
      "   midi.NoteOnEvent(tick=1, channel=0, data=[69, 68]),\n",
      "   midi.NoteOnEvent(tick=4, channel=0, data=[105, 96]),\n",
      "   midi.NoteOnEvent(tick=2, channel=0, data=[49, 133]),\n",
      "   midi.NoteOnEvent(tick=2, channel=0, data=[18, 47]),\n",
      "   midi.NoteOnEvent(tick=0, channel=0, data=[43, 18]),\n",
      "   midi.NoteOnEvent(tick=0, channel=0, data=[15, 56]),\n",
      "   midi.NoteOnEvent(tick=1, channel=0, data=[62, 88]),\n",
      "   midi.NoteOnEvent(tick=1, channel=0, data=[11, 137]),\n",
      "   midi.NoteOnEvent(tick=1, channel=0, data=[65, 190]),\n",
      "   midi.NoteOffEvent(tick=1, channel=0, data=[7, 0]),\n",
      "   midi.NoteOffEvent(tick=2, channel=0, data=[37, 0]),\n",
      "   midi.NoteOnEvent(tick=6, channel=0, data=[89, 133]),\n",
      "   midi.NoteOnEvent(tick=6, channel=0, data=[92, 141]),\n",
      "   midi.NoteOffEvent(tick=2, channel=0, data=[92, 0]),\n",
      "   midi.NoteOffEvent(tick=2, channel=0, data=[72, 0]),\n",
      "   midi.NoteOffEvent(tick=2, channel=0, data=[104, 0]),\n",
      "   midi.NoteOnEvent(tick=1, channel=0, data=[93, 190]),\n",
      "   midi.NoteOnEvent(tick=0, channel=0, data=[91, 246]),\n",
      "   midi.NoteOnEvent(tick=3, channel=0, data=[126, 165]),\n",
      "   midi.NoteOnEvent(tick=0, channel=0, data=[77, 158]),\n",
      "   midi.NoteOnEvent(tick=2, channel=0, data=[107, 69]),\n",
      "   midi.NoteOnEvent(tick=0, channel=0, data=[119, 73]),\n",
      "   midi.NoteOnEvent(tick=0, channel=0, data=[100, 101]),\n",
      "   midi.NoteOnEvent(tick=0, channel=0, data=[113, 64]),\n",
      "   midi.NoteOffEvent(tick=2, channel=0, data=[53, 0]),\n",
      "   midi.NoteOffEvent(tick=0, channel=0, data=[98, 0]),\n",
      "   midi.NoteOnEvent(tick=3, channel=0, data=[113, 154]),\n",
      "   midi.NoteOnEvent(tick=3, channel=0, data=[32, 145]),\n",
      "   midi.NoteOnEvent(tick=4, channel=0, data=[90, 169]),\n",
      "   midi.NoteOnEvent(tick=0, channel=0, data=[72, 58]),\n",
      "   midi.NoteOnEvent(tick=1, channel=0, data=[4, 0]),\n",
      "   midi.NoteOnEvent(tick=1, channel=0, data=[116, 129]),\n",
      "   midi.NoteOnEvent(tick=0, channel=0, data=[43, 123]),\n",
      "   midi.NoteOffEvent(tick=2, channel=0, data=[41, 0]),\n",
      "   midi.NoteOnEvent(tick=1, channel=0, data=[6, 110]),\n",
      "   midi.NoteOnEvent(tick=1, channel=0, data=[123, 31]),\n",
      "   midi.NoteOnEvent(tick=5, channel=0, data=[71, 36]),\n",
      "   midi.NoteOnEvent(tick=1, channel=0, data=[125, 39]),\n",
      "   midi.NoteOnEvent(tick=1, channel=0, data=[61, 178]),\n",
      "   midi.NoteOnEvent(tick=2, channel=0, data=[96, 94]),\n",
      "   midi.NoteOnEvent(tick=3, channel=0, data=[8, 123]),\n",
      "   midi.NoteOnEvent(tick=6, channel=0, data=[101, 74]),\n",
      "   midi.NoteOffEvent(tick=2, channel=0, data=[59, 0]),\n",
      "   midi.NoteOnEvent(tick=1, channel=0, data=[23, 105]),\n",
      "   midi.NoteOnEvent(tick=2, channel=0, data=[92, 107]),\n",
      "   midi.NoteOnEvent(tick=5, channel=0, data=[126, 2]),\n",
      "   midi.NoteOnEvent(tick=1, channel=0, data=[68, 59]),\n",
      "   midi.NoteOffEvent(tick=1, channel=0, data=[69, 0]),\n",
      "   midi.NoteOnEvent(tick=3, channel=0, data=[48, 107]),\n",
      "   midi.NoteOnEvent(tick=0, channel=0, data=[29, 59]),\n",
      "   midi.NoteOnEvent(tick=2, channel=0, data=[108, 46]),\n",
      "   midi.NoteOnEvent(tick=2, channel=0, data=[93, 178]),\n",
      "   midi.NoteOnEvent(tick=4, channel=0, data=[92, 66]),\n",
      "   midi.NoteOffEvent(tick=1, channel=0, data=[23, 0]),\n",
      "   midi.NoteOnEvent(tick=2, channel=0, data=[62, 15]),\n",
      "   midi.NoteOnEvent(tick=1, channel=0, data=[59, 9]),\n",
      "   midi.NoteOnEvent(tick=7, channel=0, data=[124, 232]),\n",
      "   midi.NoteOnEvent(tick=3, channel=0, data=[96, 222]),\n",
      "   midi.NoteOffEvent(tick=3, channel=0, data=[79, 0]),\n",
      "   midi.NoteOnEvent(tick=0, channel=0, data=[97, 19]),\n",
      "   midi.NoteOnEvent(tick=4, channel=0, data=[27, 143]),\n",
      "   midi.NoteOnEvent(tick=4, channel=0, data=[25, 212]),\n",
      "   midi.NoteOnEvent(tick=1, channel=0, data=[30, 30]),\n",
      "   midi.NoteOnEvent(tick=6, channel=0, data=[122, 170]),\n",
      "   midi.NoteOffEvent(tick=1, channel=0, data=[86, 0]),\n",
      "   midi.NoteOnEvent(tick=3, channel=0, data=[11, 41]),\n",
      "   midi.NoteOnEvent(tick=2, channel=0, data=[96, 56]),\n",
      "   midi.NoteOnEvent(tick=0, channel=0, data=[77, 247]),\n",
      "   midi.NoteOnEvent(tick=2, channel=0, data=[15, 49]),\n",
      "   midi.NoteOffEvent(tick=2, channel=0, data=[49, 0]),\n",
      "   midi.NoteOffEvent(tick=1, channel=0, data=[85, 0]),\n",
      "   midi.NoteOnEvent(tick=1, channel=0, data=[69, 98]),\n",
      "   midi.NoteOnEvent(tick=1, channel=0, data=[105, 44]),\n",
      "   midi.NoteOnEvent(tick=0, channel=0, data=[5, 97]),\n",
      "   midi.NoteOffEvent(tick=1, channel=0, data=[65, 0]),\n",
      "   midi.NoteOnEvent(tick=0, channel=0, data=[40, 138]),\n",
      "   midi.NoteOffEvent(tick=4, channel=0, data=[18, 0]),\n",
      "   midi.NoteOnEvent(tick=0, channel=0, data=[102, 167]),\n",
      "   midi.NoteOnEvent(tick=0, channel=0, data=[82, 61]),\n",
      "   midi.NoteOnEvent(tick=2, channel=0, data=[14, 156]),\n",
      "   midi.NoteOnEvent(tick=1, channel=0, data=[103, 215]),\n",
      "   midi.NoteOffEvent(tick=1, channel=0, data=[77, 0]),\n",
      "   midi.NoteOnEvent(tick=2, channel=0, data=[15, 233]),\n",
      "   midi.NoteOnEvent(tick=1, channel=0, data=[2, 78]),\n",
      "   midi.NoteOffEvent(tick=2, channel=0, data=[120, 0]),\n",
      "   midi.NoteOnEvent(tick=0, channel=0, data=[121, 81]),\n",
      "   midi.NoteOnEvent(tick=1, channel=0, data=[42, 15]),\n",
      "   midi.NoteOnEvent(tick=1, channel=0, data=[36, 35]),\n",
      "   midi.NoteOnEvent(tick=1, channel=0, data=[116, 236]),\n",
      "   midi.NoteOnEvent(tick=0, channel=0, data=[64, 247]),\n",
      "   midi.NoteOnEvent(tick=0, channel=0, data=[107, 70]),\n",
      "   midi.NoteOnEvent(tick=1, channel=0, data=[13, 44]),\n",
      "   midi.NoteOnEvent(tick=2, channel=0, data=[52, 87]),\n",
      "   midi.NoteOffEvent(tick=1, channel=0, data=[116, 0]),\n",
      "   midi.NoteOnEvent(tick=3, channel=0, data=[88, 223]),\n",
      "   midi.NoteOnEvent(tick=2, channel=0, data=[97, 61]),\n",
      "   midi.NoteOnEvent(tick=1, channel=0, data=[67, 152]),\n",
      "   midi.NoteOnEvent(tick=5, channel=0, data=[4, 253]),\n",
      "   midi.NoteOnEvent(tick=1, channel=0, data=[65, 228]),\n",
      "   midi.NoteOnEvent(tick=2, channel=0, data=[40, 155]),\n",
      "   midi.NoteOnEvent(tick=0, channel=0, data=[24, 94]),\n",
      "   midi.NoteOnEvent(tick=2, channel=0, data=[61, 97]),\n",
      "   midi.NoteOnEvent(tick=5, channel=0, data=[41, 138]),\n",
      "   midi.NoteOnEvent(tick=1, channel=0, data=[86, 175]),\n",
      "   midi.NoteOnEvent(tick=2, channel=0, data=[119, 221]),\n",
      "   midi.NoteOnEvent(tick=0, channel=0, data=[93, 117]),\n",
      "   midi.NoteOnEvent(tick=1, channel=0, data=[81, 94]),\n",
      "   midi.NoteOnEvent(tick=3, channel=0, data=[6, 205]),\n",
      "   midi.NoteOnEvent(tick=9, channel=0, data=[9, 72]),\n",
      "   midi.NoteOffEvent(tick=12, channel=0, data=[87, 0]),\n",
      "   midi.NoteOffEvent(tick=11, channel=0, data=[67, 0]),\n",
      "   midi.NoteOffEvent(tick=4, channel=0, data=[14, 0]),\n",
      "   midi.NoteOffEvent(tick=7, channel=0, data=[63, 0]),\n",
      "   midi.NoteOffEvent(tick=12, channel=0, data=[61, 0]),\n",
      "   midi.NoteOffEvent(tick=8, channel=0, data=[100, 0]),\n",
      "   midi.NoteOffEvent(tick=4, channel=0, data=[10, 0]),\n",
      "   midi.NoteOffEvent(tick=0, channel=0, data=[71, 0]),\n",
      "   midi.NoteOffEvent(tick=4, channel=0, data=[16, 0]),\n",
      "   midi.NoteOffEvent(tick=9, channel=0, data=[29, 0]),\n",
      "   midi.NoteOffEvent(tick=4, channel=0, data=[46, 0]),\n",
      "   midi.NoteOffEvent(tick=7, channel=0, data=[47, 0]),\n",
      "   midi.NoteOffEvent(tick=1, channel=0, data=[68, 0]),\n",
      "   midi.NoteOffEvent(tick=5, channel=0, data=[40, 0]),\n",
      "   midi.NoteOffEvent(tick=18, channel=0, data=[12, 0]),\n",
      "   midi.NoteOffEvent(tick=13, channel=0, data=[65, 0]),\n",
      "   midi.NoteOffEvent(tick=6, channel=0, data=[99, 0]),\n",
      "   midi.NoteOffEvent(tick=2, channel=0, data=[109, 0]),\n",
      "   midi.NoteOffEvent(tick=4, channel=0, data=[107, 0]),\n",
      "   midi.NoteOffEvent(tick=28, channel=0, data=[74, 0]),\n",
      "   midi.NoteOffEvent(tick=6, channel=0, data=[124, 0]),\n",
      "   midi.NoteOffEvent(tick=7, channel=0, data=[42, 0]),\n",
      "   midi.NoteOffEvent(tick=6, channel=0, data=[22, 0]),\n",
      "   midi.NoteOffEvent(tick=0, channel=0, data=[92, 0]),\n",
      "   midi.NoteOffEvent(tick=7, channel=0, data=[45, 0]),\n",
      "   midi.NoteOffEvent(tick=23, channel=0, data=[51, 0]),\n",
      "   midi.NoteOffEvent(tick=4, channel=0, data=[88, 0]),\n",
      "   midi.NoteOffEvent(tick=9, channel=0, data=[31, 0]),\n",
      "   midi.NoteOffEvent(tick=9, channel=0, data=[123, 0]),\n",
      "   midi.NoteOffEvent(tick=24, channel=0, data=[19, 0]),\n",
      "   midi.NoteOffEvent(tick=0, channel=0, data=[25, 0]),\n",
      "   midi.NoteOffEvent(tick=1, channel=0, data=[52, 0]),\n",
      "   midi.NoteOffEvent(tick=18, channel=0, data=[3, 0]),\n",
      "   midi.NoteOffEvent(tick=4, channel=0, data=[122, 0]),\n",
      "   midi.NoteOffEvent(tick=9, channel=0, data=[111, 0]),\n",
      "   midi.NoteOffEvent(tick=3, channel=0, data=[62, 0]),\n",
      "   midi.NoteOffEvent(tick=1, channel=0, data=[32, 0]),\n",
      "   midi.NoteOffEvent(tick=2, channel=0, data=[125, 0]),\n",
      "   midi.NoteOffEvent(tick=18, channel=0, data=[90, 0]),\n",
      "   midi.NoteOffEvent(tick=2, channel=0, data=[4, 0]),\n",
      "   midi.NoteOffEvent(tick=7, channel=0, data=[112, 0]),\n",
      "   midi.NoteOffEvent(tick=1, channel=0, data=[50, 0]),\n",
      "   midi.NoteOffEvent(tick=5, channel=0, data=[24, 0]),\n",
      "   midi.NoteOffEvent(tick=6, channel=0, data=[106, 0]),\n",
      "   midi.NoteOffEvent(tick=6, channel=0, data=[36, 0]),\n",
      "   midi.NoteOffEvent(tick=19, channel=0, data=[0, 0]),\n",
      "   midi.NoteOffEvent(tick=3, channel=0, data=[83, 0]),\n",
      "   midi.NoteOffEvent(tick=4, channel=0, data=[73, 0]),\n",
      "   midi.NoteOffEvent(tick=5, channel=0, data=[110, 0]),\n",
      "   midi.NoteOffEvent(tick=14, channel=0, data=[58, 0]),\n",
      "   midi.NoteOffEvent(tick=7, channel=0, data=[127, 0]),\n",
      "   midi.NoteOffEvent(tick=11, channel=0, data=[9, 0]),\n",
      "   midi.NoteOffEvent(tick=3, channel=0, data=[5, 0]),\n",
      "   midi.NoteOffEvent(tick=9, channel=0, data=[69, 0]),\n",
      "   midi.NoteOffEvent(tick=21, channel=0, data=[26, 0]),\n",
      "   midi.NoteOffEvent(tick=26, channel=0, data=[56, 0]),\n",
      "   midi.NoteOffEvent(tick=12, channel=0, data=[81, 0]),\n",
      "   midi.NoteOffEvent(tick=2, channel=0, data=[64, 0]),\n",
      "   midi.NoteOffEvent(tick=22, channel=0, data=[86, 0]),\n",
      "   midi.NoteOffEvent(tick=1, channel=0, data=[82, 0]),\n",
      "   midi.NoteOffEvent(tick=8, channel=0, data=[54, 0]),\n",
      "   midi.NoteOffEvent(tick=7, channel=0, data=[118, 0]),\n",
      "   midi.NoteOffEvent(tick=5, channel=0, data=[91, 0]),\n",
      "   midi.NoteOffEvent(tick=14, channel=0, data=[103, 0]),\n",
      "   midi.NoteOffEvent(tick=21, channel=0, data=[27, 0]),\n",
      "   midi.NoteOffEvent(tick=3, channel=0, data=[1, 0]),\n",
      "   midi.NoteOffEvent(tick=0, channel=0, data=[2, 0]),\n",
      "   midi.NoteOffEvent(tick=6, channel=0, data=[78, 0]),\n",
      "   midi.NoteOffEvent(tick=1, channel=0, data=[105, 0]),\n",
      "   midi.NoteOffEvent(tick=0, channel=0, data=[114, 0]),\n",
      "   midi.NoteOffEvent(tick=2, channel=0, data=[57, 0]),\n",
      "   midi.NoteOffEvent(tick=1, channel=0, data=[80, 0]),\n",
      "   midi.NoteOffEvent(tick=5, channel=0, data=[101, 0]),\n",
      "   midi.NoteOffEvent(tick=18, channel=0, data=[21, 0]),\n",
      "   midi.NoteOffEvent(tick=0, channel=0, data=[72, 0]),\n",
      "   midi.NoteOffEvent(tick=6, channel=0, data=[38, 0]),\n",
      "   midi.NoteOffEvent(tick=2, channel=0, data=[117, 0]),\n",
      "   midi.NoteOffEvent(tick=3, channel=0, data=[97, 0]),\n",
      "   midi.NoteOffEvent(tick=1, channel=0, data=[89, 0]),\n",
      "   midi.NoteOffEvent(tick=23, channel=0, data=[66, 0]),\n",
      "   midi.NoteOffEvent(tick=16, channel=0, data=[30, 0]),\n",
      "   midi.NoteOffEvent(tick=1, channel=0, data=[43, 0]),\n",
      "   midi.NoteOffEvent(tick=5, channel=0, data=[17, 0]),\n",
      "   midi.NoteOffEvent(tick=3, channel=0, data=[96, 0]),\n",
      "   midi.NoteOffEvent(tick=17, channel=0, data=[115, 0]),\n",
      "   midi.NoteOffEvent(tick=6, channel=0, data=[34, 0]),\n",
      "   midi.NoteOffEvent(tick=1, channel=0, data=[13, 0]),\n",
      "   midi.NoteOffEvent(tick=12, channel=0, data=[15, 0]),\n",
      "   midi.NoteOffEvent(tick=7, channel=0, data=[59, 0]),\n",
      "   midi.NoteOffEvent(tick=0, channel=0, data=[113, 0]),\n",
      "   midi.NoteOffEvent(tick=8, channel=0, data=[121, 0]),\n",
      "   midi.NoteOffEvent(tick=11, channel=0, data=[11, 0]),\n",
      "   midi.NoteOffEvent(tick=4, channel=0, data=[126, 0]),\n",
      "   midi.NoteOffEvent(tick=19, channel=0, data=[93, 0]),\n",
      "   midi.NoteOffEvent(tick=16, channel=0, data=[119, 0]),\n",
      "   midi.NoteOffEvent(tick=15, channel=0, data=[48, 0]),\n",
      "   midi.NoteOffEvent(tick=19, channel=0, data=[108, 0]),\n",
      "   midi.NoteOffEvent(tick=27, channel=0, data=[8, 0]),\n",
      "   midi.NoteOffEvent(tick=27, channel=0, data=[41, 0]),\n",
      "   midi.NoteOffEvent(tick=33, channel=0, data=[102, 0]),\n",
      "   midi.NoteOffEvent(tick=103, channel=0, data=[6, 0]),\n",
      "   midi.EndOfTrackEvent(tick=0, data=[])]),\n",
      " midi.Track(\\\n",
      "  [midi.SetTempoEvent(tick=0, data=[4, 147, 224]),\n",
      "   midi.ProgramChangeEvent(tick=0, channel=0, data=[46]),\n",
      "   midi.NoteOnEvent(tick=0, channel=0, data=[87, 44]),\n",
      "   midi.NoteOnEvent(tick=0, channel=0, data=[101, 67]),\n",
      "   midi.NoteOnEvent(tick=0, channel=0, data=[44, 71]),\n",
      "   midi.NoteOnEvent(tick=1, channel=0, data=[113, 244]),\n",
      "   midi.NoteOnEvent(tick=1, channel=0, data=[18, 111]),\n",
      "   midi.NoteOnEvent(tick=0, channel=0, data=[122, 162]),\n",
      "   midi.NoteOnEvent(tick=1, channel=0, data=[101, 182]),\n",
      "   midi.NoteOnEvent(tick=4, channel=0, data=[111, 49]),\n",
      "   midi.NoteOnEvent(tick=6, channel=0, data=[69, 118]),\n",
      "   midi.NoteOnEvent(tick=1, channel=0, data=[33, 31]),\n",
      "   midi.NoteOnEvent(tick=3, channel=0, data=[64, 146]),\n",
      "   midi.NoteOnEvent(tick=0, channel=0, data=[31, 205]),\n",
      "   midi.NoteOnEvent(tick=1, channel=0, data=[30, 52]),\n",
      "   midi.NoteOnEvent(tick=3, channel=0, data=[119, 175]),\n",
      "   midi.NoteOnEvent(tick=1, channel=0, data=[21, 158]),\n",
      "   midi.NoteOnEvent(tick=2, channel=0, data=[6, 179]),\n",
      "   midi.NoteOnEvent(tick=4, channel=0, data=[123, 158]),\n",
      "   midi.NoteOnEvent(tick=1, channel=0, data=[121, 251]),\n",
      "   midi.NoteOnEvent(tick=0, channel=0, data=[11, 250]),\n",
      "   midi.NoteOnEvent(tick=3, channel=0, data=[57, 12]),\n",
      "   midi.NoteOnEvent(tick=2, channel=0, data=[107, 56]),\n",
      "   midi.NoteOnEvent(tick=1, channel=0, data=[88, 241]),\n",
      "   midi.NoteOnEvent(tick=1, channel=0, data=[101, 76]),\n",
      "   midi.NoteOnEvent(tick=1, channel=0, data=[97, 6]),\n",
      "   midi.NoteOnEvent(tick=5, channel=0, data=[11, 24]),\n",
      "   midi.NoteOnEvent(tick=3, channel=0, data=[113, 239]),\n",
      "   midi.NoteOnEvent(tick=1, channel=0, data=[60, 92]),\n",
      "   midi.NoteOnEvent(tick=2, channel=0, data=[98, 47]),\n",
      "   midi.NoteOnEvent(tick=8, channel=0, data=[73, 64]),\n",
      "   midi.NoteOnEvent(tick=3, channel=0, data=[104, 216]),\n",
      "   midi.NoteOnEvent(tick=2, channel=0, data=[97, 103]),\n",
      "   midi.NoteOnEvent(tick=5, channel=0, data=[100, 224]),\n",
      "   midi.NoteOnEvent(tick=2, channel=0, data=[31, 35]),\n",
      "   midi.NoteOnEvent(tick=1, channel=0, data=[56, 0]),\n",
      "   midi.NoteOnEvent(tick=0, channel=0, data=[89, 224]),\n",
      "   midi.NoteOnEvent(tick=1, channel=0, data=[82, 244]),\n",
      "   midi.NoteOnEvent(tick=0, channel=0, data=[25, 24]),\n",
      "   midi.NoteOnEvent(tick=2, channel=0, data=[123, 59]),\n",
      "   midi.NoteOnEvent(tick=0, channel=0, data=[21, 41]),\n",
      "   midi.NoteOnEvent(tick=1, channel=0, data=[76, 145]),\n",
      "   midi.NoteOnEvent(tick=1, channel=0, data=[96, 101]),\n",
      "   midi.NoteOnEvent(tick=8, channel=0, data=[90, 235]),\n",
      "   midi.NoteOnEvent(tick=4, channel=0, data=[110, 159]),\n",
      "   midi.NoteOnEvent(tick=1, channel=0, data=[89, 169]),\n",
      "   midi.NoteOnEvent(tick=0, channel=0, data=[83, 179]),\n",
      "   midi.NoteOnEvent(tick=4, channel=0, data=[121, 64]),\n",
      "   midi.NoteOnEvent(tick=2, channel=0, data=[37, 144]),\n",
      "   midi.NoteOnEvent(tick=0, channel=0, data=[3, 125]),\n",
      "   midi.NoteOnEvent(tick=1, channel=0, data=[10, 88]),\n",
      "   midi.NoteOffEvent(tick=1, channel=0, data=[31, 0]),\n",
      "   midi.NoteOnEvent(tick=2, channel=0, data=[78, 29]),\n",
      "   midi.NoteOnEvent(tick=1, channel=0, data=[93, 216]),\n",
      "   midi.NoteOnEvent(tick=3, channel=0, data=[50, 34]),\n",
      "   midi.NoteOnEvent(tick=3, channel=0, data=[73, 252]),\n",
      "   midi.NoteOnEvent(tick=0, channel=0, data=[62, 25]),\n",
      "   midi.NoteOnEvent(tick=1, channel=0, data=[109, 108]),\n",
      "   midi.NoteOnEvent(tick=1, channel=0, data=[107, 16]),\n",
      "   midi.NoteOffEvent(tick=1, channel=0, data=[33, 0]),\n",
      "   midi.NoteOnEvent(tick=0, channel=0, data=[111, 116]),\n",
      "   midi.NoteOnEvent(tick=3, channel=0, data=[109, 1]),\n",
      "   midi.NoteOnEvent(tick=0, channel=0, data=[118, 74]),\n",
      "   midi.NoteOnEvent(tick=0, channel=0, data=[126, 66]),\n",
      "   midi.NoteOnEvent(tick=8, channel=0, data=[64, 111]),\n",
      "   midi.NoteOnEvent(tick=0, channel=0, data=[64, 21]),\n",
      "   midi.NoteOnEvent(tick=4, channel=0, data=[27, 200]),\n",
      "   midi.NoteOnEvent(tick=0, channel=0, data=[5, 148]),\n",
      "   midi.NoteOnEvent(tick=0, channel=0, data=[71, 183]),\n",
      "   midi.NoteOnEvent(tick=1, channel=0, data=[41, 18]),\n",
      "   midi.NoteOnEvent(tick=0, channel=0, data=[116, 28]),\n",
      "   midi.NoteOnEvent(tick=1, channel=0, data=[120, 215]),\n",
      "   midi.NoteOnEvent(tick=0, channel=0, data=[28, 140]),\n",
      "   midi.NoteOffEvent(tick=5, channel=0, data=[62, 0]),\n",
      "   midi.NoteOffEvent(tick=2, channel=0, data=[121, 0]),\n",
      "   midi.NoteOffEvent(tick=5, channel=0, data=[116, 0]),\n",
      "   midi.NoteOnEvent(tick=0, channel=0, data=[35, 244]),\n",
      "   midi.NoteOffEvent(tick=1, channel=0, data=[98, 0]),\n",
      "   midi.NoteOnEvent(tick=0, channel=0, data=[38, 63]),\n",
      "   midi.NoteOnEvent(tick=0, channel=0, data=[14, 214]),\n",
      "   midi.NoteOnEvent(tick=1, channel=0, data=[74, 220]),\n",
      "   midi.NoteOnEvent(tick=0, channel=0, data=[76, 170]),\n",
      "   midi.NoteOnEvent(tick=2, channel=0, data=[59, 254]),\n",
      "   midi.NoteOnEvent(tick=1, channel=0, data=[109, 31]),\n",
      "   midi.NoteOnEvent(tick=1, channel=0, data=[28, 47]),\n",
      "   midi.NoteOffEvent(tick=2, channel=0, data=[107, 0]),\n",
      "   midi.NoteOnEvent(tick=0, channel=0, data=[8, 226]),\n",
      "   midi.NoteOnEvent(tick=6, channel=0, data=[34, 74]),\n",
      "   midi.NoteOnEvent(tick=3, channel=0, data=[109, 143]),\n",
      "   midi.NoteOnEvent(tick=2, channel=0, data=[21, 49]),\n",
      "   midi.NoteOnEvent(tick=1, channel=0, data=[18, 228]),\n",
      "   midi.NoteOnEvent(tick=1, channel=0, data=[109, 188]),\n",
      "   midi.NoteOnEvent(tick=1, channel=0, data=[30, 206]),\n",
      "   midi.NoteOnEvent(tick=1, channel=0, data=[95, 20]),\n",
      "   midi.NoteOnEvent(tick=1, channel=0, data=[78, 247]),\n",
      "   midi.NoteOnEvent(tick=1, channel=0, data=[120, 41]),\n",
      "   midi.NoteOnEvent(tick=2, channel=0, data=[17, 75]),\n",
      "   midi.NoteOnEvent(tick=2, channel=0, data=[37, 51]),\n",
      "   midi.NoteOnEvent(tick=2, channel=0, data=[70, 242]),\n",
      "   midi.NoteOnEvent(tick=3, channel=0, data=[109, 245]),\n",
      "   midi.NoteOnEvent(tick=1, channel=0, data=[97, 33]),\n",
      "   midi.NoteOnEvent(tick=0, channel=0, data=[56, 60]),\n",
      "   midi.NoteOnEvent(tick=1, channel=0, data=[42, 81]),\n",
      "   midi.NoteOnEvent(tick=1, channel=0, data=[122, 131]),\n",
      "   midi.NoteOnEvent(tick=5, channel=0, data=[62, 136]),\n",
      "   midi.NoteOnEvent(tick=0, channel=0, data=[121, 133]),\n",
      "   midi.NoteOnEvent(tick=7, channel=0, data=[112, 121]),\n",
      "   midi.NoteOnEvent(tick=8, channel=0, data=[45, 44]),\n",
      "   midi.NoteOnEvent(tick=3, channel=0, data=[27, 1]),\n",
      "   midi.NoteOnEvent(tick=1, channel=0, data=[74, 33]),\n",
      "   midi.NoteOnEvent(tick=2, channel=0, data=[20, 251]),\n",
      "   midi.NoteOnEvent(tick=2, channel=0, data=[95, 202]),\n",
      "   midi.NoteOnEvent(tick=1, channel=0, data=[124, 202]),\n",
      "   midi.NoteOnEvent(tick=3, channel=0, data=[77, 28]),\n",
      "   midi.NoteOnEvent(tick=1, channel=0, data=[3, 186]),\n",
      "   midi.NoteOnEvent(tick=0, channel=0, data=[5, 13]),\n",
      "   midi.NoteOnEvent(tick=3, channel=0, data=[102, 152]),\n",
      "   midi.NoteOnEvent(tick=0, channel=0, data=[109, 196]),\n",
      "   midi.NoteOffEvent(tick=1, channel=0, data=[113, 0]),\n",
      "   midi.NoteOnEvent(tick=1, channel=0, data=[92, 45]),\n",
      "   midi.NoteOnEvent(tick=0, channel=0, data=[22, 174]),\n",
      "   midi.NoteOnEvent(tick=6, channel=0, data=[42, 168]),\n",
      "   midi.NoteOnEvent(tick=1, channel=0, data=[74, 59]),\n",
      "   midi.NoteOnEvent(tick=2, channel=0, data=[115, 151]),\n",
      "   midi.NoteOnEvent(tick=1, channel=0, data=[12, 29]),\n",
      "   midi.NoteOnEvent(tick=2, channel=0, data=[45, 112]),\n",
      "   midi.NoteOffEvent(tick=1, channel=0, data=[35, 0]),\n",
      "   midi.NoteOnEvent(tick=3, channel=0, data=[8, 14]),\n",
      "   midi.NoteOnEvent(tick=0, channel=0, data=[120, 45]),\n",
      "   midi.NoteOffEvent(tick=3, channel=0, data=[27, 0]),\n",
      "   midi.NoteOffEvent(tick=1, channel=0, data=[115, 0]),\n",
      "   midi.NoteOnEvent(tick=0, channel=0, data=[17, 144]),\n",
      "   midi.NoteOffEvent(tick=4, channel=0, data=[76, 0]),\n",
      "   midi.NoteOnEvent(tick=4, channel=0, data=[75, 22]),\n",
      "   midi.NoteOnEvent(tick=1, channel=0, data=[59, 42]),\n",
      "   midi.NoteOffEvent(tick=2, channel=0, data=[71, 0]),\n",
      "   midi.NoteOnEvent(tick=4, channel=0, data=[9, 87]),\n",
      "   midi.NoteOnEvent(tick=0, channel=0, data=[27, 219]),\n",
      "   midi.NoteOnEvent(tick=5, channel=0, data=[121, 126]),\n",
      "   midi.NoteOnEvent(tick=3, channel=0, data=[30, 63]),\n",
      "   midi.NoteOffEvent(tick=3, channel=0, data=[41, 0]),\n",
      "   midi.NoteOnEvent(tick=0, channel=0, data=[62, 65]),\n",
      "   midi.NoteOnEvent(tick=7, channel=0, data=[32, 103]),\n",
      "   midi.NoteOnEvent(tick=2, channel=0, data=[110, 95]),\n",
      "   midi.NoteOffEvent(tick=2, channel=0, data=[96, 0]),\n",
      "   midi.NoteOnEvent(tick=3, channel=0, data=[54, 33]),\n",
      "   midi.NoteOnEvent(tick=3, channel=0, data=[31, 19]),\n",
      "   midi.NoteOnEvent(tick=7, channel=0, data=[5, 90]),\n",
      "   midi.NoteOnEvent(tick=1, channel=0, data=[91, 14]),\n",
      "   midi.NoteOnEvent(tick=2, channel=0, data=[11, 79]),\n",
      "   midi.NoteOffEvent(tick=2, channel=0, data=[32, 0]),\n",
      "   midi.NoteOnEvent(tick=3, channel=0, data=[54, 40]),\n",
      "   midi.NoteOnEvent(tick=0, channel=0, data=[30, 218]),\n",
      "   midi.NoteOnEvent(tick=1, channel=0, data=[59, 252]),\n",
      "   midi.NoteOffEvent(tick=2, channel=0, data=[38, 0]),\n",
      "   midi.NoteOnEvent(tick=3, channel=0, data=[72, 173]),\n",
      "   midi.NoteOffEvent(tick=6, channel=0, data=[118, 0]),\n",
      "   midi.NoteOnEvent(tick=1, channel=0, data=[74, 12]),\n",
      "   midi.NoteOnEvent(tick=6, channel=0, data=[92, 103]),\n",
      "   midi.NoteOffEvent(tick=1, channel=0, data=[9, 0]),\n",
      "   midi.NoteOnEvent(tick=0, channel=0, data=[121, 38]),\n",
      "   midi.NoteOffEvent(tick=1, channel=0, data=[73, 0]),\n",
      "   midi.NoteOnEvent(tick=0, channel=0, data=[54, 235]),\n",
      "   midi.NoteOnEvent(tick=1, channel=0, data=[47, 42]),\n",
      "   midi.NoteOnEvent(tick=10, channel=0, data=[97, 6]),\n",
      "   midi.NoteOnEvent(tick=4, channel=0, data=[98, 30]),\n",
      "   midi.NoteOnEvent(tick=2, channel=0, data=[103, 197]),\n",
      "   midi.NoteOnEvent(tick=1, channel=0, data=[90, 164]),\n",
      "   midi.NoteOnEvent(tick=2, channel=0, data=[87, 34]),\n",
      "   midi.NoteOnEvent(tick=2, channel=0, data=[7, 45]),\n",
      "   midi.NoteOnEvent(tick=0, channel=0, data=[116, 158]),\n",
      "   midi.NoteOffEvent(tick=1, channel=0, data=[34, 0]),\n",
      "   midi.NoteOnEvent(tick=2, channel=0, data=[120, 124]),\n",
      "   midi.NoteOnEvent(tick=2, channel=0, data=[62, 144]),\n",
      "   midi.NoteOnEvent(tick=2, channel=0, data=[56, 150]),\n",
      "   midi.NoteOnEvent(tick=0, channel=0, data=[58, 226]),\n",
      "   midi.NoteOnEvent(tick=2, channel=0, data=[105, 160]),\n",
      "   midi.NoteOnEvent(tick=0, channel=0, data=[112, 112]),\n",
      "   midi.NoteOffEvent(tick=2, channel=0, data=[77, 0]),\n",
      "   midi.NoteOffEvent(tick=1, channel=0, data=[69, 0]),\n",
      "   midi.NoteOnEvent(tick=0, channel=0, data=[1, 133]),\n",
      "   midi.NoteOnEvent(tick=6, channel=0, data=[117, 168]),\n",
      "   midi.NoteOnEvent(tick=2, channel=0, data=[62, 178]),\n",
      "   midi.NoteOnEvent(tick=1, channel=0, data=[74, 6]),\n",
      "   midi.NoteOnEvent(tick=1, channel=0, data=[89, 157]),\n",
      "   midi.NoteOffEvent(tick=1, channel=0, data=[72, 0]),\n",
      "   midi.NoteOnEvent(tick=0, channel=0, data=[119, 91]),\n",
      "   midi.NoteOnEvent(tick=1, channel=0, data=[75, 68]),\n",
      "   midi.NoteOffEvent(tick=1, channel=0, data=[97, 0]),\n",
      "   midi.NoteOnEvent(tick=0, channel=0, data=[82, 72]),\n",
      "   midi.NoteOnEvent(tick=1, channel=0, data=[76, 169]),\n",
      "   midi.NoteOnEvent(tick=1, channel=0, data=[81, 152]),\n",
      "   midi.NoteOnEvent(tick=0, channel=0, data=[30, 202]),\n",
      "   midi.NoteOnEvent(tick=3, channel=0, data=[1, 135]),\n",
      "   midi.NoteOnEvent(tick=0, channel=0, data=[47, 63]),\n",
      "   midi.NoteOnEvent(tick=1, channel=0, data=[93, 130]),\n",
      "   midi.NoteOnEvent(tick=2, channel=0, data=[120, 88]),\n",
      "   midi.NoteOnEvent(tick=2, channel=0, data=[118, 250]),\n",
      "   midi.NoteOnEvent(tick=0, channel=0, data=[86, 13]),\n",
      "   midi.NoteOnEvent(tick=1, channel=0, data=[41, 111]),\n",
      "   midi.NoteOffEvent(tick=3, channel=0, data=[18, 0]),\n",
      "   midi.NoteOnEvent(tick=2, channel=0, data=[83, 168]),\n",
      "   midi.NoteOnEvent(tick=4, channel=0, data=[117, 21]),\n",
      "   midi.NoteOnEvent(tick=0, channel=0, data=[89, 252]),\n",
      "   midi.NoteOnEvent(tick=0, channel=0, data=[12, 152]),\n",
      "   midi.NoteOnEvent(tick=0, channel=0, data=[40, 51]),\n",
      "   midi.NoteOffEvent(tick=1, channel=0, data=[58, 0]),\n",
      "   midi.NoteOnEvent(tick=0, channel=0, data=[2, 236]),\n",
      "   midi.NoteOnEvent(tick=6, channel=0, data=[79, 161]),\n",
      "   midi.NoteOnEvent(tick=9, channel=0, data=[106, 63]),\n",
      "   midi.NoteOnEvent(tick=0, channel=0, data=[12, 56]),\n",
      "   midi.NoteOffEvent(tick=1, channel=0, data=[21, 0]),\n",
      "   midi.NoteOnEvent(tick=2, channel=0, data=[124, 175]),\n",
      "   midi.NoteOnEvent(tick=0, channel=0, data=[55, 135]),\n",
      "   midi.NoteOnEvent(tick=0, channel=0, data=[17, 74]),\n",
      "   midi.NoteOnEvent(tick=5, channel=0, data=[119, 66]),\n",
      "   midi.NoteOnEvent(tick=0, channel=0, data=[60, 37]),\n",
      "   midi.NoteOnEvent(tick=1, channel=0, data=[118, 63]),\n",
      "   midi.NoteOnEvent(tick=1, channel=0, data=[54, 205]),\n",
      "   midi.NoteOnEvent(tick=2, channel=0, data=[66, 196]),\n",
      "   midi.NoteOnEvent(tick=0, channel=0, data=[66, 28]),\n",
      "   midi.NoteOnEvent(tick=1, channel=0, data=[45, 19]),\n",
      "   midi.NoteOnEvent(tick=0, channel=0, data=[2, 83]),\n",
      "   midi.NoteOffEvent(tick=1, channel=0, data=[118, 0]),\n",
      "   midi.NoteOnEvent(tick=1, channel=0, data=[60, 98]),\n",
      "   midi.NoteOffEvent(tick=2, channel=0, data=[70, 0]),\n",
      "   midi.NoteOnEvent(tick=1, channel=0, data=[87, 123]),\n",
      "   midi.NoteOnEvent(tick=7, channel=0, data=[15, 45]),\n",
      "   midi.NoteOnEvent(tick=1, channel=0, data=[120, 5]),\n",
      "   midi.NoteOnEvent(tick=0, channel=0, data=[58, 237]),\n",
      "   midi.NoteOnEvent(tick=1, channel=0, data=[38, 85]),\n",
      "   midi.NoteOnEvent(tick=2, channel=0, data=[89, 186]),\n",
      "   midi.NoteOnEvent(tick=0, channel=0, data=[56, 40]),\n",
      "   midi.NoteOnEvent(tick=1, channel=0, data=[43, 239]),\n",
      "   midi.NoteOffEvent(tick=1, channel=0, data=[79, 0]),\n",
      "   midi.NoteOnEvent(tick=3, channel=0, data=[115, 175]),\n",
      "   midi.NoteOnEvent(tick=1, channel=0, data=[52, 97]),\n",
      "   midi.NoteOnEvent(tick=0, channel=0, data=[88, 210]),\n",
      "   midi.NoteOnEvent(tick=0, channel=0, data=[28, 2]),\n",
      "   midi.NoteOnEvent(tick=1, channel=0, data=[82, 93]),\n",
      "   midi.NoteOnEvent(tick=1, channel=0, data=[21, 118]),\n",
      "   midi.NoteOnEvent(tick=0, channel=0, data=[80, 66]),\n",
      "   midi.NoteOnEvent(tick=0, channel=0, data=[31, 71]),\n",
      "   midi.NoteOnEvent(tick=1, channel=0, data=[77, 211]),\n",
      "   midi.NoteOnEvent(tick=0, channel=0, data=[55, 133]),\n",
      "   midi.NoteOnEvent(tick=1, channel=0, data=[62, 41]),\n",
      "   midi.NoteOnEvent(tick=0, channel=0, data=[104, 73]),\n",
      "   midi.NoteOnEvent(tick=1, channel=0, data=[22, 175]),\n",
      "   midi.NoteOnEvent(tick=4, channel=0, data=[127, 229]),\n",
      "   midi.NoteOnEvent(tick=2, channel=0, data=[15, 120]),\n",
      "   midi.NoteOnEvent(tick=1, channel=0, data=[73, 121]),\n",
      "   midi.NoteOnEvent(tick=1, channel=0, data=[51, 211]),\n",
      "   midi.NoteOnEvent(tick=1, channel=0, data=[41, 13]),\n",
      "   midi.NoteOnEvent(tick=0, channel=0, data=[7, 156]),\n",
      "   midi.NoteOnEvent(tick=2, channel=0, data=[106, 17]),\n",
      "   midi.NoteOnEvent(tick=0, channel=0, data=[41, 11]),\n",
      "   midi.NoteOnEvent(tick=1, channel=0, data=[121, 97]),\n",
      "   midi.NoteOnEvent(tick=3, channel=0, data=[59, 208]),\n",
      "   midi.NoteOnEvent(tick=1, channel=0, data=[45, 16]),\n",
      "   midi.NoteOnEvent(tick=1, channel=0, data=[4, 222]),\n",
      "   midi.NoteOnEvent(tick=2, channel=0, data=[35, 128]),\n",
      "   midi.NoteOffEvent(tick=2, channel=0, data=[86, 0]),\n",
      "   midi.NoteOnEvent(tick=0, channel=0, data=[80, 226]),\n",
      "   midi.NoteOnEvent(tick=2, channel=0, data=[43, 107]),\n",
      "   midi.NoteOnEvent(tick=1, channel=0, data=[17, 251]),\n",
      "   midi.NoteOnEvent(tick=1, channel=0, data=[23, 86]),\n",
      "   midi.NoteOnEvent(tick=1, channel=0, data=[89, 92]),\n",
      "   midi.NoteOnEvent(tick=1, channel=0, data=[37, 208]),\n",
      "   midi.NoteOnEvent(tick=7, channel=0, data=[35, 215]),\n",
      "   midi.NoteOnEvent(tick=6, channel=0, data=[105, 75]),\n",
      "   midi.NoteOnEvent(tick=2, channel=0, data=[88, 213]),\n",
      "   midi.NoteOnEvent(tick=3, channel=0, data=[125, 197]),\n",
      "   midi.NoteOffEvent(tick=2, channel=0, data=[95, 0]),\n",
      "   midi.NoteOnEvent(tick=0, channel=0, data=[38, 204]),\n",
      "   midi.NoteOnEvent(tick=4, channel=0, data=[67, 12]),\n",
      "   midi.NoteOffEvent(tick=3, channel=0, data=[77, 0]),\n",
      "   midi.NoteOffEvent(tick=1, channel=0, data=[74, 0]),\n",
      "   midi.NoteOnEvent(tick=2, channel=0, data=[14, 40]),\n",
      "   midi.NoteOnEvent(tick=1, channel=0, data=[88, 53]),\n",
      "   midi.NoteOnEvent(tick=4, channel=0, data=[88, 221]),\n",
      "   midi.NoteOffEvent(tick=1, channel=0, data=[115, 0]),\n",
      "   midi.NoteOnEvent(tick=0, channel=0, data=[93, 84]),\n",
      "   midi.NoteOnEvent(tick=1, channel=0, data=[41, 101]),\n",
      "   midi.NoteOnEvent(tick=0, channel=0, data=[6, 215]),\n",
      "   midi.NoteOffEvent(tick=1, channel=0, data=[10, 0]),\n",
      "   midi.NoteOnEvent(tick=0, channel=0, data=[91, 107]),\n",
      "   midi.NoteOnEvent(tick=1, channel=0, data=[64, 56]),\n",
      "   midi.NoteOnEvent(tick=1, channel=0, data=[46, 24]),\n",
      "   midi.NoteOnEvent(tick=2, channel=0, data=[36, 215]),\n",
      "   midi.NoteOnEvent(tick=0, channel=0, data=[90, 147]),\n",
      "   midi.NoteOnEvent(tick=1, channel=0, data=[90, 139]),\n",
      "   midi.NoteOnEvent(tick=2, channel=0, data=[26, 89]),\n",
      "   midi.NoteOnEvent(tick=1, channel=0, data=[29, 126]),\n",
      "   midi.NoteOnEvent(tick=3, channel=0, data=[10, 7]),\n",
      "   midi.NoteOnEvent(tick=2, channel=0, data=[126, 70]),\n",
      "   midi.NoteOnEvent(tick=1, channel=0, data=[96, 129]),\n",
      "   midi.NoteOnEvent(tick=1, channel=0, data=[20, 73]),\n",
      "   midi.NoteOnEvent(tick=1, channel=0, data=[24, 23]),\n",
      "   midi.NoteOnEvent(tick=1, channel=0, data=[12, 187]),\n",
      "   midi.NoteOnEvent(tick=2, channel=0, data=[43, 27]),\n",
      "   midi.NoteOnEvent(tick=2, channel=0, data=[88, 255]),\n",
      "   midi.NoteOnEvent(tick=1, channel=0, data=[123, 205]),\n",
      "   midi.NoteOnEvent(tick=2, channel=0, data=[104, 144]),\n",
      "   midi.NoteOnEvent(tick=3, channel=0, data=[75, 253]),\n",
      "   midi.NoteOffEvent(tick=1, channel=0, data=[41, 0]),\n",
      "   midi.NoteOnEvent(tick=0, channel=0, data=[33, 218]),\n",
      "   midi.NoteOnEvent(tick=5, channel=0, data=[38, 111]),\n",
      "   midi.NoteOnEvent(tick=4, channel=0, data=[88, 239]),\n",
      "   midi.NoteOnEvent(tick=0, channel=0, data=[93, 169]),\n",
      "   midi.NoteOffEvent(tick=2, channel=0, data=[44, 0]),\n",
      "   midi.NoteOnEvent(tick=2, channel=0, data=[42, 145]),\n",
      "   midi.NoteOnEvent(tick=1, channel=0, data=[111, 26]),\n",
      "   midi.NoteOffEvent(tick=2, channel=0, data=[30, 0]),\n",
      "   midi.NoteOnEvent(tick=2, channel=0, data=[109, 59]),\n",
      "   midi.NoteOffEvent(tick=2, channel=0, data=[104, 0]),\n",
      "   midi.NoteOnEvent(tick=3, channel=0, data=[118, 99]),\n",
      "   midi.NoteOnEvent(tick=1, channel=0, data=[60, 78]),\n",
      "   midi.NoteOnEvent(tick=1, channel=0, data=[120, 237]),\n",
      "   midi.NoteOnEvent(tick=1, channel=0, data=[122, 202]),\n",
      "   midi.NoteOnEvent(tick=0, channel=0, data=[54, 80]),\n",
      "   midi.NoteOnEvent(tick=2, channel=0, data=[78, 72]),\n",
      "   midi.NoteOffEvent(tick=1, channel=0, data=[15, 0]),\n",
      "   midi.NoteOnEvent(tick=1, channel=0, data=[123, 16]),\n",
      "   midi.NoteOnEvent(tick=0, channel=0, data=[64, 154]),\n",
      "   midi.NoteOnEvent(tick=1, channel=0, data=[60, 35]),\n",
      "   midi.NoteOnEvent(tick=2, channel=0, data=[95, 223]),\n",
      "   midi.NoteOnEvent(tick=0, channel=0, data=[1, 113]),\n",
      "   midi.NoteOffEvent(tick=2, channel=0, data=[105, 0]),\n",
      "   midi.NoteOnEvent(tick=0, channel=0, data=[109, 11]),\n",
      "   midi.NoteOnEvent(tick=2, channel=0, data=[31, 91]),\n",
      "   midi.NoteOnEvent(tick=2, channel=0, data=[15, 177]),\n",
      "   midi.NoteOnEvent(tick=0, channel=0, data=[91, 198]),\n",
      "   midi.NoteOnEvent(tick=0, channel=0, data=[69, 187]),\n",
      "   midi.NoteOnEvent(tick=2, channel=0, data=[19, 170]),\n",
      "   midi.NoteOffEvent(tick=1, channel=0, data=[19, 0]),\n",
      "   midi.NoteOnEvent(tick=0, channel=0, data=[23, 196]),\n",
      "   midi.NoteOnEvent(tick=0, channel=0, data=[12, 9]),\n",
      "   midi.NoteOnEvent(tick=0, channel=0, data=[80, 87]),\n",
      "   midi.NoteOnEvent(tick=2, channel=0, data=[24, 216]),\n",
      "   midi.NoteOnEvent(tick=0, channel=0, data=[32, 44]),\n",
      "   midi.NoteOnEvent(tick=0, channel=0, data=[86, 87]),\n",
      "   midi.NoteOnEvent(tick=1, channel=0, data=[0, 44]),\n",
      "   midi.NoteOffEvent(tick=1, channel=0, data=[58, 0]),\n",
      "   midi.NoteOnEvent(tick=1, channel=0, data=[111, 106]),\n",
      "   midi.NoteOnEvent(tick=2, channel=0, data=[103, 210]),\n",
      "   midi.NoteOnEvent(tick=1, channel=0, data=[22, 19]),\n",
      "   midi.NoteOffEvent(tick=1, channel=0, data=[35, 0]),\n",
      "   midi.NoteOnEvent(tick=0, channel=0, data=[36, 172]),\n",
      "   midi.NoteOnEvent(tick=2, channel=0, data=[123, 132]),\n",
      "   midi.NoteOnEvent(tick=3, channel=0, data=[34, 159]),\n",
      "   midi.NoteOnEvent(tick=3, channel=0, data=[36, 28]),\n",
      "   midi.NoteOnEvent(tick=1, channel=0, data=[126, 129]),\n",
      "   midi.NoteOnEvent(tick=0, channel=0, data=[116, 62]),\n",
      "   midi.NoteOnEvent(tick=5, channel=0, data=[1, 205]),\n",
      "   midi.NoteOnEvent(tick=1, channel=0, data=[52, 234]),\n",
      "   midi.NoteOnEvent(tick=0, channel=0, data=[102, 52]),\n",
      "   midi.NoteOnEvent(tick=1, channel=0, data=[61, 152]),\n",
      "   midi.NoteOnEvent(tick=3, channel=0, data=[62, 29]),\n",
      "   midi.NoteOnEvent(tick=1, channel=0, data=[74, 109]),\n",
      "   midi.NoteOnEvent(tick=1, channel=0, data=[68, 147]),\n",
      "   midi.NoteOffEvent(tick=4, channel=0, data=[62, 0]),\n",
      "   midi.NoteOffEvent(tick=1, channel=0, data=[42, 0]),\n",
      "   midi.NoteOnEvent(tick=0, channel=0, data=[94, 97]),\n",
      "   midi.NoteOffEvent(tick=2, channel=0, data=[20, 0]),\n",
      "   midi.NoteOnEvent(tick=0, channel=0, data=[63, 248]),\n",
      "   midi.NoteOnEvent(tick=1, channel=0, data=[89, 65]),\n",
      "   midi.NoteOffEvent(tick=3, channel=0, data=[127, 0]),\n",
      "   midi.NoteOnEvent(tick=1, channel=0, data=[105, 233]),\n",
      "   midi.NoteOnEvent(tick=3, channel=0, data=[124, 59]),\n",
      "   midi.NoteOnEvent(tick=1, channel=0, data=[2, 81]),\n",
      "   midi.NoteOnEvent(tick=3, channel=0, data=[125, 44]),\n",
      "   midi.NoteOnEvent(tick=1, channel=0, data=[16, 144]),\n",
      "   midi.NoteOnEvent(tick=1, channel=0, data=[92, 8]),\n",
      "   midi.NoteOnEvent(tick=2, channel=0, data=[11, 173]),\n",
      "   midi.NoteOnEvent(tick=1, channel=0, data=[44, 140]),\n",
      "   midi.NoteOnEvent(tick=0, channel=0, data=[114, 226]),\n",
      "   midi.NoteOnEvent(tick=0, channel=0, data=[30, 15]),\n",
      "   midi.NoteOnEvent(tick=1, channel=0, data=[63, 184]),\n",
      "   midi.NoteOnEvent(tick=1, channel=0, data=[49, 28]),\n",
      "   midi.NoteOnEvent(tick=0, channel=0, data=[54, 111]),\n",
      "   midi.NoteOnEvent(tick=1, channel=0, data=[15, 153]),\n",
      "   midi.NoteOnEvent(tick=3, channel=0, data=[11, 61]),\n",
      "   midi.NoteOnEvent(tick=1, channel=0, data=[74, 138]),\n",
      "   midi.NoteOnEvent(tick=2, channel=0, data=[23, 51]),\n",
      "   midi.NoteOffEvent(tick=5, channel=0, data=[43, 0]),\n",
      "   midi.NoteOnEvent(tick=0, channel=0, data=[17, 225]),\n",
      "   midi.NoteOffEvent(tick=2, channel=0, data=[6, 0]),\n",
      "   midi.NoteOnEvent(tick=0, channel=0, data=[74, 32]),\n",
      "   midi.NoteOnEvent(tick=5, channel=0, data=[54, 35]),\n",
      "   midi.NoteOnEvent(tick=1, channel=0, data=[124, 216]),\n",
      "   midi.NoteOnEvent(tick=0, channel=0, data=[52, 77]),\n",
      "   midi.NoteOnEvent(tick=6, channel=0, data=[119, 107]),\n",
      "   midi.NoteOnEvent(tick=0, channel=0, data=[44, 21]),\n",
      "   midi.NoteOnEvent(tick=1, channel=0, data=[68, 181]),\n",
      "   midi.NoteOnEvent(tick=1, channel=0, data=[85, 124]),\n",
      "   midi.NoteOnEvent(tick=1, channel=0, data=[18, 47]),\n",
      "   midi.NoteOnEvent(tick=1, channel=0, data=[122, 254]),\n",
      "   midi.NoteOnEvent(tick=1, channel=0, data=[59, 0]),\n",
      "   midi.NoteOnEvent(tick=1, channel=0, data=[64, 87]),\n",
      "   midi.NoteOnEvent(tick=0, channel=0, data=[124, 205]),\n",
      "   midi.NoteOnEvent(tick=1, channel=0, data=[83, 125]),\n",
      "   midi.NoteOnEvent(tick=1, channel=0, data=[98, 22]),\n",
      "   midi.NoteOffEvent(tick=1, channel=0, data=[98, 0]),\n",
      "   midi.NoteOnEvent(tick=0, channel=0, data=[24, 175]),\n",
      "   midi.NoteOnEvent(tick=2, channel=0, data=[31, 29]),\n",
      "   midi.NoteOnEvent(tick=2, channel=0, data=[34, 70]),\n",
      "   midi.NoteOnEvent(tick=6, channel=0, data=[93, 200]),\n",
      "   midi.NoteOnEvent(tick=3, channel=0, data=[127, 162]),\n",
      "   midi.NoteOnEvent(tick=0, channel=0, data=[106, 74]),\n",
      "   midi.NoteOnEvent(tick=2, channel=0, data=[102, 144]),\n",
      "   midi.NoteOnEvent(tick=1, channel=0, data=[124, 155]),\n",
      "   midi.NoteOnEvent(tick=0, channel=0, data=[15, 144]),\n",
      "   midi.NoteOnEvent(tick=1, channel=0, data=[102, 222]),\n",
      "   midi.NoteOnEvent(tick=3, channel=0, data=[4, 59]),\n",
      "   midi.NoteOffEvent(tick=1, channel=0, data=[81, 0]),\n",
      "   midi.NoteOnEvent(tick=0, channel=0, data=[28, 189]),\n",
      "   midi.NoteOnEvent(tick=2, channel=0, data=[72, 183]),\n",
      "   midi.NoteOnEvent(tick=3, channel=0, data=[66, 77]),\n",
      "   midi.NoteOffEvent(tick=1, channel=0, data=[7, 0]),\n",
      "   midi.NoteOffEvent(tick=1, channel=0, data=[45, 0]),\n",
      "   midi.NoteOnEvent(tick=3, channel=0, data=[78, 245]),\n",
      "   midi.NoteOffEvent(tick=1, channel=0, data=[59, 0]),\n",
      "   midi.NoteOnEvent(tick=0, channel=0, data=[42, 54]),\n",
      "   midi.NoteOnEvent(tick=2, channel=0, data=[57, 220]),\n",
      "   midi.NoteOnEvent(tick=0, channel=0, data=[53, 0]),\n",
      "   midi.NoteOnEvent(tick=1, channel=0, data=[1, 138]),\n",
      "   midi.NoteOnEvent(tick=0, channel=0, data=[62, 128]),\n",
      "   midi.NoteOffEvent(tick=4, channel=0, data=[40, 0]),\n",
      "   midi.NoteOnEvent(tick=0, channel=0, data=[77, 243]),\n",
      "   midi.NoteOnEvent(tick=1, channel=0, data=[17, 90]),\n",
      "   midi.NoteOnEvent(tick=3, channel=0, data=[59, 237]),\n",
      "   midi.NoteOnEvent(tick=2, channel=0, data=[31, 20]),\n",
      "   midi.NoteOnEvent(tick=2, channel=0, data=[44, 81]),\n",
      "   midi.NoteOnEvent(tick=1, channel=0, data=[27, 186]),\n",
      "   midi.NoteOnEvent(tick=5, channel=0, data=[56, 130]),\n",
      "   midi.NoteOnEvent(tick=2, channel=0, data=[80, 0]),\n",
      "   midi.NoteOnEvent(tick=1, channel=0, data=[22, 219]),\n",
      "   midi.NoteOffEvent(tick=1, channel=0, data=[127, 0]),\n",
      "   midi.NoteOffEvent(tick=2, channel=0, data=[8, 0]),\n",
      "   midi.NoteOnEvent(tick=2, channel=0, data=[112, 131]),\n",
      "   midi.NoteOnEvent(tick=1, channel=0, data=[61, 180]),\n",
      "   midi.NoteOnEvent(tick=1, channel=0, data=[53, 1]),\n",
      "   midi.NoteOnEvent(tick=4, channel=0, data=[2, 127]),\n",
      "   midi.NoteOnEvent(tick=2, channel=0, data=[43, 103]),\n",
      "   midi.NoteOnEvent(tick=2, channel=0, data=[110, 242]),\n",
      "   midi.NoteOffEvent(tick=5, channel=0, data=[50, 0]),\n",
      "   midi.NoteOnEvent(tick=1, channel=0, data=[116, 162]),\n",
      "   midi.NoteOnEvent(tick=1, channel=0, data=[83, 7]),\n",
      "   midi.NoteOnEvent(tick=1, channel=0, data=[35, 198]),\n",
      "   midi.NoteOnEvent(tick=0, channel=0, data=[73, 109]),\n",
      "   midi.NoteOnEvent(tick=3, channel=0, data=[29, 85]),\n",
      "   midi.NoteOffEvent(tick=5, channel=0, data=[25, 0]),\n",
      "   midi.NoteOnEvent(tick=0, channel=0, data=[37, 229]),\n",
      "   midi.NoteOnEvent(tick=4, channel=0, data=[86, 153]),\n",
      "   midi.NoteOnEvent(tick=1, channel=0, data=[11, 174]),\n",
      "   midi.NoteOnEvent(tick=0, channel=0, data=[54, 91]),\n",
      "   midi.NoteOnEvent(tick=1, channel=0, data=[124, 48]),\n",
      "   midi.NoteOnEvent(tick=1, channel=0, data=[73, 16]),\n",
      "   midi.NoteOnEvent(tick=6, channel=0, data=[6, 202]),\n",
      "   midi.NoteOnEvent(tick=8, channel=0, data=[33, 117]),\n",
      "   midi.NoteOnEvent(tick=1, channel=0, data=[21, 2]),\n",
      "   midi.NoteOnEvent(tick=3, channel=0, data=[17, 17]),\n",
      "   midi.NoteOnEvent(tick=1, channel=0, data=[52, 225]),\n",
      "   midi.NoteOnEvent(tick=1, channel=0, data=[91, 174]),\n",
      "   midi.NoteOnEvent(tick=0, channel=0, data=[47, 242]),\n",
      "   midi.NoteOnEvent(tick=1, channel=0, data=[101, 147]),\n",
      "   midi.NoteOnEvent(tick=0, channel=0, data=[83, 20]),\n",
      "   midi.NoteOffEvent(tick=3, channel=0, data=[90, 0]),\n",
      "   midi.NoteOnEvent(tick=1, channel=0, data=[50, 26]),\n",
      "   midi.NoteOnEvent(tick=0, channel=0, data=[22, 106]),\n",
      "   midi.NoteOnEvent(tick=3, channel=0, data=[19, 96]),\n",
      "   midi.NoteOnEvent(tick=2, channel=0, data=[15, 191]),\n",
      "   midi.NoteOnEvent(tick=1, channel=0, data=[102, 39]),\n",
      "   midi.NoteOnEvent(tick=1, channel=0, data=[109, 113]),\n",
      "   midi.NoteOnEvent(tick=5, channel=0, data=[124, 94]),\n",
      "   midi.NoteOnEvent(tick=0, channel=0, data=[118, 68]),\n",
      "   midi.NoteOnEvent(tick=7, channel=0, data=[107, 143]),\n",
      "   midi.NoteOnEvent(tick=4, channel=0, data=[83, 100]),\n",
      "   midi.NoteOnEvent(tick=2, channel=0, data=[12, 109]),\n",
      "   midi.NoteOnEvent(tick=2, channel=0, data=[58, 208]),\n",
      "   midi.NoteOnEvent(tick=0, channel=0, data=[96, 207]),\n",
      "   midi.NoteOnEvent(tick=0, channel=0, data=[8, 181]),\n",
      "   midi.NoteOnEvent(tick=1, channel=0, data=[73, 128]),\n",
      "   midi.NoteOnEvent(tick=1, channel=0, data=[37, 158]),\n",
      "   midi.NoteOnEvent(tick=1, channel=0, data=[40, 5]),\n",
      "   midi.NoteOffEvent(tick=5, channel=0, data=[36, 0]),\n",
      "   midi.NoteOnEvent(tick=4, channel=0, data=[29, 19]),\n",
      "   midi.NoteOnEvent(tick=6, channel=0, data=[120, 77]),\n",
      "   midi.NoteOffEvent(tick=6, channel=0, data=[123, 0]),\n",
      "   midi.NoteOnEvent(tick=1, channel=0, data=[75, 9]),\n",
      "   midi.NoteOnEvent(tick=0, channel=0, data=[109, 232]),\n",
      "   midi.NoteOffEvent(tick=1, channel=0, data=[44, 0]),\n",
      "   midi.NoteOnEvent(tick=2, channel=0, data=[83, 25]),\n",
      "   midi.NoteOnEvent(tick=0, channel=0, data=[29, 193]),\n",
      "   midi.NoteOnEvent(tick=2, channel=0, data=[4, 148]),\n",
      "   midi.NoteOnEvent(tick=0, channel=0, data=[75, 157]),\n",
      "   midi.NoteOnEvent(tick=0, channel=0, data=[64, 132]),\n",
      "   midi.NoteOnEvent(tick=0, channel=0, data=[125, 250]),\n",
      "   midi.NoteOffEvent(tick=4, channel=0, data=[28, 0]),\n",
      "   midi.NoteOnEvent(tick=1, channel=0, data=[30, 211]),\n",
      "   midi.NoteOnEvent(tick=3, channel=0, data=[101, 19]),\n",
      "   midi.NoteOffEvent(tick=2, channel=0, data=[2, 0]),\n",
      "   midi.NoteOnEvent(tick=2, channel=0, data=[61, 226]),\n",
      "   midi.NoteOnEvent(tick=0, channel=0, data=[10, 14]),\n",
      "   midi.NoteOnEvent(tick=1, channel=0, data=[82, 178]),\n",
      "   midi.NoteOnEvent(tick=1, channel=0, data=[111, 48]),\n",
      "   midi.NoteOnEvent(tick=0, channel=0, data=[123, 135]),\n",
      "   midi.NoteOffEvent(tick=2, channel=0, data=[80, 0]),\n",
      "   midi.NoteOnEvent(tick=1, channel=0, data=[98, 214]),\n",
      "   midi.NoteOnEvent(tick=1, channel=0, data=[10, 47]),\n",
      "   midi.NoteOnEvent(tick=5, channel=0, data=[54, 191]),\n",
      "   midi.NoteOnEvent(tick=1, channel=0, data=[14, 194]),\n",
      "   midi.NoteOnEvent(tick=1, channel=0, data=[52, 40]),\n",
      "   midi.NoteOnEvent(tick=2, channel=0, data=[89, 103]),\n",
      "   midi.NoteOnEvent(tick=3, channel=0, data=[116, 103]),\n",
      "   midi.NoteOffEvent(tick=3, channel=0, data=[40, 0]),\n",
      "   midi.NoteOnEvent(tick=3, channel=0, data=[82, 225]),\n",
      "   midi.NoteOnEvent(tick=3, channel=0, data=[107, 124]),\n",
      "   midi.NoteOffEvent(tick=2, channel=0, data=[69, 0]),\n",
      "   midi.NoteOnEvent(tick=0, channel=0, data=[122, 90]),\n",
      "   midi.NoteOnEvent(tick=5, channel=0, data=[15, 223]),\n",
      "   midi.NoteOffEvent(tick=1, channel=0, data=[78, 0]),\n",
      "   midi.NoteOnEvent(tick=0, channel=0, data=[97, 78]),\n",
      "   midi.NoteOffEvent(tick=3, channel=0, data=[120, 0]),\n",
      "   midi.NoteOnEvent(tick=1, channel=0, data=[127, 59]),\n",
      "   midi.NoteOnEvent(tick=0, channel=0, data=[9, 209]),\n",
      "   midi.NoteOnEvent(tick=2, channel=0, data=[58, 51]),\n",
      "   midi.NoteOnEvent(tick=2, channel=0, data=[25, 190]),\n",
      "   midi.NoteOnEvent(tick=4, channel=0, data=[110, 55]),\n",
      "   midi.NoteOnEvent(tick=3, channel=0, data=[121, 68]),\n",
      "   midi.NoteOnEvent(tick=1, channel=0, data=[44, 210]),\n",
      "   midi.NoteOffEvent(tick=1, channel=0, data=[95, 0]),\n",
      "   midi.NoteOffEvent(tick=5, channel=0, data=[49, 0]),\n",
      "   midi.NoteOffEvent(tick=0, channel=0, data=[67, 0]),\n",
      "   midi.NoteOnEvent(tick=1, channel=0, data=[53, 44]),\n",
      "   midi.NoteOffEvent(tick=1, channel=0, data=[11, 0]),\n",
      "   midi.NoteOnEvent(tick=2, channel=0, data=[45, 58]),\n",
      "   midi.NoteOnEvent(tick=3, channel=0, data=[10, 72]),\n",
      "   midi.NoteOffEvent(tick=1, channel=0, data=[76, 0]),\n",
      "   midi.NoteOnEvent(tick=3, channel=0, data=[18, 64]),\n",
      "   midi.NoteOnEvent(tick=4, channel=0, data=[49, 101]),\n",
      "   midi.NoteOnEvent(tick=1, channel=0, data=[53, 152]),\n",
      "   midi.NoteOffEvent(tick=4, channel=0, data=[46, 0]),\n",
      "   midi.NoteOnEvent(tick=2, channel=0, data=[111, 228]),\n",
      "   midi.NoteOnEvent(tick=4, channel=0, data=[19, 149]),\n",
      "   midi.NoteOnEvent(tick=2, channel=0, data=[56, 163]),\n",
      "   midi.NoteOnEvent(tick=0, channel=0, data=[21, 105]),\n",
      "   midi.NoteOnEvent(tick=2, channel=0, data=[122, 241]),\n",
      "   midi.NoteOffEvent(tick=1, channel=0, data=[26, 0]),\n",
      "   midi.NoteOffEvent(tick=2, channel=0, data=[100, 0]),\n",
      "   midi.NoteOnEvent(tick=1, channel=0, data=[39, 199]),\n",
      "   midi.NoteOnEvent(tick=1, channel=0, data=[47, 93]),\n",
      "   midi.NoteOnEvent(tick=0, channel=0, data=[33, 76]),\n",
      "   midi.NoteOffEvent(tick=1, channel=0, data=[116, 0]),\n",
      "   midi.NoteOnEvent(tick=0, channel=0, data=[109, 81]),\n",
      "   midi.NoteOnEvent(tick=4, channel=0, data=[66, 100]),\n",
      "   midi.NoteOnEvent(tick=0, channel=0, data=[121, 118]),\n",
      "   midi.NoteOnEvent(tick=2, channel=0, data=[57, 220]),\n",
      "   midi.NoteOnEvent(tick=1, channel=0, data=[106, 25]),\n",
      "   midi.NoteOnEvent(tick=3, channel=0, data=[51, 226]),\n",
      "   midi.NoteOffEvent(tick=1, channel=0, data=[62, 0]),\n",
      "   midi.NoteOnEvent(tick=0, channel=0, data=[113, 103]),\n",
      "   midi.NoteOffEvent(tick=2, channel=0, data=[107, 0]),\n",
      "   midi.NoteOnEvent(tick=0, channel=0, data=[5, 4]),\n",
      "   midi.NoteOnEvent(tick=1, channel=0, data=[13, 224]),\n",
      "   midi.NoteOnEvent(tick=1, channel=0, data=[61, 34]),\n",
      "   midi.NoteOnEvent(tick=1, channel=0, data=[64, 195]),\n",
      "   midi.NoteOnEvent(tick=0, channel=0, data=[6, 184]),\n",
      "   midi.NoteOnEvent(tick=0, channel=0, data=[10, 110]),\n",
      "   midi.NoteOnEvent(tick=1, channel=0, data=[103, 70]),\n",
      "   midi.NoteOnEvent(tick=2, channel=0, data=[61, 108]),\n",
      "   midi.NoteOnEvent(tick=4, channel=0, data=[103, 3]),\n",
      "   midi.NoteOnEvent(tick=2, channel=0, data=[85, 14]),\n",
      "   midi.NoteOnEvent(tick=1, channel=0, data=[116, 146]),\n",
      "   midi.NoteOffEvent(tick=3, channel=0, data=[116, 0]),\n",
      "   midi.NoteOnEvent(tick=2, channel=0, data=[79, 211]),\n",
      "   midi.NoteOnEvent(tick=1, channel=0, data=[47, 65]),\n",
      "   midi.NoteOnEvent(tick=2, channel=0, data=[54, 113]),\n",
      "   midi.NoteOnEvent(tick=0, channel=0, data=[34, 130]),\n",
      "   midi.NoteOnEvent(tick=2, channel=0, data=[57, 7]),\n",
      "   midi.NoteOnEvent(tick=5, channel=0, data=[40, 251]),\n",
      "   midi.NoteOffEvent(tick=1, channel=0, data=[5, 0]),\n",
      "   midi.NoteOnEvent(tick=0, channel=0, data=[63, 155]),\n",
      "   midi.NoteOnEvent(tick=2, channel=0, data=[43, 254]),\n",
      "   midi.NoteOnEvent(tick=0, channel=0, data=[126, 177]),\n",
      "   midi.NoteOnEvent(tick=1, channel=0, data=[96, 144]),\n",
      "   midi.NoteOnEvent(tick=3, channel=0, data=[85, 18]),\n",
      "   midi.NoteOnEvent(tick=9, channel=0, data=[13, 140]),\n",
      "   midi.NoteOffEvent(tick=3, channel=0, data=[87, 0]),\n",
      "   midi.NoteOffEvent(tick=8, channel=0, data=[68, 0]),\n",
      "   midi.NoteOffEvent(tick=6, channel=0, data=[113, 0]),\n",
      "   midi.NoteOffEvent(tick=3, channel=0, data=[122, 0]),\n",
      "   midi.NoteOffEvent(tick=22, channel=0, data=[25, 0]),\n",
      "   midi.NoteOffEvent(tick=6, channel=0, data=[34, 0]),\n",
      "   midi.NoteOffEvent(tick=1, channel=0, data=[43, 0]),\n",
      "   midi.NoteOffEvent(tick=1, channel=0, data=[77, 0]),\n",
      "   midi.NoteOffEvent(tick=11, channel=0, data=[53, 0]),\n",
      "   midi.NoteOffEvent(tick=3, channel=0, data=[119, 0]),\n",
      "   midi.NoteOffEvent(tick=2, channel=0, data=[17, 0]),\n",
      "   midi.NoteOffEvent(tick=3, channel=0, data=[82, 0]),\n",
      "   midi.NoteOffEvent(tick=21, channel=0, data=[106, 0]),\n",
      "   midi.NoteOffEvent(tick=18, channel=0, data=[30, 0]),\n",
      "   midi.NoteOffEvent(tick=6, channel=0, data=[13, 0]),\n",
      "   midi.NoteOffEvent(tick=8, channel=0, data=[3, 0]),\n",
      "   midi.NoteOffEvent(tick=3, channel=0, data=[59, 0]),\n",
      "   midi.NoteOffEvent(tick=1, channel=0, data=[74, 0]),\n",
      "   midi.NoteOffEvent(tick=1, channel=0, data=[63, 0]),\n",
      "   midi.NoteOffEvent(tick=7, channel=0, data=[49, 0]),\n",
      "   midi.NoteOffEvent(tick=6, channel=0, data=[4, 0]),\n",
      "   midi.NoteOffEvent(tick=22, channel=0, data=[98, 0]),\n",
      "   midi.NoteOffEvent(tick=1, channel=0, data=[50, 0]),\n",
      "   midi.NoteOffEvent(tick=12, channel=0, data=[18, 0]),\n",
      "   midi.NoteOffEvent(tick=6, channel=0, data=[42, 0]),\n",
      "   midi.NoteOffEvent(tick=5, channel=0, data=[35, 0]),\n",
      "   midi.NoteOffEvent(tick=18, channel=0, data=[117, 0]),\n",
      "   midi.NoteOffEvent(tick=1, channel=0, data=[111, 0]),\n",
      "   midi.NoteOffEvent(tick=2, channel=0, data=[75, 0]),\n",
      "   midi.NoteOffEvent(tick=13, channel=0, data=[1, 0]),\n",
      "   midi.NoteOffEvent(tick=16, channel=0, data=[57, 0]),\n",
      "   midi.NoteOffEvent(tick=9, channel=0, data=[19, 0]),\n",
      "   midi.NoteOffEvent(tick=2, channel=0, data=[102, 0]),\n",
      "   midi.NoteOffEvent(tick=10, channel=0, data=[112, 0]),\n",
      "   midi.NoteOffEvent(tick=1, channel=0, data=[52, 0]),\n",
      "   midi.NoteOffEvent(tick=12, channel=0, data=[114, 0]),\n",
      "   midi.NoteOffEvent(tick=12, channel=0, data=[125, 0]),\n",
      "   midi.NoteOffEvent(tick=2, channel=0, data=[15, 0]),\n",
      "   midi.NoteOffEvent(tick=4, channel=0, data=[31, 0]),\n",
      "   midi.NoteOffEvent(tick=5, channel=0, data=[0, 0]),\n",
      "   midi.NoteOffEvent(tick=4, channel=0, data=[45, 0]),\n",
      "   midi.NoteOffEvent(tick=7, channel=0, data=[105, 0]),\n",
      "   midi.NoteOffEvent(tick=3, channel=0, data=[44, 0]),\n",
      "   midi.NoteOffEvent(tick=14, channel=0, data=[60, 0]),\n",
      "   midi.NoteOffEvent(tick=5, channel=0, data=[93, 0]),\n",
      "   midi.NoteOffEvent(tick=11, channel=0, data=[9, 0]),\n",
      "   midi.NoteOffEvent(tick=8, channel=0, data=[32, 0]),\n",
      "   midi.NoteOffEvent(tick=4, channel=0, data=[118, 0]),\n",
      "   midi.NoteOffEvent(tick=34, channel=0, data=[39, 0]),\n",
      "   midi.NoteOffEvent(tick=2, channel=0, data=[72, 0]),\n",
      "   midi.NoteOffEvent(tick=1, channel=0, data=[88, 0]),\n",
      "   midi.NoteOffEvent(tick=12, channel=0, data=[22, 0]),\n",
      "   midi.NoteOffEvent(tick=0, channel=0, data=[103, 0]),\n",
      "   midi.NoteOffEvent(tick=1, channel=0, data=[58, 0]),\n",
      "   midi.NoteOffEvent(tick=3, channel=0, data=[16, 0]),\n",
      "   midi.NoteOffEvent(tick=18, channel=0, data=[55, 0]),\n",
      "   midi.NoteOffEvent(tick=1, channel=0, data=[127, 0]),\n",
      "   midi.NoteOffEvent(tick=14, channel=0, data=[38, 0]),\n",
      "   midi.NoteOffEvent(tick=7, channel=0, data=[37, 0]),\n",
      "   midi.NoteOffEvent(tick=14, channel=0, data=[123, 0]),\n",
      "   midi.NoteOffEvent(tick=26, channel=0, data=[29, 0]),\n",
      "   midi.NoteOffEvent(tick=4, channel=0, data=[40, 0]),\n",
      "   midi.NoteOffEvent(tick=0, channel=0, data=[89, 0]),\n",
      "   midi.NoteOffEvent(tick=7, channel=0, data=[94, 0]),\n",
      "   midi.NoteOffEvent(tick=12, channel=0, data=[6, 0]),\n",
      "   midi.NoteOffEvent(tick=20, channel=0, data=[54, 0]),\n",
      "   midi.NoteOffEvent(tick=0, channel=0, data=[91, 0]),\n",
      "   midi.NoteOffEvent(tick=6, channel=0, data=[51, 0]),\n",
      "   midi.NoteOffEvent(tick=4, channel=0, data=[92, 0]),\n",
      "   midi.NoteOffEvent(tick=8, channel=0, data=[12, 0]),\n",
      "   midi.NoteOffEvent(tick=2, channel=0, data=[24, 0]),\n",
      "   midi.NoteOffEvent(tick=12, channel=0, data=[33, 0]),\n",
      "   midi.NoteOffEvent(tick=17, channel=0, data=[23, 0]),\n",
      "   midi.NoteOffEvent(tick=1, channel=0, data=[27, 0]),\n",
      "   midi.NoteOffEvent(tick=13, channel=0, data=[86, 0]),\n",
      "   midi.NoteOffEvent(tick=13, channel=0, data=[101, 0]),\n",
      "   midi.NoteOffEvent(tick=16, channel=0, data=[64, 0]),\n",
      "   midi.NoteOffEvent(tick=20, channel=0, data=[66, 0]),\n",
      "   midi.NoteOffEvent(tick=4, channel=0, data=[124, 0]),\n",
      "   midi.NoteOffEvent(tick=66, channel=0, data=[21, 0]),\n",
      "   midi.NoteOffEvent(tick=3, channel=0, data=[8, 0]),\n",
      "   midi.NoteOffEvent(tick=4, channel=0, data=[83, 0]),\n",
      "   midi.NoteOffEvent(tick=14, channel=0, data=[73, 0]),\n",
      "   midi.NoteOffEvent(tick=8, channel=0, data=[79, 0]),\n",
      "   midi.NoteOffEvent(tick=3, channel=0, data=[109, 0]),\n",
      "   midi.NoteOffEvent(tick=10, channel=0, data=[110, 0]),\n",
      "   midi.NoteOffEvent(tick=5, channel=0, data=[10, 0]),\n",
      "   midi.NoteOffEvent(tick=33, channel=0, data=[126, 0]),\n",
      "   midi.NoteOffEvent(tick=5, channel=0, data=[121, 0]),\n",
      "   midi.NoteOffEvent(tick=60, channel=0, data=[14, 0]),\n",
      "   midi.NoteOffEvent(tick=1, channel=0, data=[56, 0]),\n",
      "   midi.NoteOffEvent(tick=0, channel=0, data=[85, 0]),\n",
      "   midi.NoteOffEvent(tick=31, channel=0, data=[97, 0]),\n",
      "   midi.NoteOffEvent(tick=56, channel=0, data=[61, 0]),\n",
      "   midi.NoteOffEvent(tick=21, channel=0, data=[96, 0]),\n",
      "   midi.NoteOffEvent(tick=3, channel=0, data=[47, 0]),\n",
      "   midi.EndOfTrackEvent(tick=0, data=[])]),\n",
      " midi.Track(\\\n",
      "  [midi.SetTempoEvent(tick=0, data=[4, 147, 224]),\n",
      "   midi.ProgramChangeEvent(tick=0, channel=0, data=[48]),\n",
      "   midi.NoteOnEvent(tick=0, channel=0, data=[113, 220]),\n",
      "   midi.NoteOnEvent(tick=0, channel=0, data=[13, 225]),\n",
      "   midi.NoteOnEvent(tick=0, channel=0, data=[19, 81]),\n",
      "   midi.NoteOnEvent(tick=1, channel=0, data=[63, 9]),\n",
      "   midi.NoteOnEvent(tick=1, channel=0, data=[74, 206]),\n",
      "   midi.NoteOnEvent(tick=0, channel=0, data=[112, 167]),\n",
      "   midi.NoteOnEvent(tick=1, channel=0, data=[77, 57]),\n",
      "   midi.NoteOnEvent(tick=4, channel=0, data=[15, 93]),\n",
      "   midi.NoteOnEvent(tick=6, channel=0, data=[8, 196]),\n",
      "   midi.NoteOnEvent(tick=1, channel=0, data=[39, 145]),\n",
      "   midi.NoteOnEvent(tick=3, channel=0, data=[79, 184]),\n",
      "   midi.NoteOnEvent(tick=0, channel=0, data=[115, 167]),\n",
      "   midi.NoteOnEvent(tick=1, channel=0, data=[64, 126]),\n",
      "   midi.NoteOnEvent(tick=3, channel=0, data=[120, 211]),\n",
      "   midi.NoteOnEvent(tick=1, channel=0, data=[77, 88]),\n",
      "   midi.NoteOnEvent(tick=2, channel=0, data=[121, 178]),\n",
      "   midi.NoteOnEvent(tick=4, channel=0, data=[5, 215]),\n",
      "   midi.NoteOnEvent(tick=1, channel=0, data=[76, 70]),\n",
      "   midi.NoteOnEvent(tick=0, channel=0, data=[21, 7]),\n",
      "   midi.NoteOnEvent(tick=3, channel=0, data=[51, 2]),\n",
      "   midi.NoteOnEvent(tick=2, channel=0, data=[108, 229]),\n",
      "   midi.NoteOnEvent(tick=1, channel=0, data=[41, 43]),\n",
      "   midi.NoteOnEvent(tick=1, channel=0, data=[97, 237]),\n",
      "   midi.NoteOnEvent(tick=1, channel=0, data=[56, 1]),\n",
      "   midi.NoteOnEvent(tick=5, channel=0, data=[54, 142]),\n",
      "   midi.NoteOnEvent(tick=3, channel=0, data=[105, 25]),\n",
      "   midi.NoteOnEvent(tick=1, channel=0, data=[62, 222]),\n",
      "   midi.NoteOnEvent(tick=2, channel=0, data=[87, 210]),\n",
      "   midi.NoteOnEvent(tick=8, channel=0, data=[94, 31]),\n",
      "   midi.NoteOnEvent(tick=3, channel=0, data=[56, 154]),\n",
      "   midi.NoteOnEvent(tick=2, channel=0, data=[93, 17]),\n",
      "   midi.NoteOnEvent(tick=5, channel=0, data=[61, 217]),\n",
      "   midi.NoteOnEvent(tick=2, channel=0, data=[123, 11]),\n",
      "   midi.NoteOnEvent(tick=1, channel=0, data=[97, 90]),\n",
      "   midi.NoteOnEvent(tick=0, channel=0, data=[44, 115]),\n",
      "   midi.NoteOnEvent(tick=1, channel=0, data=[55, 88]),\n",
      "   midi.NoteOnEvent(tick=0, channel=0, data=[5, 115]),\n",
      "   midi.NoteOnEvent(tick=2, channel=0, data=[65, 158]),\n",
      "   midi.NoteOnEvent(tick=0, channel=0, data=[13, 243]),\n",
      "   midi.NoteOnEvent(tick=1, channel=0, data=[56, 240]),\n",
      "   midi.NoteOnEvent(tick=1, channel=0, data=[108, 24]),\n",
      "   midi.NoteOffEvent(tick=7, channel=0, data=[19, 0]),\n",
      "   midi.NoteOnEvent(tick=1, channel=0, data=[69, 62]),\n",
      "   midi.NoteOnEvent(tick=4, channel=0, data=[24, 37]),\n",
      "   midi.NoteOnEvent(tick=1, channel=0, data=[101, 3]),\n",
      "   midi.NoteOnEvent(tick=0, channel=0, data=[28, 146]),\n",
      "   midi.NoteOnEvent(tick=4, channel=0, data=[19, 77]),\n",
      "   midi.NoteOnEvent(tick=2, channel=0, data=[57, 73]),\n",
      "   midi.NoteOnEvent(tick=0, channel=0, data=[70, 96]),\n",
      "   midi.NoteOnEvent(tick=1, channel=0, data=[98, 67]),\n",
      "   midi.NoteOffEvent(tick=1, channel=0, data=[44, 0]),\n",
      "   midi.NoteOnEvent(tick=2, channel=0, data=[98, 133]),\n",
      "   midi.NoteOnEvent(tick=1, channel=0, data=[21, 172]),\n",
      "   midi.NoteOffEvent(tick=1, channel=0, data=[64, 0]),\n",
      "   midi.NoteOnEvent(tick=2, channel=0, data=[89, 53]),\n",
      "   midi.NoteOnEvent(tick=3, channel=0, data=[120, 207]),\n",
      "   midi.NoteOnEvent(tick=0, channel=0, data=[87, 27]),\n",
      "   midi.NoteOnEvent(tick=1, channel=0, data=[40, 110]),\n",
      "   midi.NoteOnEvent(tick=1, channel=0, data=[92, 53]),\n",
      "   midi.NoteOnEvent(tick=1, channel=0, data=[62, 199]),\n",
      "   midi.NoteOnEvent(tick=3, channel=0, data=[99, 215]),\n",
      "   midi.NoteOnEvent(tick=0, channel=0, data=[59, 47]),\n",
      "   midi.NoteOnEvent(tick=0, channel=0, data=[123, 235]),\n",
      "   midi.NoteOffEvent(tick=6, channel=0, data=[57, 0]),\n",
      "   midi.NoteOnEvent(tick=2, channel=0, data=[88, 106]),\n",
      "   midi.NoteOnEvent(tick=0, channel=0, data=[72, 239]),\n",
      "   midi.NoteOnEvent(tick=4, channel=0, data=[33, 69]),\n",
      "   midi.NoteOnEvent(tick=0, channel=0, data=[4, 149]),\n",
      "   midi.NoteOnEvent(tick=0, channel=0, data=[54, 101]),\n",
      "   midi.NoteOnEvent(tick=1, channel=0, data=[44, 201]),\n",
      "   midi.NoteOnEvent(tick=0, channel=0, data=[105, 233]),\n",
      "   midi.NoteOnEvent(tick=1, channel=0, data=[68, 95]),\n",
      "   midi.NoteOnEvent(tick=0, channel=0, data=[114, 146]),\n",
      "   midi.NoteOffEvent(tick=11, channel=0, data=[113, 0]),\n",
      "   midi.NoteOnEvent(tick=1, channel=0, data=[82, 149]),\n",
      "   midi.NoteOnEvent(tick=1, channel=0, data=[86, 102]),\n",
      "   midi.NoteOnEvent(tick=0, channel=0, data=[87, 215]),\n",
      "   midi.NoteOnEvent(tick=1, channel=0, data=[98, 98]),\n",
      "   midi.NoteOnEvent(tick=0, channel=0, data=[9, 22]),\n",
      "   midi.NoteOnEvent(tick=2, channel=0, data=[17, 162]),\n",
      "   midi.NoteOnEvent(tick=1, channel=0, data=[45, 66]),\n",
      "   midi.NoteOnEvent(tick=1, channel=0, data=[90, 148]),\n",
      "   midi.NoteOnEvent(tick=2, channel=0, data=[17, 9]),\n",
      "   midi.NoteOffEvent(tick=4, channel=0, data=[82, 0]),\n",
      "   midi.NoteOnEvent(tick=2, channel=0, data=[17, 28]),\n",
      "   midi.NoteOffEvent(tick=2, channel=0, data=[98, 0]),\n",
      "   midi.NoteOnEvent(tick=1, channel=0, data=[60, 139]),\n",
      "   midi.NoteOnEvent(tick=2, channel=0, data=[80, 88]),\n",
      "   midi.NoteOffEvent(tick=1, channel=0, data=[79, 0]),\n",
      "   midi.NoteOnEvent(tick=0, channel=0, data=[38, 71]),\n",
      "   midi.NoteOnEvent(tick=1, channel=0, data=[9, 19]),\n",
      "   midi.NoteOnEvent(tick=1, channel=0, data=[75, 98]),\n",
      "   midi.NoteOnEvent(tick=1, channel=0, data=[25, 62]),\n",
      "   midi.NoteOnEvent(tick=1, channel=0, data=[20, 164]),\n",
      "   midi.NoteOnEvent(tick=1, channel=0, data=[28, 5]),\n",
      "   midi.NoteOnEvent(tick=2, channel=0, data=[47, 144]),\n",
      "   midi.NoteOnEvent(tick=2, channel=0, data=[37, 240]),\n",
      "   midi.NoteOnEvent(tick=2, channel=0, data=[45, 11]),\n",
      "   midi.NoteOnEvent(tick=3, channel=0, data=[107, 9]),\n",
      "   midi.NoteOnEvent(tick=1, channel=0, data=[39, 240]),\n",
      "   midi.NoteOnEvent(tick=0, channel=0, data=[72, 234]),\n",
      "   midi.NoteOnEvent(tick=1, channel=0, data=[30, 113]),\n",
      "   midi.NoteOnEvent(tick=1, channel=0, data=[71, 117]),\n",
      "   midi.NoteOnEvent(tick=5, channel=0, data=[89, 194]),\n",
      "   midi.NoteOnEvent(tick=0, channel=0, data=[87, 108]),\n",
      "   midi.NoteOnEvent(tick=7, channel=0, data=[68, 0]),\n",
      "   midi.NoteOffEvent(tick=6, channel=0, data=[45, 0]),\n",
      "   midi.NoteOnEvent(tick=2, channel=0, data=[78, 128]),\n",
      "   midi.NoteOnEvent(tick=3, channel=0, data=[109, 225]),\n",
      "   midi.NoteOnEvent(tick=1, channel=0, data=[121, 84]),\n",
      "   midi.NoteOnEvent(tick=2, channel=0, data=[105, 198]),\n",
      "   midi.NoteOnEvent(tick=2, channel=0, data=[48, 89]),\n",
      "   midi.NoteOnEvent(tick=1, channel=0, data=[45, 151]),\n",
      "   midi.NoteOnEvent(tick=3, channel=0, data=[107, 63]),\n",
      "   midi.NoteOnEvent(tick=1, channel=0, data=[56, 242]),\n",
      "   midi.NoteOnEvent(tick=0, channel=0, data=[21, 143]),\n",
      "   midi.NoteOnEvent(tick=3, channel=0, data=[114, 160]),\n",
      "   midi.NoteOnEvent(tick=0, channel=0, data=[52, 29]),\n",
      "   midi.NoteOnEvent(tick=2, channel=0, data=[62, 171]),\n",
      "   midi.NoteOnEvent(tick=0, channel=0, data=[2, 234]),\n",
      "   midi.NoteOnEvent(tick=6, channel=0, data=[2, 190]),\n",
      "   midi.NoteOnEvent(tick=1, channel=0, data=[97, 31]),\n",
      "   midi.NoteOnEvent(tick=2, channel=0, data=[35, 98]),\n",
      "   midi.NoteOnEvent(tick=1, channel=0, data=[6, 53]),\n",
      "   midi.NoteOffEvent(tick=1, channel=0, data=[123, 0]),\n",
      "   midi.NoteOnEvent(tick=1, channel=0, data=[111, 21]),\n",
      "   midi.NoteOnEvent(tick=4, channel=0, data=[94, 151]),\n",
      "   midi.NoteOnEvent(tick=0, channel=0, data=[48, 30]),\n",
      "   midi.NoteOnEvent(tick=4, channel=0, data=[97, 241]),\n",
      "   midi.NoteOnEvent(tick=8, channel=0, data=[29, 71]),\n",
      "   midi.NoteOnEvent(tick=1, channel=0, data=[81, 196]),\n",
      "   midi.NoteOnEvent(tick=6, channel=0, data=[116, 25]),\n",
      "   midi.NoteOnEvent(tick=0, channel=0, data=[48, 206]),\n",
      "   midi.NoteOnEvent(tick=5, channel=0, data=[19, 58]),\n",
      "   midi.NoteOnEvent(tick=3, channel=0, data=[37, 246]),\n",
      "   midi.NoteOnEvent(tick=3, channel=0, data=[107, 73]),\n",
      "   midi.NoteOnEvent(tick=7, channel=0, data=[31, 107]),\n",
      "   midi.NoteOnEvent(tick=2, channel=0, data=[8, 126]),\n",
      "   midi.NoteOffEvent(tick=2, channel=0, data=[44, 0]),\n",
      "   midi.NoteOnEvent(tick=3, channel=0, data=[30, 15]),\n",
      "   midi.NoteOnEvent(tick=3, channel=0, data=[22, 126]),\n",
      "   midi.NoteOnEvent(tick=7, channel=0, data=[7, 249]),\n",
      "   midi.NoteOnEvent(tick=1, channel=0, data=[44, 139]),\n",
      "   midi.NoteOnEvent(tick=2, channel=0, data=[103, 106]),\n",
      "   midi.NoteOnEvent(tick=5, channel=0, data=[31, 205]),\n",
      "   midi.NoteOnEvent(tick=0, channel=0, data=[35, 13]),\n",
      "   midi.NoteOnEvent(tick=1, channel=0, data=[121, 87]),\n",
      "   midi.NoteOffEvent(tick=2, channel=0, data=[21, 0]),\n",
      "   midi.NoteOnEvent(tick=3, channel=0, data=[16, 137]),\n",
      "   midi.NoteOnEvent(tick=7, channel=0, data=[8, 24]),\n",
      "   midi.NoteOnEvent(tick=6, channel=0, data=[9, 240]),\n",
      "   midi.NoteOnEvent(tick=1, channel=0, data=[120, 75]),\n",
      "   midi.NoteOnEvent(tick=1, channel=0, data=[70, 247]),\n",
      "   midi.NoteOnEvent(tick=1, channel=0, data=[69, 159]),\n",
      "   midi.NoteOffEvent(tick=6, channel=0, data=[5, 0]),\n",
      "   midi.NoteOnEvent(tick=4, channel=0, data=[19, 135]),\n",
      "   midi.NoteOffEvent(tick=1, channel=0, data=[20, 0]),\n",
      "   midi.NoteOnEvent(tick=3, channel=0, data=[104, 242]),\n",
      "   midi.NoteOnEvent(tick=2, channel=0, data=[39, 102]),\n",
      "   midi.NoteOffEvent(tick=1, channel=0, data=[33, 0]),\n",
      "   midi.NoteOnEvent(tick=0, channel=0, data=[121, 194]),\n",
      "   midi.NoteOnEvent(tick=2, channel=0, data=[90, 253]),\n",
      "   midi.NoteOnEvent(tick=2, channel=0, data=[75, 240]),\n",
      "   midi.NoteOnEvent(tick=0, channel=0, data=[32, 242]),\n",
      "   midi.NoteOnEvent(tick=3, channel=0, data=[50, 28]),\n",
      "   midi.NoteOnEvent(tick=2, channel=0, data=[69, 211]),\n",
      "   midi.NoteOnEvent(tick=2, channel=0, data=[102, 225]),\n",
      "   midi.NoteOnEvent(tick=0, channel=0, data=[116, 204]),\n",
      "   midi.NoteOnEvent(tick=2, channel=0, data=[60, 205]),\n",
      "   midi.NoteOnEvent(tick=0, channel=0, data=[23, 45]),\n",
      "   midi.NoteOffEvent(tick=1, channel=0, data=[89, 0]),\n",
      "   midi.NoteOnEvent(tick=2, channel=0, data=[79, 102]),\n",
      "   midi.NoteOffEvent(tick=1, channel=0, data=[2, 0]),\n",
      "   midi.NoteOffEvent(tick=0, channel=0, data=[48, 0]),\n",
      "   midi.NoteOnEvent(tick=5, channel=0, data=[76, 104]),\n",
      "   midi.NoteOnEvent(tick=2, channel=0, data=[9, 217]),\n",
      "   midi.NoteOnEvent(tick=1, channel=0, data=[46, 177]),\n",
      "   midi.NoteOnEvent(tick=1, channel=0, data=[36, 208]),\n",
      "   midi.NoteOnEvent(tick=1, channel=0, data=[126, 241]),\n",
      "   midi.NoteOffEvent(tick=1, channel=0, data=[94, 0]),\n",
      "   midi.NoteOnEvent(tick=0, channel=0, data=[97, 233]),\n",
      "   midi.NoteOnEvent(tick=1, channel=0, data=[105, 181]),\n",
      "   midi.NoteOnEvent(tick=1, channel=0, data=[73, 193]),\n",
      "   midi.NoteOffEvent(tick=1, channel=0, data=[112, 0]),\n",
      "   midi.NoteOnEvent(tick=0, channel=0, data=[99, 37]),\n",
      "   midi.NoteOnEvent(tick=0, channel=0, data=[42, 21]),\n",
      "   midi.NoteOffEvent(tick=2, channel=0, data=[88, 0]),\n",
      "   midi.NoteOnEvent(tick=1, channel=0, data=[85, 103]),\n",
      "   midi.NoteOnEvent(tick=0, channel=0, data=[123, 38]),\n",
      "   midi.NoteOnEvent(tick=1, channel=0, data=[34, 64]),\n",
      "   midi.NoteOnEvent(tick=2, channel=0, data=[118, 91]),\n",
      "   midi.NoteOnEvent(tick=2, channel=0, data=[93, 20]),\n",
      "   midi.NoteOnEvent(tick=0, channel=0, data=[93, 70]),\n",
      "   midi.NoteOffEvent(tick=1, channel=0, data=[63, 0]),\n",
      "   midi.NoteOnEvent(tick=0, channel=0, data=[29, 139]),\n",
      "   midi.NoteOffEvent(tick=3, channel=0, data=[24, 0]),\n",
      "   midi.NoteOffEvent(tick=1, channel=0, data=[105, 0]),\n",
      "   midi.NoteOnEvent(tick=1, channel=0, data=[38, 157]),\n",
      "   midi.NoteOffEvent(tick=2, channel=0, data=[87, 0]),\n",
      "   midi.NoteOnEvent(tick=2, channel=0, data=[67, 20]),\n",
      "   midi.NoteOnEvent(tick=0, channel=0, data=[0, 88]),\n",
      "   midi.NoteOnEvent(tick=0, channel=0, data=[125, 93]),\n",
      "   midi.NoteOnEvent(tick=0, channel=0, data=[13, 139]),\n",
      "   midi.NoteOnEvent(tick=1, channel=0, data=[76, 49]),\n",
      "   midi.NoteOnEvent(tick=6, channel=0, data=[39, 221]),\n",
      "   midi.NoteOnEvent(tick=9, channel=0, data=[120, 113]),\n",
      "   midi.NoteOnEvent(tick=0, channel=0, data=[1, 36]),\n",
      "   midi.NoteOnEvent(tick=3, channel=0, data=[119, 110]),\n",
      "   midi.NoteOnEvent(tick=0, channel=0, data=[112, 249]),\n",
      "   midi.NoteOnEvent(tick=0, channel=0, data=[122, 43]),\n",
      "   midi.NoteOnEvent(tick=5, channel=0, data=[63, 94]),\n",
      "   midi.NoteOnEvent(tick=0, channel=0, data=[62, 129]),\n",
      "   midi.NoteOnEvent(tick=1, channel=0, data=[111, 6]),\n",
      "   midi.NoteOnEvent(tick=1, channel=0, data=[57, 79]),\n",
      "   midi.NoteOnEvent(tick=2, channel=0, data=[61, 77]),\n",
      "   midi.NoteOnEvent(tick=0, channel=0, data=[0, 99]),\n",
      "   midi.NoteOnEvent(tick=1, channel=0, data=[5, 66]),\n",
      "   midi.NoteOnEvent(tick=0, channel=0, data=[31, 65]),\n",
      "   midi.NoteOnEvent(tick=2, channel=0, data=[22, 109]),\n",
      "   midi.NoteOnEvent(tick=3, channel=0, data=[8, 133]),\n",
      "   midi.NoteOnEvent(tick=7, channel=0, data=[73, 91]),\n",
      "   midi.NoteOnEvent(tick=1, channel=0, data=[42, 203]),\n",
      "   midi.NoteOnEvent(tick=0, channel=0, data=[22, 44]),\n",
      "   midi.NoteOnEvent(tick=1, channel=0, data=[113, 45]),\n",
      "   midi.NoteOffEvent(tick=2, channel=0, data=[99, 0]),\n",
      "   midi.NoteOnEvent(tick=0, channel=0, data=[52, 9]),\n",
      "   midi.NoteOnEvent(tick=0, channel=0, data=[100, 245]),\n",
      "   midi.NoteOnEvent(tick=1, channel=0, data=[55, 169]),\n",
      "   midi.NoteOffEvent(tick=4, channel=0, data=[32, 0]),\n",
      "   midi.NoteOnEvent(tick=0, channel=0, data=[124, 216]),\n",
      "   midi.NoteOnEvent(tick=1, channel=0, data=[59, 60]),\n",
      "   midi.NoteOnEvent(tick=0, channel=0, data=[92, 68]),\n",
      "   midi.NoteOnEvent(tick=0, channel=0, data=[4, 66]),\n",
      "   midi.NoteOnEvent(tick=1, channel=0, data=[65, 253]),\n",
      "   midi.NoteOffEvent(tick=1, channel=0, data=[9, 0]),\n",
      "   midi.NoteOffEvent(tick=0, channel=0, data=[69, 0]),\n",
      "   midi.NoteOnEvent(tick=0, channel=0, data=[1, 35]),\n",
      "   midi.NoteOnEvent(tick=0, channel=0, data=[33, 83]),\n",
      "   midi.NoteOnEvent(tick=0, channel=0, data=[70, 52]),\n",
      "   midi.NoteOnEvent(tick=1, channel=0, data=[110, 119]),\n",
      "   midi.NoteOnEvent(tick=0, channel=0, data=[78, 173]),\n",
      "   midi.NoteOffEvent(tick=1, channel=0, data=[92, 0]),\n",
      "   midi.NoteOffEvent(tick=0, channel=0, data=[115, 0]),\n",
      "   midi.NoteOnEvent(tick=0, channel=0, data=[28, 95]),\n",
      "   midi.NoteOnEvent(tick=0, channel=0, data=[99, 244]),\n",
      "   midi.NoteOffEvent(tick=1, channel=0, data=[7, 0]),\n",
      "   midi.NoteOnEvent(tick=0, channel=0, data=[84, 194]),\n",
      "   midi.NoteOnEvent(tick=4, channel=0, data=[34, 0]),\n",
      "   midi.NoteOnEvent(tick=2, channel=0, data=[95, 245]),\n",
      "   midi.NoteOnEvent(tick=1, channel=0, data=[96, 154]),\n",
      "   midi.NoteOffEvent(tick=1, channel=0, data=[68, 0]),\n",
      "   midi.NoteOnEvent(tick=0, channel=0, data=[87, 134]),\n",
      "   midi.NoteOnEvent(tick=1, channel=0, data=[13, 96]),\n",
      "   midi.NoteOnEvent(tick=0, channel=0, data=[16, 126]),\n",
      "   midi.NoteOnEvent(tick=2, channel=0, data=[15, 220]),\n",
      "   midi.NoteOnEvent(tick=0, channel=0, data=[101, 219]),\n",
      "   midi.NoteOnEvent(tick=1, channel=0, data=[100, 95]),\n",
      "   midi.NoteOnEvent(tick=3, channel=0, data=[111, 247]),\n",
      "   midi.NoteOnEvent(tick=1, channel=0, data=[31, 132]),\n",
      "   midi.NoteOnEvent(tick=1, channel=0, data=[54, 204]),\n",
      "   midi.NoteOnEvent(tick=2, channel=0, data=[104, 3]),\n",
      "   midi.NoteOnEvent(tick=2, channel=0, data=[64, 111]),\n",
      "   midi.NoteOnEvent(tick=2, channel=0, data=[0, 66]),\n",
      "   midi.NoteOnEvent(tick=1, channel=0, data=[1, 220]),\n",
      "   midi.NoteOnEvent(tick=1, channel=0, data=[87, 168]),\n",
      "   midi.NoteOnEvent(tick=1, channel=0, data=[125, 127]),\n",
      "   midi.NoteOnEvent(tick=1, channel=0, data=[15, 193]),\n",
      "   midi.NoteOnEvent(tick=7, channel=0, data=[22, 23]),\n",
      "   midi.NoteOffEvent(tick=6, channel=0, data=[44, 0]),\n",
      "   midi.NoteOnEvent(tick=0, channel=0, data=[40, 224]),\n",
      "   midi.NoteOnEvent(tick=2, channel=0, data=[41, 162]),\n",
      "   midi.NoteOffEvent(tick=2, channel=0, data=[46, 0]),\n",
      "   midi.NoteOnEvent(tick=1, channel=0, data=[93, 35]),\n",
      "   midi.NoteOnEvent(tick=2, channel=0, data=[72, 156]),\n",
      "   midi.NoteOnEvent(tick=4, channel=0, data=[51, 188]),\n",
      "   midi.NoteOnEvent(tick=6, channel=0, data=[93, 175]),\n",
      "   midi.NoteOnEvent(tick=1, channel=0, data=[8, 196]),\n",
      "   midi.NoteOnEvent(tick=4, channel=0, data=[37, 138]),\n",
      "   midi.NoteOnEvent(tick=1, channel=0, data=[39, 93]),\n",
      "   midi.NoteOffEvent(tick=1, channel=0, data=[118, 0]),\n",
      "   midi.NoteOnEvent(tick=0, channel=0, data=[69, 187]),\n",
      "   midi.NoteOnEvent(tick=0, channel=0, data=[11, 99]),\n",
      "   midi.NoteOnEvent(tick=1, channel=0, data=[50, 158]),\n",
      "   midi.NoteOnEvent(tick=1, channel=0, data=[117, 234]),\n",
      "   midi.NoteOnEvent(tick=1, channel=0, data=[19, 185]),\n",
      "   midi.NoteOnEvent(tick=2, channel=0, data=[110, 242]),\n",
      "   midi.NoteOnEvent(tick=0, channel=0, data=[34, 63]),\n",
      "   midi.NoteOnEvent(tick=1, channel=0, data=[74, 253]),\n",
      "   midi.NoteOffEvent(tick=1, channel=0, data=[103, 0]),\n",
      "   midi.NoteOnEvent(tick=1, channel=0, data=[54, 214]),\n",
      "   midi.NoteOnEvent(tick=1, channel=0, data=[24, 154]),\n",
      "   midi.NoteOnEvent(tick=3, channel=0, data=[65, 183]),\n",
      "   midi.NoteOnEvent(tick=2, channel=0, data=[48, 186]),\n",
      "   midi.NoteOnEvent(tick=1, channel=0, data=[100, 39]),\n",
      "   midi.NoteOnEvent(tick=1, channel=0, data=[0, 235]),\n",
      "   midi.NoteOnEvent(tick=1, channel=0, data=[75, 139]),\n",
      "   midi.NoteOnEvent(tick=1, channel=0, data=[105, 66]),\n",
      "   midi.NoteOnEvent(tick=2, channel=0, data=[78, 201]),\n",
      "   midi.NoteOnEvent(tick=2, channel=0, data=[19, 10]),\n",
      "   midi.NoteOnEvent(tick=1, channel=0, data=[32, 126]),\n",
      "   midi.NoteOnEvent(tick=2, channel=0, data=[21, 140]),\n",
      "   midi.NoteOnEvent(tick=3, channel=0, data=[25, 67]),\n",
      "   midi.NoteOnEvent(tick=1, channel=0, data=[51, 51]),\n",
      "   midi.NoteOffEvent(tick=2, channel=0, data=[16, 0]),\n",
      "   midi.NoteOffEvent(tick=0, channel=0, data=[126, 0]),\n",
      "   midi.NoteOnEvent(tick=3, channel=0, data=[97, 77]),\n",
      "   midi.NoteOnEvent(tick=4, channel=0, data=[69, 3]),\n",
      "   midi.NoteOnEvent(tick=0, channel=0, data=[79, 250]),\n",
      "   midi.NoteOnEvent(tick=4, channel=0, data=[40, 183]),\n",
      "   midi.NoteOnEvent(tick=1, channel=0, data=[16, 230]),\n",
      "   midi.NoteOnEvent(tick=4, channel=0, data=[86, 39]),\n",
      "   midi.NoteOnEvent(tick=5, channel=0, data=[50, 0]),\n",
      "   midi.NoteOnEvent(tick=1, channel=0, data=[70, 246]),\n",
      "   midi.NoteOnEvent(tick=1, channel=0, data=[6, 169]),\n",
      "   midi.NoteOnEvent(tick=1, channel=0, data=[33, 1]),\n",
      "   midi.NoteOnEvent(tick=0, channel=0, data=[87, 93]),\n",
      "   midi.NoteOnEvent(tick=2, channel=0, data=[30, 49]),\n",
      "   midi.NoteOnEvent(tick=2, channel=0, data=[20, 161]),\n",
      "   midi.NoteOnEvent(tick=0, channel=0, data=[79, 112]),\n",
      "   midi.NoteOnEvent(tick=1, channel=0, data=[48, 131]),\n",
      "   midi.NoteOnEvent(tick=2, channel=0, data=[100, 110]),\n",
      "   midi.NoteOnEvent(tick=0, channel=0, data=[91, 56]),\n",
      "   midi.NoteOnEvent(tick=2, channel=0, data=[1, 33]),\n",
      "   midi.NoteOnEvent(tick=2, channel=0, data=[97, 247]),\n",
      "   midi.NoteOnEvent(tick=2, channel=0, data=[8, 14]),\n",
      "   midi.NoteOnEvent(tick=0, channel=0, data=[3, 20]),\n",
      "   midi.NoteOnEvent(tick=0, channel=0, data=[9, 175]),\n",
      "   midi.NoteOnEvent(tick=2, channel=0, data=[118, 85]),\n",
      "   midi.NoteOnEvent(tick=1, channel=0, data=[12, 62]),\n",
      "   midi.NoteOnEvent(tick=0, channel=0, data=[17, 210]),\n",
      "   midi.NoteOnEvent(tick=0, channel=0, data=[61, 196]),\n",
      "   midi.NoteOnEvent(tick=2, channel=0, data=[2, 89]),\n",
      "   midi.NoteOnEvent(tick=0, channel=0, data=[51, 84]),\n",
      "   midi.NoteOnEvent(tick=0, channel=0, data=[127, 80]),\n",
      "   midi.NoteOffEvent(tick=1, channel=0, data=[56, 0]),\n",
      "   midi.NoteOffEvent(tick=0, channel=0, data=[112, 0]),\n",
      "   midi.NoteOnEvent(tick=0, channel=0, data=[65, 13]),\n",
      "   midi.NoteOnEvent(tick=2, channel=0, data=[62, 230]),\n",
      "   midi.NoteOnEvent(tick=2, channel=0, data=[122, 4]),\n",
      "   midi.NoteOnEvent(tick=1, channel=0, data=[96, 115]),\n",
      "   midi.NoteOnEvent(tick=1, channel=0, data=[39, 6]),\n",
      "   midi.NoteOnEvent(tick=2, channel=0, data=[115, 133]),\n",
      "   midi.NoteOnEvent(tick=3, channel=0, data=[127, 83]),\n",
      "   midi.NoteOnEvent(tick=3, channel=0, data=[114, 142]),\n",
      "   midi.NoteOnEvent(tick=1, channel=0, data=[80, 100]),\n",
      "   midi.NoteOnEvent(tick=0, channel=0, data=[30, 21]),\n",
      "   midi.NoteOffEvent(tick=3, channel=0, data=[113, 0]),\n",
      "   midi.NoteOnEvent(tick=2, channel=0, data=[46, 27]),\n",
      "   midi.NoteOnEvent(tick=1, channel=0, data=[16, 243]),\n",
      "   midi.NoteOnEvent(tick=0, channel=0, data=[81, 187]),\n",
      "   midi.NoteOnEvent(tick=1, channel=0, data=[90, 230]),\n",
      "   midi.NoteOffEvent(tick=3, channel=0, data=[12, 0]),\n",
      "   midi.NoteOnEvent(tick=0, channel=0, data=[76, 208]),\n",
      "   midi.NoteOffEvent(tick=1, channel=0, data=[120, 0]),\n",
      "   midi.NoteOnEvent(tick=0, channel=0, data=[99, 113]),\n",
      "   midi.NoteOnEvent(tick=1, channel=0, data=[86, 211]),\n",
      "   midi.NoteOffEvent(tick=1, channel=0, data=[39, 0]),\n",
      "   midi.NoteOffEvent(tick=1, channel=0, data=[109, 0]),\n",
      "   midi.NoteOnEvent(tick=3, channel=0, data=[13, 192]),\n",
      "   midi.NoteOnEvent(tick=2, channel=0, data=[71, 118]),\n",
      "   midi.NoteOnEvent(tick=1, channel=0, data=[55, 212]),\n",
      "   midi.NoteOnEvent(tick=4, channel=0, data=[42, 185]),\n",
      "   midi.NoteOnEvent(tick=3, channel=0, data=[6, 200]),\n",
      "   midi.NoteOnEvent(tick=1, channel=0, data=[19, 213]),\n",
      "   midi.NoteOnEvent(tick=3, channel=0, data=[23, 221]),\n",
      "   midi.NoteOnEvent(tick=1, channel=0, data=[53, 30]),\n",
      "   midi.NoteOnEvent(tick=1, channel=0, data=[25, 222]),\n",
      "   midi.NoteOnEvent(tick=2, channel=0, data=[98, 109]),\n",
      "   midi.NoteOnEvent(tick=1, channel=0, data=[127, 93]),\n",
      "   midi.NoteOnEvent(tick=0, channel=0, data=[101, 192]),\n",
      "   midi.NoteOnEvent(tick=0, channel=0, data=[82, 223]),\n",
      "   midi.NoteOnEvent(tick=1, channel=0, data=[10, 240]),\n",
      "   midi.NoteOnEvent(tick=1, channel=0, data=[21, 232]),\n",
      "   midi.NoteOnEvent(tick=0, channel=0, data=[43, 188]),\n",
      "   midi.NoteOnEvent(tick=1, channel=0, data=[1, 180]),\n",
      "   midi.NoteOnEvent(tick=3, channel=0, data=[100, 237]),\n",
      "   midi.NoteOnEvent(tick=1, channel=0, data=[123, 171]),\n",
      "   midi.NoteOffEvent(tick=2, channel=0, data=[91, 0]),\n",
      "   midi.NoteOnEvent(tick=0, channel=0, data=[111, 227]),\n",
      "   midi.NoteOffEvent(tick=1, channel=0, data=[102, 0]),\n",
      "   midi.NoteOffEvent(tick=2, channel=0, data=[107, 0]),\n",
      "   midi.NoteOnEvent(tick=2, channel=0, data=[100, 231]),\n",
      "   midi.NoteOnEvent(tick=2, channel=0, data=[107, 210]),\n",
      "   midi.NoteOffEvent(tick=1, channel=0, data=[43, 0]),\n",
      "   midi.NoteOnEvent(tick=4, channel=0, data=[118, 86]),\n",
      "   midi.NoteOnEvent(tick=1, channel=0, data=[93, 183]),\n",
      "   midi.NoteOnEvent(tick=0, channel=0, data=[1, 152]),\n",
      "   midi.NoteOnEvent(tick=6, channel=0, data=[123, 58]),\n",
      "   midi.NoteOnEvent(tick=0, channel=0, data=[62, 85]),\n",
      "   midi.NoteOnEvent(tick=1, channel=0, data=[17, 194]),\n",
      "   midi.NoteOnEvent(tick=1, channel=0, data=[88, 18]),\n",
      "   midi.NoteOnEvent(tick=1, channel=0, data=[115, 212]),\n",
      "   midi.NoteOnEvent(tick=1, channel=0, data=[3, 75]),\n",
      "   midi.NoteOnEvent(tick=1, channel=0, data=[4, 55]),\n",
      "   midi.NoteOnEvent(tick=1, channel=0, data=[109, 95]),\n",
      "   midi.NoteOnEvent(tick=0, channel=0, data=[116, 122]),\n",
      "   midi.NoteOnEvent(tick=1, channel=0, data=[77, 251]),\n",
      "   midi.NoteOnEvent(tick=1, channel=0, data=[0, 33]),\n",
      "   midi.NoteOnEvent(tick=1, channel=0, data=[108, 201]),\n",
      "   midi.NoteOffEvent(tick=2, channel=0, data=[33, 0]),\n",
      "   midi.NoteOnEvent(tick=0, channel=0, data=[87, 119]),\n",
      "   midi.NoteOnEvent(tick=2, channel=0, data=[18, 110]),\n",
      "   midi.NoteOnEvent(tick=6, channel=0, data=[53, 58]),\n",
      "   midi.NoteOnEvent(tick=3, channel=0, data=[99, 88]),\n",
      "   midi.NoteOnEvent(tick=0, channel=0, data=[103, 56]),\n",
      "   midi.NoteOffEvent(tick=1, channel=0, data=[111, 0]),\n",
      "   midi.NoteOnEvent(tick=1, channel=0, data=[90, 58]),\n",
      "   midi.NoteOnEvent(tick=1, channel=0, data=[81, 75]),\n",
      "   midi.NoteOnEvent(tick=0, channel=0, data=[13, 90]),\n",
      "   midi.NoteOnEvent(tick=1, channel=0, data=[13, 119]),\n",
      "   midi.NoteOffEvent(tick=2, channel=0, data=[74, 0]),\n",
      "   midi.NoteOnEvent(tick=1, channel=0, data=[0, 160]),\n",
      "   midi.NoteOnEvent(tick=1, channel=0, data=[73, 32]),\n",
      "   midi.NoteOnEvent(tick=2, channel=0, data=[14, 192]),\n",
      "   midi.NoteOffEvent(tick=1, channel=0, data=[78, 0]),\n",
      "   midi.NoteOnEvent(tick=2, channel=0, data=[11, 126]),\n",
      "   midi.NoteOnEvent(tick=5, channel=0, data=[124, 140]),\n",
      "   midi.NoteOffEvent(tick=1, channel=0, data=[47, 0]),\n",
      "   midi.NoteOnEvent(tick=0, channel=0, data=[49, 81]),\n",
      "   midi.NoteOnEvent(tick=2, channel=0, data=[8, 118]),\n",
      "   midi.NoteOnEvent(tick=0, channel=0, data=[39, 52]),\n",
      "   midi.NoteOnEvent(tick=1, channel=0, data=[14, 247]),\n",
      "   midi.NoteOnEvent(tick=0, channel=0, data=[51, 255]),\n",
      "   midi.NoteOffEvent(tick=1, channel=0, data=[41, 0]),\n",
      "   midi.NoteOnEvent(tick=3, channel=0, data=[61, 18]),\n",
      "   midi.NoteOffEvent(tick=1, channel=0, data=[20, 0]),\n",
      "   midi.NoteOnEvent(tick=0, channel=0, data=[101, 218]),\n",
      "   midi.NoteOffEvent(tick=2, channel=0, data=[107, 0]),\n",
      "   midi.NoteOnEvent(tick=1, channel=0, data=[15, 57]),\n",
      "   midi.NoteOnEvent(tick=2, channel=0, data=[102, 218]),\n",
      "   midi.NoteOnEvent(tick=2, channel=0, data=[47, 232]),\n",
      "   midi.NoteOnEvent(tick=1, channel=0, data=[48, 27]),\n",
      "   midi.NoteOnEvent(tick=5, channel=0, data=[120, 25]),\n",
      "   midi.NoteOnEvent(tick=2, channel=0, data=[44, 176]),\n",
      "   midi.NoteOnEvent(tick=1, channel=0, data=[121, 71]),\n",
      "   midi.NoteOnEvent(tick=5, channel=0, data=[65, 0]),\n",
      "   midi.NoteOnEvent(tick=1, channel=0, data=[76, 253]),\n",
      "   midi.NoteOffEvent(tick=1, channel=0, data=[72, 0]),\n",
      "   midi.NoteOnEvent(tick=0, channel=0, data=[115, 57]),\n",
      "   midi.NoteOnEvent(tick=4, channel=0, data=[79, 2]),\n",
      "   midi.NoteOnEvent(tick=2, channel=0, data=[117, 191]),\n",
      "   midi.NoteOnEvent(tick=2, channel=0, data=[91, 106]),\n",
      "   midi.NoteOffEvent(tick=5, channel=0, data=[51, 0]),\n",
      "   midi.NoteOnEvent(tick=1, channel=0, data=[89, 243]),\n",
      "   midi.NoteOnEvent(tick=1, channel=0, data=[91, 45]),\n",
      "   midi.NoteOnEvent(tick=1, channel=0, data=[19, 142]),\n",
      "   midi.NoteOnEvent(tick=0, channel=0, data=[89, 132]),\n",
      "   midi.NoteOnEvent(tick=3, channel=0, data=[24, 143]),\n",
      "   midi.NoteOffEvent(tick=1, channel=0, data=[46, 0]),\n",
      "   midi.NoteOnEvent(tick=4, channel=0, data=[38, 64]),\n",
      "   midi.NoteOffEvent(tick=2, channel=0, data=[25, 0]),\n",
      "   midi.NoteOnEvent(tick=2, channel=0, data=[64, 101]),\n",
      "   midi.NoteOnEvent(tick=1, channel=0, data=[88, 109]),\n",
      "   midi.NoteOnEvent(tick=0, channel=0, data=[1, 61]),\n",
      "   midi.NoteOnEvent(tick=1, channel=0, data=[97, 177]),\n",
      "   midi.NoteOnEvent(tick=1, channel=0, data=[95, 148]),\n",
      "   midi.NoteOnEvent(tick=6, channel=0, data=[95, 126]),\n",
      "   midi.NoteOffEvent(tick=4, channel=0, data=[118, 0]),\n",
      "   midi.NoteOffEvent(tick=2, channel=0, data=[53, 0]),\n",
      "   midi.NoteOnEvent(tick=2, channel=0, data=[46, 211]),\n",
      "   midi.NoteOnEvent(tick=1, channel=0, data=[96, 143]),\n",
      "   midi.NoteOnEvent(tick=3, channel=0, data=[122, 18]),\n",
      "   midi.NoteOnEvent(tick=1, channel=0, data=[103, 143]),\n",
      "   midi.NoteOnEvent(tick=1, channel=0, data=[75, 150]),\n",
      "   midi.NoteOnEvent(tick=0, channel=0, data=[23, 66]),\n",
      "   midi.NoteOnEvent(tick=1, channel=0, data=[13, 199]),\n",
      "   midi.NoteOnEvent(tick=0, channel=0, data=[79, 76]),\n",
      "   midi.NoteOnEvent(tick=4, channel=0, data=[89, 161]),\n",
      "   midi.NoteOnEvent(tick=0, channel=0, data=[95, 171]),\n",
      "   midi.NoteOffEvent(tick=2, channel=0, data=[15, 0]),\n",
      "   midi.NoteOnEvent(tick=1, channel=0, data=[115, 37]),\n",
      "   midi.NoteOnEvent(tick=2, channel=0, data=[6, 146]),\n",
      "   midi.NoteOnEvent(tick=1, channel=0, data=[16, 177]),\n",
      "   midi.NoteOnEvent(tick=1, channel=0, data=[21, 222]),\n",
      "   midi.NoteOffEvent(tick=2, channel=0, data=[2, 0]),\n",
      "   midi.NoteOffEvent(tick=2, channel=0, data=[67, 0]),\n",
      "   midi.NoteOffEvent(tick=0, channel=0, data=[125, 0]),\n",
      "   midi.NoteOnEvent(tick=1, channel=0, data=[52, 209]),\n",
      "   midi.NoteOnEvent(tick=0, channel=0, data=[42, 208]),\n",
      "   midi.NoteOffEvent(tick=3, channel=0, data=[60, 0]),\n",
      "   midi.NoteOnEvent(tick=4, channel=0, data=[1, 4]),\n",
      "   midi.NoteOnEvent(tick=4, channel=0, data=[70, 224]),\n",
      "   midi.NoteOnEvent(tick=2, channel=0, data=[114, 90]),\n",
      "   midi.NoteOffEvent(tick=1, channel=0, data=[22, 0]),\n",
      "   midi.NoteOnEvent(tick=1, channel=0, data=[13, 201]),\n",
      "   midi.NoteOnEvent(tick=0, channel=0, data=[59, 170]),\n",
      "   midi.NoteOnEvent(tick=0, channel=0, data=[82, 235]),\n",
      "   midi.NoteOnEvent(tick=1, channel=0, data=[13, 221]),\n",
      "   midi.NoteOnEvent(tick=1, channel=0, data=[11, 217]),\n",
      "   midi.NoteOffEvent(tick=1, channel=0, data=[57, 0]),\n",
      "   midi.NoteOnEvent(tick=0, channel=0, data=[25, 248]),\n",
      "   midi.NoteOffEvent(tick=9, channel=0, data=[37, 0]),\n",
      "   midi.NoteOnEvent(tick=0, channel=0, data=[20, 253]),\n",
      "   midi.NoteOnEvent(tick=6, channel=0, data=[52, 21]),\n",
      "   midi.NoteOnEvent(tick=7, channel=0, data=[71, 24]),\n",
      "   midi.NoteOnEvent(tick=0, channel=0, data=[93, 29]),\n",
      "   midi.NoteOnEvent(tick=3, channel=0, data=[52, 29]),\n",
      "   midi.NoteOnEvent(tick=0, channel=0, data=[56, 118]),\n",
      "   midi.NoteOnEvent(tick=2, channel=0, data=[56, 10]),\n",
      "   midi.NoteOnEvent(tick=0, channel=0, data=[99, 109]),\n",
      "   midi.NoteOnEvent(tick=0, channel=0, data=[121, 0]),\n",
      "   midi.NoteOnEvent(tick=0, channel=0, data=[25, 18]),\n",
      "   midi.NoteOffEvent(tick=2, channel=0, data=[80, 0]),\n",
      "   midi.NoteOffEvent(tick=3, channel=0, data=[105, 0]),\n",
      "   midi.NoteOnEvent(tick=0, channel=0, data=[62, 253]),\n",
      "   midi.NoteOnEvent(tick=3, channel=0, data=[3, 174]),\n",
      "   midi.NoteOnEvent(tick=4, channel=0, data=[118, 195]),\n",
      "   midi.NoteOnEvent(tick=0, channel=0, data=[84, 72]),\n",
      "   midi.NoteOffEvent(tick=1, channel=0, data=[101, 0]),\n",
      "   midi.NoteOnEvent(tick=0, channel=0, data=[112, 154]),\n",
      "   midi.NoteOnEvent(tick=1, channel=0, data=[14, 33]),\n",
      "   midi.NoteOnEvent(tick=0, channel=0, data=[76, 157]),\n",
      "   midi.NoteOnEvent(tick=3, channel=0, data=[108, 2]),\n",
      "   midi.NoteOnEvent(tick=1, channel=0, data=[1, 255]),\n",
      "   midi.NoteOnEvent(tick=5, channel=0, data=[38, 56]),\n",
      "   midi.NoteOnEvent(tick=1, channel=0, data=[79, 107]),\n",
      "   midi.NoteOnEvent(tick=1, channel=0, data=[46, 170]),\n",
      "   midi.NoteOnEvent(tick=2, channel=0, data=[28, 50]),\n",
      "   midi.NoteOnEvent(tick=3, channel=0, data=[56, 227]),\n",
      "   midi.NoteOffEvent(tick=5, channel=0, data=[95, 0]),\n",
      "   midi.NoteOnEvent(tick=1, channel=0, data=[113, 200]),\n",
      "   midi.NoteOnEvent(tick=3, channel=0, data=[127, 37]),\n",
      "   midi.NoteOnEvent(tick=2, channel=0, data=[79, 215]),\n",
      "   midi.NoteOnEvent(tick=5, channel=0, data=[66, 12]),\n",
      "   midi.NoteOnEvent(tick=1, channel=0, data=[47, 186]),\n",
      "   midi.NoteOnEvent(tick=4, channel=0, data=[68, 52]),\n",
      "   midi.NoteOnEvent(tick=0, channel=0, data=[102, 87]),\n",
      "   midi.NoteOnEvent(tick=2, channel=0, data=[41, 21]),\n",
      "   midi.NoteOnEvent(tick=2, channel=0, data=[111, 2]),\n",
      "   midi.NoteOffEvent(tick=4, channel=0, data=[65, 0]),\n",
      "   midi.NoteOnEvent(tick=0, channel=0, data=[73, 165]),\n",
      "   midi.NoteOnEvent(tick=3, channel=0, data=[48, 124]),\n",
      "   midi.NoteOnEvent(tick=1, channel=0, data=[124, 192]),\n",
      "   midi.NoteOnEvent(tick=7, channel=0, data=[123, 163]),\n",
      "   midi.NoteOnEvent(tick=3, channel=0, data=[47, 206]),\n",
      "   midi.NoteOnEvent(tick=3, channel=0, data=[106, 132]),\n",
      "   midi.NoteOnEvent(tick=4, channel=0, data=[39, 37]),\n",
      "   midi.NoteOnEvent(tick=4, channel=0, data=[55, 42]),\n",
      "   midi.NoteOnEvent(tick=1, channel=0, data=[121, 68]),\n",
      "   midi.NoteOffEvent(tick=3, channel=0, data=[40, 0]),\n",
      "   midi.NoteOnEvent(tick=3, channel=0, data=[7, 191]),\n",
      "   midi.NoteOnEvent(tick=4, channel=0, data=[19, 23]),\n",
      "   midi.NoteOnEvent(tick=2, channel=0, data=[104, 170]),\n",
      "   midi.NoteOnEvent(tick=0, channel=0, data=[37, 71]),\n",
      "   midi.NoteOnEvent(tick=2, channel=0, data=[59, 190]),\n",
      "   midi.NoteOffEvent(tick=2, channel=0, data=[32, 0]),\n",
      "   midi.NoteOnEvent(tick=2, channel=0, data=[77, 233]),\n",
      "   midi.NoteOnEvent(tick=1, channel=0, data=[103, 100]),\n",
      "   midi.NoteOnEvent(tick=0, channel=0, data=[15, 117]),\n",
      "   midi.NoteOnEvent(tick=1, channel=0, data=[123, 61]),\n",
      "   midi.NoteOnEvent(tick=4, channel=0, data=[80, 60]),\n",
      "   midi.NoteOnEvent(tick=0, channel=0, data=[48, 39]),\n",
      "   midi.NoteOnEvent(tick=2, channel=0, data=[13, 167]),\n",
      "   midi.NoteOnEvent(tick=1, channel=0, data=[40, 215]),\n",
      "   midi.NoteOffEvent(tick=3, channel=0, data=[47, 0]),\n",
      "   midi.NoteOnEvent(tick=0, channel=0, data=[23, 118]),\n",
      "   midi.NoteOnEvent(tick=1, channel=0, data=[65, 136]),\n",
      "   midi.NoteOnEvent(tick=2, channel=0, data=[100, 232]),\n",
      "   midi.NoteOnEvent(tick=1, channel=0, data=[70, 134]),\n",
      "   midi.NoteOffEvent(tick=1, channel=0, data=[97, 0]),\n",
      "   midi.NoteOnEvent(tick=0, channel=0, data=[61, 140]),\n",
      "   midi.NoteOnEvent(tick=1, channel=0, data=[59, 188]),\n",
      "   midi.NoteOnEvent(tick=0, channel=0, data=[115, 56]),\n",
      "   midi.NoteOnEvent(tick=0, channel=0, data=[109, 73]),\n",
      "   midi.NoteOnEvent(tick=1, channel=0, data=[48, 165]),\n",
      "   midi.NoteOffEvent(tick=2, channel=0, data=[122, 0]),\n",
      "   midi.NoteOnEvent(tick=0, channel=0, data=[45, 22]),\n",
      "   midi.NoteOnEvent(tick=4, channel=0, data=[19, 165]),\n",
      "   midi.NoteOnEvent(tick=2, channel=0, data=[114, 36]),\n",
      "   midi.NoteOffEvent(tick=1, channel=0, data=[116, 0]),\n",
      "   midi.NoteOnEvent(tick=0, channel=0, data=[24, 191]),\n",
      "   midi.NoteOnEvent(tick=5, channel=0, data=[87, 79]),\n",
      "   midi.NoteOnEvent(tick=1, channel=0, data=[63, 92]),\n",
      "   midi.NoteOnEvent(tick=2, channel=0, data=[89, 91]),\n",
      "   midi.NoteOnEvent(tick=0, channel=0, data=[95, 179]),\n",
      "   midi.NoteOnEvent(tick=2, channel=0, data=[36, 212]),\n",
      "   midi.NoteOnEvent(tick=5, channel=0, data=[46, 85]),\n",
      "   midi.NoteOnEvent(tick=1, channel=0, data=[93, 204]),\n",
      "   midi.NoteOnEvent(tick=2, channel=0, data=[42, 24]),\n",
      "   midi.NoteOnEvent(tick=0, channel=0, data=[127, 55]),\n",
      "   midi.NoteOffEvent(tick=1, channel=0, data=[55, 0]),\n",
      "   midi.NoteOnEvent(tick=0, channel=0, data=[13, 179]),\n",
      "   midi.NoteOnEvent(tick=3, channel=0, data=[26, 168]),\n",
      "   midi.NoteOnEvent(tick=9, channel=0, data=[124, 13]),\n",
      "   midi.NoteOffEvent(tick=4, channel=0, data=[62, 0]),\n",
      "   midi.NoteOffEvent(tick=7, channel=0, data=[85, 0]),\n",
      "   midi.NoteOffEvent(tick=8, channel=0, data=[0, 0]),\n",
      "   midi.NoteOffEvent(tick=2, channel=0, data=[64, 0]),\n",
      "   midi.NoteOffEvent(tick=7, channel=0, data=[99, 0]),\n",
      "   midi.NoteOffEvent(tick=1, channel=0, data=[38, 0]),\n",
      "   midi.NoteOffEvent(tick=5, channel=0, data=[52, 0]),\n",
      "   midi.NoteOffEvent(tick=7, channel=0, data=[8, 0]),\n",
      "   midi.NoteOffEvent(tick=5, channel=0, data=[79, 0]),\n",
      "   midi.NoteOffEvent(tick=4, channel=0, data=[75, 0]),\n",
      "   midi.NoteOffEvent(tick=2, channel=0, data=[119, 0]),\n",
      "   midi.NoteOffEvent(tick=20, channel=0, data=[117, 0]),\n",
      "   midi.NoteOffEvent(tick=2, channel=0, data=[90, 0]),\n",
      "   midi.NoteOffEvent(tick=0, channel=0, data=[127, 0]),\n",
      "   midi.NoteOffEvent(tick=2, channel=0, data=[69, 0]),\n",
      "   midi.NoteOffEvent(tick=6, channel=0, data=[31, 0]),\n",
      "   midi.NoteOffEvent(tick=13, channel=0, data=[114, 0]),\n",
      "   midi.NoteOffEvent(tick=3, channel=0, data=[35, 0]),\n",
      "   midi.NoteOffEvent(tick=28, channel=0, data=[106, 0]),\n",
      "   midi.NoteOffEvent(tick=6, channel=0, data=[50, 0]),\n",
      "   midi.NoteOffEvent(tick=6, channel=0, data=[11, 0]),\n",
      "   midi.NoteOffEvent(tick=0, channel=0, data=[87, 0]),\n",
      "   midi.NoteOffEvent(tick=10, channel=0, data=[3, 0]),\n",
      "   midi.NoteOffEvent(tick=1, channel=0, data=[108, 0]),\n",
      "   midi.NoteOffEvent(tick=2, channel=0, data=[121, 0]),\n",
      "   midi.NoteOffEvent(tick=5, channel=0, data=[9, 0]),\n",
      "   midi.NoteOffEvent(tick=12, channel=0, data=[86, 0]),\n",
      "   midi.NoteOffEvent(tick=9, channel=0, data=[5, 0]),\n",
      "   midi.NoteOffEvent(tick=2, channel=0, data=[77, 0]),\n",
      "   midi.NoteOffEvent(tick=5, channel=0, data=[7, 0]),\n",
      "   midi.NoteOffEvent(tick=5, channel=0, data=[17, 0]),\n",
      "   midi.NoteOffEvent(tick=0, channel=0, data=[70, 0]),\n",
      "   midi.NoteOffEvent(tick=4, channel=0, data=[65, 0]),\n",
      "   midi.NoteOffEvent(tick=2, channel=0, data=[73, 0]),\n",
      "   midi.NoteOffEvent(tick=10, channel=0, data=[29, 0]),\n",
      "   midi.NoteOffEvent(tick=1, channel=0, data=[102, 0]),\n",
      "   midi.NoteOffEvent(tick=7, channel=0, data=[54, 0]),\n",
      "   midi.NoteOffEvent(tick=2, channel=0, data=[34, 0]),\n",
      "   midi.NoteOffEvent(tick=6, channel=0, data=[16, 0]),\n",
      "   midi.NoteOffEvent(tick=5, channel=0, data=[48, 0]),\n",
      "   midi.NoteOffEvent(tick=2, channel=0, data=[118, 0]),\n",
      "   midi.NoteOffEvent(tick=26, channel=0, data=[28, 0]),\n",
      "   midi.NoteOffEvent(tick=5, channel=0, data=[88, 0]),\n",
      "   midi.NoteOffEvent(tick=2, channel=0, data=[1, 0]),\n",
      "   midi.NoteOffEvent(tick=22, channel=0, data=[59, 0]),\n",
      "   midi.NoteOffEvent(tick=16, channel=0, data=[89, 0]),\n",
      "   midi.NoteOffEvent(tick=1, channel=0, data=[110, 0]),\n",
      "   midi.NoteOffEvent(tick=3, channel=0, data=[71, 0]),\n",
      "   midi.NoteOffEvent(tick=12, channel=0, data=[123, 0]),\n",
      "   midi.NoteOffEvent(tick=9, channel=0, data=[96, 0]),\n",
      "   midi.NoteOffEvent(tick=14, channel=0, data=[104, 0]),\n",
      "   midi.NoteOffEvent(tick=4, channel=0, data=[81, 0]),\n",
      "   midi.NoteOffEvent(tick=24, channel=0, data=[61, 0]),\n",
      "   midi.NoteOffEvent(tick=2, channel=0, data=[93, 0]),\n",
      "   midi.NoteOffEvent(tick=5, channel=0, data=[41, 0]),\n",
      "   midi.NoteOffEvent(tick=19, channel=0, data=[30, 0]),\n",
      "   midi.NoteOffEvent(tick=7, channel=0, data=[68, 0]),\n",
      "   midi.NoteOffEvent(tick=15, channel=0, data=[19, 0]),\n",
      "   midi.NoteOffEvent(tick=4, channel=0, data=[124, 0]),\n",
      "   midi.NoteOffEvent(tick=6, channel=0, data=[4, 0]),\n",
      "   midi.NoteOffEvent(tick=4, channel=0, data=[45, 0]),\n",
      "   midi.NoteOffEvent(tick=0, channel=0, data=[84, 0]),\n",
      "   midi.NoteOffEvent(tick=1, channel=0, data=[25, 0]),\n",
      "   midi.NoteOffEvent(tick=0, channel=0, data=[66, 0]),\n",
      "   midi.NoteOffEvent(tick=8, channel=0, data=[40, 0]),\n",
      "   midi.NoteOffEvent(tick=27, channel=0, data=[91, 0]),\n",
      "   midi.NoteOffEvent(tick=8, channel=0, data=[98, 0]),\n",
      "   midi.NoteOffEvent(tick=3, channel=0, data=[23, 0]),\n",
      "   midi.NoteOffEvent(tick=2, channel=0, data=[46, 0]),\n",
      "   midi.NoteOffEvent(tick=3, channel=0, data=[103, 0]),\n",
      "   midi.NoteOffEvent(tick=20, channel=0, data=[44, 0]),\n",
      "   midi.NoteOffEvent(tick=2, channel=0, data=[49, 0]),\n",
      "   midi.NoteOffEvent(tick=37, channel=0, data=[113, 0]),\n",
      "   midi.NoteOffEvent(tick=28, channel=0, data=[10, 0]),\n",
      "   midi.NoteOffEvent(tick=2, channel=0, data=[56, 0]),\n",
      "   midi.NoteOffEvent(tick=8, channel=0, data=[26, 0]),\n",
      "   midi.NoteOffEvent(tick=1, channel=0, data=[14, 0]),\n",
      "   midi.NoteOffEvent(tick=29, channel=0, data=[18, 0]),\n",
      "   midi.NoteOffEvent(tick=0, channel=0, data=[82, 0]),\n",
      "   midi.NoteOffEvent(tick=3, channel=0, data=[112, 0]),\n",
      "   midi.NoteOffEvent(tick=21, channel=0, data=[120, 0]),\n",
      "   midi.NoteOffEvent(tick=17, channel=0, data=[76, 0]),\n",
      "   midi.NoteOffEvent(tick=13, channel=0, data=[6, 0]),\n",
      "   midi.NoteOffEvent(tick=6, channel=0, data=[37, 0]),\n",
      "   midi.NoteOffEvent(tick=15, channel=0, data=[13, 0]),\n",
      "   midi.NoteOffEvent(tick=0, channel=0, data=[24, 0]),\n",
      "   midi.NoteOffEvent(tick=26, channel=0, data=[39, 0]),\n",
      "   midi.NoteOffEvent(tick=3, channel=0, data=[15, 0]),\n",
      "   midi.NoteOffEvent(tick=1, channel=0, data=[42, 0]),\n",
      "   midi.NoteOffEvent(tick=1, channel=0, data=[80, 0]),\n",
      "   midi.NoteOffEvent(tick=17, channel=0, data=[21, 0]),\n",
      "   midi.NoteOffEvent(tick=9, channel=0, data=[111, 0]),\n",
      "   midi.NoteOffEvent(tick=1, channel=0, data=[20, 0]),\n",
      "   midi.NoteOffEvent(tick=68, channel=0, data=[36, 0]),\n",
      "   midi.NoteOffEvent(tick=10, channel=0, data=[95, 0]),\n",
      "   midi.NoteOffEvent(tick=7, channel=0, data=[109, 0]),\n",
      "   midi.NoteOffEvent(tick=56, channel=0, data=[100, 0]),\n",
      "   midi.NoteOffEvent(tick=45, channel=0, data=[115, 0]),\n",
      "   midi.NoteOffEvent(tick=22, channel=0, data=[63, 0]),\n",
      "   midi.EndOfTrackEvent(tick=0, data=[])]),\n",
      " midi.Track(\\\n",
      "  [midi.SetTempoEvent(tick=0, data=[4, 147, 224]),\n",
      "   midi.ProgramChangeEvent(tick=0, channel=0, data=[50]),\n",
      "   midi.NoteOnEvent(tick=0, channel=0, data=[72, 13]),\n",
      "   midi.NoteOnEvent(tick=0, channel=0, data=[45, 137]),\n",
      "   midi.NoteOnEvent(tick=0, channel=0, data=[91, 227]),\n",
      "   midi.NoteOnEvent(tick=1, channel=0, data=[70, 149]),\n",
      "   midi.NoteOnEvent(tick=1, channel=0, data=[117, 199]),\n",
      "   midi.NoteOnEvent(tick=0, channel=0, data=[16, 84]),\n",
      "   midi.NoteOnEvent(tick=1, channel=0, data=[54, 177]),\n",
      "   midi.NoteOnEvent(tick=4, channel=0, data=[60, 224]),\n",
      "   midi.NoteOnEvent(tick=6, channel=0, data=[45, 116]),\n",
      "   midi.NoteOnEvent(tick=1, channel=0, data=[120, 146]),\n",
      "   midi.NoteOnEvent(tick=3, channel=0, data=[91, 202]),\n",
      "   midi.NoteOnEvent(tick=0, channel=0, data=[64, 49]),\n",
      "   midi.NoteOnEvent(tick=1, channel=0, data=[86, 204]),\n",
      "   midi.NoteOnEvent(tick=3, channel=0, data=[76, 117]),\n",
      "   midi.NoteOffEvent(tick=1, channel=0, data=[117, 0]),\n",
      "   midi.NoteOnEvent(tick=0, channel=0, data=[32, 231]),\n",
      "   midi.NoteOnEvent(tick=2, channel=0, data=[105, 94]),\n",
      "   midi.NoteOnEvent(tick=4, channel=0, data=[123, 127]),\n",
      "   midi.NoteOnEvent(tick=1, channel=0, data=[84, 63]),\n",
      "   midi.NoteOnEvent(tick=0, channel=0, data=[72, 54]),\n",
      "   midi.NoteOnEvent(tick=3, channel=0, data=[109, 205]),\n",
      "   midi.NoteOnEvent(tick=2, channel=0, data=[114, 36]),\n",
      "   midi.NoteOnEvent(tick=1, channel=0, data=[4, 24]),\n",
      "   midi.NoteOnEvent(tick=1, channel=0, data=[7, 9]),\n",
      "   midi.NoteOnEvent(tick=1, channel=0, data=[16, 130]),\n",
      "   midi.NoteOnEvent(tick=5, channel=0, data=[9, 26]),\n",
      "   midi.NoteOnEvent(tick=3, channel=0, data=[49, 45]),\n",
      "   midi.NoteOnEvent(tick=1, channel=0, data=[45, 220]),\n",
      "   midi.NoteOnEvent(tick=2, channel=0, data=[97, 76]),\n",
      "   midi.NoteOnEvent(tick=8, channel=0, data=[66, 16]),\n",
      "   midi.NoteOffEvent(tick=1, channel=0, data=[123, 0]),\n",
      "   midi.NoteOnEvent(tick=2, channel=0, data=[56, 192]),\n",
      "   midi.NoteOnEvent(tick=2, channel=0, data=[123, 6]),\n",
      "   midi.NoteOnEvent(tick=5, channel=0, data=[35, 139]),\n",
      "   midi.NoteOnEvent(tick=2, channel=0, data=[72, 48]),\n",
      "   midi.NoteOnEvent(tick=1, channel=0, data=[26, 7]),\n",
      "   midi.NoteOnEvent(tick=0, channel=0, data=[24, 143]),\n",
      "   midi.NoteOnEvent(tick=1, channel=0, data=[42, 85]),\n",
      "   midi.NoteOnEvent(tick=0, channel=0, data=[67, 82]),\n",
      "   midi.NoteOnEvent(tick=2, channel=0, data=[117, 10]),\n",
      "   midi.NoteOnEvent(tick=0, channel=0, data=[111, 140]),\n",
      "   midi.NoteOnEvent(tick=1, channel=0, data=[82, 238]),\n",
      "   midi.NoteOnEvent(tick=1, channel=0, data=[121, 158]),\n",
      "   midi.NoteOnEvent(tick=8, channel=0, data=[68, 84]),\n",
      "   midi.NoteOnEvent(tick=4, channel=0, data=[91, 190]),\n",
      "   midi.NoteOnEvent(tick=1, channel=0, data=[121, 137]),\n",
      "   midi.NoteOnEvent(tick=0, channel=0, data=[0, 132]),\n",
      "   midi.NoteOnEvent(tick=4, channel=0, data=[39, 149]),\n",
      "   midi.NoteOnEvent(tick=2, channel=0, data=[92, 47]),\n",
      "   midi.NoteOnEvent(tick=0, channel=0, data=[76, 179]),\n",
      "   midi.NoteOnEvent(tick=1, channel=0, data=[29, 167]),\n",
      "   midi.NoteOnEvent(tick=3, channel=0, data=[99, 26]),\n",
      "   midi.NoteOnEvent(tick=1, channel=0, data=[86, 9]),\n",
      "   midi.NoteOnEvent(tick=3, channel=0, data=[56, 96]),\n",
      "   midi.NoteOnEvent(tick=3, channel=0, data=[50, 36]),\n",
      "   midi.NoteOnEvent(tick=0, channel=0, data=[78, 92]),\n",
      "   midi.NoteOffEvent(tick=1, channel=0, data=[49, 0]),\n",
      "   midi.NoteOffEvent(tick=0, channel=0, data=[68, 0]),\n",
      "   midi.NoteOnEvent(tick=0, channel=0, data=[89, 170]),\n",
      "   midi.NoteOnEvent(tick=1, channel=0, data=[62, 71]),\n",
      "   midi.NoteOnEvent(tick=1, channel=0, data=[41, 139]),\n",
      "   midi.NoteOnEvent(tick=3, channel=0, data=[90, 23]),\n",
      "   midi.NoteOnEvent(tick=0, channel=0, data=[70, 160]),\n",
      "   midi.NoteOnEvent(tick=0, channel=0, data=[74, 220]),\n",
      "   midi.NoteOffEvent(tick=1, channel=0, data=[78, 0]),\n",
      "   midi.NoteOnEvent(tick=7, channel=0, data=[56, 80]),\n",
      "   midi.NoteOnEvent(tick=0, channel=0, data=[27, 6]),\n",
      "   midi.NoteOnEvent(tick=4, channel=0, data=[59, 247]),\n",
      "   midi.NoteOnEvent(tick=0, channel=0, data=[105, 101]),\n",
      "   midi.NoteOnEvent(tick=0, channel=0, data=[29, 15]),\n",
      "   midi.NoteOnEvent(tick=1, channel=0, data=[65, 168]),\n",
      "   midi.NoteOnEvent(tick=0, channel=0, data=[49, 198]),\n",
      "   midi.NoteOnEvent(tick=1, channel=0, data=[15, 161]),\n",
      "   midi.NoteOnEvent(tick=0, channel=0, data=[6, 81]),\n",
      "   midi.NoteOnEvent(tick=12, channel=0, data=[41, 120]),\n",
      "   midi.NoteOnEvent(tick=1, channel=0, data=[11, 87]),\n",
      "   midi.NoteOnEvent(tick=0, channel=0, data=[3, 177]),\n",
      "   midi.NoteOnEvent(tick=1, channel=0, data=[42, 100]),\n",
      "   midi.NoteOnEvent(tick=0, channel=0, data=[116, 40]),\n",
      "   midi.NoteOnEvent(tick=2, channel=0, data=[62, 110]),\n",
      "   midi.NoteOffEvent(tick=1, channel=0, data=[72, 0]),\n",
      "   midi.NoteOnEvent(tick=0, channel=0, data=[58, 217]),\n",
      "   midi.NoteOnEvent(tick=1, channel=0, data=[66, 215]),\n",
      "   midi.NoteOnEvent(tick=2, channel=0, data=[9, 71]),\n",
      "   midi.NoteOnEvent(tick=6, channel=0, data=[92, 131]),\n",
      "   midi.NoteOnEvent(tick=3, channel=0, data=[10, 77]),\n",
      "   midi.NoteOnEvent(tick=2, channel=0, data=[108, 75]),\n",
      "   midi.NoteOnEvent(tick=1, channel=0, data=[82, 159]),\n",
      "   midi.NoteOnEvent(tick=1, channel=0, data=[39, 170]),\n",
      "   midi.NoteOffEvent(tick=1, channel=0, data=[58, 0]),\n",
      "   midi.NoteOnEvent(tick=0, channel=0, data=[5, 28]),\n",
      "   midi.NoteOnEvent(tick=1, channel=0, data=[51, 60]),\n",
      "   midi.NoteOnEvent(tick=1, channel=0, data=[68, 128]),\n",
      "   midi.NoteOnEvent(tick=1, channel=0, data=[7, 71]),\n",
      "   midi.NoteOnEvent(tick=2, channel=0, data=[106, 252]),\n",
      "   midi.NoteOnEvent(tick=2, channel=0, data=[77, 251]),\n",
      "   midi.NoteOnEvent(tick=2, channel=0, data=[23, 182]),\n",
      "   midi.NoteOnEvent(tick=3, channel=0, data=[103, 81]),\n",
      "   midi.NoteOnEvent(tick=1, channel=0, data=[102, 84]),\n",
      "   midi.NoteOnEvent(tick=0, channel=0, data=[35, 158]),\n",
      "   midi.NoteOnEvent(tick=1, channel=0, data=[40, 118]),\n",
      "   midi.NoteOnEvent(tick=1, channel=0, data=[25, 101]),\n",
      "   midi.NoteOnEvent(tick=5, channel=0, data=[66, 211]),\n",
      "   midi.NoteOnEvent(tick=0, channel=0, data=[66, 170]),\n",
      "   midi.NoteOnEvent(tick=7, channel=0, data=[31, 136]),\n",
      "   midi.NoteOffEvent(tick=7, channel=0, data=[99, 0]),\n",
      "   midi.NoteOnEvent(tick=1, channel=0, data=[50, 17]),\n",
      "   midi.NoteOnEvent(tick=3, channel=0, data=[10, 31]),\n",
      "   midi.NoteOnEvent(tick=1, channel=0, data=[77, 185]),\n",
      "   midi.NoteOffEvent(tick=1, channel=0, data=[68, 0]),\n",
      "   midi.NoteOnEvent(tick=1, channel=0, data=[77, 98]),\n",
      "   midi.NoteOnEvent(tick=2, channel=0, data=[67, 160]),\n",
      "   midi.NoteOnEvent(tick=1, channel=0, data=[111, 128]),\n",
      "   midi.NoteOffEvent(tick=3, channel=0, data=[16, 0]),\n",
      "   midi.NoteOnEvent(tick=0, channel=0, data=[62, 220]),\n",
      "   midi.NoteOnEvent(tick=1, channel=0, data=[17, 47]),\n",
      "   midi.NoteOnEvent(tick=0, channel=0, data=[67, 247]),\n",
      "   midi.NoteOnEvent(tick=3, channel=0, data=[24, 9]),\n",
      "   midi.NoteOnEvent(tick=0, channel=0, data=[49, 32]),\n",
      "   midi.NoteOnEvent(tick=2, channel=0, data=[13, 72]),\n",
      "   midi.NoteOnEvent(tick=0, channel=0, data=[75, 91]),\n",
      "   midi.NoteOnEvent(tick=6, channel=0, data=[18, 45]),\n",
      "   midi.NoteOnEvent(tick=1, channel=0, data=[120, 102]),\n",
      "   midi.NoteOffEvent(tick=1, channel=0, data=[24, 0]),\n",
      "   midi.NoteOnEvent(tick=1, channel=0, data=[25, 87]),\n",
      "   midi.NoteOnEvent(tick=1, channel=0, data=[82, 97]),\n",
      "   midi.NoteOnEvent(tick=2, channel=0, data=[13, 134]),\n",
      "   midi.NoteOnEvent(tick=4, channel=0, data=[40, 9]),\n",
      "   midi.NoteOnEvent(tick=0, channel=0, data=[35, 215]),\n",
      "   midi.NoteOnEvent(tick=4, channel=0, data=[25, 202]),\n",
      "   midi.NoteOnEvent(tick=8, channel=0, data=[117, 175]),\n",
      "   midi.NoteOnEvent(tick=1, channel=0, data=[79, 223]),\n",
      "   midi.NoteOffEvent(tick=4, channel=0, data=[74, 0]),\n",
      "   midi.NoteOnEvent(tick=2, channel=0, data=[74, 63]),\n",
      "   midi.NoteOnEvent(tick=0, channel=0, data=[46, 243]),\n",
      "   midi.NoteOnEvent(tick=5, channel=0, data=[65, 115]),\n",
      "   midi.NoteOnEvent(tick=3, channel=0, data=[63, 180]),\n",
      "   midi.NoteOnEvent(tick=3, channel=0, data=[85, 163]),\n",
      "   midi.NoteOnEvent(tick=7, channel=0, data=[105, 213]),\n",
      "   midi.NoteOnEvent(tick=2, channel=0, data=[127, 192]),\n",
      "   midi.NoteOnEvent(tick=5, channel=0, data=[59, 45]),\n",
      "   midi.NoteOnEvent(tick=3, channel=0, data=[99, 210]),\n",
      "   midi.NoteOnEvent(tick=7, channel=0, data=[76, 1]),\n",
      "   midi.NoteOnEvent(tick=1, channel=0, data=[58, 56]),\n",
      "   midi.NoteOnEvent(tick=2, channel=0, data=[31, 121]),\n",
      "   midi.NoteOnEvent(tick=5, channel=0, data=[78, 253]),\n",
      "   midi.NoteOnEvent(tick=0, channel=0, data=[20, 155]),\n",
      "   midi.NoteOnEvent(tick=1, channel=0, data=[29, 228]),\n",
      "   midi.NoteOnEvent(tick=5, channel=0, data=[87, 38]),\n",
      "   midi.NoteOffEvent(tick=4, channel=0, data=[26, 0]),\n",
      "   midi.NoteOnEvent(tick=3, channel=0, data=[73, 14]),\n",
      "   midi.NoteOffEvent(tick=3, channel=0, data=[77, 0]),\n",
      "   midi.NoteOnEvent(tick=3, channel=0, data=[126, 72]),\n",
      "   midi.NoteOnEvent(tick=1, channel=0, data=[110, 105]),\n",
      "   midi.NoteOnEvent(tick=1, channel=0, data=[8, 81]),\n",
      "   midi.NoteOnEvent(tick=1, channel=0, data=[126, 229]),\n",
      "   midi.NoteOffEvent(tick=10, channel=0, data=[45, 0]),\n",
      "   midi.NoteOnEvent(tick=0, channel=0, data=[21, 238]),\n",
      "   midi.NoteOnEvent(tick=4, channel=0, data=[123, 147]),\n",
      "   midi.NoteOnEvent(tick=2, channel=0, data=[34, 140]),\n",
      "   midi.NoteOffEvent(tick=1, channel=0, data=[20, 0]),\n",
      "   midi.NoteOnEvent(tick=0, channel=0, data=[14, 173]),\n",
      "   midi.NoteOnEvent(tick=2, channel=0, data=[6, 173]),\n",
      "   midi.NoteOffEvent(tick=2, channel=0, data=[102, 0]),\n",
      "   midi.NoteOnEvent(tick=0, channel=0, data=[126, 230]),\n",
      "   midi.NoteOnEvent(tick=0, channel=0, data=[34, 243]),\n",
      "   midi.NoteOnEvent(tick=3, channel=0, data=[98, 253]),\n",
      "   midi.NoteOnEvent(tick=2, channel=0, data=[52, 251]),\n",
      "   midi.NoteOffEvent(tick=1, channel=0, data=[117, 0]),\n",
      "   midi.NoteOnEvent(tick=1, channel=0, data=[26, 3]),\n",
      "   midi.NoteOnEvent(tick=0, channel=0, data=[8, 237]),\n",
      "   midi.NoteOnEvent(tick=2, channel=0, data=[10, 40]),\n",
      "   midi.NoteOnEvent(tick=0, channel=0, data=[75, 51]),\n",
      "   midi.NoteOnEvent(tick=3, channel=0, data=[64, 7]),\n",
      "   midi.NoteOnEvent(tick=6, channel=0, data=[97, 158]),\n",
      "   midi.NoteOnEvent(tick=2, channel=0, data=[73, 129]),\n",
      "   midi.NoteOnEvent(tick=1, channel=0, data=[10, 175]),\n",
      "   midi.NoteOnEvent(tick=1, channel=0, data=[83, 111]),\n",
      "   midi.NoteOnEvent(tick=1, channel=0, data=[127, 149]),\n",
      "   midi.NoteOnEvent(tick=1, channel=0, data=[101, 100]),\n",
      "   midi.NoteOnEvent(tick=1, channel=0, data=[19, 150]),\n",
      "   midi.NoteOnEvent(tick=1, channel=0, data=[96, 42]),\n",
      "   midi.NoteOnEvent(tick=1, channel=0, data=[32, 193]),\n",
      "   midi.NoteOnEvent(tick=0, channel=0, data=[120, 54]),\n",
      "   midi.NoteOnEvent(tick=3, channel=0, data=[124, 114]),\n",
      "   midi.NoteOnEvent(tick=0, channel=0, data=[75, 33]),\n",
      "   midi.NoteOnEvent(tick=1, channel=0, data=[64, 106]),\n",
      "   midi.NoteOffEvent(tick=2, channel=0, data=[101, 0]),\n",
      "   midi.NoteOnEvent(tick=0, channel=0, data=[88, 17]),\n",
      "   midi.NoteOnEvent(tick=2, channel=0, data=[19, 225]),\n",
      "   midi.NoteOnEvent(tick=0, channel=0, data=[84, 42]),\n",
      "   midi.NoteOnEvent(tick=1, channel=0, data=[3, 29]),\n",
      "   midi.NoteOnEvent(tick=5, channel=0, data=[52, 205]),\n",
      "   midi.NoteOnEvent(tick=4, channel=0, data=[121, 246]),\n",
      "   midi.NoteOnEvent(tick=0, channel=0, data=[65, 28]),\n",
      "   midi.NoteOnEvent(tick=0, channel=0, data=[102, 213]),\n",
      "   midi.NoteOnEvent(tick=0, channel=0, data=[26, 164]),\n",
      "   midi.NoteOnEvent(tick=1, channel=0, data=[2, 106]),\n",
      "   midi.NoteOffEvent(tick=2, channel=0, data=[56, 0]),\n",
      "   midi.NoteOffEvent(tick=3, channel=0, data=[116, 0]),\n",
      "   midi.NoteOnEvent(tick=1, channel=0, data=[126, 134]),\n",
      "   midi.NoteOnEvent(tick=9, channel=0, data=[112, 165]),\n",
      "   midi.NoteOnEvent(tick=0, channel=0, data=[102, 56]),\n",
      "   midi.NoteOnEvent(tick=3, channel=0, data=[81, 72]),\n",
      "   midi.NoteOnEvent(tick=0, channel=0, data=[73, 15]),\n",
      "   midi.NoteOnEvent(tick=0, channel=0, data=[67, 167]),\n",
      "   midi.NoteOnEvent(tick=5, channel=0, data=[47, 15]),\n",
      "   midi.NoteOnEvent(tick=0, channel=0, data=[100, 112]),\n",
      "   midi.NoteOnEvent(tick=1, channel=0, data=[94, 191]),\n",
      "   midi.NoteOnEvent(tick=1, channel=0, data=[98, 244]),\n",
      "   midi.NoteOffEvent(tick=1, channel=0, data=[74, 0]),\n",
      "   midi.NoteOffEvent(tick=1, channel=0, data=[85, 0]),\n",
      "   midi.NoteOnEvent(tick=0, channel=0, data=[27, 162]),\n",
      "   midi.NoteOnEvent(tick=0, channel=0, data=[73, 8]),\n",
      "   midi.NoteOnEvent(tick=1, channel=0, data=[74, 175]),\n",
      "   midi.NoteOnEvent(tick=0, channel=0, data=[38, 81]),\n",
      "   midi.NoteOnEvent(tick=2, channel=0, data=[27, 223]),\n",
      "   midi.NoteOffEvent(tick=3, channel=0, data=[35, 0]),\n",
      "   midi.NoteOnEvent(tick=0, channel=0, data=[84, 107]),\n",
      "   midi.NoteOnEvent(tick=7, channel=0, data=[45, 96]),\n",
      "   midi.NoteOnEvent(tick=1, channel=0, data=[27, 223]),\n",
      "   midi.NoteOnEvent(tick=0, channel=0, data=[45, 135]),\n",
      "   midi.NoteOnEvent(tick=1, channel=0, data=[82, 122]),\n",
      "   midi.NoteOnEvent(tick=2, channel=0, data=[91, 153]),\n",
      "   midi.NoteOnEvent(tick=0, channel=0, data=[104, 17]),\n",
      "   midi.NoteOnEvent(tick=1, channel=0, data=[101, 232]),\n",
      "   midi.NoteOffEvent(tick=1, channel=0, data=[23, 0]),\n",
      "   midi.NoteOffEvent(tick=1, channel=0, data=[106, 0]),\n",
      "   midi.NoteOnEvent(tick=2, channel=0, data=[44, 14]),\n",
      "   midi.NoteOnEvent(tick=1, channel=0, data=[31, 108]),\n",
      "   midi.NoteOnEvent(tick=0, channel=0, data=[33, 35]),\n",
      "   midi.NoteOnEvent(tick=0, channel=0, data=[1, 169]),\n",
      "   midi.NoteOnEvent(tick=1, channel=0, data=[33, 95]),\n",
      "   midi.NoteOnEvent(tick=1, channel=0, data=[16, 255]),\n",
      "   midi.NoteOnEvent(tick=0, channel=0, data=[71, 58]),\n",
      "   midi.NoteOnEvent(tick=0, channel=0, data=[94, 142]),\n",
      "   midi.NoteOnEvent(tick=1, channel=0, data=[66, 162]),\n",
      "   midi.NoteOnEvent(tick=0, channel=0, data=[15, 80]),\n",
      "   midi.NoteOnEvent(tick=1, channel=0, data=[125, 161]),\n",
      "   midi.NoteOnEvent(tick=0, channel=0, data=[15, 40]),\n",
      "   midi.NoteOnEvent(tick=1, channel=0, data=[115, 41]),\n",
      "   midi.NoteOffEvent(tick=1, channel=0, data=[34, 0]),\n",
      "   midi.NoteOnEvent(tick=3, channel=0, data=[86, 160]),\n",
      "   midi.NoteOnEvent(tick=2, channel=0, data=[72, 192]),\n",
      "   midi.NoteOffEvent(tick=1, channel=0, data=[92, 0]),\n",
      "   midi.NoteOnEvent(tick=0, channel=0, data=[22, 61]),\n",
      "   midi.NoteOnEvent(tick=1, channel=0, data=[75, 6]),\n",
      "   midi.NoteOnEvent(tick=1, channel=0, data=[4, 23]),\n",
      "   midi.NoteOnEvent(tick=0, channel=0, data=[104, 225]),\n",
      "   midi.NoteOffEvent(tick=2, channel=0, data=[103, 0]),\n",
      "   midi.NoteOnEvent(tick=0, channel=0, data=[75, 254]),\n",
      "   midi.NoteOnEvent(tick=0, channel=0, data=[24, 13]),\n",
      "   midi.NoteOnEvent(tick=1, channel=0, data=[29, 186]),\n",
      "   midi.NoteOnEvent(tick=3, channel=0, data=[46, 2]),\n",
      "   midi.NoteOnEvent(tick=1, channel=0, data=[84, 131]),\n",
      "   midi.NoteOffEvent(tick=1, channel=0, data=[83, 0]),\n",
      "   midi.NoteOnEvent(tick=0, channel=0, data=[88, 109]),\n",
      "   midi.NoteOnEvent(tick=2, channel=0, data=[21, 167]),\n",
      "   midi.NoteOffEvent(tick=2, channel=0, data=[4, 0]),\n",
      "   midi.NoteOffEvent(tick=0, channel=0, data=[79, 0]),\n",
      "   midi.NoteOnEvent(tick=0, channel=0, data=[92, 59]),\n",
      "   midi.NoteOnEvent(tick=2, channel=0, data=[107, 241]),\n",
      "   midi.NoteOnEvent(tick=1, channel=0, data=[98, 26]),\n",
      "   midi.NoteOnEvent(tick=1, channel=0, data=[63, 115]),\n",
      "   midi.NoteOnEvent(tick=1, channel=0, data=[87, 202]),\n",
      "   midi.NoteOnEvent(tick=1, channel=0, data=[105, 214]),\n",
      "   midi.NoteOnEvent(tick=7, channel=0, data=[62, 232]),\n",
      "   midi.NoteOnEvent(tick=6, channel=0, data=[73, 94]),\n",
      "   midi.NoteOnEvent(tick=2, channel=0, data=[28, 110]),\n",
      "   midi.NoteOffEvent(tick=2, channel=0, data=[11, 0]),\n",
      "   midi.NoteOnEvent(tick=1, channel=0, data=[90, 178]),\n",
      "   midi.NoteOnEvent(tick=2, channel=0, data=[61, 107]),\n",
      "   midi.NoteOnEvent(tick=4, channel=0, data=[108, 195]),\n",
      "   midi.NoteOnEvent(tick=6, channel=0, data=[9, 223]),\n",
      "   midi.NoteOnEvent(tick=1, channel=0, data=[59, 91]),\n",
      "   midi.NoteOnEvent(tick=4, channel=0, data=[64, 4]),\n",
      "   midi.NoteOnEvent(tick=1, channel=0, data=[1, 153]),\n",
      "   midi.NoteOnEvent(tick=1, channel=0, data=[99, 21]),\n",
      "   midi.NoteOnEvent(tick=0, channel=0, data=[10, 166]),\n",
      "   midi.NoteOnEvent(tick=1, channel=0, data=[117, 2]),\n",
      "   midi.NoteOnEvent(tick=1, channel=0, data=[105, 245]),\n",
      "   midi.NoteOnEvent(tick=1, channel=0, data=[9, 1]),\n",
      "   midi.NoteOnEvent(tick=2, channel=0, data=[127, 119]),\n",
      "   midi.NoteOnEvent(tick=0, channel=0, data=[12, 126]),\n",
      "   midi.NoteOnEvent(tick=1, channel=0, data=[78, 64]),\n",
      "   midi.NoteOffEvent(tick=1, channel=0, data=[81, 0]),\n",
      "   midi.NoteOnEvent(tick=1, channel=0, data=[47, 184]),\n",
      "   midi.NoteOffEvent(tick=1, channel=0, data=[58, 0]),\n",
      "   midi.NoteOnEvent(tick=0, channel=0, data=[45, 233]),\n",
      "   midi.NoteOnEvent(tick=3, channel=0, data=[50, 45]),\n",
      "   midi.NoteOnEvent(tick=2, channel=0, data=[51, 120]),\n",
      "   midi.NoteOnEvent(tick=1, channel=0, data=[114, 28]),\n",
      "   midi.NoteOnEvent(tick=1, channel=0, data=[99, 25]),\n",
      "   midi.NoteOnEvent(tick=1, channel=0, data=[96, 135]),\n",
      "   midi.NoteOffEvent(tick=1, channel=0, data=[25, 0]),\n",
      "   midi.NoteOnEvent(tick=0, channel=0, data=[120, 119]),\n",
      "   midi.NoteOnEvent(tick=2, channel=0, data=[49, 7]),\n",
      "   midi.NoteOnEvent(tick=2, channel=0, data=[75, 97]),\n",
      "   midi.NoteOnEvent(tick=1, channel=0, data=[28, 198]),\n",
      "   midi.NoteOnEvent(tick=2, channel=0, data=[126, 231]),\n",
      "   midi.NoteOffEvent(tick=2, channel=0, data=[112, 0]),\n",
      "   midi.NoteOnEvent(tick=1, channel=0, data=[53, 185]),\n",
      "   midi.NoteOnEvent(tick=1, channel=0, data=[76, 56]),\n",
      "   midi.NoteOnEvent(tick=5, channel=0, data=[0, 255]),\n",
      "   midi.NoteOffEvent(tick=3, channel=0, data=[0, 0]),\n",
      "   midi.NoteOnEvent(tick=1, channel=0, data=[64, 55]),\n",
      "   midi.NoteOnEvent(tick=0, channel=0, data=[55, 190]),\n",
      "   midi.NoteOnEvent(tick=4, channel=0, data=[40, 197]),\n",
      "   midi.NoteOnEvent(tick=1, channel=0, data=[53, 128]),\n",
      "   midi.NoteOffEvent(tick=3, channel=0, data=[89, 0]),\n",
      "   midi.NoteOnEvent(tick=1, channel=0, data=[1, 37]),\n",
      "   midi.NoteOnEvent(tick=5, channel=0, data=[122, 59]),\n",
      "   midi.NoteOnEvent(tick=1, channel=0, data=[81, 92]),\n",
      "   midi.NoteOnEvent(tick=1, channel=0, data=[100, 29]),\n",
      "   midi.NoteOnEvent(tick=1, channel=0, data=[24, 46]),\n",
      "   midi.NoteOnEvent(tick=0, channel=0, data=[51, 25]),\n",
      "   midi.NoteOnEvent(tick=2, channel=0, data=[77, 107]),\n",
      "   midi.NoteOnEvent(tick=2, channel=0, data=[109, 165]),\n",
      "   midi.NoteOnEvent(tick=0, channel=0, data=[54, 45]),\n",
      "   midi.NoteOnEvent(tick=1, channel=0, data=[78, 200]),\n",
      "   midi.NoteOnEvent(tick=2, channel=0, data=[111, 42]),\n",
      "   midi.NoteOnEvent(tick=0, channel=0, data=[121, 71]),\n",
      "   midi.NoteOnEvent(tick=2, channel=0, data=[2, 135]),\n",
      "   midi.NoteOffEvent(tick=2, channel=0, data=[52, 0]),\n",
      "   midi.NoteOnEvent(tick=0, channel=0, data=[87, 14]),\n",
      "   midi.NoteOnEvent(tick=2, channel=0, data=[53, 181]),\n",
      "   midi.NoteOnEvent(tick=0, channel=0, data=[57, 107]),\n",
      "   midi.NoteOnEvent(tick=0, channel=0, data=[59, 113]),\n",
      "   midi.NoteOnEvent(tick=2, channel=0, data=[25, 231]),\n",
      "   midi.NoteOnEvent(tick=1, channel=0, data=[47, 157]),\n",
      "   midi.NoteOnEvent(tick=0, channel=0, data=[122, 117]),\n",
      "   midi.NoteOnEvent(tick=0, channel=0, data=[55, 65]),\n",
      "   midi.NoteOnEvent(tick=2, channel=0, data=[19, 83]),\n",
      "   midi.NoteOnEvent(tick=0, channel=0, data=[98, 5]),\n",
      "   midi.NoteOnEvent(tick=0, channel=0, data=[9, 190]),\n",
      "   midi.NoteOnEvent(tick=1, channel=0, data=[85, 69]),\n",
      "   midi.NoteOnEvent(tick=2, channel=0, data=[22, 229]),\n",
      "   midi.NoteOnEvent(tick=2, channel=0, data=[89, 242]),\n",
      "   midi.NoteOnEvent(tick=1, channel=0, data=[56, 245]),\n",
      "   midi.NoteOnEvent(tick=1, channel=0, data=[47, 9]),\n",
      "   midi.NoteOnEvent(tick=2, channel=0, data=[22, 153]),\n",
      "   midi.NoteOnEvent(tick=3, channel=0, data=[103, 85]),\n",
      "   midi.NoteOnEvent(tick=3, channel=0, data=[11, 51]),\n",
      "   midi.NoteOnEvent(tick=1, channel=0, data=[127, 239]),\n",
      "   midi.NoteOnEvent(tick=0, channel=0, data=[40, 181]),\n",
      "   midi.NoteOffEvent(tick=1, channel=0, data=[12, 0]),\n",
      "   midi.NoteOffEvent(tick=2, channel=0, data=[66, 0]),\n",
      "   midi.NoteOnEvent(tick=2, channel=0, data=[99, 237]),\n",
      "   midi.NoteOnEvent(tick=1, channel=0, data=[10, 154]),\n",
      "   midi.NoteOnEvent(tick=0, channel=0, data=[28, 231]),\n",
      "   midi.NoteOnEvent(tick=1, channel=0, data=[41, 227]),\n",
      "   midi.NoteOnEvent(tick=3, channel=0, data=[35, 177]),\n",
      "   midi.NoteOnEvent(tick=1, channel=0, data=[35, 110]),\n",
      "   midi.NoteOffEvent(tick=1, channel=0, data=[14, 0]),\n",
      "   midi.NoteOnEvent(tick=0, channel=0, data=[28, 172]),\n",
      "   midi.NoteOnEvent(tick=5, channel=0, data=[1, 207]),\n",
      "   midi.NoteOnEvent(tick=2, channel=0, data=[125, 58]),\n",
      "   midi.NoteOffEvent(tick=1, channel=0, data=[53, 0]),\n",
      "   midi.NoteOnEvent(tick=0, channel=0, data=[17, 224]),\n",
      "   midi.NoteOnEvent(tick=4, channel=0, data=[53, 103]),\n",
      "   midi.NoteOnEvent(tick=3, channel=0, data=[84, 135]),\n",
      "   midi.NoteOnEvent(tick=1, channel=0, data=[53, 185]),\n",
      "   midi.NoteOffEvent(tick=2, channel=0, data=[8, 0]),\n",
      "   midi.NoteOffEvent(tick=0, channel=0, data=[97, 0]),\n",
      "   midi.NoteOnEvent(tick=1, channel=0, data=[29, 114]),\n",
      "   midi.NoteOnEvent(tick=1, channel=0, data=[127, 37]),\n",
      "   midi.NoteOnEvent(tick=1, channel=0, data=[105, 228]),\n",
      "   midi.NoteOnEvent(tick=2, channel=0, data=[124, 29]),\n",
      "   midi.NoteOnEvent(tick=1, channel=0, data=[48, 121]),\n",
      "   midi.NoteOnEvent(tick=0, channel=0, data=[88, 162]),\n",
      "   midi.NoteOnEvent(tick=0, channel=0, data=[22, 220]),\n",
      "   midi.NoteOnEvent(tick=1, channel=0, data=[34, 156]),\n",
      "   midi.NoteOnEvent(tick=1, channel=0, data=[78, 51]),\n",
      "   midi.NoteOnEvent(tick=0, channel=0, data=[61, 226]),\n",
      "   midi.NoteOnEvent(tick=1, channel=0, data=[54, 131]),\n",
      "   midi.NoteOnEvent(tick=3, channel=0, data=[116, 225]),\n",
      "   midi.NoteOnEvent(tick=1, channel=0, data=[24, 56]),\n",
      "   midi.NoteOnEvent(tick=2, channel=0, data=[1, 9]),\n",
      "   midi.NoteOnEvent(tick=5, channel=0, data=[35, 152]),\n",
      "   midi.NoteOffEvent(tick=1, channel=0, data=[111, 0]),\n",
      "   midi.NoteOnEvent(tick=1, channel=0, data=[58, 105]),\n",
      "   midi.NoteOnEvent(tick=5, channel=0, data=[77, 194]),\n",
      "   midi.NoteOnEvent(tick=1, channel=0, data=[59, 20]),\n",
      "   midi.NoteOnEvent(tick=0, channel=0, data=[98, 242]),\n",
      "   midi.NoteOnEvent(tick=6, channel=0, data=[38, 33]),\n",
      "   midi.NoteOnEvent(tick=0, channel=0, data=[34, 105]),\n",
      "   midi.NoteOnEvent(tick=1, channel=0, data=[127, 63]),\n",
      "   midi.NoteOnEvent(tick=1, channel=0, data=[31, 13]),\n",
      "   midi.NoteOnEvent(tick=1, channel=0, data=[111, 124]),\n",
      "   midi.NoteOnEvent(tick=1, channel=0, data=[61, 87]),\n",
      "   midi.NoteOnEvent(tick=1, channel=0, data=[78, 150]),\n",
      "   midi.NoteOnEvent(tick=1, channel=0, data=[19, 121]),\n",
      "   midi.NoteOnEvent(tick=0, channel=0, data=[114, 11]),\n",
      "   midi.NoteOnEvent(tick=1, channel=0, data=[126, 155]),\n",
      "   midi.NoteOffEvent(tick=1, channel=0, data=[67, 0]),\n",
      "   midi.NoteOnEvent(tick=0, channel=0, data=[98, 78]),\n",
      "   midi.NoteOnEvent(tick=1, channel=0, data=[94, 21]),\n",
      "   midi.NoteOnEvent(tick=2, channel=0, data=[14, 74]),\n",
      "   midi.NoteOffEvent(tick=1, channel=0, data=[42, 0]),\n",
      "   midi.NoteOnEvent(tick=1, channel=0, data=[90, 110]),\n",
      "   midi.NoteOnEvent(tick=6, channel=0, data=[14, 86]),\n",
      "   midi.NoteOnEvent(tick=3, channel=0, data=[119, 20]),\n",
      "   midi.NoteOnEvent(tick=0, channel=0, data=[84, 45]),\n",
      "   midi.NoteOffEvent(tick=2, channel=0, data=[81, 0]),\n",
      "   midi.NoteOnEvent(tick=0, channel=0, data=[95, 186]),\n",
      "   midi.NoteOnEvent(tick=1, channel=0, data=[16, 200]),\n",
      "   midi.NoteOnEvent(tick=0, channel=0, data=[52, 1]),\n",
      "   midi.NoteOnEvent(tick=1, channel=0, data=[72, 8]),\n",
      "   midi.NoteOnEvent(tick=3, channel=0, data=[66, 16]),\n",
      "   midi.NoteOnEvent(tick=1, channel=0, data=[28, 118]),\n",
      "   midi.NoteOnEvent(tick=2, channel=0, data=[86, 245]),\n",
      "   midi.NoteOffEvent(tick=1, channel=0, data=[121, 0]),\n",
      "   midi.NoteOnEvent(tick=2, channel=0, data=[30, 203]),\n",
      "   midi.NoteOnEvent(tick=5, channel=0, data=[35, 170]),\n",
      "   midi.NoteOnEvent(tick=1, channel=0, data=[58, 14]),\n",
      "   midi.NoteOnEvent(tick=2, channel=0, data=[48, 206]),\n",
      "   midi.NoteOnEvent(tick=0, channel=0, data=[120, 143]),\n",
      "   midi.NoteOnEvent(tick=1, channel=0, data=[89, 189]),\n",
      "   midi.NoteOnEvent(tick=0, channel=0, data=[121, 187]),\n",
      "   midi.NoteOnEvent(tick=4, channel=0, data=[30, 61]),\n",
      "   midi.NoteOnEvent(tick=1, channel=0, data=[105, 13]),\n",
      "   midi.NoteOnEvent(tick=3, channel=0, data=[9, 183]),\n",
      "   midi.NoteOffEvent(tick=1, channel=0, data=[115, 0]),\n",
      "   midi.NoteOnEvent(tick=1, channel=0, data=[94, 159]),\n",
      "   midi.NoteOffEvent(tick=2, channel=0, data=[9, 0]),\n",
      "   midi.NoteOnEvent(tick=0, channel=0, data=[127, 249]),\n",
      "   midi.NoteOnEvent(tick=1, channel=0, data=[121, 197]),\n",
      "   midi.NoteOnEvent(tick=5, channel=0, data=[21, 84]),\n",
      "   midi.NoteOffEvent(tick=1, channel=0, data=[60, 0]),\n",
      "   midi.NoteOnEvent(tick=1, channel=0, data=[113, 3]),\n",
      "   midi.NoteOnEvent(tick=1, channel=0, data=[104, 183]),\n",
      "   midi.NoteOnEvent(tick=5, channel=0, data=[39, 2]),\n",
      "   midi.NoteOnEvent(tick=1, channel=0, data=[28, 172]),\n",
      "   midi.NoteOnEvent(tick=1, channel=0, data=[99, 5]),\n",
      "   midi.NoteOnEvent(tick=4, channel=0, data=[95, 202]),\n",
      "   midi.NoteOffEvent(tick=1, channel=0, data=[70, 0]),\n",
      "   midi.NoteOnEvent(tick=1, channel=0, data=[87, 193]),\n",
      "   midi.NoteOnEvent(tick=2, channel=0, data=[12, 141]),\n",
      "   midi.NoteOffEvent(tick=6, channel=0, data=[7, 0]),\n",
      "   midi.NoteOnEvent(tick=0, channel=0, data=[80, 223]),\n",
      "   midi.NoteOnEvent(tick=1, channel=0, data=[19, 179]),\n",
      "   midi.NoteOnEvent(tick=1, channel=0, data=[33, 97]),\n",
      "   midi.NoteOnEvent(tick=0, channel=0, data=[79, 179]),\n",
      "   midi.NoteOnEvent(tick=3, channel=0, data=[13, 21]),\n",
      "   midi.NoteOnEvent(tick=5, channel=0, data=[40, 49]),\n",
      "   midi.NoteOffEvent(tick=4, channel=0, data=[59, 0]),\n",
      "   midi.NoteOnEvent(tick=0, channel=0, data=[86, 148]),\n",
      "   midi.NoteOnEvent(tick=1, channel=0, data=[31, 177]),\n",
      "   midi.NoteOnEvent(tick=0, channel=0, data=[78, 224]),\n",
      "   midi.NoteOffEvent(tick=1, channel=0, data=[49, 0]),\n",
      "   midi.NoteOnEvent(tick=0, channel=0, data=[88, 184]),\n",
      "   midi.NoteOnEvent(tick=1, channel=0, data=[76, 237]),\n",
      "   midi.NoteOnEvent(tick=6, channel=0, data=[103, 214]),\n",
      "   midi.NoteOffEvent(tick=1, channel=0, data=[58, 0]),\n",
      "   midi.NoteOnEvent(tick=7, channel=0, data=[27, 156]),\n",
      "   midi.NoteOffEvent(tick=1, channel=0, data=[79, 0]),\n",
      "   midi.NoteOffEvent(tick=0, channel=0, data=[102, 0]),\n",
      "   midi.NoteOnEvent(tick=0, channel=0, data=[115, 103]),\n",
      "   midi.NoteOnEvent(tick=3, channel=0, data=[81, 125]),\n",
      "   midi.NoteOnEvent(tick=1, channel=0, data=[109, 217]),\n",
      "   midi.NoteOffEvent(tick=1, channel=0, data=[125, 0]),\n",
      "   midi.NoteOnEvent(tick=0, channel=0, data=[41, 199]),\n",
      "   midi.NoteOnEvent(tick=0, channel=0, data=[91, 11]),\n",
      "   midi.NoteOffEvent(tick=1, channel=0, data=[87, 0]),\n",
      "   midi.NoteOnEvent(tick=0, channel=0, data=[57, 115]),\n",
      "   midi.NoteOnEvent(tick=0, channel=0, data=[15, 254]),\n",
      "   midi.NoteOnEvent(tick=4, channel=0, data=[123, 128]),\n",
      "   midi.NoteOnEvent(tick=0, channel=0, data=[60, 234]),\n",
      "   midi.NoteOnEvent(tick=3, channel=0, data=[90, 229]),\n",
      "   midi.NoteOffEvent(tick=1, channel=0, data=[114, 0]),\n",
      "   midi.NoteOnEvent(tick=1, channel=0, data=[120, 162]),\n",
      "   midi.NoteOnEvent(tick=1, channel=0, data=[17, 205]),\n",
      "   midi.NoteOffEvent(tick=1, channel=0, data=[123, 0]),\n",
      "   midi.NoteOnEvent(tick=0, channel=0, data=[46, 56]),\n",
      "   midi.NoteOffEvent(tick=1, channel=0, data=[90, 0]),\n",
      "   midi.NoteOffEvent(tick=4, channel=0, data=[44, 0]),\n",
      "   midi.NoteOnEvent(tick=0, channel=0, data=[16, 136]),\n",
      "   midi.NoteOnEvent(tick=0, channel=0, data=[110, 221]),\n",
      "   midi.NoteOnEvent(tick=7, channel=0, data=[19, 76]),\n",
      "   midi.NoteOnEvent(tick=4, channel=0, data=[45, 18]),\n",
      "   midi.NoteOnEvent(tick=2, channel=0, data=[17, 219]),\n",
      "   midi.NoteOnEvent(tick=2, channel=0, data=[32, 98]),\n",
      "   midi.NoteOnEvent(tick=0, channel=0, data=[4, 137]),\n",
      "   midi.NoteOnEvent(tick=0, channel=0, data=[28, 161]),\n",
      "   midi.NoteOnEvent(tick=1, channel=0, data=[41, 20]),\n",
      "   midi.NoteOnEvent(tick=1, channel=0, data=[78, 249]),\n",
      "   midi.NoteOnEvent(tick=1, channel=0, data=[99, 146]),\n",
      "   midi.NoteOnEvent(tick=9, channel=0, data=[26, 13]),\n",
      "   midi.NoteOffEvent(tick=5, channel=0, data=[92, 0]),\n",
      "   midi.NoteOffEvent(tick=0, channel=0, data=[105, 0]),\n",
      "   midi.NoteOnEvent(tick=1, channel=0, data=[84, 156]),\n",
      "   midi.NoteOnEvent(tick=7, channel=0, data=[37, 102]),\n",
      "   midi.NoteOnEvent(tick=0, channel=0, data=[38, 44]),\n",
      "   midi.NoteOnEvent(tick=3, channel=0, data=[62, 191]),\n",
      "   midi.NoteOnEvent(tick=0, channel=0, data=[64, 26]),\n",
      "   midi.NoteOnEvent(tick=2, channel=0, data=[31, 177]),\n",
      "   midi.NoteOnEvent(tick=0, channel=0, data=[55, 82]),\n",
      "   midi.NoteOnEvent(tick=0, channel=0, data=[45, 212]),\n",
      "   midi.NoteOnEvent(tick=0, channel=0, data=[71, 7]),\n",
      "   midi.NoteOnEvent(tick=5, channel=0, data=[79, 67]),\n",
      "   midi.NoteOffEvent(tick=2, channel=0, data=[54, 0]),\n",
      "   midi.NoteOnEvent(tick=1, channel=0, data=[109, 140]),\n",
      "   midi.NoteOnEvent(tick=4, channel=0, data=[36, 106]),\n",
      "   midi.NoteOnEvent(tick=0, channel=0, data=[105, 39]),\n",
      "   midi.NoteOnEvent(tick=1, channel=0, data=[29, 141]),\n",
      "   midi.NoteOnEvent(tick=1, channel=0, data=[9, 178]),\n",
      "   midi.NoteOnEvent(tick=0, channel=0, data=[61, 182]),\n",
      "   midi.NoteOnEvent(tick=3, channel=0, data=[49, 219]),\n",
      "   midi.NoteOnEvent(tick=1, channel=0, data=[111, 210]),\n",
      "   midi.NoteOnEvent(tick=5, channel=0, data=[50, 250]),\n",
      "   midi.NoteOnEvent(tick=1, channel=0, data=[11, 41]),\n",
      "   midi.NoteOffEvent(tick=1, channel=0, data=[34, 0]),\n",
      "   midi.NoteOnEvent(tick=0, channel=0, data=[117, 127]),\n",
      "   midi.NoteOnEvent(tick=2, channel=0, data=[127, 189]),\n",
      "   midi.NoteOnEvent(tick=3, channel=0, data=[6, 69]),\n",
      "   midi.NoteOffEvent(tick=6, channel=0, data=[28, 0]),\n",
      "   midi.NoteOnEvent(tick=0, channel=0, data=[52, 206]),\n",
      "   midi.NoteOnEvent(tick=3, channel=0, data=[111, 128]),\n",
      "   midi.NoteOnEvent(tick=2, channel=0, data=[98, 44]),\n",
      "   midi.NoteOnEvent(tick=5, channel=0, data=[85, 48]),\n",
      "   midi.NoteOffEvent(tick=1, channel=0, data=[62, 0]),\n",
      "   midi.NoteOnEvent(tick=0, channel=0, data=[107, 205]),\n",
      "   midi.NoteOnEvent(tick=4, channel=0, data=[50, 205]),\n",
      "   midi.NoteOnEvent(tick=0, channel=0, data=[66, 15]),\n",
      "   midi.NoteOnEvent(tick=2, channel=0, data=[116, 183]),\n",
      "   midi.NoteOnEvent(tick=2, channel=0, data=[118, 194]),\n",
      "   midi.NoteOnEvent(tick=4, channel=0, data=[25, 188]),\n",
      "   midi.NoteOnEvent(tick=3, channel=0, data=[43, 177]),\n",
      "   midi.NoteOnEvent(tick=1, channel=0, data=[13, 167]),\n",
      "   midi.NoteOffEvent(tick=6, channel=0, data=[98, 0]),\n",
      "   midi.NoteOnEvent(tick=1, channel=0, data=[86, 189]),\n",
      "   midi.NoteOnEvent(tick=3, channel=0, data=[32, 43]),\n",
      "   midi.NoteOnEvent(tick=3, channel=0, data=[15, 160]),\n",
      "   midi.NoteOnEvent(tick=4, channel=0, data=[96, 7]),\n",
      "   midi.NoteOnEvent(tick=4, channel=0, data=[41, 61]),\n",
      "   midi.NoteOnEvent(tick=1, channel=0, data=[35, 31]),\n",
      "   midi.NoteOnEvent(tick=6, channel=0, data=[126, 154]),\n",
      "   midi.NoteOffEvent(tick=1, channel=0, data=[33, 0]),\n",
      "   midi.NoteOffEvent(tick=3, channel=0, data=[82, 0]),\n",
      "   midi.NoteOnEvent(tick=0, channel=0, data=[89, 31]),\n",
      "   midi.NoteOffEvent(tick=1, channel=0, data=[15, 0]),\n",
      "   midi.NoteOnEvent(tick=1, channel=0, data=[18, 113]),\n",
      "   midi.NoteOnEvent(tick=0, channel=0, data=[31, 245]),\n",
      "   midi.NoteOnEvent(tick=2, channel=0, data=[103, 135]),\n",
      "   midi.NoteOnEvent(tick=4, channel=0, data=[116, 243]),\n",
      "   midi.NoteOnEvent(tick=1, channel=0, data=[53, 196]),\n",
      "   midi.NoteOnEvent(tick=0, channel=0, data=[104, 207]),\n",
      "   midi.NoteOnEvent(tick=1, channel=0, data=[73, 53]),\n",
      "   midi.NoteOnEvent(tick=4, channel=0, data=[78, 73]),\n",
      "   midi.NoteOnEvent(tick=0, channel=0, data=[115, 70]),\n",
      "   midi.NoteOffEvent(tick=2, channel=0, data=[45, 0]),\n",
      "   midi.NoteOnEvent(tick=0, channel=0, data=[106, 229]),\n",
      "   midi.NoteOnEvent(tick=1, channel=0, data=[0, 158]),\n",
      "   midi.NoteOffEvent(tick=2, channel=0, data=[18, 0]),\n",
      "   midi.NoteOnEvent(tick=1, channel=0, data=[94, 110]),\n",
      "   midi.NoteOnEvent(tick=1, channel=0, data=[16, 6]),\n",
      "   midi.NoteOnEvent(tick=2, channel=0, data=[84, 192]),\n",
      "   midi.NoteOnEvent(tick=1, channel=0, data=[3, 64]),\n",
      "   midi.NoteOnEvent(tick=1, channel=0, data=[71, 148]),\n",
      "   midi.NoteOnEvent(tick=1, channel=0, data=[0, 65]),\n",
      "   midi.NoteOnEvent(tick=0, channel=0, data=[108, 44]),\n",
      "   midi.NoteOnEvent(tick=0, channel=0, data=[79, 42]),\n",
      "   midi.NoteOnEvent(tick=1, channel=0, data=[56, 152]),\n",
      "   midi.NoteOnEvent(tick=2, channel=0, data=[124, 142]),\n",
      "   midi.NoteOnEvent(tick=4, channel=0, data=[112, 224]),\n",
      "   midi.NoteOnEvent(tick=2, channel=0, data=[40, 54]),\n",
      "   midi.NoteOnEvent(tick=1, channel=0, data=[2, 174]),\n",
      "   midi.NoteOffEvent(tick=2, channel=0, data=[110, 0]),\n",
      "   midi.NoteOnEvent(tick=3, channel=0, data=[30, 199]),\n",
      "   midi.NoteOnEvent(tick=1, channel=0, data=[26, 198]),\n",
      "   midi.NoteOnEvent(tick=2, channel=0, data=[30, 3]),\n",
      "   midi.NoteOnEvent(tick=0, channel=0, data=[120, 178]),\n",
      "   midi.NoteOnEvent(tick=2, channel=0, data=[114, 181]),\n",
      "   midi.NoteOnEvent(tick=5, channel=0, data=[45, 212]),\n",
      "   midi.NoteOffEvent(tick=1, channel=0, data=[49, 0]),\n",
      "   midi.NoteOnEvent(tick=0, channel=0, data=[44, 95]),\n",
      "   midi.NoteOnEvent(tick=2, channel=0, data=[69, 115]),\n",
      "   midi.NoteOnEvent(tick=0, channel=0, data=[84, 170]),\n",
      "   midi.NoteOnEvent(tick=1, channel=0, data=[124, 189]),\n",
      "   midi.NoteOffEvent(tick=2, channel=0, data=[122, 0]),\n",
      "   midi.NoteOnEvent(tick=1, channel=0, data=[46, 113]),\n",
      "   midi.NoteOnEvent(tick=9, channel=0, data=[33, 87]),\n",
      "   midi.NoteOffEvent(tick=2, channel=0, data=[124, 0]),\n",
      "   midi.NoteOffEvent(tick=23, channel=0, data=[84, 0]),\n",
      "   midi.NoteOffEvent(tick=3, channel=0, data=[69, 0]),\n",
      "   midi.NoteOffEvent(tick=2, channel=0, data=[25, 0]),\n",
      "   midi.NoteOffEvent(tick=6, channel=0, data=[10, 0]),\n",
      "   midi.NoteOffEvent(tick=1, channel=0, data=[30, 0]),\n",
      "   midi.NoteOffEvent(tick=1, channel=0, data=[60, 0]),\n",
      "   midi.NoteOffEvent(tick=1, channel=0, data=[76, 0]),\n",
      "   midi.NoteOffEvent(tick=4, channel=0, data=[65, 0]),\n",
      "   midi.NoteOffEvent(tick=4, channel=0, data=[50, 0]),\n",
      "   midi.NoteOffEvent(tick=7, channel=0, data=[89, 0]),\n",
      "   midi.NoteOffEvent(tick=6, channel=0, data=[0, 0]),\n",
      "   midi.NoteOffEvent(tick=11, channel=0, data=[40, 0]),\n",
      "   midi.NoteOffEvent(tick=0, channel=0, data=[78, 0]),\n",
      "   midi.NoteOffEvent(tick=3, channel=0, data=[88, 0]),\n",
      "   midi.NoteOffEvent(tick=3, channel=0, data=[9, 0]),\n",
      "   midi.NoteOffEvent(tick=2, channel=0, data=[96, 0]),\n",
      "   midi.NoteOffEvent(tick=3, channel=0, data=[85, 0]),\n",
      "   midi.NoteOffEvent(tick=14, channel=0, data=[64, 0]),\n",
      "   midi.NoteOffEvent(tick=3, channel=0, data=[51, 0]),\n",
      "   midi.NoteOffEvent(tick=18, channel=0, data=[120, 0]),\n",
      "   midi.NoteOffEvent(tick=3, channel=0, data=[74, 0]),\n",
      "   midi.NoteOffEvent(tick=6, channel=0, data=[27, 0]),\n",
      "   midi.NoteOffEvent(tick=3, channel=0, data=[48, 0]),\n",
      "   midi.NoteOffEvent(tick=6, channel=0, data=[53, 0]),\n",
      "   midi.NoteOffEvent(tick=13, channel=0, data=[111, 0]),\n",
      "   midi.NoteOffEvent(tick=5, channel=0, data=[5, 0]),\n",
      "   midi.NoteOffEvent(tick=6, channel=0, data=[95, 0]),\n",
      "   midi.NoteOffEvent(tick=3, channel=0, data=[121, 0]),\n",
      "   midi.NoteOffEvent(tick=1, channel=0, data=[31, 0]),\n",
      "   midi.NoteOffEvent(tick=3, channel=0, data=[29, 0]),\n",
      "   midi.NoteOffEvent(tick=5, channel=0, data=[47, 0]),\n",
      "   midi.NoteOffEvent(tick=29, channel=0, data=[19, 0]),\n",
      "   midi.NoteOffEvent(tick=3, channel=0, data=[81, 0]),\n",
      "   midi.NoteOffEvent(tick=12, channel=0, data=[94, 0]),\n",
      "   midi.NoteOffEvent(tick=4, channel=0, data=[114, 0]),\n",
      "   midi.NoteOffEvent(tick=26, channel=0, data=[26, 0]),\n",
      "   midi.NoteOffEvent(tick=7, channel=0, data=[113, 0]),\n",
      "   midi.NoteOffEvent(tick=8, channel=0, data=[75, 0]),\n",
      "   midi.NoteOffEvent(tick=12, channel=0, data=[119, 0]),\n",
      "   midi.NoteOffEvent(tick=1, channel=0, data=[38, 0]),\n",
      "   midi.NoteOffEvent(tick=11, channel=0, data=[3, 0]),\n",
      "   midi.NoteOffEvent(tick=3, channel=0, data=[1, 0]),\n",
      "   midi.NoteOffEvent(tick=2, channel=0, data=[13, 0]),\n",
      "   midi.NoteOffEvent(tick=10, channel=0, data=[101, 0]),\n",
      "   midi.NoteOffEvent(tick=7, channel=0, data=[12, 0]),\n",
      "   midi.NoteOffEvent(tick=6, channel=0, data=[33, 0]),\n",
      "   midi.NoteOffEvent(tick=29, channel=0, data=[116, 0]),\n",
      "   midi.NoteOffEvent(tick=16, channel=0, data=[16, 0]),\n",
      "   midi.NoteOffEvent(tick=1, channel=0, data=[77, 0]),\n",
      "   midi.NoteOffEvent(tick=0, channel=0, data=[106, 0]),\n",
      "   midi.NoteOffEvent(tick=14, channel=0, data=[56, 0]),\n",
      "   midi.NoteOffEvent(tick=7, channel=0, data=[4, 0]),\n",
      "   midi.NoteOffEvent(tick=15, channel=0, data=[66, 0]),\n",
      "   midi.NoteOffEvent(tick=20, channel=0, data=[14, 0]),\n",
      "   midi.NoteOffEvent(tick=1, channel=0, data=[43, 0]),\n",
      "   midi.NoteOffEvent(tick=28, channel=0, data=[52, 0]),\n",
      "   midi.NoteOffEvent(tick=2, channel=0, data=[24, 0]),\n",
      "   midi.NoteOffEvent(tick=10, channel=0, data=[55, 0]),\n",
      "   midi.NoteOffEvent(tick=4, channel=0, data=[63, 0]),\n",
      "   midi.NoteOffEvent(tick=11, channel=0, data=[61, 0]),\n",
      "   midi.NoteOffEvent(tick=9, channel=0, data=[57, 0]),\n",
      "   midi.NoteOffEvent(tick=8, channel=0, data=[2, 0]),\n",
      "   midi.NoteOffEvent(tick=4, channel=0, data=[91, 0]),\n",
      "   midi.NoteOffEvent(tick=18, channel=0, data=[100, 0]),\n",
      "   midi.NoteOffEvent(tick=12, channel=0, data=[36, 0]),\n",
      "   midi.NoteOffEvent(tick=10, channel=0, data=[107, 0]),\n",
      "   midi.NoteOffEvent(tick=18, channel=0, data=[79, 0]),\n",
      "   midi.NoteOffEvent(tick=2, channel=0, data=[71, 0]),\n",
      "   midi.NoteOffEvent(tick=22, channel=0, data=[39, 0]),\n",
      "   midi.NoteOffEvent(tick=15, channel=0, data=[35, 0]),\n",
      "   midi.NoteOffEvent(tick=3, channel=0, data=[22, 0]),\n",
      "   midi.NoteOffEvent(tick=7, channel=0, data=[118, 0]),\n",
      "   midi.NoteOffEvent(tick=16, channel=0, data=[80, 0]),\n",
      "   midi.NoteOffEvent(tick=13, channel=0, data=[32, 0]),\n",
      "   midi.NoteOffEvent(tick=8, channel=0, data=[105, 0]),\n",
      "   midi.NoteOffEvent(tick=20, channel=0, data=[72, 0]),\n",
      "   midi.NoteOffEvent(tick=1, channel=0, data=[86, 0]),\n",
      "   midi.NoteOffEvent(tick=4, channel=0, data=[104, 0]),\n",
      "   midi.NoteOffEvent(tick=8, channel=0, data=[21, 0]),\n",
      "   midi.NoteOffEvent(tick=5, channel=0, data=[11, 0]),\n",
      "   midi.NoteOffEvent(tick=21, channel=0, data=[45, 0]),\n",
      "   midi.NoteOffEvent(tick=6, channel=0, data=[108, 0]),\n",
      "   midi.NoteOffEvent(tick=11, channel=0, data=[44, 0]),\n",
      "   midi.NoteOffEvent(tick=8, channel=0, data=[109, 0]),\n",
      "   midi.NoteOffEvent(tick=4, channel=0, data=[37, 0]),\n",
      "   midi.NoteOffEvent(tick=26, channel=0, data=[46, 0]),\n",
      "   midi.NoteOffEvent(tick=3, channel=0, data=[99, 0]),\n",
      "   midi.NoteOffEvent(tick=9, channel=0, data=[17, 0]),\n",
      "   midi.NoteOffEvent(tick=9, channel=0, data=[73, 0]),\n",
      "   midi.NoteOffEvent(tick=26, channel=0, data=[6, 0]),\n",
      "   midi.NoteOffEvent(tick=0, channel=0, data=[126, 0]),\n",
      "   midi.NoteOffEvent(tick=23, channel=0, data=[115, 0]),\n",
      "   midi.NoteOffEvent(tick=5, channel=0, data=[112, 0]),\n",
      "   midi.NoteOffEvent(tick=2, channel=0, data=[103, 0]),\n",
      "   midi.NoteOffEvent(tick=3, channel=0, data=[117, 0]),\n",
      "   midi.NoteOffEvent(tick=0, channel=0, data=[127, 0]),\n",
      "   midi.NoteOffEvent(tick=82, channel=0, data=[41, 0]),\n",
      "   midi.EndOfTrackEvent(tick=0, data=[])]),\n",
      " midi.Track(\\\n",
      "  [midi.SetTempoEvent(tick=0, data=[4, 147, 224]),\n",
      "   midi.ProgramChangeEvent(tick=0, channel=0, data=[19]),\n",
      "   midi.NoteOnEvent(tick=0, channel=0, data=[115, 146]),\n",
      "   midi.NoteOnEvent(tick=0, channel=0, data=[115, 190]),\n",
      "   midi.NoteOnEvent(tick=0, channel=0, data=[1, 107]),\n",
      "   midi.NoteOnEvent(tick=1, channel=0, data=[9, 206]),\n",
      "   midi.NoteOnEvent(tick=1, channel=0, data=[38, 75]),\n",
      "   midi.NoteOnEvent(tick=0, channel=0, data=[87, 223]),\n",
      "   midi.NoteOnEvent(tick=1, channel=0, data=[116, 208]),\n",
      "   midi.NoteOnEvent(tick=4, channel=0, data=[10, 58]),\n",
      "   midi.NoteOnEvent(tick=6, channel=0, data=[96, 91]),\n",
      "   midi.NoteOnEvent(tick=1, channel=0, data=[12, 249]),\n",
      "   midi.NoteOnEvent(tick=3, channel=0, data=[108, 75]),\n",
      "   midi.NoteOnEvent(tick=0, channel=0, data=[22, 248]),\n",
      "   midi.NoteOnEvent(tick=1, channel=0, data=[125, 69]),\n",
      "   midi.NoteOnEvent(tick=3, channel=0, data=[98, 19]),\n",
      "   midi.NoteOnEvent(tick=1, channel=0, data=[68, 34]),\n",
      "   midi.NoteOnEvent(tick=2, channel=0, data=[92, 173]),\n",
      "   midi.NoteOnEvent(tick=4, channel=0, data=[10, 144]),\n",
      "   midi.NoteOnEvent(tick=1, channel=0, data=[75, 215]),\n",
      "   midi.NoteOnEvent(tick=0, channel=0, data=[8, 235]),\n",
      "   midi.NoteOnEvent(tick=3, channel=0, data=[24, 43]),\n",
      "   midi.NoteOnEvent(tick=2, channel=0, data=[84, 255]),\n",
      "   midi.NoteOffEvent(tick=1, channel=0, data=[75, 0]),\n",
      "   midi.NoteOnEvent(tick=0, channel=0, data=[15, 1]),\n",
      "   midi.NoteOnEvent(tick=1, channel=0, data=[126, 156]),\n",
      "   midi.NoteOnEvent(tick=1, channel=0, data=[1, 79]),\n",
      "   midi.NoteOnEvent(tick=5, channel=0, data=[66, 75]),\n",
      "   midi.NoteOnEvent(tick=3, channel=0, data=[33, 144]),\n",
      "   midi.NoteOnEvent(tick=1, channel=0, data=[96, 99]),\n",
      "   midi.NoteOnEvent(tick=2, channel=0, data=[28, 232]),\n",
      "   midi.NoteOnEvent(tick=8, channel=0, data=[103, 132]),\n",
      "   midi.NoteOnEvent(tick=3, channel=0, data=[16, 235]),\n",
      "   midi.NoteOnEvent(tick=2, channel=0, data=[10, 144]),\n",
      "   midi.NoteOnEvent(tick=5, channel=0, data=[56, 192]),\n",
      "   midi.NoteOnEvent(tick=2, channel=0, data=[98, 85]),\n",
      "   midi.NoteOnEvent(tick=1, channel=0, data=[72, 175]),\n",
      "   midi.NoteOnEvent(tick=0, channel=0, data=[58, 151]),\n",
      "   midi.NoteOnEvent(tick=1, channel=0, data=[63, 63]),\n",
      "   midi.NoteOnEvent(tick=0, channel=0, data=[80, 101]),\n",
      "   midi.NoteOnEvent(tick=2, channel=0, data=[25, 244]),\n",
      "   midi.NoteOnEvent(tick=0, channel=0, data=[21, 131]),\n",
      "   midi.NoteOnEvent(tick=1, channel=0, data=[72, 204]),\n",
      "   midi.NoteOffEvent(tick=1, channel=0, data=[125, 0]),\n",
      "   midi.NoteOnEvent(tick=0, channel=0, data=[2, 235]),\n",
      "   midi.NoteOnEvent(tick=8, channel=0, data=[9, 100]),\n",
      "   midi.NoteOnEvent(tick=4, channel=0, data=[97, 134]),\n",
      "   midi.NoteOnEvent(tick=1, channel=0, data=[38, 203]),\n",
      "   midi.NoteOnEvent(tick=0, channel=0, data=[62, 70]),\n",
      "   midi.NoteOnEvent(tick=4, channel=0, data=[102, 99]),\n",
      "   midi.NoteOnEvent(tick=2, channel=0, data=[57, 131]),\n",
      "   midi.NoteOnEvent(tick=0, channel=0, data=[102, 141]),\n",
      "   midi.NoteOnEvent(tick=1, channel=0, data=[83, 51]),\n",
      "   midi.NoteOnEvent(tick=3, channel=0, data=[120, 90]),\n",
      "   midi.NoteOnEvent(tick=1, channel=0, data=[122, 209]),\n",
      "   midi.NoteOnEvent(tick=3, channel=0, data=[68, 201]),\n",
      "   midi.NoteOnEvent(tick=3, channel=0, data=[51, 47]),\n",
      "   midi.NoteOnEvent(tick=0, channel=0, data=[117, 239]),\n",
      "   midi.NoteOnEvent(tick=1, channel=0, data=[27, 160]),\n",
      "   midi.NoteOnEvent(tick=1, channel=0, data=[36, 214]),\n",
      "   midi.NoteOnEvent(tick=1, channel=0, data=[86, 71]),\n",
      "   midi.NoteOnEvent(tick=3, channel=0, data=[24, 175]),\n",
      "   midi.NoteOnEvent(tick=0, channel=0, data=[82, 189]),\n",
      "   midi.NoteOnEvent(tick=0, channel=0, data=[72, 224]),\n",
      "   midi.NoteOnEvent(tick=8, channel=0, data=[29, 205]),\n",
      "   midi.NoteOnEvent(tick=0, channel=0, data=[86, 228]),\n",
      "   midi.NoteOnEvent(tick=4, channel=0, data=[118, 106]),\n",
      "   midi.NoteOnEvent(tick=0, channel=0, data=[91, 46]),\n",
      "   midi.NoteOnEvent(tick=0, channel=0, data=[84, 8]),\n",
      "   midi.NoteOnEvent(tick=1, channel=0, data=[2, 83]),\n",
      "   midi.NoteOnEvent(tick=0, channel=0, data=[103, 118]),\n",
      "   midi.NoteOnEvent(tick=1, channel=0, data=[80, 136]),\n",
      "   midi.NoteOnEvent(tick=0, channel=0, data=[59, 165]),\n",
      "   midi.NoteOnEvent(tick=12, channel=0, data=[70, 223]),\n",
      "   midi.NoteOnEvent(tick=1, channel=0, data=[65, 149]),\n",
      "   midi.NoteOnEvent(tick=0, channel=0, data=[96, 157]),\n",
      "   midi.NoteOnEvent(tick=1, channel=0, data=[79, 228]),\n",
      "   midi.NoteOnEvent(tick=0, channel=0, data=[4, 211]),\n",
      "   midi.NoteOffEvent(tick=1, channel=0, data=[4, 0]),\n",
      "   midi.NoteOnEvent(tick=1, channel=0, data=[11, 248]),\n",
      "   midi.NoteOnEvent(tick=1, channel=0, data=[85, 42]),\n",
      "   midi.NoteOnEvent(tick=1, channel=0, data=[1, 182]),\n",
      "   midi.NoteOnEvent(tick=2, channel=0, data=[48, 102]),\n",
      "   midi.NoteOffEvent(tick=5, channel=0, data=[22, 0]),\n",
      "   midi.NoteOnEvent(tick=1, channel=0, data=[8, 8]),\n",
      "   midi.NoteOnEvent(tick=3, channel=0, data=[12, 212]),\n",
      "   midi.NoteOnEvent(tick=2, channel=0, data=[48, 233]),\n",
      "   midi.NoteOnEvent(tick=1, channel=0, data=[119, 236]),\n",
      "   midi.NoteOnEvent(tick=1, channel=0, data=[120, 108]),\n",
      "   midi.NoteOnEvent(tick=1, channel=0, data=[55, 56]),\n",
      "   midi.NoteOnEvent(tick=1, channel=0, data=[119, 57]),\n",
      "   midi.NoteOnEvent(tick=1, channel=0, data=[43, 7]),\n",
      "   midi.NoteOnEvent(tick=1, channel=0, data=[53, 113]),\n",
      "   midi.NoteOnEvent(tick=2, channel=0, data=[48, 50]),\n",
      "   midi.NoteOnEvent(tick=2, channel=0, data=[53, 58]),\n",
      "   midi.NoteOnEvent(tick=2, channel=0, data=[120, 169]),\n",
      "   midi.NoteOnEvent(tick=3, channel=0, data=[56, 158]),\n",
      "   midi.NoteOffEvent(tick=1, channel=0, data=[63, 0]),\n",
      "   midi.NoteOnEvent(tick=0, channel=0, data=[30, 133]),\n",
      "   midi.NoteOnEvent(tick=0, channel=0, data=[125, 91]),\n",
      "   midi.NoteOnEvent(tick=1, channel=0, data=[101, 31]),\n",
      "   midi.NoteOnEvent(tick=1, channel=0, data=[61, 60]),\n",
      "   midi.NoteOnEvent(tick=5, channel=0, data=[112, 131]),\n",
      "   midi.NoteOnEvent(tick=0, channel=0, data=[123, 138]),\n",
      "   midi.NoteOnEvent(tick=7, channel=0, data=[81, 93]),\n",
      "   midi.NoteOffEvent(tick=5, channel=0, data=[98, 0]),\n",
      "   midi.NoteOffEvent(tick=3, channel=0, data=[85, 0]),\n",
      "   midi.NoteOnEvent(tick=0, channel=0, data=[69, 74]),\n",
      "   midi.NoteOnEvent(tick=3, channel=0, data=[95, 85]),\n",
      "   midi.NoteOnEvent(tick=1, channel=0, data=[76, 8]),\n",
      "   midi.NoteOnEvent(tick=2, channel=0, data=[118, 204]),\n",
      "   midi.NoteOnEvent(tick=2, channel=0, data=[22, 113]),\n",
      "   midi.NoteOnEvent(tick=1, channel=0, data=[103, 244]),\n",
      "   midi.NoteOnEvent(tick=3, channel=0, data=[34, 48]),\n",
      "   midi.NoteOnEvent(tick=1, channel=0, data=[19, 221]),\n",
      "   midi.NoteOnEvent(tick=0, channel=0, data=[33, 244]),\n",
      "   midi.NoteOnEvent(tick=3, channel=0, data=[2, 111]),\n",
      "   midi.NoteOnEvent(tick=0, channel=0, data=[87, 139]),\n",
      "   midi.NoteOffEvent(tick=2, channel=0, data=[122, 0]),\n",
      "   midi.NoteOnEvent(tick=0, channel=0, data=[101, 239]),\n",
      "   midi.NoteOnEvent(tick=0, channel=0, data=[85, 11]),\n",
      "   midi.NoteOnEvent(tick=6, channel=0, data=[56, 177]),\n",
      "   midi.NoteOnEvent(tick=1, channel=0, data=[9, 63]),\n",
      "   midi.NoteOnEvent(tick=2, channel=0, data=[124, 197]),\n",
      "   midi.NoteOnEvent(tick=1, channel=0, data=[104, 250]),\n",
      "   midi.NoteOnEvent(tick=2, channel=0, data=[37, 159]),\n",
      "   midi.NoteOffEvent(tick=4, channel=0, data=[115, 0]),\n",
      "   midi.NoteOnEvent(tick=0, channel=0, data=[76, 109]),\n",
      "   midi.NoteOnEvent(tick=0, channel=0, data=[6, 235]),\n",
      "   midi.NoteOnEvent(tick=4, channel=0, data=[113, 190]),\n",
      "   midi.NoteOnEvent(tick=8, channel=0, data=[48, 187]),\n",
      "   midi.NoteOnEvent(tick=1, channel=0, data=[25, 192]),\n",
      "   midi.NoteOnEvent(tick=6, channel=0, data=[7, 237]),\n",
      "   midi.NoteOnEvent(tick=0, channel=0, data=[22, 158]),\n",
      "   midi.NoteOnEvent(tick=5, channel=0, data=[30, 143]),\n",
      "   midi.NoteOffEvent(tick=1, channel=0, data=[91, 0]),\n",
      "   midi.NoteOnEvent(tick=2, channel=0, data=[99, 232]),\n",
      "   midi.NoteOnEvent(tick=3, channel=0, data=[91, 139]),\n",
      "   midi.NoteOffEvent(tick=7, channel=0, data=[11, 0]),\n",
      "   midi.NoteOnEvent(tick=0, channel=0, data=[122, 115]),\n",
      "   midi.NoteOnEvent(tick=2, channel=0, data=[87, 42]),\n",
      "   midi.NoteOffEvent(tick=4, channel=0, data=[56, 0]),\n",
      "   midi.NoteOnEvent(tick=1, channel=0, data=[13, 2]),\n",
      "   midi.NoteOnEvent(tick=3, channel=0, data=[57, 135]),\n",
      "   midi.NoteOffEvent(tick=6, channel=0, data=[80, 0]),\n",
      "   midi.NoteOnEvent(tick=1, channel=0, data=[44, 173]),\n",
      "   midi.NoteOnEvent(tick=1, channel=0, data=[71, 152]),\n",
      "   midi.NoteOnEvent(tick=2, channel=0, data=[119, 3]),\n",
      "   midi.NoteOffEvent(tick=1, channel=0, data=[16, 0]),\n",
      "   midi.NoteOffEvent(tick=4, channel=0, data=[61, 0]),\n",
      "   midi.NoteOnEvent(tick=0, channel=0, data=[34, 251]),\n",
      "   midi.NoteOnEvent(tick=0, channel=0, data=[65, 161]),\n",
      "   midi.NoteOffEvent(tick=1, channel=0, data=[59, 0]),\n",
      "   midi.NoteOffEvent(tick=0, channel=0, data=[101, 0]),\n",
      "   midi.NoteOnEvent(tick=0, channel=0, data=[69, 169]),\n",
      "   midi.NoteOnEvent(tick=5, channel=0, data=[21, 203]),\n",
      "   midi.NoteOffEvent(tick=3, channel=0, data=[116, 0]),\n",
      "   midi.NoteOnEvent(tick=4, channel=0, data=[99, 163]),\n",
      "   midi.NoteOffEvent(tick=5, channel=0, data=[82, 0]),\n",
      "   midi.NoteOnEvent(tick=1, channel=0, data=[88, 122]),\n",
      "   midi.NoteOnEvent(tick=1, channel=0, data=[1, 145]),\n",
      "   midi.NoteOnEvent(tick=1, channel=0, data=[37, 133]),\n",
      "   midi.NoteOnEvent(tick=1, channel=0, data=[96, 30]),\n",
      "   midi.NoteOffEvent(tick=4, channel=0, data=[113, 0]),\n",
      "   midi.NoteOffEvent(tick=3, channel=0, data=[24, 0]),\n",
      "   midi.NoteOnEvent(tick=3, channel=0, data=[80, 50]),\n",
      "   midi.NoteOnEvent(tick=4, channel=0, data=[78, 12]),\n",
      "   midi.NoteOnEvent(tick=2, channel=0, data=[5, 208]),\n",
      "   midi.NoteOffEvent(tick=1, channel=0, data=[22, 0]),\n",
      "   midi.NoteOnEvent(tick=0, channel=0, data=[79, 161]),\n",
      "   midi.NoteOnEvent(tick=2, channel=0, data=[55, 149]),\n",
      "   midi.NoteOffEvent(tick=2, channel=0, data=[28, 0]),\n",
      "   midi.NoteOnEvent(tick=0, channel=0, data=[99, 144]),\n",
      "   midi.NoteOnEvent(tick=0, channel=0, data=[43, 69]),\n",
      "   midi.NoteOnEvent(tick=3, channel=0, data=[107, 247]),\n",
      "   midi.NoteOffEvent(tick=2, channel=0, data=[112, 0]),\n",
      "   midi.NoteOnEvent(tick=0, channel=0, data=[84, 209]),\n",
      "   midi.NoteOffEvent(tick=1, channel=0, data=[51, 0]),\n",
      "   midi.NoteOnEvent(tick=1, channel=0, data=[107, 93]),\n",
      "   midi.NoteOnEvent(tick=0, channel=0, data=[4, 238]),\n",
      "   midi.NoteOnEvent(tick=2, channel=0, data=[71, 251]),\n",
      "   midi.NoteOnEvent(tick=0, channel=0, data=[0, 4]),\n",
      "   midi.NoteOnEvent(tick=3, channel=0, data=[17, 67]),\n",
      "   midi.NoteOnEvent(tick=6, channel=0, data=[81, 111]),\n",
      "   midi.NoteOnEvent(tick=2, channel=0, data=[84, 72]),\n",
      "   midi.NoteOnEvent(tick=1, channel=0, data=[36, 215]),\n",
      "   midi.NoteOnEvent(tick=1, channel=0, data=[34, 27]),\n",
      "   midi.NoteOnEvent(tick=1, channel=0, data=[118, 122]),\n",
      "   midi.NoteOnEvent(tick=1, channel=0, data=[72, 86]),\n",
      "   midi.NoteOnEvent(tick=1, channel=0, data=[14, 1]),\n",
      "   midi.NoteOffEvent(tick=1, channel=0, data=[43, 0]),\n",
      "   midi.NoteOnEvent(tick=0, channel=0, data=[12, 37]),\n",
      "   midi.NoteOnEvent(tick=1, channel=0, data=[28, 222]),\n",
      "   midi.NoteOnEvent(tick=0, channel=0, data=[11, 169]),\n",
      "   midi.NoteOnEvent(tick=3, channel=0, data=[68, 13]),\n",
      "   midi.NoteOnEvent(tick=0, channel=0, data=[19, 193]),\n",
      "   midi.NoteOnEvent(tick=1, channel=0, data=[40, 27]),\n",
      "   midi.NoteOnEvent(tick=2, channel=0, data=[38, 50]),\n",
      "   midi.NoteOnEvent(tick=2, channel=0, data=[103, 148]),\n",
      "   midi.NoteOnEvent(tick=0, channel=0, data=[95, 217]),\n",
      "   midi.NoteOnEvent(tick=1, channel=0, data=[37, 170]),\n",
      "   midi.NoteOffEvent(tick=5, channel=0, data=[66, 0]),\n",
      "   midi.NoteOnEvent(tick=0, channel=0, data=[99, 25]),\n",
      "   midi.NoteOnEvent(tick=4, channel=0, data=[13, 154]),\n",
      "   midi.NoteOnEvent(tick=0, channel=0, data=[38, 169]),\n",
      "   midi.NoteOnEvent(tick=0, channel=0, data=[40, 148]),\n",
      "   midi.NoteOnEvent(tick=0, channel=0, data=[52, 121]),\n",
      "   midi.NoteOnEvent(tick=1, channel=0, data=[1, 31]),\n",
      "   midi.NoteOnEvent(tick=6, channel=0, data=[111, 63]),\n",
      "   midi.NoteOffEvent(tick=8, channel=0, data=[68, 0]),\n",
      "   midi.NoteOnEvent(tick=1, channel=0, data=[50, 132]),\n",
      "   midi.NoteOnEvent(tick=0, channel=0, data=[114, 98]),\n",
      "   midi.NoteOnEvent(tick=3, channel=0, data=[100, 242]),\n",
      "   midi.NoteOnEvent(tick=0, channel=0, data=[52, 228]),\n",
      "   midi.NoteOnEvent(tick=0, channel=0, data=[90, 139]),\n",
      "   midi.NoteOnEvent(tick=5, channel=0, data=[26, 97]),\n",
      "   midi.NoteOnEvent(tick=0, channel=0, data=[31, 205]),\n",
      "   midi.NoteOnEvent(tick=1, channel=0, data=[91, 199]),\n",
      "   midi.NoteOnEvent(tick=1, channel=0, data=[13, 127]),\n",
      "   midi.NoteOffEvent(tick=2, channel=0, data=[111, 0]),\n",
      "   midi.NoteOnEvent(tick=0, channel=0, data=[11, 237]),\n",
      "   midi.NoteOnEvent(tick=0, channel=0, data=[85, 68]),\n",
      "   midi.NoteOnEvent(tick=1, channel=0, data=[71, 102]),\n",
      "   midi.NoteOnEvent(tick=0, channel=0, data=[21, 224]),\n",
      "   midi.NoteOnEvent(tick=2, channel=0, data=[61, 83]),\n",
      "   midi.NoteOnEvent(tick=3, channel=0, data=[3, 154]),\n",
      "   midi.NoteOffEvent(tick=6, channel=0, data=[8, 0]),\n",
      "   midi.NoteOffEvent(tick=0, channel=0, data=[76, 0]),\n",
      "   midi.NoteOnEvent(tick=1, channel=0, data=[61, 145]),\n",
      "   midi.NoteOnEvent(tick=1, channel=0, data=[118, 188]),\n",
      "   midi.NoteOnEvent(tick=0, channel=0, data=[73, 96]),\n",
      "   midi.NoteOffEvent(tick=1, channel=0, data=[5, 0]),\n",
      "   midi.NoteOnEvent(tick=0, channel=0, data=[43, 80]),\n",
      "   midi.NoteOnEvent(tick=2, channel=0, data=[121, 96]),\n",
      "   midi.NoteOnEvent(tick=0, channel=0, data=[36, 244]),\n",
      "   midi.NoteOnEvent(tick=1, channel=0, data=[37, 179]),\n",
      "   midi.NoteOnEvent(tick=4, channel=0, data=[122, 160]),\n",
      "   midi.NoteOffEvent(tick=1, channel=0, data=[122, 0]),\n",
      "   midi.NoteOnEvent(tick=0, channel=0, data=[98, 145]),\n",
      "   midi.NoteOnEvent(tick=0, channel=0, data=[39, 126]),\n",
      "   midi.NoteOnEvent(tick=0, channel=0, data=[31, 85]),\n",
      "   midi.NoteOnEvent(tick=1, channel=0, data=[5, 218]),\n",
      "   midi.NoteOnEvent(tick=1, channel=0, data=[82, 4]),\n",
      "   midi.NoteOnEvent(tick=0, channel=0, data=[12, 27]),\n",
      "   midi.NoteOnEvent(tick=0, channel=0, data=[105, 228]),\n",
      "   midi.NoteOnEvent(tick=1, channel=0, data=[53, 71]),\n",
      "   midi.NoteOnEvent(tick=0, channel=0, data=[111, 59]),\n",
      "   midi.NoteOnEvent(tick=1, channel=0, data=[59, 216]),\n",
      "   midi.NoteOnEvent(tick=0, channel=0, data=[37, 68]),\n",
      "   midi.NoteOnEvent(tick=1, channel=0, data=[111, 200]),\n",
      "   midi.NoteOffEvent(tick=3, channel=0, data=[1, 0]),\n",
      "   midi.NoteOnEvent(tick=1, channel=0, data=[73, 12]),\n",
      "   midi.NoteOnEvent(tick=2, channel=0, data=[81, 132]),\n",
      "   midi.NoteOnEvent(tick=1, channel=0, data=[16, 5]),\n",
      "   midi.NoteOnEvent(tick=1, channel=0, data=[118, 118]),\n",
      "   midi.NoteOnEvent(tick=1, channel=0, data=[122, 24]),\n",
      "   midi.NoteOnEvent(tick=0, channel=0, data=[86, 55]),\n",
      "   midi.NoteOnEvent(tick=2, channel=0, data=[63, 25]),\n",
      "   midi.NoteOnEvent(tick=0, channel=0, data=[123, 246]),\n",
      "   midi.NoteOffEvent(tick=1, channel=0, data=[104, 0]),\n",
      "   midi.NoteOnEvent(tick=0, channel=0, data=[105, 147]),\n",
      "   midi.NoteOnEvent(tick=3, channel=0, data=[105, 129]),\n",
      "   midi.NoteOnEvent(tick=1, channel=0, data=[66, 214]),\n",
      "   midi.NoteOnEvent(tick=1, channel=0, data=[3, 234]),\n",
      "   midi.NoteOnEvent(tick=2, channel=0, data=[49, 13]),\n",
      "   midi.NoteOnEvent(tick=2, channel=0, data=[103, 9]),\n",
      "   midi.NoteOnEvent(tick=2, channel=0, data=[43, 19]),\n",
      "   midi.NoteOnEvent(tick=1, channel=0, data=[75, 179]),\n",
      "   midi.NoteOnEvent(tick=1, channel=0, data=[27, 196]),\n",
      "   midi.NoteOnEvent(tick=1, channel=0, data=[124, 154]),\n",
      "   midi.NoteOnEvent(tick=1, channel=0, data=[103, 112]),\n",
      "   midi.NoteOffEvent(tick=6, channel=0, data=[13, 0]),\n",
      "   midi.NoteOffEvent(tick=0, channel=0, data=[108, 0]),\n",
      "   midi.NoteOnEvent(tick=1, channel=0, data=[53, 35]),\n",
      "   midi.NoteOnEvent(tick=6, channel=0, data=[20, 76]),\n",
      "   midi.NoteOnEvent(tick=2, channel=0, data=[68, 94]),\n",
      "   midi.NoteOnEvent(tick=3, channel=0, data=[40, 215]),\n",
      "   midi.NoteOnEvent(tick=2, channel=0, data=[100, 104]),\n",
      "   midi.NoteOnEvent(tick=4, channel=0, data=[6, 173]),\n",
      "   midi.NoteOffEvent(tick=1, channel=0, data=[83, 0]),\n",
      "   midi.NoteOffEvent(tick=5, channel=0, data=[73, 0]),\n",
      "   midi.NoteOnEvent(tick=0, channel=0, data=[86, 110]),\n",
      "   midi.NoteOnEvent(tick=1, channel=0, data=[33, 134]),\n",
      "   midi.NoteOnEvent(tick=4, channel=0, data=[81, 195]),\n",
      "   midi.NoteOnEvent(tick=1, channel=0, data=[8, 40]),\n",
      "   midi.NoteOnEvent(tick=1, channel=0, data=[49, 2]),\n",
      "   midi.NoteOnEvent(tick=0, channel=0, data=[100, 58]),\n",
      "   midi.NoteOnEvent(tick=1, channel=0, data=[35, 71]),\n",
      "   midi.NoteOnEvent(tick=1, channel=0, data=[22, 140]),\n",
      "   midi.NoteOnEvent(tick=1, channel=0, data=[27, 67]),\n",
      "   midi.NoteOnEvent(tick=2, channel=0, data=[82, 34]),\n",
      "   midi.NoteOnEvent(tick=0, channel=0, data=[121, 130]),\n",
      "   midi.NoteOnEvent(tick=1, channel=0, data=[3, 219]),\n",
      "   midi.NoteOffEvent(tick=1, channel=0, data=[19, 0]),\n",
      "   midi.NoteOnEvent(tick=1, channel=0, data=[17, 4]),\n",
      "   midi.NoteOnEvent(tick=1, channel=0, data=[30, 211]),\n",
      "   midi.NoteOnEvent(tick=3, channel=0, data=[124, 86]),\n",
      "   midi.NoteOnEvent(tick=2, channel=0, data=[76, 51]),\n",
      "   midi.NoteOffEvent(tick=1, channel=0, data=[55, 0]),\n",
      "   midi.NoteOnEvent(tick=0, channel=0, data=[26, 206]),\n",
      "   midi.NoteOnEvent(tick=1, channel=0, data=[111, 96]),\n",
      "   midi.NoteOffEvent(tick=1, channel=0, data=[123, 0]),\n",
      "   midi.NoteOnEvent(tick=0, channel=0, data=[40, 80]),\n",
      "   midi.NoteOnEvent(tick=1, channel=0, data=[75, 22]),\n",
      "   midi.NoteOnEvent(tick=2, channel=0, data=[16, 94]),\n",
      "   midi.NoteOnEvent(tick=2, channel=0, data=[51, 107]),\n",
      "   midi.NoteOnEvent(tick=1, channel=0, data=[115, 242]),\n",
      "   midi.NoteOnEvent(tick=2, channel=0, data=[87, 235]),\n",
      "   midi.NoteOnEvent(tick=3, channel=0, data=[67, 236]),\n",
      "   midi.NoteOnEvent(tick=1, channel=0, data=[5, 235]),\n",
      "   midi.NoteOnEvent(tick=5, channel=0, data=[126, 202]),\n",
      "   midi.NoteOnEvent(tick=4, channel=0, data=[39, 143]),\n",
      "   midi.NoteOnEvent(tick=0, channel=0, data=[102, 237]),\n",
      "   midi.NoteOnEvent(tick=4, channel=0, data=[47, 74]),\n",
      "   midi.NoteOnEvent(tick=1, channel=0, data=[117, 127]),\n",
      "   midi.NoteOnEvent(tick=4, channel=0, data=[47, 60]),\n",
      "   midi.NoteOffEvent(tick=2, channel=0, data=[35, 0]),\n",
      "   midi.NoteOnEvent(tick=3, channel=0, data=[26, 253]),\n",
      "   midi.NoteOnEvent(tick=1, channel=0, data=[90, 90]),\n",
      "   midi.NoteOnEvent(tick=1, channel=0, data=[7, 135]),\n",
      "   midi.NoteOnEvent(tick=1, channel=0, data=[20, 156]),\n",
      "   midi.NoteOnEvent(tick=0, channel=0, data=[51, 129]),\n",
      "   midi.NoteOffEvent(tick=1, channel=0, data=[105, 0]),\n",
      "   midi.NoteOnEvent(tick=1, channel=0, data=[97, 97]),\n",
      "   midi.NoteOnEvent(tick=2, channel=0, data=[79, 205]),\n",
      "   midi.NoteOnEvent(tick=0, channel=0, data=[18, 206]),\n",
      "   midi.NoteOffEvent(tick=1, channel=0, data=[120, 0]),\n",
      "   midi.NoteOnEvent(tick=0, channel=0, data=[2, 242]),\n",
      "   midi.NoteOffEvent(tick=2, channel=0, data=[63, 0]),\n",
      "   midi.NoteOnEvent(tick=0, channel=0, data=[48, 170]),\n",
      "   midi.NoteOnEvent(tick=0, channel=0, data=[1, 33]),\n",
      "   midi.NoteOnEvent(tick=2, channel=0, data=[93, 90]),\n",
      "   midi.NoteOnEvent(tick=2, channel=0, data=[57, 14]),\n",
      "   midi.NoteOffEvent(tick=1, channel=0, data=[58, 0]),\n",
      "   midi.NoteOnEvent(tick=1, channel=0, data=[112, 75]),\n",
      "   midi.NoteOnEvent(tick=0, channel=0, data=[106, 246]),\n",
      "   midi.NoteOnEvent(tick=0, channel=0, data=[89, 113]),\n",
      "   midi.NoteOffEvent(tick=1, channel=0, data=[47, 0]),\n",
      "   midi.NoteOnEvent(tick=1, channel=0, data=[15, 145]),\n",
      "   midi.NoteOnEvent(tick=1, channel=0, data=[89, 157]),\n",
      "   midi.NoteOnEvent(tick=0, channel=0, data=[70, 185]),\n",
      "   midi.NoteOnEvent(tick=0, channel=0, data=[0, 216]),\n",
      "   midi.NoteOnEvent(tick=2, channel=0, data=[94, 37]),\n",
      "   midi.NoteOnEvent(tick=0, channel=0, data=[77, 117]),\n",
      "   midi.NoteOnEvent(tick=0, channel=0, data=[62, 98]),\n",
      "   midi.NoteOffEvent(tick=1, channel=0, data=[37, 0]),\n",
      "   midi.NoteOnEvent(tick=0, channel=0, data=[29, 90]),\n",
      "   midi.NoteOnEvent(tick=2, channel=0, data=[92, 17]),\n",
      "   midi.NoteOffEvent(tick=2, channel=0, data=[87, 0]),\n",
      "   midi.NoteOnEvent(tick=0, channel=0, data=[90, 214]),\n",
      "   midi.NoteOnEvent(tick=1, channel=0, data=[95, 142]),\n",
      "   midi.NoteOffEvent(tick=1, channel=0, data=[48, 0]),\n",
      "   midi.NoteOnEvent(tick=0, channel=0, data=[93, 231]),\n",
      "   midi.NoteOnEvent(tick=2, channel=0, data=[49, 98]),\n",
      "   midi.NoteOnEvent(tick=3, channel=0, data=[69, 192]),\n",
      "   midi.NoteOnEvent(tick=3, channel=0, data=[97, 162]),\n",
      "   midi.NoteOnEvent(tick=1, channel=0, data=[67, 187]),\n",
      "   midi.NoteOnEvent(tick=0, channel=0, data=[3, 239]),\n",
      "   midi.NoteOnEvent(tick=5, channel=0, data=[88, 115]),\n",
      "   midi.NoteOnEvent(tick=1, channel=0, data=[118, 80]),\n",
      "   midi.NoteOnEvent(tick=0, channel=0, data=[67, 138]),\n",
      "   midi.NoteOnEvent(tick=1, channel=0, data=[121, 40]),\n",
      "   midi.NoteOnEvent(tick=3, channel=0, data=[111, 109]),\n",
      "   midi.NoteOnEvent(tick=1, channel=0, data=[113, 108]),\n",
      "   midi.NoteOffEvent(tick=1, channel=0, data=[6, 0]),\n",
      "   midi.NoteOnEvent(tick=0, channel=0, data=[108, 209]),\n",
      "   midi.NoteOnEvent(tick=5, channel=0, data=[124, 41]),\n",
      "   midi.NoteOnEvent(tick=2, channel=0, data=[24, 169]),\n",
      "   midi.NoteOnEvent(tick=1, channel=0, data=[66, 208]),\n",
      "   midi.NoteOffEvent(tick=2, channel=0, data=[106, 0]),\n",
      "   midi.NoteOnEvent(tick=2, channel=0, data=[78, 125]),\n",
      "   midi.NoteOffEvent(tick=1, channel=0, data=[0, 0]),\n",
      "   midi.NoteOnEvent(tick=2, channel=0, data=[32, 144]),\n",
      "   midi.NoteOnEvent(tick=1, channel=0, data=[71, 118]),\n",
      "   midi.NoteOnEvent(tick=3, channel=0, data=[4, 220]),\n",
      "   midi.NoteOnEvent(tick=1, channel=0, data=[4, 245]),\n",
      "   midi.NoteOnEvent(tick=1, channel=0, data=[41, 105]),\n",
      "   midi.NoteOnEvent(tick=2, channel=0, data=[46, 9]),\n",
      "   midi.NoteOnEvent(tick=1, channel=0, data=[108, 228]),\n",
      "   midi.NoteOnEvent(tick=0, channel=0, data=[87, 233]),\n",
      "   midi.NoteOnEvent(tick=0, channel=0, data=[41, 46]),\n",
      "   midi.NoteOnEvent(tick=1, channel=0, data=[48, 71]),\n",
      "   midi.NoteOnEvent(tick=1, channel=0, data=[63, 41]),\n",
      "   midi.NoteOnEvent(tick=0, channel=0, data=[72, 95]),\n",
      "   midi.NoteOnEvent(tick=1, channel=0, data=[116, 244]),\n",
      "   midi.NoteOnEvent(tick=3, channel=0, data=[111, 254]),\n",
      "   midi.NoteOnEvent(tick=1, channel=0, data=[51, 146]),\n",
      "   midi.NoteOffEvent(tick=2, channel=0, data=[1, 0]),\n",
      "   midi.NoteOnEvent(tick=0, channel=0, data=[25, 176]),\n",
      "   midi.NoteOnEvent(tick=5, channel=0, data=[121, 87]),\n",
      "   midi.NoteOffEvent(tick=2, channel=0, data=[32, 0]),\n",
      "   midi.NoteOnEvent(tick=0, channel=0, data=[68, 116]),\n",
      "   midi.NoteOnEvent(tick=5, channel=0, data=[87, 57]),\n",
      "   midi.NoteOnEvent(tick=1, channel=0, data=[117, 112]),\n",
      "   midi.NoteOnEvent(tick=0, channel=0, data=[23, 108]),\n",
      "   midi.NoteOnEvent(tick=6, channel=0, data=[80, 41]),\n",
      "   midi.NoteOnEvent(tick=0, channel=0, data=[48, 61]),\n",
      "   midi.NoteOnEvent(tick=1, channel=0, data=[31, 154]),\n",
      "   midi.NoteOnEvent(tick=1, channel=0, data=[31, 14]),\n",
      "   midi.NoteOnEvent(tick=1, channel=0, data=[92, 73]),\n",
      "   midi.NoteOnEvent(tick=1, channel=0, data=[14, 76]),\n",
      "   midi.NoteOffEvent(tick=1, channel=0, data=[76, 0]),\n",
      "   midi.NoteOnEvent(tick=0, channel=0, data=[97, 119]),\n",
      "   midi.NoteOnEvent(tick=1, channel=0, data=[80, 197]),\n",
      "   midi.NoteOnEvent(tick=0, channel=0, data=[17, 157]),\n",
      "   midi.NoteOnEvent(tick=1, channel=0, data=[80, 81]),\n",
      "   midi.NoteOnEvent(tick=1, channel=0, data=[39, 249]),\n",
      "   midi.NoteOnEvent(tick=1, channel=0, data=[81, 51]),\n",
      "   midi.NoteOnEvent(tick=2, channel=0, data=[111, 25]),\n",
      "   midi.NoteOnEvent(tick=2, channel=0, data=[30, 69]),\n",
      "   midi.NoteOnEvent(tick=6, channel=0, data=[122, 172]),\n",
      "   midi.NoteOnEvent(tick=3, channel=0, data=[55, 105]),\n",
      "   midi.NoteOnEvent(tick=0, channel=0, data=[58, 166]),\n",
      "   midi.NoteOnEvent(tick=2, channel=0, data=[114, 50]),\n",
      "   midi.NoteOnEvent(tick=1, channel=0, data=[11, 64]),\n",
      "   midi.NoteOnEvent(tick=0, channel=0, data=[39, 236]),\n",
      "   midi.NoteOnEvent(tick=1, channel=0, data=[115, 233]),\n",
      "   midi.NoteOnEvent(tick=3, channel=0, data=[42, 98]),\n",
      "   midi.NoteOnEvent(tick=1, channel=0, data=[94, 45]),\n",
      "   midi.NoteOnEvent(tick=2, channel=0, data=[109, 237]),\n",
      "   midi.NoteOnEvent(tick=3, channel=0, data=[114, 192]),\n",
      "   midi.NoteOffEvent(tick=3, channel=0, data=[58, 0]),\n",
      "   midi.NoteOnEvent(tick=2, channel=0, data=[65, 87]),\n",
      "   midi.NoteOffEvent(tick=1, channel=0, data=[114, 0]),\n",
      "   midi.NoteOnEvent(tick=0, channel=0, data=[72, 208]),\n",
      "   midi.NoteOffEvent(tick=1, channel=0, data=[24, 0]),\n",
      "   midi.NoteOnEvent(tick=1, channel=0, data=[125, 218]),\n",
      "   midi.NoteOnEvent(tick=0, channel=0, data=[126, 1]),\n",
      "   midi.NoteOnEvent(tick=1, channel=0, data=[122, 243]),\n",
      "   midi.NoteOnEvent(tick=0, channel=0, data=[2, 61]),\n",
      "   midi.NoteOffEvent(tick=1, channel=0, data=[2, 0]),\n",
      "   midi.NoteOnEvent(tick=3, channel=0, data=[122, 19]),\n",
      "   midi.NoteOnEvent(tick=1, channel=0, data=[19, 224]),\n",
      "   midi.NoteOnEvent(tick=3, channel=0, data=[94, 57]),\n",
      "   midi.NoteOnEvent(tick=2, channel=0, data=[125, 151]),\n",
      "   midi.NoteOnEvent(tick=2, channel=0, data=[34, 243]),\n",
      "   midi.NoteOnEvent(tick=1, channel=0, data=[104, 174]),\n",
      "   midi.NoteOnEvent(tick=5, channel=0, data=[54, 223]),\n",
      "   midi.NoteOnEvent(tick=2, channel=0, data=[23, 203]),\n",
      "   midi.NoteOnEvent(tick=1, channel=0, data=[12, 61]),\n",
      "   midi.NoteOnEvent(tick=5, channel=0, data=[120, 90]),\n",
      "   midi.NoteOnEvent(tick=1, channel=0, data=[111, 197]),\n",
      "   midi.NoteOffEvent(tick=1, channel=0, data=[78, 0]),\n",
      "   midi.NoteOnEvent(tick=0, channel=0, data=[84, 21]),\n",
      "   midi.NoteOffEvent(tick=4, channel=0, data=[22, 0]),\n",
      "   midi.NoteOnEvent(tick=0, channel=0, data=[58, 134]),\n",
      "   midi.NoteOnEvent(tick=2, channel=0, data=[124, 209]),\n",
      "   midi.NoteOffEvent(tick=1, channel=0, data=[28, 0]),\n",
      "   midi.NoteOnEvent(tick=1, channel=0, data=[117, 80]),\n",
      "   midi.NoteOffEvent(tick=4, channel=0, data=[97, 0]),\n",
      "   midi.NoteOnEvent(tick=2, channel=0, data=[102, 104]),\n",
      "   midi.NoteOnEvent(tick=1, channel=0, data=[91, 206]),\n",
      "   midi.NoteOnEvent(tick=1, channel=0, data=[19, 69]),\n",
      "   midi.NoteOnEvent(tick=0, channel=0, data=[39, 225]),\n",
      "   midi.NoteOnEvent(tick=3, channel=0, data=[93, 209]),\n",
      "   midi.NoteOnEvent(tick=5, channel=0, data=[28, 68]),\n",
      "   midi.NoteOffEvent(tick=2, channel=0, data=[89, 0]),\n",
      "   midi.NoteOnEvent(tick=2, channel=0, data=[51, 124]),\n",
      "   midi.NoteOnEvent(tick=1, channel=0, data=[33, 179]),\n",
      "   midi.NoteOnEvent(tick=0, channel=0, data=[3, 193]),\n",
      "   midi.NoteOnEvent(tick=1, channel=0, data=[53, 167]),\n",
      "   midi.NoteOnEvent(tick=1, channel=0, data=[49, 87]),\n",
      "   midi.NoteOffEvent(tick=3, channel=0, data=[107, 0]),\n",
      "   midi.NoteOffEvent(tick=1, channel=0, data=[17, 0]),\n",
      "   midi.NoteOnEvent(tick=2, channel=0, data=[91, 3]),\n",
      "   midi.NoteOffEvent(tick=8, channel=0, data=[41, 0]),\n",
      "   midi.NoteOnEvent(tick=0, channel=0, data=[115, 135]),\n",
      "   midi.NoteOnEvent(tick=1, channel=0, data=[69, 37]),\n",
      "   midi.NoteOnEvent(tick=3, channel=0, data=[81, 66]),\n",
      "   midi.NoteOnEvent(tick=1, channel=0, data=[34, 2]),\n",
      "   midi.NoteOnEvent(tick=1, channel=0, data=[14, 61]),\n",
      "   midi.NoteOnEvent(tick=0, channel=0, data=[112, 164]),\n",
      "   midi.NoteOnEvent(tick=1, channel=0, data=[10, 240]),\n",
      "   midi.NoteOnEvent(tick=0, channel=0, data=[91, 146]),\n",
      "   midi.NoteOnEvent(tick=4, channel=0, data=[71, 21]),\n",
      "   midi.NoteOnEvent(tick=0, channel=0, data=[84, 254]),\n",
      "   midi.NoteOnEvent(tick=3, channel=0, data=[118, 99]),\n",
      "   midi.NoteOnEvent(tick=2, channel=0, data=[114, 146]),\n",
      "   midi.NoteOnEvent(tick=1, channel=0, data=[95, 111]),\n",
      "   midi.NoteOnEvent(tick=1, channel=0, data=[44, 71]),\n",
      "   midi.NoteOnEvent(tick=5, channel=0, data=[82, 59]),\n",
      "   midi.NoteOnEvent(tick=0, channel=0, data=[84, 140]),\n",
      "   midi.NoteOnEvent(tick=7, channel=0, data=[49, 143]),\n",
      "   midi.NoteOffEvent(tick=2, channel=0, data=[15, 0]),\n",
      "   midi.NoteOnEvent(tick=2, channel=0, data=[74, 238]),\n",
      "   midi.NoteOnEvent(tick=2, channel=0, data=[88, 124]),\n",
      "   midi.NoteOffEvent(tick=1, channel=0, data=[119, 0]),\n",
      "   midi.NoteOnEvent(tick=1, channel=0, data=[18, 151]),\n",
      "   midi.NoteOnEvent(tick=0, channel=0, data=[111, 52]),\n",
      "   midi.NoteOnEvent(tick=0, channel=0, data=[28, 21]),\n",
      "   midi.NoteOnEvent(tick=1, channel=0, data=[90, 211]),\n",
      "   midi.NoteOnEvent(tick=1, channel=0, data=[64, 12]),\n",
      "   midi.NoteOnEvent(tick=1, channel=0, data=[108, 104]),\n",
      "   midi.NoteOnEvent(tick=9, channel=0, data=[45, 79]),\n",
      "   midi.NoteOffEvent(tick=1, channel=0, data=[26, 0]),\n",
      "   midi.NoteOffEvent(tick=3, channel=0, data=[49, 0]),\n",
      "   midi.NoteOffEvent(tick=0, channel=0, data=[88, 0]),\n",
      "   midi.NoteOnEvent(tick=2, channel=0, data=[98, 239]),\n",
      "   midi.NoteOnEvent(tick=7, channel=0, data=[28, 2]),\n",
      "   midi.NoteOnEvent(tick=0, channel=0, data=[62, 21]),\n",
      "   midi.NoteOnEvent(tick=3, channel=0, data=[117, 213]),\n",
      "   midi.NoteOnEvent(tick=0, channel=0, data=[61, 94]),\n",
      "   midi.NoteOnEvent(tick=2, channel=0, data=[75, 24]),\n",
      "   midi.NoteOnEvent(tick=0, channel=0, data=[26, 132]),\n",
      "   midi.NoteOnEvent(tick=0, channel=0, data=[81, 2]),\n",
      "   midi.NoteOnEvent(tick=0, channel=0, data=[25, 80]),\n",
      "   midi.NoteOnEvent(tick=5, channel=0, data=[101, 155]),\n",
      "   midi.NoteOnEvent(tick=3, channel=0, data=[22, 204]),\n",
      "   midi.NoteOffEvent(tick=1, channel=0, data=[33, 0]),\n",
      "   midi.NoteOnEvent(tick=3, channel=0, data=[37, 227]),\n",
      "   midi.NoteOnEvent(tick=0, channel=0, data=[76, 29]),\n",
      "   midi.NoteOnEvent(tick=1, channel=0, data=[60, 122]),\n",
      "   midi.NoteOnEvent(tick=1, channel=0, data=[73, 65]),\n",
      "   midi.NoteOnEvent(tick=0, channel=0, data=[11, 55]),\n",
      "   midi.NoteOnEvent(tick=3, channel=0, data=[95, 191]),\n",
      "   midi.NoteOnEvent(tick=1, channel=0, data=[43, 153]),\n",
      "   midi.NoteOffEvent(tick=2, channel=0, data=[68, 0]),\n",
      "   midi.NoteOnEvent(tick=3, channel=0, data=[55, 198]),\n",
      "   midi.NoteOnEvent(tick=1, channel=0, data=[32, 238]),\n",
      "   midi.NoteOnEvent(tick=1, channel=0, data=[106, 100]),\n",
      "   midi.NoteOnEvent(tick=2, channel=0, data=[126, 139]),\n",
      "   midi.NoteOffEvent(tick=1, channel=0, data=[38, 0]),\n",
      "   midi.NoteOnEvent(tick=2, channel=0, data=[87, 25]),\n",
      "   midi.NoteOnEvent(tick=6, channel=0, data=[99, 147]),\n",
      "   midi.NoteOnEvent(tick=3, channel=0, data=[90, 71]),\n",
      "   midi.NoteOnEvent(tick=2, channel=0, data=[78, 180]),\n",
      "   midi.NoteOffEvent(tick=1, channel=0, data=[29, 0]),\n",
      "   midi.NoteOffEvent(tick=0, channel=0, data=[30, 0]),\n",
      "   midi.NoteOffEvent(tick=2, channel=0, data=[39, 0]),\n",
      "   midi.NoteOffEvent(tick=2, channel=0, data=[75, 0]),\n",
      "   midi.NoteOnEvent(tick=0, channel=0, data=[102, 201]),\n",
      "   midi.NoteOnEvent(tick=1, channel=0, data=[44, 22]),\n",
      "   midi.NoteOnEvent(tick=4, channel=0, data=[69, 242]),\n",
      "   midi.NoteOnEvent(tick=0, channel=0, data=[37, 240]),\n",
      "   midi.NoteOnEvent(tick=2, channel=0, data=[28, 81]),\n",
      "   midi.NoteOnEvent(tick=2, channel=0, data=[122, 255]),\n",
      "   midi.NoteOnEvent(tick=4, channel=0, data=[0, 124]),\n",
      "   midi.NoteOnEvent(tick=3, channel=0, data=[119, 79]),\n",
      "   midi.NoteOnEvent(tick=1, channel=0, data=[54, 10]),\n",
      "   midi.NoteOnEvent(tick=7, channel=0, data=[32, 222]),\n",
      "   midi.NoteOnEvent(tick=3, channel=0, data=[117, 223]),\n",
      "   midi.NoteOnEvent(tick=3, channel=0, data=[64, 171]),\n",
      "   midi.NoteOffEvent(tick=2, channel=0, data=[27, 0]),\n",
      "   midi.NoteOnEvent(tick=2, channel=0, data=[112, 88]),\n",
      "   midi.NoteOnEvent(tick=4, channel=0, data=[39, 199]),\n",
      "   midi.NoteOnEvent(tick=1, channel=0, data=[89, 163]),\n",
      "   midi.NoteOnEvent(tick=6, channel=0, data=[72, 195]),\n",
      "   midi.NoteOnEvent(tick=4, channel=0, data=[43, 8]),\n",
      "   midi.NoteOnEvent(tick=2, channel=0, data=[5, 196]),\n",
      "   midi.NoteOnEvent(tick=0, channel=0, data=[95, 182]),\n",
      "   midi.NoteOnEvent(tick=2, channel=0, data=[38, 189]),\n",
      "   midi.NoteOffEvent(tick=1, channel=0, data=[21, 0]),\n",
      "   midi.NoteOffEvent(tick=0, channel=0, data=[92, 0]),\n",
      "   midi.NoteOnEvent(tick=3, channel=0, data=[118, 177]),\n",
      "   midi.NoteOffEvent(tick=1, channel=0, data=[8, 0]),\n",
      "   midi.NoteOnEvent(tick=0, channel=0, data=[123, 88]),\n",
      "   midi.NoteOnEvent(tick=0, channel=0, data=[118, 252]),\n",
      "   midi.NoteOnEvent(tick=1, channel=0, data=[56, 7]),\n",
      "   midi.NoteOnEvent(tick=4, channel=0, data=[75, 181]),\n",
      "   midi.NoteOnEvent(tick=0, channel=0, data=[45, 54]),\n",
      "   midi.NoteOffEvent(tick=1, channel=0, data=[81, 0]),\n",
      "   midi.NoteOffEvent(tick=1, channel=0, data=[71, 0]),\n",
      "   midi.NoteOnEvent(tick=0, channel=0, data=[43, 78]),\n",
      "   midi.NoteOnEvent(tick=1, channel=0, data=[102, 148]),\n",
      "   midi.NoteOnEvent(tick=3, channel=0, data=[63, 9]),\n",
      "   midi.NoteOnEvent(tick=1, channel=0, data=[120, 119]),\n",
      "   midi.NoteOnEvent(tick=2, channel=0, data=[95, 193]),\n",
      "   midi.NoteOnEvent(tick=1, channel=0, data=[105, 137]),\n",
      "   midi.NoteOnEvent(tick=1, channel=0, data=[84, 200]),\n",
      "   midi.NoteOnEvent(tick=1, channel=0, data=[33, 240]),\n",
      "   midi.NoteOnEvent(tick=0, channel=0, data=[61, 38]),\n",
      "   midi.NoteOnEvent(tick=0, channel=0, data=[81, 104]),\n",
      "   midi.NoteOnEvent(tick=1, channel=0, data=[4, 140]),\n",
      "   midi.NoteOnEvent(tick=2, channel=0, data=[124, 113]),\n",
      "   midi.NoteOnEvent(tick=4, channel=0, data=[126, 50]),\n",
      "   midi.NoteOnEvent(tick=2, channel=0, data=[84, 15]),\n",
      "   midi.NoteOnEvent(tick=1, channel=0, data=[13, 71]),\n",
      "   midi.NoteOffEvent(tick=1, channel=0, data=[121, 0]),\n",
      "   midi.NoteOnEvent(tick=4, channel=0, data=[96, 17]),\n",
      "   midi.NoteOnEvent(tick=1, channel=0, data=[37, 151]),\n",
      "   midi.NoteOffEvent(tick=1, channel=0, data=[118, 0]),\n",
      "   midi.NoteOnEvent(tick=1, channel=0, data=[71, 212]),\n",
      "   midi.NoteOnEvent(tick=0, channel=0, data=[68, 153]),\n",
      "   midi.NoteOnEvent(tick=2, channel=0, data=[120, 158]),\n",
      "   midi.NoteOffEvent(tick=5, channel=0, data=[80, 0]),\n",
      "   midi.NoteOnEvent(tick=0, channel=0, data=[49, 102]),\n",
      "   midi.NoteOnEvent(tick=1, channel=0, data=[7, 144]),\n",
      "   midi.NoteOnEvent(tick=2, channel=0, data=[7, 237]),\n",
      "   midi.NoteOnEvent(tick=0, channel=0, data=[43, 187]),\n",
      "   midi.NoteOnEvent(tick=1, channel=0, data=[72, 145]),\n",
      "   midi.NoteOnEvent(tick=3, channel=0, data=[33, 168]),\n",
      "   midi.NoteOnEvent(tick=9, channel=0, data=[23, 154]),\n",
      "   midi.NoteOffEvent(tick=1, channel=0, data=[48, 0]),\n",
      "   midi.NoteOffEvent(tick=0, channel=0, data=[50, 0]),\n",
      "   midi.NoteOffEvent(tick=2, channel=0, data=[109, 0]),\n",
      "   midi.NoteOffEvent(tick=1, channel=0, data=[96, 0]),\n",
      "   midi.NoteOffEvent(tick=5, channel=0, data=[108, 0]),\n",
      "   midi.NoteOffEvent(tick=10, channel=0, data=[104, 0]),\n",
      "   midi.NoteOffEvent(tick=6, channel=0, data=[123, 0]),\n",
      "   midi.NoteOffEvent(tick=5, channel=0, data=[112, 0]),\n",
      "   midi.NoteOffEvent(tick=11, channel=0, data=[9, 0]),\n",
      "   midi.NoteOffEvent(tick=6, channel=0, data=[60, 0]),\n",
      "   midi.NoteOffEvent(tick=1, channel=0, data=[82, 0]),\n",
      "   midi.NoteOffEvent(tick=9, channel=0, data=[34, 0]),\n",
      "   midi.NoteOffEvent(tick=1, channel=0, data=[55, 0]),\n",
      "   midi.NoteOffEvent(tick=10, channel=0, data=[63, 0]),\n",
      "   midi.NoteOffEvent(tick=12, channel=0, data=[61, 0]),\n",
      "   midi.NoteOffEvent(tick=11, channel=0, data=[4, 0]),\n",
      "   midi.NoteOffEvent(tick=11, channel=0, data=[18, 0]),\n",
      "   midi.NoteOffEvent(tick=8, channel=0, data=[43, 0]),\n",
      "   midi.NoteOffEvent(tick=1, channel=0, data=[49, 0]),\n",
      "   midi.NoteOffEvent(tick=4, channel=0, data=[102, 0]),\n",
      "   midi.NoteOffEvent(tick=0, channel=0, data=[103, 0]),\n",
      "   midi.NoteOffEvent(tick=7, channel=0, data=[40, 0]),\n",
      "   midi.NoteOffEvent(tick=2, channel=0, data=[111, 0]),\n",
      "   midi.NoteOffEvent(tick=3, channel=0, data=[95, 0]),\n",
      "   midi.NoteOffEvent(tick=20, channel=0, data=[28, 0]),\n",
      "   midi.NoteOffEvent(tick=0, channel=0, data=[86, 0]),\n",
      "   midi.NoteOffEvent(tick=9, channel=0, data=[36, 0]),\n",
      "   midi.NoteOffEvent(tick=10, channel=0, data=[14, 0]),\n",
      "   midi.NoteOffEvent(tick=0, channel=0, data=[93, 0]),\n",
      "   midi.NoteOffEvent(tick=5, channel=0, data=[12, 0]),\n",
      "   midi.NoteOffEvent(tick=1, channel=0, data=[81, 0]),\n",
      "   midi.NoteOffEvent(tick=13, channel=0, data=[72, 0]),\n",
      "   midi.NoteOffEvent(tick=12, channel=0, data=[39, 0]),\n",
      "   midi.NoteOffEvent(tick=26, channel=0, data=[116, 0]),\n",
      "   midi.NoteOffEvent(tick=3, channel=0, data=[67, 0]),\n",
      "   midi.NoteOffEvent(tick=13, channel=0, data=[32, 0]),\n",
      "   midi.NoteOffEvent(tick=24, channel=0, data=[7, 0]),\n",
      "   midi.NoteOffEvent(tick=5, channel=0, data=[89, 0]),\n",
      "   midi.NoteOffEvent(tick=1, channel=0, data=[0, 0]),\n",
      "   midi.NoteOffEvent(tick=10, channel=0, data=[52, 0]),\n",
      "   midi.NoteOffEvent(tick=1, channel=0, data=[53, 0]),\n",
      "   midi.NoteOffEvent(tick=0, channel=0, data=[66, 0]),\n",
      "   midi.NoteOffEvent(tick=18, channel=0, data=[79, 0]),\n",
      "   midi.NoteOffEvent(tick=2, channel=0, data=[5, 0]),\n",
      "   midi.NoteOffEvent(tick=1, channel=0, data=[85, 0]),\n",
      "   midi.NoteOffEvent(tick=3, channel=0, data=[75, 0]),\n",
      "   midi.NoteOffEvent(tick=12, channel=0, data=[71, 0]),\n",
      "   midi.NoteOffEvent(tick=0, channel=0, data=[87, 0]),\n",
      "   midi.NoteOffEvent(tick=2, channel=0, data=[58, 0]),\n",
      "   midi.NoteOffEvent(tick=12, channel=0, data=[13, 0]),\n",
      "   midi.NoteOffEvent(tick=2, channel=0, data=[124, 0]),\n",
      "   midi.NoteOffEvent(tick=35, channel=0, data=[25, 0]),\n",
      "   midi.NoteOffEvent(tick=2, channel=0, data=[20, 0]),\n",
      "   midi.NoteOffEvent(tick=5, channel=0, data=[57, 0]),\n",
      "   midi.NoteOffEvent(tick=6, channel=0, data=[3, 0]),\n",
      "   midi.NoteOffEvent(tick=6, channel=0, data=[45, 0]),\n",
      "   midi.NoteOffEvent(tick=11, channel=0, data=[59, 0]),\n",
      "   midi.NoteOffEvent(tick=2, channel=0, data=[101, 0]),\n",
      "   midi.NoteOffEvent(tick=13, channel=0, data=[74, 0]),\n",
      "   midi.NoteOffEvent(tick=11, channel=0, data=[126, 0]),\n",
      "   midi.NoteOffEvent(tick=17, channel=0, data=[119, 0]),\n",
      "   midi.NoteOffEvent(tick=11, channel=0, data=[100, 0]),\n",
      "   midi.NoteOffEvent(tick=12, channel=0, data=[33, 0]),\n",
      "   midi.NoteOffEvent(tick=1, channel=0, data=[26, 0]),\n",
      "   midi.NoteOffEvent(tick=1, channel=0, data=[54, 0]),\n",
      "   midi.NoteOffEvent(tick=15, channel=0, data=[94, 0]),\n",
      "   midi.NoteOffEvent(tick=3, channel=0, data=[16, 0]),\n",
      "   midi.NoteOffEvent(tick=18, channel=0, data=[113, 0]),\n",
      "   midi.NoteOffEvent(tick=18, channel=0, data=[77, 0]),\n",
      "   midi.NoteOffEvent(tick=4, channel=0, data=[70, 0]),\n",
      "   midi.NoteOffEvent(tick=20, channel=0, data=[19, 0]),\n",
      "   midi.NoteOffEvent(tick=7, channel=0, data=[114, 0]),\n",
      "   midi.NoteOffEvent(tick=12, channel=0, data=[117, 0]),\n",
      "   midi.NoteOffEvent(tick=8, channel=0, data=[31, 0]),\n",
      "   midi.NoteOffEvent(tick=3, channel=0, data=[22, 0]),\n",
      "   midi.NoteOffEvent(tick=12, channel=0, data=[115, 0]),\n",
      "   midi.NoteOffEvent(tick=4, channel=0, data=[42, 0]),\n",
      "   midi.NoteOffEvent(tick=4, channel=0, data=[46, 0]),\n",
      "   midi.NoteOffEvent(tick=2, channel=0, data=[51, 0]),\n",
      "   midi.NoteOffEvent(tick=0, channel=0, data=[84, 0]),\n",
      "   midi.NoteOffEvent(tick=5, channel=0, data=[65, 0]),\n",
      "   midi.NoteOffEvent(tick=13, channel=0, data=[38, 0]),\n",
      "   midi.NoteOffEvent(tick=23, channel=0, data=[11, 0]),\n",
      "   midi.NoteOffEvent(tick=6, channel=0, data=[56, 0]),\n",
      "   midi.NoteOffEvent(tick=19, channel=0, data=[91, 0]),\n",
      "   midi.NoteOffEvent(tick=2, channel=0, data=[125, 0]),\n",
      "   midi.NoteOffEvent(tick=3, channel=0, data=[90, 0]),\n",
      "   midi.NoteOffEvent(tick=15, channel=0, data=[98, 0]),\n",
      "   midi.NoteOffEvent(tick=7, channel=0, data=[37, 0]),\n",
      "   midi.NoteOffEvent(tick=4, channel=0, data=[44, 0]),\n",
      "   midi.NoteOffEvent(tick=11, channel=0, data=[69, 0]),\n",
      "   midi.NoteOffEvent(tick=5, channel=0, data=[76, 0]),\n",
      "   midi.NoteOffEvent(tick=6, channel=0, data=[99, 0]),\n",
      "   midi.NoteOffEvent(tick=8, channel=0, data=[106, 0]),\n",
      "   midi.NoteOffEvent(tick=4, channel=0, data=[23, 0]),\n",
      "   midi.NoteOffEvent(tick=12, channel=0, data=[10, 0]),\n",
      "   midi.NoteOffEvent(tick=13, channel=0, data=[78, 0]),\n",
      "   midi.NoteOffEvent(tick=23, channel=0, data=[120, 0]),\n",
      "   midi.NoteOffEvent(tick=10, channel=0, data=[73, 0]),\n",
      "   midi.NoteOffEvent(tick=29, channel=0, data=[62, 0]),\n",
      "   midi.NoteOffEvent(tick=22, channel=0, data=[68, 0]),\n",
      "   midi.NoteOffEvent(tick=2, channel=0, data=[122, 0]),\n",
      "   midi.NoteOffEvent(tick=51, channel=0, data=[64, 0]),\n",
      "   midi.NoteOffEvent(tick=49, channel=0, data=[105, 0]),\n",
      "   midi.EndOfTrackEvent(tick=0, data=[])]),\n",
      " midi.Track(\\\n",
      "  [midi.SetTempoEvent(tick=0, data=[4, 147, 224]),\n",
      "   midi.ProgramChangeEvent(tick=0, channel=0, data=[14]),\n",
      "   midi.NoteOnEvent(tick=0, channel=0, data=[31, 2]),\n",
      "   midi.NoteOnEvent(tick=0, channel=0, data=[104, 231]),\n",
      "   midi.NoteOnEvent(tick=0, channel=0, data=[29, 182]),\n",
      "   midi.NoteOnEvent(tick=1, channel=0, data=[36, 197]),\n",
      "   midi.NoteOnEvent(tick=1, channel=0, data=[83, 178]),\n",
      "   midi.NoteOnEvent(tick=0, channel=0, data=[10, 36]),\n",
      "   midi.NoteOnEvent(tick=1, channel=0, data=[114, 248]),\n",
      "   midi.NoteOnEvent(tick=4, channel=0, data=[99, 45]),\n",
      "   midi.NoteOnEvent(tick=6, channel=0, data=[21, 117]),\n",
      "   midi.NoteOnEvent(tick=1, channel=0, data=[19, 63]),\n",
      "   midi.NoteOnEvent(tick=3, channel=0, data=[68, 214]),\n",
      "   midi.NoteOnEvent(tick=0, channel=0, data=[64, 40]),\n",
      "   midi.NoteOnEvent(tick=1, channel=0, data=[61, 80]),\n",
      "   midi.NoteOnEvent(tick=3, channel=0, data=[71, 61]),\n",
      "   midi.NoteOnEvent(tick=1, channel=0, data=[87, 108]),\n",
      "   midi.NoteOnEvent(tick=2, channel=0, data=[18, 53]),\n",
      "   midi.NoteOnEvent(tick=4, channel=0, data=[32, 43]),\n",
      "   midi.NoteOnEvent(tick=1, channel=0, data=[120, 77]),\n",
      "   midi.NoteOnEvent(tick=0, channel=0, data=[79, 162]),\n",
      "   midi.NoteOnEvent(tick=3, channel=0, data=[21, 40]),\n",
      "   midi.NoteOnEvent(tick=2, channel=0, data=[26, 128]),\n",
      "   midi.NoteOnEvent(tick=1, channel=0, data=[0, 67]),\n",
      "   midi.NoteOnEvent(tick=1, channel=0, data=[125, 133]),\n",
      "   midi.NoteOnEvent(tick=1, channel=0, data=[23, 250]),\n",
      "   midi.NoteOnEvent(tick=5, channel=0, data=[60, 173]),\n",
      "   midi.NoteOnEvent(tick=3, channel=0, data=[87, 111]),\n",
      "   midi.NoteOnEvent(tick=1, channel=0, data=[4, 157]),\n",
      "   midi.NoteOnEvent(tick=2, channel=0, data=[63, 201]),\n",
      "   midi.NoteOffEvent(tick=8, channel=0, data=[87, 0]),\n",
      "   midi.NoteOnEvent(tick=0, channel=0, data=[15, 202]),\n",
      "   midi.NoteOnEvent(tick=3, channel=0, data=[0, 194]),\n",
      "   midi.NoteOnEvent(tick=2, channel=0, data=[39, 142]),\n",
      "   midi.NoteOffEvent(tick=2, channel=0, data=[10, 0]),\n",
      "   midi.NoteOnEvent(tick=3, channel=0, data=[25, 236]),\n",
      "   midi.NoteOffEvent(tick=1, channel=0, data=[79, 0]),\n",
      "   midi.NoteOnEvent(tick=1, channel=0, data=[13, 218]),\n",
      "   midi.NoteOnEvent(tick=1, channel=0, data=[25, 83]),\n",
      "   midi.NoteOnEvent(tick=0, channel=0, data=[120, 33]),\n",
      "   midi.NoteOnEvent(tick=1, channel=0, data=[76, 242]),\n",
      "   midi.NoteOnEvent(tick=0, channel=0, data=[123, 8]),\n",
      "   midi.NoteOnEvent(tick=2, channel=0, data=[107, 216]),\n",
      "   midi.NoteOnEvent(tick=0, channel=0, data=[70, 78]),\n",
      "   midi.NoteOnEvent(tick=1, channel=0, data=[84, 123]),\n",
      "   midi.NoteOnEvent(tick=1, channel=0, data=[122, 128]),\n",
      "   midi.NoteOnEvent(tick=8, channel=0, data=[87, 160]),\n",
      "   midi.NoteOnEvent(tick=4, channel=0, data=[14, 59]),\n",
      "   midi.NoteOnEvent(tick=1, channel=0, data=[56, 194]),\n",
      "   midi.NoteOnEvent(tick=0, channel=0, data=[4, 85]),\n",
      "   midi.NoteOffEvent(tick=2, channel=0, data=[56, 0]),\n",
      "   midi.NoteOnEvent(tick=2, channel=0, data=[102, 229]),\n",
      "   midi.NoteOnEvent(tick=2, channel=0, data=[28, 60]),\n",
      "   midi.NoteOnEvent(tick=0, channel=0, data=[105, 7]),\n",
      "   midi.NoteOffEvent(tick=1, channel=0, data=[23, 0]),\n",
      "   midi.NoteOnEvent(tick=0, channel=0, data=[104, 181]),\n",
      "   midi.NoteOnEvent(tick=3, channel=0, data=[36, 213]),\n",
      "   midi.NoteOnEvent(tick=1, channel=0, data=[81, 171]),\n",
      "   midi.NoteOnEvent(tick=3, channel=0, data=[66, 21]),\n",
      "   midi.NoteOnEvent(tick=3, channel=0, data=[98, 29]),\n",
      "   midi.NoteOnEvent(tick=0, channel=0, data=[32, 3]),\n",
      "   midi.NoteOnEvent(tick=1, channel=0, data=[32, 25]),\n",
      "   midi.NoteOnEvent(tick=1, channel=0, data=[68, 201]),\n",
      "   midi.NoteOnEvent(tick=1, channel=0, data=[64, 56]),\n",
      "   midi.NoteOnEvent(tick=3, channel=0, data=[124, 159]),\n",
      "   midi.NoteOnEvent(tick=0, channel=0, data=[110, 167]),\n",
      "   midi.NoteOnEvent(tick=0, channel=0, data=[90, 244]),\n",
      "   midi.NoteOffEvent(tick=4, channel=0, data=[87, 0]),\n",
      "   midi.NoteOnEvent(tick=4, channel=0, data=[15, 22]),\n",
      "   midi.NoteOnEvent(tick=0, channel=0, data=[80, 190]),\n",
      "   midi.NoteOnEvent(tick=4, channel=0, data=[94, 194]),\n",
      "   midi.NoteOnEvent(tick=0, channel=0, data=[39, 169]),\n",
      "   midi.NoteOnEvent(tick=0, channel=0, data=[91, 10]),\n",
      "   midi.NoteOnEvent(tick=1, channel=0, data=[43, 218]),\n",
      "   midi.NoteOnEvent(tick=0, channel=0, data=[81, 16]),\n",
      "   midi.NoteOnEvent(tick=1, channel=0, data=[106, 152]),\n",
      "   midi.NoteOnEvent(tick=0, channel=0, data=[120, 69]),\n",
      "   midi.NoteOnEvent(tick=12, channel=0, data=[2, 120]),\n",
      "   midi.NoteOnEvent(tick=1, channel=0, data=[124, 76]),\n",
      "   midi.NoteOnEvent(tick=0, channel=0, data=[65, 227]),\n",
      "   midi.NoteOnEvent(tick=1, channel=0, data=[25, 148]),\n",
      "   midi.NoteOnEvent(tick=0, channel=0, data=[91, 143]),\n",
      "   midi.NoteOnEvent(tick=2, channel=0, data=[94, 39]),\n",
      "   midi.NoteOnEvent(tick=1, channel=0, data=[56, 203]),\n",
      "   midi.NoteOnEvent(tick=1, channel=0, data=[2, 96]),\n",
      "   midi.NoteOnEvent(tick=2, channel=0, data=[25, 192]),\n",
      "   midi.NoteOnEvent(tick=6, channel=0, data=[97, 249]),\n",
      "   midi.NoteOnEvent(tick=3, channel=0, data=[71, 190]),\n",
      "   midi.NoteOnEvent(tick=2, channel=0, data=[2, 188]),\n",
      "   midi.NoteOnEvent(tick=1, channel=0, data=[32, 207]),\n",
      "   midi.NoteOnEvent(tick=1, channel=0, data=[5, 250]),\n",
      "   midi.NoteOnEvent(tick=1, channel=0, data=[103, 200]),\n",
      "   midi.NoteOnEvent(tick=1, channel=0, data=[2, 120]),\n",
      "   midi.NoteOnEvent(tick=1, channel=0, data=[62, 152]),\n",
      "   midi.NoteOnEvent(tick=1, channel=0, data=[98, 171]),\n",
      "   midi.NoteOnEvent(tick=2, channel=0, data=[77, 106]),\n",
      "   midi.NoteOnEvent(tick=2, channel=0, data=[126, 5]),\n",
      "   midi.NoteOnEvent(tick=2, channel=0, data=[52, 115]),\n",
      "   midi.NoteOnEvent(tick=3, channel=0, data=[84, 71]),\n",
      "   midi.NoteOnEvent(tick=1, channel=0, data=[64, 165]),\n",
      "   midi.NoteOnEvent(tick=0, channel=0, data=[22, 249]),\n",
      "   midi.NoteOnEvent(tick=1, channel=0, data=[117, 151]),\n",
      "   midi.NoteOnEvent(tick=1, channel=0, data=[46, 154]),\n",
      "   midi.NoteOnEvent(tick=5, channel=0, data=[53, 166]),\n",
      "   midi.NoteOnEvent(tick=0, channel=0, data=[38, 96]),\n",
      "   midi.NoteOffEvent(tick=7, channel=0, data=[103, 0]),\n",
      "   midi.NoteOnEvent(tick=0, channel=0, data=[18, 135]),\n",
      "   midi.NoteOffEvent(tick=5, channel=0, data=[25, 0]),\n",
      "   midi.NoteOnEvent(tick=3, channel=0, data=[76, 140]),\n",
      "   midi.NoteOnEvent(tick=3, channel=0, data=[17, 214]),\n",
      "   midi.NoteOnEvent(tick=1, channel=0, data=[7, 188]),\n",
      "   midi.NoteOnEvent(tick=2, channel=0, data=[121, 146]),\n",
      "   midi.NoteOnEvent(tick=2, channel=0, data=[21, 226]),\n",
      "   midi.NoteOnEvent(tick=1, channel=0, data=[60, 228]),\n",
      "   midi.NoteOffEvent(tick=1, channel=0, data=[77, 0]),\n",
      "   midi.NoteOnEvent(tick=2, channel=0, data=[97, 160]),\n",
      "   midi.NoteOnEvent(tick=1, channel=0, data=[54, 141]),\n",
      "   midi.NoteOnEvent(tick=0, channel=0, data=[21, 133]),\n",
      "   midi.NoteOnEvent(tick=3, channel=0, data=[114, 166]),\n",
      "   midi.NoteOnEvent(tick=0, channel=0, data=[79, 192]),\n",
      "   midi.NoteOnEvent(tick=2, channel=0, data=[80, 211]),\n",
      "   midi.NoteOnEvent(tick=0, channel=0, data=[51, 159]),\n",
      "   midi.NoteOnEvent(tick=6, channel=0, data=[18, 182]),\n",
      "   midi.NoteOnEvent(tick=1, channel=0, data=[127, 14]),\n",
      "   midi.NoteOnEvent(tick=2, channel=0, data=[6, 93]),\n",
      "   midi.NoteOnEvent(tick=1, channel=0, data=[29, 24]),\n",
      "   midi.NoteOnEvent(tick=2, channel=0, data=[110, 155]),\n",
      "   midi.NoteOnEvent(tick=4, channel=0, data=[74, 145]),\n",
      "   midi.NoteOnEvent(tick=0, channel=0, data=[6, 149]),\n",
      "   midi.NoteOnEvent(tick=4, channel=0, data=[47, 235]),\n",
      "   midi.NoteOffEvent(tick=6, channel=0, data=[122, 0]),\n",
      "   midi.NoteOffEvent(tick=2, channel=0, data=[19, 0]),\n",
      "   midi.NoteOnEvent(tick=0, channel=0, data=[87, 122]),\n",
      "   midi.NoteOnEvent(tick=1, channel=0, data=[19, 132]),\n",
      "   midi.NoteOnEvent(tick=6, channel=0, data=[101, 175]),\n",
      "   midi.NoteOnEvent(tick=0, channel=0, data=[2, 183]),\n",
      "   midi.NoteOnEvent(tick=5, channel=0, data=[108, 34]),\n",
      "   midi.NoteOnEvent(tick=3, channel=0, data=[100, 247]),\n",
      "   midi.NoteOnEvent(tick=3, channel=0, data=[105, 174]),\n",
      "   midi.NoteOffEvent(tick=2, channel=0, data=[65, 0]),\n",
      "   midi.NoteOnEvent(tick=5, channel=0, data=[43, 113]),\n",
      "   midi.NoteOffEvent(tick=2, channel=0, data=[61, 0]),\n",
      "   midi.NoteOnEvent(tick=0, channel=0, data=[127, 217]),\n",
      "   midi.NoteOnEvent(tick=5, channel=0, data=[1, 247]),\n",
      "   midi.NoteOnEvent(tick=3, channel=0, data=[72, 135]),\n",
      "   midi.NoteOnEvent(tick=7, channel=0, data=[16, 191]),\n",
      "   midi.NoteOnEvent(tick=1, channel=0, data=[95, 54]),\n",
      "   midi.NoteOnEvent(tick=2, channel=0, data=[36, 42]),\n",
      "   midi.NoteOnEvent(tick=5, channel=0, data=[26, 14]),\n",
      "   midi.NoteOnEvent(tick=0, channel=0, data=[122, 192]),\n",
      "   midi.NoteOnEvent(tick=1, channel=0, data=[54, 74]),\n",
      "   midi.NoteOnEvent(tick=5, channel=0, data=[20, 19]),\n",
      "   midi.NoteOnEvent(tick=7, channel=0, data=[125, 11]),\n",
      "   midi.NoteOnEvent(tick=6, channel=0, data=[2, 248]),\n",
      "   midi.NoteOnEvent(tick=1, channel=0, data=[23, 93]),\n",
      "   midi.NoteOnEvent(tick=1, channel=0, data=[75, 242]),\n",
      "   midi.NoteOnEvent(tick=1, channel=0, data=[100, 220]),\n",
      "   midi.NoteOffEvent(tick=6, channel=0, data=[23, 0]),\n",
      "   midi.NoteOnEvent(tick=4, channel=0, data=[88, 154]),\n",
      "   midi.NoteOnEvent(tick=4, channel=0, data=[120, 92]),\n",
      "   midi.NoteOffEvent(tick=1, channel=0, data=[38, 0]),\n",
      "   midi.NoteOnEvent(tick=1, channel=0, data=[5, 97]),\n",
      "   midi.NoteOnEvent(tick=1, channel=0, data=[49, 199]),\n",
      "   midi.NoteOnEvent(tick=2, channel=0, data=[42, 139]),\n",
      "   midi.NoteOnEvent(tick=2, channel=0, data=[45, 37]),\n",
      "   midi.NoteOnEvent(tick=0, channel=0, data=[57, 242]),\n",
      "   midi.NoteOnEvent(tick=3, channel=0, data=[54, 58]),\n",
      "   midi.NoteOnEvent(tick=2, channel=0, data=[35, 159]),\n",
      "   midi.NoteOffEvent(tick=1, channel=0, data=[15, 0]),\n",
      "   midi.NoteOffEvent(tick=0, channel=0, data=[91, 0]),\n",
      "   midi.NoteOnEvent(tick=1, channel=0, data=[82, 40]),\n",
      "   midi.NoteOnEvent(tick=0, channel=0, data=[112, 253]),\n",
      "   midi.NoteOffEvent(tick=1, channel=0, data=[88, 0]),\n",
      "   midi.NoteOnEvent(tick=1, channel=0, data=[16, 88]),\n",
      "   midi.NoteOnEvent(tick=0, channel=0, data=[68, 113]),\n",
      "   midi.NoteOnEvent(tick=3, channel=0, data=[100, 50]),\n",
      "   midi.NoteOnEvent(tick=6, channel=0, data=[55, 230]),\n",
      "   midi.NoteOffEvent(tick=1, channel=0, data=[60, 0]),\n",
      "   midi.NoteOffEvent(tick=1, channel=0, data=[0, 0]),\n",
      "   midi.NoteOnEvent(tick=0, channel=0, data=[115, 241]),\n",
      "   midi.NoteOnEvent(tick=1, channel=0, data=[4, 229]),\n",
      "   midi.NoteOnEvent(tick=1, channel=0, data=[118, 25]),\n",
      "   midi.NoteOnEvent(tick=1, channel=0, data=[67, 85]),\n",
      "   midi.NoteOnEvent(tick=1, channel=0, data=[10, 103]),\n",
      "   midi.NoteOnEvent(tick=1, channel=0, data=[76, 254]),\n",
      "   midi.NoteOnEvent(tick=1, channel=0, data=[122, 80]),\n",
      "   midi.NoteOnEvent(tick=1, channel=0, data=[6, 218]),\n",
      "   midi.NoteOnEvent(tick=0, channel=0, data=[114, 113]),\n",
      "   midi.NoteOnEvent(tick=3, channel=0, data=[66, 40]),\n",
      "   midi.NoteOnEvent(tick=0, channel=0, data=[76, 170]),\n",
      "   midi.NoteOnEvent(tick=1, channel=0, data=[93, 254]),\n",
      "   midi.NoteOnEvent(tick=2, channel=0, data=[94, 12]),\n",
      "   midi.NoteOnEvent(tick=2, channel=0, data=[83, 22]),\n",
      "   midi.NoteOnEvent(tick=0, channel=0, data=[22, 126]),\n",
      "   midi.NoteOnEvent(tick=1, channel=0, data=[23, 38]),\n",
      "   midi.NoteOnEvent(tick=5, channel=0, data=[114, 128]),\n",
      "   midi.NoteOnEvent(tick=4, channel=0, data=[38, 51]),\n",
      "   midi.NoteOnEvent(tick=0, channel=0, data=[80, 226]),\n",
      "   midi.NoteOnEvent(tick=0, channel=0, data=[11, 112]),\n",
      "   midi.NoteOnEvent(tick=0, channel=0, data=[14, 101]),\n",
      "   midi.NoteOnEvent(tick=1, channel=0, data=[114, 207]),\n",
      "   midi.NoteOnEvent(tick=6, channel=0, data=[43, 123]),\n",
      "   midi.NoteOnEvent(tick=9, channel=0, data=[121, 253]),\n",
      "   midi.NoteOnEvent(tick=0, channel=0, data=[31, 127]),\n",
      "   midi.NoteOffEvent(tick=3, channel=0, data=[28, 0]),\n",
      "   midi.NoteOnEvent(tick=0, channel=0, data=[85, 203]),\n",
      "   midi.NoteOnEvent(tick=0, channel=0, data=[50, 86]),\n",
      "   midi.NoteOnEvent(tick=0, channel=0, data=[22, 178]),\n",
      "   midi.NoteOffEvent(tick=3, channel=0, data=[67, 0]),\n",
      "   midi.NoteOffEvent(tick=1, channel=0, data=[108, 0]),\n",
      "   midi.NoteOnEvent(tick=1, channel=0, data=[101, 146]),\n",
      "   midi.NoteOnEvent(tick=0, channel=0, data=[125, 177]),\n",
      "   midi.NoteOnEvent(tick=1, channel=0, data=[38, 55]),\n",
      "   midi.NoteOnEvent(tick=1, channel=0, data=[10, 49]),\n",
      "   midi.NoteOnEvent(tick=2, channel=0, data=[96, 206]),\n",
      "   midi.NoteOnEvent(tick=0, channel=0, data=[37, 224]),\n",
      "   midi.NoteOnEvent(tick=1, channel=0, data=[104, 85]),\n",
      "   midi.NoteOnEvent(tick=0, channel=0, data=[38, 38]),\n",
      "   midi.NoteOnEvent(tick=2, channel=0, data=[25, 64]),\n",
      "   midi.NoteOffEvent(tick=1, channel=0, data=[125, 0]),\n",
      "   midi.NoteOnEvent(tick=2, channel=0, data=[97, 176]),\n",
      "   midi.NoteOffEvent(tick=7, channel=0, data=[90, 0]),\n",
      "   midi.NoteOffEvent(tick=0, channel=0, data=[104, 0]),\n",
      "   midi.NoteOnEvent(tick=0, channel=0, data=[92, 65]),\n",
      "   midi.NoteOnEvent(tick=1, channel=0, data=[103, 3]),\n",
      "   midi.NoteOnEvent(tick=0, channel=0, data=[103, 161]),\n",
      "   midi.NoteOnEvent(tick=1, channel=0, data=[92, 218]),\n",
      "   midi.NoteOnEvent(tick=2, channel=0, data=[19, 78]),\n",
      "   midi.NoteOnEvent(tick=0, channel=0, data=[80, 169]),\n",
      "   midi.NoteOnEvent(tick=1, channel=0, data=[42, 102]),\n",
      "   midi.NoteOnEvent(tick=4, channel=0, data=[65, 85]),\n",
      "   midi.NoteOffEvent(tick=1, channel=0, data=[7, 0]),\n",
      "   midi.NoteOnEvent(tick=0, channel=0, data=[47, 33]),\n",
      "   midi.NoteOnEvent(tick=0, channel=0, data=[48, 233]),\n",
      "   midi.NoteOnEvent(tick=0, channel=0, data=[73, 20]),\n",
      "   midi.NoteOnEvent(tick=1, channel=0, data=[13, 135]),\n",
      "   midi.NoteOnEvent(tick=1, channel=0, data=[74, 158]),\n",
      "   midi.NoteOnEvent(tick=0, channel=0, data=[2, 222]),\n",
      "   midi.NoteOnEvent(tick=0, channel=0, data=[56, 1]),\n",
      "   midi.NoteOnEvent(tick=1, channel=0, data=[86, 115]),\n",
      "   midi.NoteOnEvent(tick=0, channel=0, data=[89, 172]),\n",
      "   midi.NoteOnEvent(tick=1, channel=0, data=[80, 43]),\n",
      "   midi.NoteOnEvent(tick=0, channel=0, data=[44, 110]),\n",
      "   midi.NoteOnEvent(tick=1, channel=0, data=[4, 234]),\n",
      "   midi.NoteOnEvent(tick=4, channel=0, data=[38, 194]),\n",
      "   midi.NoteOnEvent(tick=2, channel=0, data=[110, 101]),\n",
      "   midi.NoteOnEvent(tick=1, channel=0, data=[15, 110]),\n",
      "   midi.NoteOnEvent(tick=1, channel=0, data=[90, 162]),\n",
      "   midi.NoteOnEvent(tick=1, channel=0, data=[35, 53]),\n",
      "   midi.NoteOnEvent(tick=0, channel=0, data=[91, 188]),\n",
      "   midi.NoteOnEvent(tick=2, channel=0, data=[67, 214]),\n",
      "   midi.NoteOnEvent(tick=0, channel=0, data=[69, 225]),\n",
      "   midi.NoteOnEvent(tick=1, channel=0, data=[58, 39]),\n",
      "   midi.NoteOnEvent(tick=3, channel=0, data=[48, 94]),\n",
      "   midi.NoteOnEvent(tick=1, channel=0, data=[74, 228]),\n",
      "   midi.NoteOnEvent(tick=1, channel=0, data=[39, 248]),\n",
      "   midi.NoteOnEvent(tick=2, channel=0, data=[84, 183]),\n",
      "   midi.NoteOnEvent(tick=2, channel=0, data=[1, 92]),\n",
      "   midi.NoteOnEvent(tick=2, channel=0, data=[12, 68]),\n",
      "   midi.NoteOnEvent(tick=1, channel=0, data=[88, 111]),\n",
      "   midi.NoteOnEvent(tick=1, channel=0, data=[108, 163]),\n",
      "   midi.NoteOnEvent(tick=1, channel=0, data=[57, 195]),\n",
      "   midi.NoteOnEvent(tick=1, channel=0, data=[94, 255]),\n",
      "   midi.NoteOnEvent(tick=7, channel=0, data=[66, 57]),\n",
      "   midi.NoteOnEvent(tick=6, channel=0, data=[51, 175]),\n",
      "   midi.NoteOffEvent(tick=1, channel=0, data=[49, 0]),\n",
      "   midi.NoteOnEvent(tick=1, channel=0, data=[81, 55]),\n",
      "   midi.NoteOnEvent(tick=3, channel=0, data=[1, 171]),\n",
      "   midi.NoteOnEvent(tick=2, channel=0, data=[23, 150]),\n",
      "   midi.NoteOnEvent(tick=4, channel=0, data=[65, 130]),\n",
      "   midi.NoteOnEvent(tick=6, channel=0, data=[99, 162]),\n",
      "   midi.NoteOnEvent(tick=1, channel=0, data=[21, 60]),\n",
      "   midi.NoteOffEvent(tick=3, channel=0, data=[85, 0]),\n",
      "   midi.NoteOnEvent(tick=1, channel=0, data=[90, 192]),\n",
      "   midi.NoteOnEvent(tick=1, channel=0, data=[66, 27]),\n",
      "   midi.NoteOnEvent(tick=1, channel=0, data=[117, 110]),\n",
      "   midi.NoteOnEvent(tick=0, channel=0, data=[118, 45]),\n",
      "   midi.NoteOnEvent(tick=1, channel=0, data=[111, 250]),\n",
      "   midi.NoteOffEvent(tick=1, channel=0, data=[14, 0]),\n",
      "   midi.NoteOnEvent(tick=0, channel=0, data=[31, 107]),\n",
      "   midi.NoteOnEvent(tick=1, channel=0, data=[70, 27]),\n",
      "   midi.NoteOnEvent(tick=2, channel=0, data=[84, 248]),\n",
      "   midi.NoteOnEvent(tick=0, channel=0, data=[40, 167]),\n",
      "   midi.NoteOffEvent(tick=1, channel=0, data=[126, 0]),\n",
      "   midi.NoteOnEvent(tick=0, channel=0, data=[16, 77]),\n",
      "   midi.NoteOnEvent(tick=2, channel=0, data=[39, 86]),\n",
      "   midi.NoteOnEvent(tick=1, channel=0, data=[10, 5]),\n",
      "   midi.NoteOnEvent(tick=3, channel=0, data=[126, 228]),\n",
      "   midi.NoteOnEvent(tick=2, channel=0, data=[121, 247]),\n",
      "   midi.NoteOnEvent(tick=1, channel=0, data=[103, 184]),\n",
      "   midi.NoteOnEvent(tick=1, channel=0, data=[13, 219]),\n",
      "   midi.NoteOnEvent(tick=1, channel=0, data=[66, 60]),\n",
      "   midi.NoteOnEvent(tick=1, channel=0, data=[49, 37]),\n",
      "   midi.NoteOnEvent(tick=2, channel=0, data=[19, 20]),\n",
      "   midi.NoteOffEvent(tick=2, channel=0, data=[53, 0]),\n",
      "   midi.NoteOnEvent(tick=0, channel=0, data=[12, 51]),\n",
      "   midi.NoteOnEvent(tick=1, channel=0, data=[38, 97]),\n",
      "   midi.NoteOffEvent(tick=1, channel=0, data=[71, 0]),\n",
      "   midi.NoteOnEvent(tick=1, channel=0, data=[69, 164]),\n",
      "   midi.NoteOnEvent(tick=3, channel=0, data=[27, 186]),\n",
      "   midi.NoteOnEvent(tick=1, channel=0, data=[58, 135]),\n",
      "   midi.NoteOnEvent(tick=5, channel=0, data=[53, 69]),\n",
      "   midi.NoteOnEvent(tick=4, channel=0, data=[76, 216]),\n",
      "   midi.NoteOnEvent(tick=0, channel=0, data=[31, 151]),\n",
      "   midi.NoteOffEvent(tick=3, channel=0, data=[127, 0]),\n",
      "   midi.NoteOnEvent(tick=1, channel=0, data=[13, 189]),\n",
      "   midi.NoteOnEvent(tick=1, channel=0, data=[47, 49]),\n",
      "   midi.NoteOnEvent(tick=4, channel=0, data=[10, 74]),\n",
      "   midi.NoteOffEvent(tick=3, channel=0, data=[70, 0]),\n",
      "   midi.NoteOnEvent(tick=2, channel=0, data=[39, 161]),\n",
      "   midi.NoteOnEvent(tick=1, channel=0, data=[116, 160]),\n",
      "   midi.NoteOnEvent(tick=1, channel=0, data=[28, 100]),\n",
      "   midi.NoteOnEvent(tick=1, channel=0, data=[9, 170]),\n",
      "   midi.NoteOnEvent(tick=0, channel=0, data=[89, 171]),\n",
      "   midi.NoteOnEvent(tick=2, channel=0, data=[1, 70]),\n",
      "   midi.NoteOnEvent(tick=2, channel=0, data=[13, 171]),\n",
      "   midi.NoteOnEvent(tick=0, channel=0, data=[98, 131]),\n",
      "   midi.NoteOnEvent(tick=1, channel=0, data=[101, 172]),\n",
      "   midi.NoteOnEvent(tick=2, channel=0, data=[56, 82]),\n",
      "   midi.NoteOnEvent(tick=0, channel=0, data=[59, 74]),\n",
      "   midi.NoteOnEvent(tick=2, channel=0, data=[127, 124]),\n",
      "   midi.NoteOnEvent(tick=2, channel=0, data=[12, 123]),\n",
      "   midi.NoteOffEvent(tick=2, channel=0, data=[106, 0]),\n",
      "   midi.NoteOnEvent(tick=0, channel=0, data=[50, 192]),\n",
      "   midi.NoteOnEvent(tick=0, channel=0, data=[56, 147]),\n",
      "   midi.NoteOnEvent(tick=0, channel=0, data=[89, 105]),\n",
      "   midi.NoteOnEvent(tick=2, channel=0, data=[69, 19]),\n",
      "   midi.NoteOnEvent(tick=1, channel=0, data=[44, 211]),\n",
      "   midi.NoteOnEvent(tick=0, channel=0, data=[122, 225]),\n",
      "   midi.NoteOnEvent(tick=0, channel=0, data=[42, 125]),\n",
      "   midi.NoteOnEvent(tick=2, channel=0, data=[58, 48]),\n",
      "   midi.NoteOnEvent(tick=0, channel=0, data=[77, 28]),\n",
      "   midi.NoteOnEvent(tick=0, channel=0, data=[46, 153]),\n",
      "   midi.NoteOnEvent(tick=1, channel=0, data=[122, 221]),\n",
      "   midi.NoteOnEvent(tick=2, channel=0, data=[116, 225]),\n",
      "   midi.NoteOffEvent(tick=2, channel=0, data=[73, 0]),\n",
      "   midi.NoteOnEvent(tick=0, channel=0, data=[108, 205]),\n",
      "   midi.NoteOnEvent(tick=1, channel=0, data=[13, 83]),\n",
      "   midi.NoteOnEvent(tick=1, channel=0, data=[98, 140]),\n",
      "   midi.NoteOnEvent(tick=2, channel=0, data=[20, 161]),\n",
      "   midi.NoteOnEvent(tick=3, channel=0, data=[86, 61]),\n",
      "   midi.NoteOffEvent(tick=3, channel=0, data=[99, 0]),\n",
      "   midi.NoteOnEvent(tick=0, channel=0, data=[56, 28]),\n",
      "   midi.NoteOnEvent(tick=1, channel=0, data=[93, 105]),\n",
      "   midi.NoteOnEvent(tick=0, channel=0, data=[31, 128]),\n",
      "   midi.NoteOnEvent(tick=5, channel=0, data=[85, 167]),\n",
      "   midi.NoteOnEvent(tick=1, channel=0, data=[15, 129]),\n",
      "   midi.NoteOnEvent(tick=0, channel=0, data=[29, 52]),\n",
      "   midi.NoteOnEvent(tick=1, channel=0, data=[76, 189]),\n",
      "   midi.NoteOffEvent(tick=2, channel=0, data=[92, 0]),\n",
      "   midi.NoteOnEvent(tick=1, channel=0, data=[65, 199]),\n",
      "   midi.NoteOffEvent(tick=1, channel=0, data=[96, 0]),\n",
      "   midi.NoteOnEvent(tick=0, channel=0, data=[77, 5]),\n",
      "   midi.NoteOnEvent(tick=1, channel=0, data=[4, 24]),\n",
      "   midi.NoteOffEvent(tick=2, channel=0, data=[37, 0]),\n",
      "   midi.NoteOnEvent(tick=3, channel=0, data=[47, 203]),\n",
      "   midi.NoteOffEvent(tick=1, channel=0, data=[77, 0]),\n",
      "   midi.NoteOnEvent(tick=1, channel=0, data=[81, 83]),\n",
      "   midi.NoteOnEvent(tick=1, channel=0, data=[125, 59]),\n",
      "   midi.NoteOffEvent(tick=2, channel=0, data=[124, 0]),\n",
      "   midi.NoteOnEvent(tick=2, channel=0, data=[1, 43]),\n",
      "   midi.NoteOnEvent(tick=3, channel=0, data=[50, 155]),\n",
      "   midi.NoteOnEvent(tick=1, channel=0, data=[106, 147]),\n",
      "   midi.NoteOnEvent(tick=3, channel=0, data=[8, 75]),\n",
      "   midi.NoteOnEvent(tick=1, channel=0, data=[109, 227]),\n",
      "   midi.NoteOnEvent(tick=1, channel=0, data=[9, 134]),\n",
      "   midi.NoteOnEvent(tick=2, channel=0, data=[29, 198]),\n",
      "   midi.NoteOnEvent(tick=1, channel=0, data=[56, 31]),\n",
      "   midi.NoteOnEvent(tick=0, channel=0, data=[71, 239]),\n",
      "   midi.NoteOnEvent(tick=0, channel=0, data=[12, 243]),\n",
      "   midi.NoteOnEvent(tick=1, channel=0, data=[5, 159]),\n",
      "   midi.NoteOnEvent(tick=1, channel=0, data=[11, 14]),\n",
      "   midi.NoteOnEvent(tick=0, channel=0, data=[17, 247]),\n",
      "   midi.NoteOnEvent(tick=1, channel=0, data=[79, 168]),\n",
      "   midi.NoteOnEvent(tick=3, channel=0, data=[10, 3]),\n",
      "   midi.NoteOffEvent(tick=1, channel=0, data=[56, 0]),\n",
      "   midi.NoteOnEvent(tick=0, channel=0, data=[64, 26]),\n",
      "   midi.NoteOnEvent(tick=2, channel=0, data=[71, 118]),\n",
      "   midi.NoteOffEvent(tick=1, channel=0, data=[117, 0]),\n",
      "   midi.NoteOnEvent(tick=4, channel=0, data=[78, 113]),\n",
      "   midi.NoteOnEvent(tick=2, channel=0, data=[73, 33]),\n",
      "   midi.NoteOnEvent(tick=5, channel=0, data=[2, 15]),\n",
      "   midi.NoteOnEvent(tick=1, channel=0, data=[31, 88]),\n",
      "   midi.NoteOnEvent(tick=0, channel=0, data=[101, 38]),\n",
      "   midi.NoteOnEvent(tick=6, channel=0, data=[9, 27]),\n",
      "   midi.NoteOnEvent(tick=0, channel=0, data=[65, 155]),\n",
      "   midi.NoteOnEvent(tick=1, channel=0, data=[11, 73]),\n",
      "   midi.NoteOnEvent(tick=1, channel=0, data=[0, 13]),\n",
      "   midi.NoteOnEvent(tick=1, channel=0, data=[64, 92]),\n",
      "   midi.NoteOnEvent(tick=1, channel=0, data=[72, 65]),\n",
      "   midi.NoteOnEvent(tick=1, channel=0, data=[78, 71]),\n",
      "   midi.NoteOnEvent(tick=1, channel=0, data=[99, 232]),\n",
      "   midi.NoteOnEvent(tick=0, channel=0, data=[17, 177]),\n",
      "   midi.NoteOnEvent(tick=1, channel=0, data=[13, 155]),\n",
      "   midi.NoteOnEvent(tick=1, channel=0, data=[67, 208]),\n",
      "   midi.NoteOnEvent(tick=1, channel=0, data=[24, 101]),\n",
      "   midi.NoteOnEvent(tick=2, channel=0, data=[4, 205]),\n",
      "   midi.NoteOnEvent(tick=2, channel=0, data=[97, 162]),\n",
      "   midi.NoteOffEvent(tick=4, channel=0, data=[102, 0]),\n",
      "   midi.NoteOnEvent(tick=2, channel=0, data=[65, 195]),\n",
      "   midi.NoteOnEvent(tick=3, channel=0, data=[19, 110]),\n",
      "   midi.NoteOnEvent(tick=0, channel=0, data=[19, 229]),\n",
      "   midi.NoteOnEvent(tick=2, channel=0, data=[10, 64]),\n",
      "   midi.NoteOnEvent(tick=1, channel=0, data=[28, 84]),\n",
      "   midi.NoteOnEvent(tick=0, channel=0, data=[91, 153]),\n",
      "   midi.NoteOnEvent(tick=1, channel=0, data=[105, 226]),\n",
      "   midi.NoteOnEvent(tick=3, channel=0, data=[118, 24]),\n",
      "   midi.NoteOnEvent(tick=1, channel=0, data=[4, 95]),\n",
      "   midi.NoteOnEvent(tick=2, channel=0, data=[102, 162]),\n",
      "   midi.NoteOnEvent(tick=3, channel=0, data=[8, 64]),\n",
      "   midi.NoteOnEvent(tick=5, channel=0, data=[26, 103]),\n",
      "   midi.NoteOffEvent(tick=1, channel=0, data=[105, 0]),\n",
      "   midi.NoteOnEvent(tick=0, channel=0, data=[49, 103]),\n",
      "   midi.NoteOnEvent(tick=2, channel=0, data=[59, 155]),\n",
      "   midi.NoteOnEvent(tick=0, channel=0, data=[30, 29]),\n",
      "   midi.NoteOnEvent(tick=1, channel=0, data=[116, 210]),\n",
      "   midi.NoteOnEvent(tick=0, channel=0, data=[4, 5]),\n",
      "   midi.NoteOffEvent(tick=1, channel=0, data=[22, 0]),\n",
      "   midi.NoteOffEvent(tick=2, channel=0, data=[108, 0]),\n",
      "   midi.NoteOnEvent(tick=1, channel=0, data=[37, 4]),\n",
      "   midi.NoteOnEvent(tick=1, channel=0, data=[110, 135]),\n",
      "   midi.NoteOnEvent(tick=3, channel=0, data=[54, 2]),\n",
      "   midi.NoteOnEvent(tick=2, channel=0, data=[47, 73]),\n",
      "   midi.NoteOnEvent(tick=2, channel=0, data=[1, 107]),\n",
      "   midi.NoteOnEvent(tick=1, channel=0, data=[120, 39]),\n",
      "   midi.NoteOffEvent(tick=4, channel=0, data=[71, 0]),\n",
      "   midi.NoteOnEvent(tick=1, channel=0, data=[58, 73]),\n",
      "   midi.NoteOnEvent(tick=2, channel=0, data=[43, 238]),\n",
      "   midi.NoteOnEvent(tick=1, channel=0, data=[64, 168]),\n",
      "   midi.NoteOffEvent(tick=4, channel=0, data=[123, 0]),\n",
      "   midi.NoteOnEvent(tick=1, channel=0, data=[56, 94]),\n",
      "   midi.NoteOnEvent(tick=1, channel=0, data=[7, 130]),\n",
      "   midi.NoteOnEvent(tick=1, channel=0, data=[52, 162]),\n",
      "   midi.NoteOnEvent(tick=4, channel=0, data=[35, 147]),\n",
      "   midi.NoteOnEvent(tick=2, channel=0, data=[112, 50]),\n",
      "   midi.NoteOffEvent(tick=1, channel=0, data=[68, 0]),\n",
      "   midi.NoteOffEvent(tick=1, channel=0, data=[0, 0]),\n",
      "   midi.NoteOnEvent(tick=0, channel=0, data=[105, 61]),\n",
      "   midi.NoteOffEvent(tick=2, channel=0, data=[42, 0]),\n",
      "   midi.NoteOffEvent(tick=4, channel=0, data=[127, 0]),\n",
      "   midi.NoteOnEvent(tick=0, channel=0, data=[71, 71]),\n",
      "   midi.NoteOnEvent(tick=1, channel=0, data=[63, 128]),\n",
      "   midi.NoteOnEvent(tick=1, channel=0, data=[60, 117]),\n",
      "   midi.NoteOnEvent(tick=0, channel=0, data=[87, 40]),\n",
      "   midi.NoteOffEvent(tick=1, channel=0, data=[20, 0]),\n",
      "   midi.NoteOnEvent(tick=2, channel=0, data=[99, 125]),\n",
      "   midi.NoteOffEvent(tick=2, channel=0, data=[115, 0]),\n",
      "   midi.NoteOffEvent(tick=1, channel=0, data=[110, 0]),\n",
      "   midi.NoteOnEvent(tick=2, channel=0, data=[106, 92]),\n",
      "   midi.NoteOnEvent(tick=4, channel=0, data=[100, 149]),\n",
      "   midi.NoteOnEvent(tick=1, channel=0, data=[17, 112]),\n",
      "   midi.NoteOnEvent(tick=0, channel=0, data=[94, 127]),\n",
      "   midi.NoteOnEvent(tick=1, channel=0, data=[34, 238]),\n",
      "   midi.NoteOffEvent(tick=1, channel=0, data=[83, 0]),\n",
      "   midi.NoteOnEvent(tick=0, channel=0, data=[9, 148]),\n",
      "   midi.NoteOffEvent(tick=1, channel=0, data=[118, 0]),\n",
      "   midi.NoteOffEvent(tick=4, channel=0, data=[95, 0]),\n",
      "   midi.NoteOnEvent(tick=1, channel=0, data=[48, 150]),\n",
      "   midi.NoteOffEvent(tick=5, channel=0, data=[100, 0]),\n",
      "   midi.NoteOnEvent(tick=3, channel=0, data=[81, 90]),\n",
      "   midi.NoteOnEvent(tick=1, channel=0, data=[68, 124]),\n",
      "   midi.NoteOnEvent(tick=3, channel=0, data=[98, 212]),\n",
      "   midi.NoteOnEvent(tick=1, channel=0, data=[76, 201]),\n",
      "   midi.NoteOffEvent(tick=1, channel=0, data=[66, 0]),\n",
      "   midi.NoteOnEvent(tick=0, channel=0, data=[56, 244]),\n",
      "   midi.NoteOnEvent(tick=0, channel=0, data=[29, 19]),\n",
      "   midi.NoteOnEvent(tick=1, channel=0, data=[89, 221]),\n",
      "   midi.NoteOnEvent(tick=0, channel=0, data=[7, 237]),\n",
      "   midi.NoteOnEvent(tick=4, channel=0, data=[50, 122]),\n",
      "   midi.NoteOnEvent(tick=0, channel=0, data=[40, 9]),\n",
      "   midi.NoteOnEvent(tick=3, channel=0, data=[102, 69]),\n",
      "   midi.NoteOnEvent(tick=2, channel=0, data=[108, 198]),\n",
      "   midi.NoteOnEvent(tick=1, channel=0, data=[114, 167]),\n",
      "   midi.NoteOnEvent(tick=1, channel=0, data=[5, 74]),\n",
      "   midi.NoteOffEvent(tick=3, channel=0, data=[56, 0]),\n",
      "   midi.NoteOnEvent(tick=2, channel=0, data=[102, 44]),\n",
      "   midi.NoteOnEvent(tick=0, channel=0, data=[68, 185]),\n",
      "   midi.NoteOnEvent(tick=7, channel=0, data=[91, 19]),\n",
      "   midi.NoteOnEvent(tick=4, channel=0, data=[33, 57]),\n",
      "   midi.NoteOnEvent(tick=2, channel=0, data=[28, 113]),\n",
      "   midi.NoteOnEvent(tick=2, channel=0, data=[113, 126]),\n",
      "   midi.NoteOnEvent(tick=0, channel=0, data=[15, 246]),\n",
      "   midi.NoteOnEvent(tick=0, channel=0, data=[53, 66]),\n",
      "   midi.NoteOnEvent(tick=1, channel=0, data=[85, 209]),\n",
      "   midi.NoteOffEvent(tick=1, channel=0, data=[33, 0]),\n",
      "   midi.NoteOnEvent(tick=0, channel=0, data=[89, 173]),\n",
      "   midi.NoteOnEvent(tick=1, channel=0, data=[25, 214]),\n",
      "   midi.NoteOffEvent(tick=9, channel=0, data=[78, 0]),\n",
      "   midi.NoteOnEvent(tick=0, channel=0, data=[24, 5]),\n",
      "   midi.NoteOffEvent(tick=6, channel=0, data=[91, 0]),\n",
      "   midi.NoteOnEvent(tick=0, channel=0, data=[32, 17]),\n",
      "   midi.NoteOffEvent(tick=2, channel=0, data=[65, 0]),\n",
      "   midi.NoteOnEvent(tick=5, channel=0, data=[84, 59]),\n",
      "   midi.NoteOnEvent(tick=0, channel=0, data=[15, 255]),\n",
      "   midi.NoteOnEvent(tick=3, channel=0, data=[43, 151]),\n",
      "   midi.NoteOnEvent(tick=0, channel=0, data=[103, 158]),\n",
      "   midi.NoteOffEvent(tick=1, channel=0, data=[17, 0]),\n",
      "   midi.NoteOnEvent(tick=1, channel=0, data=[78, 232]),\n",
      "   midi.NoteOnEvent(tick=0, channel=0, data=[45, 102]),\n",
      "   midi.NoteOnEvent(tick=0, channel=0, data=[11, 241]),\n",
      "   midi.NoteOnEvent(tick=0, channel=0, data=[51, 45]),\n",
      "   midi.NoteOffEvent(tick=1, channel=0, data=[23, 0]),\n",
      "   midi.NoteOffEvent(tick=1, channel=0, data=[107, 0]),\n",
      "   midi.NoteOnEvent(tick=3, channel=0, data=[4, 32]),\n",
      "   midi.NoteOnEvent(tick=3, channel=0, data=[98, 180]),\n",
      "   midi.NoteOnEvent(tick=4, channel=0, data=[90, 76]),\n",
      "   midi.NoteOnEvent(tick=0, channel=0, data=[84, 106]),\n",
      "   midi.NoteOffEvent(tick=1, channel=0, data=[109, 0]),\n",
      "   midi.NoteOnEvent(tick=0, channel=0, data=[61, 207]),\n",
      "   midi.NoteOnEvent(tick=1, channel=0, data=[82, 36]),\n",
      "   midi.NoteOnEvent(tick=0, channel=0, data=[15, 186]),\n",
      "   midi.NoteOnEvent(tick=3, channel=0, data=[4, 121]),\n",
      "   midi.NoteOnEvent(tick=1, channel=0, data=[6, 97]),\n",
      "   midi.NoteOffEvent(tick=1, channel=0, data=[21, 0]),\n",
      "   midi.NoteOnEvent(tick=4, channel=0, data=[93, 220]),\n",
      "   midi.NoteOnEvent(tick=1, channel=0, data=[33, 201]),\n",
      "   midi.NoteOnEvent(tick=1, channel=0, data=[66, 127]),\n",
      "   midi.NoteOnEvent(tick=2, channel=0, data=[12, 172]),\n",
      "   midi.NoteOnEvent(tick=3, channel=0, data=[122, 44]),\n",
      "   midi.NoteOnEvent(tick=6, channel=0, data=[57, 15]),\n",
      "   midi.NoteOnEvent(tick=3, channel=0, data=[96, 13]),\n",
      "   midi.NoteOffEvent(tick=2, channel=0, data=[71, 0]),\n",
      "   midi.NoteOnEvent(tick=0, channel=0, data=[95, 7]),\n",
      "   midi.NoteOnEvent(tick=5, channel=0, data=[54, 219]),\n",
      "   midi.NoteOnEvent(tick=1, channel=0, data=[55, 215]),\n",
      "   midi.NoteOnEvent(tick=4, channel=0, data=[7, 49]),\n",
      "   midi.NoteOnEvent(tick=0, channel=0, data=[119, 242]),\n",
      "   midi.NoteOffEvent(tick=1, channel=0, data=[51, 0]),\n",
      "   midi.NoteOnEvent(tick=1, channel=0, data=[70, 230]),\n",
      "   midi.NoteOffEvent(tick=1, channel=0, data=[8, 0]),\n",
      "   midi.NoteOnEvent(tick=1, channel=0, data=[40, 238]),\n",
      "   midi.NoteOnEvent(tick=4, channel=0, data=[20, 103]),\n",
      "   midi.NoteOnEvent(tick=3, channel=0, data=[71, 151]),\n",
      "   midi.NoteOnEvent(tick=1, channel=0, data=[20, 188]),\n",
      "   midi.NoteOnEvent(tick=7, channel=0, data=[113, 223]),\n",
      "   midi.NoteOffEvent(tick=2, channel=0, data=[45, 0]),\n",
      "   midi.NoteOnEvent(tick=1, channel=0, data=[70, 193]),\n",
      "   midi.NoteOnEvent(tick=3, channel=0, data=[124, 253]),\n",
      "   midi.NoteOnEvent(tick=4, channel=0, data=[58, 241]),\n",
      "   midi.NoteOnEvent(tick=4, channel=0, data=[76, 140]),\n",
      "   midi.NoteOnEvent(tick=1, channel=0, data=[2, 157]),\n",
      "   midi.NoteOnEvent(tick=6, channel=0, data=[96, 165]),\n",
      "   midi.NoteOnEvent(tick=4, channel=0, data=[98, 110]),\n",
      "   midi.NoteOnEvent(tick=2, channel=0, data=[126, 2]),\n",
      "   midi.NoteOnEvent(tick=0, channel=0, data=[5, 101]),\n",
      "   midi.NoteOnEvent(tick=2, channel=0, data=[80, 133]),\n",
      "   midi.NoteOffEvent(tick=3, channel=0, data=[1, 0]),\n",
      "   midi.NoteOffEvent(tick=1, channel=0, data=[95, 0]),\n",
      "   midi.NoteOnEvent(tick=0, channel=0, data=[95, 187]),\n",
      "   midi.NoteOnEvent(tick=1, channel=0, data=[116, 184]),\n",
      "   midi.NoteOnEvent(tick=0, channel=0, data=[25, 28]),\n",
      "   midi.NoteOffEvent(tick=1, channel=0, data=[119, 0]),\n",
      "   midi.NoteOnEvent(tick=0, channel=0, data=[32, 12]),\n",
      "   midi.NoteOnEvent(tick=4, channel=0, data=[97, 98]),\n",
      "   midi.NoteOnEvent(tick=0, channel=0, data=[115, 57]),\n",
      "   midi.NoteOnEvent(tick=2, channel=0, data=[17, 215]),\n",
      "   midi.NoteOnEvent(tick=1, channel=0, data=[54, 247]),\n",
      "   midi.NoteOnEvent(tick=3, channel=0, data=[124, 223]),\n",
      "   midi.NoteOnEvent(tick=1, channel=0, data=[84, 84]),\n",
      "   midi.NoteOnEvent(tick=2, channel=0, data=[126, 29]),\n",
      "   midi.NoteOnEvent(tick=1, channel=0, data=[41, 117]),\n",
      "   midi.NoteOnEvent(tick=1, channel=0, data=[105, 105]),\n",
      "   midi.NoteOnEvent(tick=1, channel=0, data=[27, 74]),\n",
      "   midi.NoteOnEvent(tick=0, channel=0, data=[127, 197]),\n",
      "   midi.NoteOnEvent(tick=0, channel=0, data=[107, 119]),\n",
      "   midi.NoteOnEvent(tick=1, channel=0, data=[106, 5]),\n",
      "   midi.NoteOnEvent(tick=2, channel=0, data=[7, 154]),\n",
      "   midi.NoteOnEvent(tick=4, channel=0, data=[116, 137]),\n",
      "   midi.NoteOnEvent(tick=2, channel=0, data=[107, 157]),\n",
      "   midi.NoteOnEvent(tick=1, channel=0, data=[123, 117]),\n",
      "   midi.NoteOnEvent(tick=5, channel=0, data=[100, 62]),\n",
      "   midi.NoteOnEvent(tick=1, channel=0, data=[84, 33]),\n",
      "   midi.NoteOffEvent(tick=1, channel=0, data=[41, 0]),\n",
      "   midi.NoteOnEvent(tick=1, channel=0, data=[26, 109]),\n",
      "   midi.NoteOnEvent(tick=0, channel=0, data=[55, 151]),\n",
      "   midi.NoteOnEvent(tick=2, channel=0, data=[100, 98]),\n",
      "   midi.NoteOffEvent(tick=1, channel=0, data=[4, 0]),\n",
      "   midi.NoteOnEvent(tick=4, channel=0, data=[77, 36]),\n",
      "   midi.NoteOnEvent(tick=1, channel=0, data=[122, 242]),\n",
      "   midi.NoteOffEvent(tick=1, channel=0, data=[16, 0]),\n",
      "   midi.NoteOnEvent(tick=1, channel=0, data=[127, 165]),\n",
      "   midi.NoteOnEvent(tick=0, channel=0, data=[64, 208]),\n",
      "   midi.NoteOnEvent(tick=1, channel=0, data=[80, 135]),\n",
      "   midi.NoteOnEvent(tick=3, channel=0, data=[83, 185]),\n",
      "   midi.NoteOffEvent(tick=7, channel=0, data=[12, 0]),\n",
      "   midi.NoteOffEvent(tick=2, channel=0, data=[19, 0]),\n",
      "   midi.NoteOnEvent(tick=0, channel=0, data=[23, 49]),\n",
      "   midi.NoteOffEvent(tick=2, channel=0, data=[18, 0]),\n",
      "   midi.NoteOffEvent(tick=17, channel=0, data=[95, 0]),\n",
      "   midi.NoteOffEvent(tick=35, channel=0, data=[37, 0]),\n",
      "   midi.NoteOffEvent(tick=6, channel=0, data=[111, 0]),\n",
      "   midi.NoteOffEvent(tick=3, channel=0, data=[115, 0]),\n",
      "   midi.NoteOffEvent(tick=4, channel=0, data=[36, 0]),\n",
      "   midi.NoteOffEvent(tick=6, channel=0, data=[9, 0]),\n",
      "   midi.NoteOffEvent(tick=0, channel=0, data=[10, 0]),\n",
      "   midi.NoteOffEvent(tick=1, channel=0, data=[38, 0]),\n",
      "   midi.NoteOffEvent(tick=9, channel=0, data=[79, 0]),\n",
      "   midi.NoteOffEvent(tick=11, channel=0, data=[103, 0]),\n",
      "   midi.NoteOffEvent(tick=7, channel=0, data=[6, 0]),\n",
      "   midi.NoteOffEvent(tick=0, channel=0, data=[24, 0]),\n",
      "   midi.NoteOffEvent(tick=6, channel=0, data=[46, 0]),\n",
      "   midi.NoteOffEvent(tick=1, channel=0, data=[62, 0]),\n",
      "   midi.NoteOffEvent(tick=11, channel=0, data=[125, 0]),\n",
      "   midi.NoteOffEvent(tick=4, channel=0, data=[72, 0]),\n",
      "   midi.NoteOffEvent(tick=34, channel=0, data=[127, 0]),\n",
      "   midi.NoteOffEvent(tick=3, channel=0, data=[47, 0]),\n",
      "   midi.NoteOffEvent(tick=22, channel=0, data=[78, 0]),\n",
      "   midi.NoteOffEvent(tick=6, channel=0, data=[68, 0]),\n",
      "   midi.NoteOffEvent(tick=7, channel=0, data=[59, 0]),\n",
      "   midi.NoteOffEvent(tick=10, channel=0, data=[17, 0]),\n",
      "   midi.NoteOffEvent(tick=1, channel=0, data=[54, 0]),\n",
      "   midi.NoteOffEvent(tick=3, channel=0, data=[57, 0]),\n",
      "   midi.NoteOffEvent(tick=2, channel=0, data=[73, 0]),\n",
      "   midi.NoteOffEvent(tick=12, channel=0, data=[29, 0]),\n",
      "   midi.NoteOffEvent(tick=3, channel=0, data=[101, 0]),\n",
      "   midi.NoteOffEvent(tick=3, channel=0, data=[32, 0]),\n",
      "   midi.NoteOffEvent(tick=3, channel=0, data=[90, 0]),\n",
      "   midi.NoteOffEvent(tick=0, channel=0, data=[121, 0]),\n",
      "   midi.NoteOffEvent(tick=7, channel=0, data=[23, 0]),\n",
      "   midi.NoteOffEvent(tick=6, channel=0, data=[75, 0]),\n",
      "   midi.NoteOffEvent(tick=2, channel=0, data=[20, 0]),\n",
      "   midi.NoteOffEvent(tick=3, channel=0, data=[66, 0]),\n",
      "   midi.NoteOffEvent(tick=8, channel=0, data=[86, 0]),\n",
      "   midi.NoteOffEvent(tick=2, channel=0, data=[88, 0]),\n",
      "   midi.NoteOffEvent(tick=4, channel=0, data=[81, 0]),\n",
      "   midi.NoteOffEvent(tick=10, channel=0, data=[87, 0]),\n",
      "   midi.NoteOffEvent(tick=1, channel=0, data=[89, 0]),\n",
      "   midi.NoteOffEvent(tick=4, channel=0, data=[71, 0]),\n",
      "   midi.NoteOffEvent(tick=26, channel=0, data=[70, 0]),\n",
      "   midi.NoteOffEvent(tick=8, channel=0, data=[105, 0]),\n",
      "   midi.NoteOffEvent(tick=6, channel=0, data=[43, 0]),\n",
      "   midi.NoteOffEvent(tick=10, channel=0, data=[74, 0]),\n",
      "   midi.NoteOffEvent(tick=0, channel=0, data=[123, 0]),\n",
      "   midi.NoteOffEvent(tick=4, channel=0, data=[102, 0]),\n",
      "   midi.NoteOffEvent(tick=1, channel=0, data=[97, 0]),\n",
      "   midi.NoteOffEvent(tick=2, channel=0, data=[34, 0]),\n",
      "   midi.NoteOffEvent(tick=14, channel=0, data=[58, 0]),\n",
      "   midi.NoteOffEvent(tick=9, channel=0, data=[114, 0]),\n",
      "   midi.NoteOffEvent(tick=8, channel=0, data=[28, 0]),\n",
      "   midi.NoteOffEvent(tick=8, channel=0, data=[15, 0]),\n",
      "   midi.NoteOffEvent(tick=5, channel=0, data=[2, 0]),\n",
      "   midi.NoteOffEvent(tick=1, channel=0, data=[60, 0]),\n",
      "   midi.NoteOffEvent(tick=0, channel=0, data=[82, 0]),\n",
      "   midi.NoteOffEvent(tick=11, channel=0, data=[5, 0]),\n",
      "   midi.NoteOffEvent(tick=6, channel=0, data=[107, 0]),\n",
      "   midi.NoteOffEvent(tick=1, channel=0, data=[85, 0]),\n",
      "   midi.NoteOffEvent(tick=12, channel=0, data=[50, 0]),\n",
      "   midi.NoteOffEvent(tick=17, channel=0, data=[39, 0]),\n",
      "   midi.NoteOffEvent(tick=3, channel=0, data=[96, 0]),\n",
      "   midi.NoteOffEvent(tick=2, channel=0, data=[106, 0]),\n",
      "   midi.NoteOffEvent(tick=14, channel=0, data=[26, 0]),\n",
      "   midi.NoteOffEvent(tick=11, channel=0, data=[52, 0]),\n",
      "   midi.NoteOffEvent(tick=2, channel=0, data=[120, 0]),\n",
      "   midi.NoteOffEvent(tick=4, channel=0, data=[67, 0]),\n",
      "   midi.NoteOffEvent(tick=22, channel=0, data=[69, 0]),\n",
      "   midi.NoteOffEvent(tick=15, channel=0, data=[113, 0]),\n",
      "   midi.NoteOffEvent(tick=18, channel=0, data=[63, 0]),\n",
      "   midi.NoteOffEvent(tick=22, channel=0, data=[116, 0]),\n",
      "   midi.NoteOffEvent(tick=5, channel=0, data=[25, 0]),\n",
      "   midi.NoteOffEvent(tick=7, channel=0, data=[44, 0]),\n",
      "   midi.NoteOffEvent(tick=1, channel=0, data=[77, 0]),\n",
      "   midi.NoteOffEvent(tick=3, channel=0, data=[112, 0]),\n",
      "   midi.NoteOffEvent(tick=11, channel=0, data=[53, 0]),\n",
      "   midi.NoteOffEvent(tick=24, channel=0, data=[35, 0]),\n",
      "   midi.NoteOffEvent(tick=12, channel=0, data=[108, 0]),\n",
      "   midi.NoteOffEvent(tick=13, channel=0, data=[13, 0]),\n",
      "   midi.NoteOffEvent(tick=8, channel=0, data=[100, 0]),\n",
      "   midi.NoteOffEvent(tick=9, channel=0, data=[31, 0]),\n",
      "   midi.NoteOffEvent(tick=19, channel=0, data=[27, 0]),\n",
      "   midi.NoteOffEvent(tick=0, channel=0, data=[49, 0]),\n",
      "   midi.NoteOffEvent(tick=13, channel=0, data=[76, 0]),\n",
      "   midi.NoteOffEvent(tick=13, channel=0, data=[30, 0]),\n",
      "   midi.NoteOffEvent(tick=9, channel=0, data=[124, 0]),\n",
      "   midi.NoteOffEvent(tick=6, channel=0, data=[61, 0]),\n",
      "   midi.NoteOffEvent(tick=13, channel=0, data=[94, 0]),\n",
      "   midi.NoteOffEvent(tick=1, channel=0, data=[99, 0]),\n",
      "   midi.NoteOffEvent(tick=2, channel=0, data=[93, 0]),\n",
      "   midi.NoteOffEvent(tick=3, channel=0, data=[48, 0]),\n",
      "   midi.NoteOffEvent(tick=10, channel=0, data=[98, 0]),\n",
      "   midi.NoteOffEvent(tick=13, channel=0, data=[80, 0]),\n",
      "   midi.NoteOffEvent(tick=21, channel=0, data=[11, 0]),\n",
      "   midi.NoteOffEvent(tick=2, channel=0, data=[33, 0]),\n",
      "   midi.NoteOffEvent(tick=16, channel=0, data=[83, 0]),\n",
      "   midi.NoteOffEvent(tick=14, channel=0, data=[122, 0]),\n",
      "   midi.NoteOffEvent(tick=26, channel=0, data=[55, 0]),\n",
      "   midi.NoteOffEvent(tick=35, channel=0, data=[126, 0]),\n",
      "   midi.NoteOffEvent(tick=10, channel=0, data=[40, 0]),\n",
      "   midi.NoteOffEvent(tick=11, channel=0, data=[7, 0]),\n",
      "   midi.NoteOffEvent(tick=40, channel=0, data=[84, 0]),\n",
      "   midi.NoteOffEvent(tick=19, channel=0, data=[64, 0]),\n",
      "   midi.EndOfTrackEvent(tick=0, data=[])]),\n",
      " midi.Track(\\\n",
      "  [midi.SetTempoEvent(tick=0, data=[4, 147, 224]),\n",
      "   midi.ProgramChangeEvent(tick=0, channel=0, data=[56]),\n",
      "   midi.NoteOnEvent(tick=0, channel=0, data=[83, 58]),\n",
      "   midi.NoteOnEvent(tick=0, channel=0, data=[111, 71]),\n",
      "   midi.NoteOnEvent(tick=0, channel=0, data=[58, 167]),\n",
      "   midi.NoteOnEvent(tick=1, channel=0, data=[93, 232]),\n",
      "   midi.NoteOnEvent(tick=1, channel=0, data=[78, 90]),\n",
      "   midi.NoteOnEvent(tick=0, channel=0, data=[111, 155]),\n",
      "   midi.NoteOnEvent(tick=1, channel=0, data=[3, 156]),\n",
      "   midi.NoteOnEvent(tick=4, channel=0, data=[84, 235]),\n",
      "   midi.NoteOnEvent(tick=6, channel=0, data=[57, 74]),\n",
      "   midi.NoteOnEvent(tick=1, channel=0, data=[95, 229]),\n",
      "   midi.NoteOnEvent(tick=3, channel=0, data=[37, 153]),\n",
      "   midi.NoteOnEvent(tick=0, channel=0, data=[92, 174]),\n",
      "   midi.NoteOnEvent(tick=1, channel=0, data=[19, 154]),\n",
      "   midi.NoteOnEvent(tick=3, channel=0, data=[97, 3]),\n",
      "   midi.NoteOnEvent(tick=1, channel=0, data=[64, 42]),\n",
      "   midi.NoteOnEvent(tick=2, channel=0, data=[43, 194]),\n",
      "   midi.NoteOnEvent(tick=4, channel=0, data=[114, 103]),\n",
      "   midi.NoteOnEvent(tick=1, channel=0, data=[112, 78]),\n",
      "   midi.NoteOnEvent(tick=0, channel=0, data=[116, 10]),\n",
      "   midi.NoteOnEvent(tick=3, channel=0, data=[77, 183]),\n",
      "   midi.NoteOnEvent(tick=2, channel=0, data=[15, 217]),\n",
      "   midi.NoteOnEvent(tick=1, channel=0, data=[122, 177]),\n",
      "   midi.NoteOnEvent(tick=1, channel=0, data=[61, 75]),\n",
      "   midi.NoteOnEvent(tick=1, channel=0, data=[123, 144]),\n",
      "   midi.NoteOnEvent(tick=5, channel=0, data=[56, 144]),\n",
      "   midi.NoteOnEvent(tick=3, channel=0, data=[82, 152]),\n",
      "   midi.NoteOnEvent(tick=1, channel=0, data=[60, 155]),\n",
      "   midi.NoteOnEvent(tick=2, channel=0, data=[4, 35]),\n",
      "   midi.NoteOnEvent(tick=8, channel=0, data=[9, 213]),\n",
      "   midi.NoteOnEvent(tick=3, channel=0, data=[116, 243]),\n",
      "   midi.NoteOnEvent(tick=2, channel=0, data=[8, 16]),\n",
      "   midi.NoteOnEvent(tick=5, channel=0, data=[13, 226]),\n",
      "   midi.NoteOnEvent(tick=2, channel=0, data=[111, 39]),\n",
      "   midi.NoteOnEvent(tick=1, channel=0, data=[99, 150]),\n",
      "   midi.NoteOnEvent(tick=0, channel=0, data=[8, 85]),\n",
      "   midi.NoteOnEvent(tick=1, channel=0, data=[10, 55]),\n",
      "   midi.NoteOnEvent(tick=0, channel=0, data=[30, 121]),\n",
      "   midi.NoteOnEvent(tick=2, channel=0, data=[13, 14]),\n",
      "   midi.NoteOnEvent(tick=0, channel=0, data=[19, 90]),\n",
      "   midi.NoteOnEvent(tick=1, channel=0, data=[77, 29]),\n",
      "   midi.NoteOnEvent(tick=1, channel=0, data=[18, 78]),\n",
      "   midi.NoteOnEvent(tick=8, channel=0, data=[81, 85]),\n",
      "   midi.NoteOnEvent(tick=4, channel=0, data=[15, 250]),\n",
      "   midi.NoteOnEvent(tick=1, channel=0, data=[95, 16]),\n",
      "   midi.NoteOnEvent(tick=0, channel=0, data=[28, 179]),\n",
      "   midi.NoteOnEvent(tick=4, channel=0, data=[121, 100]),\n",
      "   midi.NoteOnEvent(tick=2, channel=0, data=[10, 232]),\n",
      "   midi.NoteOnEvent(tick=0, channel=0, data=[90, 58]),\n",
      "   midi.NoteOnEvent(tick=1, channel=0, data=[69, 160]),\n",
      "   midi.NoteOnEvent(tick=3, channel=0, data=[52, 33]),\n",
      "   midi.NoteOnEvent(tick=1, channel=0, data=[120, 203]),\n",
      "   midi.NoteOnEvent(tick=3, channel=0, data=[118, 138]),\n",
      "   midi.NoteOnEvent(tick=3, channel=0, data=[62, 244]),\n",
      "   midi.NoteOnEvent(tick=0, channel=0, data=[34, 67]),\n",
      "   midi.NoteOnEvent(tick=1, channel=0, data=[8, 189]),\n",
      "   midi.NoteOnEvent(tick=1, channel=0, data=[31, 55]),\n",
      "   midi.NoteOnEvent(tick=1, channel=0, data=[47, 167]),\n",
      "   midi.NoteOnEvent(tick=3, channel=0, data=[41, 118]),\n",
      "   midi.NoteOnEvent(tick=0, channel=0, data=[62, 253]),\n",
      "   midi.NoteOnEvent(tick=0, channel=0, data=[93, 15]),\n",
      "   midi.NoteOnEvent(tick=8, channel=0, data=[3, 84]),\n",
      "   midi.NoteOnEvent(tick=0, channel=0, data=[119, 6]),\n",
      "   midi.NoteOnEvent(tick=4, channel=0, data=[36, 193]),\n",
      "   midi.NoteOnEvent(tick=0, channel=0, data=[25, 240]),\n",
      "   midi.NoteOnEvent(tick=0, channel=0, data=[9, 115]),\n",
      "   midi.NoteOnEvent(tick=1, channel=0, data=[98, 3]),\n",
      "   midi.NoteOnEvent(tick=0, channel=0, data=[54, 14]),\n",
      "   midi.NoteOnEvent(tick=1, channel=0, data=[89, 219]),\n",
      "   midi.NoteOnEvent(tick=0, channel=0, data=[71, 45]),\n",
      "   midi.NoteOffEvent(tick=1, channel=0, data=[90, 0]),\n",
      "   midi.NoteOffEvent(tick=4, channel=0, data=[98, 0]),\n",
      "   midi.NoteOffEvent(tick=6, channel=0, data=[4, 0]),\n",
      "   midi.NoteOnEvent(tick=1, channel=0, data=[67, 32]),\n",
      "   midi.NoteOnEvent(tick=1, channel=0, data=[14, 252]),\n",
      "   midi.NoteOnEvent(tick=0, channel=0, data=[111, 161]),\n",
      "   midi.NoteOnEvent(tick=1, channel=0, data=[107, 27]),\n",
      "   midi.NoteOnEvent(tick=0, channel=0, data=[107, 198]),\n",
      "   midi.NoteOnEvent(tick=2, channel=0, data=[3, 146]),\n",
      "   midi.NoteOnEvent(tick=1, channel=0, data=[117, 43]),\n",
      "   midi.NoteOnEvent(tick=1, channel=0, data=[61, 241]),\n",
      "   midi.NoteOnEvent(tick=2, channel=0, data=[118, 118]),\n",
      "   midi.NoteOnEvent(tick=6, channel=0, data=[3, 100]),\n",
      "   midi.NoteOffEvent(tick=2, channel=0, data=[52, 0]),\n",
      "   midi.NoteOffEvent(tick=0, channel=0, data=[107, 0]),\n",
      "   midi.NoteOnEvent(tick=1, channel=0, data=[105, 214]),\n",
      "   midi.NoteOnEvent(tick=2, channel=0, data=[77, 8]),\n",
      "   midi.NoteOnEvent(tick=1, channel=0, data=[110, 125]),\n",
      "   midi.NoteOnEvent(tick=1, channel=0, data=[19, 252]),\n",
      "   midi.NoteOnEvent(tick=1, channel=0, data=[74, 165]),\n",
      "   midi.NoteOnEvent(tick=1, channel=0, data=[82, 77]),\n",
      "   midi.NoteOnEvent(tick=1, channel=0, data=[88, 228]),\n",
      "   midi.NoteOnEvent(tick=1, channel=0, data=[12, 6]),\n",
      "   midi.NoteOnEvent(tick=2, channel=0, data=[117, 91]),\n",
      "   midi.NoteOnEvent(tick=2, channel=0, data=[16, 96]),\n",
      "   midi.NoteOnEvent(tick=2, channel=0, data=[107, 5]),\n",
      "   midi.NoteOnEvent(tick=3, channel=0, data=[60, 106]),\n",
      "   midi.NoteOnEvent(tick=1, channel=0, data=[102, 251]),\n",
      "   midi.NoteOnEvent(tick=0, channel=0, data=[21, 2]),\n",
      "   midi.NoteOnEvent(tick=1, channel=0, data=[62, 215]),\n",
      "   midi.NoteOnEvent(tick=1, channel=0, data=[22, 194]),\n",
      "   midi.NoteOnEvent(tick=5, channel=0, data=[14, 41]),\n",
      "   midi.NoteOnEvent(tick=0, channel=0, data=[79, 200]),\n",
      "   midi.NoteOffEvent(tick=1, channel=0, data=[107, 0]),\n",
      "   midi.NoteOffEvent(tick=6, channel=0, data=[60, 0]),\n",
      "   midi.NoteOnEvent(tick=0, channel=0, data=[26, 186]),\n",
      "   midi.NoteOffEvent(tick=8, channel=0, data=[16, 0]),\n",
      "   midi.NoteOnEvent(tick=0, channel=0, data=[124, 114]),\n",
      "   midi.NoteOnEvent(tick=3, channel=0, data=[76, 67]),\n",
      "   midi.NoteOnEvent(tick=1, channel=0, data=[103, 199]),\n",
      "   midi.NoteOnEvent(tick=2, channel=0, data=[10, 194]),\n",
      "   midi.NoteOnEvent(tick=2, channel=0, data=[77, 77]),\n",
      "   midi.NoteOnEvent(tick=1, channel=0, data=[123, 13]),\n",
      "   midi.NoteOnEvent(tick=3, channel=0, data=[87, 139]),\n",
      "   midi.NoteOnEvent(tick=1, channel=0, data=[24, 195]),\n",
      "   midi.NoteOnEvent(tick=0, channel=0, data=[46, 195]),\n",
      "   midi.NoteOnEvent(tick=3, channel=0, data=[81, 53]),\n",
      "   midi.NoteOnEvent(tick=0, channel=0, data=[82, 237]),\n",
      "   midi.NoteOnEvent(tick=2, channel=0, data=[124, 69]),\n",
      "   midi.NoteOnEvent(tick=0, channel=0, data=[91, 6]),\n",
      "   midi.NoteOffEvent(tick=1, channel=0, data=[21, 0]),\n",
      "   midi.NoteOnEvent(tick=5, channel=0, data=[34, 68]),\n",
      "   midi.NoteOnEvent(tick=1, channel=0, data=[39, 159]),\n",
      "   midi.NoteOnEvent(tick=2, channel=0, data=[108, 158]),\n",
      "   midi.NoteOnEvent(tick=1, channel=0, data=[123, 228]),\n",
      "   midi.NoteOnEvent(tick=2, channel=0, data=[33, 54]),\n",
      "   midi.NoteOffEvent(tick=4, channel=0, data=[99, 0]),\n",
      "   midi.NoteOnEvent(tick=0, channel=0, data=[38, 208]),\n",
      "   midi.NoteOnEvent(tick=0, channel=0, data=[58, 163]),\n",
      "   midi.NoteOnEvent(tick=4, channel=0, data=[74, 220]),\n",
      "   midi.NoteOnEvent(tick=8, channel=0, data=[52, 65]),\n",
      "   midi.NoteOnEvent(tick=1, channel=0, data=[38, 188]),\n",
      "   midi.NoteOnEvent(tick=6, channel=0, data=[14, 251]),\n",
      "   midi.NoteOnEvent(tick=0, channel=0, data=[7, 191]),\n",
      "   midi.NoteOffEvent(tick=5, channel=0, data=[121, 0]),\n",
      "   midi.NoteOnEvent(tick=0, channel=0, data=[127, 85]),\n",
      "   midi.NoteOnEvent(tick=3, channel=0, data=[10, 59]),\n",
      "   midi.NoteOnEvent(tick=3, channel=0, data=[116, 253]),\n",
      "   midi.NoteOffEvent(tick=3, channel=0, data=[12, 0]),\n",
      "   midi.NoteOnEvent(tick=4, channel=0, data=[77, 128]),\n",
      "   midi.NoteOnEvent(tick=2, channel=0, data=[77, 141]),\n",
      "   midi.NoteOnEvent(tick=5, channel=0, data=[25, 166]),\n",
      "   midi.NoteOnEvent(tick=3, channel=0, data=[92, 202]),\n",
      "   midi.NoteOffEvent(tick=2, channel=0, data=[123, 0]),\n",
      "   midi.NoteOnEvent(tick=5, channel=0, data=[127, 179]),\n",
      "   midi.NoteOnEvent(tick=1, channel=0, data=[42, 41]),\n",
      "   midi.NoteOnEvent(tick=2, channel=0, data=[12, 211]),\n",
      "   midi.NoteOffEvent(tick=3, channel=0, data=[124, 0]),\n",
      "   midi.NoteOnEvent(tick=2, channel=0, data=[58, 169]),\n",
      "   midi.NoteOnEvent(tick=0, channel=0, data=[109, 251]),\n",
      "   midi.NoteOnEvent(tick=1, channel=0, data=[122, 188]),\n",
      "   midi.NoteOffEvent(tick=3, channel=0, data=[102, 0]),\n",
      "   midi.NoteOnEvent(tick=2, channel=0, data=[34, 33]),\n",
      "   midi.NoteOffEvent(tick=1, channel=0, data=[84, 0]),\n",
      "   midi.NoteOnEvent(tick=6, channel=0, data=[12, 146]),\n",
      "   midi.NoteOnEvent(tick=6, channel=0, data=[51, 233]),\n",
      "   midi.NoteOnEvent(tick=1, channel=0, data=[73, 179]),\n",
      "   midi.NoteOnEvent(tick=1, channel=0, data=[70, 70]),\n",
      "   midi.NoteOnEvent(tick=1, channel=0, data=[121, 218]),\n",
      "   midi.NoteOffEvent(tick=10, channel=0, data=[51, 0]),\n",
      "   midi.NoteOnEvent(tick=0, channel=0, data=[17, 120]),\n",
      "   midi.NoteOnEvent(tick=4, channel=0, data=[101, 147]),\n",
      "   midi.NoteOnEvent(tick=2, channel=0, data=[57, 249]),\n",
      "   midi.NoteOnEvent(tick=1, channel=0, data=[9, 135]),\n",
      "   midi.NoteOnEvent(tick=2, channel=0, data=[105, 212]),\n",
      "   midi.NoteOnEvent(tick=2, channel=0, data=[109, 183]),\n",
      "   midi.NoteOnEvent(tick=0, channel=0, data=[14, 209]),\n",
      "   midi.NoteOnEvent(tick=3, channel=0, data=[63, 125]),\n",
      "   midi.NoteOnEvent(tick=2, channel=0, data=[107, 237]),\n",
      "   midi.NoteOnEvent(tick=2, channel=0, data=[47, 215]),\n",
      "   midi.NoteOnEvent(tick=0, channel=0, data=[110, 112]),\n",
      "   midi.NoteOnEvent(tick=2, channel=0, data=[65, 106]),\n",
      "   midi.NoteOnEvent(tick=0, channel=0, data=[115, 95]),\n",
      "   midi.NoteOnEvent(tick=3, channel=0, data=[98, 64]),\n",
      "   midi.NoteOffEvent(tick=5, channel=0, data=[117, 0]),\n",
      "   midi.NoteOnEvent(tick=1, channel=0, data=[43, 15]),\n",
      "   midi.NoteOnEvent(tick=2, channel=0, data=[21, 13]),\n",
      "   midi.NoteOnEvent(tick=1, channel=0, data=[58, 111]),\n",
      "   midi.NoteOnEvent(tick=1, channel=0, data=[90, 171]),\n",
      "   midi.NoteOnEvent(tick=1, channel=0, data=[102, 6]),\n",
      "   midi.NoteOnEvent(tick=1, channel=0, data=[47, 57]),\n",
      "   midi.NoteOnEvent(tick=1, channel=0, data=[59, 79]),\n",
      "   midi.NoteOnEvent(tick=1, channel=0, data=[22, 97]),\n",
      "   midi.NoteOnEvent(tick=1, channel=0, data=[92, 87]),\n",
      "   midi.NoteOnEvent(tick=0, channel=0, data=[118, 86]),\n",
      "   midi.NoteOnEvent(tick=3, channel=0, data=[46, 188]),\n",
      "   midi.NoteOnEvent(tick=0, channel=0, data=[24, 28]),\n",
      "   midi.NoteOnEvent(tick=1, channel=0, data=[30, 163]),\n",
      "   midi.NoteOnEvent(tick=2, channel=0, data=[68, 68]),\n",
      "   midi.NoteOffEvent(tick=2, channel=0, data=[89, 0]),\n",
      "   midi.NoteOnEvent(tick=0, channel=0, data=[68, 37]),\n",
      "   midi.NoteOnEvent(tick=0, channel=0, data=[64, 121]),\n",
      "   midi.NoteOnEvent(tick=1, channel=0, data=[40, 181]),\n",
      "   midi.NoteOffEvent(tick=4, channel=0, data=[30, 0]),\n",
      "   midi.NoteOnEvent(tick=1, channel=0, data=[63, 153]),\n",
      "   midi.NoteOnEvent(tick=4, channel=0, data=[88, 255]),\n",
      "   midi.NoteOnEvent(tick=0, channel=0, data=[55, 233]),\n",
      "   midi.NoteOnEvent(tick=0, channel=0, data=[93, 250]),\n",
      "   midi.NoteOnEvent(tick=0, channel=0, data=[45, 84]),\n",
      "   midi.NoteOnEvent(tick=1, channel=0, data=[113, 128]),\n",
      "   midi.NoteOnEvent(tick=6, channel=0, data=[85, 3]),\n",
      "   midi.NoteOffEvent(tick=7, channel=0, data=[112, 0]),\n",
      "   midi.NoteOffEvent(tick=1, channel=0, data=[18, 0]),\n",
      "   midi.NoteOnEvent(tick=1, channel=0, data=[57, 15]),\n",
      "   midi.NoteOnEvent(tick=0, channel=0, data=[2, 92]),\n",
      "   midi.NoteOnEvent(tick=3, channel=0, data=[81, 151]),\n",
      "   midi.NoteOnEvent(tick=0, channel=0, data=[90, 151]),\n",
      "   midi.NoteOnEvent(tick=0, channel=0, data=[38, 3]),\n",
      "   midi.NoteOffEvent(tick=5, channel=0, data=[110, 0]),\n",
      "   midi.NoteOnEvent(tick=0, channel=0, data=[57, 85]),\n",
      "   midi.NoteOnEvent(tick=0, channel=0, data=[17, 213]),\n",
      "   midi.NoteOnEvent(tick=1, channel=0, data=[84, 209]),\n",
      "   midi.NoteOnEvent(tick=1, channel=0, data=[32, 135]),\n",
      "   midi.NoteOnEvent(tick=2, channel=0, data=[127, 204]),\n",
      "   midi.NoteOnEvent(tick=0, channel=0, data=[43, 174]),\n",
      "   midi.NoteOnEvent(tick=1, channel=0, data=[26, 40]),\n",
      "   midi.NoteOnEvent(tick=0, channel=0, data=[87, 198]),\n",
      "   midi.NoteOnEvent(tick=2, channel=0, data=[43, 109]),\n",
      "   midi.NoteOnEvent(tick=3, channel=0, data=[78, 249]),\n",
      "   midi.NoteOnEvent(tick=7, channel=0, data=[48, 106]),\n",
      "   midi.NoteOnEvent(tick=1, channel=0, data=[119, 91]),\n",
      "   midi.NoteOnEvent(tick=0, channel=0, data=[14, 63]),\n",
      "   midi.NoteOnEvent(tick=1, channel=0, data=[90, 61]),\n",
      "   midi.NoteOnEvent(tick=2, channel=0, data=[121, 225]),\n",
      "   midi.NoteOnEvent(tick=0, channel=0, data=[111, 110]),\n",
      "   midi.NoteOnEvent(tick=1, channel=0, data=[2, 212]),\n",
      "   midi.NoteOnEvent(tick=4, channel=0, data=[9, 56]),\n",
      "   midi.NoteOnEvent(tick=1, channel=0, data=[30, 149]),\n",
      "   midi.NoteOnEvent(tick=0, channel=0, data=[68, 58]),\n",
      "   midi.NoteOnEvent(tick=0, channel=0, data=[80, 23]),\n",
      "   midi.NoteOnEvent(tick=1, channel=0, data=[99, 8]),\n",
      "   midi.NoteOnEvent(tick=1, channel=0, data=[0, 115]),\n",
      "   midi.NoteOnEvent(tick=0, channel=0, data=[11, 40]),\n",
      "   midi.NoteOnEvent(tick=0, channel=0, data=[23, 195]),\n",
      "   midi.NoteOnEvent(tick=1, channel=0, data=[22, 129]),\n",
      "   midi.NoteOnEvent(tick=0, channel=0, data=[60, 15]),\n",
      "   midi.NoteOnEvent(tick=1, channel=0, data=[60, 197]),\n",
      "   midi.NoteOnEvent(tick=0, channel=0, data=[45, 112]),\n",
      "   midi.NoteOffEvent(tick=1, channel=0, data=[12, 0]),\n",
      "   midi.NoteOnEvent(tick=0, channel=0, data=[31, 214]),\n",
      "   midi.NoteOnEvent(tick=4, channel=0, data=[109, 132]),\n",
      "   midi.NoteOnEvent(tick=2, channel=0, data=[97, 167]),\n",
      "   midi.NoteOnEvent(tick=1, channel=0, data=[93, 173]),\n",
      "   midi.NoteOnEvent(tick=1, channel=0, data=[54, 66]),\n",
      "   midi.NoteOnEvent(tick=1, channel=0, data=[77, 37]),\n",
      "   midi.NoteOnEvent(tick=0, channel=0, data=[125, 144]),\n",
      "   midi.NoteOffEvent(tick=2, channel=0, data=[43, 0]),\n",
      "   midi.NoteOnEvent(tick=0, channel=0, data=[46, 41]),\n",
      "   midi.NoteOnEvent(tick=0, channel=0, data=[48, 129]),\n",
      "   midi.NoteOnEvent(tick=1, channel=0, data=[75, 253]),\n",
      "   midi.NoteOnEvent(tick=3, channel=0, data=[41, 12]),\n",
      "   midi.NoteOnEvent(tick=1, channel=0, data=[108, 143]),\n",
      "   midi.NoteOnEvent(tick=1, channel=0, data=[96, 17]),\n",
      "   midi.NoteOffEvent(tick=1, channel=0, data=[41, 0]),\n",
      "   midi.NoteOnEvent(tick=1, channel=0, data=[79, 57]),\n",
      "   midi.NoteOnEvent(tick=2, channel=0, data=[13, 150]),\n",
      "   midi.NoteOnEvent(tick=2, channel=0, data=[98, 60]),\n",
      "   midi.NoteOnEvent(tick=1, channel=0, data=[122, 161]),\n",
      "   midi.NoteOnEvent(tick=1, channel=0, data=[108, 240]),\n",
      "   midi.NoteOnEvent(tick=1, channel=0, data=[94, 97]),\n",
      "   midi.NoteOffEvent(tick=1, channel=0, data=[118, 0]),\n",
      "   midi.NoteOnEvent(tick=0, channel=0, data=[93, 32]),\n",
      "   midi.NoteOnEvent(tick=7, channel=0, data=[30, 235]),\n",
      "   midi.NoteOnEvent(tick=6, channel=0, data=[60, 35]),\n",
      "   midi.NoteOnEvent(tick=2, channel=0, data=[25, 241]),\n",
      "   midi.NoteOnEvent(tick=3, channel=0, data=[47, 114]),\n",
      "   midi.NoteOnEvent(tick=2, channel=0, data=[12, 151]),\n",
      "   midi.NoteOnEvent(tick=4, channel=0, data=[99, 2]),\n",
      "   midi.NoteOffEvent(tick=4, channel=0, data=[87, 0]),\n",
      "   midi.NoteOffEvent(tick=1, channel=0, data=[77, 0]),\n",
      "   midi.NoteOnEvent(tick=1, channel=0, data=[7, 44]),\n",
      "   midi.NoteOnEvent(tick=1, channel=0, data=[68, 234]),\n",
      "   midi.NoteOnEvent(tick=4, channel=0, data=[34, 47]),\n",
      "   midi.NoteOnEvent(tick=1, channel=0, data=[36, 37]),\n",
      "   midi.NoteOnEvent(tick=1, channel=0, data=[34, 15]),\n",
      "   midi.NoteOnEvent(tick=0, channel=0, data=[57, 164]),\n",
      "   midi.NoteOffEvent(tick=1, channel=0, data=[58, 0]),\n",
      "   midi.NoteOnEvent(tick=0, channel=0, data=[79, 15]),\n",
      "   midi.NoteOnEvent(tick=1, channel=0, data=[57, 37]),\n",
      "   midi.NoteOnEvent(tick=1, channel=0, data=[103, 193]),\n",
      "   midi.NoteOffEvent(tick=1, channel=0, data=[0, 0]),\n",
      "   midi.NoteOnEvent(tick=1, channel=0, data=[8, 220]),\n",
      "   midi.NoteOnEvent(tick=0, channel=0, data=[23, 51]),\n",
      "   midi.NoteOnEvent(tick=1, channel=0, data=[84, 131]),\n",
      "   midi.NoteOffEvent(tick=2, channel=0, data=[46, 0]),\n",
      "   midi.NoteOnEvent(tick=0, channel=0, data=[113, 62]),\n",
      "   midi.NoteOnEvent(tick=1, channel=0, data=[112, 142]),\n",
      "   midi.NoteOnEvent(tick=3, channel=0, data=[96, 83]),\n",
      "   midi.NoteOnEvent(tick=2, channel=0, data=[73, 71]),\n",
      "   midi.NoteOnEvent(tick=1, channel=0, data=[125, 35]),\n",
      "   midi.NoteOnEvent(tick=1, channel=0, data=[106, 21]),\n",
      "   midi.NoteOnEvent(tick=1, channel=0, data=[45, 212]),\n",
      "   midi.NoteOffEvent(tick=1, channel=0, data=[84, 0]),\n",
      "   midi.NoteOnEvent(tick=0, channel=0, data=[21, 28]),\n",
      "   midi.NoteOnEvent(tick=2, channel=0, data=[73, 59]),\n",
      "   midi.NoteOffEvent(tick=2, channel=0, data=[38, 0]),\n",
      "   midi.NoteOnEvent(tick=0, channel=0, data=[2, 71]),\n",
      "   midi.NoteOffEvent(tick=1, channel=0, data=[24, 0]),\n",
      "   midi.NoteOnEvent(tick=0, channel=0, data=[92, 220]),\n",
      "   midi.NoteOnEvent(tick=2, channel=0, data=[54, 0]),\n",
      "   midi.NoteOnEvent(tick=3, channel=0, data=[15, 16]),\n",
      "   midi.NoteOnEvent(tick=1, channel=0, data=[34, 114]),\n",
      "   midi.NoteOffEvent(tick=4, channel=0, data=[65, 0]),\n",
      "   midi.NoteOnEvent(tick=1, channel=0, data=[29, 203]),\n",
      "   midi.NoteOnEvent(tick=4, channel=0, data=[117, 245]),\n",
      "   midi.NoteOnEvent(tick=0, channel=0, data=[93, 158]),\n",
      "   midi.NoteOnEvent(tick=4, channel=0, data=[77, 202]),\n",
      "   midi.NoteOnEvent(tick=1, channel=0, data=[77, 204]),\n",
      "   midi.NoteOnEvent(tick=4, channel=0, data=[32, 101]),\n",
      "   midi.NoteOffEvent(tick=3, channel=0, data=[74, 0]),\n",
      "   midi.NoteOnEvent(tick=2, channel=0, data=[39, 45]),\n",
      "   midi.NoteOnEvent(tick=1, channel=0, data=[100, 57]),\n",
      "   midi.NoteOnEvent(tick=1, channel=0, data=[108, 99]),\n",
      "   midi.NoteOnEvent(tick=1, channel=0, data=[69, 42]),\n",
      "   midi.NoteOnEvent(tick=0, channel=0, data=[82, 11]),\n",
      "   midi.NoteOnEvent(tick=2, channel=0, data=[72, 196]),\n",
      "   midi.NoteOnEvent(tick=2, channel=0, data=[44, 212]),\n",
      "   midi.NoteOnEvent(tick=0, channel=0, data=[14, 21]),\n",
      "   midi.NoteOnEvent(tick=1, channel=0, data=[15, 58]),\n",
      "   midi.NoteOnEvent(tick=2, channel=0, data=[80, 182]),\n",
      "   midi.NoteOnEvent(tick=0, channel=0, data=[6, 199]),\n",
      "   midi.NoteOffEvent(tick=2, channel=0, data=[19, 0]),\n",
      "   midi.NoteOnEvent(tick=0, channel=0, data=[121, 58]),\n",
      "   midi.NoteOnEvent(tick=2, channel=0, data=[46, 161]),\n",
      "   midi.NoteOffEvent(tick=1, channel=0, data=[64, 0]),\n",
      "   midi.NoteOnEvent(tick=1, channel=0, data=[49, 238]),\n",
      "   midi.NoteOnEvent(tick=0, channel=0, data=[25, 41]),\n",
      "   midi.NoteOnEvent(tick=0, channel=0, data=[59, 51]),\n",
      "   midi.NoteOnEvent(tick=2, channel=0, data=[60, 189]),\n",
      "   midi.NoteOnEvent(tick=1, channel=0, data=[32, 54]),\n",
      "   midi.NoteOnEvent(tick=0, channel=0, data=[51, 58]),\n",
      "   midi.NoteOnEvent(tick=0, channel=0, data=[9, 109]),\n",
      "   midi.NoteOffEvent(tick=2, channel=0, data=[71, 0]),\n",
      "   midi.NoteOnEvent(tick=0, channel=0, data=[30, 151]),\n",
      "   midi.NoteOnEvent(tick=0, channel=0, data=[28, 40]),\n",
      "   midi.NoteOnEvent(tick=0, channel=0, data=[117, 207]),\n",
      "   midi.NoteOnEvent(tick=1, channel=0, data=[12, 129]),\n",
      "   midi.NoteOnEvent(tick=2, channel=0, data=[118, 81]),\n",
      "   midi.NoteOnEvent(tick=2, channel=0, data=[113, 7]),\n",
      "   midi.NoteOnEvent(tick=1, channel=0, data=[70, 14]),\n",
      "   midi.NoteOnEvent(tick=1, channel=0, data=[7, 117]),\n",
      "   midi.NoteOnEvent(tick=2, channel=0, data=[35, 130]),\n",
      "   midi.NoteOnEvent(tick=3, channel=0, data=[32, 49]),\n",
      "   midi.NoteOnEvent(tick=3, channel=0, data=[98, 177]),\n",
      "   midi.NoteOnEvent(tick=1, channel=0, data=[49, 149]),\n",
      "   midi.NoteOnEvent(tick=0, channel=0, data=[99, 83]),\n",
      "   midi.NoteOnEvent(tick=5, channel=0, data=[41, 251]),\n",
      "   midi.NoteOnEvent(tick=1, channel=0, data=[114, 201]),\n",
      "   midi.NoteOnEvent(tick=0, channel=0, data=[36, 94]),\n",
      "   midi.NoteOnEvent(tick=1, channel=0, data=[82, 121]),\n",
      "   midi.NoteOnEvent(tick=3, channel=0, data=[48, 148]),\n",
      "   midi.NoteOffEvent(tick=1, channel=0, data=[112, 0]),\n",
      "   midi.NoteOnEvent(tick=0, channel=0, data=[60, 148]),\n",
      "   midi.NoteOnEvent(tick=1, channel=0, data=[92, 110]),\n",
      "   midi.NoteOnEvent(tick=5, channel=0, data=[116, 39]),\n",
      "   midi.NoteOnEvent(tick=2, channel=0, data=[42, 228]),\n",
      "   midi.NoteOffEvent(tick=1, channel=0, data=[115, 0]),\n",
      "   midi.NoteOnEvent(tick=0, channel=0, data=[22, 13]),\n",
      "   midi.NoteOnEvent(tick=4, channel=0, data=[8, 89]),\n",
      "   midi.NoteOnEvent(tick=3, channel=0, data=[82, 1]),\n",
      "   midi.NoteOnEvent(tick=1, channel=0, data=[39, 143]),\n",
      "   midi.NoteOnEvent(tick=3, channel=0, data=[56, 118]),\n",
      "   midi.NoteOnEvent(tick=1, channel=0, data=[91, 132]),\n",
      "   midi.NoteOnEvent(tick=1, channel=0, data=[83, 202]),\n",
      "   midi.NoteOnEvent(tick=2, channel=0, data=[41, 21]),\n",
      "   midi.NoteOnEvent(tick=1, channel=0, data=[68, 72]),\n",
      "   midi.NoteOnEvent(tick=0, channel=0, data=[120, 221]),\n",
      "   midi.NoteOnEvent(tick=0, channel=0, data=[109, 8]),\n",
      "   midi.NoteOffEvent(tick=1, channel=0, data=[47, 0]),\n",
      "   midi.NoteOnEvent(tick=0, channel=0, data=[44, 141]),\n",
      "   midi.NoteOnEvent(tick=1, channel=0, data=[20, 150]),\n",
      "   midi.NoteOnEvent(tick=0, channel=0, data=[58, 72]),\n",
      "   midi.NoteOnEvent(tick=1, channel=0, data=[4, 135]),\n",
      "   midi.NoteOffEvent(tick=1, channel=0, data=[51, 0]),\n",
      "   midi.NoteOffEvent(tick=2, channel=0, data=[42, 0]),\n",
      "   midi.NoteOnEvent(tick=0, channel=0, data=[67, 252]),\n",
      "   midi.NoteOnEvent(tick=1, channel=0, data=[94, 247]),\n",
      "   midi.NoteOnEvent(tick=2, channel=0, data=[79, 154]),\n",
      "   midi.NoteOffEvent(tick=3, channel=0, data=[10, 0]),\n",
      "   midi.NoteOffEvent(tick=0, channel=0, data=[40, 0]),\n",
      "   midi.NoteOffEvent(tick=0, channel=0, data=[125, 0]),\n",
      "   midi.NoteOnEvent(tick=2, channel=0, data=[113, 6]),\n",
      "   midi.NoteOnEvent(tick=2, channel=0, data=[87, 93]),\n",
      "   midi.NoteOffEvent(tick=2, channel=0, data=[108, 0]),\n",
      "   midi.NoteOffEvent(tick=1, channel=0, data=[85, 0]),\n",
      "   midi.NoteOffEvent(tick=2, channel=0, data=[63, 0]),\n",
      "   midi.NoteOnEvent(tick=0, channel=0, data=[76, 103]),\n",
      "   midi.NoteOnEvent(tick=1, channel=0, data=[20, 117]),\n",
      "   midi.NoteOnEvent(tick=0, channel=0, data=[90, 71]),\n",
      "   midi.NoteOnEvent(tick=6, channel=0, data=[1, 209]),\n",
      "   midi.NoteOnEvent(tick=0, channel=0, data=[124, 53]),\n",
      "   midi.NoteOnEvent(tick=1, channel=0, data=[3, 180]),\n",
      "   midi.NoteOnEvent(tick=1, channel=0, data=[113, 58]),\n",
      "   midi.NoteOffEvent(tick=1, channel=0, data=[49, 0]),\n",
      "   midi.NoteOnEvent(tick=0, channel=0, data=[69, 108]),\n",
      "   midi.NoteOnEvent(tick=1, channel=0, data=[87, 145]),\n",
      "   midi.NoteOnEvent(tick=1, channel=0, data=[118, 140]),\n",
      "   midi.NoteOnEvent(tick=1, channel=0, data=[17, 28]),\n",
      "   midi.NoteOnEvent(tick=0, channel=0, data=[80, 16]),\n",
      "   midi.NoteOnEvent(tick=1, channel=0, data=[76, 227]),\n",
      "   midi.NoteOffEvent(tick=1, channel=0, data=[46, 0]),\n",
      "   midi.NoteOnEvent(tick=0, channel=0, data=[76, 88]),\n",
      "   midi.NoteOnEvent(tick=1, channel=0, data=[14, 216]),\n",
      "   midi.NoteOnEvent(tick=2, channel=0, data=[2, 120]),\n",
      "   midi.NoteOnEvent(tick=2, channel=0, data=[41, 188]),\n",
      "   midi.NoteOffEvent(tick=2, channel=0, data=[109, 0]),\n",
      "   midi.NoteOnEvent(tick=4, channel=0, data=[78, 50]),\n",
      "   midi.NoteOnEvent(tick=3, channel=0, data=[97, 226]),\n",
      "   midi.NoteOnEvent(tick=0, channel=0, data=[100, 75]),\n",
      "   midi.NoteOnEvent(tick=2, channel=0, data=[125, 73]),\n",
      "   midi.NoteOnEvent(tick=1, channel=0, data=[80, 51]),\n",
      "   midi.NoteOnEvent(tick=0, channel=0, data=[38, 21]),\n",
      "   midi.NoteOnEvent(tick=1, channel=0, data=[87, 129]),\n",
      "   midi.NoteOnEvent(tick=3, channel=0, data=[121, 156]),\n",
      "   midi.NoteOffEvent(tick=1, channel=0, data=[114, 0]),\n",
      "   midi.NoteOnEvent(tick=0, channel=0, data=[27, 8]),\n",
      "   midi.NoteOnEvent(tick=2, channel=0, data=[38, 49]),\n",
      "   midi.NoteOnEvent(tick=3, channel=0, data=[48, 229]),\n",
      "   midi.NoteOnEvent(tick=5, channel=0, data=[54, 245]),\n",
      "   midi.NoteOnEvent(tick=1, channel=0, data=[24, 123]),\n",
      "   midi.NoteOnEvent(tick=2, channel=0, data=[67, 149]),\n",
      "   midi.NoteOnEvent(tick=0, channel=0, data=[10, 234]),\n",
      "   midi.NoteOnEvent(tick=1, channel=0, data=[65, 231]),\n",
      "   midi.NoteOnEvent(tick=0, channel=0, data=[59, 91]),\n",
      "   midi.NoteOnEvent(tick=4, channel=0, data=[71, 32]),\n",
      "   midi.NoteOnEvent(tick=1, channel=0, data=[73, 164]),\n",
      "   midi.NoteOnEvent(tick=3, channel=0, data=[37, 237]),\n",
      "   midi.NoteOnEvent(tick=2, channel=0, data=[104, 214]),\n",
      "   midi.NoteOnEvent(tick=2, channel=0, data=[1, 86]),\n",
      "   midi.NoteOffEvent(tick=1, channel=0, data=[23, 0]),\n",
      "   midi.NoteOnEvent(tick=0, channel=0, data=[18, 95]),\n",
      "   midi.NoteOffEvent(tick=3, channel=0, data=[44, 0]),\n",
      "   midi.NoteOnEvent(tick=2, channel=0, data=[2, 86]),\n",
      "   midi.NoteOnEvent(tick=2, channel=0, data=[83, 159]),\n",
      "   midi.NoteOnEvent(tick=1, channel=0, data=[91, 191]),\n",
      "   midi.NoteOffEvent(tick=4, channel=0, data=[92, 0]),\n",
      "   midi.NoteOffEvent(tick=1, channel=0, data=[21, 0]),\n",
      "   midi.NoteOnEvent(tick=0, channel=0, data=[97, 93]),\n",
      "   midi.NoteOnEvent(tick=1, channel=0, data=[115, 160]),\n",
      "   midi.NoteOnEvent(tick=1, channel=0, data=[67, 34]),\n",
      "   midi.NoteOffEvent(tick=4, channel=0, data=[27, 0]),\n",
      "   midi.NoteOnEvent(tick=0, channel=0, data=[126, 147]),\n",
      "   midi.NoteOffEvent(tick=1, channel=0, data=[8, 0]),\n",
      "   midi.NoteOnEvent(tick=1, channel=0, data=[69, 221]),\n",
      "   midi.NoteOffEvent(tick=1, channel=0, data=[2, 0]),\n",
      "   midi.NoteOnEvent(tick=1, channel=0, data=[100, 50]),\n",
      "   midi.NoteOnEvent(tick=6, channel=0, data=[81, 23]),\n",
      "   midi.NoteOnEvent(tick=1, channel=0, data=[52, 49]),\n",
      "   midi.NoteOnEvent(tick=1, channel=0, data=[82, 147]),\n",
      "   midi.NoteOnEvent(tick=0, channel=0, data=[26, 92]),\n",
      "   midi.NoteOffEvent(tick=2, channel=0, data=[91, 0]),\n",
      "   midi.NoteOnEvent(tick=1, channel=0, data=[29, 146]),\n",
      "   midi.NoteOnEvent(tick=5, channel=0, data=[26, 247]),\n",
      "   midi.NoteOffEvent(tick=2, channel=0, data=[60, 0]),\n",
      "   midi.NoteOffEvent(tick=1, channel=0, data=[95, 0]),\n",
      "   midi.NoteOnEvent(tick=1, channel=0, data=[72, 69]),\n",
      "   midi.NoteOnEvent(tick=1, channel=0, data=[80, 180]),\n",
      "   midi.NoteOnEvent(tick=0, channel=0, data=[110, 20]),\n",
      "   midi.NoteOnEvent(tick=1, channel=0, data=[106, 199]),\n",
      "   midi.NoteOnEvent(tick=1, channel=0, data=[96, 99]),\n",
      "   midi.NoteOffEvent(tick=1, channel=0, data=[78, 0]),\n",
      "   midi.NoteOnEvent(tick=5, channel=0, data=[25, 96]),\n",
      "   midi.NoteOnEvent(tick=8, channel=0, data=[84, 8]),\n",
      "   midi.NoteOnEvent(tick=1, channel=0, data=[91, 237]),\n",
      "   midi.NoteOffEvent(tick=3, channel=0, data=[30, 0]),\n",
      "   midi.NoteOnEvent(tick=0, channel=0, data=[13, 194]),\n",
      "   midi.NoteOnEvent(tick=1, channel=0, data=[55, 182]),\n",
      "   midi.NoteOnEvent(tick=1, channel=0, data=[93, 146]),\n",
      "   midi.NoteOnEvent(tick=0, channel=0, data=[88, 230]),\n",
      "   midi.NoteOnEvent(tick=1, channel=0, data=[15, 168]),\n",
      "   midi.NoteOnEvent(tick=0, channel=0, data=[85, 114]),\n",
      "   midi.NoteOnEvent(tick=4, channel=0, data=[110, 27]),\n",
      "   midi.NoteOnEvent(tick=0, channel=0, data=[3, 54]),\n",
      "   midi.NoteOnEvent(tick=3, channel=0, data=[72, 17]),\n",
      "   midi.NoteOnEvent(tick=2, channel=0, data=[59, 125]),\n",
      "   midi.NoteOnEvent(tick=1, channel=0, data=[105, 153]),\n",
      "   midi.NoteOnEvent(tick=1, channel=0, data=[50, 236]),\n",
      "   midi.NoteOffEvent(tick=4, channel=0, data=[48, 0]),\n",
      "   midi.NoteOnEvent(tick=1, channel=0, data=[101, 93]),\n",
      "   midi.NoteOnEvent(tick=0, channel=0, data=[122, 129]),\n",
      "   midi.NoteOffEvent(tick=4, channel=0, data=[50, 0]),\n",
      "   midi.NoteOffEvent(tick=1, channel=0, data=[107, 0]),\n",
      "   midi.NoteOnEvent(tick=2, channel=0, data=[124, 186]),\n",
      "   midi.NoteOnEvent(tick=4, channel=0, data=[118, 215]),\n",
      "   midi.NoteOnEvent(tick=2, channel=0, data=[25, 146]),\n",
      "   midi.NoteOnEvent(tick=2, channel=0, data=[116, 243]),\n",
      "   midi.NoteOnEvent(tick=0, channel=0, data=[95, 241]),\n",
      "   midi.NoteOnEvent(tick=0, channel=0, data=[43, 114]),\n",
      "   midi.NoteOnEvent(tick=1, channel=0, data=[23, 174]),\n",
      "   midi.NoteOnEvent(tick=1, channel=0, data=[99, 38]),\n",
      "   midi.NoteOnEvent(tick=1, channel=0, data=[118, 144]),\n",
      "   midi.NoteOnEvent(tick=9, channel=0, data=[106, 171]),\n",
      "   midi.NoteOnEvent(tick=6, channel=0, data=[127, 91]),\n",
      "   midi.NoteOffEvent(tick=1, channel=0, data=[52, 0]),\n",
      "   midi.NoteOffEvent(tick=3, channel=0, data=[54, 0]),\n",
      "   midi.NoteOffEvent(tick=3, channel=0, data=[7, 0]),\n",
      "   midi.NoteOnEvent(tick=0, channel=0, data=[106, 147]),\n",
      "   midi.NoteOnEvent(tick=0, channel=0, data=[32, 12]),\n",
      "   midi.NoteOnEvent(tick=3, channel=0, data=[95, 8]),\n",
      "   midi.NoteOnEvent(tick=0, channel=0, data=[8, 212]),\n",
      "   midi.NoteOffEvent(tick=2, channel=0, data=[57, 0]),\n",
      "   midi.NoteOnEvent(tick=0, channel=0, data=[32, 14]),\n",
      "   midi.NoteOnEvent(tick=0, channel=0, data=[42, 121]),\n",
      "   midi.NoteOnEvent(tick=0, channel=0, data=[13, 195]),\n",
      "   midi.NoteOnEvent(tick=0, channel=0, data=[124, 160]),\n",
      "   midi.NoteOffEvent(tick=4, channel=0, data=[91, 0]),\n",
      "   midi.NoteOnEvent(tick=1, channel=0, data=[34, 162]),\n",
      "   midi.NoteOnEvent(tick=3, channel=0, data=[76, 83]),\n",
      "   midi.NoteOffEvent(tick=4, channel=0, data=[83, 0]),\n",
      "   midi.NoteOnEvent(tick=0, channel=0, data=[100, 253]),\n",
      "   midi.NoteOnEvent(tick=0, channel=0, data=[29, 180]),\n",
      "   midi.NoteOnEvent(tick=1, channel=0, data=[19, 76]),\n",
      "   midi.NoteOnEvent(tick=1, channel=0, data=[67, 46]),\n",
      "   midi.NoteOnEvent(tick=0, channel=0, data=[127, 88]),\n",
      "   midi.NoteOnEvent(tick=3, channel=0, data=[107, 178]),\n",
      "   midi.NoteOnEvent(tick=1, channel=0, data=[77, 183]),\n",
      "   midi.NoteOnEvent(tick=5, channel=0, data=[97, 27]),\n",
      "   midi.NoteOnEvent(tick=1, channel=0, data=[42, 237]),\n",
      "   midi.NoteOnEvent(tick=1, channel=0, data=[68, 186]),\n",
      "   midi.NoteOnEvent(tick=2, channel=0, data=[5, 160]),\n",
      "   midi.NoteOnEvent(tick=3, channel=0, data=[55, 130]),\n",
      "   midi.NoteOnEvent(tick=6, channel=0, data=[0, 173]),\n",
      "   midi.NoteOffEvent(tick=1, channel=0, data=[33, 0]),\n",
      "   midi.NoteOffEvent(tick=0, channel=0, data=[56, 0]),\n",
      "   midi.NoteOnEvent(tick=2, channel=0, data=[51, 148]),\n",
      "   midi.NoteOnEvent(tick=2, channel=0, data=[111, 37]),\n",
      "   midi.NoteOffEvent(tick=1, channel=0, data=[14, 0]),\n",
      "   midi.NoteOffEvent(tick=1, channel=0, data=[77, 0]),\n",
      "   midi.NoteOnEvent(tick=3, channel=0, data=[32, 209]),\n",
      "   midi.NoteOnEvent(tick=1, channel=0, data=[69, 98]),\n",
      "   midi.NoteOnEvent(tick=4, channel=0, data=[82, 81]),\n",
      "   midi.NoteOnEvent(tick=0, channel=0, data=[111, 161]),\n",
      "   midi.NoteOnEvent(tick=2, channel=0, data=[119, 95]),\n",
      "   midi.NoteOnEvent(tick=2, channel=0, data=[50, 72]),\n",
      "   midi.NoteOnEvent(tick=4, channel=0, data=[67, 59]),\n",
      "   midi.NoteOnEvent(tick=3, channel=0, data=[107, 243]),\n",
      "   midi.NoteOnEvent(tick=1, channel=0, data=[96, 216]),\n",
      "   midi.NoteOffEvent(tick=5, channel=0, data=[119, 0]),\n",
      "   midi.NoteOnEvent(tick=2, channel=0, data=[43, 140]),\n",
      "   midi.NoteOnEvent(tick=3, channel=0, data=[53, 1]),\n",
      "   midi.NoteOffEvent(tick=2, channel=0, data=[68, 0]),\n",
      "   midi.NoteOnEvent(tick=1, channel=0, data=[72, 110]),\n",
      "   midi.NoteOffEvent(tick=2, channel=0, data=[35, 0]),\n",
      "   midi.NoteOnEvent(tick=2, channel=0, data=[123, 169]),\n",
      "   midi.NoteOnEvent(tick=4, channel=0, data=[79, 68]),\n",
      "   midi.NoteOnEvent(tick=1, channel=0, data=[105, 249]),\n",
      "   midi.NoteOffEvent(tick=1, channel=0, data=[61, 0]),\n",
      "   midi.NoteOffEvent(tick=4, channel=0, data=[93, 0]),\n",
      "   midi.NoteOnEvent(tick=1, channel=0, data=[95, 93]),\n",
      "   midi.NoteOffEvent(tick=2, channel=0, data=[124, 0]),\n",
      "   midi.NoteOffEvent(tick=1, channel=0, data=[25, 0]),\n",
      "   midi.NoteOnEvent(tick=1, channel=0, data=[72, 77]),\n",
      "   midi.NoteOnEvent(tick=2, channel=0, data=[78, 183]),\n",
      "   midi.NoteOnEvent(tick=0, channel=0, data=[34, 120]),\n",
      "   midi.NoteOnEvent(tick=2, channel=0, data=[70, 190]),\n",
      "   midi.NoteOnEvent(tick=4, channel=0, data=[46, 130]),\n",
      "   midi.NoteOnEvent(tick=1, channel=0, data=[77, 156]),\n",
      "   midi.NoteOnEvent(tick=0, channel=0, data=[67, 179]),\n",
      "   midi.NoteOnEvent(tick=1, channel=0, data=[32, 27]),\n",
      "   midi.NoteOffEvent(tick=4, channel=0, data=[5, 0]),\n",
      "   midi.NoteOnEvent(tick=0, channel=0, data=[20, 129]),\n",
      "   midi.NoteOnEvent(tick=0, channel=0, data=[105, 184]),\n",
      "   midi.NoteOnEvent(tick=2, channel=0, data=[67, 71]),\n",
      "   midi.NoteOnEvent(tick=1, channel=0, data=[45, 49]),\n",
      "   midi.NoteOnEvent(tick=3, channel=0, data=[16, 203]),\n",
      "   midi.NoteOnEvent(tick=1, channel=0, data=[98, 151]),\n",
      "   midi.NoteOnEvent(tick=2, channel=0, data=[87, 81]),\n",
      "   midi.NoteOnEvent(tick=1, channel=0, data=[13, 191]),\n",
      "   midi.NoteOnEvent(tick=1, channel=0, data=[117, 200]),\n",
      "   midi.NoteOnEvent(tick=1, channel=0, data=[97, 8]),\n",
      "   midi.NoteOnEvent(tick=0, channel=0, data=[31, 49]),\n",
      "   midi.NoteOnEvent(tick=0, channel=0, data=[67, 172]),\n",
      "   midi.NoteOnEvent(tick=1, channel=0, data=[38, 7]),\n",
      "   midi.NoteOnEvent(tick=2, channel=0, data=[114, 232]),\n",
      "   midi.NoteOnEvent(tick=4, channel=0, data=[21, 70]),\n",
      "   midi.NoteOnEvent(tick=2, channel=0, data=[47, 165]),\n",
      "   midi.NoteOnEvent(tick=1, channel=0, data=[16, 138]),\n",
      "   midi.NoteOffEvent(tick=1, channel=0, data=[125, 0]),\n",
      "   midi.NoteOffEvent(tick=1, channel=0, data=[115, 0]),\n",
      "   midi.NoteOnEvent(tick=3, channel=0, data=[5, 235]),\n",
      "   midi.NoteOnEvent(tick=1, channel=0, data=[9, 232]),\n",
      "   midi.NoteOnEvent(tick=2, channel=0, data=[56, 104]),\n",
      "   midi.NoteOnEvent(tick=0, channel=0, data=[97, 51]),\n",
      "   midi.NoteOnEvent(tick=2, channel=0, data=[39, 9]),\n",
      "   midi.NoteOnEvent(tick=5, channel=0, data=[11, 167]),\n",
      "   midi.NoteOnEvent(tick=1, channel=0, data=[12, 75]),\n",
      "   midi.NoteOnEvent(tick=2, channel=0, data=[88, 26]),\n",
      "   midi.NoteOnEvent(tick=0, channel=0, data=[89, 222]),\n",
      "   midi.NoteOnEvent(tick=1, channel=0, data=[81, 184]),\n",
      "   midi.NoteOnEvent(tick=3, channel=0, data=[34, 118]),\n",
      "   midi.NoteOnEvent(tick=9, channel=0, data=[12, 160]),\n",
      "   midi.NoteOffEvent(tick=20, channel=0, data=[24, 0]),\n",
      "   midi.NoteOffEvent(tick=0, channel=0, data=[126, 0]),\n",
      "   midi.NoteOffEvent(tick=9, channel=0, data=[9, 0]),\n",
      "   midi.NoteOffEvent(tick=4, channel=0, data=[23, 0]),\n",
      "   midi.NoteOffEvent(tick=10, channel=0, data=[56, 0]),\n",
      "   midi.NoteOffEvent(tick=3, channel=0, data=[3, 0]),\n",
      "   midi.NoteOffEvent(tick=3, channel=0, data=[98, 0]),\n",
      "   midi.NoteOffEvent(tick=4, channel=0, data=[28, 0]),\n",
      "   midi.NoteOffEvent(tick=0, channel=0, data=[104, 0]),\n",
      "   midi.NoteOffEvent(tick=15, channel=0, data=[73, 0]),\n",
      "   midi.NoteOffEvent(tick=1, channel=0, data=[50, 0]),\n",
      "   midi.NoteOffEvent(tick=3, channel=0, data=[75, 0]),\n",
      "   midi.NoteOffEvent(tick=4, channel=0, data=[62, 0]),\n",
      "   midi.NoteOffEvent(tick=13, channel=0, data=[10, 0]),\n",
      "   midi.NoteOffEvent(tick=5, channel=0, data=[80, 0]),\n",
      "   midi.NoteOffEvent(tick=3, channel=0, data=[38, 0]),\n",
      "   midi.NoteOffEvent(tick=2, channel=0, data=[127, 0]),\n",
      "   midi.NoteOffEvent(tick=7, channel=0, data=[99, 0]),\n",
      "   midi.NoteOffEvent(tick=13, channel=0, data=[43, 0]),\n",
      "   midi.NoteOffEvent(tick=6, channel=0, data=[82, 0]),\n",
      "   midi.NoteOffEvent(tick=24, channel=0, data=[117, 0]),\n",
      "   midi.NoteOffEvent(tick=17, channel=0, data=[42, 0]),\n",
      "   midi.NoteOffEvent(tick=2, channel=0, data=[107, 0]),\n",
      "   midi.NoteOffEvent(tick=0, channel=0, data=[111, 0]),\n",
      "   midi.NoteOffEvent(tick=16, channel=0, data=[15, 0]),\n",
      "   midi.NoteOffEvent(tick=13, channel=0, data=[69, 0]),\n",
      "   midi.NoteOffEvent(tick=1, channel=0, data=[20, 0]),\n",
      "   midi.NoteOffEvent(tick=2, channel=0, data=[103, 0]),\n",
      "   midi.NoteOffEvent(tick=4, channel=0, data=[105, 0]),\n",
      "   midi.NoteOffEvent(tick=14, channel=0, data=[16, 0]),\n",
      "   midi.NoteOffEvent(tick=5, channel=0, data=[6, 0]),\n",
      "   midi.NoteOffEvent(tick=2, channel=0, data=[36, 0]),\n",
      "   midi.NoteOffEvent(tick=2, channel=0, data=[4, 0]),\n",
      "   midi.NoteOffEvent(tick=9, channel=0, data=[90, 0]),\n",
      "   midi.NoteOffEvent(tick=6, channel=0, data=[8, 0]),\n",
      "   midi.NoteOffEvent(tick=4, channel=0, data=[11, 0]),\n",
      "   midi.NoteOffEvent(tick=42, channel=0, data=[72, 0]),\n",
      "   midi.NoteOffEvent(tick=13, channel=0, data=[65, 0]),\n",
      "   midi.NoteOffEvent(tick=2, channel=0, data=[102, 0]),\n",
      "   midi.NoteOffEvent(tick=7, channel=0, data=[18, 0]),\n",
      "   midi.NoteOffEvent(tick=16, channel=0, data=[100, 0]),\n",
      "   midi.NoteOffEvent(tick=2, channel=0, data=[22, 0]),\n",
      "   midi.NoteOffEvent(tick=2, channel=0, data=[55, 0]),\n",
      "   midi.NoteOffEvent(tick=5, channel=0, data=[21, 0]),\n",
      "   midi.NoteOffEvent(tick=2, channel=0, data=[110, 0]),\n",
      "   midi.NoteOffEvent(tick=8, channel=0, data=[17, 0]),\n",
      "   midi.NoteOffEvent(tick=11, channel=0, data=[94, 0]),\n",
      "   midi.NoteOffEvent(tick=11, channel=0, data=[121, 0]),\n",
      "   midi.NoteOffEvent(tick=4, channel=0, data=[77, 0]),\n",
      "   midi.NoteOffEvent(tick=6, channel=0, data=[47, 0]),\n",
      "   midi.NoteOffEvent(tick=3, channel=0, data=[123, 0]),\n",
      "   midi.NoteOffEvent(tick=1, channel=0, data=[85, 0]),\n",
      "   midi.NoteOffEvent(tick=7, channel=0, data=[59, 0]),\n",
      "   midi.NoteOffEvent(tick=8, channel=0, data=[1, 0]),\n",
      "   midi.NoteOffEvent(tick=8, channel=0, data=[76, 0]),\n",
      "   midi.NoteOffEvent(tick=2, channel=0, data=[120, 0]),\n",
      "   midi.NoteOffEvent(tick=6, channel=0, data=[37, 0]),\n",
      "   midi.NoteOffEvent(tick=17, channel=0, data=[41, 0]),\n",
      "   midi.NoteOffEvent(tick=25, channel=0, data=[71, 0]),\n",
      "   midi.NoteOffEvent(tick=46, channel=0, data=[81, 0]),\n",
      "   midi.NoteOffEvent(tick=30, channel=0, data=[19, 0]),\n",
      "   midi.NoteOffEvent(tick=13, channel=0, data=[70, 0]),\n",
      "   midi.NoteOffEvent(tick=3, channel=0, data=[96, 0]),\n",
      "   midi.NoteOffEvent(tick=2, channel=0, data=[58, 0]),\n",
      "   midi.NoteOffEvent(tick=6, channel=0, data=[26, 0]),\n",
      "   midi.NoteOffEvent(tick=10, channel=0, data=[13, 0]),\n",
      "   midi.NoteOffEvent(tick=11, channel=0, data=[53, 0]),\n",
      "   midi.NoteOffEvent(tick=2, channel=0, data=[95, 0]),\n",
      "   midi.NoteOffEvent(tick=4, channel=0, data=[97, 0]),\n",
      "   midi.NoteOffEvent(tick=10, channel=0, data=[113, 0]),\n",
      "   midi.NoteOffEvent(tick=5, channel=0, data=[116, 0]),\n",
      "   midi.NoteOffEvent(tick=15, channel=0, data=[29, 0]),\n",
      "   midi.NoteOffEvent(tick=7, channel=0, data=[106, 0]),\n",
      "   midi.NoteOffEvent(tick=3, channel=0, data=[45, 0]),\n",
      "   midi.NoteOffEvent(tick=7, channel=0, data=[39, 0]),\n",
      "   midi.NoteOffEvent(tick=12, channel=0, data=[31, 0]),\n",
      "   midi.NoteOffEvent(tick=25, channel=0, data=[84, 0]),\n",
      "   midi.NoteOffEvent(tick=4, channel=0, data=[12, 0]),\n",
      "   midi.NoteOffEvent(tick=0, channel=0, data=[122, 0]),\n",
      "   midi.NoteOffEvent(tick=4, channel=0, data=[67, 0]),\n",
      "   midi.NoteOffEvent(tick=6, channel=0, data=[89, 0]),\n",
      "   midi.NoteOffEvent(tick=8, channel=0, data=[114, 0]),\n",
      "   midi.NoteOffEvent(tick=8, channel=0, data=[34, 0]),\n",
      "   midi.NoteOffEvent(tick=1, channel=0, data=[51, 0]),\n",
      "   midi.NoteOffEvent(tick=17, channel=0, data=[87, 0]),\n",
      "   midi.NoteOffEvent(tick=33, channel=0, data=[5, 0]),\n",
      "   midi.NoteOffEvent(tick=4, channel=0, data=[101, 0]),\n",
      "   midi.NoteOffEvent(tick=30, channel=0, data=[0, 0]),\n",
      "   midi.NoteOffEvent(tick=0, channel=0, data=[79, 0]),\n",
      "   midi.NoteOffEvent(tick=16, channel=0, data=[46, 0]),\n",
      "   midi.NoteOffEvent(tick=6, channel=0, data=[118, 0]),\n",
      "   midi.NoteOffEvent(tick=30, channel=0, data=[88, 0]),\n",
      "   midi.NoteOffEvent(tick=33, channel=0, data=[32, 0]),\n",
      "   midi.NoteOffEvent(tick=58, channel=0, data=[78, 0]),\n",
      "   midi.EndOfTrackEvent(tick=0, data=[])]),\n",
      " midi.Track(\\\n",
      "  [midi.SetTempoEvent(tick=0, data=[4, 147, 224]),\n",
      "   midi.ProgramChangeEvent(tick=0, channel=0, data=[4]),\n",
      "   midi.NoteOnEvent(tick=0, channel=0, data=[71, 211]),\n",
      "   midi.NoteOnEvent(tick=0, channel=0, data=[57, 142]),\n",
      "   midi.NoteOnEvent(tick=0, channel=0, data=[42, 74]),\n",
      "   midi.NoteOnEvent(tick=1, channel=0, data=[100, 230]),\n",
      "   midi.NoteOnEvent(tick=1, channel=0, data=[2, 220]),\n",
      "   midi.NoteOnEvent(tick=0, channel=0, data=[88, 227]),\n",
      "   midi.NoteOnEvent(tick=1, channel=0, data=[20, 1]),\n",
      "   midi.NoteOffEvent(tick=4, channel=0, data=[57, 0]),\n",
      "   midi.NoteOnEvent(tick=0, channel=0, data=[13, 149]),\n",
      "   midi.NoteOnEvent(tick=6, channel=0, data=[31, 48]),\n",
      "   midi.NoteOnEvent(tick=1, channel=0, data=[46, 76]),\n",
      "   midi.NoteOnEvent(tick=3, channel=0, data=[104, 15]),\n",
      "   midi.NoteOnEvent(tick=0, channel=0, data=[80, 37]),\n",
      "   midi.NoteOnEvent(tick=1, channel=0, data=[26, 63]),\n",
      "   midi.NoteOnEvent(tick=3, channel=0, data=[64, 20]),\n",
      "   midi.NoteOnEvent(tick=1, channel=0, data=[79, 58]),\n",
      "   midi.NoteOnEvent(tick=2, channel=0, data=[75, 216]),\n",
      "   midi.NoteOnEvent(tick=4, channel=0, data=[47, 72]),\n",
      "   midi.NoteOnEvent(tick=1, channel=0, data=[86, 12]),\n",
      "   midi.NoteOnEvent(tick=0, channel=0, data=[32, 67]),\n",
      "   midi.NoteOnEvent(tick=3, channel=0, data=[83, 99]),\n",
      "   midi.NoteOnEvent(tick=2, channel=0, data=[53, 8]),\n",
      "   midi.NoteOnEvent(tick=1, channel=0, data=[89, 18]),\n",
      "   midi.NoteOnEvent(tick=1, channel=0, data=[21, 215]),\n",
      "   midi.NoteOnEvent(tick=1, channel=0, data=[18, 151]),\n",
      "   midi.NoteOffEvent(tick=4, channel=0, data=[21, 0]),\n",
      "   midi.NoteOnEvent(tick=1, channel=0, data=[86, 64]),\n",
      "   midi.NoteOnEvent(tick=3, channel=0, data=[74, 66]),\n",
      "   midi.NoteOnEvent(tick=1, channel=0, data=[19, 189]),\n",
      "   midi.NoteOnEvent(tick=2, channel=0, data=[50, 14]),\n",
      "   midi.NoteOnEvent(tick=8, channel=0, data=[99, 181]),\n",
      "   midi.NoteOnEvent(tick=3, channel=0, data=[37, 196]),\n",
      "   midi.NoteOnEvent(tick=2, channel=0, data=[56, 227]),\n",
      "   midi.NoteOnEvent(tick=5, channel=0, data=[18, 174]),\n",
      "   midi.NoteOnEvent(tick=2, channel=0, data=[29, 92]),\n",
      "   midi.NoteOnEvent(tick=1, channel=0, data=[48, 193]),\n",
      "   midi.NoteOnEvent(tick=0, channel=0, data=[2, 217]),\n",
      "   midi.NoteOnEvent(tick=1, channel=0, data=[124, 49]),\n",
      "   midi.NoteOnEvent(tick=0, channel=0, data=[78, 65]),\n",
      "   midi.NoteOnEvent(tick=2, channel=0, data=[51, 97]),\n",
      "   midi.NoteOnEvent(tick=0, channel=0, data=[116, 188]),\n",
      "   midi.NoteOnEvent(tick=1, channel=0, data=[60, 31]),\n",
      "   midi.NoteOnEvent(tick=1, channel=0, data=[13, 54]),\n",
      "   midi.NoteOnEvent(tick=8, channel=0, data=[7, 227]),\n",
      "   midi.NoteOnEvent(tick=4, channel=0, data=[104, 69]),\n",
      "   midi.NoteOnEvent(tick=1, channel=0, data=[70, 210]),\n",
      "   midi.NoteOnEvent(tick=0, channel=0, data=[120, 214]),\n",
      "   midi.NoteOnEvent(tick=4, channel=0, data=[68, 246]),\n",
      "   midi.NoteOnEvent(tick=2, channel=0, data=[109, 5]),\n",
      "   midi.NoteOnEvent(tick=0, channel=0, data=[89, 13]),\n",
      "   midi.NoteOnEvent(tick=1, channel=0, data=[59, 9]),\n",
      "   midi.NoteOnEvent(tick=3, channel=0, data=[27, 205]),\n",
      "   midi.NoteOnEvent(tick=1, channel=0, data=[17, 192]),\n",
      "   midi.NoteOnEvent(tick=3, channel=0, data=[16, 64]),\n",
      "   midi.NoteOnEvent(tick=3, channel=0, data=[45, 162]),\n",
      "   midi.NoteOnEvent(tick=0, channel=0, data=[74, 63]),\n",
      "   midi.NoteOnEvent(tick=1, channel=0, data=[124, 149]),\n",
      "   midi.NoteOnEvent(tick=1, channel=0, data=[54, 247]),\n",
      "   midi.NoteOnEvent(tick=1, channel=0, data=[83, 225]),\n",
      "   midi.NoteOnEvent(tick=3, channel=0, data=[106, 41]),\n",
      "   midi.NoteOnEvent(tick=0, channel=0, data=[125, 178]),\n",
      "   midi.NoteOnEvent(tick=0, channel=0, data=[110, 45]),\n",
      "   midi.NoteOnEvent(tick=8, channel=0, data=[127, 194]),\n",
      "   midi.NoteOnEvent(tick=0, channel=0, data=[63, 86]),\n",
      "   midi.NoteOnEvent(tick=4, channel=0, data=[40, 26]),\n",
      "   midi.NoteOnEvent(tick=0, channel=0, data=[4, 60]),\n",
      "   midi.NoteOnEvent(tick=0, channel=0, data=[117, 124]),\n",
      "   midi.NoteOnEvent(tick=1, channel=0, data=[89, 17]),\n",
      "   midi.NoteOnEvent(tick=0, channel=0, data=[50, 119]),\n",
      "   midi.NoteOffEvent(tick=1, channel=0, data=[47, 0]),\n",
      "   midi.NoteOnEvent(tick=0, channel=0, data=[107, 103]),\n",
      "   midi.NoteOnEvent(tick=0, channel=0, data=[11, 180]),\n",
      "   midi.NoteOnEvent(tick=12, channel=0, data=[82, 239]),\n",
      "   midi.NoteOnEvent(tick=1, channel=0, data=[68, 157]),\n",
      "   midi.NoteOnEvent(tick=0, channel=0, data=[89, 18]),\n",
      "   midi.NoteOnEvent(tick=1, channel=0, data=[38, 238]),\n",
      "   midi.NoteOnEvent(tick=0, channel=0, data=[95, 56]),\n",
      "   midi.NoteOnEvent(tick=2, channel=0, data=[56, 34]),\n",
      "   midi.NoteOnEvent(tick=1, channel=0, data=[99, 95]),\n",
      "   midi.NoteOnEvent(tick=1, channel=0, data=[5, 237]),\n",
      "   midi.NoteOffEvent(tick=2, channel=0, data=[29, 0]),\n",
      "   midi.NoteOnEvent(tick=0, channel=0, data=[113, 28]),\n",
      "   midi.NoteOnEvent(tick=6, channel=0, data=[67, 240]),\n",
      "   midi.NoteOnEvent(tick=3, channel=0, data=[121, 150]),\n",
      "   midi.NoteOnEvent(tick=2, channel=0, data=[106, 236]),\n",
      "   midi.NoteOnEvent(tick=1, channel=0, data=[78, 255]),\n",
      "   midi.NoteOnEvent(tick=1, channel=0, data=[118, 96]),\n",
      "   midi.NoteOnEvent(tick=1, channel=0, data=[36, 85]),\n",
      "   midi.NoteOnEvent(tick=1, channel=0, data=[115, 202]),\n",
      "   midi.NoteOnEvent(tick=1, channel=0, data=[95, 208]),\n",
      "   midi.NoteOnEvent(tick=1, channel=0, data=[21, 72]),\n",
      "   midi.NoteOnEvent(tick=2, channel=0, data=[25, 6]),\n",
      "   midi.NoteOnEvent(tick=2, channel=0, data=[31, 232]),\n",
      "   midi.NoteOnEvent(tick=2, channel=0, data=[113, 21]),\n",
      "   midi.NoteOnEvent(tick=3, channel=0, data=[112, 25]),\n",
      "   midi.NoteOnEvent(tick=1, channel=0, data=[71, 15]),\n",
      "   midi.NoteOnEvent(tick=0, channel=0, data=[64, 134]),\n",
      "   midi.NoteOnEvent(tick=1, channel=0, data=[103, 115]),\n",
      "   midi.NoteOnEvent(tick=1, channel=0, data=[111, 13]),\n",
      "   midi.NoteOnEvent(tick=5, channel=0, data=[89, 175]),\n",
      "   midi.NoteOnEvent(tick=0, channel=0, data=[79, 141]),\n",
      "   midi.NoteOnEvent(tick=7, channel=0, data=[39, 228]),\n",
      "   midi.NoteOnEvent(tick=8, channel=0, data=[92, 19]),\n",
      "   midi.NoteOnEvent(tick=3, channel=0, data=[31, 206]),\n",
      "   midi.NoteOnEvent(tick=1, channel=0, data=[66, 165]),\n",
      "   midi.NoteOnEvent(tick=2, channel=0, data=[59, 146]),\n",
      "   midi.NoteOnEvent(tick=2, channel=0, data=[122, 249]),\n",
      "   midi.NoteOnEvent(tick=1, channel=0, data=[58, 238]),\n",
      "   midi.NoteOnEvent(tick=3, channel=0, data=[23, 57]),\n",
      "   midi.NoteOnEvent(tick=1, channel=0, data=[2, 66]),\n",
      "   midi.NoteOnEvent(tick=0, channel=0, data=[81, 13]),\n",
      "   midi.NoteOnEvent(tick=3, channel=0, data=[112, 11]),\n",
      "   midi.NoteOnEvent(tick=0, channel=0, data=[90, 152]),\n",
      "   midi.NoteOnEvent(tick=2, channel=0, data=[52, 110]),\n",
      "   midi.NoteOnEvent(tick=0, channel=0, data=[84, 100]),\n",
      "   midi.NoteOnEvent(tick=6, channel=0, data=[47, 48]),\n",
      "   midi.NoteOnEvent(tick=1, channel=0, data=[93, 80]),\n",
      "   midi.NoteOnEvent(tick=2, channel=0, data=[31, 29]),\n",
      "   midi.NoteOnEvent(tick=1, channel=0, data=[17, 180]),\n",
      "   midi.NoteOnEvent(tick=2, channel=0, data=[56, 174]),\n",
      "   midi.NoteOnEvent(tick=4, channel=0, data=[33, 250]),\n",
      "   midi.NoteOnEvent(tick=0, channel=0, data=[87, 235]),\n",
      "   midi.NoteOnEvent(tick=4, channel=0, data=[111, 173]),\n",
      "   midi.NoteOnEvent(tick=8, channel=0, data=[25, 156]),\n",
      "   midi.NoteOnEvent(tick=1, channel=0, data=[59, 86]),\n",
      "   midi.NoteOnEvent(tick=6, channel=0, data=[63, 221]),\n",
      "   midi.NoteOnEvent(tick=0, channel=0, data=[126, 248]),\n",
      "   midi.NoteOffEvent(tick=2, channel=0, data=[112, 0]),\n",
      "   midi.NoteOnEvent(tick=3, channel=0, data=[23, 152]),\n",
      "   midi.NoteOnEvent(tick=3, channel=0, data=[36, 77]),\n",
      "   midi.NoteOnEvent(tick=3, channel=0, data=[26, 108]),\n",
      "   midi.NoteOffEvent(tick=2, channel=0, data=[84, 0]),\n",
      "   midi.NoteOnEvent(tick=5, channel=0, data=[48, 51]),\n",
      "   midi.NoteOnEvent(tick=2, channel=0, data=[72, 222]),\n",
      "   midi.NoteOffEvent(tick=4, channel=0, data=[75, 0]),\n",
      "   midi.NoteOnEvent(tick=1, channel=0, data=[30, 122]),\n",
      "   midi.NoteOnEvent(tick=3, channel=0, data=[76, 240]),\n",
      "   midi.NoteOnEvent(tick=7, channel=0, data=[77, 148]),\n",
      "   midi.NoteOnEvent(tick=1, channel=0, data=[5, 42]),\n",
      "   midi.NoteOnEvent(tick=2, channel=0, data=[72, 226]),\n",
      "   midi.NoteOffEvent(tick=1, channel=0, data=[109, 0]),\n",
      "   midi.NoteOffEvent(tick=3, channel=0, data=[87, 0]),\n",
      "   midi.NoteOffEvent(tick=0, channel=0, data=[117, 0]),\n",
      "   midi.NoteOffEvent(tick=0, channel=0, data=[118, 0]),\n",
      "   midi.NoteOnEvent(tick=1, channel=0, data=[77, 124]),\n",
      "   midi.NoteOnEvent(tick=0, channel=0, data=[86, 55]),\n",
      "   midi.NoteOnEvent(tick=1, channel=0, data=[86, 91]),\n",
      "   midi.NoteOffEvent(tick=5, channel=0, data=[4, 0]),\n",
      "   midi.NoteOnEvent(tick=0, channel=0, data=[8, 99]),\n",
      "   midi.NoteOnEvent(tick=7, channel=0, data=[51, 178]),\n",
      "   midi.NoteOffEvent(tick=3, channel=0, data=[25, 0]),\n",
      "   midi.NoteOnEvent(tick=3, channel=0, data=[14, 46]),\n",
      "   midi.NoteOnEvent(tick=1, channel=0, data=[67, 41]),\n",
      "   midi.NoteOnEvent(tick=1, channel=0, data=[2, 146]),\n",
      "   midi.NoteOnEvent(tick=1, channel=0, data=[115, 226]),\n",
      "   midi.NoteOnEvent(tick=10, channel=0, data=[122, 117]),\n",
      "   midi.NoteOnEvent(tick=4, channel=0, data=[32, 102]),\n",
      "   midi.NoteOnEvent(tick=2, channel=0, data=[111, 203]),\n",
      "   midi.NoteOnEvent(tick=1, channel=0, data=[71, 112]),\n",
      "   midi.NoteOffEvent(tick=1, channel=0, data=[20, 0]),\n",
      "   midi.NoteOnEvent(tick=1, channel=0, data=[22, 232]),\n",
      "   midi.NoteOnEvent(tick=2, channel=0, data=[31, 222]),\n",
      "   midi.NoteOnEvent(tick=0, channel=0, data=[122, 74]),\n",
      "   midi.NoteOnEvent(tick=3, channel=0, data=[91, 60]),\n",
      "   midi.NoteOnEvent(tick=2, channel=0, data=[119, 176]),\n",
      "   midi.NoteOnEvent(tick=2, channel=0, data=[106, 53]),\n",
      "   midi.NoteOnEvent(tick=0, channel=0, data=[30, 126]),\n",
      "   midi.NoteOnEvent(tick=2, channel=0, data=[26, 86]),\n",
      "   midi.NoteOnEvent(tick=0, channel=0, data=[82, 201]),\n",
      "   midi.NoteOffEvent(tick=1, channel=0, data=[60, 0]),\n",
      "   midi.NoteOnEvent(tick=2, channel=0, data=[106, 72]),\n",
      "   midi.NoteOnEvent(tick=6, channel=0, data=[5, 89]),\n",
      "   midi.NoteOffEvent(tick=2, channel=0, data=[127, 0]),\n",
      "   midi.NoteOnEvent(tick=0, channel=0, data=[66, 157]),\n",
      "   midi.NoteOnEvent(tick=1, channel=0, data=[13, 23]),\n",
      "   midi.NoteOnEvent(tick=1, channel=0, data=[69, 59]),\n",
      "   midi.NoteOnEvent(tick=1, channel=0, data=[25, 26]),\n",
      "   midi.NoteOffEvent(tick=1, channel=0, data=[27, 0]),\n",
      "   midi.NoteOnEvent(tick=0, channel=0, data=[18, 132]),\n",
      "   midi.NoteOnEvent(tick=1, channel=0, data=[70, 236]),\n",
      "   midi.NoteOnEvent(tick=1, channel=0, data=[127, 25]),\n",
      "   midi.NoteOnEvent(tick=1, channel=0, data=[77, 139]),\n",
      "   midi.NoteOnEvent(tick=0, channel=0, data=[47, 78]),\n",
      "   midi.NoteOnEvent(tick=3, channel=0, data=[31, 81]),\n",
      "   midi.NoteOnEvent(tick=0, channel=0, data=[50, 18]),\n",
      "   midi.NoteOnEvent(tick=1, channel=0, data=[61, 238]),\n",
      "   midi.NoteOnEvent(tick=2, channel=0, data=[102, 126]),\n",
      "   midi.NoteOffEvent(tick=2, channel=0, data=[59, 0]),\n",
      "   midi.NoteOnEvent(tick=0, channel=0, data=[110, 34]),\n",
      "   midi.NoteOnEvent(tick=0, channel=0, data=[93, 154]),\n",
      "   midi.NoteOnEvent(tick=1, channel=0, data=[103, 21]),\n",
      "   midi.NoteOnEvent(tick=5, channel=0, data=[72, 191]),\n",
      "   midi.NoteOnEvent(tick=4, channel=0, data=[115, 108]),\n",
      "   midi.NoteOnEvent(tick=0, channel=0, data=[38, 252]),\n",
      "   midi.NoteOnEvent(tick=0, channel=0, data=[45, 216]),\n",
      "   midi.NoteOnEvent(tick=0, channel=0, data=[76, 166]),\n",
      "   midi.NoteOnEvent(tick=1, channel=0, data=[51, 94]),\n",
      "   midi.NoteOnEvent(tick=6, channel=0, data=[84, 159]),\n",
      "   midi.NoteOffEvent(tick=7, channel=0, data=[100, 0]),\n",
      "   midi.NoteOnEvent(tick=2, channel=0, data=[101, 247]),\n",
      "   midi.NoteOnEvent(tick=0, channel=0, data=[8, 20]),\n",
      "   midi.NoteOnEvent(tick=3, channel=0, data=[83, 52]),\n",
      "   midi.NoteOnEvent(tick=0, channel=0, data=[24, 163]),\n",
      "   midi.NoteOnEvent(tick=0, channel=0, data=[3, 86]),\n",
      "   midi.NoteOffEvent(tick=1, channel=0, data=[63, 0]),\n",
      "   midi.NoteOnEvent(tick=4, channel=0, data=[102, 46]),\n",
      "   midi.NoteOnEvent(tick=0, channel=0, data=[6, 104]),\n",
      "   midi.NoteOnEvent(tick=1, channel=0, data=[21, 188]),\n",
      "   midi.NoteOnEvent(tick=1, channel=0, data=[53, 131]),\n",
      "   midi.NoteOnEvent(tick=2, channel=0, data=[112, 238]),\n",
      "   midi.NoteOnEvent(tick=0, channel=0, data=[89, 141]),\n",
      "   midi.NoteOnEvent(tick=1, channel=0, data=[8, 2]),\n",
      "   midi.NoteOnEvent(tick=0, channel=0, data=[113, 168]),\n",
      "   midi.NoteOffEvent(tick=1, channel=0, data=[67, 0]),\n",
      "   midi.NoteOnEvent(tick=1, channel=0, data=[54, 47]),\n",
      "   midi.NoteOnEvent(tick=3, channel=0, data=[97, 100]),\n",
      "   midi.NoteOnEvent(tick=7, channel=0, data=[95, 156]),\n",
      "   midi.NoteOnEvent(tick=1, channel=0, data=[19, 226]),\n",
      "   midi.NoteOnEvent(tick=0, channel=0, data=[32, 116]),\n",
      "   midi.NoteOnEvent(tick=1, channel=0, data=[124, 227]),\n",
      "   midi.NoteOnEvent(tick=2, channel=0, data=[99, 197]),\n",
      "   midi.NoteOnEvent(tick=0, channel=0, data=[86, 182]),\n",
      "   midi.NoteOnEvent(tick=1, channel=0, data=[86, 207]),\n",
      "   midi.NoteOnEvent(tick=4, channel=0, data=[14, 242]),\n",
      "   midi.NoteOnEvent(tick=1, channel=0, data=[13, 90]),\n",
      "   midi.NoteOnEvent(tick=0, channel=0, data=[18, 60]),\n",
      "   midi.NoteOnEvent(tick=0, channel=0, data=[27, 151]),\n",
      "   midi.NoteOnEvent(tick=1, channel=0, data=[41, 238]),\n",
      "   midi.NoteOnEvent(tick=1, channel=0, data=[54, 248]),\n",
      "   midi.NoteOnEvent(tick=0, channel=0, data=[113, 172]),\n",
      "   midi.NoteOnEvent(tick=0, channel=0, data=[55, 240]),\n",
      "   midi.NoteOnEvent(tick=1, channel=0, data=[48, 97]),\n",
      "   midi.NoteOnEvent(tick=0, channel=0, data=[87, 215]),\n",
      "   midi.NoteOnEvent(tick=1, channel=0, data=[0, 68]),\n",
      "   midi.NoteOnEvent(tick=0, channel=0, data=[115, 58]),\n",
      "   midi.NoteOnEvent(tick=1, channel=0, data=[100, 27]),\n",
      "   midi.NoteOffEvent(tick=1, channel=0, data=[16, 0]),\n",
      "   midi.NoteOnEvent(tick=3, channel=0, data=[91, 22]),\n",
      "   midi.NoteOnEvent(tick=2, channel=0, data=[46, 247]),\n",
      "   midi.NoteOnEvent(tick=1, channel=0, data=[111, 82]),\n",
      "   midi.NoteOnEvent(tick=1, channel=0, data=[125, 70]),\n",
      "   midi.NoteOnEvent(tick=1, channel=0, data=[20, 251]),\n",
      "   midi.NoteOnEvent(tick=0, channel=0, data=[23, 70]),\n",
      "   midi.NoteOnEvent(tick=2, channel=0, data=[80, 184]),\n",
      "   midi.NoteOnEvent(tick=0, channel=0, data=[45, 20]),\n",
      "   midi.NoteOffEvent(tick=1, channel=0, data=[56, 0]),\n",
      "   midi.NoteOnEvent(tick=0, channel=0, data=[90, 81]),\n",
      "   midi.NoteOnEvent(tick=3, channel=0, data=[0, 35]),\n",
      "   midi.NoteOnEvent(tick=1, channel=0, data=[117, 146]),\n",
      "   midi.NoteOnEvent(tick=1, channel=0, data=[123, 56]),\n",
      "   midi.NoteOnEvent(tick=2, channel=0, data=[53, 5]),\n",
      "   midi.NoteOnEvent(tick=2, channel=0, data=[40, 20]),\n",
      "   midi.NoteOffEvent(tick=1, channel=0, data=[107, 0]),\n",
      "   midi.NoteOnEvent(tick=1, channel=0, data=[59, 70]),\n",
      "   midi.NoteOnEvent(tick=1, channel=0, data=[90, 122]),\n",
      "   midi.NoteOnEvent(tick=1, channel=0, data=[94, 17]),\n",
      "   midi.NoteOnEvent(tick=1, channel=0, data=[34, 111]),\n",
      "   midi.NoteOnEvent(tick=1, channel=0, data=[108, 120]),\n",
      "   midi.NoteOffEvent(tick=3, channel=0, data=[88, 0]),\n",
      "   midi.NoteOffEvent(tick=1, channel=0, data=[123, 0]),\n",
      "   midi.NoteOnEvent(tick=3, channel=0, data=[95, 106]),\n",
      "   midi.NoteOffEvent(tick=4, channel=0, data=[13, 0]),\n",
      "   midi.NoteOnEvent(tick=2, channel=0, data=[96, 185]),\n",
      "   midi.NoteOnEvent(tick=2, channel=0, data=[85, 141]),\n",
      "   midi.NoteOffEvent(tick=2, channel=0, data=[54, 0]),\n",
      "   midi.NoteOnEvent(tick=1, channel=0, data=[113, 244]),\n",
      "   midi.NoteOnEvent(tick=2, channel=0, data=[58, 248]),\n",
      "   midi.NoteOnEvent(tick=4, channel=0, data=[117, 93]),\n",
      "   midi.NoteOnEvent(tick=6, channel=0, data=[60, 2]),\n",
      "   midi.NoteOnEvent(tick=1, channel=0, data=[83, 114]),\n",
      "   midi.NoteOnEvent(tick=4, channel=0, data=[47, 44]),\n",
      "   midi.NoteOnEvent(tick=1, channel=0, data=[94, 7]),\n",
      "   midi.NoteOnEvent(tick=1, channel=0, data=[78, 240]),\n",
      "   midi.NoteOnEvent(tick=0, channel=0, data=[123, 151]),\n",
      "   midi.NoteOnEvent(tick=1, channel=0, data=[111, 89]),\n",
      "   midi.NoteOnEvent(tick=1, channel=0, data=[113, 1]),\n",
      "   midi.NoteOnEvent(tick=1, channel=0, data=[120, 76]),\n",
      "   midi.NoteOnEvent(tick=2, channel=0, data=[11, 106]),\n",
      "   midi.NoteOnEvent(tick=0, channel=0, data=[19, 142]),\n",
      "   midi.NoteOffEvent(tick=1, channel=0, data=[78, 0]),\n",
      "   midi.NoteOnEvent(tick=0, channel=0, data=[89, 170]),\n",
      "   midi.NoteOffEvent(tick=2, channel=0, data=[42, 0]),\n",
      "   midi.NoteOnEvent(tick=0, channel=0, data=[117, 171]),\n",
      "   midi.NoteOnEvent(tick=1, channel=0, data=[36, 196]),\n",
      "   midi.NoteOnEvent(tick=3, channel=0, data=[73, 95]),\n",
      "   midi.NoteOnEvent(tick=2, channel=0, data=[21, 87]),\n",
      "   midi.NoteOnEvent(tick=1, channel=0, data=[98, 30]),\n",
      "   midi.NoteOnEvent(tick=1, channel=0, data=[94, 129]),\n",
      "   midi.NoteOffEvent(tick=1, channel=0, data=[102, 0]),\n",
      "   midi.NoteOnEvent(tick=0, channel=0, data=[28, 246]),\n",
      "   midi.NoteOnEvent(tick=1, channel=0, data=[60, 167]),\n",
      "   midi.NoteOnEvent(tick=2, channel=0, data=[0, 192]),\n",
      "   midi.NoteOnEvent(tick=2, channel=0, data=[13, 187]),\n",
      "   midi.NoteOnEvent(tick=1, channel=0, data=[58, 222]),\n",
      "   midi.NoteOnEvent(tick=2, channel=0, data=[66, 25]),\n",
      "   midi.NoteOnEvent(tick=3, channel=0, data=[116, 60]),\n",
      "   midi.NoteOnEvent(tick=1, channel=0, data=[11, 220]),\n",
      "   midi.NoteOffEvent(tick=5, channel=0, data=[53, 0]),\n",
      "   midi.NoteOnEvent(tick=0, channel=0, data=[59, 237]),\n",
      "   midi.NoteOnEvent(tick=4, channel=0, data=[88, 252]),\n",
      "   midi.NoteOnEvent(tick=0, channel=0, data=[99, 55]),\n",
      "   midi.NoteOnEvent(tick=4, channel=0, data=[2, 244]),\n",
      "   midi.NoteOnEvent(tick=1, channel=0, data=[40, 127]),\n",
      "   midi.NoteOnEvent(tick=4, channel=0, data=[89, 62]),\n",
      "   midi.NoteOnEvent(tick=5, channel=0, data=[56, 246]),\n",
      "   midi.NoteOnEvent(tick=1, channel=0, data=[5, 223]),\n",
      "   midi.NoteOnEvent(tick=1, channel=0, data=[94, 74]),\n",
      "   midi.NoteOnEvent(tick=1, channel=0, data=[75, 134]),\n",
      "   midi.NoteOnEvent(tick=0, channel=0, data=[65, 10]),\n",
      "   midi.NoteOnEvent(tick=2, channel=0, data=[30, 2]),\n",
      "   midi.NoteOffEvent(tick=1, channel=0, data=[38, 0]),\n",
      "   midi.NoteOnEvent(tick=1, channel=0, data=[23, 5]),\n",
      "   midi.NoteOnEvent(tick=0, channel=0, data=[30, 187]),\n",
      "   midi.NoteOnEvent(tick=1, channel=0, data=[5, 193]),\n",
      "   midi.NoteOnEvent(tick=2, channel=0, data=[101, 239]),\n",
      "   midi.NoteOnEvent(tick=0, channel=0, data=[117, 125]),\n",
      "   midi.NoteOffEvent(tick=1, channel=0, data=[51, 0]),\n",
      "   midi.NoteOnEvent(tick=1, channel=0, data=[72, 138]),\n",
      "   midi.NoteOnEvent(tick=2, channel=0, data=[108, 91]),\n",
      "   midi.NoteOnEvent(tick=2, channel=0, data=[25, 42]),\n",
      "   midi.NoteOnEvent(tick=0, channel=0, data=[39, 97]),\n",
      "   midi.NoteOnEvent(tick=0, channel=0, data=[96, 168]),\n",
      "   midi.NoteOnEvent(tick=2, channel=0, data=[120, 98]),\n",
      "   midi.NoteOnEvent(tick=1, channel=0, data=[92, 27]),\n",
      "   midi.NoteOnEvent(tick=0, channel=0, data=[49, 182]),\n",
      "   midi.NoteOnEvent(tick=0, channel=0, data=[17, 154]),\n",
      "   midi.NoteOffEvent(tick=2, channel=0, data=[58, 0]),\n",
      "   midi.NoteOnEvent(tick=0, channel=0, data=[110, 152]),\n",
      "   midi.NoteOnEvent(tick=0, channel=0, data=[39, 253]),\n",
      "   midi.NoteOnEvent(tick=0, channel=0, data=[39, 81]),\n",
      "   midi.NoteOnEvent(tick=1, channel=0, data=[127, 181]),\n",
      "   midi.NoteOffEvent(tick=2, channel=0, data=[79, 0]),\n",
      "   midi.NoteOnEvent(tick=0, channel=0, data=[94, 96]),\n",
      "   midi.NoteOnEvent(tick=2, channel=0, data=[76, 21]),\n",
      "   midi.NoteOnEvent(tick=1, channel=0, data=[122, 224]),\n",
      "   midi.NoteOnEvent(tick=1, channel=0, data=[79, 78]),\n",
      "   midi.NoteOnEvent(tick=2, channel=0, data=[88, 211]),\n",
      "   midi.NoteOnEvent(tick=3, channel=0, data=[98, 56]),\n",
      "   midi.NoteOnEvent(tick=3, channel=0, data=[71, 83]),\n",
      "   midi.NoteOnEvent(tick=1, channel=0, data=[43, 18]),\n",
      "   midi.NoteOnEvent(tick=0, channel=0, data=[54, 123]),\n",
      "   midi.NoteOnEvent(tick=5, channel=0, data=[121, 102]),\n",
      "   midi.NoteOnEvent(tick=1, channel=0, data=[37, 172]),\n",
      "   midi.NoteOnEvent(tick=0, channel=0, data=[81, 113]),\n",
      "   midi.NoteOnEvent(tick=1, channel=0, data=[53, 13]),\n",
      "   midi.NoteOnEvent(tick=3, channel=0, data=[106, 209]),\n",
      "   midi.NoteOnEvent(tick=1, channel=0, data=[119, 124]),\n",
      "   midi.NoteOffEvent(tick=1, channel=0, data=[80, 0]),\n",
      "   midi.NoteOnEvent(tick=0, channel=0, data=[20, 49]),\n",
      "   midi.NoteOffEvent(tick=1, channel=0, data=[122, 0]),\n",
      "   midi.NoteOffEvent(tick=1, channel=0, data=[34, 0]),\n",
      "   midi.NoteOnEvent(tick=3, channel=0, data=[83, 170]),\n",
      "   midi.NoteOnEvent(tick=2, channel=0, data=[25, 169]),\n",
      "   midi.NoteOnEvent(tick=1, channel=0, data=[119, 76]),\n",
      "   midi.NoteOffEvent(tick=1, channel=0, data=[54, 0]),\n",
      "   midi.NoteOnEvent(tick=3, channel=0, data=[77, 199]),\n",
      "   midi.NoteOnEvent(tick=3, channel=0, data=[115, 126]),\n",
      "   midi.NoteOnEvent(tick=1, channel=0, data=[90, 117]),\n",
      "   midi.NoteOnEvent(tick=3, channel=0, data=[12, 242]),\n",
      "   midi.NoteOnEvent(tick=1, channel=0, data=[95, 144]),\n",
      "   midi.NoteOnEvent(tick=1, channel=0, data=[120, 42]),\n",
      "   midi.NoteOnEvent(tick=2, channel=0, data=[28, 40]),\n",
      "   midi.NoteOnEvent(tick=1, channel=0, data=[67, 207]),\n",
      "   midi.NoteOnEvent(tick=0, channel=0, data=[18, 14]),\n",
      "   midi.NoteOnEvent(tick=0, channel=0, data=[106, 5]),\n",
      "   midi.NoteOnEvent(tick=1, channel=0, data=[95, 246]),\n",
      "   midi.NoteOnEvent(tick=1, channel=0, data=[15, 144]),\n",
      "   midi.NoteOnEvent(tick=0, channel=0, data=[39, 186]),\n",
      "   midi.NoteOnEvent(tick=1, channel=0, data=[42, 217]),\n",
      "   midi.NoteOnEvent(tick=3, channel=0, data=[106, 63]),\n",
      "   midi.NoteOnEvent(tick=1, channel=0, data=[104, 201]),\n",
      "   midi.NoteOnEvent(tick=2, channel=0, data=[125, 5]),\n",
      "   midi.NoteOnEvent(tick=5, channel=0, data=[97, 216]),\n",
      "   midi.NoteOnEvent(tick=2, channel=0, data=[108, 57]),\n",
      "   midi.NoteOnEvent(tick=5, channel=0, data=[83, 178]),\n",
      "   midi.NoteOffEvent(tick=1, channel=0, data=[26, 0]),\n",
      "   midi.NoteOnEvent(tick=0, channel=0, data=[30, 111]),\n",
      "   midi.NoteOnEvent(tick=0, channel=0, data=[65, 121]),\n",
      "   midi.NoteOffEvent(tick=3, channel=0, data=[64, 0]),\n",
      "   midi.NoteOffEvent(tick=1, channel=0, data=[87, 0]),\n",
      "   midi.NoteOffEvent(tick=1, channel=0, data=[121, 0]),\n",
      "   midi.NoteOnEvent(tick=1, channel=0, data=[61, 1]),\n",
      "   midi.NoteOnEvent(tick=0, channel=0, data=[30, 245]),\n",
      "   midi.NoteOnEvent(tick=1, channel=0, data=[3, 189]),\n",
      "   midi.NoteOnEvent(tick=1, channel=0, data=[12, 36]),\n",
      "   midi.NoteOnEvent(tick=1, channel=0, data=[81, 87]),\n",
      "   midi.NoteOnEvent(tick=1, channel=0, data=[75, 51]),\n",
      "   midi.NoteOnEvent(tick=1, channel=0, data=[97, 214]),\n",
      "   midi.NoteOnEvent(tick=1, channel=0, data=[3, 30]),\n",
      "   midi.NoteOnEvent(tick=0, channel=0, data=[55, 228]),\n",
      "   midi.NoteOnEvent(tick=1, channel=0, data=[76, 165]),\n",
      "   midi.NoteOnEvent(tick=1, channel=0, data=[79, 61]),\n",
      "   midi.NoteOffEvent(tick=1, channel=0, data=[2, 0]),\n",
      "   midi.NoteOnEvent(tick=0, channel=0, data=[12, 96]),\n",
      "   midi.NoteOnEvent(tick=2, channel=0, data=[95, 115]),\n",
      "   midi.NoteOnEvent(tick=2, channel=0, data=[38, 206]),\n",
      "   midi.NoteOnEvent(tick=6, channel=0, data=[51, 83]),\n",
      "   midi.NoteOnEvent(tick=3, channel=0, data=[87, 156]),\n",
      "   midi.NoteOnEvent(tick=0, channel=0, data=[10, 100]),\n",
      "   midi.NoteOnEvent(tick=2, channel=0, data=[124, 246]),\n",
      "   midi.NoteOnEvent(tick=1, channel=0, data=[12, 54]),\n",
      "   midi.NoteOnEvent(tick=0, channel=0, data=[106, 95]),\n",
      "   midi.NoteOnEvent(tick=1, channel=0, data=[97, 21]),\n",
      "   midi.NoteOnEvent(tick=3, channel=0, data=[98, 152]),\n",
      "   midi.NoteOnEvent(tick=1, channel=0, data=[101, 188]),\n",
      "   midi.NoteOnEvent(tick=2, channel=0, data=[88, 7]),\n",
      "   midi.NoteOnEvent(tick=3, channel=0, data=[23, 191]),\n",
      "   midi.NoteOffEvent(tick=3, channel=0, data=[8, 0]),\n",
      "   midi.NoteOffEvent(tick=1, channel=0, data=[77, 0]),\n",
      "   midi.NoteOnEvent(tick=1, channel=0, data=[67, 238]),\n",
      "   midi.NoteOnEvent(tick=1, channel=0, data=[106, 116]),\n",
      "   midi.NoteOffEvent(tick=1, channel=0, data=[41, 0]),\n",
      "   midi.NoteOnEvent(tick=1, channel=0, data=[121, 138]),\n",
      "   midi.NoteOnEvent(tick=0, channel=0, data=[107, 150]),\n",
      "   midi.NoteOnEvent(tick=1, channel=0, data=[68, 197]),\n",
      "   midi.NoteOnEvent(tick=0, channel=0, data=[56, 107]),\n",
      "   midi.NoteOnEvent(tick=4, channel=0, data=[62, 55]),\n",
      "   midi.NoteOnEvent(tick=1, channel=0, data=[91, 228]),\n",
      "   midi.NoteOnEvent(tick=3, channel=0, data=[29, 166]),\n",
      "   midi.NoteOnEvent(tick=2, channel=0, data=[95, 236]),\n",
      "   midi.NoteOnEvent(tick=2, channel=0, data=[124, 74]),\n",
      "   midi.NoteOnEvent(tick=1, channel=0, data=[93, 15]),\n",
      "   midi.NoteOnEvent(tick=5, channel=0, data=[4, 130]),\n",
      "   midi.NoteOffEvent(tick=1, channel=0, data=[92, 0]),\n",
      "   midi.NoteOffEvent(tick=1, channel=0, data=[27, 0]),\n",
      "   midi.NoteOnEvent(tick=0, channel=0, data=[127, 3]),\n",
      "   midi.NoteOnEvent(tick=1, channel=0, data=[125, 71]),\n",
      "   midi.NoteOnEvent(tick=5, channel=0, data=[15, 113]),\n",
      "   midi.NoteOnEvent(tick=1, channel=0, data=[67, 241]),\n",
      "   midi.NoteOnEvent(tick=1, channel=0, data=[55, 202]),\n",
      "   midi.NoteOffEvent(tick=1, channel=0, data=[79, 0]),\n",
      "   midi.NoteOnEvent(tick=3, channel=0, data=[32, 161]),\n",
      "   midi.NoteOnEvent(tick=2, channel=0, data=[112, 18]),\n",
      "   midi.NoteOnEvent(tick=2, channel=0, data=[27, 89]),\n",
      "   midi.NoteOnEvent(tick=6, channel=0, data=[126, 219]),\n",
      "   midi.NoteOnEvent(tick=1, channel=0, data=[23, 89]),\n",
      "   midi.NoteOnEvent(tick=1, channel=0, data=[27, 97]),\n",
      "   midi.NoteOnEvent(tick=0, channel=0, data=[27, 195]),\n",
      "   midi.NoteOffEvent(tick=1, channel=0, data=[110, 0]),\n",
      "   midi.NoteOnEvent(tick=2, channel=0, data=[20, 128]),\n",
      "   midi.NoteOnEvent(tick=5, channel=0, data=[32, 224]),\n",
      "   midi.NoteOnEvent(tick=4, channel=0, data=[70, 161]),\n",
      "   midi.NoteOnEvent(tick=1, channel=0, data=[30, 90]),\n",
      "   midi.NoteOnEvent(tick=0, channel=0, data=[37, 14]),\n",
      "   midi.NoteOnEvent(tick=1, channel=0, data=[105, 19]),\n",
      "   midi.NoteOffEvent(tick=1, channel=0, data=[50, 0]),\n",
      "   midi.NoteOnEvent(tick=0, channel=0, data=[126, 93]),\n",
      "   midi.NoteOffEvent(tick=1, channel=0, data=[53, 0]),\n",
      "   midi.NoteOffEvent(tick=3, channel=0, data=[52, 0]),\n",
      "   midi.NoteOffEvent(tick=0, channel=0, data=[56, 0]),\n",
      "   midi.NoteOnEvent(tick=2, channel=0, data=[103, 141]),\n",
      "   midi.NoteOnEvent(tick=8, channel=0, data=[22, 45]),\n",
      "   midi.NoteOnEvent(tick=1, channel=0, data=[33, 94]),\n",
      "   midi.NoteOnEvent(tick=3, channel=0, data=[36, 10]),\n",
      "   midi.NoteOnEvent(tick=1, channel=0, data=[87, 216]),\n",
      "   midi.NoteOnEvent(tick=1, channel=0, data=[27, 176]),\n",
      "   midi.NoteOnEvent(tick=0, channel=0, data=[106, 89]),\n",
      "   midi.NoteOnEvent(tick=1, channel=0, data=[17, 3]),\n",
      "   midi.NoteOnEvent(tick=0, channel=0, data=[59, 181]),\n",
      "   midi.NoteOnEvent(tick=4, channel=0, data=[88, 99]),\n",
      "   midi.NoteOnEvent(tick=0, channel=0, data=[106, 128]),\n",
      "   midi.NoteOnEvent(tick=3, channel=0, data=[20, 133]),\n",
      "   midi.NoteOnEvent(tick=2, channel=0, data=[86, 76]),\n",
      "   midi.NoteOnEvent(tick=1, channel=0, data=[116, 169]),\n",
      "   midi.NoteOnEvent(tick=1, channel=0, data=[59, 178]),\n",
      "   midi.NoteOffEvent(tick=1, channel=0, data=[37, 0]),\n",
      "   midi.NoteOnEvent(tick=4, channel=0, data=[33, 157]),\n",
      "   midi.NoteOnEvent(tick=0, channel=0, data=[39, 106]),\n",
      "   midi.NoteOffEvent(tick=2, channel=0, data=[25, 0]),\n",
      "   midi.NoteOffEvent(tick=2, channel=0, data=[94, 0]),\n",
      "   midi.NoteOnEvent(tick=3, channel=0, data=[14, 93]),\n",
      "   midi.NoteOnEvent(tick=4, channel=0, data=[27, 127]),\n",
      "   midi.NoteOnEvent(tick=2, channel=0, data=[54, 65]),\n",
      "   midi.NoteOnEvent(tick=2, channel=0, data=[84, 13]),\n",
      "   midi.NoteOnEvent(tick=0, channel=0, data=[34, 210]),\n",
      "   midi.NoteOnEvent(tick=0, channel=0, data=[57, 78]),\n",
      "   midi.NoteOnEvent(tick=1, channel=0, data=[120, 95]),\n",
      "   midi.NoteOnEvent(tick=1, channel=0, data=[88, 135]),\n",
      "   midi.NoteOnEvent(tick=1, channel=0, data=[37, 29]),\n",
      "   midi.NoteOnEvent(tick=9, channel=0, data=[35, 131]),\n",
      "   midi.NoteOnEvent(tick=6, channel=0, data=[55, 131]),\n",
      "   midi.NoteOnEvent(tick=7, channel=0, data=[108, 91]),\n",
      "   midi.NoteOnEvent(tick=0, channel=0, data=[5, 187]),\n",
      "   midi.NoteOffEvent(tick=1, channel=0, data=[100, 0]),\n",
      "   midi.NoteOffEvent(tick=2, channel=0, data=[6, 0]),\n",
      "   midi.NoteOnEvent(tick=0, channel=0, data=[33, 173]),\n",
      "   midi.NoteOnEvent(tick=0, channel=0, data=[27, 219]),\n",
      "   midi.NoteOffEvent(tick=1, channel=0, data=[27, 0]),\n",
      "   midi.NoteOnEvent(tick=1, channel=0, data=[105, 145]),\n",
      "   midi.NoteOnEvent(tick=0, channel=0, data=[50, 222]),\n",
      "   midi.NoteOnEvent(tick=0, channel=0, data=[119, 226]),\n",
      "   midi.NoteOnEvent(tick=0, channel=0, data=[70, 89]),\n",
      "   midi.NoteOffEvent(tick=2, channel=0, data=[31, 0]),\n",
      "   midi.NoteOnEvent(tick=3, channel=0, data=[16, 105]),\n",
      "   midi.NoteOnEvent(tick=3, channel=0, data=[33, 27]),\n",
      "   midi.NoteOffEvent(tick=2, channel=0, data=[81, 0]),\n",
      "   midi.NoteOffEvent(tick=2, channel=0, data=[60, 0]),\n",
      "   midi.NoteOnEvent(tick=0, channel=0, data=[62, 122]),\n",
      "   midi.NoteOnEvent(tick=0, channel=0, data=[102, 80]),\n",
      "   midi.NoteOnEvent(tick=1, channel=0, data=[77, 185]),\n",
      "   midi.NoteOnEvent(tick=1, channel=0, data=[69, 218]),\n",
      "   midi.NoteOnEvent(tick=0, channel=0, data=[18, 199]),\n",
      "   midi.NoteOnEvent(tick=3, channel=0, data=[91, 199]),\n",
      "   midi.NoteOffEvent(tick=1, channel=0, data=[38, 0]),\n",
      "   midi.NoteOnEvent(tick=0, channel=0, data=[55, 144]),\n",
      "   midi.NoteOnEvent(tick=5, channel=0, data=[7, 84]),\n",
      "   midi.NoteOnEvent(tick=1, channel=0, data=[65, 191]),\n",
      "   midi.NoteOnEvent(tick=1, channel=0, data=[26, 87]),\n",
      "   midi.NoteOffEvent(tick=2, channel=0, data=[14, 0]),\n",
      "   midi.NoteOnEvent(tick=0, channel=0, data=[96, 240]),\n",
      "   midi.NoteOffEvent(tick=3, channel=0, data=[3, 0]),\n",
      "   midi.NoteOnEvent(tick=0, channel=0, data=[55, 41]),\n",
      "   midi.NoteOffEvent(tick=6, channel=0, data=[57, 0]),\n",
      "   midi.NoteOnEvent(tick=0, channel=0, data=[83, 233]),\n",
      "   midi.NoteOffEvent(tick=2, channel=0, data=[68, 0]),\n",
      "   midi.NoteOnEvent(tick=1, channel=0, data=[107, 114]),\n",
      "   midi.NoteOffEvent(tick=1, channel=0, data=[101, 0]),\n",
      "   midi.NoteOnEvent(tick=1, channel=0, data=[24, 195]),\n",
      "   midi.NoteOnEvent(tick=5, channel=0, data=[63, 98]),\n",
      "   midi.NoteOnEvent(tick=1, channel=0, data=[95, 27]),\n",
      "   midi.NoteOnEvent(tick=4, channel=0, data=[10, 43]),\n",
      "   midi.NoteOnEvent(tick=0, channel=0, data=[55, 74]),\n",
      "   midi.NoteOnEvent(tick=2, channel=0, data=[121, 253]),\n",
      "   midi.NoteOnEvent(tick=2, channel=0, data=[40, 171]),\n",
      "   midi.NoteOnEvent(tick=4, channel=0, data=[96, 195]),\n",
      "   midi.NoteOnEvent(tick=3, channel=0, data=[11, 161]),\n",
      "   midi.NoteOnEvent(tick=1, channel=0, data=[84, 227]),\n",
      "   midi.NoteOffEvent(tick=5, channel=0, data=[117, 0]),\n",
      "   midi.NoteOffEvent(tick=1, channel=0, data=[120, 0]),\n",
      "   midi.NoteOnEvent(tick=1, channel=0, data=[53, 236]),\n",
      "   midi.NoteOnEvent(tick=3, channel=0, data=[13, 44]),\n",
      "   midi.NoteOffEvent(tick=3, channel=0, data=[84, 0]),\n",
      "   midi.NoteOffEvent(tick=0, channel=0, data=[123, 0]),\n",
      "   midi.NoteOnEvent(tick=0, channel=0, data=[114, 21]),\n",
      "   midi.NoteOffEvent(tick=3, channel=0, data=[73, 0]),\n",
      "   midi.NoteOffEvent(tick=0, channel=0, data=[106, 0]),\n",
      "   midi.NoteOffEvent(tick=1, channel=0, data=[74, 0]),\n",
      "   midi.NoteOnEvent(tick=0, channel=0, data=[37, 5]),\n",
      "   midi.NoteOffEvent(tick=2, channel=0, data=[99, 0]),\n",
      "   midi.NoteOnEvent(tick=2, channel=0, data=[83, 135]),\n",
      "   midi.NoteOnEvent(tick=1, channel=0, data=[10, 22]),\n",
      "   midi.NoteOffEvent(tick=4, channel=0, data=[10, 0]),\n",
      "   midi.NoteOnEvent(tick=2, channel=0, data=[51, 182]),\n",
      "   midi.NoteOnEvent(tick=4, channel=0, data=[103, 194]),\n",
      "   midi.NoteOnEvent(tick=2, channel=0, data=[126, 161]),\n",
      "   midi.NoteOnEvent(tick=0, channel=0, data=[109, 22]),\n",
      "   midi.NoteOnEvent(tick=2, channel=0, data=[97, 236]),\n",
      "   midi.NoteOffEvent(tick=1, channel=0, data=[37, 0]),\n",
      "   midi.NoteOffEvent(tick=3, channel=0, data=[21, 0]),\n",
      "   midi.NoteOffEvent(tick=0, channel=0, data=[50, 0]),\n",
      "   midi.NoteOnEvent(tick=0, channel=0, data=[80, 44]),\n",
      "   midi.NoteOffEvent(tick=1, channel=0, data=[104, 0]),\n",
      "   midi.NoteOnEvent(tick=0, channel=0, data=[28, 54]),\n",
      "   midi.NoteOnEvent(tick=0, channel=0, data=[48, 17]),\n",
      "   midi.NoteOnEvent(tick=1, channel=0, data=[15, 126]),\n",
      "   midi.NoteOffEvent(tick=1, channel=0, data=[42, 0]),\n",
      "   midi.NoteOnEvent(tick=3, channel=0, data=[109, 132]),\n",
      "   midi.NoteOnEvent(tick=0, channel=0, data=[88, 119]),\n",
      "   midi.NoteOnEvent(tick=2, channel=0, data=[9, 203]),\n",
      "   midi.NoteOffEvent(tick=1, channel=0, data=[95, 0]),\n",
      "   midi.NoteOnEvent(tick=0, channel=0, data=[70, 235]),\n",
      "   midi.NoteOnEvent(tick=3, channel=0, data=[47, 65]),\n",
      "   midi.NoteOnEvent(tick=1, channel=0, data=[90, 131]),\n",
      "   midi.NoteOffEvent(tick=1, channel=0, data=[16, 0]),\n",
      "   midi.NoteOffEvent(tick=0, channel=0, data=[32, 0]),\n",
      "   midi.NoteOnEvent(tick=1, channel=0, data=[15, 13]),\n",
      "   midi.NoteOnEvent(tick=1, channel=0, data=[38, 193]),\n",
      "   midi.NoteOffEvent(tick=1, channel=0, data=[40, 0]),\n",
      "   midi.NoteOnEvent(tick=0, channel=0, data=[21, 215]),\n",
      "   midi.NoteOnEvent(tick=1, channel=0, data=[49, 127]),\n",
      "   midi.NoteOnEvent(tick=0, channel=0, data=[20, 199]),\n",
      "   midi.NoteOnEvent(tick=0, channel=0, data=[83, 148]),\n",
      "   midi.NoteOnEvent(tick=1, channel=0, data=[75, 156]),\n",
      "   midi.NoteOnEvent(tick=2, channel=0, data=[124, 48]),\n",
      "   midi.NoteOffEvent(tick=2, channel=0, data=[24, 0]),\n",
      "   midi.NoteOnEvent(tick=2, channel=0, data=[67, 232]),\n",
      "   midi.NoteOnEvent(tick=2, channel=0, data=[111, 124]),\n",
      "   midi.NoteOnEvent(tick=1, channel=0, data=[96, 148]),\n",
      "   midi.NoteOnEvent(tick=5, channel=0, data=[111, 148]),\n",
      "   midi.NoteOnEvent(tick=1, channel=0, data=[21, 194]),\n",
      "   midi.NoteOnEvent(tick=2, channel=0, data=[1, 210]),\n",
      "   midi.NoteOnEvent(tick=0, channel=0, data=[17, 94]),\n",
      "   midi.NoteOffEvent(tick=1, channel=0, data=[18, 0]),\n",
      "   midi.NoteOnEvent(tick=1, channel=0, data=[54, 153]),\n",
      "   midi.NoteOnEvent(tick=5, channel=0, data=[79, 30]),\n",
      "   midi.NoteOnEvent(tick=1, channel=0, data=[31, 79]),\n",
      "   midi.NoteOnEvent(tick=2, channel=0, data=[4, 116]),\n",
      "   midi.NoteOnEvent(tick=0, channel=0, data=[75, 239]),\n",
      "   midi.NoteOnEvent(tick=1, channel=0, data=[89, 248]),\n",
      "   midi.NoteOnEvent(tick=3, channel=0, data=[41, 183]),\n",
      "   midi.NoteOnEvent(tick=9, channel=0, data=[117, 186]),\n",
      "   midi.NoteOffEvent(tick=11, channel=0, data=[0, 0]),\n",
      "   midi.NoteOffEvent(tick=9, channel=0, data=[90, 0]),\n",
      "   midi.NoteOffEvent(tick=1, channel=0, data=[1, 0]),\n",
      "   midi.NoteOffEvent(tick=4, channel=0, data=[83, 0]),\n",
      "   midi.NoteOffEvent(tick=3, channel=0, data=[46, 0]),\n",
      "   midi.NoteOffEvent(tick=6, channel=0, data=[59, 0]),\n",
      "   midi.NoteOffEvent(tick=18, channel=0, data=[113, 0]),\n",
      "   midi.NoteOffEvent(tick=12, channel=0, data=[127, 0]),\n",
      "   midi.NoteOffEvent(tick=13, channel=0, data=[45, 0]),\n",
      "   midi.NoteOffEvent(tick=5, channel=0, data=[26, 0]),\n",
      "   midi.NoteOffEvent(tick=4, channel=0, data=[80, 0]),\n",
      "   midi.NoteOffEvent(tick=17, channel=0, data=[43, 0]),\n",
      "   midi.NoteOffEvent(tick=6, channel=0, data=[124, 0]),\n",
      "   midi.NoteOffEvent(tick=6, channel=0, data=[22, 0]),\n",
      "   midi.NoteOffEvent(tick=3, channel=0, data=[87, 0]),\n",
      "   midi.NoteOffEvent(tick=1, channel=0, data=[15, 0]),\n",
      "   midi.NoteOffEvent(tick=31, channel=0, data=[30, 0]),\n",
      "   midi.NoteOffEvent(tick=4, channel=0, data=[76, 0]),\n",
      "   midi.NoteOffEvent(tick=1, channel=0, data=[98, 0]),\n",
      "   midi.NoteOffEvent(tick=8, channel=0, data=[96, 0]),\n",
      "   midi.NoteOffEvent(tick=14, channel=0, data=[111, 0]),\n",
      "   midi.NoteOffEvent(tick=11, channel=0, data=[65, 0]),\n",
      "   midi.NoteOffEvent(tick=4, channel=0, data=[19, 0]),\n",
      "   midi.NoteOffEvent(tick=3, channel=0, data=[66, 0]),\n",
      "   midi.NoteOffEvent(tick=24, channel=0, data=[51, 0]),\n",
      "   midi.NoteOffEvent(tick=1, channel=0, data=[21, 0]),\n",
      "   midi.NoteOffEvent(tick=5, channel=0, data=[34, 0]),\n",
      "   midi.NoteOffEvent(tick=0, channel=0, data=[53, 0]),\n",
      "   midi.NoteOffEvent(tick=2, channel=0, data=[119, 0]),\n",
      "   midi.NoteOffEvent(tick=3, channel=0, data=[11, 0]),\n",
      "   midi.NoteOffEvent(tick=2, channel=0, data=[71, 0]),\n",
      "   midi.NoteOffEvent(tick=3, channel=0, data=[61, 0]),\n",
      "   midi.NoteOffEvent(tick=4, channel=0, data=[4, 0]),\n",
      "   midi.NoteOffEvent(tick=8, channel=0, data=[39, 0]),\n",
      "   midi.NoteOffEvent(tick=26, channel=0, data=[72, 0]),\n",
      "   midi.NoteOffEvent(tick=0, channel=0, data=[82, 0]),\n",
      "   midi.NoteOffEvent(tick=1, channel=0, data=[7, 0]),\n",
      "   midi.NoteOffEvent(tick=5, channel=0, data=[28, 0]),\n",
      "   midi.NoteOffEvent(tick=2, channel=0, data=[108, 0]),\n",
      "   midi.NoteOffEvent(tick=7, channel=0, data=[70, 0]),\n",
      "   midi.NoteOffEvent(tick=24, channel=0, data=[114, 0]),\n",
      "   midi.NoteOffEvent(tick=34, channel=0, data=[93, 0]),\n",
      "   midi.NoteOffEvent(tick=8, channel=0, data=[77, 0]),\n",
      "   midi.NoteOffEvent(tick=7, channel=0, data=[115, 0]),\n",
      "   midi.NoteOffEvent(tick=11, channel=0, data=[89, 0]),\n",
      "   midi.NoteOffEvent(tick=15, channel=0, data=[5, 0]),\n",
      "   midi.NoteOffEvent(tick=56, channel=0, data=[79, 0]),\n",
      "   midi.NoteOffEvent(tick=2, channel=0, data=[121, 0]),\n",
      "   midi.NoteOffEvent(tick=13, channel=0, data=[117, 0]),\n",
      "   midi.NoteOffEvent(tick=2, channel=0, data=[23, 0]),\n",
      "   midi.NoteOffEvent(tick=4, channel=0, data=[97, 0]),\n",
      "   midi.NoteOffEvent(tick=2, channel=0, data=[85, 0]),\n",
      "   midi.NoteOffEvent(tick=4, channel=0, data=[31, 0]),\n",
      "   midi.NoteOffEvent(tick=59, channel=0, data=[105, 0]),\n",
      "   midi.NoteOffEvent(tick=18, channel=0, data=[67, 0]),\n",
      "   midi.NoteOffEvent(tick=2, channel=0, data=[9, 0]),\n",
      "   midi.NoteOffEvent(tick=16, channel=0, data=[126, 0]),\n",
      "   midi.NoteOffEvent(tick=4, channel=0, data=[75, 0]),\n",
      "   midi.NoteOffEvent(tick=4, channel=0, data=[86, 0]),\n",
      "   midi.NoteOffEvent(tick=3, channel=0, data=[55, 0]),\n",
      "   midi.NoteOffEvent(tick=2, channel=0, data=[17, 0]),\n",
      "   midi.NoteOffEvent(tick=5, channel=0, data=[125, 0]),\n",
      "   midi.NoteOffEvent(tick=18, channel=0, data=[69, 0]),\n",
      "   midi.NoteOffEvent(tick=26, channel=0, data=[49, 0]),\n",
      "   midi.NoteOffEvent(tick=6, channel=0, data=[103, 0]),\n",
      "   midi.NoteOffEvent(tick=4, channel=0, data=[107, 0]),\n",
      "   midi.NoteOffEvent(tick=3, channel=0, data=[12, 0]),\n",
      "   midi.NoteOffEvent(tick=1, channel=0, data=[48, 0]),\n",
      "   midi.NoteOffEvent(tick=21, channel=0, data=[63, 0]),\n",
      "   midi.NoteOffEvent(tick=16, channel=0, data=[29, 0]),\n",
      "   midi.NoteOffEvent(tick=2, channel=0, data=[116, 0]),\n",
      "   midi.NoteOffEvent(tick=2, channel=0, data=[102, 0]),\n",
      "   midi.NoteOffEvent(tick=10, channel=0, data=[62, 0]),\n",
      "   midi.NoteOffEvent(tick=3, channel=0, data=[112, 0]),\n",
      "   midi.NoteOffEvent(tick=2, channel=0, data=[38, 0]),\n",
      "   midi.NoteOffEvent(tick=16, channel=0, data=[36, 0]),\n",
      "   midi.NoteOffEvent(tick=5, channel=0, data=[41, 0]),\n",
      "   midi.NoteOffEvent(tick=37, channel=0, data=[20, 0]),\n",
      "   midi.NoteOffEvent(tick=4, channel=0, data=[33, 0]),\n",
      "   midi.NoteOffEvent(tick=9, channel=0, data=[109, 0]),\n",
      "   midi.NoteOffEvent(tick=26, channel=0, data=[35, 0]),\n",
      "   midi.NoteOffEvent(tick=29, channel=0, data=[91, 0]),\n",
      "   midi.NoteOffEvent(tick=51, channel=0, data=[54, 0]),\n",
      "   midi.NoteOffEvent(tick=4, channel=0, data=[13, 0]),\n",
      "   midi.NoteOffEvent(tick=2, channel=0, data=[88, 0]),\n",
      "   midi.NoteOffEvent(tick=26, channel=0, data=[47, 0]),\n",
      "   midi.EndOfTrackEvent(tick=0, data=[])]),\n",
      " midi.Track(\\\n",
      "  [midi.SetTempoEvent(tick=0, data=[4, 147, 224]),\n",
      "   midi.ProgramChangeEvent(tick=0, channel=0, data=[94]),\n",
      "   midi.NoteOnEvent(tick=0, channel=0, data=[85, 189]),\n",
      "   midi.NoteOnEvent(tick=0, channel=0, data=[101, 196]),\n",
      "   midi.NoteOnEvent(tick=0, channel=0, data=[43, 155]),\n",
      "   midi.NoteOnEvent(tick=1, channel=0, data=[33, 131]),\n",
      "   midi.NoteOnEvent(tick=1, channel=0, data=[102, 154]),\n",
      "   midi.NoteOnEvent(tick=0, channel=0, data=[127, 212]),\n",
      "   midi.NoteOnEvent(tick=1, channel=0, data=[21, 132]),\n",
      "   midi.NoteOnEvent(tick=4, channel=0, data=[12, 79]),\n",
      "   midi.NoteOnEvent(tick=6, channel=0, data=[5, 36]),\n",
      "   midi.NoteOnEvent(tick=1, channel=0, data=[105, 232]),\n",
      "   midi.NoteOnEvent(tick=3, channel=0, data=[58, 107]),\n",
      "   midi.NoteOnEvent(tick=0, channel=0, data=[100, 233]),\n",
      "   midi.NoteOnEvent(tick=1, channel=0, data=[1, 29]),\n",
      "   midi.NoteOnEvent(tick=3, channel=0, data=[84, 96]),\n",
      "   midi.NoteOnEvent(tick=1, channel=0, data=[68, 57]),\n",
      "   midi.NoteOnEvent(tick=2, channel=0, data=[14, 78]),\n",
      "   midi.NoteOnEvent(tick=4, channel=0, data=[45, 141]),\n",
      "   midi.NoteOnEvent(tick=1, channel=0, data=[31, 63]),\n",
      "   midi.NoteOnEvent(tick=0, channel=0, data=[33, 167]),\n",
      "   midi.NoteOnEvent(tick=3, channel=0, data=[78, 166]),\n",
      "   midi.NoteOnEvent(tick=2, channel=0, data=[125, 121]),\n",
      "   midi.NoteOnEvent(tick=1, channel=0, data=[41, 161]),\n",
      "   midi.NoteOnEvent(tick=1, channel=0, data=[124, 39]),\n",
      "   midi.NoteOnEvent(tick=1, channel=0, data=[36, 77]),\n",
      "   midi.NoteOnEvent(tick=5, channel=0, data=[89, 1]),\n",
      "   midi.NoteOnEvent(tick=3, channel=0, data=[74, 7]),\n",
      "   midi.NoteOnEvent(tick=1, channel=0, data=[124, 16]),\n",
      "   midi.NoteOnEvent(tick=2, channel=0, data=[90, 165]),\n",
      "   midi.NoteOnEvent(tick=8, channel=0, data=[108, 44]),\n",
      "   midi.NoteOnEvent(tick=3, channel=0, data=[90, 95]),\n",
      "   midi.NoteOnEvent(tick=2, channel=0, data=[118, 66]),\n",
      "   midi.NoteOnEvent(tick=5, channel=0, data=[25, 160]),\n",
      "   midi.NoteOnEvent(tick=2, channel=0, data=[39, 65]),\n",
      "   midi.NoteOnEvent(tick=1, channel=0, data=[27, 8]),\n",
      "   midi.NoteOnEvent(tick=0, channel=0, data=[66, 168]),\n",
      "   midi.NoteOnEvent(tick=1, channel=0, data=[84, 14]),\n",
      "   midi.NoteOnEvent(tick=0, channel=0, data=[80, 45]),\n",
      "   midi.NoteOnEvent(tick=2, channel=0, data=[59, 69]),\n",
      "   midi.NoteOnEvent(tick=0, channel=0, data=[15, 218]),\n",
      "   midi.NoteOnEvent(tick=1, channel=0, data=[126, 50]),\n",
      "   midi.NoteOnEvent(tick=1, channel=0, data=[27, 174]),\n",
      "   midi.NoteOnEvent(tick=8, channel=0, data=[53, 196]),\n",
      "   midi.NoteOnEvent(tick=4, channel=0, data=[87, 111]),\n",
      "   midi.NoteOffEvent(tick=1, channel=0, data=[118, 0]),\n",
      "   midi.NoteOnEvent(tick=0, channel=0, data=[6, 105]),\n",
      "   midi.NoteOnEvent(tick=0, channel=0, data=[97, 31]),\n",
      "   midi.NoteOnEvent(tick=4, channel=0, data=[87, 225]),\n",
      "   midi.NoteOnEvent(tick=2, channel=0, data=[31, 202]),\n",
      "   midi.NoteOnEvent(tick=0, channel=0, data=[95, 246]),\n",
      "   midi.NoteOnEvent(tick=1, channel=0, data=[19, 118]),\n",
      "   midi.NoteOnEvent(tick=3, channel=0, data=[68, 76]),\n",
      "   midi.NoteOnEvent(tick=1, channel=0, data=[35, 83]),\n",
      "   midi.NoteOffEvent(tick=1, channel=0, data=[53, 0]),\n",
      "   midi.NoteOnEvent(tick=2, channel=0, data=[73, 135]),\n",
      "   midi.NoteOffEvent(tick=2, channel=0, data=[85, 0]),\n",
      "   midi.NoteOnEvent(tick=1, channel=0, data=[23, 207]),\n",
      "   midi.NoteOnEvent(tick=0, channel=0, data=[78, 236]),\n",
      "   midi.NoteOnEvent(tick=1, channel=0, data=[125, 201]),\n",
      "   midi.NoteOffEvent(tick=1, channel=0, data=[41, 0]),\n",
      "   midi.NoteOnEvent(tick=0, channel=0, data=[119, 72]),\n",
      "   midi.NoteOnEvent(tick=1, channel=0, data=[25, 105]),\n",
      "   midi.NoteOnEvent(tick=3, channel=0, data=[96, 86]),\n",
      "   midi.NoteOnEvent(tick=0, channel=0, data=[119, 241]),\n",
      "   midi.NoteOnEvent(tick=0, channel=0, data=[56, 241]),\n",
      "   midi.NoteOnEvent(tick=8, channel=0, data=[42, 90]),\n",
      "   midi.NoteOnEvent(tick=0, channel=0, data=[26, 138]),\n",
      "   midi.NoteOnEvent(tick=4, channel=0, data=[85, 252]),\n",
      "   midi.NoteOnEvent(tick=0, channel=0, data=[106, 200]),\n",
      "   midi.NoteOnEvent(tick=0, channel=0, data=[66, 82]),\n",
      "   midi.NoteOnEvent(tick=1, channel=0, data=[84, 53]),\n",
      "   midi.NoteOnEvent(tick=0, channel=0, data=[77, 206]),\n",
      "   midi.NoteOnEvent(tick=1, channel=0, data=[73, 2]),\n",
      "   midi.NoteOnEvent(tick=0, channel=0, data=[21, 245]),\n",
      "   midi.NoteOnEvent(tick=12, channel=0, data=[49, 105]),\n",
      "   midi.NoteOnEvent(tick=1, channel=0, data=[71, 123]),\n",
      "   midi.NoteOnEvent(tick=0, channel=0, data=[108, 56]),\n",
      "   midi.NoteOnEvent(tick=1, channel=0, data=[89, 79]),\n",
      "   midi.NoteOnEvent(tick=0, channel=0, data=[28, 201]),\n",
      "   midi.NoteOnEvent(tick=2, channel=0, data=[90, 165]),\n",
      "   midi.NoteOnEvent(tick=1, channel=0, data=[82, 7]),\n",
      "   midi.NoteOffEvent(tick=1, channel=0, data=[71, 0]),\n",
      "   midi.NoteOnEvent(tick=0, channel=0, data=[94, 124]),\n",
      "   midi.NoteOnEvent(tick=2, channel=0, data=[31, 26]),\n",
      "   midi.NoteOnEvent(tick=6, channel=0, data=[23, 118]),\n",
      "   midi.NoteOnEvent(tick=3, channel=0, data=[23, 1]),\n",
      "   midi.NoteOnEvent(tick=2, channel=0, data=[110, 9]),\n",
      "   midi.NoteOnEvent(tick=1, channel=0, data=[117, 238]),\n",
      "   midi.NoteOnEvent(tick=1, channel=0, data=[68, 93]),\n",
      "   midi.NoteOnEvent(tick=1, channel=0, data=[20, 38]),\n",
      "   midi.NoteOffEvent(tick=1, channel=0, data=[66, 0]),\n",
      "   midi.NoteOnEvent(tick=0, channel=0, data=[30, 234]),\n",
      "   midi.NoteOnEvent(tick=1, channel=0, data=[84, 103]),\n",
      "   midi.NoteOnEvent(tick=1, channel=0, data=[117, 175]),\n",
      "   midi.NoteOnEvent(tick=2, channel=0, data=[44, 164]),\n",
      "   midi.NoteOnEvent(tick=2, channel=0, data=[17, 119]),\n",
      "   midi.NoteOnEvent(tick=2, channel=0, data=[74, 125]),\n",
      "   midi.NoteOnEvent(tick=3, channel=0, data=[98, 54]),\n",
      "   midi.NoteOnEvent(tick=1, channel=0, data=[59, 48]),\n",
      "   midi.NoteOnEvent(tick=0, channel=0, data=[88, 107]),\n",
      "   midi.NoteOnEvent(tick=1, channel=0, data=[55, 240]),\n",
      "   midi.NoteOnEvent(tick=1, channel=0, data=[80, 47]),\n",
      "   midi.NoteOffEvent(tick=2, channel=0, data=[6, 0]),\n",
      "   midi.NoteOnEvent(tick=3, channel=0, data=[116, 145]),\n",
      "   midi.NoteOnEvent(tick=0, channel=0, data=[9, 236]),\n",
      "   midi.NoteOnEvent(tick=7, channel=0, data=[6, 123]),\n",
      "   midi.NoteOnEvent(tick=8, channel=0, data=[78, 146]),\n",
      "   midi.NoteOnEvent(tick=3, channel=0, data=[90, 142]),\n",
      "   midi.NoteOnEvent(tick=1, channel=0, data=[41, 3]),\n",
      "   midi.NoteOffEvent(tick=1, channel=0, data=[12, 0]),\n",
      "   midi.NoteOnEvent(tick=1, channel=0, data=[28, 131]),\n",
      "   midi.NoteOnEvent(tick=2, channel=0, data=[0, 250]),\n",
      "   midi.NoteOnEvent(tick=1, channel=0, data=[122, 231]),\n",
      "   midi.NoteOnEvent(tick=3, channel=0, data=[66, 160]),\n",
      "   midi.NoteOnEvent(tick=1, channel=0, data=[7, 20]),\n",
      "   midi.NoteOnEvent(tick=0, channel=0, data=[86, 156]),\n",
      "   midi.NoteOnEvent(tick=3, channel=0, data=[87, 44]),\n",
      "   midi.NoteOnEvent(tick=0, channel=0, data=[100, 117]),\n",
      "   midi.NoteOnEvent(tick=2, channel=0, data=[1, 99]),\n",
      "   midi.NoteOnEvent(tick=0, channel=0, data=[86, 153]),\n",
      "   midi.NoteOffEvent(tick=5, channel=0, data=[97, 0]),\n",
      "   midi.NoteOnEvent(tick=1, channel=0, data=[50, 59]),\n",
      "   midi.NoteOffEvent(tick=1, channel=0, data=[85, 0]),\n",
      "   midi.NoteOnEvent(tick=0, channel=0, data=[106, 29]),\n",
      "   midi.NoteOnEvent(tick=2, channel=0, data=[73, 14]),\n",
      "   midi.NoteOnEvent(tick=1, channel=0, data=[123, 209]),\n",
      "   midi.NoteOffEvent(tick=2, channel=0, data=[44, 0]),\n",
      "   midi.NoteOnEvent(tick=0, channel=0, data=[45, 230]),\n",
      "   midi.NoteOnEvent(tick=4, channel=0, data=[11, 34]),\n",
      "   midi.NoteOnEvent(tick=0, channel=0, data=[60, 39]),\n",
      "   midi.NoteOnEvent(tick=4, channel=0, data=[31, 57]),\n",
      "   midi.NoteOnEvent(tick=8, channel=0, data=[78, 12]),\n",
      "   midi.NoteOnEvent(tick=1, channel=0, data=[83, 1]),\n",
      "   midi.NoteOnEvent(tick=6, channel=0, data=[14, 216]),\n",
      "   midi.NoteOnEvent(tick=0, channel=0, data=[23, 28]),\n",
      "   midi.NoteOnEvent(tick=5, channel=0, data=[59, 23]),\n",
      "   midi.NoteOnEvent(tick=3, channel=0, data=[8, 201]),\n",
      "   midi.NoteOffEvent(tick=2, channel=0, data=[87, 0]),\n",
      "   midi.NoteOnEvent(tick=1, channel=0, data=[12, 23]),\n",
      "   midi.NoteOffEvent(tick=4, channel=0, data=[58, 0]),\n",
      "   midi.NoteOnEvent(tick=3, channel=0, data=[82, 28]),\n",
      "   midi.NoteOnEvent(tick=2, channel=0, data=[108, 96]),\n",
      "   midi.NoteOnEvent(tick=5, channel=0, data=[14, 48]),\n",
      "   midi.NoteOnEvent(tick=3, channel=0, data=[125, 45]),\n",
      "   midi.NoteOnEvent(tick=7, channel=0, data=[31, 226]),\n",
      "   midi.NoteOnEvent(tick=1, channel=0, data=[10, 238]),\n",
      "   midi.NoteOnEvent(tick=2, channel=0, data=[90, 0]),\n",
      "   midi.NoteOnEvent(tick=5, channel=0, data=[109, 253]),\n",
      "   midi.NoteOnEvent(tick=0, channel=0, data=[37, 224]),\n",
      "   midi.NoteOnEvent(tick=1, channel=0, data=[117, 64]),\n",
      "   midi.NoteOnEvent(tick=5, channel=0, data=[1, 158]),\n",
      "   midi.NoteOnEvent(tick=7, channel=0, data=[117, 226]),\n",
      "   midi.NoteOnEvent(tick=6, channel=0, data=[22, 201]),\n",
      "   midi.NoteOnEvent(tick=1, channel=0, data=[21, 72]),\n",
      "   midi.NoteOnEvent(tick=1, channel=0, data=[63, 110]),\n",
      "   midi.NoteOnEvent(tick=1, channel=0, data=[30, 54]),\n",
      "   midi.NoteOnEvent(tick=10, channel=0, data=[66, 77]),\n",
      "   midi.NoteOnEvent(tick=4, channel=0, data=[42, 131]),\n",
      "   midi.NoteOnEvent(tick=2, channel=0, data=[5, 104]),\n",
      "   midi.NoteOnEvent(tick=1, channel=0, data=[28, 155]),\n",
      "   midi.NoteOnEvent(tick=2, channel=0, data=[47, 219]),\n",
      "   midi.NoteOffEvent(tick=2, channel=0, data=[127, 0]),\n",
      "   midi.NoteOnEvent(tick=0, channel=0, data=[14, 37]),\n",
      "   midi.NoteOnEvent(tick=0, channel=0, data=[119, 75]),\n",
      "   midi.NoteOffEvent(tick=2, channel=0, data=[95, 0]),\n",
      "   midi.NoteOnEvent(tick=1, channel=0, data=[0, 88]),\n",
      "   midi.NoteOnEvent(tick=2, channel=0, data=[67, 138]),\n",
      "   midi.NoteOnEvent(tick=2, channel=0, data=[100, 202]),\n",
      "   midi.NoteOnEvent(tick=0, channel=0, data=[118, 221]),\n",
      "   midi.NoteOnEvent(tick=2, channel=0, data=[27, 49]),\n",
      "   midi.NoteOnEvent(tick=0, channel=0, data=[120, 114]),\n",
      "   midi.NoteOnEvent(tick=3, channel=0, data=[55, 234]),\n",
      "   midi.NoteOffEvent(tick=1, channel=0, data=[19, 0]),\n",
      "   midi.NoteOffEvent(tick=0, channel=0, data=[31, 0]),\n",
      "   midi.NoteOffEvent(tick=1, channel=0, data=[60, 0]),\n",
      "   midi.NoteOffEvent(tick=3, channel=0, data=[88, 0]),\n",
      "   midi.NoteOnEvent(tick=1, channel=0, data=[102, 77]),\n",
      "   midi.NoteOffEvent(tick=2, channel=0, data=[126, 0]),\n",
      "   midi.NoteOnEvent(tick=0, channel=0, data=[5, 95]),\n",
      "   midi.NoteOnEvent(tick=1, channel=0, data=[41, 39]),\n",
      "   midi.NoteOnEvent(tick=1, channel=0, data=[81, 232]),\n",
      "   midi.NoteOnEvent(tick=1, channel=0, data=[59, 248]),\n",
      "   midi.NoteOnEvent(tick=1, channel=0, data=[64, 153]),\n",
      "   midi.NoteOnEvent(tick=1, channel=0, data=[98, 158]),\n",
      "   midi.NoteOnEvent(tick=1, channel=0, data=[28, 160]),\n",
      "   midi.NoteOnEvent(tick=1, channel=0, data=[86, 87]),\n",
      "   midi.NoteOnEvent(tick=0, channel=0, data=[44, 216]),\n",
      "   midi.NoteOnEvent(tick=3, channel=0, data=[35, 107]),\n",
      "   midi.NoteOnEvent(tick=0, channel=0, data=[49, 144]),\n",
      "   midi.NoteOnEvent(tick=1, channel=0, data=[37, 70]),\n",
      "   midi.NoteOnEvent(tick=2, channel=0, data=[104, 24]),\n",
      "   midi.NoteOnEvent(tick=2, channel=0, data=[26, 145]),\n",
      "   midi.NoteOnEvent(tick=0, channel=0, data=[65, 173]),\n",
      "   midi.NoteOnEvent(tick=1, channel=0, data=[0, 188]),\n",
      "   midi.NoteOnEvent(tick=5, channel=0, data=[76, 38]),\n",
      "   midi.NoteOnEvent(tick=4, channel=0, data=[92, 236]),\n",
      "   midi.NoteOnEvent(tick=0, channel=0, data=[76, 97]),\n",
      "   midi.NoteOnEvent(tick=0, channel=0, data=[13, 174]),\n",
      "   midi.NoteOnEvent(tick=0, channel=0, data=[110, 243]),\n",
      "   midi.NoteOnEvent(tick=1, channel=0, data=[34, 170]),\n",
      "   midi.NoteOnEvent(tick=6, channel=0, data=[1, 177]),\n",
      "   midi.NoteOnEvent(tick=9, channel=0, data=[15, 55]),\n",
      "   midi.NoteOnEvent(tick=0, channel=0, data=[40, 239]),\n",
      "   midi.NoteOnEvent(tick=3, channel=0, data=[126, 14]),\n",
      "   midi.NoteOnEvent(tick=0, channel=0, data=[80, 129]),\n",
      "   midi.NoteOnEvent(tick=0, channel=0, data=[82, 57]),\n",
      "   midi.NoteOnEvent(tick=5, channel=0, data=[12, 71]),\n",
      "   midi.NoteOnEvent(tick=0, channel=0, data=[52, 118]),\n",
      "   midi.NoteOnEvent(tick=1, channel=0, data=[37, 64]),\n",
      "   midi.NoteOnEvent(tick=1, channel=0, data=[59, 182]),\n",
      "   midi.NoteOffEvent(tick=1, channel=0, data=[74, 0]),\n",
      "   midi.NoteOnEvent(tick=1, channel=0, data=[51, 233]),\n",
      "   midi.NoteOnEvent(tick=0, channel=0, data=[89, 8]),\n",
      "   midi.NoteOnEvent(tick=1, channel=0, data=[7, 142]),\n",
      "   midi.NoteOnEvent(tick=0, channel=0, data=[83, 11]),\n",
      "   midi.NoteOffEvent(tick=2, channel=0, data=[116, 0]),\n",
      "   midi.NoteOnEvent(tick=0, channel=0, data=[125, 4]),\n",
      "   midi.NoteOffEvent(tick=3, channel=0, data=[64, 0]),\n",
      "   midi.NoteOnEvent(tick=0, channel=0, data=[104, 88]),\n",
      "   midi.NoteOffEvent(tick=1, channel=0, data=[123, 0]),\n",
      "   midi.NoteOnEvent(tick=6, channel=0, data=[3, 235]),\n",
      "   midi.NoteOnEvent(tick=1, channel=0, data=[67, 117]),\n",
      "   midi.NoteOnEvent(tick=0, channel=0, data=[57, 95]),\n",
      "   midi.NoteOnEvent(tick=1, channel=0, data=[70, 210]),\n",
      "   midi.NoteOnEvent(tick=2, channel=0, data=[72, 141]),\n",
      "   midi.NoteOnEvent(tick=0, channel=0, data=[9, 173]),\n",
      "   midi.NoteOnEvent(tick=1, channel=0, data=[119, 148]),\n",
      "   midi.NoteOffEvent(tick=4, channel=0, data=[101, 0]),\n",
      "   midi.NoteOnEvent(tick=0, channel=0, data=[101, 78]),\n",
      "   midi.NoteOnEvent(tick=1, channel=0, data=[9, 89]),\n",
      "   midi.NoteOnEvent(tick=0, channel=0, data=[121, 64]),\n",
      "   midi.NoteOnEvent(tick=0, channel=0, data=[19, 194]),\n",
      "   midi.NoteOnEvent(tick=1, channel=0, data=[79, 173]),\n",
      "   midi.NoteOnEvent(tick=1, channel=0, data=[61, 16]),\n",
      "   midi.NoteOnEvent(tick=0, channel=0, data=[1, 88]),\n",
      "   midi.NoteOnEvent(tick=0, channel=0, data=[126, 244]),\n",
      "   midi.NoteOnEvent(tick=1, channel=0, data=[70, 115]),\n",
      "   midi.NoteOnEvent(tick=0, channel=0, data=[103, 54]),\n",
      "   midi.NoteOnEvent(tick=1, channel=0, data=[69, 183]),\n",
      "   midi.NoteOnEvent(tick=0, channel=0, data=[49, 55]),\n",
      "   midi.NoteOnEvent(tick=1, channel=0, data=[28, 187]),\n",
      "   midi.NoteOffEvent(tick=2, channel=0, data=[47, 0]),\n",
      "   midi.NoteOnEvent(tick=2, channel=0, data=[22, 152]),\n",
      "   midi.NoteOnEvent(tick=2, channel=0, data=[110, 23]),\n",
      "   midi.NoteOnEvent(tick=1, channel=0, data=[121, 0]),\n",
      "   midi.NoteOnEvent(tick=1, channel=0, data=[56, 255]),\n",
      "   midi.NoteOffEvent(tick=1, channel=0, data=[124, 0]),\n",
      "   midi.NoteOnEvent(tick=0, channel=0, data=[74, 128]),\n",
      "   midi.NoteOnEvent(tick=0, channel=0, data=[42, 139]),\n",
      "   midi.NoteOnEvent(tick=2, channel=0, data=[40, 21]),\n",
      "   midi.NoteOnEvent(tick=0, channel=0, data=[104, 221]),\n",
      "   midi.NoteOnEvent(tick=1, channel=0, data=[113, 197]),\n",
      "   midi.NoteOnEvent(tick=3, channel=0, data=[45, 175]),\n",
      "   midi.NoteOnEvent(tick=1, channel=0, data=[108, 198]),\n",
      "   midi.NoteOnEvent(tick=1, channel=0, data=[18, 250]),\n",
      "   midi.NoteOnEvent(tick=2, channel=0, data=[99, 148]),\n",
      "   midi.NoteOffEvent(tick=1, channel=0, data=[78, 0]),\n",
      "   midi.NoteOnEvent(tick=1, channel=0, data=[57, 253]),\n",
      "   midi.NoteOffEvent(tick=1, channel=0, data=[36, 0]),\n",
      "   midi.NoteOnEvent(tick=1, channel=0, data=[63, 30]),\n",
      "   midi.NoteOnEvent(tick=1, channel=0, data=[5, 214]),\n",
      "   midi.NoteOnEvent(tick=1, channel=0, data=[31, 197]),\n",
      "   midi.NoteOnEvent(tick=1, channel=0, data=[67, 128]),\n",
      "   midi.NoteOnEvent(tick=1, channel=0, data=[85, 118]),\n",
      "   midi.NoteOffEvent(tick=3, channel=0, data=[117, 0]),\n",
      "   midi.NoteOnEvent(tick=4, channel=0, data=[67, 62]),\n",
      "   midi.NoteOffEvent(tick=1, channel=0, data=[66, 0]),\n",
      "   midi.NoteOffEvent(tick=2, channel=0, data=[0, 0]),\n",
      "   midi.NoteOnEvent(tick=3, channel=0, data=[117, 211]),\n",
      "   midi.NoteOnEvent(tick=2, channel=0, data=[87, 148]),\n",
      "   midi.NoteOffEvent(tick=1, channel=0, data=[68, 0]),\n",
      "   midi.NoteOnEvent(tick=2, channel=0, data=[103, 3]),\n",
      "   midi.NoteOnEvent(tick=2, channel=0, data=[114, 45]),\n",
      "   midi.NoteOnEvent(tick=4, channel=0, data=[127, 236]),\n",
      "   midi.NoteOnEvent(tick=6, channel=0, data=[6, 64]),\n",
      "   midi.NoteOnEvent(tick=1, channel=0, data=[68, 68]),\n",
      "   midi.NoteOnEvent(tick=4, channel=0, data=[62, 93]),\n",
      "   midi.NoteOnEvent(tick=1, channel=0, data=[54, 118]),\n",
      "   midi.NoteOnEvent(tick=1, channel=0, data=[98, 250]),\n",
      "   midi.NoteOnEvent(tick=0, channel=0, data=[116, 104]),\n",
      "   midi.NoteOnEvent(tick=1, channel=0, data=[61, 60]),\n",
      "   midi.NoteOnEvent(tick=1, channel=0, data=[73, 227]),\n",
      "   midi.NoteOnEvent(tick=1, channel=0, data=[84, 227]),\n",
      "   midi.NoteOnEvent(tick=2, channel=0, data=[117, 248]),\n",
      "   midi.NoteOnEvent(tick=0, channel=0, data=[80, 227]),\n",
      "   midi.NoteOnEvent(tick=1, channel=0, data=[18, 250]),\n",
      "   midi.NoteOnEvent(tick=2, channel=0, data=[64, 250]),\n",
      "   midi.NoteOnEvent(tick=1, channel=0, data=[99, 63]),\n",
      "   midi.NoteOffEvent(tick=1, channel=0, data=[7, 0]),\n",
      "   midi.NoteOnEvent(tick=2, channel=0, data=[119, 171]),\n",
      "   midi.NoteOnEvent(tick=2, channel=0, data=[61, 244]),\n",
      "   midi.NoteOnEvent(tick=1, channel=0, data=[70, 193]),\n",
      "   midi.NoteOnEvent(tick=1, channel=0, data=[6, 15]),\n",
      "   midi.NoteOnEvent(tick=1, channel=0, data=[8, 123]),\n",
      "   midi.NoteOnEvent(tick=1, channel=0, data=[18, 197]),\n",
      "   midi.NoteOnEvent(tick=2, channel=0, data=[70, 171]),\n",
      "   midi.NoteOnEvent(tick=2, channel=0, data=[123, 169]),\n",
      "   midi.NoteOnEvent(tick=1, channel=0, data=[12, 3]),\n",
      "   midi.NoteOffEvent(tick=1, channel=0, data=[33, 0]),\n",
      "   midi.NoteOnEvent(tick=1, channel=0, data=[53, 180]),\n",
      "   midi.NoteOnEvent(tick=3, channel=0, data=[19, 102]),\n",
      "   midi.NoteOnEvent(tick=1, channel=0, data=[92, 127]),\n",
      "   midi.NoteOffEvent(tick=1, channel=0, data=[26, 0]),\n",
      "   midi.NoteOffEvent(tick=3, channel=0, data=[122, 0]),\n",
      "   midi.NoteOnEvent(tick=1, channel=0, data=[64, 101]),\n",
      "   midi.NoteOnEvent(tick=4, channel=0, data=[79, 15]),\n",
      "   midi.NoteOnEvent(tick=0, channel=0, data=[25, 14]),\n",
      "   midi.NoteOffEvent(tick=4, channel=0, data=[25, 0]),\n",
      "   midi.NoteOffEvent(tick=0, channel=0, data=[59, 0]),\n",
      "   midi.NoteOnEvent(tick=0, channel=0, data=[52, 167]),\n",
      "   midi.NoteOnEvent(tick=1, channel=0, data=[125, 76]),\n",
      "   midi.NoteOffEvent(tick=2, channel=0, data=[100, 0]),\n",
      "   midi.NoteOnEvent(tick=2, channel=0, data=[61, 194]),\n",
      "   midi.NoteOnEvent(tick=5, channel=0, data=[113, 123]),\n",
      "   midi.NoteOnEvent(tick=1, channel=0, data=[100, 160]),\n",
      "   midi.NoteOffEvent(tick=1, channel=0, data=[42, 0]),\n",
      "   midi.NoteOnEvent(tick=0, channel=0, data=[115, 20]),\n",
      "   midi.NoteOnEvent(tick=1, channel=0, data=[9, 59]),\n",
      "   midi.NoteOnEvent(tick=0, channel=0, data=[125, 32]),\n",
      "   midi.NoteOffEvent(tick=1, channel=0, data=[57, 0]),\n",
      "   midi.NoteOnEvent(tick=1, channel=0, data=[26, 102]),\n",
      "   midi.NoteOffEvent(tick=1, channel=0, data=[114, 0]),\n",
      "   midi.NoteOnEvent(tick=1, channel=0, data=[73, 227]),\n",
      "   midi.NoteOnEvent(tick=0, channel=0, data=[115, 189]),\n",
      "   midi.NoteOffEvent(tick=1, channel=0, data=[69, 0]),\n",
      "   midi.NoteOnEvent(tick=0, channel=0, data=[29, 124]),\n",
      "   midi.NoteOnEvent(tick=2, channel=0, data=[113, 30]),\n",
      "   midi.NoteOnEvent(tick=0, channel=0, data=[104, 139]),\n",
      "   midi.NoteOffEvent(tick=1, channel=0, data=[83, 0]),\n",
      "   midi.NoteOnEvent(tick=1, channel=0, data=[9, 12]),\n",
      "   midi.NoteOnEvent(tick=2, channel=0, data=[119, 55]),\n",
      "   midi.NoteOnEvent(tick=2, channel=0, data=[113, 58]),\n",
      "   midi.NoteOnEvent(tick=0, channel=0, data=[91, 226]),\n",
      "   midi.NoteOnEvent(tick=0, channel=0, data=[62, 64]),\n",
      "   midi.NoteOffEvent(tick=2, channel=0, data=[9, 0]),\n",
      "   midi.NoteOffEvent(tick=0, channel=0, data=[102, 0]),\n",
      "   midi.NoteOnEvent(tick=0, channel=0, data=[0, 35]),\n",
      "   midi.NoteOnEvent(tick=1, channel=0, data=[31, 182]),\n",
      "   midi.NoteOnEvent(tick=0, channel=0, data=[123, 77]),\n",
      "   midi.NoteOnEvent(tick=0, channel=0, data=[105, 173]),\n",
      "   midi.NoteOffEvent(tick=2, channel=0, data=[82, 0]),\n",
      "   midi.NoteOnEvent(tick=0, channel=0, data=[74, 198]),\n",
      "   midi.NoteOnEvent(tick=0, channel=0, data=[45, 87]),\n",
      "   midi.NoteOnEvent(tick=0, channel=0, data=[12, 97]),\n",
      "   midi.NoteOnEvent(tick=1, channel=0, data=[60, 45]),\n",
      "   midi.NoteOnEvent(tick=2, channel=0, data=[87, 111]),\n",
      "   midi.NoteOnEvent(tick=2, channel=0, data=[35, 67]),\n",
      "   midi.NoteOnEvent(tick=1, channel=0, data=[83, 176]),\n",
      "   midi.NoteOffEvent(tick=1, channel=0, data=[40, 0]),\n",
      "   midi.NoteOnEvent(tick=0, channel=0, data=[23, 22]),\n",
      "   midi.NoteOffEvent(tick=2, channel=0, data=[31, 0]),\n",
      "   midi.NoteOnEvent(tick=0, channel=0, data=[123, 55]),\n",
      "   midi.NoteOnEvent(tick=3, channel=0, data=[25, 35]),\n",
      "   midi.NoteOnEvent(tick=3, channel=0, data=[62, 57]),\n",
      "   midi.NoteOnEvent(tick=1, channel=0, data=[39, 35]),\n",
      "   midi.NoteOnEvent(tick=0, channel=0, data=[122, 39]),\n",
      "   midi.NoteOnEvent(tick=5, channel=0, data=[75, 44]),\n",
      "   midi.NoteOnEvent(tick=1, channel=0, data=[61, 227]),\n",
      "   midi.NoteOnEvent(tick=0, channel=0, data=[112, 139]),\n",
      "   midi.NoteOnEvent(tick=1, channel=0, data=[59, 49]),\n",
      "   midi.NoteOffEvent(tick=3, channel=0, data=[14, 0]),\n",
      "   midi.NoteOnEvent(tick=0, channel=0, data=[107, 160]),\n",
      "   midi.NoteOnEvent(tick=1, channel=0, data=[76, 252]),\n",
      "   midi.NoteOnEvent(tick=1, channel=0, data=[31, 226]),\n",
      "   midi.NoteOnEvent(tick=5, channel=0, data=[72, 42]),\n",
      "   midi.NoteOnEvent(tick=2, channel=0, data=[54, 96]),\n",
      "   midi.NoteOnEvent(tick=1, channel=0, data=[26, 65]),\n",
      "   midi.NoteOffEvent(tick=3, channel=0, data=[19, 0]),\n",
      "   midi.NoteOnEvent(tick=1, channel=0, data=[90, 69]),\n",
      "   midi.NoteOnEvent(tick=3, channel=0, data=[36, 246]),\n",
      "   midi.NoteOnEvent(tick=1, channel=0, data=[47, 115]),\n",
      "   midi.NoteOnEvent(tick=3, channel=0, data=[18, 194]),\n",
      "   midi.NoteOffEvent(tick=1, channel=0, data=[70, 0]),\n",
      "   midi.NoteOnEvent(tick=0, channel=0, data=[31, 12]),\n",
      "   midi.NoteOnEvent(tick=1, channel=0, data=[122, 157]),\n",
      "   midi.NoteOnEvent(tick=2, channel=0, data=[28, 171]),\n",
      "   midi.NoteOnEvent(tick=1, channel=0, data=[97, 52]),\n",
      "   midi.NoteOnEvent(tick=0, channel=0, data=[115, 188]),\n",
      "   midi.NoteOnEvent(tick=0, channel=0, data=[25, 88]),\n",
      "   midi.NoteOnEvent(tick=1, channel=0, data=[29, 136]),\n",
      "   midi.NoteOnEvent(tick=1, channel=0, data=[82, 53]),\n",
      "   midi.NoteOnEvent(tick=0, channel=0, data=[54, 78]),\n",
      "   midi.NoteOnEvent(tick=1, channel=0, data=[76, 23]),\n",
      "   midi.NoteOnEvent(tick=3, channel=0, data=[35, 94]),\n",
      "   midi.NoteOnEvent(tick=1, channel=0, data=[117, 62]),\n",
      "   midi.NoteOffEvent(tick=1, channel=0, data=[37, 0]),\n",
      "   midi.NoteOnEvent(tick=1, channel=0, data=[125, 212]),\n",
      "   midi.NoteOnEvent(tick=5, channel=0, data=[64, 82]),\n",
      "   midi.NoteOffEvent(tick=2, channel=0, data=[13, 0]),\n",
      "   midi.NoteOnEvent(tick=0, channel=0, data=[59, 245]),\n",
      "   midi.NoteOffEvent(tick=4, channel=0, data=[109, 0]),\n",
      "   midi.NoteOnEvent(tick=1, channel=0, data=[77, 215]),\n",
      "   midi.NoteOnEvent(tick=1, channel=0, data=[116, 21]),\n",
      "   midi.NoteOnEvent(tick=0, channel=0, data=[49, 235]),\n",
      "   midi.NoteOffEvent(tick=2, channel=0, data=[120, 0]),\n",
      "   midi.NoteOnEvent(tick=4, channel=0, data=[14, 162]),\n",
      "   midi.NoteOnEvent(tick=0, channel=0, data=[52, 175]),\n",
      "   midi.NoteOnEvent(tick=1, channel=0, data=[91, 89]),\n",
      "   midi.NoteOnEvent(tick=1, channel=0, data=[31, 6]),\n",
      "   midi.NoteOnEvent(tick=1, channel=0, data=[20, 9]),\n",
      "   midi.NoteOnEvent(tick=1, channel=0, data=[17, 94]),\n",
      "   midi.NoteOnEvent(tick=1, channel=0, data=[32, 214]),\n",
      "   midi.NoteOnEvent(tick=1, channel=0, data=[32, 18]),\n",
      "   midi.NoteOnEvent(tick=0, channel=0, data=[42, 148]),\n",
      "   midi.NoteOnEvent(tick=1, channel=0, data=[82, 244]),\n",
      "   midi.NoteOnEvent(tick=1, channel=0, data=[5, 212]),\n",
      "   midi.NoteOnEvent(tick=1, channel=0, data=[36, 1]),\n",
      "   midi.NoteOffEvent(tick=1, channel=0, data=[56, 0]),\n",
      "   midi.NoteOnEvent(tick=1, channel=0, data=[0, 149]),\n",
      "   midi.NoteOffEvent(tick=1, channel=0, data=[90, 0]),\n",
      "   midi.NoteOnEvent(tick=1, channel=0, data=[10, 24]),\n",
      "   midi.NoteOffEvent(tick=1, channel=0, data=[55, 0]),\n",
      "   midi.NoteOnEvent(tick=5, channel=0, data=[64, 79]),\n",
      "   midi.NoteOnEvent(tick=3, channel=0, data=[121, 163]),\n",
      "   midi.NoteOnEvent(tick=0, channel=0, data=[84, 186]),\n",
      "   midi.NoteOnEvent(tick=2, channel=0, data=[120, 207]),\n",
      "   midi.NoteOnEvent(tick=1, channel=0, data=[32, 143]),\n",
      "   midi.NoteOnEvent(tick=0, channel=0, data=[106, 30]),\n",
      "   midi.NoteOnEvent(tick=1, channel=0, data=[43, 2]),\n",
      "   midi.NoteOffEvent(tick=2, channel=0, data=[44, 0]),\n",
      "   midi.NoteOnEvent(tick=1, channel=0, data=[22, 18]),\n",
      "   midi.NoteOnEvent(tick=1, channel=0, data=[63, 199]),\n",
      "   midi.NoteOnEvent(tick=2, channel=0, data=[58, 103]),\n",
      "   midi.NoteOnEvent(tick=3, channel=0, data=[87, 152]),\n",
      "   midi.NoteOnEvent(tick=5, channel=0, data=[52, 106]),\n",
      "   midi.NoteOnEvent(tick=1, channel=0, data=[121, 254]),\n",
      "   midi.NoteOffEvent(tick=1, channel=0, data=[112, 0]),\n",
      "   midi.NoteOffEvent(tick=1, channel=0, data=[12, 0]),\n",
      "   midi.NoteOnEvent(tick=0, channel=0, data=[104, 232]),\n",
      "   midi.NoteOnEvent(tick=0, channel=0, data=[104, 180]),\n",
      "   midi.NoteOnEvent(tick=1, channel=0, data=[48, 29]),\n",
      "   midi.NoteOnEvent(tick=0, channel=0, data=[67, 201]),\n",
      "   midi.NoteOffEvent(tick=2, channel=0, data=[94, 0]),\n",
      "   midi.NoteOnEvent(tick=2, channel=0, data=[85, 168]),\n",
      "   midi.NoteOnEvent(tick=1, channel=0, data=[121, 23]),\n",
      "   midi.NoteOnEvent(tick=3, channel=0, data=[45, 163]),\n",
      "   midi.NoteOnEvent(tick=2, channel=0, data=[14, 78]),\n",
      "   midi.NoteOnEvent(tick=2, channel=0, data=[37, 192]),\n",
      "   midi.NoteOnEvent(tick=1, channel=0, data=[22, 143]),\n",
      "   midi.NoteOffEvent(tick=5, channel=0, data=[83, 0]),\n",
      "   midi.NoteOnEvent(tick=0, channel=0, data=[110, 96]),\n",
      "   midi.NoteOffEvent(tick=2, channel=0, data=[80, 0]),\n",
      "   midi.NoteOnEvent(tick=0, channel=0, data=[46, 220]),\n",
      "   midi.NoteOnEvent(tick=1, channel=0, data=[115, 164]),\n",
      "   midi.NoteOffEvent(tick=1, channel=0, data=[108, 0]),\n",
      "   midi.NoteOnEvent(tick=4, channel=0, data=[100, 240]),\n",
      "   midi.NoteOnEvent(tick=1, channel=0, data=[104, 162]),\n",
      "   midi.NoteOnEvent(tick=1, channel=0, data=[10, 72]),\n",
      "   midi.NoteOffEvent(tick=2, channel=0, data=[61, 0]),\n",
      "   midi.NoteOnEvent(tick=2, channel=0, data=[59, 188]),\n",
      "   midi.NoteOnEvent(tick=2, channel=0, data=[26, 132]),\n",
      "   midi.NoteOffEvent(tick=1, channel=0, data=[107, 0]),\n",
      "   midi.NoteOnEvent(tick=1, channel=0, data=[0, 85]),\n",
      "   midi.NoteOnEvent(tick=6, channel=0, data=[17, 104]),\n",
      "   midi.NoteOnEvent(tick=1, channel=0, data=[126, 104]),\n",
      "   midi.NoteOnEvent(tick=1, channel=0, data=[107, 218]),\n",
      "   midi.NoteOnEvent(tick=0, channel=0, data=[67, 23]),\n",
      "   midi.NoteOffEvent(tick=2, channel=0, data=[21, 0]),\n",
      "   midi.NoteOnEvent(tick=1, channel=0, data=[53, 244]),\n",
      "   midi.NoteOnEvent(tick=5, channel=0, data=[67, 236]),\n",
      "   midi.NoteOffEvent(tick=3, channel=0, data=[30, 0]),\n",
      "   midi.NoteOffEvent(tick=0, channel=0, data=[120, 0]),\n",
      "   midi.NoteOnEvent(tick=1, channel=0, data=[40, 203]),\n",
      "   midi.NoteOnEvent(tick=1, channel=0, data=[124, 99]),\n",
      "   midi.NoteOnEvent(tick=0, channel=0, data=[91, 131]),\n",
      "   midi.NoteOnEvent(tick=1, channel=0, data=[58, 78]),\n",
      "   midi.NoteOnEvent(tick=1, channel=0, data=[63, 177]),\n",
      "   midi.NoteOnEvent(tick=6, channel=0, data=[64, 173]),\n",
      "   midi.NoteOffEvent(tick=6, channel=0, data=[64, 0]),\n",
      "   midi.NoteOffEvent(tick=1, channel=0, data=[103, 0]),\n",
      "   midi.NoteOnEvent(tick=1, channel=0, data=[37, 73]),\n",
      "   midi.NoteOnEvent(tick=1, channel=0, data=[87, 138]),\n",
      "   midi.NoteOnEvent(tick=3, channel=0, data=[124, 200]),\n",
      "   midi.NoteOnEvent(tick=1, channel=0, data=[31, 150]),\n",
      "   midi.NoteOnEvent(tick=1, channel=0, data=[88, 17]),\n",
      "   midi.NoteOnEvent(tick=0, channel=0, data=[59, 136]),\n",
      "   midi.NoteOffEvent(tick=1, channel=0, data=[52, 0]),\n",
      "   midi.NoteOnEvent(tick=0, channel=0, data=[55, 197]),\n",
      "   midi.NoteOnEvent(tick=0, channel=0, data=[40, 67]),\n",
      "   midi.NoteOnEvent(tick=4, channel=0, data=[84, 117]),\n",
      "   midi.NoteOnEvent(tick=0, channel=0, data=[125, 189]),\n",
      "   midi.NoteOnEvent(tick=3, channel=0, data=[40, 235]),\n",
      "   midi.NoteOffEvent(tick=1, channel=0, data=[97, 0]),\n",
      "   midi.NoteOnEvent(tick=1, channel=0, data=[86, 44]),\n",
      "   midi.NoteOffEvent(tick=1, channel=0, data=[91, 0]),\n",
      "   midi.NoteOnEvent(tick=0, channel=0, data=[85, 55]),\n",
      "   midi.NoteOnEvent(tick=1, channel=0, data=[61, 66]),\n",
      "   midi.NoteOnEvent(tick=5, channel=0, data=[33, 178]),\n",
      "   midi.NoteOnEvent(tick=0, channel=0, data=[20, 35]),\n",
      "   midi.NoteOffEvent(tick=6, channel=0, data=[51, 0]),\n",
      "   midi.NoteOnEvent(tick=1, channel=0, data=[118, 61]),\n",
      "   midi.NoteOnEvent(tick=4, channel=0, data=[8, 168]),\n",
      "   midi.NoteOnEvent(tick=2, channel=0, data=[63, 203]),\n",
      "   midi.NoteOnEvent(tick=2, channel=0, data=[66, 169]),\n",
      "   midi.NoteOnEvent(tick=0, channel=0, data=[47, 156]),\n",
      "   midi.NoteOnEvent(tick=0, channel=0, data=[79, 49]),\n",
      "   midi.NoteOnEvent(tick=1, channel=0, data=[33, 202]),\n",
      "   midi.NoteOnEvent(tick=1, channel=0, data=[34, 51]),\n",
      "   midi.NoteOnEvent(tick=1, channel=0, data=[59, 140]),\n",
      "   midi.NoteOffEvent(tick=5, channel=0, data=[25, 0]),\n",
      "   midi.NoteOnEvent(tick=4, channel=0, data=[16, 93]),\n",
      "   midi.NoteOnEvent(tick=6, channel=0, data=[4, 185]),\n",
      "   midi.NoteOffEvent(tick=1, channel=0, data=[99, 0]),\n",
      "   midi.NoteOnEvent(tick=6, channel=0, data=[122, 49]),\n",
      "   midi.NoteOnEvent(tick=0, channel=0, data=[18, 95]),\n",
      "   midi.NoteOffEvent(tick=3, channel=0, data=[4, 0]),\n",
      "   midi.NoteOnEvent(tick=0, channel=0, data=[78, 133]),\n",
      "   midi.NoteOnEvent(tick=0, channel=0, data=[59, 64]),\n",
      "   midi.NoteOnEvent(tick=2, channel=0, data=[76, 209]),\n",
      "   midi.NoteOnEvent(tick=0, channel=0, data=[94, 184]),\n",
      "   midi.NoteOnEvent(tick=0, channel=0, data=[127, 56]),\n",
      "   midi.NoteOnEvent(tick=0, channel=0, data=[28, 112]),\n",
      "   midi.NoteOffEvent(tick=2, channel=0, data=[123, 0]),\n",
      "   midi.NoteOffEvent(tick=3, channel=0, data=[126, 0]),\n",
      "   midi.NoteOnEvent(tick=0, channel=0, data=[94, 215]),\n",
      "   midi.NoteOffEvent(tick=3, channel=0, data=[96, 0]),\n",
      "   midi.NoteOnEvent(tick=0, channel=0, data=[84, 93]),\n",
      "   midi.NoteOnEvent(tick=4, channel=0, data=[98, 28]),\n",
      "   midi.NoteOnEvent(tick=0, channel=0, data=[80, 170]),\n",
      "   midi.NoteOffEvent(tick=1, channel=0, data=[80, 0]),\n",
      "   midi.NoteOnEvent(tick=0, channel=0, data=[70, 194]),\n",
      "   midi.NoteOnEvent(tick=1, channel=0, data=[49, 62]),\n",
      "   midi.NoteOnEvent(tick=0, channel=0, data=[119, 99]),\n",
      "   midi.NoteOnEvent(tick=3, channel=0, data=[7, 57]),\n",
      "   midi.NoteOnEvent(tick=1, channel=0, data=[83, 201]),\n",
      "   midi.NoteOffEvent(tick=1, channel=0, data=[26, 0]),\n",
      "   midi.NoteOnEvent(tick=4, channel=0, data=[23, 122]),\n",
      "   midi.NoteOnEvent(tick=1, channel=0, data=[117, 45]),\n",
      "   midi.NoteOnEvent(tick=1, channel=0, data=[116, 220]),\n",
      "   midi.NoteOnEvent(tick=2, channel=0, data=[121, 182]),\n",
      "   midi.NoteOnEvent(tick=3, channel=0, data=[70, 18]),\n",
      "   midi.NoteOnEvent(tick=6, channel=0, data=[14, 93]),\n",
      "   midi.NoteOffEvent(tick=1, channel=0, data=[105, 0]),\n",
      "   midi.NoteOffEvent(tick=0, channel=0, data=[125, 0]),\n",
      "   midi.NoteOnEvent(tick=2, channel=0, data=[35, 150]),\n",
      "   midi.NoteOnEvent(tick=2, channel=0, data=[33, 61]),\n",
      "   midi.NoteOnEvent(tick=5, channel=0, data=[8, 164]),\n",
      "   midi.NoteOnEvent(tick=1, channel=0, data=[116, 188]),\n",
      "   midi.NoteOnEvent(tick=4, channel=0, data=[127, 31]),\n",
      "   midi.NoteOnEvent(tick=0, channel=0, data=[84, 99]),\n",
      "   midi.NoteOnEvent(tick=2, channel=0, data=[97, 140]),\n",
      "   midi.NoteOffEvent(tick=2, channel=0, data=[20, 0]),\n",
      "   midi.NoteOnEvent(tick=0, channel=0, data=[49, 106]),\n",
      "   midi.NoteOffEvent(tick=2, channel=0, data=[11, 0]),\n",
      "   midi.NoteOnEvent(tick=2, channel=0, data=[9, 15]),\n",
      "   midi.NoteOnEvent(tick=3, channel=0, data=[14, 112]),\n",
      "   midi.NoteOnEvent(tick=1, channel=0, data=[13, 149]),\n",
      "   midi.NoteOnEvent(tick=7, channel=0, data=[42, 166]),\n",
      "   midi.NoteOffEvent(tick=3, channel=0, data=[68, 0]),\n",
      "   midi.NoteOnEvent(tick=0, channel=0, data=[57, 57]),\n",
      "   midi.NoteOnEvent(tick=3, channel=0, data=[54, 89]),\n",
      "   midi.NoteOnEvent(tick=4, channel=0, data=[14, 64]),\n",
      "   midi.NoteOffEvent(tick=2, channel=0, data=[34, 0]),\n",
      "   midi.NoteOffEvent(tick=0, channel=0, data=[113, 0]),\n",
      "   midi.NoteOnEvent(tick=2, channel=0, data=[119, 88]),\n",
      "   midi.NoteOnEvent(tick=1, channel=0, data=[51, 104]),\n",
      "   midi.NoteOffEvent(tick=1, channel=0, data=[6, 0]),\n",
      "   midi.NoteOnEvent(tick=5, channel=0, data=[10, 89]),\n",
      "   midi.NoteOffEvent(tick=1, channel=0, data=[51, 0]),\n",
      "   midi.NoteOffEvent(tick=3, channel=0, data=[65, 0]),\n",
      "   midi.NoteOnEvent(tick=0, channel=0, data=[27, 141]),\n",
      "   midi.NoteOffEvent(tick=1, channel=0, data=[32, 0]),\n",
      "   midi.NoteOffEvent(tick=0, channel=0, data=[77, 0]),\n",
      "   midi.NoteOnEvent(tick=1, channel=0, data=[5, 183]),\n",
      "   midi.NoteOnEvent(tick=0, channel=0, data=[19, 155]),\n",
      "   midi.NoteOffEvent(tick=2, channel=0, data=[81, 0]),\n",
      "   midi.NoteOnEvent(tick=0, channel=0, data=[32, 151]),\n",
      "   midi.NoteOffEvent(tick=1, channel=0, data=[73, 0]),\n",
      "   midi.NoteOnEvent(tick=3, channel=0, data=[46, 0]),\n",
      "   midi.NoteOnEvent(tick=1, channel=0, data=[114, 70]),\n",
      "   midi.NoteOnEvent(tick=0, channel=0, data=[62, 226]),\n",
      "   midi.NoteOnEvent(tick=1, channel=0, data=[14, 157]),\n",
      "   midi.NoteOnEvent(tick=4, channel=0, data=[64, 79]),\n",
      "   midi.NoteOnEvent(tick=0, channel=0, data=[79, 30]),\n",
      "   midi.NoteOffEvent(tick=1, channel=0, data=[119, 0]),\n",
      "   midi.NoteOnEvent(tick=1, channel=0, data=[17, 131]),\n",
      "   midi.NoteOnEvent(tick=1, channel=0, data=[39, 31]),\n",
      "   midi.NoteOnEvent(tick=3, channel=0, data=[57, 211]),\n",
      "   midi.NoteOnEvent(tick=1, channel=0, data=[74, 162]),\n",
      "   midi.NoteOnEvent(tick=2, channel=0, data=[15, 141]),\n",
      "   midi.NoteOnEvent(tick=1, channel=0, data=[7, 128]),\n",
      "   midi.NoteOnEvent(tick=1, channel=0, data=[27, 125]),\n",
      "   midi.NoteOnEvent(tick=1, channel=0, data=[78, 171]),\n",
      "   midi.NoteOnEvent(tick=0, channel=0, data=[109, 75]),\n",
      "   midi.NoteOnEvent(tick=0, channel=0, data=[105, 18]),\n",
      "   midi.NoteOffEvent(tick=1, channel=0, data=[97, 0]),\n",
      "   midi.NoteOnEvent(tick=0, channel=0, data=[29, 42]),\n",
      "   midi.NoteOnEvent(tick=2, channel=0, data=[1, 122]),\n",
      "   midi.NoteOnEvent(tick=4, channel=0, data=[115, 219]),\n",
      "   midi.NoteOnEvent(tick=2, channel=0, data=[2, 141]),\n",
      "   midi.NoteOnEvent(tick=1, channel=0, data=[107, 46]),\n",
      "   midi.NoteOffEvent(tick=3, channel=0, data=[116, 0]),\n",
      "   midi.NoteOffEvent(tick=1, channel=0, data=[14, 0]),\n",
      "   midi.NoteOffEvent(tick=1, channel=0, data=[114, 0]),\n",
      "   midi.NoteOnEvent(tick=0, channel=0, data=[116, 184]),\n",
      "   midi.NoteOnEvent(tick=1, channel=0, data=[107, 55]),\n",
      "   midi.NoteOnEvent(tick=2, channel=0, data=[41, 190]),\n",
      "   midi.NoteOnEvent(tick=0, channel=0, data=[120, 160]),\n",
      "   midi.NoteOffEvent(tick=1, channel=0, data=[86, 0]),\n",
      "   midi.NoteOnEvent(tick=1, channel=0, data=[3, 227]),\n",
      "   midi.NoteOffEvent(tick=1, channel=0, data=[41, 0]),\n",
      "   midi.NoteOffEvent(tick=1, channel=0, data=[37, 0]),\n",
      "   midi.NoteOnEvent(tick=3, channel=0, data=[107, 110]),\n",
      "   midi.NoteOnEvent(tick=1, channel=0, data=[123, 250]),\n",
      "   midi.NoteOnEvent(tick=2, channel=0, data=[40, 57]),\n",
      "   midi.NoteOnEvent(tick=0, channel=0, data=[64, 117]),\n",
      "   midi.NoteOnEvent(tick=1, channel=0, data=[126, 15]),\n",
      "   midi.NoteOnEvent(tick=3, channel=0, data=[69, 7]),\n",
      "   midi.NoteOffEvent(tick=5, channel=0, data=[1, 0]),\n",
      "   midi.NoteOnEvent(tick=4, channel=0, data=[1, 74]),\n",
      "   midi.NoteOffEvent(tick=9, channel=0, data=[42, 0]),\n",
      "   midi.NoteOffEvent(tick=3, channel=0, data=[110, 0]),\n",
      "   midi.NoteOffEvent(tick=20, channel=0, data=[18, 0]),\n",
      "   midi.NoteOffEvent(tick=4, channel=0, data=[117, 0]),\n",
      "   midi.NoteOffEvent(tick=2, channel=0, data=[94, 0]),\n",
      "   midi.NoteOffEvent(tick=1, channel=0, data=[115, 0]),\n",
      "   midi.NoteOffEvent(tick=16, channel=0, data=[54, 0]),\n",
      "   midi.NoteOffEvent(tick=13, channel=0, data=[92, 0]),\n",
      "   midi.NoteOffEvent(tick=17, channel=0, data=[9, 0]),\n",
      "   midi.NoteOffEvent(tick=6, channel=0, data=[127, 0]),\n",
      "   midi.NoteOffEvent(tick=10, channel=0, data=[87, 0]),\n",
      "   midi.NoteOffEvent(tick=10, channel=0, data=[50, 0]),\n",
      "   midi.NoteOffEvent(tick=32, channel=0, data=[76, 0]),\n",
      "   midi.NoteOffEvent(tick=17, channel=0, data=[5, 0]),\n",
      "   midi.NoteOffEvent(tick=6, channel=0, data=[13, 0]),\n",
      "   midi.NoteOffEvent(tick=2, channel=0, data=[29, 0]),\n",
      "   midi.NoteOffEvent(tick=22, channel=0, data=[72, 0]),\n",
      "   midi.NoteOffEvent(tick=1, channel=0, data=[101, 0]),\n",
      "   midi.NoteOffEvent(tick=17, channel=0, data=[82, 0]),\n",
      "   midi.NoteOffEvent(tick=4, channel=0, data=[46, 0]),\n",
      "   midi.NoteOffEvent(tick=11, channel=0, data=[88, 0]),\n",
      "   midi.NoteOffEvent(tick=19, channel=0, data=[8, 0]),\n",
      "   midi.NoteOffEvent(tick=3, channel=0, data=[16, 0]),\n",
      "   midi.NoteOffEvent(tick=6, channel=0, data=[43, 0]),\n",
      "   midi.NoteOffEvent(tick=1, channel=0, data=[123, 0]),\n",
      "   midi.NoteOffEvent(tick=1, channel=0, data=[69, 0]),\n",
      "   midi.NoteOffEvent(tick=6, channel=0, data=[122, 0]),\n",
      "   midi.NoteOffEvent(tick=12, channel=0, data=[22, 0]),\n",
      "   midi.NoteOffEvent(tick=3, channel=0, data=[10, 0]),\n",
      "   midi.NoteOffEvent(tick=9, channel=0, data=[36, 0]),\n",
      "   midi.NoteOffEvent(tick=1, channel=0, data=[61, 0]),\n",
      "   midi.NoteOffEvent(tick=6, channel=0, data=[60, 0]),\n",
      "   midi.NoteOffEvent(tick=23, channel=0, data=[47, 0]),\n",
      "   midi.NoteOffEvent(tick=3, channel=0, data=[2, 0]),\n",
      "   midi.NoteOffEvent(tick=20, channel=0, data=[121, 0]),\n",
      "   midi.NoteOffEvent(tick=17, channel=0, data=[107, 0]),\n",
      "   midi.NoteOffEvent(tick=1, channel=0, data=[55, 0]),\n",
      "   midi.NoteOffEvent(tick=1, channel=0, data=[104, 0]),\n",
      "   midi.NoteOffEvent(tick=4, channel=0, data=[59, 0]),\n",
      "   midi.NoteOffEvent(tick=12, channel=0, data=[49, 0]),\n",
      "   midi.NoteOffEvent(tick=1, channel=0, data=[3, 0]),\n",
      "   midi.NoteOffEvent(tick=2, channel=0, data=[83, 0]),\n",
      "   midi.NoteOffEvent(tick=9, channel=0, data=[31, 0]),\n",
      "   midi.NoteOffEvent(tick=2, channel=0, data=[53, 0]),\n",
      "   midi.NoteOffEvent(tick=1, channel=0, data=[75, 0]),\n",
      "   midi.NoteOffEvent(tick=7, channel=0, data=[89, 0]),\n",
      "   midi.NoteOffEvent(tick=4, channel=0, data=[64, 0]),\n",
      "   midi.NoteOffEvent(tick=13, channel=0, data=[57, 0]),\n",
      "   midi.NoteOffEvent(tick=1, channel=0, data=[19, 0]),\n",
      "   midi.NoteOffEvent(tick=4, channel=0, data=[84, 0]),\n",
      "   midi.NoteOffEvent(tick=15, channel=0, data=[27, 0]),\n",
      "   midi.NoteOffEvent(tick=0, channel=0, data=[126, 0]),\n",
      "   midi.NoteOffEvent(tick=19, channel=0, data=[0, 0]),\n",
      "   midi.NoteOffEvent(tick=1, channel=0, data=[106, 0]),\n",
      "   midi.NoteOffEvent(tick=1, channel=0, data=[32, 0]),\n",
      "   midi.NoteOffEvent(tick=2, channel=0, data=[23, 0]),\n",
      "   midi.NoteOffEvent(tick=1, channel=0, data=[79, 0]),\n",
      "   midi.NoteOffEvent(tick=0, channel=0, data=[100, 0]),\n",
      "   midi.NoteOffEvent(tick=9, channel=0, data=[63, 0]),\n",
      "   midi.NoteOffEvent(tick=55, channel=0, data=[15, 0]),\n",
      "   midi.NoteOffEvent(tick=0, channel=0, data=[40, 0]),\n",
      "   midi.NoteOffEvent(tick=1, channel=0, data=[67, 0]),\n",
      "   midi.NoteOffEvent(tick=6, channel=0, data=[39, 0]),\n",
      "   midi.NoteOffEvent(tick=19, channel=0, data=[70, 0]),\n",
      "   midi.NoteOffEvent(tick=5, channel=0, data=[120, 0]),\n",
      "   midi.NoteOffEvent(tick=1, channel=0, data=[98, 0]),\n",
      "   midi.NoteOffEvent(tick=3, channel=0, data=[28, 0]),\n",
      "   midi.NoteOffEvent(tick=31, channel=0, data=[48, 0]),\n",
      "   midi.NoteOffEvent(tick=10, channel=0, data=[78, 0]),\n",
      "   midi.NoteOffEvent(tick=28, channel=0, data=[85, 0]),\n",
      "   midi.NoteOffEvent(tick=8, channel=0, data=[7, 0]),\n",
      "   midi.NoteOffEvent(tick=0, channel=0, data=[109, 0]),\n",
      "   midi.NoteOffEvent(tick=6, channel=0, data=[58, 0]),\n",
      "   midi.NoteOffEvent(tick=24, channel=0, data=[124, 0]),\n",
      "   midi.NoteOffEvent(tick=4, channel=0, data=[118, 0]),\n",
      "   midi.NoteOffEvent(tick=6, channel=0, data=[45, 0]),\n",
      "   midi.NoteOffEvent(tick=9, channel=0, data=[17, 0]),\n",
      "   midi.NoteOffEvent(tick=19, channel=0, data=[66, 0]),\n",
      "   midi.NoteOffEvent(tick=36, channel=0, data=[33, 0]),\n",
      "   midi.NoteOffEvent(tick=4, channel=0, data=[116, 0]),\n",
      "   midi.NoteOffEvent(tick=3, channel=0, data=[62, 0]),\n",
      "   midi.NoteOffEvent(tick=45, channel=0, data=[35, 0]),\n",
      "   midi.NoteOffEvent(tick=146, channel=0, data=[74, 0]),\n",
      "   midi.NoteOffEvent(tick=14, channel=0, data=[105, 0]),\n",
      "   midi.NoteOffEvent(tick=26, channel=0, data=[1, 0]),\n",
      "   midi.EndOfTrackEvent(tick=0, data=[])]),\n",
      " midi.Track(\\\n",
      "  [midi.SetTempoEvent(tick=0, data=[4, 147, 224]),\n",
      "   midi.ProgramChangeEvent(tick=0, channel=0, data=[37]),\n",
      "   midi.NoteOnEvent(tick=0, channel=0, data=[127, 137]),\n",
      "   midi.NoteOnEvent(tick=0, channel=0, data=[28, 238]),\n",
      "   midi.NoteOnEvent(tick=0, channel=0, data=[8, 131]),\n",
      "   midi.NoteOnEvent(tick=1, channel=0, data=[112, 178]),\n",
      "   midi.NoteOnEvent(tick=1, channel=0, data=[15, 211]),\n",
      "   midi.NoteOnEvent(tick=0, channel=0, data=[54, 35]),\n",
      "   midi.NoteOnEvent(tick=1, channel=0, data=[93, 54]),\n",
      "   midi.NoteOnEvent(tick=4, channel=0, data=[113, 173]),\n",
      "   midi.NoteOnEvent(tick=6, channel=0, data=[86, 88]),\n",
      "   midi.NoteOnEvent(tick=1, channel=0, data=[15, 167]),\n",
      "   midi.NoteOnEvent(tick=3, channel=0, data=[95, 155]),\n",
      "   midi.NoteOnEvent(tick=0, channel=0, data=[114, 8]),\n",
      "   midi.NoteOnEvent(tick=1, channel=0, data=[27, 128]),\n",
      "   midi.NoteOnEvent(tick=3, channel=0, data=[15, 226]),\n",
      "   midi.NoteOnEvent(tick=1, channel=0, data=[24, 101]),\n",
      "   midi.NoteOnEvent(tick=2, channel=0, data=[79, 116]),\n",
      "   midi.NoteOnEvent(tick=4, channel=0, data=[11, 80]),\n",
      "   midi.NoteOnEvent(tick=1, channel=0, data=[28, 87]),\n",
      "   midi.NoteOnEvent(tick=0, channel=0, data=[98, 111]),\n",
      "   midi.NoteOnEvent(tick=3, channel=0, data=[112, 111]),\n",
      "   midi.NoteOnEvent(tick=2, channel=0, data=[125, 118]),\n",
      "   midi.NoteOnEvent(tick=1, channel=0, data=[90, 254]),\n",
      "   midi.NoteOnEvent(tick=1, channel=0, data=[65, 113]),\n",
      "   midi.NoteOnEvent(tick=1, channel=0, data=[35, 141]),\n",
      "   midi.NoteOnEvent(tick=5, channel=0, data=[94, 46]),\n",
      "   midi.NoteOnEvent(tick=3, channel=0, data=[28, 233]),\n",
      "   midi.NoteOnEvent(tick=1, channel=0, data=[37, 198]),\n",
      "   midi.NoteOnEvent(tick=2, channel=0, data=[93, 121]),\n",
      "   midi.NoteOnEvent(tick=8, channel=0, data=[94, 163]),\n",
      "   midi.NoteOnEvent(tick=3, channel=0, data=[80, 217]),\n",
      "   midi.NoteOnEvent(tick=2, channel=0, data=[41, 242]),\n",
      "   midi.NoteOnEvent(tick=5, channel=0, data=[97, 61]),\n",
      "   midi.NoteOnEvent(tick=2, channel=0, data=[67, 208]),\n",
      "   midi.NoteOnEvent(tick=1, channel=0, data=[61, 105]),\n",
      "   midi.NoteOnEvent(tick=0, channel=0, data=[97, 102]),\n",
      "   midi.NoteOffEvent(tick=1, channel=0, data=[61, 0]),\n",
      "   midi.NoteOnEvent(tick=0, channel=0, data=[124, 173]),\n",
      "   midi.NoteOnEvent(tick=0, channel=0, data=[85, 186]),\n",
      "   midi.NoteOnEvent(tick=2, channel=0, data=[21, 220]),\n",
      "   midi.NoteOnEvent(tick=0, channel=0, data=[43, 208]),\n",
      "   midi.NoteOnEvent(tick=1, channel=0, data=[54, 56]),\n",
      "   midi.NoteOnEvent(tick=1, channel=0, data=[114, 161]),\n",
      "   midi.NoteOffEvent(tick=5, channel=0, data=[21, 0]),\n",
      "   midi.NoteOnEvent(tick=3, channel=0, data=[57, 188]),\n",
      "   midi.NoteOnEvent(tick=4, channel=0, data=[92, 13]),\n",
      "   midi.NoteOnEvent(tick=1, channel=0, data=[60, 83]),\n",
      "   midi.NoteOnEvent(tick=0, channel=0, data=[73, 88]),\n",
      "   midi.NoteOnEvent(tick=4, channel=0, data=[66, 34]),\n",
      "   midi.NoteOnEvent(tick=2, channel=0, data=[71, 192]),\n",
      "   midi.NoteOnEvent(tick=0, channel=0, data=[60, 205]),\n",
      "   midi.NoteOnEvent(tick=1, channel=0, data=[62, 239]),\n",
      "   midi.NoteOnEvent(tick=3, channel=0, data=[33, 144]),\n",
      "   midi.NoteOnEvent(tick=1, channel=0, data=[7, 60]),\n",
      "   midi.NoteOnEvent(tick=3, channel=0, data=[91, 106]),\n",
      "   midi.NoteOnEvent(tick=3, channel=0, data=[36, 182]),\n",
      "   midi.NoteOnEvent(tick=0, channel=0, data=[122, 52]),\n",
      "   midi.NoteOnEvent(tick=1, channel=0, data=[123, 173]),\n",
      "   midi.NoteOnEvent(tick=1, channel=0, data=[79, 235]),\n",
      "   midi.NoteOnEvent(tick=1, channel=0, data=[35, 91]),\n",
      "   midi.NoteOnEvent(tick=3, channel=0, data=[110, 226]),\n",
      "   midi.NoteOnEvent(tick=0, channel=0, data=[112, 164]),\n",
      "   midi.NoteOnEvent(tick=0, channel=0, data=[112, 3]),\n",
      "   midi.NoteOffEvent(tick=4, channel=0, data=[65, 0]),\n",
      "   midi.NoteOnEvent(tick=4, channel=0, data=[82, 219]),\n",
      "   midi.NoteOnEvent(tick=0, channel=0, data=[112, 163]),\n",
      "   midi.NoteOnEvent(tick=4, channel=0, data=[93, 185]),\n",
      "   midi.NoteOnEvent(tick=0, channel=0, data=[30, 73]),\n",
      "   midi.NoteOnEvent(tick=0, channel=0, data=[13, 53]),\n",
      "   midi.NoteOnEvent(tick=1, channel=0, data=[62, 198]),\n",
      "   midi.NoteOnEvent(tick=0, channel=0, data=[25, 201]),\n",
      "   midi.NoteOnEvent(tick=1, channel=0, data=[39, 103]),\n",
      "   midi.NoteOnEvent(tick=0, channel=0, data=[95, 248]),\n",
      "   midi.NoteOnEvent(tick=12, channel=0, data=[76, 86]),\n",
      "   midi.NoteOnEvent(tick=1, channel=0, data=[63, 177]),\n",
      "   midi.NoteOnEvent(tick=0, channel=0, data=[30, 27]),\n",
      "   midi.NoteOnEvent(tick=1, channel=0, data=[113, 214]),\n",
      "   midi.NoteOnEvent(tick=0, channel=0, data=[40, 191]),\n",
      "   midi.NoteOnEvent(tick=2, channel=0, data=[82, 24]),\n",
      "   midi.NoteOnEvent(tick=1, channel=0, data=[95, 238]),\n",
      "   midi.NoteOnEvent(tick=1, channel=0, data=[12, 65]),\n",
      "   midi.NoteOffEvent(tick=1, channel=0, data=[11, 0]),\n",
      "   midi.NoteOnEvent(tick=1, channel=0, data=[70, 231]),\n",
      "   midi.NoteOnEvent(tick=6, channel=0, data=[15, 49]),\n",
      "   midi.NoteOnEvent(tick=3, channel=0, data=[75, 31]),\n",
      "   midi.NoteOnEvent(tick=2, channel=0, data=[86, 4]),\n",
      "   midi.NoteOnEvent(tick=1, channel=0, data=[13, 57]),\n",
      "   midi.NoteOnEvent(tick=1, channel=0, data=[112, 240]),\n",
      "   midi.NoteOnEvent(tick=1, channel=0, data=[66, 203]),\n",
      "   midi.NoteOnEvent(tick=1, channel=0, data=[11, 84]),\n",
      "   midi.NoteOnEvent(tick=1, channel=0, data=[106, 199]),\n",
      "   midi.NoteOnEvent(tick=1, channel=0, data=[86, 140]),\n",
      "   midi.NoteOnEvent(tick=2, channel=0, data=[99, 13]),\n",
      "   midi.NoteOffEvent(tick=2, channel=0, data=[27, 0]),\n",
      "   midi.NoteOnEvent(tick=0, channel=0, data=[2, 189]),\n",
      "   midi.NoteOnEvent(tick=2, channel=0, data=[22, 123]),\n",
      "   midi.NoteOnEvent(tick=3, channel=0, data=[89, 95]),\n",
      "   midi.NoteOnEvent(tick=1, channel=0, data=[13, 82]),\n",
      "   midi.NoteOnEvent(tick=0, channel=0, data=[20, 187]),\n",
      "   midi.NoteOnEvent(tick=1, channel=0, data=[108, 182]),\n",
      "   midi.NoteOnEvent(tick=1, channel=0, data=[18, 219]),\n",
      "   midi.NoteOnEvent(tick=5, channel=0, data=[52, 46]),\n",
      "   midi.NoteOnEvent(tick=0, channel=0, data=[27, 176]),\n",
      "   midi.NoteOnEvent(tick=7, channel=0, data=[58, 128]),\n",
      "   midi.NoteOnEvent(tick=8, channel=0, data=[16, 49]),\n",
      "   midi.NoteOffEvent(tick=1, channel=0, data=[41, 0]),\n",
      "   midi.NoteOnEvent(tick=2, channel=0, data=[24, 13]),\n",
      "   midi.NoteOnEvent(tick=1, channel=0, data=[43, 242]),\n",
      "   midi.NoteOnEvent(tick=2, channel=0, data=[103, 144]),\n",
      "   midi.NoteOnEvent(tick=2, channel=0, data=[31, 173]),\n",
      "   midi.NoteOffEvent(tick=1, channel=0, data=[89, 0]),\n",
      "   midi.NoteOnEvent(tick=0, channel=0, data=[112, 243]),\n",
      "   midi.NoteOnEvent(tick=3, channel=0, data=[2, 17]),\n",
      "   midi.NoteOnEvent(tick=1, channel=0, data=[6, 240]),\n",
      "   midi.NoteOnEvent(tick=0, channel=0, data=[70, 229]),\n",
      "   midi.NoteOnEvent(tick=3, channel=0, data=[48, 219]),\n",
      "   midi.NoteOnEvent(tick=0, channel=0, data=[64, 120]),\n",
      "   midi.NoteOnEvent(tick=2, channel=0, data=[123, 183]),\n",
      "   midi.NoteOnEvent(tick=0, channel=0, data=[16, 118]),\n",
      "   midi.NoteOnEvent(tick=6, channel=0, data=[36, 254]),\n",
      "   midi.NoteOnEvent(tick=1, channel=0, data=[4, 173]),\n",
      "   midi.NoteOnEvent(tick=2, channel=0, data=[66, 126]),\n",
      "   midi.NoteOnEvent(tick=1, channel=0, data=[12, 43]),\n",
      "   midi.NoteOnEvent(tick=2, channel=0, data=[119, 219]),\n",
      "   midi.NoteOffEvent(tick=3, channel=0, data=[113, 0]),\n",
      "   midi.NoteOnEvent(tick=1, channel=0, data=[73, 169]),\n",
      "   midi.NoteOnEvent(tick=0, channel=0, data=[13, 200]),\n",
      "   midi.NoteOnEvent(tick=4, channel=0, data=[100, 226]),\n",
      "   midi.NoteOnEvent(tick=8, channel=0, data=[26, 150]),\n",
      "   midi.NoteOnEvent(tick=1, channel=0, data=[41, 252]),\n",
      "   midi.NoteOnEvent(tick=6, channel=0, data=[76, 138]),\n",
      "   midi.NoteOnEvent(tick=0, channel=0, data=[43, 151]),\n",
      "   midi.NoteOnEvent(tick=5, channel=0, data=[116, 243]),\n",
      "   midi.NoteOnEvent(tick=3, channel=0, data=[32, 144]),\n",
      "   midi.NoteOnEvent(tick=3, channel=0, data=[94, 201]),\n",
      "   midi.NoteOffEvent(tick=5, channel=0, data=[110, 0]),\n",
      "   midi.NoteOnEvent(tick=2, channel=0, data=[120, 183]),\n",
      "   midi.NoteOnEvent(tick=2, channel=0, data=[31, 173]),\n",
      "   midi.NoteOffEvent(tick=3, channel=0, data=[97, 0]),\n",
      "   midi.NoteOnEvent(tick=2, channel=0, data=[52, 2]),\n",
      "   midi.NoteOnEvent(tick=3, channel=0, data=[8, 89]),\n",
      "   midi.NoteOffEvent(tick=6, channel=0, data=[82, 0]),\n",
      "   midi.NoteOffEvent(tick=1, channel=0, data=[16, 0]),\n",
      "   midi.NoteOnEvent(tick=0, channel=0, data=[86, 38]),\n",
      "   midi.NoteOnEvent(tick=1, channel=0, data=[64, 210]),\n",
      "   midi.NoteOffEvent(tick=1, channel=0, data=[116, 0]),\n",
      "   midi.NoteOnEvent(tick=1, channel=0, data=[13, 239]),\n",
      "   midi.NoteOnEvent(tick=5, channel=0, data=[63, 163]),\n",
      "   midi.NoteOnEvent(tick=0, channel=0, data=[91, 22]),\n",
      "   midi.NoteOnEvent(tick=1, channel=0, data=[72, 123]),\n",
      "   midi.NoteOffEvent(tick=3, channel=0, data=[127, 0]),\n",
      "   midi.NoteOnEvent(tick=2, channel=0, data=[93, 140]),\n",
      "   midi.NoteOffEvent(tick=6, channel=0, data=[106, 0]),\n",
      "   midi.NoteOnEvent(tick=1, channel=0, data=[99, 1]),\n",
      "   midi.NoteOnEvent(tick=6, channel=0, data=[12, 108]),\n",
      "   midi.NoteOnEvent(tick=1, channel=0, data=[84, 196]),\n",
      "   midi.NoteOnEvent(tick=1, channel=0, data=[6, 49]),\n",
      "   midi.NoteOnEvent(tick=1, channel=0, data=[14, 60]),\n",
      "   midi.NoteOnEvent(tick=10, channel=0, data=[26, 84]),\n",
      "   midi.NoteOnEvent(tick=4, channel=0, data=[43, 100]),\n",
      "   midi.NoteOnEvent(tick=2, channel=0, data=[85, 130]),\n",
      "   midi.NoteOnEvent(tick=1, channel=0, data=[121, 72]),\n",
      "   midi.NoteOnEvent(tick=2, channel=0, data=[53, 188]),\n",
      "   midi.NoteOnEvent(tick=2, channel=0, data=[121, 17]),\n",
      "   midi.NoteOnEvent(tick=0, channel=0, data=[62, 250]),\n",
      "   midi.NoteOnEvent(tick=3, channel=0, data=[38, 146]),\n",
      "   midi.NoteOnEvent(tick=2, channel=0, data=[88, 185]),\n",
      "   midi.NoteOnEvent(tick=2, channel=0, data=[97, 164]),\n",
      "   midi.NoteOnEvent(tick=0, channel=0, data=[1, 155]),\n",
      "   midi.NoteOnEvent(tick=2, channel=0, data=[11, 197]),\n",
      "   midi.NoteOnEvent(tick=0, channel=0, data=[5, 193]),\n",
      "   midi.NoteOffEvent(tick=2, channel=0, data=[67, 0]),\n",
      "   midi.NoteOffEvent(tick=1, channel=0, data=[120, 0]),\n",
      "   midi.NoteOnEvent(tick=0, channel=0, data=[124, 170]),\n",
      "   midi.NoteOnEvent(tick=6, channel=0, data=[107, 228]),\n",
      "   midi.NoteOnEvent(tick=2, channel=0, data=[69, 169]),\n",
      "   midi.NoteOnEvent(tick=1, channel=0, data=[9, 110]),\n",
      "   midi.NoteOnEvent(tick=1, channel=0, data=[123, 172]),\n",
      "   midi.NoteOnEvent(tick=1, channel=0, data=[63, 54]),\n",
      "   midi.NoteOnEvent(tick=1, channel=0, data=[6, 94]),\n",
      "   midi.NoteOnEvent(tick=1, channel=0, data=[89, 251]),\n",
      "   midi.NoteOnEvent(tick=1, channel=0, data=[85, 241]),\n",
      "   midi.NoteOnEvent(tick=1, channel=0, data=[50, 88]),\n",
      "   midi.NoteOnEvent(tick=0, channel=0, data=[121, 61]),\n",
      "   midi.NoteOnEvent(tick=3, channel=0, data=[43, 56]),\n",
      "   midi.NoteOnEvent(tick=0, channel=0, data=[85, 177]),\n",
      "   midi.NoteOffEvent(tick=1, channel=0, data=[97, 0]),\n",
      "   midi.NoteOnEvent(tick=0, channel=0, data=[30, 251]),\n",
      "   midi.NoteOnEvent(tick=2, channel=0, data=[75, 174]),\n",
      "   midi.NoteOnEvent(tick=2, channel=0, data=[73, 225]),\n",
      "   midi.NoteOnEvent(tick=0, channel=0, data=[28, 242]),\n",
      "   midi.NoteOnEvent(tick=1, channel=0, data=[75, 77]),\n",
      "   midi.NoteOffEvent(tick=3, channel=0, data=[71, 0]),\n",
      "   midi.NoteOnEvent(tick=2, channel=0, data=[67, 74]),\n",
      "   midi.NoteOnEvent(tick=4, channel=0, data=[86, 160]),\n",
      "   midi.NoteOnEvent(tick=0, channel=0, data=[126, 132]),\n",
      "   midi.NoteOnEvent(tick=0, channel=0, data=[14, 180]),\n",
      "   midi.NoteOnEvent(tick=0, channel=0, data=[83, 119]),\n",
      "   midi.NoteOnEvent(tick=1, channel=0, data=[4, 244]),\n",
      "   midi.NoteOffEvent(tick=3, channel=0, data=[5, 0]),\n",
      "   midi.NoteOffEvent(tick=3, channel=0, data=[35, 0]),\n",
      "   midi.NoteOnEvent(tick=0, channel=0, data=[67, 23]),\n",
      "   midi.NoteOnEvent(tick=9, channel=0, data=[67, 154]),\n",
      "   midi.NoteOnEvent(tick=0, channel=0, data=[127, 163]),\n",
      "   midi.NoteOnEvent(tick=3, channel=0, data=[31, 190]),\n",
      "   midi.NoteOnEvent(tick=0, channel=0, data=[101, 220]),\n",
      "   midi.NoteOnEvent(tick=0, channel=0, data=[72, 215]),\n",
      "   midi.NoteOnEvent(tick=5, channel=0, data=[66, 240]),\n",
      "   midi.NoteOnEvent(tick=0, channel=0, data=[32, 27]),\n",
      "   midi.NoteOnEvent(tick=1, channel=0, data=[125, 237]),\n",
      "   midi.NoteOnEvent(tick=1, channel=0, data=[103, 36]),\n",
      "   midi.NoteOffEvent(tick=1, channel=0, data=[107, 0]),\n",
      "   midi.NoteOnEvent(tick=1, channel=0, data=[83, 218]),\n",
      "   midi.NoteOnEvent(tick=0, channel=0, data=[81, 168]),\n",
      "   midi.NoteOnEvent(tick=1, channel=0, data=[72, 87]),\n",
      "   midi.NoteOnEvent(tick=0, channel=0, data=[20, 209]),\n",
      "   midi.NoteOnEvent(tick=2, channel=0, data=[40, 197]),\n",
      "   midi.NoteOnEvent(tick=3, channel=0, data=[32, 229]),\n",
      "   midi.NoteOffEvent(tick=6, channel=0, data=[60, 0]),\n",
      "   midi.NoteOnEvent(tick=1, channel=0, data=[71, 140]),\n",
      "   midi.NoteOnEvent(tick=1, channel=0, data=[101, 202]),\n",
      "   midi.NoteOnEvent(tick=0, channel=0, data=[3, 77]),\n",
      "   midi.NoteOnEvent(tick=1, channel=0, data=[92, 139]),\n",
      "   midi.NoteOnEvent(tick=2, channel=0, data=[38, 190]),\n",
      "   midi.NoteOnEvent(tick=0, channel=0, data=[20, 85]),\n",
      "   midi.NoteOnEvent(tick=1, channel=0, data=[58, 233]),\n",
      "   midi.NoteOnEvent(tick=4, channel=0, data=[70, 187]),\n",
      "   midi.NoteOnEvent(tick=1, channel=0, data=[118, 111]),\n",
      "   midi.NoteOnEvent(tick=0, channel=0, data=[106, 67]),\n",
      "   midi.NoteOnEvent(tick=0, channel=0, data=[80, 93]),\n",
      "   midi.NoteOnEvent(tick=1, channel=0, data=[75, 201]),\n",
      "   midi.NoteOffEvent(tick=1, channel=0, data=[25, 0]),\n",
      "   midi.NoteOnEvent(tick=0, channel=0, data=[125, 5]),\n",
      "   midi.NoteOnEvent(tick=0, channel=0, data=[79, 171]),\n",
      "   midi.NoteOnEvent(tick=0, channel=0, data=[62, 116]),\n",
      "   midi.NoteOnEvent(tick=1, channel=0, data=[31, 15]),\n",
      "   midi.NoteOnEvent(tick=0, channel=0, data=[42, 30]),\n",
      "   midi.NoteOnEvent(tick=1, channel=0, data=[42, 124]),\n",
      "   midi.NoteOnEvent(tick=0, channel=0, data=[53, 100]),\n",
      "   midi.NoteOnEvent(tick=1, channel=0, data=[23, 16]),\n",
      "   midi.NoteOnEvent(tick=4, channel=0, data=[41, 16]),\n",
      "   midi.NoteOnEvent(tick=2, channel=0, data=[23, 125]),\n",
      "   midi.NoteOnEvent(tick=1, channel=0, data=[40, 54]),\n",
      "   midi.NoteOnEvent(tick=1, channel=0, data=[117, 103]),\n",
      "   midi.NoteOnEvent(tick=1, channel=0, data=[65, 72]),\n",
      "   midi.NoteOnEvent(tick=0, channel=0, data=[114, 187]),\n",
      "   midi.NoteOnEvent(tick=2, channel=0, data=[118, 62]),\n",
      "   midi.NoteOnEvent(tick=0, channel=0, data=[8, 127]),\n",
      "   midi.NoteOnEvent(tick=1, channel=0, data=[15, 197]),\n",
      "   midi.NoteOffEvent(tick=2, channel=0, data=[2, 0]),\n",
      "   midi.NoteOffEvent(tick=0, channel=0, data=[103, 0]),\n",
      "   midi.NoteOnEvent(tick=1, channel=0, data=[122, 59]),\n",
      "   midi.NoteOffEvent(tick=1, channel=0, data=[40, 0]),\n",
      "   midi.NoteOnEvent(tick=0, channel=0, data=[92, 160]),\n",
      "   midi.NoteOnEvent(tick=1, channel=0, data=[15, 120]),\n",
      "   midi.NoteOnEvent(tick=2, channel=0, data=[69, 125]),\n",
      "   midi.NoteOnEvent(tick=2, channel=0, data=[29, 66]),\n",
      "   midi.NoteOffEvent(tick=1, channel=0, data=[52, 0]),\n",
      "   midi.NoteOffEvent(tick=1, channel=0, data=[42, 0]),\n",
      "   midi.NoteOnEvent(tick=0, channel=0, data=[7, 115]),\n",
      "   midi.NoteOnEvent(tick=1, channel=0, data=[37, 36]),\n",
      "   midi.NoteOnEvent(tick=1, channel=0, data=[73, 4]),\n",
      "   midi.NoteOnEvent(tick=1, channel=0, data=[88, 197]),\n",
      "   midi.NoteOnEvent(tick=1, channel=0, data=[27, 82]),\n",
      "   midi.NoteOffEvent(tick=6, channel=0, data=[3, 0]),\n",
      "   midi.NoteOnEvent(tick=1, channel=0, data=[35, 25]),\n",
      "   midi.NoteOffEvent(tick=1, channel=0, data=[67, 0]),\n",
      "   midi.NoteOnEvent(tick=5, channel=0, data=[30, 83]),\n",
      "   midi.NoteOnEvent(tick=2, channel=0, data=[108, 20]),\n",
      "   midi.NoteOffEvent(tick=2, channel=0, data=[13, 0]),\n",
      "   midi.NoteOnEvent(tick=1, channel=0, data=[62, 157]),\n",
      "   midi.NoteOnEvent(tick=2, channel=0, data=[88, 27]),\n",
      "   midi.NoteOffEvent(tick=2, channel=0, data=[24, 0]),\n",
      "   midi.NoteOnEvent(tick=2, channel=0, data=[111, 13]),\n",
      "   midi.NoteOnEvent(tick=6, channel=0, data=[27, 122]),\n",
      "   midi.NoteOnEvent(tick=1, channel=0, data=[3, 139]),\n",
      "   midi.NoteOnEvent(tick=4, channel=0, data=[0, 153]),\n",
      "   midi.NoteOnEvent(tick=1, channel=0, data=[115, 217]),\n",
      "   midi.NoteOnEvent(tick=1, channel=0, data=[84, 35]),\n",
      "   midi.NoteOnEvent(tick=0, channel=0, data=[97, 220]),\n",
      "   midi.NoteOnEvent(tick=1, channel=0, data=[87, 51]),\n",
      "   midi.NoteOnEvent(tick=1, channel=0, data=[120, 127]),\n",
      "   midi.NoteOnEvent(tick=1, channel=0, data=[72, 17]),\n",
      "   midi.NoteOnEvent(tick=2, channel=0, data=[81, 227]),\n",
      "   midi.NoteOnEvent(tick=0, channel=0, data=[123, 83]),\n",
      "   midi.NoteOnEvent(tick=1, channel=0, data=[126, 171]),\n",
      "   midi.NoteOnEvent(tick=2, channel=0, data=[18, 6]),\n",
      "   midi.NoteOnEvent(tick=1, channel=0, data=[110, 37]),\n",
      "   midi.NoteOnEvent(tick=3, channel=0, data=[105, 92]),\n",
      "   midi.NoteOnEvent(tick=2, channel=0, data=[60, 9]),\n",
      "   midi.NoteOnEvent(tick=1, channel=0, data=[40, 99]),\n",
      "   midi.NoteOnEvent(tick=1, channel=0, data=[62, 209]),\n",
      "   midi.NoteOnEvent(tick=1, channel=0, data=[113, 153]),\n",
      "   midi.NoteOnEvent(tick=1, channel=0, data=[23, 219]),\n",
      "   midi.NoteOnEvent(tick=2, channel=0, data=[38, 177]),\n",
      "   midi.NoteOnEvent(tick=2, channel=0, data=[57, 157]),\n",
      "   midi.NoteOnEvent(tick=1, channel=0, data=[35, 255]),\n",
      "   midi.NoteOnEvent(tick=2, channel=0, data=[119, 103]),\n",
      "   midi.NoteOnEvent(tick=3, channel=0, data=[42, 204]),\n",
      "   midi.NoteOnEvent(tick=1, channel=0, data=[63, 87]),\n",
      "   midi.NoteOnEvent(tick=5, channel=0, data=[9, 217]),\n",
      "   midi.NoteOnEvent(tick=4, channel=0, data=[57, 247]),\n",
      "   midi.NoteOnEvent(tick=0, channel=0, data=[2, 68]),\n",
      "   midi.NoteOffEvent(tick=2, channel=0, data=[22, 0]),\n",
      "   midi.NoteOnEvent(tick=2, channel=0, data=[68, 93]),\n",
      "   midi.NoteOnEvent(tick=1, channel=0, data=[125, 172]),\n",
      "   midi.NoteOnEvent(tick=4, channel=0, data=[127, 177]),\n",
      "   midi.NoteOnEvent(tick=5, channel=0, data=[31, 168]),\n",
      "   midi.NoteOnEvent(tick=1, channel=0, data=[105, 26]),\n",
      "   midi.NoteOnEvent(tick=1, channel=0, data=[50, 10]),\n",
      "   midi.NoteOnEvent(tick=1, channel=0, data=[111, 235]),\n",
      "   midi.NoteOnEvent(tick=0, channel=0, data=[73, 102]),\n",
      "   midi.NoteOnEvent(tick=2, channel=0, data=[74, 20]),\n",
      "   midi.NoteOnEvent(tick=2, channel=0, data=[112, 228]),\n",
      "   midi.NoteOnEvent(tick=0, channel=0, data=[86, 92]),\n",
      "   midi.NoteOnEvent(tick=1, channel=0, data=[55, 220]),\n",
      "   midi.NoteOnEvent(tick=2, channel=0, data=[26, 153]),\n",
      "   midi.NoteOnEvent(tick=0, channel=0, data=[51, 255]),\n",
      "   midi.NoteOnEvent(tick=2, channel=0, data=[17, 26]),\n",
      "   midi.NoteOnEvent(tick=2, channel=0, data=[62, 129]),\n",
      "   midi.NoteOffEvent(tick=1, channel=0, data=[122, 0]),\n",
      "   midi.NoteOnEvent(tick=1, channel=0, data=[117, 170]),\n",
      "   midi.NoteOnEvent(tick=0, channel=0, data=[39, 223]),\n",
      "   midi.NoteOnEvent(tick=0, channel=0, data=[60, 208]),\n",
      "   midi.NoteOnEvent(tick=2, channel=0, data=[13, 182]),\n",
      "   midi.NoteOnEvent(tick=1, channel=0, data=[79, 138]),\n",
      "   midi.NoteOnEvent(tick=0, channel=0, data=[53, 244]),\n",
      "   midi.NoteOnEvent(tick=0, channel=0, data=[94, 11]),\n",
      "   midi.NoteOnEvent(tick=2, channel=0, data=[103, 140]),\n",
      "   midi.NoteOnEvent(tick=0, channel=0, data=[49, 186]),\n",
      "   midi.NoteOnEvent(tick=0, channel=0, data=[30, 214]),\n",
      "   midi.NoteOnEvent(tick=1, channel=0, data=[114, 208]),\n",
      "   midi.NoteOnEvent(tick=2, channel=0, data=[87, 150]),\n",
      "   midi.NoteOnEvent(tick=2, channel=0, data=[93, 143]),\n",
      "   midi.NoteOnEvent(tick=1, channel=0, data=[64, 28]),\n",
      "   midi.NoteOnEvent(tick=1, channel=0, data=[125, 128]),\n",
      "   midi.NoteOnEvent(tick=2, channel=0, data=[65, 185]),\n",
      "   midi.NoteOnEvent(tick=3, channel=0, data=[125, 140]),\n",
      "   midi.NoteOffEvent(tick=2, channel=0, data=[85, 0]),\n",
      "   midi.NoteOnEvent(tick=1, channel=0, data=[53, 202]),\n",
      "   midi.NoteOnEvent(tick=1, channel=0, data=[115, 247]),\n",
      "   midi.NoteOnEvent(tick=0, channel=0, data=[2, 94]),\n",
      "   midi.NoteOnEvent(tick=5, channel=0, data=[75, 228]),\n",
      "   midi.NoteOffEvent(tick=1, channel=0, data=[50, 0]),\n",
      "   midi.NoteOnEvent(tick=0, channel=0, data=[67, 1]),\n",
      "   midi.NoteOnEvent(tick=0, channel=0, data=[16, 105]),\n",
      "   midi.NoteOnEvent(tick=1, channel=0, data=[35, 84]),\n",
      "   midi.NoteOnEvent(tick=3, channel=0, data=[101, 105]),\n",
      "   midi.NoteOnEvent(tick=1, channel=0, data=[108, 245]),\n",
      "   midi.NoteOnEvent(tick=1, channel=0, data=[119, 63]),\n",
      "   midi.NoteOffEvent(tick=2, channel=0, data=[16, 0]),\n",
      "   midi.NoteOnEvent(tick=3, channel=0, data=[17, 129]),\n",
      "   midi.NoteOnEvent(tick=2, channel=0, data=[79, 58]),\n",
      "   midi.NoteOnEvent(tick=1, channel=0, data=[68, 12]),\n",
      "   midi.NoteOffEvent(tick=4, channel=0, data=[49, 0]),\n",
      "   midi.NoteOffEvent(tick=0, channel=0, data=[98, 0]),\n",
      "   midi.NoteOnEvent(tick=0, channel=0, data=[83, 92]),\n",
      "   midi.NoteOnEvent(tick=3, channel=0, data=[124, 128]),\n",
      "   midi.NoteOnEvent(tick=1, channel=0, data=[19, 168]),\n",
      "   midi.NoteOffEvent(tick=1, channel=0, data=[31, 0]),\n",
      "   midi.NoteOnEvent(tick=2, channel=0, data=[126, 58]),\n",
      "   midi.NoteOnEvent(tick=1, channel=0, data=[108, 88]),\n",
      "   midi.NoteOffEvent(tick=1, channel=0, data=[3, 0]),\n",
      "   midi.NoteOnEvent(tick=0, channel=0, data=[107, 117]),\n",
      "   midi.NoteOnEvent(tick=2, channel=0, data=[44, 95]),\n",
      "   midi.NoteOnEvent(tick=1, channel=0, data=[21, 48]),\n",
      "   midi.NoteOnEvent(tick=0, channel=0, data=[50, 12]),\n",
      "   midi.NoteOnEvent(tick=0, channel=0, data=[92, 191]),\n",
      "   midi.NoteOnEvent(tick=1, channel=0, data=[97, 150]),\n",
      "   midi.NoteOnEvent(tick=1, channel=0, data=[55, 105]),\n",
      "   midi.NoteOnEvent(tick=0, channel=0, data=[48, 187]),\n",
      "   midi.NoteOnEvent(tick=1, channel=0, data=[113, 156]),\n",
      "   midi.NoteOffEvent(tick=2, channel=0, data=[91, 0]),\n",
      "   midi.NoteOnEvent(tick=1, channel=0, data=[104, 249]),\n",
      "   midi.NoteOnEvent(tick=1, channel=0, data=[65, 184]),\n",
      "   midi.NoteOnEvent(tick=2, channel=0, data=[19, 242]),\n",
      "   midi.NoteOnEvent(tick=5, channel=0, data=[126, 160]),\n",
      "   midi.NoteOnEvent(tick=2, channel=0, data=[36, 172]),\n",
      "   midi.NoteOnEvent(tick=5, channel=0, data=[51, 81]),\n",
      "   midi.NoteOnEvent(tick=1, channel=0, data=[110, 243]),\n",
      "   midi.NoteOnEvent(tick=0, channel=0, data=[110, 38]),\n",
      "   midi.NoteOnEvent(tick=6, channel=0, data=[121, 147]),\n",
      "   midi.NoteOnEvent(tick=0, channel=0, data=[111, 176]),\n",
      "   midi.NoteOnEvent(tick=1, channel=0, data=[85, 52]),\n",
      "   midi.NoteOnEvent(tick=1, channel=0, data=[74, 85]),\n",
      "   midi.NoteOffEvent(tick=1, channel=0, data=[83, 0]),\n",
      "   midi.NoteOnEvent(tick=0, channel=0, data=[16, 132]),\n",
      "   midi.NoteOnEvent(tick=1, channel=0, data=[73, 107]),\n",
      "   midi.NoteOffEvent(tick=1, channel=0, data=[51, 0]),\n",
      "   midi.NoteOnEvent(tick=0, channel=0, data=[120, 152]),\n",
      "   midi.NoteOnEvent(tick=1, channel=0, data=[76, 27]),\n",
      "   midi.NoteOnEvent(tick=0, channel=0, data=[104, 164]),\n",
      "   midi.NoteOnEvent(tick=1, channel=0, data=[30, 166]),\n",
      "   midi.NoteOnEvent(tick=1, channel=0, data=[57, 218]),\n",
      "   midi.NoteOnEvent(tick=1, channel=0, data=[122, 205]),\n",
      "   midi.NoteOnEvent(tick=2, channel=0, data=[125, 24]),\n",
      "   midi.NoteOnEvent(tick=2, channel=0, data=[93, 67]),\n",
      "   midi.NoteOnEvent(tick=6, channel=0, data=[6, 114]),\n",
      "   midi.NoteOffEvent(tick=1, channel=0, data=[69, 0]),\n",
      "   midi.NoteOnEvent(tick=2, channel=0, data=[6, 113]),\n",
      "   midi.NoteOnEvent(tick=0, channel=0, data=[81, 131]),\n",
      "   midi.NoteOnEvent(tick=2, channel=0, data=[126, 163]),\n",
      "   midi.NoteOnEvent(tick=1, channel=0, data=[5, 5]),\n",
      "   midi.NoteOnEvent(tick=0, channel=0, data=[48, 151]),\n",
      "   midi.NoteOnEvent(tick=1, channel=0, data=[107, 105]),\n",
      "   midi.NoteOffEvent(tick=2, channel=0, data=[80, 0]),\n",
      "   midi.NoteOnEvent(tick=1, channel=0, data=[88, 209]),\n",
      "   midi.NoteOnEvent(tick=1, channel=0, data=[84, 236]),\n",
      "   midi.NoteOnEvent(tick=2, channel=0, data=[50, 222]),\n",
      "   midi.NoteOffEvent(tick=1, channel=0, data=[113, 0]),\n",
      "   midi.NoteOnEvent(tick=2, channel=0, data=[47, 47]),\n",
      "   midi.NoteOffEvent(tick=2, channel=0, data=[4, 0]),\n",
      "   midi.NoteOnEvent(tick=3, channel=0, data=[47, 108]),\n",
      "   midi.NoteOnEvent(tick=1, channel=0, data=[49, 4]),\n",
      "   midi.NoteOnEvent(tick=2, channel=0, data=[111, 31]),\n",
      "   midi.NoteOnEvent(tick=0, channel=0, data=[80, 142]),\n",
      "   midi.NoteOnEvent(tick=1, channel=0, data=[47, 136]),\n",
      "   midi.NoteOnEvent(tick=0, channel=0, data=[43, 139]),\n",
      "   midi.NoteOffEvent(tick=3, channel=0, data=[103, 0]),\n",
      "   midi.NoteOnEvent(tick=1, channel=0, data=[63, 194]),\n",
      "   midi.NoteOnEvent(tick=1, channel=0, data=[27, 52]),\n",
      "   midi.NoteOnEvent(tick=3, channel=0, data=[123, 6]),\n",
      "   midi.NoteOnEvent(tick=2, channel=0, data=[69, 225]),\n",
      "   midi.NoteOffEvent(tick=2, channel=0, data=[60, 0]),\n",
      "   midi.NoteOnEvent(tick=0, channel=0, data=[51, 34]),\n",
      "   midi.NoteOnEvent(tick=1, channel=0, data=[105, 30]),\n",
      "   midi.NoteOnEvent(tick=5, channel=0, data=[90, 72]),\n",
      "   midi.NoteOnEvent(tick=2, channel=0, data=[86, 9]),\n",
      "   midi.NoteOnEvent(tick=1, channel=0, data=[58, 188]),\n",
      "   midi.NoteOnEvent(tick=5, channel=0, data=[4, 53]),\n",
      "   midi.NoteOnEvent(tick=1, channel=0, data=[82, 19]),\n",
      "   midi.NoteOnEvent(tick=1, channel=0, data=[46, 70]),\n",
      "   midi.NoteOffEvent(tick=3, channel=0, data=[29, 0]),\n",
      "   midi.NoteOnEvent(tick=1, channel=0, data=[89, 34]),\n",
      "   midi.NoteOnEvent(tick=2, channel=0, data=[55, 242]),\n",
      "   midi.NoteOnEvent(tick=2, channel=0, data=[13, 81]),\n",
      "   midi.NoteOffEvent(tick=1, channel=0, data=[20, 0]),\n",
      "   midi.NoteOnEvent(tick=5, channel=0, data=[62, 81]),\n",
      "   midi.NoteOnEvent(tick=1, channel=0, data=[34, 32]),\n",
      "   midi.NoteOnEvent(tick=1, channel=0, data=[13, 165]),\n",
      "   midi.NoteOnEvent(tick=0, channel=0, data=[44, 136]),\n",
      "   midi.NoteOffEvent(tick=3, channel=0, data=[33, 0]),\n",
      "   midi.NoteOnEvent(tick=0, channel=0, data=[29, 218]),\n",
      "   midi.NoteOffEvent(tick=2, channel=0, data=[8, 0]),\n",
      "   midi.NoteOnEvent(tick=3, channel=0, data=[75, 58]),\n",
      "   midi.NoteOnEvent(tick=4, channel=0, data=[55, 205]),\n",
      "   midi.NoteOnEvent(tick=1, channel=0, data=[117, 226]),\n",
      "   midi.NoteOnEvent(tick=0, channel=0, data=[16, 100]),\n",
      "   midi.NoteOnEvent(tick=1, channel=0, data=[94, 34]),\n",
      "   midi.NoteOffEvent(tick=1, channel=0, data=[86, 0]),\n",
      "   midi.NoteOnEvent(tick=0, channel=0, data=[91, 60]),\n",
      "   midi.NoteOffEvent(tick=5, channel=0, data=[11, 0]),\n",
      "   midi.NoteOnEvent(tick=1, channel=0, data=[85, 56]),\n",
      "   midi.NoteOffEvent(tick=8, channel=0, data=[70, 0]),\n",
      "   midi.NoteOnEvent(tick=0, channel=0, data=[84, 158]),\n",
      "   midi.NoteOnEvent(tick=1, channel=0, data=[31, 0]),\n",
      "   midi.NoteOffEvent(tick=2, channel=0, data=[127, 0]),\n",
      "   midi.NoteOnEvent(tick=1, channel=0, data=[76, 193]),\n",
      "   midi.NoteOnEvent(tick=1, channel=0, data=[32, 116]),\n",
      "   midi.NoteOnEvent(tick=1, channel=0, data=[98, 207]),\n",
      "   midi.NoteOnEvent(tick=0, channel=0, data=[73, 31]),\n",
      "   midi.NoteOnEvent(tick=1, channel=0, data=[109, 181]),\n",
      "   midi.NoteOnEvent(tick=0, channel=0, data=[37, 146]),\n",
      "   midi.NoteOnEvent(tick=4, channel=0, data=[124, 0]),\n",
      "   midi.NoteOnEvent(tick=0, channel=0, data=[36, 122]),\n",
      "   midi.NoteOnEvent(tick=3, channel=0, data=[125, 48]),\n",
      "   midi.NoteOnEvent(tick=2, channel=0, data=[40, 47]),\n",
      "   midi.NoteOnEvent(tick=1, channel=0, data=[119, 70]),\n",
      "   midi.NoteOnEvent(tick=1, channel=0, data=[104, 0]),\n",
      "   midi.NoteOffEvent(tick=1, channel=0, data=[55, 0]),\n",
      "   midi.NoteOnEvent(tick=4, channel=0, data=[59, 169]),\n",
      "   midi.NoteOnEvent(tick=0, channel=0, data=[117, 83]),\n",
      "   midi.NoteOnEvent(tick=7, channel=0, data=[93, 102]),\n",
      "   midi.NoteOnEvent(tick=4, channel=0, data=[2, 174]),\n",
      "   midi.NoteOffEvent(tick=1, channel=0, data=[80, 0]),\n",
      "   midi.NoteOnEvent(tick=1, channel=0, data=[72, 201]),\n",
      "   midi.NoteOffEvent(tick=2, channel=0, data=[2, 0]),\n",
      "   midi.NoteOnEvent(tick=0, channel=0, data=[76, 160]),\n",
      "   midi.NoteOnEvent(tick=0, channel=0, data=[51, 31]),\n",
      "   midi.NoteOnEvent(tick=0, channel=0, data=[55, 4]),\n",
      "   midi.NoteOnEvent(tick=1, channel=0, data=[88, 23]),\n",
      "   midi.NoteOffEvent(tick=1, channel=0, data=[42, 0]),\n",
      "   midi.NoteOnEvent(tick=0, channel=0, data=[55, 46]),\n",
      "   midi.NoteOnEvent(tick=1, channel=0, data=[99, 26]),\n",
      "   midi.NoteOnEvent(tick=9, channel=0, data=[54, 209]),\n",
      "   midi.NoteOnEvent(tick=6, channel=0, data=[125, 35]),\n",
      "   midi.NoteOffEvent(tick=1, channel=0, data=[53, 0]),\n",
      "   midi.NoteOffEvent(tick=3, channel=0, data=[28, 0]),\n",
      "   midi.NoteOnEvent(tick=3, channel=0, data=[29, 85]),\n",
      "   midi.NoteOnEvent(tick=0, channel=0, data=[95, 50]),\n",
      "   midi.NoteOffEvent(tick=2, channel=0, data=[14, 0]),\n",
      "   midi.NoteOnEvent(tick=1, channel=0, data=[57, 202]),\n",
      "   midi.NoteOnEvent(tick=0, channel=0, data=[86, 15]),\n",
      "   midi.NoteOnEvent(tick=2, channel=0, data=[87, 145]),\n",
      "   midi.NoteOnEvent(tick=0, channel=0, data=[67, 54]),\n",
      "   midi.NoteOnEvent(tick=0, channel=0, data=[12, 174]),\n",
      "   midi.NoteOnEvent(tick=0, channel=0, data=[107, 8]),\n",
      "   midi.NoteOffEvent(tick=1, channel=0, data=[57, 0]),\n",
      "   midi.NoteOnEvent(tick=4, channel=0, data=[79, 16]),\n",
      "   midi.NoteOffEvent(tick=1, channel=0, data=[44, 0]),\n",
      "   midi.NoteOffEvent(tick=2, channel=0, data=[98, 0]),\n",
      "   midi.NoteOnEvent(tick=0, channel=0, data=[89, 231]),\n",
      "   midi.NoteOnEvent(tick=4, channel=0, data=[78, 200]),\n",
      "   midi.NoteOnEvent(tick=0, channel=0, data=[82, 12]),\n",
      "   midi.NoteOnEvent(tick=1, channel=0, data=[65, 180]),\n",
      "   midi.NoteOnEvent(tick=1, channel=0, data=[39, 20]),\n",
      "   midi.NoteOnEvent(tick=0, channel=0, data=[24, 71]),\n",
      "   midi.NoteOffEvent(tick=3, channel=0, data=[24, 0]),\n",
      "   midi.NoteOnEvent(tick=0, channel=0, data=[23, 169]),\n",
      "   midi.NoteOnEvent(tick=1, channel=0, data=[115, 252]),\n",
      "   midi.NoteOnEvent(tick=5, channel=0, data=[106, 8]),\n",
      "   midi.NoteOnEvent(tick=1, channel=0, data=[21, 86]),\n",
      "   midi.NoteOnEvent(tick=1, channel=0, data=[96, 134]),\n",
      "   midi.NoteOnEvent(tick=2, channel=0, data=[91, 145]),\n",
      "   midi.NoteOnEvent(tick=3, channel=0, data=[24, 209]),\n",
      "   midi.NoteOffEvent(tick=3, channel=0, data=[81, 0]),\n",
      "   midi.NoteOffEvent(tick=2, channel=0, data=[15, 0]),\n",
      "   midi.NoteOnEvent(tick=1, channel=0, data=[48, 197]),\n",
      "   midi.NoteOnEvent(tick=3, channel=0, data=[39, 225]),\n",
      "   midi.NoteOnEvent(tick=2, channel=0, data=[28, 154]),\n",
      "   midi.NoteOffEvent(tick=2, channel=0, data=[9, 0]),\n",
      "   midi.NoteOffEvent(tick=2, channel=0, data=[76, 0]),\n",
      "   midi.NoteOnEvent(tick=1, channel=0, data=[83, 51]),\n",
      "   midi.NoteOnEvent(tick=1, channel=0, data=[54, 72]),\n",
      "   midi.NoteOnEvent(tick=4, channel=0, data=[23, 179]),\n",
      "   midi.NoteOnEvent(tick=0, channel=0, data=[92, 54]),\n",
      "   midi.NoteOffEvent(tick=1, channel=0, data=[83, 0]),\n",
      "   midi.NoteOnEvent(tick=1, channel=0, data=[77, 86]),\n",
      "   midi.NoteOnEvent(tick=2, channel=0, data=[120, 44]),\n",
      "   midi.NoteOffEvent(tick=4, channel=0, data=[26, 0]),\n",
      "   midi.NoteOnEvent(tick=0, channel=0, data=[15, 19]),\n",
      "   midi.NoteOffEvent(tick=2, channel=0, data=[108, 0]),\n",
      "   midi.NoteOnEvent(tick=1, channel=0, data=[123, 106]),\n",
      "   midi.NoteOnEvent(tick=1, channel=0, data=[39, 48]),\n",
      "   midi.NoteOnEvent(tick=7, channel=0, data=[98, 103]),\n",
      "   midi.NoteOnEvent(tick=3, channel=0, data=[99, 132]),\n",
      "   midi.NoteOnEvent(tick=3, channel=0, data=[110, 239]),\n",
      "   midi.NoteOnEvent(tick=4, channel=0, data=[14, 208]),\n",
      "   midi.NoteOnEvent(tick=4, channel=0, data=[41, 202]),\n",
      "   midi.NoteOnEvent(tick=1, channel=0, data=[89, 72]),\n",
      "   midi.NoteOnEvent(tick=6, channel=0, data=[82, 21]),\n",
      "   midi.NoteOnEvent(tick=4, channel=0, data=[57, 137]),\n",
      "   midi.NoteOnEvent(tick=2, channel=0, data=[102, 249]),\n",
      "   midi.NoteOnEvent(tick=0, channel=0, data=[80, 29]),\n",
      "   midi.NoteOffEvent(tick=1, channel=0, data=[107, 0]),\n",
      "   midi.NoteOnEvent(tick=1, channel=0, data=[13, 21]),\n",
      "   midi.NoteOnEvent(tick=4, channel=0, data=[125, 115]),\n",
      "   midi.NoteOnEvent(tick=1, channel=0, data=[2, 234]),\n",
      "   midi.NoteOnEvent(tick=0, channel=0, data=[125, 206]),\n",
      "   midi.NoteOnEvent(tick=1, channel=0, data=[54, 87]),\n",
      "   midi.NoteOnEvent(tick=4, channel=0, data=[54, 170]),\n",
      "   midi.NoteOnEvent(tick=0, channel=0, data=[74, 147]),\n",
      "   midi.NoteOnEvent(tick=2, channel=0, data=[90, 152]),\n",
      "   midi.NoteOnEvent(tick=1, channel=0, data=[24, 101]),\n",
      "   midi.NoteOffEvent(tick=3, channel=0, data=[54, 0]),\n",
      "   midi.NoteOnEvent(tick=0, channel=0, data=[125, 90]),\n",
      "   midi.NoteOnEvent(tick=1, channel=0, data=[38, 187]),\n",
      "   midi.NoteOnEvent(tick=2, channel=0, data=[11, 38]),\n",
      "   midi.NoteOffEvent(tick=1, channel=0, data=[115, 0]),\n",
      "   midi.NoteOnEvent(tick=0, channel=0, data=[103, 97]),\n",
      "   midi.NoteOnEvent(tick=1, channel=0, data=[115, 32]),\n",
      "   midi.NoteOnEvent(tick=1, channel=0, data=[78, 193]),\n",
      "   midi.NoteOnEvent(tick=0, channel=0, data=[88, 10]),\n",
      "   midi.NoteOnEvent(tick=0, channel=0, data=[117, 49]),\n",
      "   midi.NoteOnEvent(tick=1, channel=0, data=[1, 66]),\n",
      "   midi.NoteOnEvent(tick=2, channel=0, data=[35, 84]),\n",
      "   midi.NoteOnEvent(tick=4, channel=0, data=[89, 74]),\n",
      "   midi.NoteOnEvent(tick=2, channel=0, data=[109, 102]),\n",
      "   midi.NoteOnEvent(tick=1, channel=0, data=[10, 160]),\n",
      "   midi.NoteOnEvent(tick=5, channel=0, data=[11, 151]),\n",
      "   midi.NoteOnEvent(tick=1, channel=0, data=[6, 91]),\n",
      "   midi.NoteOnEvent(tick=2, channel=0, data=[54, 154]),\n",
      "   midi.NoteOnEvent(tick=0, channel=0, data=[50, 74]),\n",
      "   midi.NoteOnEvent(tick=2, channel=0, data=[4, 56]),\n",
      "   midi.NoteOffEvent(tick=2, channel=0, data=[93, 0]),\n",
      "   midi.NoteOffEvent(tick=1, channel=0, data=[100, 0]),\n",
      "   midi.NoteOnEvent(tick=2, channel=0, data=[4, 84]),\n",
      "   midi.NoteOnEvent(tick=1, channel=0, data=[18, 253]),\n",
      "   midi.NoteOnEvent(tick=2, channel=0, data=[5, 30]),\n",
      "   midi.NoteOnEvent(tick=0, channel=0, data=[43, 23]),\n",
      "   midi.NoteOnEvent(tick=1, channel=0, data=[121, 206]),\n",
      "   midi.NoteOnEvent(tick=3, channel=0, data=[102, 155]),\n",
      "   midi.NoteOnEvent(tick=9, channel=0, data=[51, 100]),\n",
      "   midi.NoteOffEvent(tick=3, channel=0, data=[110, 0]),\n",
      "   midi.NoteOffEvent(tick=1, channel=0, data=[79, 0]),\n",
      "   midi.NoteOffEvent(tick=11, channel=0, data=[24, 0]),\n",
      "   midi.NoteOffEvent(tick=27, channel=0, data=[21, 0]),\n",
      "   midi.NoteOffEvent(tick=18, channel=0, data=[32, 0]),\n",
      "   midi.NoteOffEvent(tick=13, channel=0, data=[68, 0]),\n",
      "   midi.NoteOffEvent(tick=2, channel=0, data=[23, 0]),\n",
      "   midi.NoteOffEvent(tick=5, channel=0, data=[122, 0]),\n",
      "   midi.NoteOffEvent(tick=3, channel=0, data=[71, 0]),\n",
      "   midi.NoteOffEvent(tick=3, channel=0, data=[40, 0]),\n",
      "   midi.NoteOffEvent(tick=2, channel=0, data=[88, 0]),\n",
      "   midi.NoteOffEvent(tick=23, channel=0, data=[77, 0]),\n",
      "   midi.NoteOffEvent(tick=1, channel=0, data=[90, 0]),\n",
      "   midi.NoteOffEvent(tick=3, channel=0, data=[125, 0]),\n",
      "   midi.NoteOffEvent(tick=22, channel=0, data=[37, 0]),\n",
      "   midi.NoteOffEvent(tick=12, channel=0, data=[58, 0]),\n",
      "   midi.NoteOffEvent(tick=2, channel=0, data=[117, 0]),\n",
      "   midi.NoteOffEvent(tick=1, channel=0, data=[118, 0]),\n",
      "   midi.NoteOffEvent(tick=5, channel=0, data=[97, 0]),\n",
      "   midi.NoteOffEvent(tick=8, channel=0, data=[80, 0]),\n",
      "   midi.NoteOffEvent(tick=5, channel=0, data=[18, 0]),\n",
      "   midi.NoteOffEvent(tick=3, channel=0, data=[7, 0]),\n",
      "   midi.NoteOffEvent(tick=0, channel=0, data=[82, 0]),\n",
      "   midi.NoteOffEvent(tick=9, channel=0, data=[96, 0]),\n",
      "   midi.NoteOffEvent(tick=22, channel=0, data=[34, 0]),\n",
      "   midi.NoteOffEvent(tick=6, channel=0, data=[51, 0]),\n",
      "   midi.NoteOffEvent(tick=11, channel=0, data=[75, 0]),\n",
      "   midi.NoteOffEvent(tick=1, channel=0, data=[112, 0]),\n",
      "   midi.NoteOffEvent(tick=32, channel=0, data=[94, 0]),\n",
      "   midi.NoteOffEvent(tick=11, channel=0, data=[95, 0]),\n",
      "   midi.NoteOffEvent(tick=4, channel=0, data=[36, 0]),\n",
      "   midi.NoteOffEvent(tick=6, channel=0, data=[2, 0]),\n",
      "   midi.NoteOffEvent(tick=0, channel=0, data=[12, 0]),\n",
      "   midi.NoteOffEvent(tick=1, channel=0, data=[120, 0]),\n",
      "   midi.NoteOffEvent(tick=24, channel=0, data=[31, 0]),\n",
      "   midi.NoteOffEvent(tick=6, channel=0, data=[78, 0]),\n",
      "   midi.NoteOffEvent(tick=0, channel=0, data=[124, 0]),\n",
      "   midi.NoteOffEvent(tick=2, channel=0, data=[30, 0]),\n",
      "   midi.NoteOffEvent(tick=1, channel=0, data=[105, 0]),\n",
      "   midi.NoteOffEvent(tick=6, channel=0, data=[46, 0]),\n",
      "   midi.NoteOffEvent(tick=2, channel=0, data=[66, 0]),\n",
      "   midi.NoteOffEvent(tick=15, channel=0, data=[119, 0]),\n",
      "   midi.NoteOffEvent(tick=8, channel=0, data=[35, 0]),\n",
      "   midi.NoteOffEvent(tick=3, channel=0, data=[63, 0]),\n",
      "   midi.NoteOffEvent(tick=3, channel=0, data=[59, 0]),\n",
      "   midi.NoteOffEvent(tick=32, channel=0, data=[17, 0]),\n",
      "   midi.NoteOffEvent(tick=3, channel=0, data=[111, 0]),\n",
      "   midi.NoteOffEvent(tick=2, channel=0, data=[114, 0]),\n",
      "   midi.NoteOffEvent(tick=14, channel=0, data=[48, 0]),\n",
      "   midi.NoteOffEvent(tick=4, channel=0, data=[5, 0]),\n",
      "   midi.NoteOffEvent(tick=1, channel=0, data=[6, 0]),\n",
      "   midi.NoteOffEvent(tick=0, channel=0, data=[39, 0]),\n",
      "   midi.NoteOffEvent(tick=6, channel=0, data=[65, 0]),\n",
      "   midi.NoteOffEvent(tick=10, channel=0, data=[4, 0]),\n",
      "   midi.NoteOffEvent(tick=11, channel=0, data=[121, 0]),\n",
      "   midi.NoteOffEvent(tick=5, channel=0, data=[13, 0]),\n",
      "   midi.NoteOffEvent(tick=1, channel=0, data=[104, 0]),\n",
      "   midi.NoteOffEvent(tick=6, channel=0, data=[101, 0]),\n",
      "   midi.NoteOffEvent(tick=5, channel=0, data=[62, 0]),\n",
      "   midi.NoteOffEvent(tick=3, channel=0, data=[92, 0]),\n",
      "   midi.NoteOffEvent(tick=1, channel=0, data=[87, 0]),\n",
      "   midi.NoteOffEvent(tick=4, channel=0, data=[10, 0]),\n",
      "   midi.NoteOffEvent(tick=2, channel=0, data=[85, 0]),\n",
      "   midi.NoteOffEvent(tick=1, channel=0, data=[19, 0]),\n",
      "   midi.NoteOffEvent(tick=0, channel=0, data=[103, 0]),\n",
      "   midi.NoteOffEvent(tick=13, channel=0, data=[84, 0]),\n",
      "   midi.NoteOffEvent(tick=1, channel=0, data=[0, 0]),\n",
      "   midi.NoteOffEvent(tick=2, channel=0, data=[64, 0]),\n",
      "   midi.NoteOffEvent(tick=3, channel=0, data=[67, 0]),\n",
      "   midi.NoteOffEvent(tick=15, channel=0, data=[89, 0]),\n",
      "   midi.NoteOffEvent(tick=4, channel=0, data=[74, 0]),\n",
      "   midi.NoteOffEvent(tick=26, channel=0, data=[49, 0]),\n",
      "   midi.NoteOffEvent(tick=2, channel=0, data=[57, 0]),\n",
      "   midi.NoteOffEvent(tick=3, channel=0, data=[123, 0]),\n",
      "   midi.NoteOffEvent(tick=38, channel=0, data=[29, 0]),\n",
      "   midi.NoteOffEvent(tick=7, channel=0, data=[27, 0]),\n",
      "   midi.NoteOffEvent(tick=31, channel=0, data=[28, 0]),\n",
      "   midi.NoteOffEvent(tick=12, channel=0, data=[86, 0]),\n",
      "   midi.NoteOffEvent(tick=4, channel=0, data=[126, 0]),\n",
      "   midi.NoteOffEvent(tick=31, channel=0, data=[15, 0]),\n",
      "   midi.NoteOffEvent(tick=4, channel=0, data=[109, 0]),\n",
      "   midi.NoteOffEvent(tick=9, channel=0, data=[11, 0]),\n",
      "   midi.NoteOffEvent(tick=9, channel=0, data=[73, 0]),\n",
      "   midi.NoteOffEvent(tick=11, channel=0, data=[47, 0]),\n",
      "   midi.NoteOffEvent(tick=0, channel=0, data=[91, 0]),\n",
      "   midi.NoteOffEvent(tick=10, channel=0, data=[69, 0]),\n",
      "   midi.NoteOffEvent(tick=8, channel=0, data=[16, 0]),\n",
      "   midi.NoteOffEvent(tick=33, channel=0, data=[72, 0]),\n",
      "   midi.NoteOffEvent(tick=18, channel=0, data=[98, 0]),\n",
      "   midi.NoteOffEvent(tick=1, channel=0, data=[50, 0]),\n",
      "   midi.NoteOffEvent(tick=31, channel=0, data=[55, 0]),\n",
      "   midi.NoteOffEvent(tick=2, channel=0, data=[43, 0]),\n",
      "   midi.NoteOffEvent(tick=6, channel=0, data=[106, 0]),\n",
      "   midi.NoteOffEvent(tick=5, channel=0, data=[41, 0]),\n",
      "   midi.NoteOffEvent(tick=23, channel=0, data=[99, 0]),\n",
      "   midi.NoteOffEvent(tick=32, channel=0, data=[14, 0]),\n",
      "   midi.NoteOffEvent(tick=19, channel=0, data=[1, 0]),\n",
      "   midi.NoteOffEvent(tick=41, channel=0, data=[38, 0]),\n",
      "   midi.NoteOffEvent(tick=32, channel=0, data=[54, 0]),\n",
      "   midi.NoteOffEvent(tick=1, channel=0, data=[102, 0]),\n",
      "   midi.NoteOffEvent(tick=7, channel=0, data=[115, 0]),\n",
      "   midi.EndOfTrackEvent(tick=0, data=[])])])\n"
     ]
    }
   ],
   "source": [
    "#random generation test\n",
    "\n",
    "data = gen_random_midi()\n",
    "print data\n",
    "pattern = vector_to_midi(data)\n",
    "print pattern\n",
    "midi.write_midifile('rando.mid', pattern)"
   ]
  },
  {
   "cell_type": "code",
   "execution_count": null,
   "metadata": {
    "collapsed": true
   },
   "outputs": [],
   "source": []
  }
 ],
 "metadata": {
  "kernelspec": {
   "display_name": "Python [default]",
   "language": "python",
   "name": "python2"
  },
  "language_info": {
   "codemirror_mode": {
    "name": "ipython",
    "version": 2
   },
   "file_extension": ".py",
   "mimetype": "text/x-python",
   "name": "python",
   "nbconvert_exporter": "python",
   "pygments_lexer": "ipython2",
   "version": "2.7.12"
  }
 },
 "nbformat": 4,
 "nbformat_minor": 1
}
