{
 "cells": [
  {
   "cell_type": "code",
   "execution_count": 36,
   "metadata": {
    "collapsed": true
   },
   "outputs": [],
   "source": [
    "import midi\n",
    "import numpy as np\n",
    "import h5py\n",
    "class MidiContainer:\n",
    "    '''\n",
    "    The MidiContainer class contains a vector representation of \n",
    "    the midi track to be fed to our neural net. It is a 67 x n matrix,\n",
    "    contents specified in the README. \n",
    "    '''\n",
    "    def __init__(self):\n",
    "        self.data = np.array([], dtype=np.int64).reshape(66,0) \n",
    "        self.curr_bpm = 120\n",
    "        self.curr_instrument = 0\n",
    "        self.abs_time = 0\n",
    "        self.active_pitches = {} #[pitch] = (velocity, time note was turned on)\n",
    "        \n",
    "    def note_to_vector(self, pitch, time):\n",
    "        velocity = self.active_pitches[pitch][0]\n",
    "        note_start = self.active_pitches[pitch][1]\n",
    "        return np.vstack((self.curr_instrument, pitch, velocity, time + self.abs_time - note_start))\n",
    "    \n",
    "    def add_data(self, note_vector, note_start):\n",
    "        event_column = np.vstack((note_start, self.curr_bpm, note_vector, np.ones((60,1))*-1))\n",
    "        self.data = np.hstack((self.data, event_column))\n",
    "    \n",
    "    def combine_tracks(self):\n",
    "        self.data = self.data.T[self.data.T[:, 0].argsort()].T #maybe we dont need so many transposes\n",
    "        prev_duration = -1\n",
    "        edit_index = 0 \n",
    "        i = 0\n",
    "        delete_this = []\n",
    "        old_inst = self.data[2,0]\n",
    "        for col in self.data.T:\n",
    "            curr_duration = col[0]\n",
    "            if curr_duration == prev_duration:\n",
    "                for ni in xrange(2,67,4):\n",
    "                    note_vec = col[ni:ni+4]\n",
    "                    curr_inst = note_vec[0] if note_vec.any() else -1\n",
    "                    if np.sum(note_vec) > 0 and curr_inst != old_inst:\n",
    "                        i_rep = np.where(self.data[:,edit_index] == -1)[0][0]\n",
    "                        self.data[i_rep:i_rep+4, edit_index] = note_vec\n",
    "                        delete_this.append(i)\n",
    "            else:\n",
    "                old_inst = col[2]\n",
    "                edit_index = i\n",
    "            i += 1 \n",
    "            prev_duration = curr_duration\n",
    "            \n",
    "        mask = np.ones(self.data.shape, np.bool)\n",
    "        mask[:,delete_this] = 0\n",
    "        self.data = self.data[mask].reshape(66,-1)\n",
    "       \n",
    "                \n",
    "    \n",
    "def midi_to_vector(fname):\n",
    "    '''\n",
    "    Given a filename of a midi to read, returns a MidiContainer object of its vector representation.\n",
    "    '''\n",
    "    pattern = midi.read_midifile(fname)\n",
    "    midi_vector = MidiContainer()\n",
    "    for track in pattern:\n",
    "        midi_vector.abs_time = 0\n",
    "        for event in track:\n",
    "            if isinstance(event, midi.SetTempoEvent): \n",
    "                midi_vector.curr_bpm = event.get_bpm()\n",
    "            if isinstance(event, midi.EndOfTrackEvent): #first metadata track\n",
    "                continue \n",
    "            if isinstance(event, midi.ProgramChangeEvent):\n",
    "                midi_vector.curr_instrument = event.get_value()\n",
    "            if isinstance(event, midi.NoteOnEvent):\n",
    "                midi_vector.abs_time += event.tick\n",
    "                midi_vector.active_pitches[event.get_pitch()] = (event.get_velocity(), midi_vector.abs_time)\n",
    "            if isinstance(event, midi.NoteOffEvent):\n",
    "                pitch = event.get_pitch()\n",
    "                time = event.tick\n",
    "                if pitch in midi_vector.active_pitches:\n",
    "                    note_vec = midi_vector.note_to_vector(pitch, time)\n",
    "                    midi_vector.add_data(note_vec, midi_vector.active_pitches[pitch][1]) #ugh bad data abstraction\n",
    "                    midi_vector.active_pitches.pop(pitch, None)\n",
    "                    midi_vector.abs_time += event.tick\n",
    "                    \n",
    "#     assert midi_vector.data.all(), \"Read midifile is empty.\"            \n",
    "    midi_vector.combine_tracks()        \n",
    "    return midi_vector\n",
    "\n",
    "def vector_to_midi(vector):\n",
    "    '''Given a np array (vector.data), returns a python midi pattern'''\n",
    "    pattern = midi.Pattern(resolution=192)\n",
    "    #first, separate tracks\n",
    "    tracklist = {}\n",
    "    for i in xrange(2,vector.shape[0],4):\n",
    "        for j in xrange(0, vector.shape[1]):\n",
    "            track = vector[i:i+4,j]\n",
    "            if np.sum(track) > 0:\n",
    "                instrument = int(track[0])\n",
    "                if instrument not in tracklist:\n",
    "                    tracklist[instrument] = np.vstack((vector[0:2,j].reshape(-1,1), track.reshape(-1,1)))\n",
    "                else: \n",
    "                    tracklist[instrument] = np.hstack((tracklist[instrument], np.vstack((vector[0:2,j].reshape(-1,1), track.reshape(-1,1)))))\n",
    "\n",
    "\n",
    "    for k, track in tracklist.iteritems():\n",
    "        miditrack = midi.Track()\n",
    "        pattern.append(miditrack)\n",
    "        bpm = track[1,0]\n",
    "        tempoevent = midi.SetTempoEvent(tick=0, bpm=bpm)\n",
    "        miditrack.append(tempoevent)\n",
    "        instrument = int(track[2,0])\n",
    "        fontevent = midi.ProgramChangeEvent(tick=0, value=instrument)\n",
    "        miditrack.append(fontevent)\n",
    "        if not np.array_equal(bpm * np.ones(track.shape[1]), track[1,:]):\n",
    "            print 'Tempo changes. Code assumes it doesn\\'t. Contact Jingyi.'\n",
    "        \n",
    "        event_tick = 0   \n",
    "        track_duration = np.max(track[0,:] + track[-1,:])\n",
    "        active_notes = {}\n",
    "        start_times = track[0,:]\n",
    "        for t in xrange(0, int(track_duration)+1):\n",
    "            for pitch in active_notes:\n",
    "                active_notes[pitch] -= 1\n",
    "            \n",
    "            negs = [k for k,v in active_notes.iteritems() if v < 0]\n",
    "            for n in negs:\n",
    "                active_notes.pop(n)\n",
    "                \n",
    "            while 0 in active_notes.values():\n",
    "                pitches = [k for k,v in active_notes.iteritems() if v == 0]\n",
    "                for pitch in pitches:\n",
    "                    off = midi.NoteOffEvent(tick=t - event_tick, pitch=pitch)\n",
    "                    miditrack.append(off)\n",
    "                    active_notes.pop(pitch)\n",
    "                    event_tick = t\n",
    "                    \n",
    "            #run through track to add on/off events\n",
    "            if t in start_times:\n",
    "                ni = np.where(t == start_times)\n",
    "                for n in ni[0]:\n",
    "                    note = track[:, n]\n",
    "                    start_time = int(note[0])\n",
    "                    pitch = int(note[3])\n",
    "                    velocity = int(note[4])\n",
    "                    duration = int(note[5])\n",
    "                    active_notes[pitch] = duration\n",
    "                    on = midi.NoteOnEvent(tick = t - event_tick, velocity=velocity, pitch=pitch)\n",
    "                    miditrack.append(on)\n",
    "                    event_tick = start_time\n",
    "                    \n",
    "        miditrack.append(midi.EndOfTrackEvent(tick=0))\n",
    "    return pattern\n",
    "\n"
   ]
  },
  {
   "cell_type": "code",
   "execution_count": 43,
   "metadata": {
    "collapsed": false,
    "scrolled": true
   },
   "outputs": [
    {
     "name": "stdout",
     "output_type": "stream",
     "text": [
      "SUCCESS! finished writing for  aliaskyu.mid\n",
      "index 0 is out of bounds for axis 1 with size 0 almostlk.mid\n",
      "index 0 is out of bounds for axis 1 with size 0 america.mid\n",
      "SUCCESS! finished writing for  angel.mid\n",
      "index 0 is out of bounds for axis 1 with size 0 baliha'i.mid\n",
      "index 0 is out of bounds for axis 1 with size 0 belinyou.mid\n",
      "index 0 is out of bounds for axis 1 with size 0 bring.mid\n",
      "SUCCESS! finished writing for  broadway.mid\n",
      "index 0 is out of bounds for axis 1 with size 0 cabaret.mid\n",
      "index 0 is out of bounds for axis 1 with size 0 castle.mid\n",
      "SUCCESS! finished writing for  chess.mid\n",
      "index 0 is out of bounds for axis 1 with size 0 close.mid\n",
      "index 0 is out of bounds for axis 1 with size 0 crapshot.mid\n",
      "SUCCESS! finished writing for  ditesmoi.mid\n",
      "index 0 is out of bounds for axis 1 with size 0 dolly.mid\n",
      "index 0 is out of bounds for axis 1 with size 0 domphan.mid\n",
      "index 0 is out of bounds for axis 1 with size 0 dphanrk.mid\n",
      "SUCCESS! finished writing for  eapoe.mid\n",
      "SUCCESS! finished writing for  edelweis.mid\n",
      "SUCCESS! finished writing for  eternal.mid\n",
      "SUCCESS! finished writing for  evita.mid\n",
      "SUCCESS! finished writing for  fantast.mid\n",
      "SUCCESS! finished writing for  getoknow.mid\n",
      "index 0 is out of bounds for axis 1 with size 0 guydolls.mid\n",
      "SUCCESS! finished writing for  hapevaf.mid\n",
      "index 0 is out of bounds for axis 1 with size 0 hearsing.mid\n",
      "SUCCESS! finished writing for  hernando.mid\n",
      "SUCCESS! finished writing for  heythere.mid\n",
      "SUCCESS! finished writing for  hndohdwy.mid\n",
      "SUCCESS! finished writing for  hopeless.mid\n",
      "index 0 is out of bounds for axis 1 with size 0 magctodo.mid\n",
      "SUCCESS! finished writing for  maria.mid\n",
      "SUCCESS! finished writing for  mhbring.mid\n",
      "SUCCESS! finished writing for  music.mid\n",
      "SUCCESS! finished writing for  noinlove.mid\n",
      "SUCCESS! finished writing for  oncewasa.mid\n",
      "SUCCESS! finished writing for  onceyear.mid\n",
      "index 0 is out of bounds for axis 1 with size 0 peoplew.mid\n",
      "index 0 is out of bounds for axis 1 with size 0 phantom2.mid\n",
      "index 0 is out of bounds for axis 1 with size 0 river.mid\n",
      "SUCCESS! finished writing for  smaltalk.mid\n",
      "SUCCESS! finished writing for  steam.mid\n",
      "SUCCESS! finished writing for  tinhorn.mid\n",
      "SUCCESS! finished writing for  youcando.mid\n",
      "got  59.0909090909 % working\n"
     ]
    }
   ],
   "source": [
    "path = '/Users/noon/Desktop/midis/broadway/' #change me, make sure to make a 'data' folder\n",
    "import os\n",
    "i = 0\n",
    "b = 1\n",
    "for fname in os.listdir(path):\n",
    "    if '.mid' in fname.lower():\n",
    "        try:\n",
    "            vectorized = midi_to_vector(path+fname)\n",
    "            h5f = h5py.File(path+'data/'+fname[0:-4]+'.h5', 'w')\n",
    "            h5f.create_dataset('dataset_1', data=vectorized.data)\n",
    "            h5f.close()\n",
    "            print 'SUCCESS! finished writing for ', fname\n",
    "            i += 1\n",
    "        except (TypeError, AssertionError, IndexError) as e:\n",
    "            print e, fname\n",
    "            b += 1\n",
    "            continue\n",
    "b-=1\n",
    "print 'got ', i*1.0/(i+b) * 100, '% working'"
   ]
  },
  {
   "cell_type": "code",
   "execution_count": 55,
   "metadata": {
    "collapsed": true
   },
   "outputs": [],
   "source": [
    "def gen_channel():\n",
    "    font = np.random.random_integers(0,127, size=(1,500))\n",
    "    note = np.random.random_integers(0,127, size=(1,500))\n",
    "    vel = np.random.random_integers(0,255, size=(1,500))\n",
    "    duration = np.random.random_integers(0,1000, size=(1,500))\n",
    "    return np.vstack((font, note, vel, duration))\n",
    "\n",
    "def gen_random_midi():\n",
    "    times = np.random.random_integers(0,1000, size=(1,500))\n",
    "    bpm = np.random.random_integers(50,300) * np.ones((1,500))\n",
    "    midi = np.vstack((times,bpm))\n",
    "    for i in xrange(0,16):\n",
    "        midi = np.vstack((midi, gen_channel()))\n",
    "    return midi\n"
   ]
  },
  {
   "cell_type": "code",
   "execution_count": 56,
   "metadata": {
    "collapsed": false
   },
   "outputs": [
    {
     "name": "stdout",
     "output_type": "stream",
     "text": [
      "[[ 818.  752.  312. ...,  114.  975.  535.]\n",
      " [ 103.  103.  103. ...,  103.  103.  103.]\n",
      " [  86.   24.   85. ...,   61.   78.  118.]\n",
      " ..., \n",
      " [  27.    8.   66. ...,   14.  112.   27.]\n",
      " [  54.   12.  196. ...,  227.   17.  158.]\n",
      " [ 554.  553.  871. ...,  912.  985.  582.]]\n",
      "midi.Pattern(format=1, resolution=192, tracks=\\\n",
      "[midi.Track(\\\n",
      "  [midi.SetTempoEvent(tick=0, data=[8, 227, 124]),\n",
      "   midi.ProgramChangeEvent(tick=0, channel=0, data=[0]),\n",
      "   midi.NoteOnEvent(tick=11, channel=0, data=[5, 91]),\n",
      "   midi.NoteOnEvent(tick=3, channel=0, data=[61, 58]),\n",
      "   midi.NoteOnEvent(tick=2, channel=0, data=[30, 223]),\n",
      "   midi.NoteOnEvent(tick=31, channel=0, data=[79, 141]),\n",
      "   midi.NoteOnEvent(tick=16, channel=0, data=[76, 139]),\n",
      "   midi.NoteOffEvent(tick=22, channel=0, data=[5, 0]),\n",
      "   midi.NoteOnEvent(tick=25, channel=0, data=[114, 23]),\n",
      "   midi.NoteOnEvent(tick=7, channel=0, data=[26, 113]),\n",
      "   midi.NoteOnEvent(tick=4, channel=0, data=[82, 58]),\n",
      "   midi.NoteOnEvent(tick=3, channel=0, data=[99, 54]),\n",
      "   midi.NoteOnEvent(tick=6, channel=0, data=[116, 53]),\n",
      "   midi.NoteOnEvent(tick=16, channel=0, data=[13, 98]),\n",
      "   midi.NoteOnEvent(tick=45, channel=0, data=[120, 64]),\n",
      "   midi.NoteOnEvent(tick=0, channel=0, data=[52, 28]),\n",
      "   midi.NoteOnEvent(tick=17, channel=0, data=[48, 17]),\n",
      "   midi.NoteOnEvent(tick=14, channel=0, data=[59, 183]),\n",
      "   midi.NoteOnEvent(tick=0, channel=0, data=[83, 82]),\n",
      "   midi.NoteOnEvent(tick=4, channel=0, data=[2, 214]),\n",
      "   midi.NoteOffEvent(tick=25, channel=0, data=[116, 0]),\n",
      "   midi.NoteOnEvent(tick=17, channel=0, data=[109, 102]),\n",
      "   midi.NoteOffEvent(tick=2, channel=0, data=[48, 0]),\n",
      "   midi.NoteOnEvent(tick=6, channel=0, data=[79, 18]),\n",
      "   midi.NoteOffEvent(tick=7, channel=0, data=[109, 0]),\n",
      "   midi.NoteOnEvent(tick=20, channel=0, data=[109, 39]),\n",
      "   midi.NoteOnEvent(tick=32, channel=0, data=[97, 73]),\n",
      "   midi.NoteOnEvent(tick=1, channel=0, data=[125, 236]),\n",
      "   midi.NoteOnEvent(tick=0, channel=0, data=[85, 117]),\n",
      "   midi.NoteOnEvent(tick=9, channel=0, data=[14, 32]),\n",
      "   midi.NoteOnEvent(tick=4, channel=0, data=[22, 202]),\n",
      "   midi.NoteOnEvent(tick=42, channel=0, data=[32, 194]),\n",
      "   midi.NoteOffEvent(tick=12, channel=0, data=[109, 0]),\n",
      "   midi.NoteOnEvent(tick=3, channel=0, data=[48, 196]),\n",
      "   midi.NoteOnEvent(tick=4, channel=0, data=[18, 248]),\n",
      "   midi.NoteOnEvent(tick=5, channel=0, data=[101, 226]),\n",
      "   midi.NoteOffEvent(tick=17, channel=0, data=[48, 0]),\n",
      "   midi.NoteOnEvent(tick=6, channel=0, data=[0, 219]),\n",
      "   midi.NoteOffEvent(tick=45, channel=0, data=[120, 0]),\n",
      "   midi.NoteOnEvent(tick=6, channel=0, data=[52, 240]),\n",
      "   midi.NoteOnEvent(tick=26, channel=0, data=[125, 180]),\n",
      "   midi.NoteOnEvent(tick=3, channel=0, data=[94, 181]),\n",
      "   midi.NoteOnEvent(tick=3, channel=0, data=[47, 18]),\n",
      "   midi.NoteOffEvent(tick=7, channel=0, data=[13, 0]),\n",
      "   midi.NoteOffEvent(tick=7, channel=0, data=[114, 0]),\n",
      "   midi.NoteOnEvent(tick=17, channel=0, data=[62, 121]),\n",
      "   midi.NoteOffEvent(tick=18, channel=0, data=[0, 0]),\n",
      "   midi.NoteOnEvent(tick=9, channel=0, data=[12, 139]),\n",
      "   midi.NoteOnEvent(tick=12, channel=0, data=[27, 167]),\n",
      "   midi.NoteOnEvent(tick=12, channel=0, data=[72, 154]),\n",
      "   midi.NoteOnEvent(tick=2, channel=0, data=[124, 180]),\n",
      "   midi.NoteOnEvent(tick=5, channel=0, data=[63, 139]),\n",
      "   midi.NoteOnEvent(tick=0, channel=0, data=[65, 5]),\n",
      "   midi.NoteOnEvent(tick=6, channel=0, data=[1, 181]),\n",
      "   midi.NoteOnEvent(tick=5, channel=0, data=[124, 31]),\n",
      "   midi.NoteOffEvent(tick=12, channel=0, data=[94, 0]),\n",
      "   midi.NoteOnEvent(tick=1, channel=0, data=[59, 194]),\n",
      "   midi.NoteOnEvent(tick=13, channel=0, data=[1, 255]),\n",
      "   midi.NoteOnEvent(tick=3, channel=0, data=[63, 164]),\n",
      "   midi.NoteOnEvent(tick=3, channel=0, data=[20, 3]),\n",
      "   midi.NoteOnEvent(tick=12, channel=0, data=[37, 89]),\n",
      "   midi.NoteOnEvent(tick=1, channel=0, data=[95, 177]),\n",
      "   midi.NoteOffEvent(tick=12, channel=0, data=[79, 0]),\n",
      "   midi.NoteOnEvent(tick=14, channel=0, data=[31, 96]),\n",
      "   midi.NoteOffEvent(tick=3, channel=0, data=[63, 0]),\n",
      "   midi.NoteOnEvent(tick=2, channel=0, data=[55, 74]),\n",
      "   midi.NoteOnEvent(tick=7, channel=0, data=[23, 199]),\n",
      "   midi.NoteOnEvent(tick=1, channel=0, data=[4, 48]),\n",
      "   midi.NoteOffEvent(tick=1, channel=0, data=[85, 0]),\n",
      "   midi.NoteOffEvent(tick=2, channel=0, data=[22, 0]),\n",
      "   midi.NoteOnEvent(tick=5, channel=0, data=[99, 34]),\n",
      "   midi.NoteOnEvent(tick=2, channel=0, data=[117, 244]),\n",
      "   midi.NoteOffEvent(tick=5, channel=0, data=[61, 0]),\n",
      "   midi.NoteOnEvent(tick=32, channel=0, data=[15, 193]),\n",
      "   midi.NoteOffEvent(tick=6, channel=0, data=[62, 0]),\n",
      "   midi.NoteOnEvent(tick=4, channel=0, data=[62, 0]),\n",
      "   midi.NoteOnEvent(tick=0, channel=0, data=[58, 34]),\n",
      "   midi.NoteOnEvent(tick=21, channel=0, data=[102, 4]),\n",
      "   midi.NoteOffEvent(tick=1, channel=0, data=[76, 0]),\n",
      "   midi.NoteOnEvent(tick=2, channel=0, data=[47, 152]),\n",
      "   midi.NoteOffEvent(tick=11, channel=0, data=[30, 0]),\n",
      "   midi.NoteOffEvent(tick=8, channel=0, data=[37, 0]),\n",
      "   midi.NoteOffEvent(tick=2, channel=0, data=[58, 0]),\n",
      "   midi.NoteOnEvent(tick=7, channel=0, data=[58, 176]),\n",
      "   midi.NoteOnEvent(tick=44, channel=0, data=[127, 184]),\n",
      "   midi.NoteOffEvent(tick=21, channel=0, data=[1, 0]),\n",
      "   midi.NoteOffEvent(tick=1, channel=0, data=[124, 0]),\n",
      "   midi.NoteOnEvent(tick=0, channel=0, data=[116, 36]),\n",
      "   midi.NoteOffEvent(tick=22, channel=0, data=[26, 0]),\n",
      "   midi.NoteOnEvent(tick=1, channel=0, data=[93, 67]),\n",
      "   midi.NoteOnEvent(tick=20, channel=0, data=[65, 43]),\n",
      "   midi.NoteOnEvent(tick=16, channel=0, data=[99, 234]),\n",
      "   midi.NoteOffEvent(tick=4, channel=0, data=[82, 0]),\n",
      "   midi.NoteOffEvent(tick=7, channel=0, data=[55, 0]),\n",
      "   midi.NoteOffEvent(tick=6, channel=0, data=[27, 0]),\n",
      "   midi.NoteOnEvent(tick=35, channel=0, data=[45, 212]),\n",
      "   midi.NoteOnEvent(tick=7, channel=0, data=[81, 89]),\n",
      "   midi.NoteOffEvent(tick=28, channel=0, data=[83, 0]),\n",
      "   midi.NoteOffEvent(tick=3, channel=0, data=[45, 0]),\n",
      "   midi.NoteOffEvent(tick=13, channel=0, data=[102, 0]),\n",
      "   midi.NoteOffEvent(tick=24, channel=0, data=[31, 0]),\n",
      "   midi.NoteOffEvent(tick=4, channel=0, data=[97, 0]),\n",
      "   midi.NoteOffEvent(tick=1, channel=0, data=[125, 0]),\n",
      "   midi.NoteOffEvent(tick=51, channel=0, data=[72, 0]),\n",
      "   midi.NoteOffEvent(tick=40, channel=0, data=[32, 0]),\n",
      "   midi.NoteOffEvent(tick=31, channel=0, data=[99, 0]),\n",
      "   midi.NoteOffEvent(tick=1, channel=0, data=[2, 0]),\n",
      "   midi.NoteOffEvent(tick=18, channel=0, data=[12, 0]),\n",
      "   midi.NoteOffEvent(tick=9, channel=0, data=[65, 0]),\n",
      "   midi.NoteOffEvent(tick=17, channel=0, data=[101, 0]),\n",
      "   midi.NoteOffEvent(tick=34, channel=0, data=[52, 0]),\n",
      "   midi.NoteOffEvent(tick=11, channel=0, data=[18, 0]),\n",
      "   midi.NoteOffEvent(tick=1, channel=0, data=[20, 0]),\n",
      "   midi.NoteOffEvent(tick=56, channel=0, data=[95, 0]),\n",
      "   midi.NoteOffEvent(tick=5, channel=0, data=[14, 0]),\n",
      "   midi.NoteOffEvent(tick=13, channel=0, data=[23, 0]),\n",
      "   midi.NoteOffEvent(tick=43, channel=0, data=[15, 0]),\n",
      "   midi.NoteOffEvent(tick=33, channel=0, data=[4, 0]),\n",
      "   midi.NoteOffEvent(tick=132, channel=0, data=[59, 0]),\n",
      "   midi.NoteOffEvent(tick=43, channel=0, data=[81, 0]),\n",
      "   midi.NoteOffEvent(tick=28, channel=0, data=[62, 0]),\n",
      "   midi.NoteOffEvent(tick=57, channel=0, data=[117, 0]),\n",
      "   midi.NoteOffEvent(tick=47, channel=0, data=[127, 0]),\n",
      "   midi.NoteOffEvent(tick=4, channel=0, data=[47, 0]),\n",
      "   midi.NoteOffEvent(tick=20, channel=0, data=[93, 0]),\n",
      "   midi.NoteOffEvent(tick=21, channel=0, data=[58, 0]),\n",
      "   midi.NoteOffEvent(tick=15, channel=0, data=[116, 0]),\n",
      "   midi.EndOfTrackEvent(tick=0, data=[])]),\n",
      " midi.Track(\\\n",
      "  [midi.SetTempoEvent(tick=0, data=[8, 227, 124]),\n",
      "   midi.ProgramChangeEvent(tick=0, channel=0, data=[1]),\n",
      "   midi.NoteOnEvent(tick=13, channel=0, data=[80, 76]),\n",
      "   midi.NoteOnEvent(tick=22, channel=0, data=[37, 155]),\n",
      "   midi.NoteOnEvent(tick=1, channel=0, data=[41, 91]),\n",
      "   midi.NoteOffEvent(tick=11, channel=0, data=[37, 0]),\n",
      "   midi.NoteOnEvent(tick=21, channel=0, data=[124, 186]),\n",
      "   midi.NoteOnEvent(tick=44, channel=0, data=[101, 145]),\n",
      "   midi.NoteOnEvent(tick=3, channel=0, data=[53, 175]),\n",
      "   midi.NoteOnEvent(tick=8, channel=0, data=[66, 147]),\n",
      "   midi.NoteOffEvent(tick=19, channel=0, data=[53, 0]),\n",
      "   midi.NoteOnEvent(tick=11, channel=0, data=[71, 157]),\n",
      "   midi.NoteOnEvent(tick=13, channel=0, data=[83, 196]),\n",
      "   midi.NoteOnEvent(tick=13, channel=0, data=[54, 239]),\n",
      "   midi.NoteOnEvent(tick=7, channel=0, data=[38, 30]),\n",
      "   midi.NoteOnEvent(tick=11, channel=0, data=[121, 143]),\n",
      "   midi.NoteOnEvent(tick=25, channel=0, data=[61, 36]),\n",
      "   midi.NoteOnEvent(tick=4, channel=0, data=[121, 24]),\n",
      "   midi.NoteOnEvent(tick=0, channel=0, data=[35, 174]),\n",
      "   midi.NoteOnEvent(tick=22, channel=0, data=[26, 79]),\n",
      "   midi.NoteOnEvent(tick=11, channel=0, data=[106, 231]),\n",
      "   midi.NoteOnEvent(tick=2, channel=0, data=[39, 88]),\n",
      "   midi.NoteOffEvent(tick=3, channel=0, data=[66, 0]),\n",
      "   midi.NoteOnEvent(tick=49, channel=0, data=[48, 90]),\n",
      "   midi.NoteOnEvent(tick=0, channel=0, data=[1, 237]),\n",
      "   midi.NoteOffEvent(tick=2, channel=0, data=[101, 0]),\n",
      "   midi.NoteOnEvent(tick=17, channel=0, data=[10, 233]),\n",
      "   midi.NoteOnEvent(tick=9, channel=0, data=[34, 91]),\n",
      "   midi.NoteOnEvent(tick=75, channel=0, data=[33, 161]),\n",
      "   midi.NoteOffEvent(tick=24, channel=0, data=[80, 0]),\n",
      "   midi.NoteOnEvent(tick=27, channel=0, data=[37, 179]),\n",
      "   midi.NoteOnEvent(tick=6, channel=0, data=[71, 186]),\n",
      "   midi.NoteOnEvent(tick=1, channel=0, data=[18, 235]),\n",
      "   midi.NoteOffEvent(tick=16, channel=0, data=[121, 0]),\n",
      "   midi.NoteOnEvent(tick=1, channel=0, data=[55, 203]),\n",
      "   midi.NoteOffEvent(tick=7, channel=0, data=[55, 0]),\n",
      "   midi.NoteOffEvent(tick=4, channel=0, data=[106, 0]),\n",
      "   midi.NoteOnEvent(tick=13, channel=0, data=[19, 21]),\n",
      "   midi.NoteOnEvent(tick=16, channel=0, data=[24, 147]),\n",
      "   midi.NoteOffEvent(tick=12, channel=0, data=[83, 0]),\n",
      "   midi.NoteOffEvent(tick=38, channel=0, data=[34, 0]),\n",
      "   midi.NoteOffEvent(tick=9, channel=0, data=[48, 0]),\n",
      "   midi.NoteOnEvent(tick=3, channel=0, data=[76, 161]),\n",
      "   midi.NoteOnEvent(tick=2, channel=0, data=[16, 96]),\n",
      "   midi.NoteOnEvent(tick=8, channel=0, data=[117, 231]),\n",
      "   midi.NoteOffEvent(tick=2, channel=0, data=[41, 0]),\n",
      "   midi.NoteOnEvent(tick=0, channel=0, data=[71, 15]),\n",
      "   midi.NoteOffEvent(tick=4, channel=0, data=[33, 0]),\n",
      "   midi.NoteOnEvent(tick=7, channel=0, data=[100, 92]),\n",
      "   midi.NoteOffEvent(tick=5, channel=0, data=[24, 0]),\n",
      "   midi.NoteOnEvent(tick=0, channel=0, data=[58, 109]),\n",
      "   midi.NoteOffEvent(tick=7, channel=0, data=[61, 0]),\n",
      "   midi.NoteOnEvent(tick=7, channel=0, data=[18, 127]),\n",
      "   midi.NoteOffEvent(tick=25, channel=0, data=[54, 0]),\n",
      "   midi.NoteOnEvent(tick=1, channel=0, data=[116, 79]),\n",
      "   midi.NoteOnEvent(tick=5, channel=0, data=[107, 91]),\n",
      "   midi.NoteOffEvent(tick=5, channel=0, data=[107, 0]),\n",
      "   midi.NoteOnEvent(tick=6, channel=0, data=[104, 209]),\n",
      "   midi.NoteOnEvent(tick=7, channel=0, data=[7, 248]),\n",
      "   midi.NoteOnEvent(tick=21, channel=0, data=[55, 90]),\n",
      "   midi.NoteOffEvent(tick=8, channel=0, data=[116, 0]),\n",
      "   midi.NoteOffEvent(tick=6, channel=0, data=[124, 0]),\n",
      "   midi.NoteOnEvent(tick=22, channel=0, data=[68, 245]),\n",
      "   midi.NoteOnEvent(tick=18, channel=0, data=[93, 163]),\n",
      "   midi.NoteOnEvent(tick=3, channel=0, data=[115, 133]),\n",
      "   midi.NoteOffEvent(tick=39, channel=0, data=[1, 0]),\n",
      "   midi.NoteOffEvent(tick=4, channel=0, data=[38, 0]),\n",
      "   midi.NoteOffEvent(tick=8, channel=0, data=[35, 0]),\n",
      "   midi.NoteOffEvent(tick=2, channel=0, data=[93, 0]),\n",
      "   midi.NoteOffEvent(tick=19, channel=0, data=[7, 0]),\n",
      "   midi.NoteOnEvent(tick=8, channel=0, data=[60, 9]),\n",
      "   midi.NoteOffEvent(tick=11, channel=0, data=[16, 0]),\n",
      "   midi.NoteOnEvent(tick=19, channel=0, data=[9, 129]),\n",
      "   midi.NoteOffEvent(tick=15, channel=0, data=[60, 0]),\n",
      "   midi.NoteOnEvent(tick=1, channel=0, data=[53, 33]),\n",
      "   midi.NoteOffEvent(tick=9, channel=0, data=[53, 0]),\n",
      "   midi.NoteOnEvent(tick=7, channel=0, data=[82, 212]),\n",
      "   midi.NoteOffEvent(tick=9, channel=0, data=[115, 0]),\n",
      "   midi.NoteOnEvent(tick=8, channel=0, data=[104, 18]),\n",
      "   midi.NoteOnEvent(tick=2, channel=0, data=[8, 56]),\n",
      "   midi.NoteOnEvent(tick=6, channel=0, data=[60, 45]),\n",
      "   midi.NoteOnEvent(tick=0, channel=0, data=[106, 228]),\n",
      "   midi.NoteOffEvent(tick=19, channel=0, data=[55, 0]),\n",
      "   midi.NoteOffEvent(tick=3, channel=0, data=[39, 0]),\n",
      "   midi.NoteOffEvent(tick=125, channel=0, data=[19, 0]),\n",
      "   midi.NoteOffEvent(tick=67, channel=0, data=[26, 0]),\n",
      "   midi.NoteOffEvent(tick=25, channel=0, data=[10, 0]),\n",
      "   midi.NoteOffEvent(tick=33, channel=0, data=[68, 0]),\n",
      "   midi.NoteOffEvent(tick=17, channel=0, data=[58, 0]),\n",
      "   midi.NoteOffEvent(tick=18, channel=0, data=[37, 0]),\n",
      "   midi.NoteOffEvent(tick=61, channel=0, data=[71, 0]),\n",
      "   midi.NoteOffEvent(tick=145, channel=0, data=[82, 0]),\n",
      "   midi.NoteOffEvent(tick=11, channel=0, data=[76, 0]),\n",
      "   midi.NoteOffEvent(tick=49, channel=0, data=[18, 0]),\n",
      "   midi.NoteOffEvent(tick=21, channel=0, data=[104, 0]),\n",
      "   midi.NoteOffEvent(tick=34, channel=0, data=[100, 0]),\n",
      "   midi.NoteOffEvent(tick=23, channel=0, data=[117, 0]),\n",
      "   midi.NoteOffEvent(tick=186, channel=0, data=[8, 0]),\n",
      "   midi.NoteOffEvent(tick=21, channel=0, data=[60, 0]),\n",
      "   midi.NoteOffEvent(tick=84, channel=0, data=[9, 0]),\n",
      "   midi.NoteOffEvent(tick=15, channel=0, data=[106, 0]),\n",
      "   midi.EndOfTrackEvent(tick=0, data=[])]),\n",
      " midi.Track(\\\n",
      "  [midi.SetTempoEvent(tick=0, data=[8, 227, 124]),\n",
      "   midi.ProgramChangeEvent(tick=0, channel=0, data=[2]),\n",
      "   midi.NoteOnEvent(tick=3, channel=0, data=[53, 85]),\n",
      "   midi.NoteOnEvent(tick=3, channel=0, data=[5, 92]),\n",
      "   midi.NoteOnEvent(tick=10, channel=0, data=[102, 107]),\n",
      "   midi.NoteOnEvent(tick=12, channel=0, data=[126, 204]),\n",
      "   midi.NoteOnEvent(tick=7, channel=0, data=[85, 190]),\n",
      "   midi.NoteOnEvent(tick=15, channel=0, data=[84, 203]),\n",
      "   midi.NoteOnEvent(tick=13, channel=0, data=[9, 221]),\n",
      "   midi.NoteOnEvent(tick=5, channel=0, data=[96, 130]),\n",
      "   midi.NoteOnEvent(tick=31, channel=0, data=[50, 67]),\n",
      "   midi.NoteOnEvent(tick=13, channel=0, data=[11, 155]),\n",
      "   midi.NoteOnEvent(tick=9, channel=0, data=[76, 14]),\n",
      "   midi.NoteOnEvent(tick=5, channel=0, data=[16, 243]),\n",
      "   midi.NoteOnEvent(tick=35, channel=0, data=[16, 168]),\n",
      "   midi.NoteOnEvent(tick=57, channel=0, data=[48, 1]),\n",
      "   midi.NoteOnEvent(tick=4, channel=0, data=[88, 133]),\n",
      "   midi.NoteOnEvent(tick=34, channel=0, data=[35, 22]),\n",
      "   midi.NoteOnEvent(tick=1, channel=0, data=[77, 24]),\n",
      "   midi.NoteOnEvent(tick=8, channel=0, data=[61, 235]),\n",
      "   midi.NoteOnEvent(tick=34, channel=0, data=[108, 224]),\n",
      "   midi.NoteOffEvent(tick=29, channel=0, data=[84, 0]),\n",
      "   midi.NoteOnEvent(tick=17, channel=0, data=[68, 4]),\n",
      "   midi.NoteOnEvent(tick=4, channel=0, data=[51, 35]),\n",
      "   midi.NoteOffEvent(tick=11, channel=0, data=[126, 0]),\n",
      "   midi.NoteOffEvent(tick=38, channel=0, data=[11, 0]),\n",
      "   midi.NoteOnEvent(tick=10, channel=0, data=[13, 94]),\n",
      "   midi.NoteOffEvent(tick=12, channel=0, data=[35, 0]),\n",
      "   midi.NoteOnEvent(tick=13, channel=0, data=[52, 172]),\n",
      "   midi.NoteOnEvent(tick=2, channel=0, data=[68, 135]),\n",
      "   midi.NoteOnEvent(tick=6, channel=0, data=[81, 253]),\n",
      "   midi.NoteOnEvent(tick=16, channel=0, data=[13, 67]),\n",
      "   midi.NoteOnEvent(tick=0, channel=0, data=[85, 1]),\n",
      "   midi.NoteOnEvent(tick=3, channel=0, data=[12, 62]),\n",
      "   midi.NoteOffEvent(tick=7, channel=0, data=[48, 0]),\n",
      "   midi.NoteOnEvent(tick=6, channel=0, data=[90, 205]),\n",
      "   midi.NoteOnEvent(tick=4, channel=0, data=[32, 156]),\n",
      "   midi.NoteOnEvent(tick=6, channel=0, data=[9, 110]),\n",
      "   midi.NoteOnEvent(tick=8, channel=0, data=[127, 117]),\n",
      "   midi.NoteOnEvent(tick=31, channel=0, data=[57, 25]),\n",
      "   midi.NoteOnEvent(tick=0, channel=0, data=[15, 9]),\n",
      "   midi.NoteOffEvent(tick=3, channel=0, data=[57, 0]),\n",
      "   midi.NoteOnEvent(tick=5, channel=0, data=[102, 55]),\n",
      "   midi.NoteOnEvent(tick=2, channel=0, data=[53, 204]),\n",
      "   midi.NoteOnEvent(tick=15, channel=0, data=[25, 120]),\n",
      "   midi.NoteOnEvent(tick=7, channel=0, data=[19, 59]),\n",
      "   midi.NoteOnEvent(tick=2, channel=0, data=[125, 199]),\n",
      "   midi.NoteOnEvent(tick=18, channel=0, data=[84, 155]),\n",
      "   midi.NoteOnEvent(tick=19, channel=0, data=[75, 71]),\n",
      "   midi.NoteOnEvent(tick=2, channel=0, data=[115, 46]),\n",
      "   midi.NoteOffEvent(tick=7, channel=0, data=[5, 0]),\n",
      "   midi.NoteOffEvent(tick=16, channel=0, data=[77, 0]),\n",
      "   midi.NoteOnEvent(tick=0, channel=0, data=[22, 217]),\n",
      "   midi.NoteOffEvent(tick=5, channel=0, data=[68, 0]),\n",
      "   midi.NoteOffEvent(tick=5, channel=0, data=[51, 0]),\n",
      "   midi.NoteOffEvent(tick=1, channel=0, data=[127, 0]),\n",
      "   midi.NoteOnEvent(tick=21, channel=0, data=[109, 215]),\n",
      "   midi.NoteOnEvent(tick=3, channel=0, data=[103, 35]),\n",
      "   midi.NoteOnEvent(tick=8, channel=0, data=[39, 216]),\n",
      "   midi.NoteOnEvent(tick=8, channel=0, data=[105, 87]),\n",
      "   midi.NoteOnEvent(tick=0, channel=0, data=[118, 176]),\n",
      "   midi.NoteOnEvent(tick=2, channel=0, data=[27, 161]),\n",
      "   midi.NoteOffEvent(tick=4, channel=0, data=[50, 0]),\n",
      "   midi.NoteOffEvent(tick=8, channel=0, data=[13, 0]),\n",
      "   midi.NoteOffEvent(tick=46, channel=0, data=[115, 0]),\n",
      "   midi.NoteOnEvent(tick=12, channel=0, data=[46, 153]),\n",
      "   midi.NoteOffEvent(tick=16, channel=0, data=[90, 0]),\n",
      "   midi.NoteOffEvent(tick=1, channel=0, data=[15, 0]),\n",
      "   midi.NoteOnEvent(tick=3, channel=0, data=[94, 156]),\n",
      "   midi.NoteOffEvent(tick=17, channel=0, data=[12, 0]),\n",
      "   midi.NoteOffEvent(tick=34, channel=0, data=[39, 0]),\n",
      "   midi.NoteOnEvent(tick=2, channel=0, data=[57, 196]),\n",
      "   midi.NoteOffEvent(tick=3, channel=0, data=[103, 0]),\n",
      "   midi.NoteOnEvent(tick=9, channel=0, data=[14, 171]),\n",
      "   midi.NoteOffEvent(tick=9, channel=0, data=[81, 0]),\n",
      "   midi.NoteOnEvent(tick=23, channel=0, data=[11, 15]),\n",
      "   midi.NoteOnEvent(tick=0, channel=0, data=[106, 125]),\n",
      "   midi.NoteOnEvent(tick=29, channel=0, data=[36, 228]),\n",
      "   midi.NoteOffEvent(tick=6, channel=0, data=[118, 0]),\n",
      "   midi.NoteOffEvent(tick=8, channel=0, data=[36, 0]),\n",
      "   midi.NoteOffEvent(tick=22, channel=0, data=[85, 0]),\n",
      "   midi.NoteOffEvent(tick=14, channel=0, data=[84, 0]),\n",
      "   midi.NoteOnEvent(tick=1, channel=0, data=[54, 55]),\n",
      "   midi.NoteOnEvent(tick=1, channel=0, data=[52, 27]),\n",
      "   midi.NoteOffEvent(tick=9, channel=0, data=[14, 0]),\n",
      "   midi.NoteOffEvent(tick=4, channel=0, data=[46, 0]),\n",
      "   midi.NoteOnEvent(tick=17, channel=0, data=[23, 68]),\n",
      "   midi.NoteOffEvent(tick=18, channel=0, data=[96, 0]),\n",
      "   midi.NoteOnEvent(tick=0, channel=0, data=[98, 71]),\n",
      "   midi.NoteOnEvent(tick=6, channel=0, data=[25, 181]),\n",
      "   midi.NoteOnEvent(tick=0, channel=0, data=[51, 81]),\n",
      "   midi.NoteOffEvent(tick=3, channel=0, data=[125, 0]),\n",
      "   midi.NoteOnEvent(tick=3, channel=0, data=[42, 47]),\n",
      "   midi.NoteOffEvent(tick=16, channel=0, data=[76, 0]),\n",
      "   midi.NoteOffEvent(tick=21, channel=0, data=[51, 0]),\n",
      "   midi.NoteOffEvent(tick=62, channel=0, data=[16, 0]),\n",
      "   midi.NoteOffEvent(tick=3, channel=0, data=[32, 0]),\n",
      "   midi.NoteOffEvent(tick=15, channel=0, data=[108, 0]),\n",
      "   midi.NoteOffEvent(tick=5, channel=0, data=[23, 0]),\n",
      "   midi.NoteOffEvent(tick=11, channel=0, data=[88, 0]),\n",
      "   midi.NoteOffEvent(tick=25, channel=0, data=[52, 0]),\n",
      "   midi.NoteOffEvent(tick=16, channel=0, data=[61, 0]),\n",
      "   midi.NoteOffEvent(tick=57, channel=0, data=[11, 0]),\n",
      "   midi.NoteOffEvent(tick=59, channel=0, data=[9, 0]),\n",
      "   midi.NoteOffEvent(tick=17, channel=0, data=[105, 0]),\n",
      "   midi.NoteOffEvent(tick=22, channel=0, data=[98, 0]),\n",
      "   midi.NoteOffEvent(tick=2, channel=0, data=[42, 0]),\n",
      "   midi.NoteOffEvent(tick=25, channel=0, data=[102, 0]),\n",
      "   midi.NoteOffEvent(tick=5, channel=0, data=[53, 0]),\n",
      "   midi.NoteOffEvent(tick=7, channel=0, data=[57, 0]),\n",
      "   midi.NoteOffEvent(tick=39, channel=0, data=[22, 0]),\n",
      "   midi.NoteOffEvent(tick=17, channel=0, data=[75, 0]),\n",
      "   midi.NoteOffEvent(tick=97, channel=0, data=[19, 0]),\n",
      "   midi.NoteOffEvent(tick=81, channel=0, data=[27, 0]),\n",
      "   midi.NoteOffEvent(tick=47, channel=0, data=[109, 0]),\n",
      "   midi.NoteOffEvent(tick=77, channel=0, data=[94, 0]),\n",
      "   midi.NoteOffEvent(tick=49, channel=0, data=[106, 0]),\n",
      "   midi.NoteOffEvent(tick=4, channel=0, data=[54, 0]),\n",
      "   midi.NoteOffEvent(tick=73, channel=0, data=[25, 0]),\n",
      "   midi.EndOfTrackEvent(tick=0, data=[])]),\n",
      " midi.Track(\\\n",
      "  [midi.SetTempoEvent(tick=0, data=[8, 227, 124]),\n",
      "   midi.ProgramChangeEvent(tick=0, channel=0, data=[3]),\n",
      "   midi.NoteOnEvent(tick=47, channel=0, data=[48, 55]),\n",
      "   midi.NoteOnEvent(tick=22, channel=0, data=[108, 77]),\n",
      "   midi.NoteOnEvent(tick=14, channel=0, data=[14, 201]),\n",
      "   midi.NoteOnEvent(tick=16, channel=0, data=[26, 28]),\n",
      "   midi.NoteOnEvent(tick=41, channel=0, data=[13, 109]),\n",
      "   midi.NoteOnEvent(tick=2, channel=0, data=[77, 229]),\n",
      "   midi.NoteOnEvent(tick=11, channel=0, data=[93, 66]),\n",
      "   midi.NoteOnEvent(tick=6, channel=0, data=[85, 110]),\n",
      "   midi.NoteOnEvent(tick=24, channel=0, data=[69, 57]),\n",
      "   midi.NoteOffEvent(tick=2, channel=0, data=[93, 0]),\n",
      "   midi.NoteOffEvent(tick=6, channel=0, data=[14, 0]),\n",
      "   midi.NoteOnEvent(tick=3, channel=0, data=[70, 127]),\n",
      "   midi.NoteOnEvent(tick=9, channel=0, data=[29, 5]),\n",
      "   midi.NoteOnEvent(tick=5, channel=0, data=[25, 250]),\n",
      "   midi.NoteOffEvent(tick=4, channel=0, data=[77, 0]),\n",
      "   midi.NoteOnEvent(tick=10, channel=0, data=[47, 34]),\n",
      "   midi.NoteOnEvent(tick=0, channel=0, data=[5, 24]),\n",
      "   midi.NoteOnEvent(tick=4, channel=0, data=[34, 155]),\n",
      "   midi.NoteOnEvent(tick=14, channel=0, data=[10, 0]),\n",
      "   midi.NoteOnEvent(tick=5, channel=0, data=[71, 120]),\n",
      "   midi.NoteOnEvent(tick=6, channel=0, data=[89, 156]),\n",
      "   midi.NoteOnEvent(tick=8, channel=0, data=[101, 2]),\n",
      "   midi.NoteOffEvent(tick=3, channel=0, data=[101, 0]),\n",
      "   midi.NoteOnEvent(tick=11, channel=0, data=[36, 59]),\n",
      "   midi.NoteOffEvent(tick=2, channel=0, data=[29, 0]),\n",
      "   midi.NoteOnEvent(tick=15, channel=0, data=[110, 217]),\n",
      "   midi.NoteOnEvent(tick=9, channel=0, data=[32, 100]),\n",
      "   midi.NoteOnEvent(tick=22, channel=0, data=[121, 185]),\n",
      "   midi.NoteOnEvent(tick=36, channel=0, data=[103, 195]),\n",
      "   midi.NoteOffEvent(tick=21, channel=0, data=[69, 0]),\n",
      "   midi.NoteOnEvent(tick=20, channel=0, data=[3, 59]),\n",
      "   midi.NoteOnEvent(tick=6, channel=0, data=[8, 53]),\n",
      "   midi.NoteOffEvent(tick=23, channel=0, data=[36, 0]),\n",
      "   midi.NoteOnEvent(tick=14, channel=0, data=[67, 181]),\n",
      "   midi.NoteOffEvent(tick=1, channel=0, data=[10, 0]),\n",
      "   midi.NoteOnEvent(tick=15, channel=0, data=[28, 175]),\n",
      "   midi.NoteOffEvent(tick=12, channel=0, data=[103, 0]),\n",
      "   midi.NoteOnEvent(tick=14, channel=0, data=[32, 0]),\n",
      "   midi.NoteOnEvent(tick=5, channel=0, data=[76, 132]),\n",
      "   midi.NoteOffEvent(tick=14, channel=0, data=[121, 0]),\n",
      "   midi.NoteOnEvent(tick=14, channel=0, data=[88, 107]),\n",
      "   midi.NoteOnEvent(tick=5, channel=0, data=[37, 169]),\n",
      "   midi.NoteOnEvent(tick=1, channel=0, data=[39, 2]),\n",
      "   midi.NoteOffEvent(tick=7, channel=0, data=[108, 0]),\n",
      "   midi.NoteOnEvent(tick=3, channel=0, data=[43, 210]),\n",
      "   midi.NoteOnEvent(tick=3, channel=0, data=[125, 107]),\n",
      "   midi.NoteOnEvent(tick=7, channel=0, data=[28, 41]),\n",
      "   midi.NoteOnEvent(tick=29, channel=0, data=[19, 16]),\n",
      "   midi.NoteOnEvent(tick=1, channel=0, data=[35, 141]),\n",
      "   midi.NoteOnEvent(tick=2, channel=0, data=[3, 199]),\n",
      "   midi.NoteOnEvent(tick=29, channel=0, data=[27, 32]),\n",
      "   midi.NoteOnEvent(tick=15, channel=0, data=[7, 33]),\n",
      "   midi.NoteOnEvent(tick=16, channel=0, data=[66, 196]),\n",
      "   midi.NoteOffEvent(tick=13, channel=0, data=[67, 0]),\n",
      "   midi.NoteOnEvent(tick=23, channel=0, data=[65, 14]),\n",
      "   midi.NoteOnEvent(tick=0, channel=0, data=[80, 250]),\n",
      "   midi.NoteOnEvent(tick=7, channel=0, data=[4, 102]),\n",
      "   midi.NoteOffEvent(tick=2, channel=0, data=[35, 0]),\n",
      "   midi.NoteOffEvent(tick=5, channel=0, data=[48, 0]),\n",
      "   midi.NoteOffEvent(tick=17, channel=0, data=[71, 0]),\n",
      "   midi.NoteOnEvent(tick=16, channel=0, data=[43, 69]),\n",
      "   midi.NoteOnEvent(tick=9, channel=0, data=[78, 236]),\n",
      "   midi.NoteOnEvent(tick=13, channel=0, data=[115, 215]),\n",
      "   midi.NoteOnEvent(tick=13, channel=0, data=[99, 181]),\n",
      "   midi.NoteOnEvent(tick=3, channel=0, data=[23, 120]),\n",
      "   midi.NoteOnEvent(tick=0, channel=0, data=[32, 88]),\n",
      "   midi.NoteOnEvent(tick=4, channel=0, data=[50, 41]),\n",
      "   midi.NoteOffEvent(tick=4, channel=0, data=[43, 0]),\n",
      "   midi.NoteOffEvent(tick=10, channel=0, data=[4, 0]),\n",
      "   midi.NoteOffEvent(tick=34, channel=0, data=[23, 0]),\n",
      "   midi.NoteOffEvent(tick=3, channel=0, data=[26, 0]),\n",
      "   midi.NoteOnEvent(tick=15, channel=0, data=[121, 135]),\n",
      "   midi.NoteOnEvent(tick=0, channel=0, data=[117, 12]),\n",
      "   midi.NoteOffEvent(tick=4, channel=0, data=[34, 0]),\n",
      "   midi.NoteOffEvent(tick=14, channel=0, data=[78, 0]),\n",
      "   midi.NoteOnEvent(tick=1, channel=0, data=[41, 105]),\n",
      "   midi.NoteOffEvent(tick=1, channel=0, data=[25, 0]),\n",
      "   midi.NoteOnEvent(tick=10, channel=0, data=[55, 188]),\n",
      "   midi.NoteOffEvent(tick=24, channel=0, data=[27, 0]),\n",
      "   midi.NoteOnEvent(tick=1, channel=0, data=[18, 224]),\n",
      "   midi.NoteOnEvent(tick=3, channel=0, data=[125, 180]),\n",
      "   midi.NoteOnEvent(tick=7, channel=0, data=[102, 138]),\n",
      "   midi.NoteOffEvent(tick=21, channel=0, data=[70, 0]),\n",
      "   midi.NoteOffEvent(tick=7, channel=0, data=[110, 0]),\n",
      "   midi.NoteOnEvent(tick=3, channel=0, data=[68, 66]),\n",
      "   midi.NoteOnEvent(tick=2, channel=0, data=[44, 146]),\n",
      "   midi.NoteOffEvent(tick=12, channel=0, data=[99, 0]),\n",
      "   midi.NoteOnEvent(tick=4, channel=0, data=[41, 161]),\n",
      "   midi.NoteOnEvent(tick=16, channel=0, data=[17, 106]),\n",
      "   midi.NoteOffEvent(tick=30, channel=0, data=[3, 0]),\n",
      "   midi.NoteOffEvent(tick=27, channel=0, data=[47, 0]),\n",
      "   midi.NoteOffEvent(tick=11, channel=0, data=[5, 0]),\n",
      "   midi.NoteOffEvent(tick=13, channel=0, data=[85, 0]),\n",
      "   midi.NoteOffEvent(tick=65, channel=0, data=[17, 0]),\n",
      "   midi.NoteOffEvent(tick=7, channel=0, data=[76, 0]),\n",
      "   midi.NoteOffEvent(tick=10, channel=0, data=[13, 0]),\n",
      "   midi.NoteOffEvent(tick=6, channel=0, data=[89, 0]),\n",
      "   midi.NoteOffEvent(tick=1, channel=0, data=[88, 0]),\n",
      "   midi.NoteOffEvent(tick=20, channel=0, data=[8, 0]),\n",
      "   midi.NoteOffEvent(tick=6, channel=0, data=[121, 0]),\n",
      "   midi.NoteOffEvent(tick=27, channel=0, data=[66, 0]),\n",
      "   midi.NoteOffEvent(tick=23, channel=0, data=[55, 0]),\n",
      "   midi.NoteOffEvent(tick=45, channel=0, data=[125, 0]),\n",
      "   midi.NoteOffEvent(tick=24, channel=0, data=[65, 0]),\n",
      "   midi.NoteOffEvent(tick=107, channel=0, data=[39, 0]),\n",
      "   midi.NoteOffEvent(tick=16, channel=0, data=[37, 0]),\n",
      "   midi.NoteOffEvent(tick=27, channel=0, data=[41, 0]),\n",
      "   midi.NoteOffEvent(tick=17, channel=0, data=[7, 0]),\n",
      "   midi.NoteOffEvent(tick=10, channel=0, data=[102, 0]),\n",
      "   midi.NoteOffEvent(tick=56, channel=0, data=[28, 0]),\n",
      "   midi.NoteOffEvent(tick=2, channel=0, data=[19, 0]),\n",
      "   midi.NoteOffEvent(tick=18, channel=0, data=[80, 0]),\n",
      "   midi.NoteOffEvent(tick=109, channel=0, data=[50, 0]),\n",
      "   midi.NoteOffEvent(tick=34, channel=0, data=[32, 0]),\n",
      "   midi.NoteOffEvent(tick=34, channel=0, data=[68, 0]),\n",
      "   midi.NoteOffEvent(tick=5, channel=0, data=[18, 0]),\n",
      "   midi.NoteOffEvent(tick=18, channel=0, data=[115, 0]),\n",
      "   midi.NoteOffEvent(tick=12, channel=0, data=[117, 0]),\n",
      "   midi.NoteOffEvent(tick=28, channel=0, data=[44, 0]),\n",
      "   midi.EndOfTrackEvent(tick=0, data=[])]),\n",
      " midi.Track(\\\n",
      "  [midi.SetTempoEvent(tick=0, data=[8, 227, 124]),\n",
      "   midi.ProgramChangeEvent(tick=0, channel=0, data=[4]),\n",
      "   midi.NoteOnEvent(tick=14, channel=0, data=[23, 112]),\n",
      "   midi.NoteOnEvent(tick=2, channel=0, data=[74, 43]),\n",
      "   midi.NoteOnEvent(tick=6, channel=0, data=[98, 152]),\n",
      "   midi.NoteOnEvent(tick=47, channel=0, data=[23, 144]),\n",
      "   midi.NoteOnEvent(tick=0, channel=0, data=[29, 165]),\n",
      "   midi.NoteOnEvent(tick=30, channel=0, data=[49, 110]),\n",
      "   midi.NoteOnEvent(tick=16, channel=0, data=[36, 21]),\n",
      "   midi.NoteOnEvent(tick=8, channel=0, data=[38, 42]),\n",
      "   midi.NoteOnEvent(tick=3, channel=0, data=[100, 120]),\n",
      "   midi.NoteOnEvent(tick=4, channel=0, data=[75, 102]),\n",
      "   midi.NoteOnEvent(tick=2, channel=0, data=[72, 33]),\n",
      "   midi.NoteOffEvent(tick=18, channel=0, data=[74, 0]),\n",
      "   midi.NoteOnEvent(tick=3, channel=0, data=[63, 52]),\n",
      "   midi.NoteOnEvent(tick=17, channel=0, data=[67, 231]),\n",
      "   midi.NoteOnEvent(tick=11, channel=0, data=[92, 189]),\n",
      "   midi.NoteOnEvent(tick=0, channel=0, data=[116, 142]),\n",
      "   midi.NoteOffEvent(tick=11, channel=0, data=[72, 0]),\n",
      "   midi.NoteOnEvent(tick=11, channel=0, data=[13, 205]),\n",
      "   midi.NoteOnEvent(tick=17, channel=0, data=[101, 66]),\n",
      "   midi.NoteOnEvent(tick=2, channel=0, data=[4, 146]),\n",
      "   midi.NoteOnEvent(tick=0, channel=0, data=[53, 161]),\n",
      "   midi.NoteOnEvent(tick=18, channel=0, data=[74, 155]),\n",
      "   midi.NoteOffEvent(tick=11, channel=0, data=[100, 0]),\n",
      "   midi.NoteOnEvent(tick=25, channel=0, data=[118, 164]),\n",
      "   midi.NoteOffEvent(tick=3, channel=0, data=[118, 0]),\n",
      "   midi.NoteOnEvent(tick=10, channel=0, data=[22, 174]),\n",
      "   midi.NoteOnEvent(tick=4, channel=0, data=[115, 189]),\n",
      "   midi.NoteOnEvent(tick=16, channel=0, data=[27, 110]),\n",
      "   midi.NoteOffEvent(tick=2, channel=0, data=[115, 0]),\n",
      "   midi.NoteOnEvent(tick=20, channel=0, data=[58, 99]),\n",
      "   midi.NoteOnEvent(tick=1, channel=0, data=[32, 217]),\n",
      "   midi.NoteOffEvent(tick=17, channel=0, data=[27, 0]),\n",
      "   midi.NoteOnEvent(tick=1, channel=0, data=[110, 215]),\n",
      "   midi.NoteOffEvent(tick=32, channel=0, data=[13, 0]),\n",
      "   midi.NoteOnEvent(tick=85, channel=0, data=[86, 38]),\n",
      "   midi.NoteOnEvent(tick=4, channel=0, data=[119, 97]),\n",
      "   midi.NoteOnEvent(tick=6, channel=0, data=[50, 29]),\n",
      "   midi.NoteOnEvent(tick=0, channel=0, data=[54, 13]),\n",
      "   midi.NoteOnEvent(tick=19, channel=0, data=[25, 180]),\n",
      "   midi.NoteOnEvent(tick=34, channel=0, data=[27, 49]),\n",
      "   midi.NoteOnEvent(tick=17, channel=0, data=[21, 171]),\n",
      "   midi.NoteOffEvent(tick=4, channel=0, data=[22, 0]),\n",
      "   midi.NoteOnEvent(tick=6, channel=0, data=[65, 210]),\n",
      "   midi.NoteOnEvent(tick=11, channel=0, data=[115, 1]),\n",
      "   midi.NoteOnEvent(tick=0, channel=0, data=[33, 104]),\n",
      "   midi.NoteOffEvent(tick=4, channel=0, data=[58, 0]),\n",
      "   midi.NoteOnEvent(tick=3, channel=0, data=[81, 247]),\n",
      "   midi.NoteOnEvent(tick=35, channel=0, data=[54, 12]),\n",
      "   midi.NoteOffEvent(tick=1, channel=0, data=[33, 0]),\n",
      "   midi.NoteOnEvent(tick=5, channel=0, data=[28, 174]),\n",
      "   midi.NoteOnEvent(tick=0, channel=0, data=[19, 155]),\n",
      "   midi.NoteOffEvent(tick=9, channel=0, data=[86, 0]),\n",
      "   midi.NoteOnEvent(tick=23, channel=0, data=[16, 147]),\n",
      "   midi.NoteOffEvent(tick=2, channel=0, data=[36, 0]),\n",
      "   midi.NoteOffEvent(tick=10, channel=0, data=[75, 0]),\n",
      "   midi.NoteOffEvent(tick=7, channel=0, data=[119, 0]),\n",
      "   midi.NoteOnEvent(tick=4, channel=0, data=[0, 102]),\n",
      "   midi.NoteOnEvent(tick=6, channel=0, data=[61, 188]),\n",
      "   midi.NoteOffEvent(tick=1, channel=0, data=[92, 0]),\n",
      "   midi.NoteOnEvent(tick=12, channel=0, data=[111, 225]),\n",
      "   midi.NoteOnEvent(tick=3, channel=0, data=[96, 43]),\n",
      "   midi.NoteOffEvent(tick=42, channel=0, data=[38, 0]),\n",
      "   midi.NoteOnEvent(tick=2, channel=0, data=[121, 200]),\n",
      "   midi.NoteOnEvent(tick=13, channel=0, data=[68, 183]),\n",
      "   midi.NoteOnEvent(tick=2, channel=0, data=[55, 97]),\n",
      "   midi.NoteOffEvent(tick=4, channel=0, data=[74, 0]),\n",
      "   midi.NoteOnEvent(tick=8, channel=0, data=[106, 108]),\n",
      "   midi.NoteOffEvent(tick=19, channel=0, data=[49, 0]),\n",
      "   midi.NoteOffEvent(tick=1, channel=0, data=[32, 0]),\n",
      "   midi.NoteOffEvent(tick=0, channel=0, data=[98, 0]),\n",
      "   midi.NoteOffEvent(tick=2, channel=0, data=[101, 0]),\n",
      "   midi.NoteOnEvent(tick=10, channel=0, data=[90, 225]),\n",
      "   midi.NoteOnEvent(tick=11, channel=0, data=[19, 25]),\n",
      "   midi.NoteOnEvent(tick=13, channel=0, data=[11, 235]),\n",
      "   midi.NoteOffEvent(tick=1, channel=0, data=[61, 0]),\n",
      "   midi.NoteOffEvent(tick=18, channel=0, data=[29, 0]),\n",
      "   midi.NoteOffEvent(tick=9, channel=0, data=[65, 0]),\n",
      "   midi.NoteOnEvent(tick=2, channel=0, data=[5, 22]),\n",
      "   midi.NoteOffEvent(tick=7, channel=0, data=[67, 0]),\n",
      "   midi.NoteOnEvent(tick=1, channel=0, data=[66, 197]),\n",
      "   midi.NoteOffEvent(tick=12, channel=0, data=[25, 0]),\n",
      "   midi.NoteOnEvent(tick=13, channel=0, data=[62, 41]),\n",
      "   midi.NoteOffEvent(tick=18, channel=0, data=[81, 0]),\n",
      "   midi.NoteOnEvent(tick=1, channel=0, data=[62, 87]),\n",
      "   midi.NoteOnEvent(tick=0, channel=0, data=[101, 87]),\n",
      "   midi.NoteOffEvent(tick=12, channel=0, data=[23, 0]),\n",
      "   midi.NoteOnEvent(tick=7, channel=0, data=[10, 140]),\n",
      "   midi.NoteOnEvent(tick=8, channel=0, data=[35, 138]),\n",
      "   midi.NoteOffEvent(tick=1, channel=0, data=[110, 0]),\n",
      "   midi.NoteOnEvent(tick=1, channel=0, data=[64, 17]),\n",
      "   midi.NoteOffEvent(tick=7, channel=0, data=[53, 0]),\n",
      "   midi.NoteOnEvent(tick=0, channel=0, data=[25, 43]),\n",
      "   midi.NoteOnEvent(tick=4, channel=0, data=[81, 137]),\n",
      "   midi.NoteOnEvent(tick=0, channel=0, data=[75, 24]),\n",
      "   midi.NoteOffEvent(tick=1, channel=0, data=[116, 0]),\n",
      "   midi.NoteOnEvent(tick=3, channel=0, data=[80, 237]),\n",
      "   midi.NoteOffEvent(tick=2, channel=0, data=[19, 0]),\n",
      "   midi.NoteOffEvent(tick=0, channel=0, data=[121, 0]),\n",
      "   midi.NoteOnEvent(tick=21, channel=0, data=[75, 30]),\n",
      "   midi.NoteOnEvent(tick=10, channel=0, data=[84, 50]),\n",
      "   midi.NoteOnEvent(tick=14, channel=0, data=[61, 229]),\n",
      "   midi.NoteOffEvent(tick=23, channel=0, data=[80, 0]),\n",
      "   midi.NoteOffEvent(tick=40, channel=0, data=[115, 0]),\n",
      "   midi.NoteOffEvent(tick=31, channel=0, data=[0, 0]),\n",
      "   midi.NoteOffEvent(tick=18, channel=0, data=[27, 0]),\n",
      "   midi.NoteOffEvent(tick=26, channel=0, data=[5, 0]),\n",
      "   midi.NoteOffEvent(tick=22, channel=0, data=[63, 0]),\n",
      "   midi.NoteOffEvent(tick=25, channel=0, data=[4, 0]),\n",
      "   midi.NoteOffEvent(tick=30, channel=0, data=[111, 0]),\n",
      "   midi.NoteOffEvent(tick=34, channel=0, data=[11, 0]),\n",
      "   midi.NoteOffEvent(tick=42, channel=0, data=[54, 0]),\n",
      "   midi.NoteOffEvent(tick=75, channel=0, data=[101, 0]),\n",
      "   midi.NoteOffEvent(tick=53, channel=0, data=[75, 0]),\n",
      "   midi.NoteOffEvent(tick=12, channel=0, data=[28, 0]),\n",
      "   midi.NoteOffEvent(tick=5, channel=0, data=[106, 0]),\n",
      "   midi.NoteOffEvent(tick=13, channel=0, data=[84, 0]),\n",
      "   midi.NoteOffEvent(tick=16, channel=0, data=[90, 0]),\n",
      "   midi.NoteOffEvent(tick=8, channel=0, data=[81, 0]),\n",
      "   midi.NoteOffEvent(tick=1, channel=0, data=[50, 0]),\n",
      "   midi.NoteOffEvent(tick=6, channel=0, data=[21, 0]),\n",
      "   midi.NoteOffEvent(tick=7, channel=0, data=[16, 0]),\n",
      "   midi.NoteOffEvent(tick=10, channel=0, data=[64, 0]),\n",
      "   midi.NoteOffEvent(tick=31, channel=0, data=[35, 0]),\n",
      "   midi.NoteOffEvent(tick=22, channel=0, data=[55, 0]),\n",
      "   midi.NoteOffEvent(tick=23, channel=0, data=[96, 0]),\n",
      "   midi.NoteOffEvent(tick=71, channel=0, data=[61, 0]),\n",
      "   midi.NoteOffEvent(tick=38, channel=0, data=[68, 0]),\n",
      "   midi.NoteOffEvent(tick=15, channel=0, data=[62, 0]),\n",
      "   midi.NoteOffEvent(tick=28, channel=0, data=[66, 0]),\n",
      "   midi.NoteOffEvent(tick=33, channel=0, data=[10, 0]),\n",
      "   midi.NoteOffEvent(tick=25, channel=0, data=[25, 0]),\n",
      "   midi.EndOfTrackEvent(tick=0, data=[])]),\n",
      " midi.Track(\\\n",
      "  [midi.SetTempoEvent(tick=0, data=[8, 227, 124]),\n",
      "   midi.ProgramChangeEvent(tick=0, channel=0, data=[5]),\n",
      "   midi.NoteOnEvent(tick=28, channel=0, data=[35, 184]),\n",
      "   midi.NoteOnEvent(tick=40, channel=0, data=[92, 129]),\n",
      "   midi.NoteOnEvent(tick=51, channel=0, data=[99, 40]),\n",
      "   midi.NoteOnEvent(tick=10, channel=0, data=[56, 146]),\n",
      "   midi.NoteOnEvent(tick=3, channel=0, data=[118, 211]),\n",
      "   midi.NoteOnEvent(tick=34, channel=0, data=[40, 91]),\n",
      "   midi.NoteOnEvent(tick=13, channel=0, data=[41, 42]),\n",
      "   midi.NoteOnEvent(tick=11, channel=0, data=[44, 61]),\n",
      "   midi.NoteOnEvent(tick=51, channel=0, data=[41, 23]),\n",
      "   midi.NoteOnEvent(tick=5, channel=0, data=[70, 235]),\n",
      "   midi.NoteOnEvent(tick=30, channel=0, data=[71, 15]),\n",
      "   midi.NoteOffEvent(tick=11, channel=0, data=[118, 0]),\n",
      "   midi.NoteOnEvent(tick=70, channel=0, data=[32, 35]),\n",
      "   midi.NoteOnEvent(tick=43, channel=0, data=[30, 138]),\n",
      "   midi.NoteOnEvent(tick=2, channel=0, data=[69, 130]),\n",
      "   midi.NoteOnEvent(tick=4, channel=0, data=[1, 238]),\n",
      "   midi.NoteOffEvent(tick=3, channel=0, data=[92, 0]),\n",
      "   midi.NoteOnEvent(tick=7, channel=0, data=[75, 214]),\n",
      "   midi.NoteOnEvent(tick=19, channel=0, data=[33, 179]),\n",
      "   midi.NoteOnEvent(tick=0, channel=0, data=[9, 89]),\n",
      "   midi.NoteOnEvent(tick=5, channel=0, data=[100, 54]),\n",
      "   midi.NoteOffEvent(tick=12, channel=0, data=[71, 0]),\n",
      "   midi.NoteOnEvent(tick=19, channel=0, data=[74, 95]),\n",
      "   midi.NoteOnEvent(tick=5, channel=0, data=[41, 26]),\n",
      "   midi.NoteOnEvent(tick=3, channel=0, data=[43, 126]),\n",
      "   midi.NoteOnEvent(tick=4, channel=0, data=[83, 248]),\n",
      "   midi.NoteOnEvent(tick=4, channel=0, data=[10, 38]),\n",
      "   midi.NoteOnEvent(tick=0, channel=0, data=[104, 101]),\n",
      "   midi.NoteOnEvent(tick=29, channel=0, data=[35, 14]),\n",
      "   midi.NoteOnEvent(tick=31, channel=0, data=[9, 224]),\n",
      "   midi.NoteOnEvent(tick=21, channel=0, data=[96, 216]),\n",
      "   midi.NoteOnEvent(tick=3, channel=0, data=[88, 236]),\n",
      "   midi.NoteOffEvent(tick=6, channel=0, data=[9, 0]),\n",
      "   midi.NoteOnEvent(tick=16, channel=0, data=[88, 41]),\n",
      "   midi.NoteOnEvent(tick=0, channel=0, data=[67, 15]),\n",
      "   midi.NoteOnEvent(tick=17, channel=0, data=[76, 40]),\n",
      "   midi.NoteOffEvent(tick=3, channel=0, data=[10, 0]),\n",
      "   midi.NoteOnEvent(tick=12, channel=0, data=[24, 189]),\n",
      "   midi.NoteOnEvent(tick=9, channel=0, data=[59, 56]),\n",
      "   midi.NoteOnEvent(tick=14, channel=0, data=[68, 15]),\n",
      "   midi.NoteOnEvent(tick=3, channel=0, data=[58, 164]),\n",
      "   midi.NoteOffEvent(tick=2, channel=0, data=[67, 0]),\n",
      "   midi.NoteOnEvent(tick=9, channel=0, data=[92, 111]),\n",
      "   midi.NoteOffEvent(tick=6, channel=0, data=[104, 0]),\n",
      "   midi.NoteOffEvent(tick=14, channel=0, data=[75, 0]),\n",
      "   midi.NoteOnEvent(tick=6, channel=0, data=[14, 226]),\n",
      "   midi.NoteOffEvent(tick=16, channel=0, data=[44, 0]),\n",
      "   midi.NoteOnEvent(tick=7, channel=0, data=[104, 50]),\n",
      "   midi.NoteOffEvent(tick=3, channel=0, data=[69, 0]),\n",
      "   midi.NoteOnEvent(tick=1, channel=0, data=[75, 178]),\n",
      "   midi.NoteOnEvent(tick=2, channel=0, data=[102, 231]),\n",
      "   midi.NoteOnEvent(tick=15, channel=0, data=[93, 58]),\n",
      "   midi.NoteOffEvent(tick=4, channel=0, data=[92, 0]),\n",
      "   midi.NoteOnEvent(tick=4, channel=0, data=[62, 218]),\n",
      "   midi.NoteOnEvent(tick=19, channel=0, data=[113, 135]),\n",
      "   midi.NoteOnEvent(tick=13, channel=0, data=[27, 248]),\n",
      "   midi.NoteOnEvent(tick=7, channel=0, data=[77, 69]),\n",
      "   midi.NoteOnEvent(tick=4, channel=0, data=[29, 70]),\n",
      "   midi.NoteOnEvent(tick=35, channel=0, data=[21, 79]),\n",
      "   midi.NoteOffEvent(tick=7, channel=0, data=[75, 0]),\n",
      "   midi.NoteOnEvent(tick=13, channel=0, data=[30, 78]),\n",
      "   midi.NoteOffEvent(tick=9, channel=0, data=[58, 0]),\n",
      "   midi.NoteOnEvent(tick=11, channel=0, data=[45, 246]),\n",
      "   midi.NoteOffEvent(tick=17, channel=0, data=[1, 0]),\n",
      "   midi.NoteOffEvent(tick=1, channel=0, data=[32, 0]),\n",
      "   midi.NoteOnEvent(tick=12, channel=0, data=[98, 6]),\n",
      "   midi.NoteOffEvent(tick=2, channel=0, data=[24, 0]),\n",
      "   midi.NoteOnEvent(tick=17, channel=0, data=[12, 132]),\n",
      "   midi.NoteOnEvent(tick=0, channel=0, data=[51, 49]),\n",
      "   midi.NoteOffEvent(tick=6, channel=0, data=[99, 0]),\n",
      "   midi.NoteOnEvent(tick=29, channel=0, data=[68, 27]),\n",
      "   midi.NoteOffEvent(tick=27, channel=0, data=[74, 0]),\n",
      "   midi.NoteOnEvent(tick=0, channel=0, data=[108, 132]),\n",
      "   midi.NoteOnEvent(tick=6, channel=0, data=[76, 228]),\n",
      "   midi.NoteOffEvent(tick=6, channel=0, data=[104, 0]),\n",
      "   midi.NoteOffEvent(tick=2, channel=0, data=[56, 0]),\n",
      "   midi.NoteOffEvent(tick=71, channel=0, data=[76, 0]),\n",
      "   midi.NoteOffEvent(tick=12, channel=0, data=[40, 0]),\n",
      "   midi.NoteOffEvent(tick=36, channel=0, data=[70, 0]),\n",
      "   midi.NoteOffEvent(tick=38, channel=0, data=[77, 0]),\n",
      "   midi.NoteOffEvent(tick=30, channel=0, data=[21, 0]),\n",
      "   midi.NoteOffEvent(tick=7, channel=0, data=[108, 0]),\n",
      "   midi.NoteOffEvent(tick=6, channel=0, data=[88, 0]),\n",
      "   midi.NoteOffEvent(tick=26, channel=0, data=[29, 0]),\n",
      "   midi.NoteOffEvent(tick=9, channel=0, data=[93, 0]),\n",
      "   midi.NoteOffEvent(tick=50, channel=0, data=[43, 0]),\n",
      "   midi.NoteOffEvent(tick=12, channel=0, data=[96, 0]),\n",
      "   midi.NoteOffEvent(tick=55, channel=0, data=[83, 0]),\n",
      "   midi.NoteOffEvent(tick=12, channel=0, data=[27, 0]),\n",
      "   midi.NoteOffEvent(tick=1, channel=0, data=[33, 0]),\n",
      "   midi.NoteOffEvent(tick=37, channel=0, data=[100, 0]),\n",
      "   midi.NoteOffEvent(tick=2, channel=0, data=[14, 0]),\n",
      "   midi.NoteOffEvent(tick=49, channel=0, data=[62, 0]),\n",
      "   midi.NoteOffEvent(tick=16, channel=0, data=[41, 0]),\n",
      "   midi.NoteOffEvent(tick=29, channel=0, data=[35, 0]),\n",
      "   midi.NoteOffEvent(tick=62, channel=0, data=[68, 0]),\n",
      "   midi.NoteOffEvent(tick=5, channel=0, data=[59, 0]),\n",
      "   midi.NoteOffEvent(tick=10, channel=0, data=[51, 0]),\n",
      "   midi.NoteOffEvent(tick=19, channel=0, data=[98, 0]),\n",
      "   midi.NoteOffEvent(tick=41, channel=0, data=[113, 0]),\n",
      "   midi.NoteOffEvent(tick=71, channel=0, data=[102, 0]),\n",
      "   midi.NoteOffEvent(tick=94, channel=0, data=[45, 0]),\n",
      "   midi.NoteOffEvent(tick=23, channel=0, data=[30, 0]),\n",
      "   midi.NoteOffEvent(tick=57, channel=0, data=[12, 0]),\n",
      "   midi.EndOfTrackEvent(tick=0, data=[])]),\n",
      " midi.Track(\\\n",
      "  [midi.SetTempoEvent(tick=0, data=[8, 227, 124]),\n",
      "   midi.ProgramChangeEvent(tick=0, channel=0, data=[6]),\n",
      "   midi.NoteOnEvent(tick=30, channel=0, data=[41, 197]),\n",
      "   midi.NoteOnEvent(tick=5, channel=0, data=[68, 40]),\n",
      "   midi.NoteOnEvent(tick=7, channel=0, data=[85, 39]),\n",
      "   midi.NoteOnEvent(tick=8, channel=0, data=[63, 201]),\n",
      "   midi.NoteOnEvent(tick=18, channel=0, data=[113, 154]),\n",
      "   midi.NoteOnEvent(tick=11, channel=0, data=[108, 45]),\n",
      "   midi.NoteOnEvent(tick=4, channel=0, data=[2, 128]),\n",
      "   midi.NoteOnEvent(tick=16, channel=0, data=[93, 104]),\n",
      "   midi.NoteOnEvent(tick=5, channel=0, data=[113, 16]),\n",
      "   midi.NoteOnEvent(tick=8, channel=0, data=[124, 43]),\n",
      "   midi.NoteOnEvent(tick=64, channel=0, data=[39, 205]),\n",
      "   midi.NoteOnEvent(tick=32, channel=0, data=[61, 183]),\n",
      "   midi.NoteOnEvent(tick=12, channel=0, data=[26, 52]),\n",
      "   midi.NoteOnEvent(tick=6, channel=0, data=[43, 47]),\n",
      "   midi.NoteOffEvent(tick=61, channel=0, data=[108, 0]),\n",
      "   midi.NoteOnEvent(tick=31, channel=0, data=[63, 20]),\n",
      "   midi.NoteOnEvent(tick=17, channel=0, data=[84, 26]),\n",
      "   midi.NoteOnEvent(tick=13, channel=0, data=[55, 114]),\n",
      "   midi.NoteOnEvent(tick=9, channel=0, data=[86, 2]),\n",
      "   midi.NoteOnEvent(tick=17, channel=0, data=[105, 56]),\n",
      "   midi.NoteOffEvent(tick=22, channel=0, data=[113, 0]),\n",
      "   midi.NoteOnEvent(tick=42, channel=0, data=[81, 123]),\n",
      "   midi.NoteOnEvent(tick=0, channel=0, data=[115, 59]),\n",
      "   midi.NoteOnEvent(tick=24, channel=0, data=[45, 45]),\n",
      "   midi.NoteOnEvent(tick=31, channel=0, data=[41, 186]),\n",
      "   midi.NoteOffEvent(tick=22, channel=0, data=[105, 0]),\n",
      "   midi.NoteOffEvent(tick=1, channel=0, data=[85, 0]),\n",
      "   midi.NoteOffEvent(tick=29, channel=0, data=[63, 0]),\n",
      "   midi.NoteOnEvent(tick=1, channel=0, data=[29, 110]),\n",
      "   midi.NoteOnEvent(tick=8, channel=0, data=[56, 154]),\n",
      "   midi.NoteOnEvent(tick=2, channel=0, data=[58, 252]),\n",
      "   midi.NoteOnEvent(tick=7, channel=0, data=[58, 223]),\n",
      "   midi.NoteOnEvent(tick=27, channel=0, data=[18, 139]),\n",
      "   midi.NoteOffEvent(tick=11, channel=0, data=[26, 0]),\n",
      "   midi.NoteOffEvent(tick=13, channel=0, data=[115, 0]),\n",
      "   midi.NoteOnEvent(tick=20, channel=0, data=[22, 28]),\n",
      "   midi.NoteOffEvent(tick=6, channel=0, data=[41, 0]),\n",
      "   midi.NoteOnEvent(tick=10, channel=0, data=[90, 36]),\n",
      "   midi.NoteOnEvent(tick=10, channel=0, data=[106, 213]),\n",
      "   midi.NoteOffEvent(tick=25, channel=0, data=[39, 0]),\n",
      "   midi.NoteOnEvent(tick=0, channel=0, data=[65, 19]),\n",
      "   midi.NoteOffEvent(tick=30, channel=0, data=[61, 0]),\n",
      "   midi.NoteOnEvent(tick=2, channel=0, data=[78, 36]),\n",
      "   midi.NoteOnEvent(tick=27, channel=0, data=[99, 14]),\n",
      "   midi.NoteOnEvent(tick=17, channel=0, data=[42, 105]),\n",
      "   midi.NoteOffEvent(tick=26, channel=0, data=[124, 0]),\n",
      "   midi.NoteOnEvent(tick=0, channel=0, data=[45, 11]),\n",
      "   midi.NoteOnEvent(tick=21, channel=0, data=[68, 203]),\n",
      "   midi.NoteOnEvent(tick=17, channel=0, data=[67, 100]),\n",
      "   midi.NoteOnEvent(tick=19, channel=0, data=[115, 98]),\n",
      "   midi.NoteOnEvent(tick=10, channel=0, data=[110, 97]),\n",
      "   midi.NoteOffEvent(tick=27, channel=0, data=[2, 0]),\n",
      "   midi.NoteOnEvent(tick=6, channel=0, data=[115, 133]),\n",
      "   midi.NoteOffEvent(tick=1, channel=0, data=[65, 0]),\n",
      "   midi.NoteOffEvent(tick=17, channel=0, data=[93, 0]),\n",
      "   midi.NoteOnEvent(tick=37, channel=0, data=[38, 216]),\n",
      "   midi.NoteOnEvent(tick=4, channel=0, data=[114, 106]),\n",
      "   midi.NoteOffEvent(tick=19, channel=0, data=[90, 0]),\n",
      "   midi.NoteOffEvent(tick=9, channel=0, data=[29, 0]),\n",
      "   midi.NoteOffEvent(tick=3, channel=0, data=[99, 0]),\n",
      "   midi.NoteOffEvent(tick=14, channel=0, data=[86, 0]),\n",
      "   midi.NoteOffEvent(tick=57, channel=0, data=[84, 0]),\n",
      "   midi.NoteOffEvent(tick=45, channel=0, data=[114, 0]),\n",
      "   midi.NoteOffEvent(tick=9, channel=0, data=[43, 0]),\n",
      "   midi.NoteOffEvent(tick=1, channel=0, data=[78, 0]),\n",
      "   midi.NoteOffEvent(tick=7, channel=0, data=[22, 0]),\n",
      "   midi.NoteOffEvent(tick=83, channel=0, data=[115, 0]),\n",
      "   midi.NoteOffEvent(tick=3, channel=0, data=[106, 0]),\n",
      "   midi.NoteOffEvent(tick=80, channel=0, data=[81, 0]),\n",
      "   midi.NoteOffEvent(tick=26, channel=0, data=[55, 0]),\n",
      "   midi.NoteOffEvent(tick=59, channel=0, data=[45, 0]),\n",
      "   midi.NoteOffEvent(tick=58, channel=0, data=[42, 0]),\n",
      "   midi.NoteOffEvent(tick=45, channel=0, data=[58, 0]),\n",
      "   midi.NoteOffEvent(tick=12, channel=0, data=[67, 0]),\n",
      "   midi.NoteOffEvent(tick=28, channel=0, data=[56, 0]),\n",
      "   midi.NoteOffEvent(tick=19, channel=0, data=[110, 0]),\n",
      "   midi.NoteOffEvent(tick=40, channel=0, data=[18, 0]),\n",
      "   midi.NoteOffEvent(tick=107, channel=0, data=[38, 0]),\n",
      "   midi.NoteOffEvent(tick=61, channel=0, data=[68, 0]),\n",
      "   midi.EndOfTrackEvent(tick=0, data=[])]),\n",
      " midi.Track(\\\n",
      "  [midi.SetTempoEvent(tick=0, data=[8, 227, 124]),\n",
      "   midi.ProgramChangeEvent(tick=0, channel=0, data=[7]),\n",
      "   midi.NoteOnEvent(tick=4, channel=0, data=[77, 235]),\n",
      "   midi.NoteOnEvent(tick=0, channel=0, data=[5, 211]),\n",
      "   midi.NoteOnEvent(tick=32, channel=0, data=[46, 233]),\n",
      "   midi.NoteOnEvent(tick=17, channel=0, data=[37, 252]),\n",
      "   midi.NoteOnEvent(tick=15, channel=0, data=[56, 255]),\n",
      "   midi.NoteOnEvent(tick=11, channel=0, data=[106, 111]),\n",
      "   midi.NoteOnEvent(tick=18, channel=0, data=[55, 59]),\n",
      "   midi.NoteOnEvent(tick=5, channel=0, data=[21, 67]),\n",
      "   midi.NoteOnEvent(tick=30, channel=0, data=[26, 150]),\n",
      "   midi.NoteOnEvent(tick=8, channel=0, data=[95, 4]),\n",
      "   midi.NoteOffEvent(tick=23, channel=0, data=[26, 0]),\n",
      "   midi.NoteOnEvent(tick=0, channel=0, data=[62, 131]),\n",
      "   midi.NoteOffEvent(tick=5, channel=0, data=[77, 0]),\n",
      "   midi.NoteOffEvent(tick=12, channel=0, data=[21, 0]),\n",
      "   midi.NoteOnEvent(tick=3, channel=0, data=[92, 225]),\n",
      "   midi.NoteOnEvent(tick=14, channel=0, data=[96, 63]),\n",
      "   midi.NoteOnEvent(tick=8, channel=0, data=[81, 180]),\n",
      "   midi.NoteOnEvent(tick=21, channel=0, data=[75, 120]),\n",
      "   midi.NoteOnEvent(tick=30, channel=0, data=[62, 125]),\n",
      "   midi.NoteOnEvent(tick=0, channel=0, data=[0, 117]),\n",
      "   midi.NoteOnEvent(tick=12, channel=0, data=[42, 137]),\n",
      "   midi.NoteOnEvent(tick=68, channel=0, data=[26, 1]),\n",
      "   midi.NoteOnEvent(tick=1, channel=0, data=[53, 177]),\n",
      "   midi.NoteOnEvent(tick=9, channel=0, data=[22, 145]),\n",
      "   midi.NoteOnEvent(tick=6, channel=0, data=[103, 91]),\n",
      "   midi.NoteOnEvent(tick=23, channel=0, data=[108, 144]),\n",
      "   midi.NoteOnEvent(tick=15, channel=0, data=[84, 192]),\n",
      "   midi.NoteOnEvent(tick=61, channel=0, data=[43, 95]),\n",
      "   midi.NoteOffEvent(tick=1, channel=0, data=[5, 0]),\n",
      "   midi.NoteOnEvent(tick=2, channel=0, data=[108, 8]),\n",
      "   midi.NoteOffEvent(tick=2, channel=0, data=[96, 0]),\n",
      "   midi.NoteOnEvent(tick=17, channel=0, data=[77, 117]),\n",
      "   midi.NoteOnEvent(tick=14, channel=0, data=[86, 15]),\n",
      "   midi.NoteOnEvent(tick=29, channel=0, data=[19, 85]),\n",
      "   midi.NoteOffEvent(tick=10, channel=0, data=[19, 0]),\n",
      "   midi.NoteOffEvent(tick=3, channel=0, data=[22, 0]),\n",
      "   midi.NoteOffEvent(tick=2, channel=0, data=[108, 0]),\n",
      "   midi.NoteOnEvent(tick=0, channel=0, data=[67, 4]),\n",
      "   midi.NoteOnEvent(tick=4, channel=0, data=[49, 117]),\n",
      "   midi.NoteOffEvent(tick=2, channel=0, data=[49, 0]),\n",
      "   midi.NoteOnEvent(tick=5, channel=0, data=[68, 233]),\n",
      "   midi.NoteOffEvent(tick=10, channel=0, data=[81, 0]),\n",
      "   midi.NoteOnEvent(tick=1, channel=0, data=[56, 98]),\n",
      "   midi.NoteOnEvent(tick=1, channel=0, data=[51, 123]),\n",
      "   midi.NoteOffEvent(tick=12, channel=0, data=[56, 0]),\n",
      "   midi.NoteOnEvent(tick=2, channel=0, data=[9, 97]),\n",
      "   midi.NoteOnEvent(tick=11, channel=0, data=[57, 209]),\n",
      "   midi.NoteOnEvent(tick=18, channel=0, data=[41, 244]),\n",
      "   midi.NoteOffEvent(tick=12, channel=0, data=[0, 0]),\n",
      "   midi.NoteOnEvent(tick=7, channel=0, data=[56, 191]),\n",
      "   midi.NoteOnEvent(tick=14, channel=0, data=[4, 245]),\n",
      "   midi.NoteOffEvent(tick=16, channel=0, data=[95, 0]),\n",
      "   midi.NoteOnEvent(tick=2, channel=0, data=[101, 20]),\n",
      "   midi.NoteOnEvent(tick=12, channel=0, data=[118, 78]),\n",
      "   midi.NoteOffEvent(tick=1, channel=0, data=[55, 0]),\n",
      "   midi.NoteOnEvent(tick=8, channel=0, data=[88, 4]),\n",
      "   midi.NoteOnEvent(tick=6, channel=0, data=[97, 28]),\n",
      "   midi.NoteOffEvent(tick=5, channel=0, data=[37, 0]),\n",
      "   midi.NoteOffEvent(tick=3, channel=0, data=[42, 0]),\n",
      "   midi.NoteOnEvent(tick=7, channel=0, data=[6, 3]),\n",
      "   midi.NoteOffEvent(tick=10, channel=0, data=[62, 0]),\n",
      "   midi.NoteOffEvent(tick=4, channel=0, data=[88, 0]),\n",
      "   midi.NoteOnEvent(tick=1, channel=0, data=[1, 7]),\n",
      "   midi.NoteOnEvent(tick=22, channel=0, data=[90, 68]),\n",
      "   midi.NoteOffEvent(tick=10, channel=0, data=[57, 0]),\n",
      "   midi.NoteOnEvent(tick=3, channel=0, data=[97, 243]),\n",
      "   midi.NoteOnEvent(tick=0, channel=0, data=[96, 123]),\n",
      "   midi.NoteOffEvent(tick=2, channel=0, data=[9, 0]),\n",
      "   midi.NoteOnEvent(tick=6, channel=0, data=[5, 85]),\n",
      "   midi.NoteOffEvent(tick=4, channel=0, data=[106, 0]),\n",
      "   midi.NoteOffEvent(tick=7, channel=0, data=[75, 0]),\n",
      "   midi.NoteOnEvent(tick=5, channel=0, data=[11, 153]),\n",
      "   midi.NoteOnEvent(tick=13, channel=0, data=[33, 96]),\n",
      "   midi.NoteOnEvent(tick=2, channel=0, data=[120, 42]),\n",
      "   midi.NoteOnEvent(tick=4, channel=0, data=[115, 54]),\n",
      "   midi.NoteOffEvent(tick=8, channel=0, data=[120, 0]),\n",
      "   midi.NoteOnEvent(tick=5, channel=0, data=[94, 185]),\n",
      "   midi.NoteOnEvent(tick=0, channel=0, data=[50, 176]),\n",
      "   midi.NoteOnEvent(tick=12, channel=0, data=[88, 29]),\n",
      "   midi.NoteOffEvent(tick=3, channel=0, data=[6, 0]),\n",
      "   midi.NoteOnEvent(tick=39, channel=0, data=[73, 59]),\n",
      "   midi.NoteOnEvent(tick=0, channel=0, data=[79, 108]),\n",
      "   midi.NoteOnEvent(tick=8, channel=0, data=[59, 158]),\n",
      "   midi.NoteOnEvent(tick=0, channel=0, data=[112, 210]),\n",
      "   midi.NoteOffEvent(tick=21, channel=0, data=[112, 0]),\n",
      "   midi.NoteOnEvent(tick=8, channel=0, data=[91, 237]),\n",
      "   midi.NoteOnEvent(tick=16, channel=0, data=[11, 121]),\n",
      "   midi.NoteOnEvent(tick=20, channel=0, data=[73, 160]),\n",
      "   midi.NoteOffEvent(tick=16, channel=0, data=[46, 0]),\n",
      "   midi.NoteOnEvent(tick=3, channel=0, data=[75, 168]),\n",
      "   midi.NoteOffEvent(tick=1, channel=0, data=[96, 0]),\n",
      "   midi.NoteOffEvent(tick=14, channel=0, data=[51, 0]),\n",
      "   midi.NoteOnEvent(tick=12, channel=0, data=[90, 93]),\n",
      "   midi.NoteOnEvent(tick=1, channel=0, data=[37, 120]),\n",
      "   midi.NoteOnEvent(tick=0, channel=0, data=[30, 180]),\n",
      "   midi.NoteOffEvent(tick=22, channel=0, data=[37, 0]),\n",
      "   midi.NoteOnEvent(tick=0, channel=0, data=[9, 199]),\n",
      "   midi.NoteOnEvent(tick=7, channel=0, data=[119, 53]),\n",
      "   midi.NoteOffEvent(tick=6, channel=0, data=[43, 0]),\n",
      "   midi.NoteOffEvent(tick=3, channel=0, data=[67, 0]),\n",
      "   midi.NoteOffEvent(tick=16, channel=0, data=[53, 0]),\n",
      "   midi.NoteOffEvent(tick=4, channel=0, data=[101, 0]),\n",
      "   midi.NoteOffEvent(tick=6, channel=0, data=[73, 0]),\n",
      "   midi.NoteOffEvent(tick=30, channel=0, data=[90, 0]),\n",
      "   midi.NoteOffEvent(tick=14, channel=0, data=[41, 0]),\n",
      "   midi.NoteOffEvent(tick=15, channel=0, data=[92, 0]),\n",
      "   midi.NoteOffEvent(tick=9, channel=0, data=[118, 0]),\n",
      "   midi.NoteOffEvent(tick=15, channel=0, data=[79, 0]),\n",
      "   midi.NoteOffEvent(tick=29, channel=0, data=[30, 0]),\n",
      "   midi.NoteOffEvent(tick=15, channel=0, data=[26, 0]),\n",
      "   midi.NoteOffEvent(tick=3, channel=0, data=[5, 0]),\n",
      "   midi.NoteOffEvent(tick=1, channel=0, data=[4, 0]),\n",
      "   midi.NoteOffEvent(tick=51, channel=0, data=[50, 0]),\n",
      "   midi.NoteOffEvent(tick=4, channel=0, data=[91, 0]),\n",
      "   midi.NoteOffEvent(tick=23, channel=0, data=[77, 0]),\n",
      "   midi.NoteOffEvent(tick=50, channel=0, data=[103, 0]),\n",
      "   midi.NoteOffEvent(tick=22, channel=0, data=[1, 0]),\n",
      "   midi.NoteOffEvent(tick=24, channel=0, data=[84, 0]),\n",
      "   midi.NoteOffEvent(tick=1, channel=0, data=[88, 0]),\n",
      "   midi.NoteOffEvent(tick=13, channel=0, data=[59, 0]),\n",
      "   midi.NoteOffEvent(tick=69, channel=0, data=[9, 0]),\n",
      "   midi.NoteOffEvent(tick=3, channel=0, data=[86, 0]),\n",
      "   midi.NoteOffEvent(tick=4, channel=0, data=[68, 0]),\n",
      "   midi.NoteOffEvent(tick=48, channel=0, data=[11, 0]),\n",
      "   midi.NoteOffEvent(tick=3, channel=0, data=[56, 0]),\n",
      "   midi.NoteOffEvent(tick=43, channel=0, data=[119, 0]),\n",
      "   midi.NoteOffEvent(tick=52, channel=0, data=[97, 0]),\n",
      "   midi.NoteOffEvent(tick=13, channel=0, data=[33, 0]),\n",
      "   midi.NoteOffEvent(tick=91, channel=0, data=[115, 0]),\n",
      "   midi.NoteOffEvent(tick=46, channel=0, data=[94, 0]),\n",
      "   midi.NoteOffEvent(tick=204, channel=0, data=[75, 0]),\n",
      "   midi.EndOfTrackEvent(tick=0, data=[])]),\n",
      " midi.Track(\\\n",
      "  [midi.SetTempoEvent(tick=0, data=[8, 227, 124]),\n",
      "   midi.ProgramChangeEvent(tick=0, channel=0, data=[8]),\n",
      "   midi.NoteOnEvent(tick=4, channel=0, data=[47, 8]),\n",
      "   midi.NoteOnEvent(tick=2, channel=0, data=[104, 115]),\n",
      "   midi.NoteOnEvent(tick=1, channel=0, data=[79, 86]),\n",
      "   midi.NoteOnEvent(tick=1, channel=0, data=[44, 105]),\n",
      "   midi.NoteOnEvent(tick=55, channel=0, data=[111, 93]),\n",
      "   midi.NoteOnEvent(tick=6, channel=0, data=[98, 76]),\n",
      "   midi.NoteOnEvent(tick=28, channel=0, data=[123, 232]),\n",
      "   midi.NoteOnEvent(tick=7, channel=0, data=[24, 161]),\n",
      "   midi.NoteOnEvent(tick=15, channel=0, data=[10, 90]),\n",
      "   midi.NoteOnEvent(tick=0, channel=0, data=[65, 162]),\n",
      "   midi.NoteOffEvent(tick=19, channel=0, data=[104, 0]),\n",
      "   midi.NoteOnEvent(tick=0, channel=0, data=[21, 114]),\n",
      "   midi.NoteOnEvent(tick=17, channel=0, data=[63, 25]),\n",
      "   midi.NoteOnEvent(tick=36, channel=0, data=[59, 42]),\n",
      "   midi.NoteOffEvent(tick=3, channel=0, data=[79, 0]),\n",
      "   midi.NoteOnEvent(tick=11, channel=0, data=[92, 139]),\n",
      "   midi.NoteOnEvent(tick=2, channel=0, data=[16, 174]),\n",
      "   midi.NoteOnEvent(tick=0, channel=0, data=[59, 226]),\n",
      "   midi.NoteOnEvent(tick=13, channel=0, data=[45, 173]),\n",
      "   midi.NoteOnEvent(tick=6, channel=0, data=[31, 90]),\n",
      "   midi.NoteOnEvent(tick=9, channel=0, data=[33, 223]),\n",
      "   midi.NoteOffEvent(tick=2, channel=0, data=[10, 0]),\n",
      "   midi.NoteOffEvent(tick=0, channel=0, data=[16, 0]),\n",
      "   midi.NoteOnEvent(tick=0, channel=0, data=[23, 177]),\n",
      "   midi.NoteOnEvent(tick=4, channel=0, data=[92, 212]),\n",
      "   midi.NoteOnEvent(tick=20, channel=0, data=[56, 83]),\n",
      "   midi.NoteOnEvent(tick=4, channel=0, data=[34, 134]),\n",
      "   midi.NoteOnEvent(tick=3, channel=0, data=[80, 123]),\n",
      "   midi.NoteOffEvent(tick=14, channel=0, data=[59, 0]),\n",
      "   midi.NoteOffEvent(tick=3, channel=0, data=[92, 0]),\n",
      "   midi.NoteOnEvent(tick=5, channel=0, data=[116, 165]),\n",
      "   midi.NoteOnEvent(tick=9, channel=0, data=[91, 95]),\n",
      "   midi.NoteOffEvent(tick=29, channel=0, data=[56, 0]),\n",
      "   midi.NoteOnEvent(tick=13, channel=0, data=[33, 101]),\n",
      "   midi.NoteOnEvent(tick=4, channel=0, data=[90, 23]),\n",
      "   midi.NoteOnEvent(tick=4, channel=0, data=[46, 215]),\n",
      "   midi.NoteOnEvent(tick=0, channel=0, data=[45, 34]),\n",
      "   midi.NoteOnEvent(tick=23, channel=0, data=[35, 140]),\n",
      "   midi.NoteOffEvent(tick=14, channel=0, data=[90, 0]),\n",
      "   midi.NoteOffEvent(tick=38, channel=0, data=[98, 0]),\n",
      "   midi.NoteOnEvent(tick=18, channel=0, data=[118, 34]),\n",
      "   midi.NoteOnEvent(tick=18, channel=0, data=[100, 218]),\n",
      "   midi.NoteOffEvent(tick=9, channel=0, data=[111, 0]),\n",
      "   midi.NoteOnEvent(tick=3, channel=0, data=[14, 48]),\n",
      "   midi.NoteOnEvent(tick=1, channel=0, data=[117, 139]),\n",
      "   midi.NoteOnEvent(tick=2, channel=0, data=[96, 120]),\n",
      "   midi.NoteOnEvent(tick=6, channel=0, data=[82, 153]),\n",
      "   midi.NoteOnEvent(tick=10, channel=0, data=[107, 138]),\n",
      "   midi.NoteOnEvent(tick=0, channel=0, data=[17, 242]),\n",
      "   midi.NoteOffEvent(tick=9, channel=0, data=[80, 0]),\n",
      "   midi.NoteOnEvent(tick=0, channel=0, data=[104, 254]),\n",
      "   midi.NoteOffEvent(tick=3, channel=0, data=[44, 0]),\n",
      "   midi.NoteOnEvent(tick=7, channel=0, data=[87, 14]),\n",
      "   midi.NoteOffEvent(tick=42, channel=0, data=[21, 0]),\n",
      "   midi.NoteOnEvent(tick=5, channel=0, data=[103, 231]),\n",
      "   midi.NoteOnEvent(tick=4, channel=0, data=[112, 103]),\n",
      "   midi.NoteOffEvent(tick=3, channel=0, data=[123, 0]),\n",
      "   midi.NoteOffEvent(tick=3, channel=0, data=[112, 0]),\n",
      "   midi.NoteOnEvent(tick=4, channel=0, data=[107, 28]),\n",
      "   midi.NoteOnEvent(tick=4, channel=0, data=[46, 220]),\n",
      "   midi.NoteOnEvent(tick=20, channel=0, data=[22, 13]),\n",
      "   midi.NoteOnEvent(tick=30, channel=0, data=[6, 123]),\n",
      "   midi.NoteOffEvent(tick=19, channel=0, data=[33, 0]),\n",
      "   midi.NoteOnEvent(tick=16, channel=0, data=[14, 211]),\n",
      "   midi.NoteOnEvent(tick=0, channel=0, data=[127, 83]),\n",
      "   midi.NoteOnEvent(tick=1, channel=0, data=[36, 197]),\n",
      "   midi.NoteOnEvent(tick=5, channel=0, data=[97, 124]),\n",
      "   midi.NoteOffEvent(tick=3, channel=0, data=[31, 0]),\n",
      "   midi.NoteOnEvent(tick=0, channel=0, data=[64, 189]),\n",
      "   midi.NoteOnEvent(tick=2, channel=0, data=[51, 117]),\n",
      "   midi.NoteOnEvent(tick=4, channel=0, data=[46, 139]),\n",
      "   midi.NoteOnEvent(tick=0, channel=0, data=[83, 106]),\n",
      "   midi.NoteOnEvent(tick=43, channel=0, data=[66, 147]),\n",
      "   midi.NoteOffEvent(tick=4, channel=0, data=[64, 0]),\n",
      "   midi.NoteOffEvent(tick=12, channel=0, data=[118, 0]),\n",
      "   midi.NoteOnEvent(tick=5, channel=0, data=[88, 20]),\n",
      "   midi.NoteOffEvent(tick=4, channel=0, data=[35, 0]),\n",
      "   midi.NoteOnEvent(tick=5, channel=0, data=[114, 235]),\n",
      "   midi.NoteOnEvent(tick=2, channel=0, data=[67, 110]),\n",
      "   midi.NoteOffEvent(tick=8, channel=0, data=[66, 0]),\n",
      "   midi.NoteOnEvent(tick=3, channel=0, data=[20, 82]),\n",
      "   midi.NoteOnEvent(tick=11, channel=0, data=[68, 241]),\n",
      "   midi.NoteOnEvent(tick=14, channel=0, data=[97, 186]),\n",
      "   midi.NoteOffEvent(tick=26, channel=0, data=[96, 0]),\n",
      "   midi.NoteOffEvent(tick=19, channel=0, data=[91, 0]),\n",
      "   midi.NoteOffEvent(tick=15, channel=0, data=[63, 0]),\n",
      "   midi.NoteOnEvent(tick=12, channel=0, data=[60, 175]),\n",
      "   midi.NoteOnEvent(tick=17, channel=0, data=[115, 146]),\n",
      "   midi.NoteOnEvent(tick=2, channel=0, data=[118, 51]),\n",
      "   midi.NoteOnEvent(tick=48, channel=0, data=[119, 240]),\n",
      "   midi.NoteOnEvent(tick=7, channel=0, data=[119, 178]),\n",
      "   midi.NoteOnEvent(tick=0, channel=0, data=[86, 39]),\n",
      "   midi.NoteOffEvent(tick=2, channel=0, data=[20, 0]),\n",
      "   midi.NoteOffEvent(tick=4, channel=0, data=[34, 0]),\n",
      "   midi.NoteOnEvent(tick=0, channel=0, data=[69, 204]),\n",
      "   midi.NoteOnEvent(tick=1, channel=0, data=[111, 233]),\n",
      "   midi.NoteOffEvent(tick=13, channel=0, data=[23, 0]),\n",
      "   midi.NoteOnEvent(tick=3, channel=0, data=[9, 109]),\n",
      "   midi.NoteOnEvent(tick=0, channel=0, data=[74, 6]),\n",
      "   midi.NoteOffEvent(tick=2, channel=0, data=[47, 0]),\n",
      "   midi.NoteOnEvent(tick=4, channel=0, data=[7, 186]),\n",
      "   midi.NoteOnEvent(tick=11, channel=0, data=[118, 172]),\n",
      "   midi.NoteOffEvent(tick=7, channel=0, data=[65, 0]),\n",
      "   midi.NoteOnEvent(tick=2, channel=0, data=[17, 146]),\n",
      "   midi.NoteOffEvent(tick=13, channel=0, data=[22, 0]),\n",
      "   midi.NoteOffEvent(tick=5, channel=0, data=[24, 0]),\n",
      "   midi.NoteOnEvent(tick=0, channel=0, data=[48, 241]),\n",
      "   midi.NoteOffEvent(tick=3, channel=0, data=[46, 0]),\n",
      "   midi.NoteOffEvent(tick=9, channel=0, data=[17, 0]),\n",
      "   midi.NoteOffEvent(tick=20, channel=0, data=[36, 0]),\n",
      "   midi.NoteOffEvent(tick=3, channel=0, data=[88, 0]),\n",
      "   midi.NoteOffEvent(tick=34, channel=0, data=[104, 0]),\n",
      "   midi.NoteOffEvent(tick=12, channel=0, data=[51, 0]),\n",
      "   midi.NoteOffEvent(tick=11, channel=0, data=[116, 0]),\n",
      "   midi.NoteOffEvent(tick=1, channel=0, data=[69, 0]),\n",
      "   midi.NoteOffEvent(tick=15, channel=0, data=[119, 0]),\n",
      "   midi.NoteOffEvent(tick=20, channel=0, data=[87, 0]),\n",
      "   midi.NoteOffEvent(tick=12, channel=0, data=[68, 0]),\n",
      "   midi.NoteOffEvent(tick=14, channel=0, data=[67, 0]),\n",
      "   midi.NoteOffEvent(tick=4, channel=0, data=[45, 0]),\n",
      "   midi.NoteOffEvent(tick=29, channel=0, data=[117, 0]),\n",
      "   midi.NoteOffEvent(tick=10, channel=0, data=[48, 0]),\n",
      "   midi.NoteOffEvent(tick=47, channel=0, data=[107, 0]),\n",
      "   midi.NoteOffEvent(tick=6, channel=0, data=[83, 0]),\n",
      "   midi.NoteOffEvent(tick=21, channel=0, data=[86, 0]),\n",
      "   midi.NoteOffEvent(tick=7, channel=0, data=[7, 0]),\n",
      "   midi.NoteOffEvent(tick=60, channel=0, data=[111, 0]),\n",
      "   midi.NoteOffEvent(tick=6, channel=0, data=[14, 0]),\n",
      "   midi.NoteOffEvent(tick=8, channel=0, data=[115, 0]),\n",
      "   midi.NoteOffEvent(tick=6, channel=0, data=[127, 0]),\n",
      "   midi.NoteOffEvent(tick=12, channel=0, data=[60, 0]),\n",
      "   midi.NoteOffEvent(tick=13, channel=0, data=[100, 0]),\n",
      "   midi.NoteOffEvent(tick=42, channel=0, data=[82, 0]),\n",
      "   midi.NoteOffEvent(tick=10, channel=0, data=[114, 0]),\n",
      "   midi.NoteOffEvent(tick=4, channel=0, data=[118, 0]),\n",
      "   midi.NoteOffEvent(tick=29, channel=0, data=[103, 0]),\n",
      "   midi.NoteOffEvent(tick=130, channel=0, data=[6, 0]),\n",
      "   midi.NoteOffEvent(tick=183, channel=0, data=[97, 0]),\n",
      "   midi.NoteOffEvent(tick=138, channel=0, data=[74, 0]),\n",
      "   midi.NoteOffEvent(tick=6, channel=0, data=[9, 0]),\n",
      "   midi.EndOfTrackEvent(tick=0, data=[])]),\n",
      " midi.Track(\\\n",
      "  [midi.SetTempoEvent(tick=0, data=[8, 227, 124]),\n",
      "   midi.ProgramChangeEvent(tick=0, channel=0, data=[9]),\n",
      "   midi.NoteOnEvent(tick=4, channel=0, data=[86, 207]),\n",
      "   midi.NoteOnEvent(tick=28, channel=0, data=[92, 97]),\n",
      "   midi.NoteOnEvent(tick=31, channel=0, data=[68, 233]),\n",
      "   midi.NoteOnEvent(tick=36, channel=0, data=[71, 82]),\n",
      "   midi.NoteOnEvent(tick=31, channel=0, data=[46, 186]),\n",
      "   midi.NoteOnEvent(tick=7, channel=0, data=[64, 4]),\n",
      "   midi.NoteOnEvent(tick=9, channel=0, data=[121, 63]),\n",
      "   midi.NoteOnEvent(tick=17, channel=0, data=[76, 131]),\n",
      "   midi.NoteOffEvent(tick=16, channel=0, data=[46, 0]),\n",
      "   midi.NoteOnEvent(tick=61, channel=0, data=[101, 243]),\n",
      "   midi.NoteOnEvent(tick=25, channel=0, data=[24, 169]),\n",
      "   midi.NoteOnEvent(tick=28, channel=0, data=[44, 191]),\n",
      "   midi.NoteOffEvent(tick=3, channel=0, data=[76, 0]),\n",
      "   midi.NoteOnEvent(tick=17, channel=0, data=[29, 34]),\n",
      "   midi.NoteOffEvent(tick=17, channel=0, data=[121, 0]),\n",
      "   midi.NoteOnEvent(tick=1, channel=0, data=[24, 157]),\n",
      "   midi.NoteOnEvent(tick=59, channel=0, data=[98, 66]),\n",
      "   midi.NoteOnEvent(tick=14, channel=0, data=[68, 60]),\n",
      "   midi.NoteOnEvent(tick=4, channel=0, data=[101, 48]),\n",
      "   midi.NoteOnEvent(tick=30, channel=0, data=[3, 207]),\n",
      "   midi.NoteOnEvent(tick=32, channel=0, data=[110, 156]),\n",
      "   midi.NoteOnEvent(tick=3, channel=0, data=[100, 168]),\n",
      "   midi.NoteOnEvent(tick=1, channel=0, data=[30, 134]),\n",
      "   midi.NoteOnEvent(tick=2, channel=0, data=[109, 153]),\n",
      "   midi.NoteOnEvent(tick=3, channel=0, data=[2, 215]),\n",
      "   midi.NoteOffEvent(tick=16, channel=0, data=[92, 0]),\n",
      "   midi.NoteOnEvent(tick=5, channel=0, data=[63, 95]),\n",
      "   midi.NoteOnEvent(tick=5, channel=0, data=[18, 160]),\n",
      "   midi.NoteOnEvent(tick=27, channel=0, data=[17, 142]),\n",
      "   midi.NoteOnEvent(tick=3, channel=0, data=[31, 152]),\n",
      "   midi.NoteOnEvent(tick=11, channel=0, data=[33, 17]),\n",
      "   midi.NoteOnEvent(tick=7, channel=0, data=[80, 94]),\n",
      "   midi.NoteOnEvent(tick=1, channel=0, data=[110, 174]),\n",
      "   midi.NoteOnEvent(tick=6, channel=0, data=[15, 25]),\n",
      "   midi.NoteOnEvent(tick=1, channel=0, data=[23, 242]),\n",
      "   midi.NoteOffEvent(tick=7, channel=0, data=[110, 0]),\n",
      "   midi.NoteOnEvent(tick=3, channel=0, data=[35, 220]),\n",
      "   midi.NoteOffEvent(tick=11, channel=0, data=[98, 0]),\n",
      "   midi.NoteOnEvent(tick=8, channel=0, data=[32, 183]),\n",
      "   midi.NoteOnEvent(tick=0, channel=0, data=[22, 123]),\n",
      "   midi.NoteOnEvent(tick=1, channel=0, data=[75, 52]),\n",
      "   midi.NoteOnEvent(tick=1, channel=0, data=[27, 239]),\n",
      "   midi.NoteOffEvent(tick=1, channel=0, data=[75, 0]),\n",
      "   midi.NoteOnEvent(tick=4, channel=0, data=[113, 79]),\n",
      "   midi.NoteOnEvent(tick=8, channel=0, data=[108, 65]),\n",
      "   midi.NoteOnEvent(tick=21, channel=0, data=[70, 233]),\n",
      "   midi.NoteOnEvent(tick=8, channel=0, data=[55, 14]),\n",
      "   midi.NoteOnEvent(tick=4, channel=0, data=[121, 222]),\n",
      "   midi.NoteOffEvent(tick=9, channel=0, data=[29, 0]),\n",
      "   midi.NoteOffEvent(tick=2, channel=0, data=[80, 0]),\n",
      "   midi.NoteOffEvent(tick=1, channel=0, data=[3, 0]),\n",
      "   midi.NoteOffEvent(tick=0, channel=0, data=[86, 0]),\n",
      "   midi.NoteOnEvent(tick=19, channel=0, data=[80, 54]),\n",
      "   midi.NoteOffEvent(tick=21, channel=0, data=[35, 0]),\n",
      "   midi.NoteOffEvent(tick=1, channel=0, data=[108, 0]),\n",
      "   midi.NoteOnEvent(tick=6, channel=0, data=[75, 237]),\n",
      "   midi.NoteOnEvent(tick=30, channel=0, data=[51, 47]),\n",
      "   midi.NoteOffEvent(tick=15, channel=0, data=[31, 0]),\n",
      "   midi.NoteOffEvent(tick=8, channel=0, data=[33, 0]),\n",
      "   midi.NoteOffEvent(tick=6, channel=0, data=[109, 0]),\n",
      "   midi.NoteOnEvent(tick=5, channel=0, data=[49, 37]),\n",
      "   midi.NoteOnEvent(tick=1, channel=0, data=[93, 1]),\n",
      "   midi.NoteOnEvent(tick=34, channel=0, data=[9, 214]),\n",
      "   midi.NoteOffEvent(tick=10, channel=0, data=[44, 0]),\n",
      "   midi.NoteOffEvent(tick=28, channel=0, data=[68, 0]),\n",
      "   midi.NoteOffEvent(tick=56, channel=0, data=[22, 0]),\n",
      "   midi.NoteOnEvent(tick=0, channel=0, data=[10, 125]),\n",
      "   midi.NoteOnEvent(tick=23, channel=0, data=[85, 246]),\n",
      "   midi.NoteOffEvent(tick=9, channel=0, data=[30, 0]),\n",
      "   midi.NoteOnEvent(tick=9, channel=0, data=[118, 179]),\n",
      "   midi.NoteOffEvent(tick=7, channel=0, data=[64, 0]),\n",
      "   midi.NoteOnEvent(tick=4, channel=0, data=[124, 39]),\n",
      "   midi.NoteOnEvent(tick=0, channel=0, data=[40, 5]),\n",
      "   midi.NoteOffEvent(tick=25, channel=0, data=[71, 0]),\n",
      "   midi.NoteOnEvent(tick=14, channel=0, data=[21, 64]),\n",
      "   midi.NoteOnEvent(tick=17, channel=0, data=[106, 29]),\n",
      "   midi.NoteOffEvent(tick=4, channel=0, data=[124, 0]),\n",
      "   midi.NoteOffEvent(tick=26, channel=0, data=[27, 0]),\n",
      "   midi.NoteOffEvent(tick=54, channel=0, data=[85, 0]),\n",
      "   midi.NoteOffEvent(tick=15, channel=0, data=[93, 0]),\n",
      "   midi.NoteOffEvent(tick=33, channel=0, data=[80, 0]),\n",
      "   midi.NoteOffEvent(tick=10, channel=0, data=[24, 0]),\n",
      "   midi.NoteOffEvent(tick=24, channel=0, data=[63, 0]),\n",
      "   midi.NoteOffEvent(tick=30, channel=0, data=[121, 0]),\n",
      "   midi.NoteOffEvent(tick=1, channel=0, data=[17, 0]),\n",
      "   midi.NoteOffEvent(tick=28, channel=0, data=[101, 0]),\n",
      "   midi.NoteOffEvent(tick=4, channel=0, data=[23, 0]),\n",
      "   midi.NoteOffEvent(tick=8, channel=0, data=[113, 0]),\n",
      "   midi.NoteOffEvent(tick=25, channel=0, data=[100, 0]),\n",
      "   midi.NoteOffEvent(tick=12, channel=0, data=[40, 0]),\n",
      "   midi.NoteOffEvent(tick=89, channel=0, data=[75, 0]),\n",
      "   midi.NoteOffEvent(tick=1, channel=0, data=[18, 0]),\n",
      "   midi.NoteOffEvent(tick=56, channel=0, data=[2, 0]),\n",
      "   midi.NoteOffEvent(tick=2, channel=0, data=[32, 0]),\n",
      "   midi.NoteOffEvent(tick=4, channel=0, data=[55, 0]),\n",
      "   midi.NoteOffEvent(tick=9, channel=0, data=[15, 0]),\n",
      "   midi.NoteOffEvent(tick=85, channel=0, data=[49, 0]),\n",
      "   midi.NoteOffEvent(tick=18, channel=0, data=[70, 0]),\n",
      "   midi.NoteOffEvent(tick=8, channel=0, data=[10, 0]),\n",
      "   midi.NoteOffEvent(tick=13, channel=0, data=[118, 0]),\n",
      "   midi.NoteOffEvent(tick=98, channel=0, data=[21, 0]),\n",
      "   midi.NoteOffEvent(tick=2, channel=0, data=[9, 0]),\n",
      "   midi.NoteOffEvent(tick=27, channel=0, data=[51, 0]),\n",
      "   midi.NoteOffEvent(tick=91, channel=0, data=[106, 0]),\n",
      "   midi.EndOfTrackEvent(tick=0, data=[])]),\n",
      " midi.Track(\\\n",
      "  [midi.SetTempoEvent(tick=0, data=[8, 227, 124]),\n",
      "   midi.ProgramChangeEvent(tick=0, channel=0, data=[10]),\n",
      "   midi.NoteOnEvent(tick=6, channel=0, data=[56, 56]),\n",
      "   midi.NoteOnEvent(tick=10, channel=0, data=[41, 25]),\n",
      "   midi.NoteOnEvent(tick=31, channel=0, data=[121, 100]),\n",
      "   midi.NoteOnEvent(tick=3, channel=0, data=[48, 126]),\n",
      "   midi.NoteOnEvent(tick=67, channel=0, data=[60, 74]),\n",
      "   midi.NoteOnEvent(tick=7, channel=0, data=[17, 56]),\n",
      "   midi.NoteOnEvent(tick=2, channel=0, data=[34, 57]),\n",
      "   midi.NoteOnEvent(tick=3, channel=0, data=[20, 95]),\n",
      "   midi.NoteOnEvent(tick=3, channel=0, data=[64, 108]),\n",
      "   midi.NoteOnEvent(tick=6, channel=0, data=[125, 241]),\n",
      "   midi.NoteOnEvent(tick=4, channel=0, data=[68, 78]),\n",
      "   midi.NoteOnEvent(tick=2, channel=0, data=[41, 70]),\n",
      "   midi.NoteOnEvent(tick=61, channel=0, data=[14, 83]),\n",
      "   midi.NoteOnEvent(tick=2, channel=0, data=[42, 136]),\n",
      "   midi.NoteOnEvent(tick=13, channel=0, data=[14, 247]),\n",
      "   midi.NoteOffEvent(tick=5, channel=0, data=[20, 0]),\n",
      "   midi.NoteOnEvent(tick=12, channel=0, data=[104, 240]),\n",
      "   midi.NoteOnEvent(tick=3, channel=0, data=[33, 45]),\n",
      "   midi.NoteOffEvent(tick=27, channel=0, data=[17, 0]),\n",
      "   midi.NoteOffEvent(tick=47, channel=0, data=[48, 0]),\n",
      "   midi.NoteOffEvent(tick=5, channel=0, data=[41, 0]),\n",
      "   midi.NoteOnEvent(tick=16, channel=0, data=[125, 191]),\n",
      "   midi.NoteOffEvent(tick=4, channel=0, data=[121, 0]),\n",
      "   midi.NoteOnEvent(tick=11, channel=0, data=[119, 47]),\n",
      "   midi.NoteOnEvent(tick=2, channel=0, data=[59, 65]),\n",
      "   midi.NoteOffEvent(tick=1, channel=0, data=[14, 0]),\n",
      "   midi.NoteOnEvent(tick=21, channel=0, data=[64, 122]),\n",
      "   midi.NoteOnEvent(tick=0, channel=0, data=[102, 149]),\n",
      "   midi.NoteOnEvent(tick=9, channel=0, data=[21, 98]),\n",
      "   midi.NoteOnEvent(tick=8, channel=0, data=[106, 159]),\n",
      "   midi.NoteOnEvent(tick=19, channel=0, data=[78, 173]),\n",
      "   midi.NoteOnEvent(tick=23, channel=0, data=[92, 187]),\n",
      "   midi.NoteOnEvent(tick=7, channel=0, data=[13, 234]),\n",
      "   midi.NoteOnEvent(tick=34, channel=0, data=[83, 96]),\n",
      "   midi.NoteOnEvent(tick=9, channel=0, data=[11, 68]),\n",
      "   midi.NoteOnEvent(tick=33, channel=0, data=[50, 234]),\n",
      "   midi.NoteOnEvent(tick=2, channel=0, data=[22, 20]),\n",
      "   midi.NoteOffEvent(tick=10, channel=0, data=[68, 0]),\n",
      "   midi.NoteOffEvent(tick=11, channel=0, data=[11, 0]),\n",
      "   midi.NoteOnEvent(tick=16, channel=0, data=[17, 62]),\n",
      "   midi.NoteOnEvent(tick=2, channel=0, data=[9, 137]),\n",
      "   midi.NoteOnEvent(tick=11, channel=0, data=[97, 80]),\n",
      "   midi.NoteOnEvent(tick=3, channel=0, data=[81, 72]),\n",
      "   midi.NoteOnEvent(tick=3, channel=0, data=[104, 0]),\n",
      "   midi.NoteOnEvent(tick=22, channel=0, data=[98, 210]),\n",
      "   midi.NoteOnEvent(tick=1, channel=0, data=[38, 147]),\n",
      "   midi.NoteOffEvent(tick=22, channel=0, data=[13, 0]),\n",
      "   midi.NoteOffEvent(tick=36, channel=0, data=[60, 0]),\n",
      "   midi.NoteOnEvent(tick=6, channel=0, data=[125, 183]),\n",
      "   midi.NoteOnEvent(tick=9, channel=0, data=[101, 97]),\n",
      "   midi.NoteOffEvent(tick=17, channel=0, data=[92, 0]),\n",
      "   midi.NoteOffEvent(tick=5, channel=0, data=[104, 0]),\n",
      "   midi.NoteOnEvent(tick=5, channel=0, data=[104, 112]),\n",
      "   midi.NoteOffEvent(tick=12, channel=0, data=[22, 0]),\n",
      "   midi.NoteOnEvent(tick=9, channel=0, data=[108, 107]),\n",
      "   midi.NoteOffEvent(tick=1, channel=0, data=[56, 0]),\n",
      "   midi.NoteOnEvent(tick=22, channel=0, data=[100, 232]),\n",
      "   midi.NoteOnEvent(tick=21, channel=0, data=[127, 93]),\n",
      "   midi.NoteOffEvent(tick=10, channel=0, data=[33, 0]),\n",
      "   midi.NoteOffEvent(tick=11, channel=0, data=[127, 0]),\n",
      "   midi.NoteOnEvent(tick=0, channel=0, data=[85, 170]),\n",
      "   midi.NoteOnEvent(tick=6, channel=0, data=[51, 179]),\n",
      "   midi.NoteOnEvent(tick=24, channel=0, data=[55, 57]),\n",
      "   midi.NoteOffEvent(tick=9, channel=0, data=[104, 0]),\n",
      "   midi.NoteOffEvent(tick=6, channel=0, data=[34, 0]),\n",
      "   midi.NoteOnEvent(tick=14, channel=0, data=[13, 64]),\n",
      "   midi.NoteOffEvent(tick=4, channel=0, data=[101, 0]),\n",
      "   midi.NoteOnEvent(tick=12, channel=0, data=[13, 152]),\n",
      "   midi.NoteOnEvent(tick=14, channel=0, data=[97, 131]),\n",
      "   midi.NoteOnEvent(tick=49, channel=0, data=[0, 130]),\n",
      "   midi.NoteOffEvent(tick=4, channel=0, data=[102, 0]),\n",
      "   midi.NoteOffEvent(tick=28, channel=0, data=[83, 0]),\n",
      "   midi.NoteOnEvent(tick=7, channel=0, data=[62, 76]),\n",
      "   midi.NoteOnEvent(tick=12, channel=0, data=[56, 57]),\n",
      "   midi.NoteOnEvent(tick=5, channel=0, data=[42, 158]),\n",
      "   midi.NoteOnEvent(tick=14, channel=0, data=[127, 235]),\n",
      "   midi.NoteOnEvent(tick=2, channel=0, data=[108, 104]),\n",
      "   midi.NoteOffEvent(tick=22, channel=0, data=[59, 0]),\n",
      "   midi.NoteOffEvent(tick=13, channel=0, data=[56, 0]),\n",
      "   midi.NoteOffEvent(tick=18, channel=0, data=[106, 0]),\n",
      "   midi.NoteOffEvent(tick=49, channel=0, data=[64, 0]),\n",
      "   midi.NoteOffEvent(tick=37, channel=0, data=[78, 0]),\n",
      "   midi.NoteOffEvent(tick=7, channel=0, data=[21, 0]),\n",
      "   midi.NoteOffEvent(tick=15, channel=0, data=[85, 0]),\n",
      "   midi.NoteOffEvent(tick=113, channel=0, data=[17, 0]),\n",
      "   midi.NoteOffEvent(tick=9, channel=0, data=[119, 0]),\n",
      "   midi.NoteOffEvent(tick=16, channel=0, data=[55, 0]),\n",
      "   midi.NoteOffEvent(tick=50, channel=0, data=[108, 0]),\n",
      "   midi.NoteOffEvent(tick=3, channel=0, data=[38, 0]),\n",
      "   midi.NoteOffEvent(tick=22, channel=0, data=[51, 0]),\n",
      "   midi.NoteOffEvent(tick=6, channel=0, data=[0, 0]),\n",
      "   midi.NoteOffEvent(tick=2, channel=0, data=[97, 0]),\n",
      "   midi.NoteOffEvent(tick=19, channel=0, data=[81, 0]),\n",
      "   midi.NoteOffEvent(tick=26, channel=0, data=[9, 0]),\n",
      "   midi.NoteOffEvent(tick=22, channel=0, data=[50, 0]),\n",
      "   midi.NoteOffEvent(tick=97, channel=0, data=[125, 0]),\n",
      "   midi.NoteOffEvent(tick=23, channel=0, data=[62, 0]),\n",
      "   midi.NoteOffEvent(tick=29, channel=0, data=[98, 0]),\n",
      "   midi.NoteOffEvent(tick=81, channel=0, data=[127, 0]),\n",
      "   midi.NoteOffEvent(tick=38, channel=0, data=[100, 0]),\n",
      "   midi.NoteOffEvent(tick=90, channel=0, data=[13, 0]),\n",
      "   midi.NoteOffEvent(tick=34, channel=0, data=[42, 0]),\n",
      "   midi.EndOfTrackEvent(tick=0, data=[])]),\n",
      " midi.Track(\\\n",
      "  [midi.SetTempoEvent(tick=0, data=[8, 227, 124]),\n",
      "   midi.ProgramChangeEvent(tick=0, channel=0, data=[11]),\n",
      "   midi.NoteOnEvent(tick=13, channel=0, data=[75, 37]),\n",
      "   midi.NoteOnEvent(tick=22, channel=0, data=[115, 81]),\n",
      "   midi.NoteOnEvent(tick=24, channel=0, data=[84, 187]),\n",
      "   midi.NoteOnEvent(tick=4, channel=0, data=[20, 14]),\n",
      "   midi.NoteOnEvent(tick=0, channel=0, data=[1, 70]),\n",
      "   midi.NoteOnEvent(tick=6, channel=0, data=[11, 153]),\n",
      "   midi.NoteOffEvent(tick=26, channel=0, data=[115, 0]),\n",
      "   midi.NoteOnEvent(tick=2, channel=0, data=[57, 202]),\n",
      "   midi.NoteOnEvent(tick=2, channel=0, data=[96, 181]),\n",
      "   midi.NoteOnEvent(tick=43, channel=0, data=[21, 70]),\n",
      "   midi.NoteOnEvent(tick=11, channel=0, data=[95, 165]),\n",
      "   midi.NoteOnEvent(tick=6, channel=0, data=[18, 61]),\n",
      "   midi.NoteOnEvent(tick=20, channel=0, data=[101, 160]),\n",
      "   midi.NoteOnEvent(tick=7, channel=0, data=[67, 121]),\n",
      "   midi.NoteOnEvent(tick=19, channel=0, data=[27, 203]),\n",
      "   midi.NoteOnEvent(tick=12, channel=0, data=[93, 91]),\n",
      "   midi.NoteOnEvent(tick=9, channel=0, data=[105, 233]),\n",
      "   midi.NoteOffEvent(tick=3, channel=0, data=[67, 0]),\n",
      "   midi.NoteOnEvent(tick=40, channel=0, data=[23, 90]),\n",
      "   midi.NoteOffEvent(tick=9, channel=0, data=[75, 0]),\n",
      "   midi.NoteOnEvent(tick=12, channel=0, data=[79, 38]),\n",
      "   midi.NoteOnEvent(tick=28, channel=0, data=[96, 72]),\n",
      "   midi.NoteOnEvent(tick=14, channel=0, data=[75, 137]),\n",
      "   midi.NoteOffEvent(tick=8, channel=0, data=[11, 0]),\n",
      "   midi.NoteOffEvent(tick=36, channel=0, data=[20, 0]),\n",
      "   midi.NoteOnEvent(tick=7, channel=0, data=[62, 218]),\n",
      "   midi.NoteOnEvent(tick=19, channel=0, data=[39, 232]),\n",
      "   midi.NoteOnEvent(tick=1, channel=0, data=[85, 109]),\n",
      "   midi.NoteOnEvent(tick=5, channel=0, data=[127, 223]),\n",
      "   midi.NoteOnEvent(tick=7, channel=0, data=[3, 216]),\n",
      "   midi.NoteOffEvent(tick=1, channel=0, data=[95, 0]),\n",
      "   midi.NoteOffEvent(tick=10, channel=0, data=[127, 0]),\n",
      "   midi.NoteOffEvent(tick=14, channel=0, data=[75, 0]),\n",
      "   midi.NoteOffEvent(tick=24, channel=0, data=[96, 0]),\n",
      "   midi.NoteOffEvent(tick=2, channel=0, data=[39, 0]),\n",
      "   midi.NoteOnEvent(tick=9, channel=0, data=[3, 172]),\n",
      "   midi.NoteOffEvent(tick=7, channel=0, data=[79, 0]),\n",
      "   midi.NoteOnEvent(tick=0, channel=0, data=[24, 48]),\n",
      "   midi.NoteOnEvent(tick=6, channel=0, data=[14, 129]),\n",
      "   midi.NoteOnEvent(tick=3, channel=0, data=[78, 87]),\n",
      "   midi.NoteOffEvent(tick=2, channel=0, data=[3, 0]),\n",
      "   midi.NoteOnEvent(tick=25, channel=0, data=[53, 121]),\n",
      "   midi.NoteOffEvent(tick=7, channel=0, data=[85, 0]),\n",
      "   midi.NoteOnEvent(tick=7, channel=0, data=[53, 152]),\n",
      "   midi.NoteOffEvent(tick=3, channel=0, data=[23, 0]),\n",
      "   midi.NoteOnEvent(tick=0, channel=0, data=[103, 155]),\n",
      "   midi.NoteOffEvent(tick=8, channel=0, data=[93, 0]),\n",
      "   midi.NoteOnEvent(tick=10, channel=0, data=[119, 231]),\n",
      "   midi.NoteOnEvent(tick=3, channel=0, data=[17, 169]),\n",
      "   midi.NoteOnEvent(tick=4, channel=0, data=[64, 162]),\n",
      "   midi.NoteOnEvent(tick=11, channel=0, data=[113, 72]),\n",
      "   midi.NoteOnEvent(tick=20, channel=0, data=[25, 31]),\n",
      "   midi.NoteOnEvent(tick=14, channel=0, data=[84, 255]),\n",
      "   midi.NoteOnEvent(tick=0, channel=0, data=[119, 210]),\n",
      "   midi.NoteOffEvent(tick=26, channel=0, data=[103, 0]),\n",
      "   midi.NoteOnEvent(tick=1, channel=0, data=[97, 57]),\n",
      "   midi.NoteOffEvent(tick=3, channel=0, data=[97, 0]),\n",
      "   midi.NoteOnEvent(tick=12, channel=0, data=[62, 110]),\n",
      "   midi.NoteOnEvent(tick=0, channel=0, data=[76, 64]),\n",
      "   midi.NoteOnEvent(tick=0, channel=0, data=[5, 125]),\n",
      "   midi.NoteOnEvent(tick=22, channel=0, data=[45, 34]),\n",
      "   midi.NoteOnEvent(tick=19, channel=0, data=[63, 217]),\n",
      "   midi.NoteOnEvent(tick=5, channel=0, data=[22, 178]),\n",
      "   midi.NoteOffEvent(tick=13, channel=0, data=[78, 0]),\n",
      "   midi.NoteOffEvent(tick=7, channel=0, data=[1, 0]),\n",
      "   midi.NoteOnEvent(tick=0, channel=0, data=[53, 144]),\n",
      "   midi.NoteOffEvent(tick=2, channel=0, data=[76, 0]),\n",
      "   midi.NoteOnEvent(tick=11, channel=0, data=[51, 220]),\n",
      "   midi.NoteOnEvent(tick=6, channel=0, data=[45, 144]),\n",
      "   midi.NoteOnEvent(tick=4, channel=0, data=[25, 210]),\n",
      "   midi.NoteOnEvent(tick=4, channel=0, data=[118, 77]),\n",
      "   midi.NoteOnEvent(tick=61, channel=0, data=[55, 176]),\n",
      "   midi.NoteOnEvent(tick=6, channel=0, data=[50, 183]),\n",
      "   midi.NoteOffEvent(tick=22, channel=0, data=[14, 0]),\n",
      "   midi.NoteOffEvent(tick=30, channel=0, data=[5, 0]),\n",
      "   midi.NoteOnEvent(tick=28, channel=0, data=[119, 15]),\n",
      "   midi.NoteOnEvent(tick=3, channel=0, data=[3, 41]),\n",
      "   midi.NoteOffEvent(tick=6, channel=0, data=[27, 0]),\n",
      "   midi.NoteOffEvent(tick=2, channel=0, data=[24, 0]),\n",
      "   midi.NoteOnEvent(tick=33, channel=0, data=[118, 66]),\n",
      "   midi.NoteOffEvent(tick=29, channel=0, data=[17, 0]),\n",
      "   midi.NoteOffEvent(tick=9, channel=0, data=[101, 0]),\n",
      "   midi.NoteOnEvent(tick=0, channel=0, data=[86, 223]),\n",
      "   midi.NoteOffEvent(tick=15, channel=0, data=[57, 0]),\n",
      "   midi.NoteOffEvent(tick=8, channel=0, data=[18, 0]),\n",
      "   midi.NoteOnEvent(tick=0, channel=0, data=[104, 213]),\n",
      "   midi.NoteOffEvent(tick=74, channel=0, data=[63, 0]),\n",
      "   midi.NoteOffEvent(tick=24, channel=0, data=[105, 0]),\n",
      "   midi.NoteOffEvent(tick=2, channel=0, data=[25, 0]),\n",
      "   midi.NoteOffEvent(tick=17, channel=0, data=[21, 0]),\n",
      "   midi.NoteOffEvent(tick=7, channel=0, data=[53, 0]),\n",
      "   midi.NoteOffEvent(tick=85, channel=0, data=[84, 0]),\n",
      "   midi.NoteOffEvent(tick=18, channel=0, data=[51, 0]),\n",
      "   midi.NoteOffEvent(tick=41, channel=0, data=[55, 0]),\n",
      "   midi.NoteOffEvent(tick=26, channel=0, data=[64, 0]),\n",
      "   midi.NoteOffEvent(tick=31, channel=0, data=[119, 0]),\n",
      "   midi.NoteOffEvent(tick=21, channel=0, data=[3, 0]),\n",
      "   midi.NoteOffEvent(tick=49, channel=0, data=[113, 0]),\n",
      "   midi.NoteOffEvent(tick=3, channel=0, data=[50, 0]),\n",
      "   midi.NoteOffEvent(tick=91, channel=0, data=[118, 0]),\n",
      "   midi.NoteOffEvent(tick=56, channel=0, data=[62, 0]),\n",
      "   midi.NoteOffEvent(tick=8, channel=0, data=[45, 0]),\n",
      "   midi.NoteOffEvent(tick=37, channel=0, data=[22, 0]),\n",
      "   midi.NoteOffEvent(tick=297, channel=0, data=[104, 0]),\n",
      "   midi.NoteOffEvent(tick=44, channel=0, data=[86, 0]),\n",
      "   midi.EndOfTrackEvent(tick=0, data=[])]),\n",
      " midi.Track(\\\n",
      "  [midi.SetTempoEvent(tick=0, data=[8, 227, 124]),\n",
      "   midi.ProgramChangeEvent(tick=0, channel=0, data=[12]),\n",
      "   midi.NoteOnEvent(tick=32, channel=0, data=[69, 145]),\n",
      "   midi.NoteOnEvent(tick=4, channel=0, data=[112, 44]),\n",
      "   midi.NoteOnEvent(tick=11, channel=0, data=[3, 22]),\n",
      "   midi.NoteOnEvent(tick=3, channel=0, data=[105, 99]),\n",
      "   midi.NoteOnEvent(tick=0, channel=0, data=[73, 147]),\n",
      "   midi.NoteOnEvent(tick=9, channel=0, data=[20, 89]),\n",
      "   midi.NoteOffEvent(tick=46, channel=0, data=[69, 0]),\n",
      "   midi.NoteOnEvent(tick=12, channel=0, data=[114, 83]),\n",
      "   midi.NoteOnEvent(tick=15, channel=0, data=[16, 222]),\n",
      "   midi.NoteOnEvent(tick=6, channel=0, data=[22, 185]),\n",
      "   midi.NoteOnEvent(tick=5, channel=0, data=[68, 237]),\n",
      "   midi.NoteOnEvent(tick=27, channel=0, data=[68, 182]),\n",
      "   midi.NoteOnEvent(tick=24, channel=0, data=[6, 94]),\n",
      "   midi.NoteOnEvent(tick=28, channel=0, data=[67, 80]),\n",
      "   midi.NoteOnEvent(tick=4, channel=0, data=[111, 197]),\n",
      "   midi.NoteOnEvent(tick=19, channel=0, data=[22, 135]),\n",
      "   midi.NoteOnEvent(tick=63, channel=0, data=[83, 156]),\n",
      "   midi.NoteOnEvent(tick=4, channel=0, data=[108, 116]),\n",
      "   midi.NoteOnEvent(tick=6, channel=0, data=[112, 213]),\n",
      "   midi.NoteOffEvent(tick=7, channel=0, data=[3, 0]),\n",
      "   midi.NoteOnEvent(tick=10, channel=0, data=[119, 145]),\n",
      "   midi.NoteOnEvent(tick=2, channel=0, data=[94, 178]),\n",
      "   midi.NoteOnEvent(tick=35, channel=0, data=[91, 163]),\n",
      "   midi.NoteOnEvent(tick=2, channel=0, data=[51, 37]),\n",
      "   midi.NoteOnEvent(tick=16, channel=0, data=[62, 209]),\n",
      "   midi.NoteOnEvent(tick=26, channel=0, data=[37, 38]),\n",
      "   midi.NoteOnEvent(tick=25, channel=0, data=[83, 223]),\n",
      "   midi.NoteOffEvent(tick=30, channel=0, data=[94, 0]),\n",
      "   midi.NoteOnEvent(tick=0, channel=0, data=[59, 195]),\n",
      "   midi.NoteOnEvent(tick=0, channel=0, data=[5, 37]),\n",
      "   midi.NoteOnEvent(tick=3, channel=0, data=[111, 50]),\n",
      "   midi.NoteOnEvent(tick=5, channel=0, data=[28, 86]),\n",
      "   midi.NoteOnEvent(tick=4, channel=0, data=[38, 72]),\n",
      "   midi.NoteOnEvent(tick=0, channel=0, data=[50, 128]),\n",
      "   midi.NoteOffEvent(tick=4, channel=0, data=[68, 0]),\n",
      "   midi.NoteOnEvent(tick=0, channel=0, data=[44, 66]),\n",
      "   midi.NoteOnEvent(tick=0, channel=0, data=[25, 116]),\n",
      "   midi.NoteOffEvent(tick=17, channel=0, data=[62, 0]),\n",
      "   midi.NoteOnEvent(tick=31, channel=0, data=[22, 168]),\n",
      "   midi.NoteOnEvent(tick=3, channel=0, data=[38, 101]),\n",
      "   midi.NoteOnEvent(tick=16, channel=0, data=[73, 185]),\n",
      "   midi.NoteOffEvent(tick=2, channel=0, data=[67, 0]),\n",
      "   midi.NoteOffEvent(tick=8, channel=0, data=[20, 0]),\n",
      "   midi.NoteOnEvent(tick=10, channel=0, data=[19, 155]),\n",
      "   midi.NoteOnEvent(tick=17, channel=0, data=[87, 157]),\n",
      "   midi.NoteOffEvent(tick=57, channel=0, data=[22, 0]),\n",
      "   midi.NoteOnEvent(tick=3, channel=0, data=[96, 30]),\n",
      "   midi.NoteOffEvent(tick=19, channel=0, data=[87, 0]),\n",
      "   midi.NoteOnEvent(tick=0, channel=0, data=[95, 42]),\n",
      "   midi.NoteOnEvent(tick=1, channel=0, data=[84, 248]),\n",
      "   midi.NoteOnEvent(tick=13, channel=0, data=[29, 207]),\n",
      "   midi.NoteOffEvent(tick=18, channel=0, data=[108, 0]),\n",
      "   midi.NoteOffEvent(tick=4, channel=0, data=[29, 0]),\n",
      "   midi.NoteOnEvent(tick=7, channel=0, data=[63, 204]),\n",
      "   midi.NoteOnEvent(tick=13, channel=0, data=[88, 254]),\n",
      "   midi.NoteOnEvent(tick=14, channel=0, data=[8, 149]),\n",
      "   midi.NoteOnEvent(tick=23, channel=0, data=[3, 31]),\n",
      "   midi.NoteOffEvent(tick=13, channel=0, data=[44, 0]),\n",
      "   midi.NoteOnEvent(tick=1, channel=0, data=[88, 225]),\n",
      "   midi.NoteOffEvent(tick=17, channel=0, data=[16, 0]),\n",
      "   midi.NoteOnEvent(tick=13, channel=0, data=[74, 219]),\n",
      "   midi.NoteOnEvent(tick=11, channel=0, data=[104, 131]),\n",
      "   midi.NoteOnEvent(tick=0, channel=0, data=[94, 206]),\n",
      "   midi.NoteOnEvent(tick=40, channel=0, data=[78, 252]),\n",
      "   midi.NoteOffEvent(tick=2, channel=0, data=[78, 0]),\n",
      "   midi.NoteOnEvent(tick=15, channel=0, data=[114, 11]),\n",
      "   midi.NoteOnEvent(tick=5, channel=0, data=[70, 73]),\n",
      "   midi.NoteOnEvent(tick=3, channel=0, data=[68, 119]),\n",
      "   midi.NoteOffEvent(tick=10, channel=0, data=[68, 0]),\n",
      "   midi.NoteOnEvent(tick=6, channel=0, data=[21, 122]),\n",
      "   midi.NoteOffEvent(tick=20, channel=0, data=[119, 0]),\n",
      "   midi.NoteOnEvent(tick=20, channel=0, data=[68, 128]),\n",
      "   midi.NoteOnEvent(tick=3, channel=0, data=[87, 26]),\n",
      "   midi.NoteOffEvent(tick=3, channel=0, data=[21, 0]),\n",
      "   midi.NoteOffEvent(tick=6, channel=0, data=[50, 0]),\n",
      "   midi.NoteOnEvent(tick=18, channel=0, data=[21, 165]),\n",
      "   midi.NoteOnEvent(tick=0, channel=0, data=[124, 134]),\n",
      "   midi.NoteOnEvent(tick=1, channel=0, data=[9, 157]),\n",
      "   midi.NoteOnEvent(tick=2, channel=0, data=[116, 58]),\n",
      "   midi.NoteOnEvent(tick=3, channel=0, data=[50, 216]),\n",
      "   midi.NoteOffEvent(tick=17, channel=0, data=[88, 0]),\n",
      "   midi.NoteOffEvent(tick=8, channel=0, data=[105, 0]),\n",
      "   midi.NoteOffEvent(tick=7, channel=0, data=[25, 0]),\n",
      "   midi.NoteOffEvent(tick=23, channel=0, data=[112, 0]),\n",
      "   midi.NoteOffEvent(tick=4, channel=0, data=[91, 0]),\n",
      "   midi.NoteOffEvent(tick=27, channel=0, data=[37, 0]),\n",
      "   midi.NoteOffEvent(tick=32, channel=0, data=[51, 0]),\n",
      "   midi.NoteOffEvent(tick=10, channel=0, data=[50, 0]),\n",
      "   midi.NoteOffEvent(tick=13, channel=0, data=[6, 0]),\n",
      "   midi.NoteOffEvent(tick=13, channel=0, data=[84, 0]),\n",
      "   midi.NoteOffEvent(tick=29, channel=0, data=[19, 0]),\n",
      "   midi.NoteOffEvent(tick=53, channel=0, data=[111, 0]),\n",
      "   midi.NoteOffEvent(tick=39, channel=0, data=[70, 0]),\n",
      "   midi.NoteOffEvent(tick=9, channel=0, data=[21, 0]),\n",
      "   midi.NoteOffEvent(tick=20, channel=0, data=[59, 0]),\n",
      "   midi.NoteOffEvent(tick=48, channel=0, data=[5, 0]),\n",
      "   midi.NoteOffEvent(tick=49, channel=0, data=[9, 0]),\n",
      "   midi.NoteOffEvent(tick=2, channel=0, data=[116, 0]),\n",
      "   midi.NoteOffEvent(tick=8, channel=0, data=[63, 0]),\n",
      "   midi.NoteOffEvent(tick=13, channel=0, data=[28, 0]),\n",
      "   midi.NoteOffEvent(tick=15, channel=0, data=[74, 0]),\n",
      "   midi.NoteOffEvent(tick=22, channel=0, data=[87, 0]),\n",
      "   midi.NoteOffEvent(tick=4, channel=0, data=[83, 0]),\n",
      "   midi.NoteOffEvent(tick=4, channel=0, data=[3, 0]),\n",
      "   midi.NoteOffEvent(tick=6, channel=0, data=[38, 0]),\n",
      "   midi.NoteOffEvent(tick=5, channel=0, data=[96, 0]),\n",
      "   midi.NoteOffEvent(tick=74, channel=0, data=[94, 0]),\n",
      "   midi.NoteOffEvent(tick=5, channel=0, data=[73, 0]),\n",
      "   midi.NoteOffEvent(tick=14, channel=0, data=[8, 0]),\n",
      "   midi.NoteOffEvent(tick=8, channel=0, data=[104, 0]),\n",
      "   midi.NoteOffEvent(tick=101, channel=0, data=[114, 0]),\n",
      "   midi.NoteOffEvent(tick=1, channel=0, data=[95, 0]),\n",
      "   midi.NoteOffEvent(tick=92, channel=0, data=[68, 0]),\n",
      "   midi.NoteOffEvent(tick=188, channel=0, data=[124, 0]),\n",
      "   midi.EndOfTrackEvent(tick=0, data=[])]),\n",
      " midi.Track(\\\n",
      "  [midi.SetTempoEvent(tick=0, data=[8, 227, 124]),\n",
      "   midi.ProgramChangeEvent(tick=0, channel=0, data=[13]),\n",
      "   midi.NoteOnEvent(tick=47, channel=0, data=[86, 26]),\n",
      "   midi.NoteOnEvent(tick=0, channel=0, data=[86, 187]),\n",
      "   midi.NoteOnEvent(tick=16, channel=0, data=[52, 79]),\n",
      "   midi.NoteOnEvent(tick=81, channel=0, data=[7, 202]),\n",
      "   midi.NoteOnEvent(tick=26, channel=0, data=[1, 182]),\n",
      "   midi.NoteOnEvent(tick=6, channel=0, data=[58, 158]),\n",
      "   midi.NoteOnEvent(tick=5, channel=0, data=[11, 212]),\n",
      "   midi.NoteOnEvent(tick=0, channel=0, data=[44, 23]),\n",
      "   midi.NoteOnEvent(tick=5, channel=0, data=[72, 34]),\n",
      "   midi.NoteOnEvent(tick=5, channel=0, data=[2, 163]),\n",
      "   midi.NoteOnEvent(tick=1, channel=0, data=[23, 78]),\n",
      "   midi.NoteOnEvent(tick=16, channel=0, data=[21, 168]),\n",
      "   midi.NoteOnEvent(tick=10, channel=0, data=[115, 175]),\n",
      "   midi.NoteOffEvent(tick=25, channel=0, data=[1, 0]),\n",
      "   midi.NoteOnEvent(tick=2, channel=0, data=[66, 44]),\n",
      "   midi.NoteOnEvent(tick=24, channel=0, data=[119, 159]),\n",
      "   midi.NoteOffEvent(tick=3, channel=0, data=[86, 0]),\n",
      "   midi.NoteOnEvent(tick=18, channel=0, data=[7, 237]),\n",
      "   midi.NoteOffEvent(tick=7, channel=0, data=[119, 0]),\n",
      "   midi.NoteOnEvent(tick=4, channel=0, data=[31, 93]),\n",
      "   midi.NoteOnEvent(tick=12, channel=0, data=[72, 28]),\n",
      "   midi.NoteOnEvent(tick=0, channel=0, data=[23, 225]),\n",
      "   midi.NoteOnEvent(tick=9, channel=0, data=[90, 32]),\n",
      "   midi.NoteOffEvent(tick=19, channel=0, data=[52, 0]),\n",
      "   midi.NoteOnEvent(tick=4, channel=0, data=[90, 170]),\n",
      "   midi.NoteOnEvent(tick=0, channel=0, data=[39, 130]),\n",
      "   midi.NoteOnEvent(tick=5, channel=0, data=[47, 98]),\n",
      "   midi.NoteOnEvent(tick=2, channel=0, data=[30, 21]),\n",
      "   midi.NoteOnEvent(tick=23, channel=0, data=[98, 177]),\n",
      "   midi.NoteOffEvent(tick=6, channel=0, data=[39, 0]),\n",
      "   midi.NoteOnEvent(tick=22, channel=0, data=[41, 132]),\n",
      "   midi.NoteOnEvent(tick=1, channel=0, data=[65, 26]),\n",
      "   midi.NoteOnEvent(tick=0, channel=0, data=[121, 65]),\n",
      "   midi.NoteOnEvent(tick=0, channel=0, data=[115, 39]),\n",
      "   midi.NoteOffEvent(tick=5, channel=0, data=[98, 0]),\n",
      "   midi.NoteOnEvent(tick=1, channel=0, data=[72, 18]),\n",
      "   midi.NoteOnEvent(tick=25, channel=0, data=[73, 71]),\n",
      "   midi.NoteOnEvent(tick=3, channel=0, data=[104, 159]),\n",
      "   midi.NoteOffEvent(tick=7, channel=0, data=[2, 0]),\n",
      "   midi.NoteOnEvent(tick=12, channel=0, data=[121, 100]),\n",
      "   midi.NoteOffEvent(tick=11, channel=0, data=[121, 0]),\n",
      "   midi.NoteOnEvent(tick=2, channel=0, data=[118, 13]),\n",
      "   midi.NoteOffEvent(tick=4, channel=0, data=[47, 0]),\n",
      "   midi.NoteOnEvent(tick=1, channel=0, data=[56, 194]),\n",
      "   midi.NoteOnEvent(tick=16, channel=0, data=[124, 80]),\n",
      "   midi.NoteOnEvent(tick=24, channel=0, data=[82, 250]),\n",
      "   midi.NoteOnEvent(tick=7, channel=0, data=[43, 229]),\n",
      "   midi.NoteOnEvent(tick=31, channel=0, data=[23, 4]),\n",
      "   midi.NoteOffEvent(tick=4, channel=0, data=[43, 0]),\n",
      "   midi.NoteOnEvent(tick=3, channel=0, data=[28, 78]),\n",
      "   midi.NoteOnEvent(tick=1, channel=0, data=[82, 233]),\n",
      "   midi.NoteOnEvent(tick=7, channel=0, data=[7, 47]),\n",
      "   midi.NoteOnEvent(tick=37, channel=0, data=[59, 244]),\n",
      "   midi.NoteOnEvent(tick=14, channel=0, data=[27, 93]),\n",
      "   midi.NoteOnEvent(tick=11, channel=0, data=[91, 111]),\n",
      "   midi.NoteOnEvent(tick=0, channel=0, data=[52, 230]),\n",
      "   midi.NoteOnEvent(tick=4, channel=0, data=[65, 64]),\n",
      "   midi.NoteOffEvent(tick=13, channel=0, data=[30, 0]),\n",
      "   midi.NoteOnEvent(tick=1, channel=0, data=[119, 120]),\n",
      "   midi.NoteOnEvent(tick=22, channel=0, data=[110, 54]),\n",
      "   midi.NoteOffEvent(tick=11, channel=0, data=[11, 0]),\n",
      "   midi.NoteOffEvent(tick=7, channel=0, data=[104, 0]),\n",
      "   midi.NoteOnEvent(tick=29, channel=0, data=[44, 156]),\n",
      "   midi.NoteOffEvent(tick=10, channel=0, data=[56, 0]),\n",
      "   midi.NoteOffEvent(tick=0, channel=0, data=[119, 0]),\n",
      "   midi.NoteOnEvent(tick=8, channel=0, data=[19, 123]),\n",
      "   midi.NoteOnEvent(tick=9, channel=0, data=[9, 90]),\n",
      "   midi.NoteOnEvent(tick=16, channel=0, data=[71, 248]),\n",
      "   midi.NoteOnEvent(tick=2, channel=0, data=[85, 19]),\n",
      "   midi.NoteOnEvent(tick=39, channel=0, data=[70, 63]),\n",
      "   midi.NoteOnEvent(tick=0, channel=0, data=[79, 171]),\n",
      "   midi.NoteOffEvent(tick=9, channel=0, data=[72, 0]),\n",
      "   midi.NoteOffEvent(tick=7, channel=0, data=[79, 0]),\n",
      "   midi.NoteOffEvent(tick=13, channel=0, data=[118, 0]),\n",
      "   midi.NoteOnEvent(tick=14, channel=0, data=[107, 139]),\n",
      "   midi.NoteOffEvent(tick=21, channel=0, data=[65, 0]),\n",
      "   midi.NoteOffEvent(tick=2, channel=0, data=[115, 0]),\n",
      "   midi.NoteOnEvent(tick=9, channel=0, data=[56, 28]),\n",
      "   midi.NoteOnEvent(tick=1, channel=0, data=[59, 29]),\n",
      "   midi.NoteOnEvent(tick=0, channel=0, data=[62, 176]),\n",
      "   midi.NoteOffEvent(tick=11, channel=0, data=[44, 0]),\n",
      "   midi.NoteOnEvent(tick=2, channel=0, data=[120, 190]),\n",
      "   midi.NoteOffEvent(tick=5, channel=0, data=[23, 0]),\n",
      "   midi.NoteOnEvent(tick=7, channel=0, data=[95, 22]),\n",
      "   midi.NoteOffEvent(tick=25, channel=0, data=[66, 0]),\n",
      "   midi.NoteOnEvent(tick=11, channel=0, data=[44, 149]),\n",
      "   midi.NoteOnEvent(tick=11, channel=0, data=[25, 181]),\n",
      "   midi.NoteOffEvent(tick=3, channel=0, data=[27, 0]),\n",
      "   midi.NoteOnEvent(tick=3, channel=0, data=[8, 152]),\n",
      "   midi.NoteOnEvent(tick=7, channel=0, data=[32, 7]),\n",
      "   midi.NoteOnEvent(tick=7, channel=0, data=[48, 159]),\n",
      "   midi.NoteOffEvent(tick=5, channel=0, data=[110, 0]),\n",
      "   midi.NoteOnEvent(tick=1, channel=0, data=[106, 37]),\n",
      "   midi.NoteOffEvent(tick=2, channel=0, data=[85, 0]),\n",
      "   midi.NoteOffEvent(tick=42, channel=0, data=[21, 0]),\n",
      "   midi.NoteOffEvent(tick=20, channel=0, data=[73, 0]),\n",
      "   midi.NoteOffEvent(tick=13, channel=0, data=[58, 0]),\n",
      "   midi.NoteOffEvent(tick=28, channel=0, data=[90, 0]),\n",
      "   midi.NoteOffEvent(tick=11, channel=0, data=[124, 0]),\n",
      "   midi.NoteOffEvent(tick=15, channel=0, data=[31, 0]),\n",
      "   midi.NoteOffEvent(tick=2, channel=0, data=[120, 0]),\n",
      "   midi.NoteOffEvent(tick=49, channel=0, data=[41, 0]),\n",
      "   midi.NoteOffEvent(tick=49, channel=0, data=[95, 0]),\n",
      "   midi.NoteOffEvent(tick=1, channel=0, data=[59, 0]),\n",
      "   midi.NoteOffEvent(tick=12, channel=0, data=[62, 0]),\n",
      "   midi.NoteOffEvent(tick=15, channel=0, data=[9, 0]),\n",
      "   midi.NoteOffEvent(tick=27, channel=0, data=[19, 0]),\n",
      "   midi.NoteOffEvent(tick=12, channel=0, data=[82, 0]),\n",
      "   midi.NoteOffEvent(tick=2, channel=0, data=[56, 0]),\n",
      "   midi.NoteOffEvent(tick=2, channel=0, data=[70, 0]),\n",
      "   midi.NoteOffEvent(tick=10, channel=0, data=[25, 0]),\n",
      "   midi.NoteOffEvent(tick=1, channel=0, data=[107, 0]),\n",
      "   midi.NoteOffEvent(tick=30, channel=0, data=[28, 0]),\n",
      "   midi.NoteOffEvent(tick=9, channel=0, data=[7, 0]),\n",
      "   midi.NoteOffEvent(tick=23, channel=0, data=[71, 0]),\n",
      "   midi.NoteOffEvent(tick=33, channel=0, data=[91, 0]),\n",
      "   midi.NoteOffEvent(tick=40, channel=0, data=[8, 0]),\n",
      "   midi.NoteOffEvent(tick=104, channel=0, data=[52, 0]),\n",
      "   midi.NoteOffEvent(tick=186, channel=0, data=[106, 0]),\n",
      "   midi.NoteOffEvent(tick=1, channel=0, data=[32, 0]),\n",
      "   midi.NoteOffEvent(tick=10, channel=0, data=[48, 0]),\n",
      "   midi.NoteOffEvent(tick=43, channel=0, data=[44, 0]),\n",
      "   midi.EndOfTrackEvent(tick=0, data=[])]),\n",
      " midi.Track(\\\n",
      "  [midi.SetTempoEvent(tick=0, data=[8, 227, 124]),\n",
      "   midi.ProgramChangeEvent(tick=0, channel=0, data=[14]),\n",
      "   midi.NoteOnEvent(tick=6, channel=0, data=[72, 73]),\n",
      "   midi.NoteOnEvent(tick=7, channel=0, data=[108, 88]),\n",
      "   midi.NoteOnEvent(tick=17, channel=0, data=[0, 110]),\n",
      "   midi.NoteOnEvent(tick=5, channel=0, data=[79, 97]),\n",
      "   midi.NoteOnEvent(tick=0, channel=0, data=[87, 19]),\n",
      "   midi.NoteOnEvent(tick=1, channel=0, data=[110, 102]),\n",
      "   midi.NoteOnEvent(tick=27, channel=0, data=[125, 254]),\n",
      "   midi.NoteOnEvent(tick=6, channel=0, data=[78, 222]),\n",
      "   midi.NoteOnEvent(tick=9, channel=0, data=[51, 43]),\n",
      "   midi.NoteOffEvent(tick=1, channel=0, data=[87, 0]),\n",
      "   midi.NoteOnEvent(tick=4, channel=0, data=[103, 227]),\n",
      "   midi.NoteOnEvent(tick=0, channel=0, data=[41, 61]),\n",
      "   midi.NoteOnEvent(tick=16, channel=0, data=[89, 73]),\n",
      "   midi.NoteOnEvent(tick=13, channel=0, data=[124, 154]),\n",
      "   midi.NoteOnEvent(tick=7, channel=0, data=[7, 224]),\n",
      "   midi.NoteOnEvent(tick=15, channel=0, data=[84, 147]),\n",
      "   midi.NoteOffEvent(tick=44, channel=0, data=[72, 0]),\n",
      "   midi.NoteOnEvent(tick=1, channel=0, data=[36, 250]),\n",
      "   midi.NoteOnEvent(tick=18, channel=0, data=[20, 164]),\n",
      "   midi.NoteOnEvent(tick=34, channel=0, data=[44, 224]),\n",
      "   midi.NoteOnEvent(tick=14, channel=0, data=[75, 11]),\n",
      "   midi.NoteOnEvent(tick=14, channel=0, data=[97, 142]),\n",
      "   midi.NoteOffEvent(tick=27, channel=0, data=[36, 0]),\n",
      "   midi.NoteOnEvent(tick=7, channel=0, data=[5, 251]),\n",
      "   midi.NoteOnEvent(tick=20, channel=0, data=[97, 78]),\n",
      "   midi.NoteOnEvent(tick=8, channel=0, data=[80, 30]),\n",
      "   midi.NoteOnEvent(tick=9, channel=0, data=[80, 173]),\n",
      "   midi.NoteOnEvent(tick=1, channel=0, data=[110, 76]),\n",
      "   midi.NoteOnEvent(tick=5, channel=0, data=[94, 69]),\n",
      "   midi.NoteOnEvent(tick=13, channel=0, data=[72, 200]),\n",
      "   midi.NoteOnEvent(tick=5, channel=0, data=[25, 149]),\n",
      "   midi.NoteOffEvent(tick=20, channel=0, data=[97, 0]),\n",
      "   midi.NoteOnEvent(tick=30, channel=0, data=[44, 62]),\n",
      "   midi.NoteOnEvent(tick=4, channel=0, data=[122, 174]),\n",
      "   midi.NoteOffEvent(tick=6, channel=0, data=[75, 0]),\n",
      "   midi.NoteOnEvent(tick=1, channel=0, data=[37, 126]),\n",
      "   midi.NoteOnEvent(tick=1, channel=0, data=[82, 38]),\n",
      "   midi.NoteOnEvent(tick=0, channel=0, data=[101, 246]),\n",
      "   midi.NoteOnEvent(tick=17, channel=0, data=[116, 173]),\n",
      "   midi.NoteOnEvent(tick=8, channel=0, data=[47, 154]),\n",
      "   midi.NoteOnEvent(tick=10, channel=0, data=[0, 130]),\n",
      "   midi.NoteOnEvent(tick=19, channel=0, data=[13, 199]),\n",
      "   midi.NoteOnEvent(tick=19, channel=0, data=[37, 215]),\n",
      "   midi.NoteOffEvent(tick=15, channel=0, data=[108, 0]),\n",
      "   midi.NoteOnEvent(tick=6, channel=0, data=[10, 98]),\n",
      "   midi.NoteOnEvent(tick=0, channel=0, data=[115, 160]),\n",
      "   midi.NoteOnEvent(tick=9, channel=0, data=[14, 197]),\n",
      "   midi.NoteOffEvent(tick=20, channel=0, data=[25, 0]),\n",
      "   midi.NoteOffEvent(tick=10, channel=0, data=[41, 0]),\n",
      "   midi.NoteOnEvent(tick=5, channel=0, data=[123, 253]),\n",
      "   midi.NoteOnEvent(tick=0, channel=0, data=[100, 96]),\n",
      "   midi.NoteOnEvent(tick=3, channel=0, data=[63, 226]),\n",
      "   midi.NoteOnEvent(tick=0, channel=0, data=[69, 206]),\n",
      "   midi.NoteOffEvent(tick=5, channel=0, data=[89, 0]),\n",
      "   midi.NoteOffEvent(tick=20, channel=0, data=[122, 0]),\n",
      "   midi.NoteOffEvent(tick=28, channel=0, data=[14, 0]),\n",
      "   midi.NoteOnEvent(tick=6, channel=0, data=[80, 128]),\n",
      "   midi.NoteOnEvent(tick=2, channel=0, data=[3, 139]),\n",
      "   midi.NoteOnEvent(tick=16, channel=0, data=[124, 184]),\n",
      "   midi.NoteOnEvent(tick=9, channel=0, data=[57, 120]),\n",
      "   midi.NoteOnEvent(tick=10, channel=0, data=[106, 60]),\n",
      "   midi.NoteOffEvent(tick=13, channel=0, data=[78, 0]),\n",
      "   midi.NoteOffEvent(tick=10, channel=0, data=[44, 0]),\n",
      "   midi.NoteOffEvent(tick=5, channel=0, data=[103, 0]),\n",
      "   midi.NoteOnEvent(tick=4, channel=0, data=[52, 103]),\n",
      "   midi.NoteOnEvent(tick=8, channel=0, data=[30, 162]),\n",
      "   midi.NoteOnEvent(tick=1, channel=0, data=[70, 88]),\n",
      "   midi.NoteOnEvent(tick=17, channel=0, data=[59, 248]),\n",
      "   midi.NoteOffEvent(tick=8, channel=0, data=[79, 0]),\n",
      "   midi.NoteOnEvent(tick=0, channel=0, data=[113, 10]),\n",
      "   midi.NoteOffEvent(tick=14, channel=0, data=[13, 0]),\n",
      "   midi.NoteOnEvent(tick=0, channel=0, data=[108, 34]),\n",
      "   midi.NoteOnEvent(tick=0, channel=0, data=[15, 246]),\n",
      "   midi.NoteOnEvent(tick=6, channel=0, data=[72, 94]),\n",
      "   midi.NoteOffEvent(tick=10, channel=0, data=[125, 0]),\n",
      "   midi.NoteOnEvent(tick=3, channel=0, data=[118, 242]),\n",
      "   midi.NoteOffEvent(tick=6, channel=0, data=[7, 0]),\n",
      "   midi.NoteOffEvent(tick=0, channel=0, data=[70, 0]),\n",
      "   midi.NoteOnEvent(tick=2, channel=0, data=[116, 5]),\n",
      "   midi.NoteOnEvent(tick=23, channel=0, data=[23, 185]),\n",
      "   midi.NoteOnEvent(tick=3, channel=0, data=[52, 240]),\n",
      "   midi.NoteOnEvent(tick=10, channel=0, data=[115, 6]),\n",
      "   midi.NoteOffEvent(tick=2, channel=0, data=[123, 0]),\n",
      "   midi.NoteOnEvent(tick=9, channel=0, data=[64, 222]),\n",
      "   midi.NoteOnEvent(tick=6, channel=0, data=[107, 233]),\n",
      "   midi.NoteOnEvent(tick=5, channel=0, data=[8, 161]),\n",
      "   midi.NoteOffEvent(tick=2, channel=0, data=[94, 0]),\n",
      "   midi.NoteOnEvent(tick=5, channel=0, data=[35, 77]),\n",
      "   midi.NoteOffEvent(tick=13, channel=0, data=[100, 0]),\n",
      "   midi.NoteOnEvent(tick=17, channel=0, data=[86, 28]),\n",
      "   midi.NoteOffEvent(tick=17, channel=0, data=[15, 0]),\n",
      "   midi.NoteOnEvent(tick=4, channel=0, data=[118, 193]),\n",
      "   midi.NoteOnEvent(tick=11, channel=0, data=[4, 217]),\n",
      "   midi.NoteOnEvent(tick=0, channel=0, data=[64, 171]),\n",
      "   midi.NoteOffEvent(tick=14, channel=0, data=[116, 0]),\n",
      "   midi.NoteOffEvent(tick=11, channel=0, data=[47, 0]),\n",
      "   midi.NoteOnEvent(tick=1, channel=0, data=[21, 215]),\n",
      "   midi.NoteOnEvent(tick=4, channel=0, data=[93, 157]),\n",
      "   midi.NoteOnEvent(tick=0, channel=0, data=[126, 182]),\n",
      "   midi.NoteOnEvent(tick=4, channel=0, data=[104, 224]),\n",
      "   midi.NoteOffEvent(tick=49, channel=0, data=[59, 0]),\n",
      "   midi.NoteOffEvent(tick=3, channel=0, data=[80, 0]),\n",
      "   midi.NoteOffEvent(tick=14, channel=0, data=[51, 0]),\n",
      "   midi.NoteOnEvent(tick=4, channel=0, data=[14, 0]),\n",
      "   midi.NoteOnEvent(tick=1, channel=0, data=[23, 194]),\n",
      "   midi.NoteOffEvent(tick=11, channel=0, data=[10, 0]),\n",
      "   midi.NoteOffEvent(tick=28, channel=0, data=[108, 0]),\n",
      "   midi.NoteOffEvent(tick=27, channel=0, data=[104, 0]),\n",
      "   midi.NoteOffEvent(tick=6, channel=0, data=[14, 0]),\n",
      "   midi.NoteOffEvent(tick=4, channel=0, data=[113, 0]),\n",
      "   midi.NoteOffEvent(tick=31, channel=0, data=[5, 0]),\n",
      "   midi.NoteOffEvent(tick=7, channel=0, data=[84, 0]),\n",
      "   midi.NoteOffEvent(tick=6, channel=0, data=[20, 0]),\n",
      "   midi.NoteOffEvent(tick=9, channel=0, data=[110, 0]),\n",
      "   midi.NoteOffEvent(tick=15, channel=0, data=[64, 0]),\n",
      "   midi.NoteOffEvent(tick=25, channel=0, data=[107, 0]),\n",
      "   midi.NoteOffEvent(tick=63, channel=0, data=[8, 0]),\n",
      "   midi.NoteOffEvent(tick=2, channel=0, data=[37, 0]),\n",
      "   midi.NoteOffEvent(tick=10, channel=0, data=[101, 0]),\n",
      "   midi.NoteOffEvent(tick=23, channel=0, data=[69, 0]),\n",
      "   midi.NoteOffEvent(tick=8, channel=0, data=[63, 0]),\n",
      "   midi.NoteOffEvent(tick=1, channel=0, data=[82, 0]),\n",
      "   midi.NoteOffEvent(tick=17, channel=0, data=[21, 0]),\n",
      "   midi.NoteOffEvent(tick=16, channel=0, data=[3, 0]),\n",
      "   midi.NoteOffEvent(tick=12, channel=0, data=[106, 0]),\n",
      "   midi.NoteOffEvent(tick=35, channel=0, data=[23, 0]),\n",
      "   midi.NoteOffEvent(tick=0, channel=0, data=[52, 0]),\n",
      "   midi.NoteOffEvent(tick=2, channel=0, data=[57, 0]),\n",
      "   midi.NoteOffEvent(tick=9, channel=0, data=[0, 0]),\n",
      "   midi.NoteOffEvent(tick=109, channel=0, data=[72, 0]),\n",
      "   midi.NoteOffEvent(tick=8, channel=0, data=[124, 0]),\n",
      "   midi.NoteOffEvent(tick=8, channel=0, data=[30, 0]),\n",
      "   midi.NoteOffEvent(tick=29, channel=0, data=[4, 0]),\n",
      "   midi.NoteOffEvent(tick=38, channel=0, data=[86, 0]),\n",
      "   midi.NoteOffEvent(tick=91, channel=0, data=[115, 0]),\n",
      "   midi.NoteOffEvent(tick=37, channel=0, data=[35, 0]),\n",
      "   midi.NoteOffEvent(tick=23, channel=0, data=[126, 0]),\n",
      "   midi.NoteOffEvent(tick=62, channel=0, data=[118, 0]),\n",
      "   midi.NoteOffEvent(tick=125, channel=0, data=[93, 0]),\n",
      "   midi.EndOfTrackEvent(tick=0, data=[])]),\n",
      " midi.Track(\\\n",
      "  [midi.SetTempoEvent(tick=0, data=[8, 227, 124]),\n",
      "   midi.ProgramChangeEvent(tick=0, channel=0, data=[15]),\n",
      "   midi.NoteOnEvent(tick=6, channel=0, data=[64, 72]),\n",
      "   midi.NoteOnEvent(tick=10, channel=0, data=[122, 4]),\n",
      "   midi.NoteOnEvent(tick=0, channel=0, data=[85, 241]),\n",
      "   midi.NoteOnEvent(tick=31, channel=0, data=[86, 38]),\n",
      "   midi.NoteOnEvent(tick=12, channel=0, data=[124, 60]),\n",
      "   midi.NoteOnEvent(tick=20, channel=0, data=[43, 48]),\n",
      "   midi.NoteOnEvent(tick=42, channel=0, data=[89, 57]),\n",
      "   midi.NoteOffEvent(tick=2, channel=0, data=[85, 0]),\n",
      "   midi.NoteOnEvent(tick=7, channel=0, data=[27, 21]),\n",
      "   midi.NoteOnEvent(tick=23, channel=0, data=[92, 24]),\n",
      "   midi.NoteOnEvent(tick=10, channel=0, data=[71, 85]),\n",
      "   midi.NoteOnEvent(tick=31, channel=0, data=[93, 93]),\n",
      "   midi.NoteOnEvent(tick=6, channel=0, data=[10, 199]),\n",
      "   midi.NoteOnEvent(tick=45, channel=0, data=[32, 203]),\n",
      "   midi.NoteOnEvent(tick=9, channel=0, data=[102, 223]),\n",
      "   midi.NoteOnEvent(tick=5, channel=0, data=[52, 160]),\n",
      "   midi.NoteOnEvent(tick=30, channel=0, data=[21, 241]),\n",
      "   midi.NoteOnEvent(tick=4, channel=0, data=[32, 116]),\n",
      "   midi.NoteOffEvent(tick=11, channel=0, data=[93, 0]),\n",
      "   midi.NoteOnEvent(tick=4, channel=0, data=[34, 227]),\n",
      "   midi.NoteOnEvent(tick=24, channel=0, data=[102, 163]),\n",
      "   midi.NoteOnEvent(tick=0, channel=0, data=[70, 111]),\n",
      "   midi.NoteOnEvent(tick=20, channel=0, data=[5, 25]),\n",
      "   midi.NoteOffEvent(tick=13, channel=0, data=[102, 0]),\n",
      "   midi.NoteOffEvent(tick=12, channel=0, data=[89, 0]),\n",
      "   midi.NoteOnEvent(tick=29, channel=0, data=[27, 143]),\n",
      "   midi.NoteOnEvent(tick=9, channel=0, data=[27, 55]),\n",
      "   midi.NoteOnEvent(tick=1, channel=0, data=[42, 246]),\n",
      "   midi.NoteOnEvent(tick=9, channel=0, data=[123, 29]),\n",
      "   midi.NoteOnEvent(tick=0, channel=0, data=[99, 110]),\n",
      "   midi.NoteOnEvent(tick=13, channel=0, data=[121, 175]),\n",
      "   midi.NoteOnEvent(tick=34, channel=0, data=[3, 43]),\n",
      "   midi.NoteOnEvent(tick=4, channel=0, data=[29, 67]),\n",
      "   midi.NoteOffEvent(tick=10, channel=0, data=[52, 0]),\n",
      "   midi.NoteOnEvent(tick=28, channel=0, data=[126, 28]),\n",
      "   midi.NoteOnEvent(tick=5, channel=0, data=[99, 90]),\n",
      "   midi.NoteOnEvent(tick=16, channel=0, data=[94, 155]),\n",
      "   midi.NoteOnEvent(tick=3, channel=0, data=[38, 242]),\n",
      "   midi.NoteOffEvent(tick=2, channel=0, data=[34, 0]),\n",
      "   midi.NoteOffEvent(tick=6, channel=0, data=[92, 0]),\n",
      "   midi.NoteOffEvent(tick=8, channel=0, data=[27, 0]),\n",
      "   midi.NoteOnEvent(tick=0, channel=0, data=[58, 87]),\n",
      "   midi.NoteOnEvent(tick=3, channel=0, data=[117, 166]),\n",
      "   midi.NoteOnEvent(tick=3, channel=0, data=[58, 83]),\n",
      "   midi.NoteOnEvent(tick=0, channel=0, data=[52, 19]),\n",
      "   midi.NoteOffEvent(tick=2, channel=0, data=[38, 0]),\n",
      "   midi.NoteOffEvent(tick=11, channel=0, data=[121, 0]),\n",
      "   midi.NoteOnEvent(tick=22, channel=0, data=[85, 232]),\n",
      "   midi.NoteOnEvent(tick=23, channel=0, data=[6, 231]),\n",
      "   midi.NoteOnEvent(tick=3, channel=0, data=[6, 242]),\n",
      "   midi.NoteOnEvent(tick=0, channel=0, data=[116, 40]),\n",
      "   midi.NoteOnEvent(tick=29, channel=0, data=[50, 153]),\n",
      "   midi.NoteOffEvent(tick=1, channel=0, data=[43, 0]),\n",
      "   midi.NoteOffEvent(tick=1, channel=0, data=[58, 0]),\n",
      "   midi.NoteOffEvent(tick=13, channel=0, data=[85, 0]),\n",
      "   midi.NoteOnEvent(tick=40, channel=0, data=[61, 28]),\n",
      "   midi.NoteOnEvent(tick=12, channel=0, data=[124, 99]),\n",
      "   midi.NoteOnEvent(tick=0, channel=0, data=[53, 198]),\n",
      "   midi.NoteOnEvent(tick=10, channel=0, data=[120, 11]),\n",
      "   midi.NoteOnEvent(tick=6, channel=0, data=[95, 122]),\n",
      "   midi.NoteOnEvent(tick=15, channel=0, data=[15, 238]),\n",
      "   midi.NoteOnEvent(tick=2, channel=0, data=[4, 24]),\n",
      "   midi.NoteOnEvent(tick=27, channel=0, data=[44, 227]),\n",
      "   midi.NoteOffEvent(tick=9, channel=0, data=[64, 0]),\n",
      "   midi.NoteOffEvent(tick=19, channel=0, data=[15, 0]),\n",
      "   midi.NoteOnEvent(tick=2, channel=0, data=[121, 139]),\n",
      "   midi.NoteOffEvent(tick=1, channel=0, data=[126, 0]),\n",
      "   midi.NoteOffEvent(tick=30, channel=0, data=[4, 0]),\n",
      "   midi.NoteOnEvent(tick=6, channel=0, data=[98, 132]),\n",
      "   midi.NoteOnEvent(tick=19, channel=0, data=[51, 176]),\n",
      "   midi.NoteOffEvent(tick=12, channel=0, data=[117, 0]),\n",
      "   midi.NoteOffEvent(tick=8, channel=0, data=[120, 0]),\n",
      "   midi.NoteOffEvent(tick=3, channel=0, data=[86, 0]),\n",
      "   midi.NoteOnEvent(tick=1, channel=0, data=[35, 62]),\n",
      "   midi.NoteOnEvent(tick=0, channel=0, data=[108, 39]),\n",
      "   midi.NoteOnEvent(tick=1, channel=0, data=[95, 159]),\n",
      "   midi.NoteOffEvent(tick=1, channel=0, data=[95, 0]),\n",
      "   midi.NoteOnEvent(tick=1, channel=0, data=[118, 152]),\n",
      "   midi.NoteOffEvent(tick=24, channel=0, data=[71, 0]),\n",
      "   midi.NoteOffEvent(tick=3, channel=0, data=[35, 0]),\n",
      "   midi.NoteOnEvent(tick=14, channel=0, data=[111, 108]),\n",
      "   midi.NoteOffEvent(tick=23, channel=0, data=[122, 0]),\n",
      "   midi.NoteOnEvent(tick=7, channel=0, data=[43, 103]),\n",
      "   midi.NoteOffEvent(tick=3, channel=0, data=[99, 0]),\n",
      "   midi.NoteOffEvent(tick=34, channel=0, data=[52, 0]),\n",
      "   midi.NoteOffEvent(tick=22, channel=0, data=[118, 0]),\n",
      "   midi.NoteOffEvent(tick=122, channel=0, data=[5, 0]),\n",
      "   midi.NoteOffEvent(tick=3, channel=0, data=[32, 0]),\n",
      "   midi.NoteOffEvent(tick=21, channel=0, data=[10, 0]),\n",
      "   midi.NoteOffEvent(tick=4, channel=0, data=[98, 0]),\n",
      "   midi.NoteOffEvent(tick=3, channel=0, data=[50, 0]),\n",
      "   midi.NoteOffEvent(tick=4, channel=0, data=[3, 0]),\n",
      "   midi.NoteOffEvent(tick=18, channel=0, data=[6, 0]),\n",
      "   midi.NoteOffEvent(tick=29, channel=0, data=[70, 0]),\n",
      "   midi.NoteOffEvent(tick=0, channel=0, data=[123, 0]),\n",
      "   midi.NoteOffEvent(tick=3, channel=0, data=[111, 0]),\n",
      "   midi.NoteOffEvent(tick=23, channel=0, data=[42, 0]),\n",
      "   midi.NoteOffEvent(tick=6, channel=0, data=[21, 0]),\n",
      "   midi.NoteOffEvent(tick=49, channel=0, data=[51, 0]),\n",
      "   midi.NoteOffEvent(tick=42, channel=0, data=[29, 0]),\n",
      "   midi.NoteOffEvent(tick=5, channel=0, data=[61, 0]),\n",
      "   midi.NoteOffEvent(tick=54, channel=0, data=[116, 0]),\n",
      "   midi.NoteOffEvent(tick=10, channel=0, data=[94, 0]),\n",
      "   midi.NoteOffEvent(tick=34, channel=0, data=[121, 0]),\n",
      "   midi.NoteOffEvent(tick=74, channel=0, data=[44, 0]),\n",
      "   midi.NoteOffEvent(tick=40, channel=0, data=[43, 0]),\n",
      "   midi.NoteOffEvent(tick=26, channel=0, data=[108, 0]),\n",
      "   midi.NoteOffEvent(tick=42, channel=0, data=[124, 0]),\n",
      "   midi.NoteOffEvent(tick=39, channel=0, data=[53, 0]),\n",
      "   midi.EndOfTrackEvent(tick=0, data=[])]),\n",
      " midi.Track(\\\n",
      "  [midi.SetTempoEvent(tick=0, data=[8, 227, 124]),\n",
      "   midi.ProgramChangeEvent(tick=0, channel=0, data=[16]),\n",
      "   midi.NoteOnEvent(tick=6, channel=0, data=[82, 149]),\n",
      "   midi.NoteOnEvent(tick=26, channel=0, data=[59, 29]),\n",
      "   midi.NoteOnEvent(tick=10, channel=0, data=[24, 166]),\n",
      "   midi.NoteOnEvent(tick=8, channel=0, data=[5, 39]),\n",
      "   midi.NoteOffEvent(tick=3, channel=0, data=[5, 0]),\n",
      "   midi.NoteOnEvent(tick=30, channel=0, data=[109, 60]),\n",
      "   midi.NoteOnEvent(tick=19, channel=0, data=[7, 215]),\n",
      "   midi.NoteOnEvent(tick=0, channel=0, data=[43, 227]),\n",
      "   midi.NoteOnEvent(tick=17, channel=0, data=[87, 154]),\n",
      "   midi.NoteOnEvent(tick=3, channel=0, data=[46, 209]),\n",
      "   midi.NoteOnEvent(tick=7, channel=0, data=[61, 231]),\n",
      "   midi.NoteOffEvent(tick=4, channel=0, data=[109, 0]),\n",
      "   midi.NoteOnEvent(tick=1, channel=0, data=[108, 110]),\n",
      "   midi.NoteOffEvent(tick=5, channel=0, data=[24, 0]),\n",
      "   midi.NoteOnEvent(tick=3, channel=0, data=[121, 229]),\n",
      "   midi.NoteOnEvent(tick=19, channel=0, data=[11, 246]),\n",
      "   midi.NoteOnEvent(tick=0, channel=0, data=[89, 210]),\n",
      "   midi.NoteOnEvent(tick=0, channel=0, data=[27, 3]),\n",
      "   midi.NoteOffEvent(tick=14, channel=0, data=[121, 0]),\n",
      "   midi.NoteOffEvent(tick=7, channel=0, data=[7, 0]),\n",
      "   midi.NoteOffEvent(tick=4, channel=0, data=[87, 0]),\n",
      "   midi.NoteOnEvent(tick=0, channel=0, data=[10, 81]),\n",
      "   midi.NoteOnEvent(tick=19, channel=0, data=[118, 188]),\n",
      "   midi.NoteOnEvent(tick=13, channel=0, data=[37, 215]),\n",
      "   midi.NoteOnEvent(tick=4, channel=0, data=[94, 2]),\n",
      "   midi.NoteOnEvent(tick=0, channel=0, data=[118, 35]),\n",
      "   midi.NoteOnEvent(tick=4, channel=0, data=[31, 102]),\n",
      "   midi.NoteOnEvent(tick=11, channel=0, data=[13, 235]),\n",
      "   midi.NoteOnEvent(tick=31, channel=0, data=[23, 215]),\n",
      "   midi.NoteOnEvent(tick=5, channel=0, data=[100, 69]),\n",
      "   midi.NoteOnEvent(tick=0, channel=0, data=[42, 8]),\n",
      "   midi.NoteOnEvent(tick=3, channel=0, data=[96, 25]),\n",
      "   midi.NoteOffEvent(tick=9, channel=0, data=[61, 0]),\n",
      "   midi.NoteOnEvent(tick=8, channel=0, data=[123, 93]),\n",
      "   midi.NoteOffEvent(tick=1, channel=0, data=[89, 0]),\n",
      "   midi.NoteOnEvent(tick=4, channel=0, data=[68, 161]),\n",
      "   midi.NoteOffEvent(tick=6, channel=0, data=[13, 0]),\n",
      "   midi.NoteOnEvent(tick=18, channel=0, data=[105, 227]),\n",
      "   midi.NoteOffEvent(tick=6, channel=0, data=[123, 0]),\n",
      "   midi.NoteOnEvent(tick=4, channel=0, data=[61, 2]),\n",
      "   midi.NoteOnEvent(tick=13, channel=0, data=[74, 79]),\n",
      "   midi.NoteOnEvent(tick=0, channel=0, data=[58, 68]),\n",
      "   midi.NoteOnEvent(tick=7, channel=0, data=[93, 102]),\n",
      "   midi.NoteOnEvent(tick=1, channel=0, data=[29, 85]),\n",
      "   midi.NoteOnEvent(tick=1, channel=0, data=[7, 31]),\n",
      "   midi.NoteOnEvent(tick=18, channel=0, data=[11, 206]),\n",
      "   midi.NoteOnEvent(tick=11, channel=0, data=[109, 129]),\n",
      "   midi.NoteOnEvent(tick=15, channel=0, data=[123, 101]),\n",
      "   midi.NoteOffEvent(tick=1, channel=0, data=[94, 0]),\n",
      "   midi.NoteOnEvent(tick=1, channel=0, data=[107, 254]),\n",
      "   midi.NoteOnEvent(tick=15, channel=0, data=[120, 96]),\n",
      "   midi.NoteOffEvent(tick=6, channel=0, data=[29, 0]),\n",
      "   midi.NoteOffEvent(tick=8, channel=0, data=[109, 0]),\n",
      "   midi.NoteOnEvent(tick=9, channel=0, data=[105, 60]),\n",
      "   midi.NoteOnEvent(tick=0, channel=0, data=[64, 231]),\n",
      "   midi.NoteOnEvent(tick=29, channel=0, data=[2, 113]),\n",
      "   midi.NoteOnEvent(tick=6, channel=0, data=[120, 108]),\n",
      "   midi.NoteOnEvent(tick=2, channel=0, data=[113, 173]),\n",
      "   midi.NoteOnEvent(tick=2, channel=0, data=[121, 214]),\n",
      "   midi.NoteOnEvent(tick=4, channel=0, data=[5, 244]),\n",
      "   midi.NoteOffEvent(tick=1, channel=0, data=[61, 0]),\n",
      "   midi.NoteOnEvent(tick=4, channel=0, data=[11, 0]),\n",
      "   midi.NoteOnEvent(tick=3, channel=0, data=[64, 98]),\n",
      "   midi.NoteOffEvent(tick=8, channel=0, data=[42, 0]),\n",
      "   midi.NoteOffEvent(tick=14, channel=0, data=[121, 0]),\n",
      "   midi.NoteOnEvent(tick=5, channel=0, data=[104, 217]),\n",
      "   midi.NoteOnEvent(tick=6, channel=0, data=[23, 132]),\n",
      "   midi.NoteOnEvent(tick=8, channel=0, data=[105, 201]),\n",
      "   midi.NoteOffEvent(tick=16, channel=0, data=[100, 0]),\n",
      "   midi.NoteOnEvent(tick=11, channel=0, data=[49, 216]),\n",
      "   midi.NoteOffEvent(tick=1, channel=0, data=[5, 0]),\n",
      "   midi.NoteOffEvent(tick=8, channel=0, data=[123, 0]),\n",
      "   midi.NoteOffEvent(tick=17, channel=0, data=[46, 0]),\n",
      "   midi.NoteOffEvent(tick=4, channel=0, data=[59, 0]),\n",
      "   midi.NoteOnEvent(tick=4, channel=0, data=[28, 99]),\n",
      "   midi.NoteOnEvent(tick=0, channel=0, data=[80, 246]),\n",
      "   midi.NoteOnEvent(tick=2, channel=0, data=[127, 240]),\n",
      "   midi.NoteOffEvent(tick=3, channel=0, data=[23, 0]),\n",
      "   midi.NoteOnEvent(tick=7, channel=0, data=[48, 176]),\n",
      "   midi.NoteOnEvent(tick=13, channel=0, data=[126, 208]),\n",
      "   midi.NoteOnEvent(tick=19, channel=0, data=[61, 195]),\n",
      "   midi.NoteOnEvent(tick=12, channel=0, data=[100, 93]),\n",
      "   midi.NoteOnEvent(tick=10, channel=0, data=[105, 253]),\n",
      "   midi.NoteOnEvent(tick=0, channel=0, data=[88, 71]),\n",
      "   midi.NoteOnEvent(tick=4, channel=0, data=[89, 46]),\n",
      "   midi.NoteOffEvent(tick=15, channel=0, data=[113, 0]),\n",
      "   midi.NoteOnEvent(tick=1, channel=0, data=[38, 226]),\n",
      "   midi.NoteOffEvent(tick=2, channel=0, data=[89, 0]),\n",
      "   midi.NoteOnEvent(tick=26, channel=0, data=[87, 217]),\n",
      "   midi.NoteOffEvent(tick=7, channel=0, data=[93, 0]),\n",
      "   midi.NoteOnEvent(tick=1, channel=0, data=[15, 44]),\n",
      "   midi.NoteOffEvent(tick=2, channel=0, data=[49, 0]),\n",
      "   midi.NoteOnEvent(tick=12, channel=0, data=[110, 22]),\n",
      "   midi.NoteOnEvent(tick=10, channel=0, data=[2, 150]),\n",
      "   midi.NoteOnEvent(tick=2, channel=0, data=[61, 145]),\n",
      "   midi.NoteOnEvent(tick=1, channel=0, data=[16, 88]),\n",
      "   midi.NoteOnEvent(tick=1, channel=0, data=[106, 232]),\n",
      "   midi.NoteOffEvent(tick=2, channel=0, data=[120, 0]),\n",
      "   midi.NoteOffEvent(tick=14, channel=0, data=[74, 0]),\n",
      "   midi.NoteOnEvent(tick=15, channel=0, data=[33, 146]),\n",
      "   midi.NoteOnEvent(tick=7, channel=0, data=[102, 159]),\n",
      "   midi.NoteOffEvent(tick=14, channel=0, data=[10, 0]),\n",
      "   midi.NoteOnEvent(tick=8, channel=0, data=[63, 33]),\n",
      "   midi.NoteOffEvent(tick=23, channel=0, data=[105, 0]),\n",
      "   midi.NoteOnEvent(tick=20, channel=0, data=[99, 81]),\n",
      "   midi.NoteOffEvent(tick=15, channel=0, data=[106, 0]),\n",
      "   midi.NoteOffEvent(tick=20, channel=0, data=[96, 0]),\n",
      "   midi.NoteOffEvent(tick=4, channel=0, data=[104, 0]),\n",
      "   midi.NoteOffEvent(tick=17, channel=0, data=[82, 0]),\n",
      "   midi.NoteOnEvent(tick=2, channel=0, data=[104, 18]),\n",
      "   midi.NoteOffEvent(tick=13, channel=0, data=[102, 0]),\n",
      "   midi.NoteOffEvent(tick=3, channel=0, data=[37, 0]),\n",
      "   midi.NoteOffEvent(tick=27, channel=0, data=[107, 0]),\n",
      "   midi.NoteOffEvent(tick=3, channel=0, data=[80, 0]),\n",
      "   midi.NoteOffEvent(tick=5, channel=0, data=[27, 0]),\n",
      "   midi.NoteOnEvent(tick=2, channel=0, data=[67, 173]),\n",
      "   midi.NoteOffEvent(tick=24, channel=0, data=[63, 0]),\n",
      "   midi.NoteOffEvent(tick=5, channel=0, data=[11, 0]),\n",
      "   midi.NoteOffEvent(tick=3, channel=0, data=[87, 0]),\n",
      "   midi.NoteOffEvent(tick=41, channel=0, data=[31, 0]),\n",
      "   midi.NoteOffEvent(tick=11, channel=0, data=[88, 0]),\n",
      "   midi.NoteOffEvent(tick=25, channel=0, data=[108, 0]),\n",
      "   midi.NoteOffEvent(tick=18, channel=0, data=[43, 0]),\n",
      "   midi.NoteOffEvent(tick=4, channel=0, data=[58, 0]),\n",
      "   midi.NoteOffEvent(tick=15, channel=0, data=[127, 0]),\n",
      "   midi.NoteOffEvent(tick=27, channel=0, data=[16, 0]),\n",
      "   midi.NoteOffEvent(tick=5, channel=0, data=[118, 0]),\n",
      "   midi.NoteOffEvent(tick=58, channel=0, data=[99, 0]),\n",
      "   midi.NoteOffEvent(tick=3, channel=0, data=[100, 0]),\n",
      "   midi.NoteOffEvent(tick=1, channel=0, data=[7, 0]),\n",
      "   midi.NoteOffEvent(tick=24, channel=0, data=[15, 0]),\n",
      "   midi.NoteOffEvent(tick=26, channel=0, data=[48, 0]),\n",
      "   midi.NoteOffEvent(tick=21, channel=0, data=[104, 0]),\n",
      "   midi.NoteOffEvent(tick=31, channel=0, data=[68, 0]),\n",
      "   midi.NoteOffEvent(tick=108, channel=0, data=[64, 0]),\n",
      "   midi.NoteOffEvent(tick=14, channel=0, data=[38, 0]),\n",
      "   midi.NoteOffEvent(tick=27, channel=0, data=[126, 0]),\n",
      "   midi.NoteOffEvent(tick=2, channel=0, data=[61, 0]),\n",
      "   midi.NoteOffEvent(tick=61, channel=0, data=[2, 0]),\n",
      "   midi.NoteOffEvent(tick=17, channel=0, data=[67, 0]),\n",
      "   midi.NoteOffEvent(tick=9, channel=0, data=[28, 0]),\n",
      "   midi.NoteOffEvent(tick=52, channel=0, data=[110, 0]),\n",
      "   midi.NoteOffEvent(tick=20, channel=0, data=[33, 0]),\n",
      "   midi.EndOfTrackEvent(tick=0, data=[])]),\n",
      " midi.Track(\\\n",
      "  [midi.SetTempoEvent(tick=0, data=[8, 227, 124]),\n",
      "   midi.ProgramChangeEvent(tick=0, channel=0, data=[17]),\n",
      "   midi.NoteOnEvent(tick=8, channel=0, data=[38, 47]),\n",
      "   midi.NoteOnEvent(tick=5, channel=0, data=[112, 115]),\n",
      "   midi.NoteOnEvent(tick=9, channel=0, data=[77, 74]),\n",
      "   midi.NoteOnEvent(tick=8, channel=0, data=[118, 58]),\n",
      "   midi.NoteOnEvent(tick=12, channel=0, data=[63, 122]),\n",
      "   midi.NoteOnEvent(tick=11, channel=0, data=[7, 218]),\n",
      "   midi.NoteOnEvent(tick=1, channel=0, data=[11, 255]),\n",
      "   midi.NoteOnEvent(tick=14, channel=0, data=[29, 157]),\n",
      "   midi.NoteOnEvent(tick=0, channel=0, data=[17, 100]),\n",
      "   midi.NoteOnEvent(tick=10, channel=0, data=[113, 181]),\n",
      "   midi.NoteOnEvent(tick=1, channel=0, data=[89, 94]),\n",
      "   midi.NoteOnEvent(tick=4, channel=0, data=[33, 132]),\n",
      "   midi.NoteOffEvent(tick=17, channel=0, data=[77, 0]),\n",
      "   midi.NoteOnEvent(tick=15, channel=0, data=[79, 213]),\n",
      "   midi.NoteOnEvent(tick=8, channel=0, data=[60, 19]),\n",
      "   midi.NoteOnEvent(tick=9, channel=0, data=[91, 19]),\n",
      "   midi.NoteOnEvent(tick=2, channel=0, data=[42, 25]),\n",
      "   midi.NoteOnEvent(tick=3, channel=0, data=[66, 149]),\n",
      "   midi.NoteOffEvent(tick=17, channel=0, data=[60, 0]),\n",
      "   midi.NoteOnEvent(tick=36, channel=0, data=[114, 61]),\n",
      "   midi.NoteOnEvent(tick=0, channel=0, data=[119, 97]),\n",
      "   midi.NoteOnEvent(tick=27, channel=0, data=[114, 114]),\n",
      "   midi.NoteOnEvent(tick=9, channel=0, data=[61, 32]),\n",
      "   midi.NoteOnEvent(tick=5, channel=0, data=[8, 212]),\n",
      "   midi.NoteOnEvent(tick=26, channel=0, data=[18, 212]),\n",
      "   midi.NoteOffEvent(tick=49, channel=0, data=[91, 0]),\n",
      "   midi.NoteOnEvent(tick=7, channel=0, data=[23, 136]),\n",
      "   midi.NoteOnEvent(tick=22, channel=0, data=[69, 207]),\n",
      "   midi.NoteOffEvent(tick=4, channel=0, data=[17, 0]),\n",
      "   midi.NoteOffEvent(tick=2, channel=0, data=[11, 0]),\n",
      "   midi.NoteOnEvent(tick=9, channel=0, data=[69, 193]),\n",
      "   midi.NoteOffEvent(tick=26, channel=0, data=[112, 0]),\n",
      "   midi.NoteOnEvent(tick=10, channel=0, data=[118, 110]),\n",
      "   midi.NoteOffEvent(tick=1, channel=0, data=[23, 0]),\n",
      "   midi.NoteOnEvent(tick=11, channel=0, data=[26, 165]),\n",
      "   midi.NoteOnEvent(tick=4, channel=0, data=[16, 64]),\n",
      "   midi.NoteOnEvent(tick=19, channel=0, data=[98, 91]),\n",
      "   midi.NoteOnEvent(tick=6, channel=0, data=[8, 225]),\n",
      "   midi.NoteOffEvent(tick=4, channel=0, data=[89, 0]),\n",
      "   midi.NoteOnEvent(tick=4, channel=0, data=[77, 5]),\n",
      "   midi.NoteOnEvent(tick=16, channel=0, data=[104, 151]),\n",
      "   midi.NoteOnEvent(tick=22, channel=0, data=[120, 118]),\n",
      "   midi.NoteOnEvent(tick=13, channel=0, data=[115, 198]),\n",
      "   midi.NoteOnEvent(tick=3, channel=0, data=[42, 165]),\n",
      "   midi.NoteOffEvent(tick=27, channel=0, data=[61, 0]),\n",
      "   midi.NoteOffEvent(tick=3, channel=0, data=[63, 0]),\n",
      "   midi.NoteOnEvent(tick=0, channel=0, data=[68, 179]),\n",
      "   midi.NoteOffEvent(tick=11, channel=0, data=[33, 0]),\n",
      "   midi.NoteOnEvent(tick=2, channel=0, data=[85, 172]),\n",
      "   midi.NoteOnEvent(tick=3, channel=0, data=[51, 235]),\n",
      "   midi.NoteOnEvent(tick=11, channel=0, data=[72, 232]),\n",
      "   midi.NoteOnEvent(tick=1, channel=0, data=[73, 202]),\n",
      "   midi.NoteOnEvent(tick=7, channel=0, data=[87, 163]),\n",
      "   midi.NoteOnEvent(tick=3, channel=0, data=[99, 31]),\n",
      "   midi.NoteOffEvent(tick=19, channel=0, data=[119, 0]),\n",
      "   midi.NoteOffEvent(tick=13, channel=0, data=[68, 0]),\n",
      "   midi.NoteOnEvent(tick=2, channel=0, data=[54, 35]),\n",
      "   midi.NoteOnEvent(tick=2, channel=0, data=[53, 76]),\n",
      "   midi.NoteOffEvent(tick=2, channel=0, data=[79, 0]),\n",
      "   midi.NoteOnEvent(tick=8, channel=0, data=[96, 50]),\n",
      "   midi.NoteOnEvent(tick=11, channel=0, data=[67, 35]),\n",
      "   midi.NoteOnEvent(tick=2, channel=0, data=[37, 158]),\n",
      "   midi.NoteOnEvent(tick=0, channel=0, data=[113, 24]),\n",
      "   midi.NoteOnEvent(tick=16, channel=0, data=[113, 138]),\n",
      "   midi.NoteOnEvent(tick=11, channel=0, data=[64, 195]),\n",
      "   midi.NoteOnEvent(tick=10, channel=0, data=[64, 48]),\n",
      "   midi.NoteOnEvent(tick=7, channel=0, data=[59, 223]),\n",
      "   midi.NoteOffEvent(tick=9, channel=0, data=[38, 0]),\n",
      "   midi.NoteOffEvent(tick=11, channel=0, data=[104, 0]),\n",
      "   midi.NoteOnEvent(tick=4, channel=0, data=[48, 185]),\n",
      "   midi.NoteOnEvent(tick=6, channel=0, data=[42, 189]),\n",
      "   midi.NoteOffEvent(tick=5, channel=0, data=[8, 0]),\n",
      "   midi.NoteOnEvent(tick=18, channel=0, data=[57, 83]),\n",
      "   midi.NoteOnEvent(tick=0, channel=0, data=[27, 164]),\n",
      "   midi.NoteOffEvent(tick=3, channel=0, data=[64, 0]),\n",
      "   midi.NoteOffEvent(tick=0, channel=0, data=[87, 0]),\n",
      "   midi.NoteOnEvent(tick=1, channel=0, data=[2, 111]),\n",
      "   midi.NoteOnEvent(tick=9, channel=0, data=[58, 151]),\n",
      "   midi.NoteOnEvent(tick=11, channel=0, data=[54, 215]),\n",
      "   midi.NoteOnEvent(tick=0, channel=0, data=[10, 52]),\n",
      "   midi.NoteOffEvent(tick=13, channel=0, data=[16, 0]),\n",
      "   midi.NoteOnEvent(tick=12, channel=0, data=[114, 186]),\n",
      "   midi.NoteOffEvent(tick=6, channel=0, data=[115, 0]),\n",
      "   midi.NoteOffEvent(tick=32, channel=0, data=[96, 0]),\n",
      "   midi.NoteOffEvent(tick=2, channel=0, data=[120, 0]),\n",
      "   midi.NoteOffEvent(tick=2, channel=0, data=[118, 0]),\n",
      "   midi.NoteOffEvent(tick=12, channel=0, data=[114, 0]),\n",
      "   midi.NoteOffEvent(tick=1, channel=0, data=[57, 0]),\n",
      "   midi.NoteOffEvent(tick=7, channel=0, data=[58, 0]),\n",
      "   midi.NoteOffEvent(tick=1, channel=0, data=[29, 0]),\n",
      "   midi.NoteOffEvent(tick=1, channel=0, data=[10, 0]),\n",
      "   midi.NoteOffEvent(tick=0, channel=0, data=[69, 0]),\n",
      "   midi.NoteOffEvent(tick=10, channel=0, data=[99, 0]),\n",
      "   midi.NoteOffEvent(tick=9, channel=0, data=[59, 0]),\n",
      "   midi.NoteOnEvent(tick=5, channel=0, data=[55, 37]),\n",
      "   midi.NoteOffEvent(tick=21, channel=0, data=[98, 0]),\n",
      "   midi.NoteOnEvent(tick=6, channel=0, data=[52, 95]),\n",
      "   midi.NoteOffEvent(tick=8, channel=0, data=[67, 0]),\n",
      "   midi.NoteOffEvent(tick=13, channel=0, data=[42, 0]),\n",
      "   midi.NoteOnEvent(tick=6, channel=0, data=[82, 177]),\n",
      "   midi.NoteOffEvent(tick=3, channel=0, data=[72, 0]),\n",
      "   midi.NoteOffEvent(tick=9, channel=0, data=[27, 0]),\n",
      "   midi.NoteOffEvent(tick=4, channel=0, data=[66, 0]),\n",
      "   midi.NoteOnEvent(tick=18, channel=0, data=[22, 111]),\n",
      "   midi.NoteOnEvent(tick=20, channel=0, data=[29, 37]),\n",
      "   midi.NoteOffEvent(tick=12, channel=0, data=[7, 0]),\n",
      "   midi.NoteOnEvent(tick=7, channel=0, data=[99, 147]),\n",
      "   midi.NoteOnEvent(tick=2, channel=0, data=[100, 191]),\n",
      "   midi.NoteOnEvent(tick=2, channel=0, data=[83, 94]),\n",
      "   midi.NoteOnEvent(tick=17, channel=0, data=[3, 50]),\n",
      "   midi.NoteOnEvent(tick=1, channel=0, data=[74, 57]),\n",
      "   midi.NoteOffEvent(tick=9, channel=0, data=[18, 0]),\n",
      "   midi.NoteOffEvent(tick=5, channel=0, data=[100, 0]),\n",
      "   midi.NoteOffEvent(tick=84, channel=0, data=[83, 0]),\n",
      "   midi.NoteOffEvent(tick=5, channel=0, data=[29, 0]),\n",
      "   midi.NoteOffEvent(tick=1, channel=0, data=[26, 0]),\n",
      "   midi.NoteOffEvent(tick=105, channel=0, data=[51, 0]),\n",
      "   midi.NoteOffEvent(tick=30, channel=0, data=[85, 0]),\n",
      "   midi.NoteOffEvent(tick=19, channel=0, data=[54, 0]),\n",
      "   midi.NoteOffEvent(tick=18, channel=0, data=[82, 0]),\n",
      "   midi.NoteOffEvent(tick=45, channel=0, data=[73, 0]),\n",
      "   midi.NoteOffEvent(tick=12, channel=0, data=[53, 0]),\n",
      "   midi.NoteOffEvent(tick=21, channel=0, data=[113, 0]),\n",
      "   midi.NoteOffEvent(tick=12, channel=0, data=[77, 0]),\n",
      "   midi.NoteOffEvent(tick=13, channel=0, data=[37, 0]),\n",
      "   midi.NoteOffEvent(tick=20, channel=0, data=[52, 0]),\n",
      "   midi.NoteOffEvent(tick=54, channel=0, data=[74, 0]),\n",
      "   midi.NoteOffEvent(tick=21, channel=0, data=[55, 0]),\n",
      "   midi.NoteOffEvent(tick=45, channel=0, data=[48, 0]),\n",
      "   midi.NoteOffEvent(tick=105, channel=0, data=[3, 0]),\n",
      "   midi.NoteOffEvent(tick=24, channel=0, data=[2, 0]),\n",
      "   midi.NoteOffEvent(tick=38, channel=0, data=[22, 0]),\n",
      "   midi.NoteOffEvent(tick=290, channel=0, data=[99, 0]),\n",
      "   midi.EndOfTrackEvent(tick=0, data=[])]),\n",
      " midi.Track(\\\n",
      "  [midi.SetTempoEvent(tick=0, data=[8, 227, 124]),\n",
      "   midi.ProgramChangeEvent(tick=0, channel=0, data=[18]),\n",
      "   midi.NoteOnEvent(tick=8, channel=0, data=[44, 196]),\n",
      "   midi.NoteOnEvent(tick=60, channel=0, data=[74, 238]),\n",
      "   midi.NoteOnEvent(tick=10, channel=0, data=[96, 110]),\n",
      "   midi.NoteOnEvent(tick=5, channel=0, data=[62, 110]),\n",
      "   midi.NoteOnEvent(tick=14, channel=0, data=[21, 115]),\n",
      "   midi.NoteOnEvent(tick=7, channel=0, data=[42, 125]),\n",
      "   midi.NoteOffEvent(tick=11, channel=0, data=[42, 0]),\n",
      "   midi.NoteOnEvent(tick=0, channel=0, data=[55, 134]),\n",
      "   midi.NoteOffEvent(tick=15, channel=0, data=[74, 0]),\n",
      "   midi.NoteOnEvent(tick=0, channel=0, data=[95, 28]),\n",
      "   midi.NoteOnEvent(tick=2, channel=0, data=[16, 138]),\n",
      "   midi.NoteOnEvent(tick=6, channel=0, data=[50, 209]),\n",
      "   midi.NoteOnEvent(tick=5, channel=0, data=[115, 93]),\n",
      "   midi.NoteOffEvent(tick=5, channel=0, data=[44, 0]),\n",
      "   midi.NoteOnEvent(tick=33, channel=0, data=[73, 29]),\n",
      "   midi.NoteOnEvent(tick=2, channel=0, data=[63, 140]),\n",
      "   midi.NoteOnEvent(tick=14, channel=0, data=[107, 15]),\n",
      "   midi.NoteOnEvent(tick=8, channel=0, data=[4, 201]),\n",
      "   midi.NoteOnEvent(tick=2, channel=0, data=[6, 80]),\n",
      "   midi.NoteOnEvent(tick=1, channel=0, data=[37, 113]),\n",
      "   midi.NoteOnEvent(tick=10, channel=0, data=[123, 150]),\n",
      "   midi.NoteOnEvent(tick=2, channel=0, data=[46, 254]),\n",
      "   midi.NoteOnEvent(tick=45, channel=0, data=[127, 90]),\n",
      "   midi.NoteOnEvent(tick=3, channel=0, data=[46, 164]),\n",
      "   midi.NoteOnEvent(tick=12, channel=0, data=[18, 138]),\n",
      "   midi.NoteOffEvent(tick=2, channel=0, data=[107, 0]),\n",
      "   midi.NoteOnEvent(tick=11, channel=0, data=[23, 168]),\n",
      "   midi.NoteOffEvent(tick=2, channel=0, data=[95, 0]),\n",
      "   midi.NoteOffEvent(tick=15, channel=0, data=[18, 0]),\n",
      "   midi.NoteOnEvent(tick=8, channel=0, data=[97, 191]),\n",
      "   midi.NoteOnEvent(tick=4, channel=0, data=[8, 128]),\n",
      "   midi.NoteOnEvent(tick=15, channel=0, data=[82, 82]),\n",
      "   midi.NoteOnEvent(tick=8, channel=0, data=[6, 59]),\n",
      "   midi.NoteOnEvent(tick=0, channel=0, data=[19, 166]),\n",
      "   midi.NoteOnEvent(tick=4, channel=0, data=[103, 226]),\n",
      "   midi.NoteOnEvent(tick=37, channel=0, data=[115, 75]),\n",
      "   midi.NoteOnEvent(tick=14, channel=0, data=[104, 252]),\n",
      "   midi.NoteOnEvent(tick=4, channel=0, data=[91, 51]),\n",
      "   midi.NoteOffEvent(tick=14, channel=0, data=[46, 0]),\n",
      "   midi.NoteOffEvent(tick=8, channel=0, data=[4, 0]),\n",
      "   midi.NoteOnEvent(tick=28, channel=0, data=[58, 181]),\n",
      "   midi.NoteOnEvent(tick=13, channel=0, data=[34, 253]),\n",
      "   midi.NoteOffEvent(tick=13, channel=0, data=[127, 0]),\n",
      "   midi.NoteOnEvent(tick=25, channel=0, data=[69, 7]),\n",
      "   midi.NoteOnEvent(tick=3, channel=0, data=[28, 84]),\n",
      "   midi.NoteOffEvent(tick=6, channel=0, data=[69, 0]),\n",
      "   midi.NoteOnEvent(tick=0, channel=0, data=[6, 177]),\n",
      "   midi.NoteOnEvent(tick=8, channel=0, data=[80, 212]),\n",
      "   midi.NoteOffEvent(tick=6, channel=0, data=[16, 0]),\n",
      "   midi.NoteOnEvent(tick=69, channel=0, data=[61, 166]),\n",
      "   midi.NoteOffEvent(tick=29, channel=0, data=[34, 0]),\n",
      "   midi.NoteOnEvent(tick=0, channel=0, data=[103, 61]),\n",
      "   midi.NoteOnEvent(tick=9, channel=0, data=[106, 64]),\n",
      "   midi.NoteOnEvent(tick=16, channel=0, data=[36, 191]),\n",
      "   midi.NoteOffEvent(tick=22, channel=0, data=[28, 0]),\n",
      "   midi.NoteOffEvent(tick=7, channel=0, data=[80, 0]),\n",
      "   midi.NoteOffEvent(tick=26, channel=0, data=[123, 0]),\n",
      "   midi.NoteOnEvent(tick=12, channel=0, data=[26, 188]),\n",
      "   midi.NoteOnEvent(tick=1, channel=0, data=[49, 146]),\n",
      "   midi.NoteOnEvent(tick=31, channel=0, data=[66, 249]),\n",
      "   midi.NoteOnEvent(tick=2, channel=0, data=[61, 62]),\n",
      "   midi.NoteOnEvent(tick=3, channel=0, data=[25, 158]),\n",
      "   midi.NoteOnEvent(tick=5, channel=0, data=[35, 17]),\n",
      "   midi.NoteOnEvent(tick=17, channel=0, data=[32, 47]),\n",
      "   midi.NoteOffEvent(tick=2, channel=0, data=[26, 0]),\n",
      "   midi.NoteOnEvent(tick=7, channel=0, data=[20, 131]),\n",
      "   midi.NoteOffEvent(tick=35, channel=0, data=[32, 0]),\n",
      "   midi.NoteOffEvent(tick=5, channel=0, data=[103, 0]),\n",
      "   midi.NoteOffEvent(tick=18, channel=0, data=[36, 0]),\n",
      "   midi.NoteOnEvent(tick=11, channel=0, data=[75, 87]),\n",
      "   midi.NoteOffEvent(tick=2, channel=0, data=[104, 0]),\n",
      "   midi.NoteOffEvent(tick=5, channel=0, data=[23, 0]),\n",
      "   midi.NoteOnEvent(tick=13, channel=0, data=[38, 122]),\n",
      "   midi.NoteOffEvent(tick=12, channel=0, data=[49, 0]),\n",
      "   midi.NoteOnEvent(tick=0, channel=0, data=[114, 198]),\n",
      "   midi.NoteOffEvent(tick=4, channel=0, data=[35, 0]),\n",
      "   midi.NoteOffEvent(tick=5, channel=0, data=[62, 0]),\n",
      "   midi.NoteOffEvent(tick=21, channel=0, data=[50, 0]),\n",
      "   midi.NoteOffEvent(tick=5, channel=0, data=[73, 0]),\n",
      "   midi.NoteOnEvent(tick=3, channel=0, data=[21, 136]),\n",
      "   midi.NoteOffEvent(tick=2, channel=0, data=[115, 0]),\n",
      "   midi.NoteOffEvent(tick=2, channel=0, data=[82, 0]),\n",
      "   midi.NoteOnEvent(tick=2, channel=0, data=[3, 25]),\n",
      "   midi.NoteOnEvent(tick=8, channel=0, data=[120, 220]),\n",
      "   midi.NoteOffEvent(tick=30, channel=0, data=[25, 0]),\n",
      "   midi.NoteOffEvent(tick=0, channel=0, data=[96, 0]),\n",
      "   midi.NoteOnEvent(tick=10, channel=0, data=[100, 135]),\n",
      "   midi.NoteOffEvent(tick=17, channel=0, data=[100, 0]),\n",
      "   midi.NoteOnEvent(tick=3, channel=0, data=[13, 6]),\n",
      "   midi.NoteOffEvent(tick=18, channel=0, data=[63, 0]),\n",
      "   midi.NoteOffEvent(tick=5, channel=0, data=[55, 0]),\n",
      "   midi.NoteOffEvent(tick=25, channel=0, data=[8, 0]),\n",
      "   midi.NoteOffEvent(tick=34, channel=0, data=[21, 0]),\n",
      "   midi.NoteOffEvent(tick=20, channel=0, data=[37, 0]),\n",
      "   midi.NoteOffEvent(tick=59, channel=0, data=[3, 0]),\n",
      "   midi.NoteOffEvent(tick=14, channel=0, data=[19, 0]),\n",
      "   midi.NoteOffEvent(tick=34, channel=0, data=[58, 0]),\n",
      "   midi.NoteOffEvent(tick=29, channel=0, data=[97, 0]),\n",
      "   midi.NoteOffEvent(tick=54, channel=0, data=[6, 0]),\n",
      "   midi.NoteOffEvent(tick=3, channel=0, data=[91, 0]),\n",
      "   midi.NoteOffEvent(tick=6, channel=0, data=[75, 0]),\n",
      "   midi.NoteOffEvent(tick=187, channel=0, data=[114, 0]),\n",
      "   midi.NoteOffEvent(tick=45, channel=0, data=[20, 0]),\n",
      "   midi.NoteOffEvent(tick=5, channel=0, data=[106, 0]),\n",
      "   midi.NoteOffEvent(tick=64, channel=0, data=[61, 0]),\n",
      "   midi.NoteOffEvent(tick=3, channel=0, data=[38, 0]),\n",
      "   midi.NoteOffEvent(tick=56, channel=0, data=[13, 0]),\n",
      "   midi.NoteOffEvent(tick=10, channel=0, data=[66, 0]),\n",
      "   midi.NoteOffEvent(tick=96, channel=0, data=[120, 0]),\n",
      "   midi.EndOfTrackEvent(tick=0, data=[])]),\n",
      " midi.Track(\\\n",
      "  [midi.SetTempoEvent(tick=0, data=[8, 227, 124]),\n",
      "   midi.ProgramChangeEvent(tick=0, channel=0, data=[19]),\n",
      "   midi.NoteOnEvent(tick=16, channel=0, data=[93, 60]),\n",
      "   midi.NoteOnEvent(tick=31, channel=0, data=[59, 232]),\n",
      "   midi.NoteOnEvent(tick=21, channel=0, data=[111, 53]),\n",
      "   midi.NoteOnEvent(tick=11, channel=0, data=[34, 58]),\n",
      "   midi.NoteOnEvent(tick=4, channel=0, data=[58, 74]),\n",
      "   midi.NoteOnEvent(tick=16, channel=0, data=[31, 190]),\n",
      "   midi.NoteOffEvent(tick=23, channel=0, data=[31, 0]),\n",
      "   midi.NoteOffEvent(tick=4, channel=0, data=[34, 0]),\n",
      "   midi.NoteOnEvent(tick=4, channel=0, data=[59, 103]),\n",
      "   midi.NoteOnEvent(tick=2, channel=0, data=[65, 186]),\n",
      "   midi.NoteOnEvent(tick=2, channel=0, data=[10, 235]),\n",
      "   midi.NoteOnEvent(tick=56, channel=0, data=[54, 226]),\n",
      "   midi.NoteOnEvent(tick=10, channel=0, data=[1, 14]),\n",
      "   midi.NoteOnEvent(tick=26, channel=0, data=[24, 148]),\n",
      "   midi.NoteOffEvent(tick=14, channel=0, data=[59, 0]),\n",
      "   midi.NoteOnEvent(tick=14, channel=0, data=[35, 14]),\n",
      "   midi.NoteOnEvent(tick=55, channel=0, data=[65, 83]),\n",
      "   midi.NoteOffEvent(tick=29, channel=0, data=[111, 0]),\n",
      "   midi.NoteOnEvent(tick=11, channel=0, data=[4, 27]),\n",
      "   midi.NoteOnEvent(tick=5, channel=0, data=[22, 196]),\n",
      "   midi.NoteOffEvent(tick=1, channel=0, data=[93, 0]),\n",
      "   midi.NoteOnEvent(tick=2, channel=0, data=[66, 105]),\n",
      "   midi.NoteOffEvent(tick=35, channel=0, data=[35, 0]),\n",
      "   midi.NoteOnEvent(tick=14, channel=0, data=[25, 208]),\n",
      "   midi.NoteOnEvent(tick=9, channel=0, data=[32, 205]),\n",
      "   midi.NoteOnEvent(tick=25, channel=0, data=[67, 3]),\n",
      "   midi.NoteOffEvent(tick=17, channel=0, data=[66, 0]),\n",
      "   midi.NoteOnEvent(tick=34, channel=0, data=[112, 22]),\n",
      "   midi.NoteOnEvent(tick=28, channel=0, data=[112, 66]),\n",
      "   midi.NoteOnEvent(tick=35, channel=0, data=[53, 93]),\n",
      "   midi.NoteOnEvent(tick=4, channel=0, data=[115, 143]),\n",
      "   midi.NoteOnEvent(tick=3, channel=0, data=[43, 40]),\n",
      "   midi.NoteOnEvent(tick=29, channel=0, data=[91, 165]),\n",
      "   midi.NoteOnEvent(tick=3, channel=0, data=[30, 77]),\n",
      "   midi.NoteOnEvent(tick=39, channel=0, data=[94, 194]),\n",
      "   midi.NoteOffEvent(tick=12, channel=0, data=[94, 0]),\n",
      "   midi.NoteOnEvent(tick=4, channel=0, data=[31, 199]),\n",
      "   midi.NoteOnEvent(tick=5, channel=0, data=[3, 203]),\n",
      "   midi.NoteOffEvent(tick=16, channel=0, data=[24, 0]),\n",
      "   midi.NoteOnEvent(tick=0, channel=0, data=[13, 226]),\n",
      "   midi.NoteOffEvent(tick=3, channel=0, data=[32, 0]),\n",
      "   midi.NoteOnEvent(tick=8, channel=0, data=[112, 253]),\n",
      "   midi.NoteOnEvent(tick=10, channel=0, data=[61, 196]),\n",
      "   midi.NoteOnEvent(tick=3, channel=0, data=[108, 83]),\n",
      "   midi.NoteOffEvent(tick=5, channel=0, data=[61, 0]),\n",
      "   midi.NoteOffEvent(tick=2, channel=0, data=[53, 0]),\n",
      "   midi.NoteOnEvent(tick=32, channel=0, data=[126, 2]),\n",
      "   midi.NoteOnEvent(tick=1, channel=0, data=[79, 1]),\n",
      "   midi.NoteOnEvent(tick=27, channel=0, data=[17, 102]),\n",
      "   midi.NoteOnEvent(tick=1, channel=0, data=[48, 205]),\n",
      "   midi.NoteOnEvent(tick=1, channel=0, data=[18, 72]),\n",
      "   midi.NoteOffEvent(tick=17, channel=0, data=[54, 0]),\n",
      "   midi.NoteOnEvent(tick=4, channel=0, data=[2, 31]),\n",
      "   midi.NoteOnEvent(tick=13, channel=0, data=[127, 4]),\n",
      "   midi.NoteOnEvent(tick=0, channel=0, data=[122, 242]),\n",
      "   midi.NoteOffEvent(tick=6, channel=0, data=[65, 0]),\n",
      "   midi.NoteOnEvent(tick=12, channel=0, data=[102, 247]),\n",
      "   midi.NoteOffEvent(tick=3, channel=0, data=[30, 0]),\n",
      "   midi.NoteOffEvent(tick=3, channel=0, data=[122, 0]),\n",
      "   midi.NoteOffEvent(tick=1, channel=0, data=[126, 0]),\n",
      "   midi.NoteOnEvent(tick=10, channel=0, data=[116, 123]),\n",
      "   midi.NoteOnEvent(tick=13, channel=0, data=[29, 48]),\n",
      "   midi.NoteOnEvent(tick=11, channel=0, data=[123, 152]),\n",
      "   midi.NoteOffEvent(tick=2, channel=0, data=[31, 0]),\n",
      "   midi.NoteOffEvent(tick=2, channel=0, data=[25, 0]),\n",
      "   midi.NoteOffEvent(tick=15, channel=0, data=[123, 0]),\n",
      "   midi.NoteOffEvent(tick=7, channel=0, data=[13, 0]),\n",
      "   midi.NoteOnEvent(tick=6, channel=0, data=[6, 255]),\n",
      "   midi.NoteOnEvent(tick=1, channel=0, data=[55, 100]),\n",
      "   midi.NoteOnEvent(tick=46, channel=0, data=[79, 171]),\n",
      "   midi.NoteOnEvent(tick=5, channel=0, data=[80, 248]),\n",
      "   midi.NoteOnEvent(tick=0, channel=0, data=[113, 55]),\n",
      "   midi.NoteOnEvent(tick=0, channel=0, data=[91, 104]),\n",
      "   midi.NoteOffEvent(tick=3, channel=0, data=[58, 0]),\n",
      "   midi.NoteOnEvent(tick=13, channel=0, data=[19, 108]),\n",
      "   midi.NoteOffEvent(tick=13, channel=0, data=[1, 0]),\n",
      "   midi.NoteOnEvent(tick=9, channel=0, data=[18, 177]),\n",
      "   midi.NoteOffEvent(tick=17, channel=0, data=[3, 0]),\n",
      "   midi.NoteOffEvent(tick=45, channel=0, data=[112, 0]),\n",
      "   midi.NoteOffEvent(tick=14, channel=0, data=[102, 0]),\n",
      "   midi.NoteOffEvent(tick=4, channel=0, data=[2, 0]),\n",
      "   midi.NoteOffEvent(tick=7, channel=0, data=[67, 0]),\n",
      "   midi.NoteOffEvent(tick=31, channel=0, data=[43, 0]),\n",
      "   midi.NoteOffEvent(tick=24, channel=0, data=[6, 0]),\n",
      "   midi.NoteOffEvent(tick=4, channel=0, data=[10, 0]),\n",
      "   midi.NoteOffEvent(tick=12, channel=0, data=[22, 0]),\n",
      "   midi.NoteOffEvent(tick=144, channel=0, data=[17, 0]),\n",
      "   midi.NoteOffEvent(tick=25, channel=0, data=[116, 0]),\n",
      "   midi.NoteOffEvent(tick=7, channel=0, data=[4, 0]),\n",
      "   midi.NoteOffEvent(tick=16, channel=0, data=[108, 0]),\n",
      "   midi.NoteOffEvent(tick=76, channel=0, data=[80, 0]),\n",
      "   midi.NoteOffEvent(tick=1, channel=0, data=[29, 0]),\n",
      "   midi.NoteOffEvent(tick=56, channel=0, data=[91, 0]),\n",
      "   midi.NoteOffEvent(tick=10, channel=0, data=[115, 0]),\n",
      "   midi.NoteOffEvent(tick=2, channel=0, data=[48, 0]),\n",
      "   midi.NoteOffEvent(tick=200, channel=0, data=[79, 0]),\n",
      "   midi.NoteOffEvent(tick=8, channel=0, data=[127, 0]),\n",
      "   midi.NoteOffEvent(tick=1, channel=0, data=[19, 0]),\n",
      "   midi.NoteOffEvent(tick=5, channel=0, data=[55, 0]),\n",
      "   midi.NoteOffEvent(tick=65, channel=0, data=[113, 0]),\n",
      "   midi.NoteOffEvent(tick=115, channel=0, data=[18, 0]),\n",
      "   midi.EndOfTrackEvent(tick=0, data=[])]),\n",
      " midi.Track(\\\n",
      "  [midi.SetTempoEvent(tick=0, data=[8, 227, 124]),\n",
      "   midi.ProgramChangeEvent(tick=0, channel=0, data=[20]),\n",
      "   midi.NoteOnEvent(tick=35, channel=0, data=[76, 248]),\n",
      "   midi.NoteOnEvent(tick=7, channel=0, data=[46, 152]),\n",
      "   midi.NoteOnEvent(tick=8, channel=0, data=[62, 220]),\n",
      "   midi.NoteOnEvent(tick=19, channel=0, data=[54, 84]),\n",
      "   midi.NoteOnEvent(tick=10, channel=0, data=[58, 35]),\n",
      "   midi.NoteOnEvent(tick=36, channel=0, data=[26, 84]),\n",
      "   midi.NoteOffEvent(tick=10, channel=0, data=[46, 0]),\n",
      "   midi.NoteOnEvent(tick=18, channel=0, data=[7, 56]),\n",
      "   midi.NoteOnEvent(tick=10, channel=0, data=[87, 13]),\n",
      "   midi.NoteOnEvent(tick=8, channel=0, data=[11, 53]),\n",
      "   midi.NoteOnEvent(tick=16, channel=0, data=[84, 176]),\n",
      "   midi.NoteOffEvent(tick=4, channel=0, data=[84, 0]),\n",
      "   midi.NoteOnEvent(tick=13, channel=0, data=[51, 193]),\n",
      "   midi.NoteOnEvent(tick=11, channel=0, data=[56, 70]),\n",
      "   midi.NoteOnEvent(tick=23, channel=0, data=[95, 218]),\n",
      "   midi.NoteOnEvent(tick=45, channel=0, data=[82, 75]),\n",
      "   midi.NoteOffEvent(tick=26, channel=0, data=[87, 0]),\n",
      "   midi.NoteOffEvent(tick=19, channel=0, data=[58, 0]),\n",
      "   midi.NoteOnEvent(tick=3, channel=0, data=[28, 78]),\n",
      "   midi.NoteOnEvent(tick=20, channel=0, data=[30, 51]),\n",
      "   midi.NoteOnEvent(tick=4, channel=0, data=[108, 11]),\n",
      "   midi.NoteOnEvent(tick=3, channel=0, data=[28, 115]),\n",
      "   midi.NoteOnEvent(tick=4, channel=0, data=[30, 18]),\n",
      "   midi.NoteOffEvent(tick=29, channel=0, data=[51, 0]),\n",
      "   midi.NoteOnEvent(tick=15, channel=0, data=[56, 125]),\n",
      "   midi.NoteOnEvent(tick=2, channel=0, data=[84, 53]),\n",
      "   midi.NoteOnEvent(tick=4, channel=0, data=[121, 189]),\n",
      "   midi.NoteOffEvent(tick=43, channel=0, data=[76, 0]),\n",
      "   midi.NoteOnEvent(tick=26, channel=0, data=[120, 198]),\n",
      "   midi.NoteOnEvent(tick=0, channel=0, data=[32, 90]),\n",
      "   midi.NoteOnEvent(tick=1, channel=0, data=[46, 70]),\n",
      "   midi.NoteOffEvent(tick=1, channel=0, data=[46, 0]),\n",
      "   midi.NoteOnEvent(tick=4, channel=0, data=[110, 159]),\n",
      "   midi.NoteOnEvent(tick=5, channel=0, data=[81, 107]),\n",
      "   midi.NoteOnEvent(tick=18, channel=0, data=[66, 157]),\n",
      "   midi.NoteOnEvent(tick=8, channel=0, data=[114, 195]),\n",
      "   midi.NoteOnEvent(tick=6, channel=0, data=[49, 80]),\n",
      "   midi.NoteOnEvent(tick=1, channel=0, data=[118, 187]),\n",
      "   midi.NoteOnEvent(tick=3, channel=0, data=[7, 110]),\n",
      "   midi.NoteOnEvent(tick=13, channel=0, data=[47, 77]),\n",
      "   midi.NoteOnEvent(tick=4, channel=0, data=[3, 234]),\n",
      "   midi.NoteOnEvent(tick=19, channel=0, data=[34, 123]),\n",
      "   midi.NoteOffEvent(tick=4, channel=0, data=[110, 0]),\n",
      "   midi.NoteOnEvent(tick=10, channel=0, data=[105, 151]),\n",
      "   midi.NoteOnEvent(tick=11, channel=0, data=[36, 88]),\n",
      "   midi.NoteOnEvent(tick=26, channel=0, data=[64, 196]),\n",
      "   midi.NoteOnEvent(tick=11, channel=0, data=[123, 44]),\n",
      "   midi.NoteOffEvent(tick=5, channel=0, data=[54, 0]),\n",
      "   midi.NoteOnEvent(tick=27, channel=0, data=[126, 241]),\n",
      "   midi.NoteOnEvent(tick=14, channel=0, data=[83, 9]),\n",
      "   midi.NoteOnEvent(tick=8, channel=0, data=[73, 30]),\n",
      "   midi.NoteOnEvent(tick=5, channel=0, data=[52, 1]),\n",
      "   midi.NoteOffEvent(tick=28, channel=0, data=[11, 0]),\n",
      "   midi.NoteOffEvent(tick=6, channel=0, data=[81, 0]),\n",
      "   midi.NoteOnEvent(tick=17, channel=0, data=[6, 241]),\n",
      "   midi.NoteOffEvent(tick=4, channel=0, data=[120, 0]),\n",
      "   midi.NoteOnEvent(tick=9, channel=0, data=[47, 74]),\n",
      "   midi.NoteOffEvent(tick=2, channel=0, data=[26, 0]),\n",
      "   midi.NoteOnEvent(tick=19, channel=0, data=[62, 22]),\n",
      "   midi.NoteOnEvent(tick=0, channel=0, data=[89, 199]),\n",
      "   midi.NoteOnEvent(tick=19, channel=0, data=[58, 218]),\n",
      "   midi.NoteOnEvent(tick=4, channel=0, data=[120, 51]),\n",
      "   midi.NoteOnEvent(tick=4, channel=0, data=[73, 191]),\n",
      "   midi.NoteOffEvent(tick=1, channel=0, data=[73, 0]),\n",
      "   midi.NoteOffEvent(tick=1, channel=0, data=[105, 0]),\n",
      "   midi.NoteOnEvent(tick=18, channel=0, data=[108, 159]),\n",
      "   midi.NoteOnEvent(tick=0, channel=0, data=[126, 99]),\n",
      "   midi.NoteOnEvent(tick=11, channel=0, data=[54, 89]),\n",
      "   midi.NoteOffEvent(tick=31, channel=0, data=[3, 0]),\n",
      "   midi.NoteOffEvent(tick=15, channel=0, data=[30, 0]),\n",
      "   midi.NoteOffEvent(tick=8, channel=0, data=[58, 0]),\n",
      "   midi.NoteOnEvent(tick=15, channel=0, data=[89, 164]),\n",
      "   midi.NoteOnEvent(tick=34, channel=0, data=[108, 62]),\n",
      "   midi.NoteOnEvent(tick=10, channel=0, data=[17, 185]),\n",
      "   midi.NoteOnEvent(tick=1, channel=0, data=[82, 104]),\n",
      "   midi.NoteOffEvent(tick=15, channel=0, data=[32, 0]),\n",
      "   midi.NoteOffEvent(tick=0, channel=0, data=[84, 0]),\n",
      "   midi.NoteOnEvent(tick=3, channel=0, data=[50, 150]),\n",
      "   midi.NoteOffEvent(tick=75, channel=0, data=[50, 0]),\n",
      "   midi.NoteOffEvent(tick=1, channel=0, data=[123, 0]),\n",
      "   midi.NoteOffEvent(tick=23, channel=0, data=[64, 0]),\n",
      "   midi.NoteOffEvent(tick=32, channel=0, data=[120, 0]),\n",
      "   midi.NoteOffEvent(tick=69, channel=0, data=[36, 0]),\n",
      "   midi.NoteOffEvent(tick=16, channel=0, data=[47, 0]),\n",
      "   midi.NoteOffEvent(tick=14, channel=0, data=[121, 0]),\n",
      "   midi.NoteOffEvent(tick=18, channel=0, data=[95, 0]),\n",
      "   midi.NoteOffEvent(tick=12, channel=0, data=[114, 0]),\n",
      "   midi.NoteOffEvent(tick=6, channel=0, data=[56, 0]),\n",
      "   midi.NoteOffEvent(tick=3, channel=0, data=[126, 0]),\n",
      "   midi.NoteOffEvent(tick=3, channel=0, data=[66, 0]),\n",
      "   midi.NoteOffEvent(tick=30, channel=0, data=[62, 0]),\n",
      "   midi.NoteOffEvent(tick=92, channel=0, data=[28, 0]),\n",
      "   midi.NoteOffEvent(tick=43, channel=0, data=[49, 0]),\n",
      "   midi.NoteOffEvent(tick=91, channel=0, data=[7, 0]),\n",
      "   midi.NoteOffEvent(tick=10, channel=0, data=[83, 0]),\n",
      "   midi.NoteOffEvent(tick=1, channel=0, data=[118, 0]),\n",
      "   midi.NoteOffEvent(tick=13, channel=0, data=[34, 0]),\n",
      "   midi.NoteOffEvent(tick=13, channel=0, data=[82, 0]),\n",
      "   midi.NoteOffEvent(tick=22, channel=0, data=[89, 0]),\n",
      "   midi.NoteOffEvent(tick=42, channel=0, data=[6, 0]),\n",
      "   midi.NoteOffEvent(tick=25, channel=0, data=[52, 0]),\n",
      "   midi.NoteOffEvent(tick=1, channel=0, data=[108, 0]),\n",
      "   midi.NoteOffEvent(tick=97, channel=0, data=[54, 0]),\n",
      "   midi.NoteOffEvent(tick=162, channel=0, data=[17, 0]),\n",
      "   midi.EndOfTrackEvent(tick=0, data=[])]),\n",
      " midi.Track(\\\n",
      "  [midi.SetTempoEvent(tick=0, data=[8, 227, 124]),\n",
      "   midi.ProgramChangeEvent(tick=0, channel=0, data=[21]),\n",
      "   midi.NoteOnEvent(tick=4, channel=0, data=[0, 219]),\n",
      "   midi.NoteOnEvent(tick=14, channel=0, data=[34, 16]),\n",
      "   midi.NoteOnEvent(tick=12, channel=0, data=[120, 246]),\n",
      "   midi.NoteOnEvent(tick=0, channel=0, data=[53, 55]),\n",
      "   midi.NoteOnEvent(tick=5, channel=0, data=[50, 120]),\n",
      "   midi.NoteOnEvent(tick=0, channel=0, data=[98, 173]),\n",
      "   midi.NoteOffEvent(tick=4, channel=0, data=[0, 0]),\n",
      "   midi.NoteOnEvent(tick=13, channel=0, data=[122, 73]),\n",
      "   midi.NoteOnEvent(tick=1, channel=0, data=[109, 75]),\n",
      "   midi.NoteOnEvent(tick=15, channel=0, data=[78, 186]),\n",
      "   midi.NoteOffEvent(tick=20, channel=0, data=[122, 0]),\n",
      "   midi.NoteOnEvent(tick=11, channel=0, data=[118, 151]),\n",
      "   midi.NoteOnEvent(tick=16, channel=0, data=[75, 84]),\n",
      "   midi.NoteOnEvent(tick=14, channel=0, data=[28, 235]),\n",
      "   midi.NoteOnEvent(tick=1, channel=0, data=[100, 97]),\n",
      "   midi.NoteOnEvent(tick=10, channel=0, data=[8, 2]),\n",
      "   midi.NoteOffEvent(tick=4, channel=0, data=[8, 0]),\n",
      "   midi.NoteOffEvent(tick=9, channel=0, data=[78, 0]),\n",
      "   midi.NoteOffEvent(tick=21, channel=0, data=[109, 0]),\n",
      "   midi.NoteOnEvent(tick=16, channel=0, data=[65, 125]),\n",
      "   midi.NoteOnEvent(tick=1, channel=0, data=[23, 184]),\n",
      "   midi.NoteOnEvent(tick=6, channel=0, data=[25, 54]),\n",
      "   midi.NoteOnEvent(tick=0, channel=0, data=[62, 64]),\n",
      "   midi.NoteOffEvent(tick=6, channel=0, data=[118, 0]),\n",
      "   midi.NoteOnEvent(tick=0, channel=0, data=[75, 47]),\n",
      "   midi.NoteOnEvent(tick=2, channel=0, data=[7, 117]),\n",
      "   midi.NoteOnEvent(tick=2, channel=0, data=[92, 20]),\n",
      "   midi.NoteOffEvent(tick=12, channel=0, data=[75, 0]),\n",
      "   midi.NoteOnEvent(tick=16, channel=0, data=[86, 117]),\n",
      "   midi.NoteOnEvent(tick=22, channel=0, data=[14, 224]),\n",
      "   midi.NoteOnEvent(tick=0, channel=0, data=[0, 83]),\n",
      "   midi.NoteOnEvent(tick=16, channel=0, data=[52, 179]),\n",
      "   midi.NoteOffEvent(tick=27, channel=0, data=[34, 0]),\n",
      "   midi.NoteOnEvent(tick=3, channel=0, data=[74, 223]),\n",
      "   midi.NoteOnEvent(tick=5, channel=0, data=[112, 4]),\n",
      "   midi.NoteOnEvent(tick=1, channel=0, data=[0, 84]),\n",
      "   midi.NoteOnEvent(tick=3, channel=0, data=[94, 89]),\n",
      "   midi.NoteOnEvent(tick=6, channel=0, data=[88, 176]),\n",
      "   midi.NoteOnEvent(tick=18, channel=0, data=[3, 163]),\n",
      "   midi.NoteOnEvent(tick=1, channel=0, data=[108, 18]),\n",
      "   midi.NoteOnEvent(tick=8, channel=0, data=[23, 159]),\n",
      "   midi.NoteOnEvent(tick=3, channel=0, data=[90, 255]),\n",
      "   midi.NoteOnEvent(tick=27, channel=0, data=[10, 119]),\n",
      "   midi.NoteOffEvent(tick=12, channel=0, data=[23, 0]),\n",
      "   midi.NoteOnEvent(tick=19, channel=0, data=[112, 247]),\n",
      "   midi.NoteOnEvent(tick=9, channel=0, data=[49, 112]),\n",
      "   midi.NoteOnEvent(tick=20, channel=0, data=[125, 7]),\n",
      "   midi.NoteOnEvent(tick=3, channel=0, data=[114, 236]),\n",
      "   midi.NoteOnEvent(tick=3, channel=0, data=[109, 107]),\n",
      "   midi.NoteOffEvent(tick=7, channel=0, data=[3, 0]),\n",
      "   midi.NoteOnEvent(tick=12, channel=0, data=[35, 108]),\n",
      "   midi.NoteOffEvent(tick=10, channel=0, data=[100, 0]),\n",
      "   midi.NoteOnEvent(tick=4, channel=0, data=[47, 25]),\n",
      "   midi.NoteOnEvent(tick=7, channel=0, data=[106, 116]),\n",
      "   midi.NoteOnEvent(tick=6, channel=0, data=[34, 185]),\n",
      "   midi.NoteOffEvent(tick=3, channel=0, data=[65, 0]),\n",
      "   midi.NoteOnEvent(tick=41, channel=0, data=[102, 173]),\n",
      "   midi.NoteOnEvent(tick=26, channel=0, data=[65, 132]),\n",
      "   midi.NoteOnEvent(tick=11, channel=0, data=[26, 58]),\n",
      "   midi.NoteOnEvent(tick=6, channel=0, data=[68, 86]),\n",
      "   midi.NoteOnEvent(tick=0, channel=0, data=[69, 155]),\n",
      "   midi.NoteOffEvent(tick=1, channel=0, data=[112, 0]),\n",
      "   midi.NoteOffEvent(tick=11, channel=0, data=[14, 0]),\n",
      "   midi.NoteOnEvent(tick=5, channel=0, data=[45, 245]),\n",
      "   midi.NoteOnEvent(tick=2, channel=0, data=[60, 233]),\n",
      "   midi.NoteOffEvent(tick=16, channel=0, data=[35, 0]),\n",
      "   midi.NoteOnEvent(tick=39, channel=0, data=[28, 17]),\n",
      "   midi.NoteOffEvent(tick=4, channel=0, data=[94, 0]),\n",
      "   midi.NoteOffEvent(tick=20, channel=0, data=[114, 0]),\n",
      "   midi.NoteOffEvent(tick=5, channel=0, data=[45, 0]),\n",
      "   midi.NoteOffEvent(tick=17, channel=0, data=[26, 0]),\n",
      "   midi.NoteOffEvent(tick=5, channel=0, data=[65, 0]),\n",
      "   midi.NoteOnEvent(tick=18, channel=0, data=[127, 199]),\n",
      "   midi.NoteOffEvent(tick=15, channel=0, data=[125, 0]),\n",
      "   midi.NoteOffEvent(tick=22, channel=0, data=[10, 0]),\n",
      "   midi.NoteOnEvent(tick=5, channel=0, data=[127, 201]),\n",
      "   midi.NoteOnEvent(tick=2, channel=0, data=[101, 45]),\n",
      "   midi.NoteOffEvent(tick=2, channel=0, data=[98, 0]),\n",
      "   midi.NoteOnEvent(tick=24, channel=0, data=[60, 111]),\n",
      "   midi.NoteOnEvent(tick=44, channel=0, data=[84, 149]),\n",
      "   midi.NoteOnEvent(tick=7, channel=0, data=[22, 162]),\n",
      "   midi.NoteOnEvent(tick=0, channel=0, data=[14, 231]),\n",
      "   midi.NoteOnEvent(tick=20, channel=0, data=[25, 88]),\n",
      "   midi.NoteOffEvent(tick=23, channel=0, data=[34, 0]),\n",
      "   midi.NoteOffEvent(tick=3, channel=0, data=[50, 0]),\n",
      "   midi.NoteOffEvent(tick=22, channel=0, data=[108, 0]),\n",
      "   midi.NoteOnEvent(tick=26, channel=0, data=[54, 112]),\n",
      "   midi.NoteOffEvent(tick=7, channel=0, data=[47, 0]),\n",
      "   midi.NoteOffEvent(tick=0, channel=0, data=[52, 0]),\n",
      "   midi.NoteOffEvent(tick=1, channel=0, data=[7, 0]),\n",
      "   midi.NoteOffEvent(tick=13, channel=0, data=[49, 0]),\n",
      "   midi.NoteOffEvent(tick=6, channel=0, data=[90, 0]),\n",
      "   midi.NoteOnEvent(tick=18, channel=0, data=[103, 153]),\n",
      "   midi.NoteOnEvent(tick=14, channel=0, data=[41, 143]),\n",
      "   midi.NoteOnEvent(tick=1, channel=0, data=[110, 255]),\n",
      "   midi.NoteOffEvent(tick=2, channel=0, data=[53, 0]),\n",
      "   midi.NoteOffEvent(tick=20, channel=0, data=[62, 0]),\n",
      "   midi.NoteOffEvent(tick=16, channel=0, data=[120, 0]),\n",
      "   midi.NoteOffEvent(tick=23, channel=0, data=[92, 0]),\n",
      "   midi.NoteOffEvent(tick=46, channel=0, data=[74, 0]),\n",
      "   midi.NoteOffEvent(tick=2, channel=0, data=[28, 0]),\n",
      "   midi.NoteOffEvent(tick=1, channel=0, data=[86, 0]),\n",
      "   midi.NoteOffEvent(tick=55, channel=0, data=[25, 0]),\n",
      "   midi.NoteOffEvent(tick=10, channel=0, data=[102, 0]),\n",
      "   midi.NoteOffEvent(tick=1, channel=0, data=[14, 0]),\n",
      "   midi.NoteOffEvent(tick=34, channel=0, data=[60, 0]),\n",
      "   midi.NoteOffEvent(tick=7, channel=0, data=[68, 0]),\n",
      "   midi.NoteOffEvent(tick=1, channel=0, data=[101, 0]),\n",
      "   midi.NoteOffEvent(tick=5, channel=0, data=[0, 0]),\n",
      "   midi.NoteOffEvent(tick=44, channel=0, data=[103, 0]),\n",
      "   midi.NoteOffEvent(tick=58, channel=0, data=[88, 0]),\n",
      "   midi.NoteOffEvent(tick=15, channel=0, data=[106, 0]),\n",
      "   midi.NoteOffEvent(tick=64, channel=0, data=[109, 0]),\n",
      "   midi.NoteOffEvent(tick=36, channel=0, data=[84, 0]),\n",
      "   midi.NoteOffEvent(tick=137, channel=0, data=[69, 0]),\n",
      "   midi.NoteOffEvent(tick=5, channel=0, data=[22, 0]),\n",
      "   midi.NoteOffEvent(tick=115, channel=0, data=[110, 0]),\n",
      "   midi.NoteOffEvent(tick=20, channel=0, data=[127, 0]),\n",
      "   midi.NoteOffEvent(tick=24, channel=0, data=[54, 0]),\n",
      "   midi.NoteOffEvent(tick=256, channel=0, data=[41, 0]),\n",
      "   midi.EndOfTrackEvent(tick=0, data=[])]),\n",
      " midi.Track(\\\n",
      "  [midi.SetTempoEvent(tick=0, data=[8, 227, 124]),\n",
      "   midi.ProgramChangeEvent(tick=0, channel=0, data=[22]),\n",
      "   midi.NoteOnEvent(tick=8, channel=0, data=[32, 214]),\n",
      "   midi.NoteOnEvent(tick=0, channel=0, data=[124, 175]),\n",
      "   midi.NoteOnEvent(tick=14, channel=0, data=[1, 31]),\n",
      "   midi.NoteOnEvent(tick=10, channel=0, data=[0, 61]),\n",
      "   midi.NoteOnEvent(tick=3, channel=0, data=[45, 239]),\n",
      "   midi.NoteOffEvent(tick=26, channel=0, data=[45, 0]),\n",
      "   midi.NoteOnEvent(tick=49, channel=0, data=[25, 11]),\n",
      "   midi.NoteOnEvent(tick=2, channel=0, data=[54, 217]),\n",
      "   midi.NoteOnEvent(tick=20, channel=0, data=[121, 237]),\n",
      "   midi.NoteOnEvent(tick=8, channel=0, data=[68, 178]),\n",
      "   midi.NoteOnEvent(tick=2, channel=0, data=[92, 47]),\n",
      "   midi.NoteOffEvent(tick=37, channel=0, data=[92, 0]),\n",
      "   midi.NoteOffEvent(tick=9, channel=0, data=[25, 0]),\n",
      "   midi.NoteOnEvent(tick=2, channel=0, data=[52, 122]),\n",
      "   midi.NoteOnEvent(tick=7, channel=0, data=[124, 20]),\n",
      "   midi.NoteOnEvent(tick=11, channel=0, data=[26, 68]),\n",
      "   midi.NoteOnEvent(tick=33, channel=0, data=[0, 82]),\n",
      "   midi.NoteOnEvent(tick=7, channel=0, data=[118, 35]),\n",
      "   midi.NoteOnEvent(tick=0, channel=0, data=[47, 48]),\n",
      "   midi.NoteOnEvent(tick=11, channel=0, data=[69, 48]),\n",
      "   midi.NoteOnEvent(tick=6, channel=0, data=[27, 169]),\n",
      "   midi.NoteOnEvent(tick=24, channel=0, data=[83, 23]),\n",
      "   midi.NoteOffEvent(tick=20, channel=0, data=[47, 0]),\n",
      "   midi.NoteOnEvent(tick=9, channel=0, data=[82, 254]),\n",
      "   midi.NoteOnEvent(tick=31, channel=0, data=[102, 101]),\n",
      "   midi.NoteOnEvent(tick=4, channel=0, data=[16, 108]),\n",
      "   midi.NoteOffEvent(tick=24, channel=0, data=[102, 0]),\n",
      "   midi.NoteOnEvent(tick=26, channel=0, data=[38, 24]),\n",
      "   midi.NoteOnEvent(tick=3, channel=0, data=[68, 83]),\n",
      "   midi.NoteOnEvent(tick=19, channel=0, data=[72, 160]),\n",
      "   midi.NoteOnEvent(tick=13, channel=0, data=[126, 211]),\n",
      "   midi.NoteOnEvent(tick=2, channel=0, data=[37, 171]),\n",
      "   midi.NoteOnEvent(tick=27, channel=0, data=[62, 111]),\n",
      "   midi.NoteOnEvent(tick=4, channel=0, data=[0, 44]),\n",
      "   midi.NoteOnEvent(tick=6, channel=0, data=[12, 119]),\n",
      "   midi.NoteOffEvent(tick=22, channel=0, data=[62, 0]),\n",
      "   midi.NoteOnEvent(tick=1, channel=0, data=[75, 42]),\n",
      "   midi.NoteOnEvent(tick=8, channel=0, data=[23, 196]),\n",
      "   midi.NoteOnEvent(tick=0, channel=0, data=[88, 79]),\n",
      "   midi.NoteOnEvent(tick=7, channel=0, data=[30, 173]),\n",
      "   midi.NoteOnEvent(tick=17, channel=0, data=[45, 110]),\n",
      "   midi.NoteOnEvent(tick=0, channel=0, data=[4, 11]),\n",
      "   midi.NoteOnEvent(tick=0, channel=0, data=[77, 255]),\n",
      "   midi.NoteOnEvent(tick=0, channel=0, data=[122, 148]),\n",
      "   midi.NoteOnEvent(tick=0, channel=0, data=[118, 218]),\n",
      "   midi.NoteOffEvent(tick=22, channel=0, data=[72, 0]),\n",
      "   midi.NoteOnEvent(tick=0, channel=0, data=[18, 50]),\n",
      "   midi.NoteOnEvent(tick=21, channel=0, data=[106, 143]),\n",
      "   midi.NoteOnEvent(tick=15, channel=0, data=[84, 14]),\n",
      "   midi.NoteOffEvent(tick=2, channel=0, data=[54, 0]),\n",
      "   midi.NoteOnEvent(tick=13, channel=0, data=[54, 37]),\n",
      "   midi.NoteOnEvent(tick=5, channel=0, data=[107, 210]),\n",
      "   midi.NoteOnEvent(tick=6, channel=0, data=[25, 163]),\n",
      "   midi.NoteOffEvent(tick=9, channel=0, data=[26, 0]),\n",
      "   midi.NoteOnEvent(tick=0, channel=0, data=[17, 128]),\n",
      "   midi.NoteOffEvent(tick=4, channel=0, data=[124, 0]),\n",
      "   midi.NoteOnEvent(tick=5, channel=0, data=[88, 80]),\n",
      "   midi.NoteOffEvent(tick=24, channel=0, data=[69, 0]),\n",
      "   midi.NoteOffEvent(tick=4, channel=0, data=[52, 0]),\n",
      "   midi.NoteOnEvent(tick=7, channel=0, data=[97, 78]),\n",
      "   midi.NoteOffEvent(tick=10, channel=0, data=[107, 0]),\n",
      "   midi.NoteOnEvent(tick=18, channel=0, data=[16, 173]),\n",
      "   midi.NoteOffEvent(tick=10, channel=0, data=[38, 0]),\n",
      "   midi.NoteOffEvent(tick=3, channel=0, data=[88, 0]),\n",
      "   midi.NoteOffEvent(tick=1, channel=0, data=[32, 0]),\n",
      "   midi.NoteOffEvent(tick=18, channel=0, data=[121, 0]),\n",
      "   midi.NoteOnEvent(tick=10, channel=0, data=[102, 17]),\n",
      "   midi.NoteOnEvent(tick=0, channel=0, data=[59, 176]),\n",
      "   midi.NoteOnEvent(tick=0, channel=0, data=[123, 242]),\n",
      "   midi.NoteOnEvent(tick=1, channel=0, data=[117, 96]),\n",
      "   midi.NoteOnEvent(tick=1, channel=0, data=[64, 87]),\n",
      "   midi.NoteOnEvent(tick=9, channel=0, data=[44, 64]),\n",
      "   midi.NoteOnEvent(tick=2, channel=0, data=[37, 12]),\n",
      "   midi.NoteOffEvent(tick=10, channel=0, data=[122, 0]),\n",
      "   midi.NoteOnEvent(tick=10, channel=0, data=[87, 90]),\n",
      "   midi.NoteOnEvent(tick=5, channel=0, data=[47, 113]),\n",
      "   midi.NoteOffEvent(tick=26, channel=0, data=[44, 0]),\n",
      "   midi.NoteOffEvent(tick=6, channel=0, data=[123, 0]),\n",
      "   midi.NoteOffEvent(tick=2, channel=0, data=[118, 0]),\n",
      "   midi.NoteOnEvent(tick=9, channel=0, data=[66, 152]),\n",
      "   midi.NoteOffEvent(tick=5, channel=0, data=[1, 0]),\n",
      "   midi.NoteOnEvent(tick=1, channel=0, data=[11, 121]),\n",
      "   midi.NoteOffEvent(tick=7, channel=0, data=[18, 0]),\n",
      "   midi.NoteOffEvent(tick=18, channel=0, data=[30, 0]),\n",
      "   midi.NoteOffEvent(tick=1, channel=0, data=[77, 0]),\n",
      "   midi.NoteOnEvent(tick=6, channel=0, data=[73, 99]),\n",
      "   midi.NoteOnEvent(tick=5, channel=0, data=[76, 153]),\n",
      "   midi.NoteOffEvent(tick=14, channel=0, data=[27, 0]),\n",
      "   midi.NoteOnEvent(tick=0, channel=0, data=[112, 40]),\n",
      "   midi.NoteOffEvent(tick=2, channel=0, data=[23, 0]),\n",
      "   midi.NoteOnEvent(tick=8, channel=0, data=[13, 152]),\n",
      "   midi.NoteOnEvent(tick=1, channel=0, data=[82, 21]),\n",
      "   midi.NoteOnEvent(tick=2, channel=0, data=[2, 203]),\n",
      "   midi.NoteOffEvent(tick=2, channel=0, data=[11, 0]),\n",
      "   midi.NoteOnEvent(tick=10, channel=0, data=[14, 94]),\n",
      "   midi.NoteOffEvent(tick=3, channel=0, data=[83, 0]),\n",
      "   midi.NoteOnEvent(tick=20, channel=0, data=[5, 138]),\n",
      "   midi.NoteOffEvent(tick=13, channel=0, data=[112, 0]),\n",
      "   midi.NoteOffEvent(tick=2, channel=0, data=[0, 0]),\n",
      "   midi.NoteOnEvent(tick=6, channel=0, data=[48, 188]),\n",
      "   midi.NoteOnEvent(tick=19, channel=0, data=[11, 72]),\n",
      "   midi.NoteOffEvent(tick=12, channel=0, data=[5, 0]),\n",
      "   midi.NoteOnEvent(tick=2, channel=0, data=[79, 8]),\n",
      "   midi.NoteOffEvent(tick=66, channel=0, data=[59, 0]),\n",
      "   midi.NoteOffEvent(tick=2, channel=0, data=[68, 0]),\n",
      "   midi.NoteOffEvent(tick=0, channel=0, data=[79, 0]),\n",
      "   midi.NoteOffEvent(tick=66, channel=0, data=[106, 0]),\n",
      "   midi.NoteOffEvent(tick=18, channel=0, data=[102, 0]),\n",
      "   midi.NoteOffEvent(tick=8, channel=0, data=[76, 0]),\n",
      "   midi.NoteOffEvent(tick=21, channel=0, data=[75, 0]),\n",
      "   midi.NoteOffEvent(tick=25, channel=0, data=[126, 0]),\n",
      "   midi.NoteOffEvent(tick=4, channel=0, data=[84, 0]),\n",
      "   midi.NoteOffEvent(tick=39, channel=0, data=[45, 0]),\n",
      "   midi.NoteOffEvent(tick=22, channel=0, data=[12, 0]),\n",
      "   midi.NoteOffEvent(tick=2, channel=0, data=[73, 0]),\n",
      "   midi.NoteOffEvent(tick=5, channel=0, data=[87, 0]),\n",
      "   midi.NoteOffEvent(tick=25, channel=0, data=[25, 0]),\n",
      "   midi.NoteOffEvent(tick=28, channel=0, data=[48, 0]),\n",
      "   midi.NoteOffEvent(tick=49, channel=0, data=[37, 0]),\n",
      "   midi.NoteOffEvent(tick=23, channel=0, data=[4, 0]),\n",
      "   midi.NoteOffEvent(tick=33, channel=0, data=[2, 0]),\n",
      "   midi.NoteOffEvent(tick=58, channel=0, data=[54, 0]),\n",
      "   midi.NoteOffEvent(tick=41, channel=0, data=[66, 0]),\n",
      "   midi.NoteOffEvent(tick=18, channel=0, data=[97, 0]),\n",
      "   midi.NoteOffEvent(tick=31, channel=0, data=[13, 0]),\n",
      "   midi.NoteOffEvent(tick=3, channel=0, data=[17, 0]),\n",
      "   midi.NoteOffEvent(tick=30, channel=0, data=[64, 0]),\n",
      "   midi.NoteOffEvent(tick=1, channel=0, data=[117, 0]),\n",
      "   midi.NoteOffEvent(tick=9, channel=0, data=[11, 0]),\n",
      "   midi.NoteOffEvent(tick=32, channel=0, data=[16, 0]),\n",
      "   midi.NoteOffEvent(tick=99, channel=0, data=[47, 0]),\n",
      "   midi.NoteOffEvent(tick=103, channel=0, data=[14, 0]),\n",
      "   midi.NoteOffEvent(tick=6, channel=0, data=[82, 0]),\n",
      "   midi.EndOfTrackEvent(tick=0, data=[])]),\n",
      " midi.Track(\\\n",
      "  [midi.SetTempoEvent(tick=0, data=[8, 227, 124]),\n",
      "   midi.ProgramChangeEvent(tick=0, channel=0, data=[23]),\n",
      "   midi.NoteOnEvent(tick=30, channel=0, data=[115, 98]),\n",
      "   midi.NoteOnEvent(tick=69, channel=0, data=[64, 230]),\n",
      "   midi.NoteOnEvent(tick=18, channel=0, data=[26, 57]),\n",
      "   midi.NoteOnEvent(tick=17, channel=0, data=[3, 159]),\n",
      "   midi.NoteOnEvent(tick=71, channel=0, data=[22, 38]),\n",
      "   midi.NoteOnEvent(tick=17, channel=0, data=[48, 241]),\n",
      "   midi.NoteOnEvent(tick=0, channel=0, data=[113, 230]),\n",
      "   midi.NoteOnEvent(tick=4, channel=0, data=[87, 144]),\n",
      "   midi.NoteOffEvent(tick=24, channel=0, data=[115, 0]),\n",
      "   midi.NoteOnEvent(tick=18, channel=0, data=[47, 153]),\n",
      "   midi.NoteOnEvent(tick=31, channel=0, data=[101, 175]),\n",
      "   midi.NoteOnEvent(tick=10, channel=0, data=[92, 105]),\n",
      "   midi.NoteOnEvent(tick=3, channel=0, data=[9, 117]),\n",
      "   midi.NoteOnEvent(tick=1, channel=0, data=[75, 213]),\n",
      "   midi.NoteOnEvent(tick=5, channel=0, data=[57, 162]),\n",
      "   midi.NoteOffEvent(tick=9, channel=0, data=[57, 0]),\n",
      "   midi.NoteOnEvent(tick=9, channel=0, data=[16, 176]),\n",
      "   midi.NoteOffEvent(tick=12, channel=0, data=[48, 0]),\n",
      "   midi.NoteOffEvent(tick=7, channel=0, data=[3, 0]),\n",
      "   midi.NoteOffEvent(tick=0, channel=0, data=[26, 0]),\n",
      "   midi.NoteOffEvent(tick=51, channel=0, data=[22, 0]),\n",
      "   midi.NoteOnEvent(tick=4, channel=0, data=[65, 15]),\n",
      "   midi.NoteOnEvent(tick=11, channel=0, data=[97, 131]),\n",
      "   midi.NoteOnEvent(tick=17, channel=0, data=[61, 235]),\n",
      "   midi.NoteOnEvent(tick=0, channel=0, data=[101, 19]),\n",
      "   midi.NoteOffEvent(tick=7, channel=0, data=[16, 0]),\n",
      "   midi.NoteOnEvent(tick=25, channel=0, data=[12, 38]),\n",
      "   midi.NoteOnEvent(tick=3, channel=0, data=[64, 181]),\n",
      "   midi.NoteOffEvent(tick=15, channel=0, data=[75, 0]),\n",
      "   midi.NoteOnEvent(tick=34, channel=0, data=[30, 99]),\n",
      "   midi.NoteOnEvent(tick=9, channel=0, data=[19, 233]),\n",
      "   midi.NoteOnEvent(tick=1, channel=0, data=[18, 185]),\n",
      "   midi.NoteOnEvent(tick=15, channel=0, data=[15, 196]),\n",
      "   midi.NoteOffEvent(tick=2, channel=0, data=[19, 0]),\n",
      "   midi.NoteOffEvent(tick=5, channel=0, data=[97, 0]),\n",
      "   midi.NoteOnEvent(tick=0, channel=0, data=[74, 191]),\n",
      "   midi.NoteOnEvent(tick=0, channel=0, data=[20, 66]),\n",
      "   midi.NoteOnEvent(tick=7, channel=0, data=[107, 31]),\n",
      "   midi.NoteOnEvent(tick=7, channel=0, data=[54, 122]),\n",
      "   midi.NoteOnEvent(tick=0, channel=0, data=[56, 35]),\n",
      "   midi.NoteOnEvent(tick=4, channel=0, data=[75, 71]),\n",
      "   midi.NoteOnEvent(tick=24, channel=0, data=[81, 179]),\n",
      "   midi.NoteOnEvent(tick=7, channel=0, data=[26, 179]),\n",
      "   midi.NoteOnEvent(tick=2, channel=0, data=[106, 74]),\n",
      "   midi.NoteOnEvent(tick=11, channel=0, data=[94, 1]),\n",
      "   midi.NoteOffEvent(tick=9, channel=0, data=[107, 0]),\n",
      "   midi.NoteOnEvent(tick=7, channel=0, data=[49, 177]),\n",
      "   midi.NoteOnEvent(tick=29, channel=0, data=[126, 57]),\n",
      "   midi.NoteOnEvent(tick=4, channel=0, data=[93, 171]),\n",
      "   midi.NoteOnEvent(tick=5, channel=0, data=[74, 48]),\n",
      "   midi.NoteOffEvent(tick=1, channel=0, data=[81, 0]),\n",
      "   midi.NoteOnEvent(tick=0, channel=0, data=[54, 13]),\n",
      "   midi.NoteOnEvent(tick=0, channel=0, data=[66, 172]),\n",
      "   midi.NoteOffEvent(tick=1, channel=0, data=[26, 0]),\n",
      "   midi.NoteOffEvent(tick=10, channel=0, data=[54, 0]),\n",
      "   midi.NoteOffEvent(tick=21, channel=0, data=[65, 0]),\n",
      "   midi.NoteOnEvent(tick=10, channel=0, data=[64, 252]),\n",
      "   midi.NoteOnEvent(tick=2, channel=0, data=[127, 183]),\n",
      "   midi.NoteOffEvent(tick=2, channel=0, data=[101, 0]),\n",
      "   midi.NoteOnEvent(tick=24, channel=0, data=[65, 227]),\n",
      "   midi.NoteOnEvent(tick=9, channel=0, data=[32, 9]),\n",
      "   midi.NoteOffEvent(tick=1, channel=0, data=[127, 0]),\n",
      "   midi.NoteOnEvent(tick=12, channel=0, data=[61, 206]),\n",
      "   midi.NoteOnEvent(tick=1, channel=0, data=[10, 41]),\n",
      "   midi.NoteOnEvent(tick=27, channel=0, data=[94, 172]),\n",
      "   midi.NoteOnEvent(tick=35, channel=0, data=[34, 54]),\n",
      "   midi.NoteOnEvent(tick=0, channel=0, data=[112, 2]),\n",
      "   midi.NoteOffEvent(tick=5, channel=0, data=[93, 0]),\n",
      "   midi.NoteOnEvent(tick=46, channel=0, data=[75, 176]),\n",
      "   midi.NoteOnEvent(tick=10, channel=0, data=[73, 217]),\n",
      "   midi.NoteOnEvent(tick=1, channel=0, data=[122, 47]),\n",
      "   midi.NoteOffEvent(tick=23, channel=0, data=[66, 0]),\n",
      "   midi.NoteOnEvent(tick=12, channel=0, data=[103, 124]),\n",
      "   midi.NoteOnEvent(tick=11, channel=0, data=[50, 225]),\n",
      "   midi.NoteOffEvent(tick=8, channel=0, data=[47, 0]),\n",
      "   midi.NoteOnEvent(tick=8, channel=0, data=[53, 231]),\n",
      "   midi.NoteOnEvent(tick=11, channel=0, data=[25, 133]),\n",
      "   midi.NoteOffEvent(tick=11, channel=0, data=[25, 0]),\n",
      "   midi.NoteOnEvent(tick=7, channel=0, data=[102, 199]),\n",
      "   midi.NoteOffEvent(tick=18, channel=0, data=[113, 0]),\n",
      "   midi.NoteOffEvent(tick=5, channel=0, data=[30, 0]),\n",
      "   midi.NoteOffEvent(tick=15, channel=0, data=[92, 0]),\n",
      "   midi.NoteOffEvent(tick=66, channel=0, data=[87, 0]),\n",
      "   midi.NoteOffEvent(tick=17, channel=0, data=[122, 0]),\n",
      "   midi.NoteOffEvent(tick=37, channel=0, data=[18, 0]),\n",
      "   midi.NoteOffEvent(tick=15, channel=0, data=[53, 0]),\n",
      "   midi.NoteOffEvent(tick=43, channel=0, data=[106, 0]),\n",
      "   midi.NoteOffEvent(tick=9, channel=0, data=[49, 0]),\n",
      "   midi.NoteOffEvent(tick=57, channel=0, data=[10, 0]),\n",
      "   midi.NoteOffEvent(tick=9, channel=0, data=[9, 0]),\n",
      "   midi.NoteOffEvent(tick=40, channel=0, data=[112, 0]),\n",
      "   midi.NoteOffEvent(tick=2, channel=0, data=[12, 0]),\n",
      "   midi.NoteOffEvent(tick=37, channel=0, data=[56, 0]),\n",
      "   midi.NoteOffEvent(tick=18, channel=0, data=[32, 0]),\n",
      "   midi.NoteOffEvent(tick=10, channel=0, data=[15, 0]),\n",
      "   midi.NoteOffEvent(tick=112, channel=0, data=[20, 0]),\n",
      "   midi.NoteOffEvent(tick=83, channel=0, data=[65, 0]),\n",
      "   midi.NoteOffEvent(tick=11, channel=0, data=[126, 0]),\n",
      "   midi.NoteOffEvent(tick=1, channel=0, data=[102, 0]),\n",
      "   midi.NoteOffEvent(tick=17, channel=0, data=[64, 0]),\n",
      "   midi.NoteOffEvent(tick=16, channel=0, data=[94, 0]),\n",
      "   midi.NoteOffEvent(tick=27, channel=0, data=[74, 0]),\n",
      "   midi.NoteOffEvent(tick=10, channel=0, data=[61, 0]),\n",
      "   midi.NoteOffEvent(tick=25, channel=0, data=[50, 0]),\n",
      "   midi.NoteOffEvent(tick=19, channel=0, data=[73, 0]),\n",
      "   midi.NoteOffEvent(tick=26, channel=0, data=[34, 0]),\n",
      "   midi.NoteOffEvent(tick=44, channel=0, data=[103, 0]),\n",
      "   midi.NoteOffEvent(tick=97, channel=0, data=[75, 0]),\n",
      "   midi.EndOfTrackEvent(tick=0, data=[])]),\n",
      " midi.Track(\\\n",
      "  [midi.SetTempoEvent(tick=0, data=[8, 227, 124]),\n",
      "   midi.ProgramChangeEvent(tick=0, channel=0, data=[24]),\n",
      "   midi.NoteOnEvent(tick=3, channel=0, data=[44, 130]),\n",
      "   midi.NoteOnEvent(tick=4, channel=0, data=[6, 102]),\n",
      "   midi.NoteOnEvent(tick=6, channel=0, data=[13, 60]),\n",
      "   midi.NoteOnEvent(tick=17, channel=0, data=[87, 148]),\n",
      "   midi.NoteOnEvent(tick=69, channel=0, data=[84, 166]),\n",
      "   midi.NoteOnEvent(tick=0, channel=0, data=[41, 221]),\n",
      "   midi.NoteOnEvent(tick=15, channel=0, data=[79, 8]),\n",
      "   midi.NoteOnEvent(tick=1, channel=0, data=[17, 118]),\n",
      "   midi.NoteOnEvent(tick=4, channel=0, data=[24, 224]),\n",
      "   midi.NoteOnEvent(tick=2, channel=0, data=[50, 230]),\n",
      "   midi.NoteOnEvent(tick=9, channel=0, data=[41, 3]),\n",
      "   midi.NoteOnEvent(tick=12, channel=0, data=[20, 56]),\n",
      "   midi.NoteOnEvent(tick=4, channel=0, data=[127, 26]),\n",
      "   midi.NoteOnEvent(tick=15, channel=0, data=[29, 107]),\n",
      "   midi.NoteOffEvent(tick=10, channel=0, data=[50, 0]),\n",
      "   midi.NoteOnEvent(tick=19, channel=0, data=[25, 126]),\n",
      "   midi.NoteOnEvent(tick=27, channel=0, data=[19, 207]),\n",
      "   midi.NoteOnEvent(tick=3, channel=0, data=[106, 148]),\n",
      "   midi.NoteOnEvent(tick=12, channel=0, data=[79, 40]),\n",
      "   midi.NoteOnEvent(tick=5, channel=0, data=[88, 125]),\n",
      "   midi.NoteOnEvent(tick=28, channel=0, data=[44, 224]),\n",
      "   midi.NoteOffEvent(tick=9, channel=0, data=[84, 0]),\n",
      "   midi.NoteOffEvent(tick=23, channel=0, data=[24, 0]),\n",
      "   midi.NoteOnEvent(tick=2, channel=0, data=[3, 68]),\n",
      "   midi.NoteOnEvent(tick=46, channel=0, data=[93, 232]),\n",
      "   midi.NoteOffEvent(tick=6, channel=0, data=[127, 0]),\n",
      "   midi.NoteOnEvent(tick=2, channel=0, data=[68, 206]),\n",
      "   midi.NoteOnEvent(tick=6, channel=0, data=[70, 128]),\n",
      "   midi.NoteOffEvent(tick=9, channel=0, data=[20, 0]),\n",
      "   midi.NoteOffEvent(tick=44, channel=0, data=[6, 0]),\n",
      "   midi.NoteOnEvent(tick=4, channel=0, data=[59, 145]),\n",
      "   midi.NoteOnEvent(tick=25, channel=0, data=[96, 18]),\n",
      "   midi.NoteOnEvent(tick=1, channel=0, data=[86, 31]),\n",
      "   midi.NoteOnEvent(tick=31, channel=0, data=[26, 235]),\n",
      "   midi.NoteOnEvent(tick=6, channel=0, data=[18, 0]),\n",
      "   midi.NoteOnEvent(tick=2, channel=0, data=[53, 69]),\n",
      "   midi.NoteOnEvent(tick=15, channel=0, data=[125, 47]),\n",
      "   midi.NoteOnEvent(tick=20, channel=0, data=[64, 133]),\n",
      "   midi.NoteOffEvent(tick=3, channel=0, data=[18, 0]),\n",
      "   midi.NoteOffEvent(tick=8, channel=0, data=[79, 0]),\n",
      "   midi.NoteOnEvent(tick=36, channel=0, data=[21, 190]),\n",
      "   midi.NoteOnEvent(tick=5, channel=0, data=[118, 208]),\n",
      "   midi.NoteOnEvent(tick=25, channel=0, data=[28, 245]),\n",
      "   midi.NoteOnEvent(tick=3, channel=0, data=[0, 43]),\n",
      "   midi.NoteOffEvent(tick=14, channel=0, data=[70, 0]),\n",
      "   midi.NoteOffEvent(tick=5, channel=0, data=[19, 0]),\n",
      "   midi.NoteOnEvent(tick=1, channel=0, data=[85, 134]),\n",
      "   midi.NoteOffEvent(tick=5, channel=0, data=[53, 0]),\n",
      "   midi.NoteOnEvent(tick=0, channel=0, data=[2, 95]),\n",
      "   midi.NoteOnEvent(tick=5, channel=0, data=[92, 62]),\n",
      "   midi.NoteOnEvent(tick=8, channel=0, data=[69, 88]),\n",
      "   midi.NoteOnEvent(tick=4, channel=0, data=[99, 93]),\n",
      "   midi.NoteOnEvent(tick=24, channel=0, data=[24, 225]),\n",
      "   midi.NoteOffEvent(tick=19, channel=0, data=[68, 0]),\n",
      "   midi.NoteOnEvent(tick=9, channel=0, data=[53, 218]),\n",
      "   midi.NoteOffEvent(tick=8, channel=0, data=[25, 0]),\n",
      "   midi.NoteOnEvent(tick=6, channel=0, data=[118, 10]),\n",
      "   midi.NoteOffEvent(tick=6, channel=0, data=[92, 0]),\n",
      "   midi.NoteOnEvent(tick=1, channel=0, data=[80, 124]),\n",
      "   midi.NoteOnEvent(tick=21, channel=0, data=[17, 131]),\n",
      "   midi.NoteOffEvent(tick=4, channel=0, data=[28, 0]),\n",
      "   midi.NoteOnEvent(tick=3, channel=0, data=[69, 161]),\n",
      "   midi.NoteOnEvent(tick=13, channel=0, data=[72, 2]),\n",
      "   midi.NoteOnEvent(tick=3, channel=0, data=[71, 54]),\n",
      "   midi.NoteOnEvent(tick=8, channel=0, data=[5, 59]),\n",
      "   midi.NoteOffEvent(tick=15, channel=0, data=[71, 0]),\n",
      "   midi.NoteOffEvent(tick=2, channel=0, data=[41, 0]),\n",
      "   midi.NoteOnEvent(tick=6, channel=0, data=[0, 196]),\n",
      "   midi.NoteOnEvent(tick=3, channel=0, data=[21, 12]),\n",
      "   midi.NoteOnEvent(tick=2, channel=0, data=[12, 97]),\n",
      "   midi.NoteOffEvent(tick=31, channel=0, data=[44, 0]),\n",
      "   midi.NoteOffEvent(tick=2, channel=0, data=[87, 0]),\n",
      "   midi.NoteOffEvent(tick=18, channel=0, data=[80, 0]),\n",
      "   midi.NoteOnEvent(tick=16, channel=0, data=[55, 129]),\n",
      "   midi.NoteOffEvent(tick=32, channel=0, data=[64, 0]),\n",
      "   midi.NoteOffEvent(tick=8, channel=0, data=[26, 0]),\n",
      "   midi.NoteOnEvent(tick=1, channel=0, data=[104, 146]),\n",
      "   midi.NoteOnEvent(tick=32, channel=0, data=[1, 203]),\n",
      "   midi.NoteOffEvent(tick=10, channel=0, data=[13, 0]),\n",
      "   midi.NoteOnEvent(tick=9, channel=0, data=[87, 200]),\n",
      "   midi.NoteOnEvent(tick=8, channel=0, data=[97, 118]),\n",
      "   midi.NoteOffEvent(tick=2, channel=0, data=[96, 0]),\n",
      "   midi.NoteOnEvent(tick=2, channel=0, data=[66, 95]),\n",
      "   midi.NoteOnEvent(tick=7, channel=0, data=[60, 231]),\n",
      "   midi.NoteOffEvent(tick=6, channel=0, data=[59, 0]),\n",
      "   midi.NoteOffEvent(tick=3, channel=0, data=[12, 0]),\n",
      "   midi.NoteOffEvent(tick=16, channel=0, data=[93, 0]),\n",
      "   midi.NoteOnEvent(tick=4, channel=0, data=[105, 87]),\n",
      "   midi.NoteOffEvent(tick=11, channel=0, data=[86, 0]),\n",
      "   midi.NoteOffEvent(tick=56, channel=0, data=[29, 0]),\n",
      "   midi.NoteOffEvent(tick=31, channel=0, data=[1, 0]),\n",
      "   midi.NoteOffEvent(tick=8, channel=0, data=[0, 0]),\n",
      "   midi.NoteOffEvent(tick=7, channel=0, data=[88, 0]),\n",
      "   midi.NoteOffEvent(tick=17, channel=0, data=[72, 0]),\n",
      "   midi.NoteOffEvent(tick=19, channel=0, data=[106, 0]),\n",
      "   midi.NoteOffEvent(tick=12, channel=0, data=[97, 0]),\n",
      "   midi.NoteOffEvent(tick=57, channel=0, data=[17, 0]),\n",
      "   midi.NoteOffEvent(tick=11, channel=0, data=[3, 0]),\n",
      "   midi.NoteOffEvent(tick=5, channel=0, data=[66, 0]),\n",
      "   midi.NoteOffEvent(tick=3, channel=0, data=[99, 0]),\n",
      "   midi.NoteOffEvent(tick=54, channel=0, data=[125, 0]),\n",
      "   midi.NoteOffEvent(tick=13, channel=0, data=[2, 0]),\n",
      "   midi.NoteOffEvent(tick=6, channel=0, data=[21, 0]),\n",
      "   midi.NoteOffEvent(tick=103, channel=0, data=[118, 0]),\n",
      "   midi.NoteOffEvent(tick=29, channel=0, data=[87, 0]),\n",
      "   midi.NoteOffEvent(tick=19, channel=0, data=[55, 0]),\n",
      "   midi.NoteOffEvent(tick=17, channel=0, data=[85, 0]),\n",
      "   midi.NoteOffEvent(tick=66, channel=0, data=[24, 0]),\n",
      "   midi.NoteOffEvent(tick=66, channel=0, data=[5, 0]),\n",
      "   midi.NoteOffEvent(tick=3, channel=0, data=[69, 0]),\n",
      "   midi.NoteOffEvent(tick=9, channel=0, data=[105, 0]),\n",
      "   midi.NoteOffEvent(tick=17, channel=0, data=[53, 0]),\n",
      "   midi.NoteOffEvent(tick=15, channel=0, data=[104, 0]),\n",
      "   midi.NoteOffEvent(tick=146, channel=0, data=[60, 0]),\n",
      "   midi.EndOfTrackEvent(tick=0, data=[])]),\n",
      " midi.Track(\\\n",
      "  [midi.SetTempoEvent(tick=0, data=[8, 227, 124]),\n",
      "   midi.ProgramChangeEvent(tick=0, channel=0, data=[25]),\n",
      "   midi.NoteOnEvent(tick=8, channel=0, data=[121, 90]),\n",
      "   midi.NoteOnEvent(tick=22, channel=0, data=[79, 233]),\n",
      "   midi.NoteOnEvent(tick=22, channel=0, data=[6, 96]),\n",
      "   midi.NoteOnEvent(tick=0, channel=0, data=[39, 12]),\n",
      "   midi.NoteOnEvent(tick=16, channel=0, data=[79, 183]),\n",
      "   midi.NoteOnEvent(tick=15, channel=0, data=[98, 67]),\n",
      "   midi.NoteOnEvent(tick=36, channel=0, data=[25, 140]),\n",
      "   midi.NoteOnEvent(tick=15, channel=0, data=[110, 245]),\n",
      "   midi.NoteOnEvent(tick=6, channel=0, data=[44, 69]),\n",
      "   midi.NoteOnEvent(tick=4, channel=0, data=[71, 150]),\n",
      "   midi.NoteOnEvent(tick=17, channel=0, data=[120, 196]),\n",
      "   midi.NoteOffEvent(tick=3, channel=0, data=[39, 0]),\n",
      "   midi.NoteOnEvent(tick=22, channel=0, data=[11, 190]),\n",
      "   midi.NoteOnEvent(tick=14, channel=0, data=[125, 93]),\n",
      "   midi.NoteOnEvent(tick=57, channel=0, data=[57, 36]),\n",
      "   midi.NoteOnEvent(tick=2, channel=0, data=[72, 69]),\n",
      "   midi.NoteOnEvent(tick=6, channel=0, data=[120, 54]),\n",
      "   midi.NoteOffEvent(tick=4, channel=0, data=[110, 0]),\n",
      "   midi.NoteOnEvent(tick=72, channel=0, data=[38, 197]),\n",
      "   midi.NoteOnEvent(tick=5, channel=0, data=[15, 30]),\n",
      "   midi.NoteOnEvent(tick=8, channel=0, data=[38, 48]),\n",
      "   midi.NoteOnEvent(tick=3, channel=0, data=[123, 97]),\n",
      "   midi.NoteOnEvent(tick=15, channel=0, data=[60, 13]),\n",
      "   midi.NoteOnEvent(tick=14, channel=0, data=[68, 71]),\n",
      "   midi.NoteOnEvent(tick=20, channel=0, data=[1, 222]),\n",
      "   midi.NoteOnEvent(tick=9, channel=0, data=[76, 245]),\n",
      "   midi.NoteOnEvent(tick=20, channel=0, data=[84, 89]),\n",
      "   midi.NoteOnEvent(tick=19, channel=0, data=[122, 165]),\n",
      "   midi.NoteOnEvent(tick=6, channel=0, data=[101, 68]),\n",
      "   midi.NoteOffEvent(tick=1, channel=0, data=[121, 0]),\n",
      "   midi.NoteOffEvent(tick=32, channel=0, data=[125, 0]),\n",
      "   midi.NoteOnEvent(tick=21, channel=0, data=[6, 202]),\n",
      "   midi.NoteOnEvent(tick=1, channel=0, data=[111, 62]),\n",
      "   midi.NoteOnEvent(tick=1, channel=0, data=[66, 89]),\n",
      "   midi.NoteOnEvent(tick=3, channel=0, data=[84, 248]),\n",
      "   midi.NoteOnEvent(tick=23, channel=0, data=[85, 189]),\n",
      "   midi.NoteOffEvent(tick=1, channel=0, data=[11, 0]),\n",
      "   midi.NoteOnEvent(tick=10, channel=0, data=[8, 36]),\n",
      "   midi.NoteOnEvent(tick=4, channel=0, data=[113, 221]),\n",
      "   midi.NoteOnEvent(tick=3, channel=0, data=[53, 13]),\n",
      "   midi.NoteOnEvent(tick=8, channel=0, data=[29, 22]),\n",
      "   midi.NoteOnEvent(tick=3, channel=0, data=[71, 173]),\n",
      "   midi.NoteOnEvent(tick=3, channel=0, data=[100, 158]),\n",
      "   midi.NoteOffEvent(tick=8, channel=0, data=[68, 0]),\n",
      "   midi.NoteOffEvent(tick=1, channel=0, data=[120, 0]),\n",
      "   midi.NoteOnEvent(tick=8, channel=0, data=[37, 53]),\n",
      "   midi.NoteOnEvent(tick=23, channel=0, data=[51, 149]),\n",
      "   midi.NoteOnEvent(tick=5, channel=0, data=[72, 104]),\n",
      "   midi.NoteOnEvent(tick=7, channel=0, data=[125, 12]),\n",
      "   midi.NoteOffEvent(tick=9, channel=0, data=[100, 0]),\n",
      "   midi.NoteOnEvent(tick=4, channel=0, data=[64, 81]),\n",
      "   midi.NoteOffEvent(tick=23, channel=0, data=[8, 0]),\n",
      "   midi.NoteOffEvent(tick=3, channel=0, data=[57, 0]),\n",
      "   midi.NoteOffEvent(tick=2, channel=0, data=[66, 0]),\n",
      "   midi.NoteOffEvent(tick=4, channel=0, data=[29, 0]),\n",
      "   midi.NoteOffEvent(tick=45, channel=0, data=[111, 0]),\n",
      "   midi.NoteOnEvent(tick=16, channel=0, data=[85, 136]),\n",
      "   midi.NoteOnEvent(tick=7, channel=0, data=[37, 219]),\n",
      "   midi.NoteOnEvent(tick=23, channel=0, data=[39, 189]),\n",
      "   midi.NoteOnEvent(tick=2, channel=0, data=[42, 255]),\n",
      "   midi.NoteOnEvent(tick=8, channel=0, data=[13, 226]),\n",
      "   midi.NoteOffEvent(tick=25, channel=0, data=[1, 0]),\n",
      "   midi.NoteOnEvent(tick=11, channel=0, data=[23, 84]),\n",
      "   midi.NoteOffEvent(tick=26, channel=0, data=[98, 0]),\n",
      "   midi.NoteOnEvent(tick=21, channel=0, data=[63, 155]),\n",
      "   midi.NoteOnEvent(tick=3, channel=0, data=[66, 103]),\n",
      "   midi.NoteOffEvent(tick=12, channel=0, data=[125, 0]),\n",
      "   midi.NoteOnEvent(tick=7, channel=0, data=[10, 118]),\n",
      "   midi.NoteOffEvent(tick=1, channel=0, data=[44, 0]),\n",
      "   midi.NoteOffEvent(tick=45, channel=0, data=[66, 0]),\n",
      "   midi.NoteOnEvent(tick=16, channel=0, data=[27, 117]),\n",
      "   midi.NoteOnEvent(tick=7, channel=0, data=[115, 165]),\n",
      "   midi.NoteOffEvent(tick=1, channel=0, data=[123, 0]),\n",
      "   midi.NoteOffEvent(tick=4, channel=0, data=[79, 0]),\n",
      "   midi.NoteOnEvent(tick=18, channel=0, data=[85, 147]),\n",
      "   midi.NoteOffEvent(tick=21, channel=0, data=[60, 0]),\n",
      "   midi.NoteOffEvent(tick=16, channel=0, data=[64, 0]),\n",
      "   midi.NoteOffEvent(tick=10, channel=0, data=[25, 0]),\n",
      "   midi.NoteOffEvent(tick=9, channel=0, data=[63, 0]),\n",
      "   midi.NoteOffEvent(tick=33, channel=0, data=[122, 0]),\n",
      "   midi.NoteOffEvent(tick=91, channel=0, data=[23, 0]),\n",
      "   midi.NoteOffEvent(tick=54, channel=0, data=[113, 0]),\n",
      "   midi.NoteOffEvent(tick=12, channel=0, data=[101, 0]),\n",
      "   midi.NoteOffEvent(tick=2, channel=0, data=[15, 0]),\n",
      "   midi.NoteOffEvent(tick=8, channel=0, data=[84, 0]),\n",
      "   midi.NoteOffEvent(tick=25, channel=0, data=[13, 0]),\n",
      "   midi.NoteOffEvent(tick=50, channel=0, data=[6, 0]),\n",
      "   midi.NoteOffEvent(tick=5, channel=0, data=[38, 0]),\n",
      "   midi.NoteOffEvent(tick=32, channel=0, data=[76, 0]),\n",
      "   midi.NoteOffEvent(tick=15, channel=0, data=[39, 0]),\n",
      "   midi.NoteOffEvent(tick=34, channel=0, data=[27, 0]),\n",
      "   midi.NoteOffEvent(tick=51, channel=0, data=[37, 0]),\n",
      "   midi.NoteOffEvent(tick=8, channel=0, data=[85, 0]),\n",
      "   midi.NoteOffEvent(tick=28, channel=0, data=[53, 0]),\n",
      "   midi.NoteOffEvent(tick=46, channel=0, data=[71, 0]),\n",
      "   midi.NoteOffEvent(tick=10, channel=0, data=[72, 0]),\n",
      "   midi.NoteOffEvent(tick=7, channel=0, data=[115, 0]),\n",
      "   midi.NoteOffEvent(tick=23, channel=0, data=[51, 0]),\n",
      "   midi.NoteOffEvent(tick=157, channel=0, data=[42, 0]),\n",
      "   midi.NoteOffEvent(tick=130, channel=0, data=[10, 0]),\n",
      "   midi.EndOfTrackEvent(tick=0, data=[])]),\n",
      " midi.Track(\\\n",
      "  [midi.SetTempoEvent(tick=0, data=[8, 227, 124]),\n",
      "   midi.ProgramChangeEvent(tick=0, channel=0, data=[26]),\n",
      "   midi.NoteOnEvent(tick=97, channel=0, data=[127, 88]),\n",
      "   midi.NoteOnEvent(tick=0, channel=0, data=[24, 183]),\n",
      "   midi.NoteOnEvent(tick=2, channel=0, data=[60, 158]),\n",
      "   midi.NoteOnEvent(tick=22, channel=0, data=[20, 35]),\n",
      "   midi.NoteOnEvent(tick=8, channel=0, data=[37, 100]),\n",
      "   midi.NoteOnEvent(tick=1, channel=0, data=[106, 198]),\n",
      "   midi.NoteOnEvent(tick=8, channel=0, data=[79, 228]),\n",
      "   midi.NoteOnEvent(tick=8, channel=0, data=[13, 245]),\n",
      "   midi.NoteOnEvent(tick=51, channel=0, data=[0, 17]),\n",
      "   midi.NoteOnEvent(tick=10, channel=0, data=[23, 233]),\n",
      "   midi.NoteOnEvent(tick=0, channel=0, data=[120, 185]),\n",
      "   midi.NoteOnEvent(tick=24, channel=0, data=[3, 186]),\n",
      "   midi.NoteOnEvent(tick=9, channel=0, data=[34, 3]),\n",
      "   midi.NoteOnEvent(tick=16, channel=0, data=[91, 169]),\n",
      "   midi.NoteOnEvent(tick=3, channel=0, data=[102, 193]),\n",
      "   midi.NoteOnEvent(tick=10, channel=0, data=[72, 184]),\n",
      "   midi.NoteOnEvent(tick=11, channel=0, data=[111, 87]),\n",
      "   midi.NoteOffEvent(tick=1, channel=0, data=[13, 0]),\n",
      "   midi.NoteOffEvent(tick=45, channel=0, data=[20, 0]),\n",
      "   midi.NoteOnEvent(tick=23, channel=0, data=[50, 51]),\n",
      "   midi.NoteOnEvent(tick=1, channel=0, data=[41, 97]),\n",
      "   midi.NoteOnEvent(tick=21, channel=0, data=[61, 198]),\n",
      "   midi.NoteOnEvent(tick=25, channel=0, data=[54, 185]),\n",
      "   midi.NoteOnEvent(tick=2, channel=0, data=[109, 236]),\n",
      "   midi.NoteOnEvent(tick=37, channel=0, data=[48, 89]),\n",
      "   midi.NoteOnEvent(tick=7, channel=0, data=[12, 119]),\n",
      "   midi.NoteOffEvent(tick=19, channel=0, data=[72, 0]),\n",
      "   midi.NoteOnEvent(tick=10, channel=0, data=[123, 95]),\n",
      "   midi.NoteOnEvent(tick=1, channel=0, data=[14, 214]),\n",
      "   midi.NoteOnEvent(tick=5, channel=0, data=[52, 122]),\n",
      "   midi.NoteOffEvent(tick=6, channel=0, data=[34, 0]),\n",
      "   midi.NoteOnEvent(tick=5, channel=0, data=[92, 236]),\n",
      "   midi.NoteOffEvent(tick=2, channel=0, data=[50, 0]),\n",
      "   midi.NoteOffEvent(tick=13, channel=0, data=[102, 0]),\n",
      "   midi.NoteOnEvent(tick=7, channel=0, data=[107, 65]),\n",
      "   midi.NoteOnEvent(tick=5, channel=0, data=[51, 100]),\n",
      "   midi.NoteOnEvent(tick=1, channel=0, data=[74, 113]),\n",
      "   midi.NoteOnEvent(tick=16, channel=0, data=[104, 51]),\n",
      "   midi.NoteOnEvent(tick=3, channel=0, data=[124, 255]),\n",
      "   midi.NoteOnEvent(tick=20, channel=0, data=[118, 135]),\n",
      "   midi.NoteOffEvent(tick=12, channel=0, data=[37, 0]),\n",
      "   midi.NoteOffEvent(tick=15, channel=0, data=[48, 0]),\n",
      "   midi.NoteOffEvent(tick=2, channel=0, data=[24, 0]),\n",
      "   midi.NoteOffEvent(tick=3, channel=0, data=[0, 0]),\n",
      "   midi.NoteOnEvent(tick=4, channel=0, data=[119, 252]),\n",
      "   midi.NoteOnEvent(tick=2, channel=0, data=[116, 10]),\n",
      "   midi.NoteOnEvent(tick=3, channel=0, data=[19, 22]),\n",
      "   midi.NoteOnEvent(tick=1, channel=0, data=[51, 69]),\n",
      "   midi.NoteOffEvent(tick=5, channel=0, data=[54, 0]),\n",
      "   midi.NoteOnEvent(tick=3, channel=0, data=[91, 58]),\n",
      "   midi.NoteOffEvent(tick=20, channel=0, data=[61, 0]),\n",
      "   midi.NoteOffEvent(tick=41, channel=0, data=[51, 0]),\n",
      "   midi.NoteOnEvent(tick=4, channel=0, data=[59, 216]),\n",
      "   midi.NoteOnEvent(tick=22, channel=0, data=[115, 91]),\n",
      "   midi.NoteOffEvent(tick=12, channel=0, data=[79, 0]),\n",
      "   midi.NoteOnEvent(tick=11, channel=0, data=[55, 231]),\n",
      "   midi.NoteOnEvent(tick=2, channel=0, data=[11, 121]),\n",
      "   midi.NoteOnEvent(tick=2, channel=0, data=[53, 44]),\n",
      "   midi.NoteOnEvent(tick=0, channel=0, data=[9, 166]),\n",
      "   midi.NoteOnEvent(tick=16, channel=0, data=[122, 187]),\n",
      "   midi.NoteOnEvent(tick=4, channel=0, data=[9, 179]),\n",
      "   midi.NoteOnEvent(tick=2, channel=0, data=[14, 34]),\n",
      "   midi.NoteOnEvent(tick=3, channel=0, data=[1, 2]),\n",
      "   midi.NoteOnEvent(tick=8, channel=0, data=[98, 62]),\n",
      "   midi.NoteOnEvent(tick=3, channel=0, data=[4, 181]),\n",
      "   midi.NoteOffEvent(tick=28, channel=0, data=[109, 0]),\n",
      "   midi.NoteOffEvent(tick=0, channel=0, data=[120, 0]),\n",
      "   midi.NoteOffEvent(tick=3, channel=0, data=[123, 0]),\n",
      "   midi.NoteOffEvent(tick=6, channel=0, data=[119, 0]),\n",
      "   midi.NoteOnEvent(tick=9, channel=0, data=[111, 139]),\n",
      "   midi.NoteOffEvent(tick=4, channel=0, data=[104, 0]),\n",
      "   midi.NoteOffEvent(tick=0, channel=0, data=[116, 0]),\n",
      "   midi.NoteOnEvent(tick=3, channel=0, data=[36, 53]),\n",
      "   midi.NoteOnEvent(tick=10, channel=0, data=[119, 128]),\n",
      "   midi.NoteOffEvent(tick=22, channel=0, data=[1, 0]),\n",
      "   midi.NoteOffEvent(tick=11, channel=0, data=[3, 0]),\n",
      "   midi.NoteOffEvent(tick=13, channel=0, data=[52, 0]),\n",
      "   midi.NoteOnEvent(tick=13, channel=0, data=[112, 15]),\n",
      "   midi.NoteOnEvent(tick=57, channel=0, data=[107, 52]),\n",
      "   midi.NoteOffEvent(tick=1, channel=0, data=[11, 0]),\n",
      "   midi.NoteOffEvent(tick=28, channel=0, data=[23, 0]),\n",
      "   midi.NoteOffEvent(tick=2, channel=0, data=[14, 0]),\n",
      "   midi.NoteOnEvent(tick=4, channel=0, data=[46, 31]),\n",
      "   midi.NoteOffEvent(tick=6, channel=0, data=[41, 0]),\n",
      "   midi.NoteOffEvent(tick=25, channel=0, data=[60, 0]),\n",
      "   midi.NoteOffEvent(tick=41, channel=0, data=[127, 0]),\n",
      "   midi.NoteOffEvent(tick=4, channel=0, data=[91, 0]),\n",
      "   midi.NoteOffEvent(tick=10, channel=0, data=[55, 0]),\n",
      "   midi.NoteOffEvent(tick=13, channel=0, data=[46, 0]),\n",
      "   midi.NoteOffEvent(tick=30, channel=0, data=[106, 0]),\n",
      "   midi.NoteOffEvent(tick=15, channel=0, data=[59, 0]),\n",
      "   midi.NoteOffEvent(tick=68, channel=0, data=[124, 0]),\n",
      "   midi.NoteOffEvent(tick=26, channel=0, data=[118, 0]),\n",
      "   midi.NoteOffEvent(tick=22, channel=0, data=[19, 0]),\n",
      "   midi.NoteOffEvent(tick=39, channel=0, data=[115, 0]),\n",
      "   midi.NoteOffEvent(tick=13, channel=0, data=[107, 0]),\n",
      "   midi.NoteOffEvent(tick=22, channel=0, data=[9, 0]),\n",
      "   midi.NoteOffEvent(tick=9, channel=0, data=[36, 0]),\n",
      "   midi.NoteOffEvent(tick=20, channel=0, data=[92, 0]),\n",
      "   midi.NoteOffEvent(tick=5, channel=0, data=[4, 0]),\n",
      "   midi.NoteOffEvent(tick=73, channel=0, data=[12, 0]),\n",
      "   midi.NoteOffEvent(tick=16, channel=0, data=[112, 0]),\n",
      "   midi.NoteOffEvent(tick=3, channel=0, data=[53, 0]),\n",
      "   midi.NoteOffEvent(tick=8, channel=0, data=[98, 0]),\n",
      "   midi.NoteOffEvent(tick=65, channel=0, data=[74, 0]),\n",
      "   midi.NoteOffEvent(tick=91, channel=0, data=[111, 0]),\n",
      "   midi.NoteOffEvent(tick=5, channel=0, data=[122, 0]),\n",
      "   midi.NoteOffEvent(tick=65, channel=0, data=[119, 0]),\n",
      "   midi.EndOfTrackEvent(tick=0, data=[])]),\n",
      " midi.Track(\\\n",
      "  [midi.SetTempoEvent(tick=0, data=[8, 227, 124]),\n",
      "   midi.ProgramChangeEvent(tick=0, channel=0, data=[27]),\n",
      "   midi.NoteOnEvent(tick=7, channel=0, data=[46, 187]),\n",
      "   midi.NoteOnEvent(tick=4, channel=0, data=[15, 71]),\n",
      "   midi.NoteOnEvent(tick=57, channel=0, data=[68, 115]),\n",
      "   midi.NoteOnEvent(tick=10, channel=0, data=[34, 172]),\n",
      "   midi.NoteOnEvent(tick=16, channel=0, data=[39, 38]),\n",
      "   midi.NoteOnEvent(tick=27, channel=0, data=[104, 254]),\n",
      "   midi.NoteOnEvent(tick=0, channel=0, data=[2, 126]),\n",
      "   midi.NoteOnEvent(tick=9, channel=0, data=[95, 100]),\n",
      "   midi.NoteOnEvent(tick=2, channel=0, data=[40, 72]),\n",
      "   midi.NoteOnEvent(tick=10, channel=0, data=[23, 26]),\n",
      "   midi.NoteOnEvent(tick=1, channel=0, data=[59, 9]),\n",
      "   midi.NoteOffEvent(tick=1, channel=0, data=[40, 0]),\n",
      "   midi.NoteOnEvent(tick=9, channel=0, data=[62, 56]),\n",
      "   midi.NoteOnEvent(tick=7, channel=0, data=[50, 153]),\n",
      "   midi.NoteOnEvent(tick=10, channel=0, data=[48, 23]),\n",
      "   midi.NoteOnEvent(tick=0, channel=0, data=[109, 41]),\n",
      "   midi.NoteOnEvent(tick=7, channel=0, data=[113, 198]),\n",
      "   midi.NoteOnEvent(tick=2, channel=0, data=[127, 140]),\n",
      "   midi.NoteOffEvent(tick=6, channel=0, data=[48, 0]),\n",
      "   midi.NoteOnEvent(tick=12, channel=0, data=[13, 236]),\n",
      "   midi.NoteOnEvent(tick=12, channel=0, data=[105, 61]),\n",
      "   midi.NoteOnEvent(tick=39, channel=0, data=[57, 0]),\n",
      "   midi.NoteOffEvent(tick=31, channel=0, data=[34, 0]),\n",
      "   midi.NoteOnEvent(tick=14, channel=0, data=[64, 157]),\n",
      "   midi.NoteOnEvent(tick=6, channel=0, data=[57, 174]),\n",
      "   midi.NoteOffEvent(tick=3, channel=0, data=[39, 0]),\n",
      "   midi.NoteOnEvent(tick=1, channel=0, data=[104, 252]),\n",
      "   midi.NoteOnEvent(tick=15, channel=0, data=[31, 242]),\n",
      "   midi.NoteOnEvent(tick=13, channel=0, data=[78, 57]),\n",
      "   midi.NoteOnEvent(tick=19, channel=0, data=[40, 120]),\n",
      "   midi.NoteOnEvent(tick=36, channel=0, data=[69, 2]),\n",
      "   midi.NoteOffEvent(tick=1, channel=0, data=[95, 0]),\n",
      "   midi.NoteOnEvent(tick=17, channel=0, data=[78, 22]),\n",
      "   midi.NoteOnEvent(tick=2, channel=0, data=[100, 196]),\n",
      "   midi.NoteOnEvent(tick=2, channel=0, data=[69, 156]),\n",
      "   midi.NoteOffEvent(tick=7, channel=0, data=[109, 0]),\n",
      "   midi.NoteOnEvent(tick=0, channel=0, data=[106, 67]),\n",
      "   midi.NoteOnEvent(tick=1, channel=0, data=[105, 146]),\n",
      "   midi.NoteOnEvent(tick=9, channel=0, data=[92, 1]),\n",
      "   midi.NoteOffEvent(tick=18, channel=0, data=[113, 0]),\n",
      "   midi.NoteOnEvent(tick=17, channel=0, data=[99, 123]),\n",
      "   midi.NoteOffEvent(tick=10, channel=0, data=[59, 0]),\n",
      "   midi.NoteOffEvent(tick=6, channel=0, data=[46, 0]),\n",
      "   midi.NoteOffEvent(tick=6, channel=0, data=[15, 0]),\n",
      "   midi.NoteOnEvent(tick=4, channel=0, data=[125, 204]),\n",
      "   midi.NoteOnEvent(tick=10, channel=0, data=[97, 114]),\n",
      "   midi.NoteOnEvent(tick=14, channel=0, data=[77, 242]),\n",
      "   midi.NoteOffEvent(tick=18, channel=0, data=[23, 0]),\n",
      "   midi.NoteOnEvent(tick=4, channel=0, data=[107, 191]),\n",
      "   midi.NoteOnEvent(tick=3, channel=0, data=[106, 62]),\n",
      "   midi.NoteOnEvent(tick=12, channel=0, data=[109, 249]),\n",
      "   midi.NoteOnEvent(tick=9, channel=0, data=[73, 112]),\n",
      "   midi.NoteOffEvent(tick=3, channel=0, data=[127, 0]),\n",
      "   midi.NoteOnEvent(tick=9, channel=0, data=[40, 41]),\n",
      "   midi.NoteOnEvent(tick=5, channel=0, data=[18, 229]),\n",
      "   midi.NoteOnEvent(tick=8, channel=0, data=[91, 249]),\n",
      "   midi.NoteOffEvent(tick=5, channel=0, data=[99, 0]),\n",
      "   midi.NoteOnEvent(tick=10, channel=0, data=[71, 246]),\n",
      "   midi.NoteOnEvent(tick=0, channel=0, data=[58, 152]),\n",
      "   midi.NoteOffEvent(tick=8, channel=0, data=[105, 0]),\n",
      "   midi.NoteOffEvent(tick=5, channel=0, data=[62, 0]),\n",
      "   midi.NoteOnEvent(tick=5, channel=0, data=[21, 194]),\n",
      "   midi.NoteOffEvent(tick=6, channel=0, data=[58, 0]),\n",
      "   midi.NoteOnEvent(tick=6, channel=0, data=[36, 220]),\n",
      "   midi.NoteOnEvent(tick=31, channel=0, data=[119, 113]),\n",
      "   midi.NoteOnEvent(tick=8, channel=0, data=[109, 212]),\n",
      "   midi.NoteOnEvent(tick=1, channel=0, data=[115, 43]),\n",
      "   midi.NoteOnEvent(tick=11, channel=0, data=[120, 109]),\n",
      "   midi.NoteOnEvent(tick=8, channel=0, data=[90, 56]),\n",
      "   midi.NoteOnEvent(tick=9, channel=0, data=[4, 117]),\n",
      "   midi.NoteOffEvent(tick=14, channel=0, data=[36, 0]),\n",
      "   midi.NoteOnEvent(tick=5, channel=0, data=[76, 14]),\n",
      "   midi.NoteOnEvent(tick=13, channel=0, data=[18, 96]),\n",
      "   midi.NoteOnEvent(tick=1, channel=0, data=[1, 8]),\n",
      "   midi.NoteOffEvent(tick=11, channel=0, data=[77, 0]),\n",
      "   midi.NoteOffEvent(tick=0, channel=0, data=[78, 0]),\n",
      "   midi.NoteOnEvent(tick=6, channel=0, data=[9, 70]),\n",
      "   midi.NoteOffEvent(tick=4, channel=0, data=[9, 0]),\n",
      "   midi.NoteOffEvent(tick=19, channel=0, data=[4, 0]),\n",
      "   midi.NoteOffEvent(tick=3, channel=0, data=[90, 0]),\n",
      "   midi.NoteOffEvent(tick=0, channel=0, data=[100, 0]),\n",
      "   midi.NoteOffEvent(tick=4, channel=0, data=[50, 0]),\n",
      "   midi.NoteOnEvent(tick=5, channel=0, data=[34, 5]),\n",
      "   midi.NoteOffEvent(tick=1, channel=0, data=[13, 0]),\n",
      "   midi.NoteOffEvent(tick=5, channel=0, data=[18, 0]),\n",
      "   midi.NoteOnEvent(tick=1, channel=0, data=[59, 119]),\n",
      "   midi.NoteOnEvent(tick=3, channel=0, data=[42, 48]),\n",
      "   midi.NoteOffEvent(tick=18, channel=0, data=[2, 0]),\n",
      "   midi.NoteOnEvent(tick=6, channel=0, data=[72, 115]),\n",
      "   midi.NoteOnEvent(tick=45, channel=0, data=[123, 111]),\n",
      "   midi.NoteOffEvent(tick=18, channel=0, data=[97, 0]),\n",
      "   midi.NoteOffEvent(tick=22, channel=0, data=[104, 0]),\n",
      "   midi.NoteOnEvent(tick=5, channel=0, data=[3, 66]),\n",
      "   midi.NoteOnEvent(tick=22, channel=0, data=[118, 13]),\n",
      "   midi.NoteOffEvent(tick=1, channel=0, data=[42, 0]),\n",
      "   midi.NoteOnEvent(tick=6, channel=0, data=[30, 136]),\n",
      "   midi.NoteOnEvent(tick=2, channel=0, data=[110, 130]),\n",
      "   midi.NoteOnEvent(tick=4, channel=0, data=[6, 238]),\n",
      "   midi.NoteOffEvent(tick=16, channel=0, data=[76, 0]),\n",
      "   midi.NoteOffEvent(tick=2, channel=0, data=[40, 0]),\n",
      "   midi.NoteOnEvent(tick=13, channel=0, data=[56, 213]),\n",
      "   midi.NoteOnEvent(tick=8, channel=0, data=[95, 187]),\n",
      "   midi.NoteOnEvent(tick=14, channel=0, data=[107, 53]),\n",
      "   midi.NoteOnEvent(tick=7, channel=0, data=[114, 187]),\n",
      "   midi.NoteOffEvent(tick=25, channel=0, data=[68, 0]),\n",
      "   midi.NoteOffEvent(tick=7, channel=0, data=[57, 0]),\n",
      "   midi.NoteOffEvent(tick=44, channel=0, data=[106, 0]),\n",
      "   midi.NoteOffEvent(tick=11, channel=0, data=[69, 0]),\n",
      "   midi.NoteOffEvent(tick=6, channel=0, data=[72, 0]),\n",
      "   midi.NoteOffEvent(tick=14, channel=0, data=[31, 0]),\n",
      "   midi.NoteOffEvent(tick=2, channel=0, data=[92, 0]),\n",
      "   midi.NoteOffEvent(tick=13, channel=0, data=[34, 0]),\n",
      "   midi.NoteOffEvent(tick=19, channel=0, data=[91, 0]),\n",
      "   midi.NoteOffEvent(tick=37, channel=0, data=[110, 0]),\n",
      "   midi.NoteOffEvent(tick=13, channel=0, data=[107, 0]),\n",
      "   midi.NoteOffEvent(tick=32, channel=0, data=[64, 0]),\n",
      "   midi.NoteOffEvent(tick=88, channel=0, data=[73, 0]),\n",
      "   midi.NoteOffEvent(tick=8, channel=0, data=[123, 0]),\n",
      "   midi.NoteOffEvent(tick=13, channel=0, data=[71, 0]),\n",
      "   midi.NoteOffEvent(tick=8, channel=0, data=[21, 0]),\n",
      "   midi.NoteOffEvent(tick=16, channel=0, data=[125, 0]),\n",
      "   midi.NoteOffEvent(tick=25, channel=0, data=[118, 0]),\n",
      "   midi.NoteOffEvent(tick=9, channel=0, data=[6, 0]),\n",
      "   midi.NoteOffEvent(tick=3, channel=0, data=[56, 0]),\n",
      "   midi.NoteOffEvent(tick=8, channel=0, data=[3, 0]),\n",
      "   midi.NoteOffEvent(tick=124, channel=0, data=[119, 0]),\n",
      "   midi.NoteOffEvent(tick=41, channel=0, data=[1, 0]),\n",
      "   midi.NoteOffEvent(tick=55, channel=0, data=[109, 0]),\n",
      "   midi.NoteOffEvent(tick=6, channel=0, data=[120, 0]),\n",
      "   midi.NoteOffEvent(tick=19, channel=0, data=[115, 0]),\n",
      "   midi.NoteOffEvent(tick=41, channel=0, data=[59, 0]),\n",
      "   midi.NoteOffEvent(tick=101, channel=0, data=[30, 0]),\n",
      "   midi.NoteOffEvent(tick=80, channel=0, data=[95, 0]),\n",
      "   midi.NoteOffEvent(tick=29, channel=0, data=[114, 0]),\n",
      "   midi.EndOfTrackEvent(tick=0, data=[])]),\n",
      " midi.Track(\\\n",
      "  [midi.SetTempoEvent(tick=0, data=[8, 227, 124]),\n",
      "   midi.ProgramChangeEvent(tick=0, channel=0, data=[28]),\n",
      "   midi.NoteOnEvent(tick=11, channel=0, data=[120, 215]),\n",
      "   midi.NoteOnEvent(tick=7, channel=0, data=[57, 249]),\n",
      "   midi.NoteOnEvent(tick=10, channel=0, data=[120, 247]),\n",
      "   midi.NoteOnEvent(tick=7, channel=0, data=[64, 105]),\n",
      "   midi.NoteOnEvent(tick=28, channel=0, data=[103, 114]),\n",
      "   midi.NoteOnEvent(tick=5, channel=0, data=[114, 44]),\n",
      "   midi.NoteOnEvent(tick=29, channel=0, data=[67, 134]),\n",
      "   midi.NoteOnEvent(tick=37, channel=0, data=[29, 27]),\n",
      "   midi.NoteOnEvent(tick=19, channel=0, data=[118, 230]),\n",
      "   midi.NoteOnEvent(tick=0, channel=0, data=[60, 215]),\n",
      "   midi.NoteOnEvent(tick=8, channel=0, data=[81, 45]),\n",
      "   midi.NoteOnEvent(tick=18, channel=0, data=[18, 109]),\n",
      "   midi.NoteOffEvent(tick=33, channel=0, data=[81, 0]),\n",
      "   midi.NoteOnEvent(tick=16, channel=0, data=[112, 12]),\n",
      "   midi.NoteOnEvent(tick=0, channel=0, data=[47, 139]),\n",
      "   midi.NoteOnEvent(tick=0, channel=0, data=[9, 222]),\n",
      "   midi.NoteOnEvent(tick=8, channel=0, data=[75, 6]),\n",
      "   midi.NoteOnEvent(tick=9, channel=0, data=[88, 243]),\n",
      "   midi.NoteOffEvent(tick=21, channel=0, data=[67, 0]),\n",
      "   midi.NoteOnEvent(tick=42, channel=0, data=[5, 110]),\n",
      "   midi.NoteOnEvent(tick=33, channel=0, data=[70, 148]),\n",
      "   midi.NoteOnEvent(tick=42, channel=0, data=[115, 12]),\n",
      "   midi.NoteOffEvent(tick=4, channel=0, data=[57, 0]),\n",
      "   midi.NoteOffEvent(tick=18, channel=0, data=[9, 0]),\n",
      "   midi.NoteOnEvent(tick=20, channel=0, data=[123, 86]),\n",
      "   midi.NoteOffEvent(tick=33, channel=0, data=[75, 0]),\n",
      "   midi.NoteOnEvent(tick=17, channel=0, data=[124, 71]),\n",
      "   midi.NoteOnEvent(tick=1, channel=0, data=[45, 245]),\n",
      "   midi.NoteOffEvent(tick=4, channel=0, data=[103, 0]),\n",
      "   midi.NoteOnEvent(tick=1, channel=0, data=[2, 85]),\n",
      "   midi.NoteOnEvent(tick=0, channel=0, data=[53, 162]),\n",
      "   midi.NoteOnEvent(tick=2, channel=0, data=[108, 187]),\n",
      "   midi.NoteOnEvent(tick=10, channel=0, data=[125, 83]),\n",
      "   midi.NoteOnEvent(tick=0, channel=0, data=[66, 20]),\n",
      "   midi.NoteOnEvent(tick=3, channel=0, data=[47, 8]),\n",
      "   midi.NoteOnEvent(tick=72, channel=0, data=[51, 123]),\n",
      "   midi.NoteOnEvent(tick=0, channel=0, data=[103, 214]),\n",
      "   midi.NoteOnEvent(tick=3, channel=0, data=[113, 229]),\n",
      "   midi.NoteOnEvent(tick=0, channel=0, data=[119, 236]),\n",
      "   midi.NoteOffEvent(tick=14, channel=0, data=[88, 0]),\n",
      "   midi.NoteOnEvent(tick=7, channel=0, data=[51, 183]),\n",
      "   midi.NoteOnEvent(tick=1, channel=0, data=[53, 13]),\n",
      "   midi.NoteOffEvent(tick=18, channel=0, data=[114, 0]),\n",
      "   midi.NoteOnEvent(tick=27, channel=0, data=[14, 164]),\n",
      "   midi.NoteOnEvent(tick=15, channel=0, data=[30, 235]),\n",
      "   midi.NoteOnEvent(tick=32, channel=0, data=[13, 27]),\n",
      "   midi.NoteOnEvent(tick=3, channel=0, data=[59, 156]),\n",
      "   midi.NoteOnEvent(tick=6, channel=0, data=[51, 13]),\n",
      "   midi.NoteOffEvent(tick=6, channel=0, data=[124, 0]),\n",
      "   midi.NoteOffEvent(tick=11, channel=0, data=[108, 0]),\n",
      "   midi.NoteOffEvent(tick=1, channel=0, data=[118, 0]),\n",
      "   midi.NoteOffEvent(tick=8, channel=0, data=[51, 0]),\n",
      "   midi.NoteOffEvent(tick=9, channel=0, data=[120, 0]),\n",
      "   midi.NoteOnEvent(tick=3, channel=0, data=[114, 112]),\n",
      "   midi.NoteOnEvent(tick=3, channel=0, data=[107, 199]),\n",
      "   midi.NoteOnEvent(tick=1, channel=0, data=[9, 157]),\n",
      "   midi.NoteOnEvent(tick=4, channel=0, data=[102, 253]),\n",
      "   midi.NoteOnEvent(tick=46, channel=0, data=[92, 83]),\n",
      "   midi.NoteOnEvent(tick=3, channel=0, data=[2, 33]),\n",
      "   midi.NoteOffEvent(tick=16, channel=0, data=[92, 0]),\n",
      "   midi.NoteOffEvent(tick=6, channel=0, data=[29, 0]),\n",
      "   midi.NoteOffEvent(tick=55, channel=0, data=[47, 0]),\n",
      "   midi.NoteOnEvent(tick=9, channel=0, data=[89, 152]),\n",
      "   midi.NoteOnEvent(tick=2, channel=0, data=[42, 62]),\n",
      "   midi.NoteOffEvent(tick=6, channel=0, data=[123, 0]),\n",
      "   midi.NoteOnEvent(tick=4, channel=0, data=[74, 124]),\n",
      "   midi.NoteOnEvent(tick=0, channel=0, data=[89, 210]),\n",
      "   midi.NoteOffEvent(tick=23, channel=0, data=[64, 0]),\n",
      "   midi.NoteOffEvent(tick=1, channel=0, data=[60, 0]),\n",
      "   midi.NoteOffEvent(tick=7, channel=0, data=[125, 0]),\n",
      "   midi.NoteOnEvent(tick=20, channel=0, data=[102, 234]),\n",
      "   midi.NoteOnEvent(tick=4, channel=0, data=[22, 141]),\n",
      "   midi.NoteOffEvent(tick=10, channel=0, data=[114, 0]),\n",
      "   midi.NoteOnEvent(tick=3, channel=0, data=[10, 31]),\n",
      "   midi.NoteOnEvent(tick=10, channel=0, data=[8, 45]),\n",
      "   midi.NoteOnEvent(tick=4, channel=0, data=[18, 36]),\n",
      "   midi.NoteOnEvent(tick=3, channel=0, data=[66, 161]),\n",
      "   midi.NoteOnEvent(tick=3, channel=0, data=[112, 17]),\n",
      "   midi.NoteOnEvent(tick=18, channel=0, data=[22, 131]),\n",
      "   midi.NoteOnEvent(tick=5, channel=0, data=[90, 53]),\n",
      "   midi.NoteOffEvent(tick=37, channel=0, data=[5, 0]),\n",
      "   midi.NoteOffEvent(tick=28, channel=0, data=[115, 0]),\n",
      "   midi.NoteOffEvent(tick=29, channel=0, data=[59, 0]),\n",
      "   midi.NoteOffEvent(tick=12, channel=0, data=[103, 0]),\n",
      "   midi.NoteOffEvent(tick=21, channel=0, data=[9, 0]),\n",
      "   midi.NoteOffEvent(tick=23, channel=0, data=[74, 0]),\n",
      "   midi.NoteOffEvent(tick=30, channel=0, data=[2, 0]),\n",
      "   midi.NoteOffEvent(tick=40, channel=0, data=[45, 0]),\n",
      "   midi.NoteOffEvent(tick=0, channel=0, data=[102, 0]),\n",
      "   midi.NoteOffEvent(tick=28, channel=0, data=[18, 0]),\n",
      "   midi.NoteOffEvent(tick=16, channel=0, data=[14, 0]),\n",
      "   midi.NoteOffEvent(tick=1, channel=0, data=[66, 0]),\n",
      "   midi.NoteOffEvent(tick=38, channel=0, data=[70, 0]),\n",
      "   midi.NoteOffEvent(tick=23, channel=0, data=[42, 0]),\n",
      "   midi.NoteOffEvent(tick=9, channel=0, data=[119, 0]),\n",
      "   midi.NoteOffEvent(tick=68, channel=0, data=[22, 0]),\n",
      "   midi.NoteOffEvent(tick=27, channel=0, data=[113, 0]),\n",
      "   midi.NoteOffEvent(tick=7, channel=0, data=[13, 0]),\n",
      "   midi.NoteOffEvent(tick=11, channel=0, data=[53, 0]),\n",
      "   midi.NoteOffEvent(tick=5, channel=0, data=[30, 0]),\n",
      "   midi.NoteOffEvent(tick=114, channel=0, data=[89, 0]),\n",
      "   midi.NoteOffEvent(tick=29, channel=0, data=[8, 0]),\n",
      "   midi.NoteOffEvent(tick=42, channel=0, data=[107, 0]),\n",
      "   midi.NoteOffEvent(tick=266, channel=0, data=[10, 0]),\n",
      "   midi.NoteOffEvent(tick=44, channel=0, data=[90, 0]),\n",
      "   midi.NoteOffEvent(tick=14, channel=0, data=[112, 0]),\n",
      "   midi.EndOfTrackEvent(tick=0, data=[])]),\n",
      " midi.Track(\\\n",
      "  [midi.SetTempoEvent(tick=0, data=[8, 227, 124]),\n",
      "   midi.ProgramChangeEvent(tick=0, channel=0, data=[29]),\n",
      "   midi.NoteOnEvent(tick=4, channel=0, data=[18, 62]),\n",
      "   midi.NoteOnEvent(tick=20, channel=0, data=[107, 208]),\n",
      "   midi.NoteOnEvent(tick=6, channel=0, data=[59, 86]),\n",
      "   midi.NoteOnEvent(tick=23, channel=0, data=[4, 158]),\n",
      "   midi.NoteOnEvent(tick=15, channel=0, data=[80, 101]),\n",
      "   midi.NoteOnEvent(tick=10, channel=0, data=[96, 115]),\n",
      "   midi.NoteOnEvent(tick=5, channel=0, data=[11, 161]),\n",
      "   midi.NoteOffEvent(tick=2, channel=0, data=[4, 0]),\n",
      "   midi.NoteOnEvent(tick=19, channel=0, data=[47, 5]),\n",
      "   midi.NoteOnEvent(tick=8, channel=0, data=[87, 233]),\n",
      "   midi.NoteOnEvent(tick=0, channel=0, data=[122, 44]),\n",
      "   midi.NoteOnEvent(tick=12, channel=0, data=[31, 190]),\n",
      "   midi.NoteOnEvent(tick=6, channel=0, data=[11, 239]),\n",
      "   midi.NoteOnEvent(tick=0, channel=0, data=[117, 95]),\n",
      "   midi.NoteOnEvent(tick=14, channel=0, data=[72, 142]),\n",
      "   midi.NoteOnEvent(tick=2, channel=0, data=[4, 138]),\n",
      "   midi.NoteOnEvent(tick=24, channel=0, data=[86, 50]),\n",
      "   midi.NoteOnEvent(tick=6, channel=0, data=[52, 24]),\n",
      "   midi.NoteOffEvent(tick=3, channel=0, data=[86, 0]),\n",
      "   midi.NoteOnEvent(tick=28, channel=0, data=[31, 42]),\n",
      "   midi.NoteOnEvent(tick=11, channel=0, data=[92, 141]),\n",
      "   midi.NoteOnEvent(tick=4, channel=0, data=[87, 186]),\n",
      "   midi.NoteOnEvent(tick=6, channel=0, data=[24, 104]),\n",
      "   midi.NoteOnEvent(tick=18, channel=0, data=[73, 216]),\n",
      "   midi.NoteOnEvent(tick=66, channel=0, data=[121, 34]),\n",
      "   midi.NoteOnEvent(tick=20, channel=0, data=[92, 183]),\n",
      "   midi.NoteOnEvent(tick=13, channel=0, data=[56, 153]),\n",
      "   midi.NoteOnEvent(tick=12, channel=0, data=[13, 218]),\n",
      "   midi.NoteOffEvent(tick=30, channel=0, data=[13, 0]),\n",
      "   midi.NoteOffEvent(tick=0, channel=0, data=[92, 0]),\n",
      "   midi.NoteOnEvent(tick=4, channel=0, data=[53, 110]),\n",
      "   midi.NoteOnEvent(tick=15, channel=0, data=[63, 46]),\n",
      "   midi.NoteOnEvent(tick=9, channel=0, data=[84, 21]),\n",
      "   midi.NoteOnEvent(tick=1, channel=0, data=[40, 241]),\n",
      "   midi.NoteOffEvent(tick=9, channel=0, data=[72, 0]),\n",
      "   midi.NoteOnEvent(tick=0, channel=0, data=[94, 123]),\n",
      "   midi.NoteOnEvent(tick=13, channel=0, data=[2, 20]),\n",
      "   midi.NoteOnEvent(tick=3, channel=0, data=[16, 96]),\n",
      "   midi.NoteOffEvent(tick=10, channel=0, data=[47, 0]),\n",
      "   midi.NoteOnEvent(tick=11, channel=0, data=[71, 174]),\n",
      "   midi.NoteOffEvent(tick=5, channel=0, data=[16, 0]),\n",
      "   midi.NoteOnEvent(tick=10, channel=0, data=[123, 214]),\n",
      "   midi.NoteOnEvent(tick=14, channel=0, data=[11, 19]),\n",
      "   midi.NoteOnEvent(tick=0, channel=0, data=[68, 98]),\n",
      "   midi.NoteOnEvent(tick=9, channel=0, data=[29, 234]),\n",
      "   midi.NoteOffEvent(tick=15, channel=0, data=[53, 0]),\n",
      "   midi.NoteOnEvent(tick=16, channel=0, data=[100, 167]),\n",
      "   midi.NoteOnEvent(tick=0, channel=0, data=[96, 159]),\n",
      "   midi.NoteOnEvent(tick=16, channel=0, data=[41, 100]),\n",
      "   midi.NoteOnEvent(tick=0, channel=0, data=[85, 151]),\n",
      "   midi.NoteOnEvent(tick=14, channel=0, data=[21, 96]),\n",
      "   midi.NoteOnEvent(tick=29, channel=0, data=[82, 131]),\n",
      "   midi.NoteOnEvent(tick=2, channel=0, data=[104, 152]),\n",
      "   midi.NoteOnEvent(tick=11, channel=0, data=[41, 160]),\n",
      "   midi.NoteOffEvent(tick=1, channel=0, data=[63, 0]),\n",
      "   midi.NoteOnEvent(tick=1, channel=0, data=[58, 142]),\n",
      "   midi.NoteOnEvent(tick=0, channel=0, data=[95, 42]),\n",
      "   midi.NoteOffEvent(tick=1, channel=0, data=[85, 0]),\n",
      "   midi.NoteOnEvent(tick=37, channel=0, data=[35, 91]),\n",
      "   midi.NoteOnEvent(tick=0, channel=0, data=[6, 175]),\n",
      "   midi.NoteOnEvent(tick=4, channel=0, data=[7, 168]),\n",
      "   midi.NoteOnEvent(tick=4, channel=0, data=[66, 17]),\n",
      "   midi.NoteOnEvent(tick=9, channel=0, data=[33, 78]),\n",
      "   midi.NoteOnEvent(tick=2, channel=0, data=[120, 50]),\n",
      "   midi.NoteOnEvent(tick=3, channel=0, data=[73, 199]),\n",
      "   midi.NoteOnEvent(tick=12, channel=0, data=[125, 36]),\n",
      "   midi.NoteOffEvent(tick=9, channel=0, data=[107, 0]),\n",
      "   midi.NoteOnEvent(tick=18, channel=0, data=[62, 119]),\n",
      "   midi.NoteOffEvent(tick=18, channel=0, data=[21, 0]),\n",
      "   midi.NoteOffEvent(tick=8, channel=0, data=[4, 0]),\n",
      "   midi.NoteOffEvent(tick=0, channel=0, data=[52, 0]),\n",
      "   midi.NoteOnEvent(tick=2, channel=0, data=[31, 182]),\n",
      "   midi.NoteOnEvent(tick=1, channel=0, data=[61, 8]),\n",
      "   midi.NoteOnEvent(tick=6, channel=0, data=[82, 194]),\n",
      "   midi.NoteOffEvent(tick=5, channel=0, data=[24, 0]),\n",
      "   midi.NoteOffEvent(tick=6, channel=0, data=[59, 0]),\n",
      "   midi.NoteOnEvent(tick=2, channel=0, data=[112, 127]),\n",
      "   midi.NoteOnEvent(tick=1, channel=0, data=[80, 247]),\n",
      "   midi.NoteOnEvent(tick=9, channel=0, data=[113, 218]),\n",
      "   midi.NoteOnEvent(tick=2, channel=0, data=[61, 58]),\n",
      "   midi.NoteOffEvent(tick=12, channel=0, data=[100, 0]),\n",
      "   midi.NoteOffEvent(tick=1, channel=0, data=[6, 0]),\n",
      "   midi.NoteOnEvent(tick=2, channel=0, data=[77, 160]),\n",
      "   midi.NoteOnEvent(tick=0, channel=0, data=[51, 176]),\n",
      "   midi.NoteOnEvent(tick=4, channel=0, data=[112, 249]),\n",
      "   midi.NoteOnEvent(tick=6, channel=0, data=[7, 56]),\n",
      "   midi.NoteOnEvent(tick=24, channel=0, data=[16, 88]),\n",
      "   midi.NoteOffEvent(tick=2, channel=0, data=[96, 0]),\n",
      "   midi.NoteOffEvent(tick=24, channel=0, data=[122, 0]),\n",
      "   midi.NoteOnEvent(tick=19, channel=0, data=[0, 252]),\n",
      "   midi.NoteOnEvent(tick=5, channel=0, data=[80, 136]),\n",
      "   midi.NoteOnEvent(tick=0, channel=0, data=[75, 112]),\n",
      "   midi.NoteOnEvent(tick=9, channel=0, data=[55, 217]),\n",
      "   midi.NoteOffEvent(tick=7, channel=0, data=[35, 0]),\n",
      "   midi.NoteOffEvent(tick=1, channel=0, data=[104, 0]),\n",
      "   midi.NoteOffEvent(tick=5, channel=0, data=[80, 0]),\n",
      "   midi.NoteOnEvent(tick=2, channel=0, data=[84, 21]),\n",
      "   midi.NoteOffEvent(tick=10, channel=0, data=[29, 0]),\n",
      "   midi.NoteOffEvent(tick=21, channel=0, data=[0, 0]),\n",
      "   midi.NoteOffEvent(tick=12, channel=0, data=[123, 0]),\n",
      "   midi.NoteOnEvent(tick=1, channel=0, data=[7, 110]),\n",
      "   midi.NoteOnEvent(tick=1, channel=0, data=[108, 147]),\n",
      "   midi.NoteOffEvent(tick=15, channel=0, data=[58, 0]),\n",
      "   midi.NoteOffEvent(tick=1, channel=0, data=[94, 0]),\n",
      "   midi.NoteOffEvent(tick=2, channel=0, data=[18, 0]),\n",
      "   midi.NoteOnEvent(tick=8, channel=0, data=[64, 52]),\n",
      "   midi.NoteOnEvent(tick=14, channel=0, data=[30, 172]),\n",
      "   midi.NoteOffEvent(tick=14, channel=0, data=[82, 0]),\n",
      "   midi.NoteOffEvent(tick=37, channel=0, data=[11, 0]),\n",
      "   midi.NoteOffEvent(tick=1, channel=0, data=[2, 0]),\n",
      "   midi.NoteOffEvent(tick=22, channel=0, data=[87, 0]),\n",
      "   midi.NoteOffEvent(tick=2, channel=0, data=[68, 0]),\n",
      "   midi.NoteOffEvent(tick=21, channel=0, data=[31, 0]),\n",
      "   midi.NoteOffEvent(tick=32, channel=0, data=[117, 0]),\n",
      "   midi.NoteOffEvent(tick=19, channel=0, data=[56, 0]),\n",
      "   midi.NoteOffEvent(tick=1, channel=0, data=[75, 0]),\n",
      "   midi.NoteOffEvent(tick=4, channel=0, data=[66, 0]),\n",
      "   midi.NoteOffEvent(tick=27, channel=0, data=[30, 0]),\n",
      "   midi.NoteOffEvent(tick=27, channel=0, data=[51, 0]),\n",
      "   midi.NoteOffEvent(tick=21, channel=0, data=[41, 0]),\n",
      "   midi.NoteOffEvent(tick=27, channel=0, data=[40, 0]),\n",
      "   midi.NoteOffEvent(tick=2, channel=0, data=[121, 0]),\n",
      "   midi.NoteOffEvent(tick=16, channel=0, data=[62, 0]),\n",
      "   midi.NoteOffEvent(tick=50, channel=0, data=[125, 0]),\n",
      "   midi.NoteOffEvent(tick=17, channel=0, data=[108, 0]),\n",
      "   midi.NoteOffEvent(tick=15, channel=0, data=[71, 0]),\n",
      "   midi.NoteOffEvent(tick=8, channel=0, data=[61, 0]),\n",
      "   midi.NoteOffEvent(tick=5, channel=0, data=[77, 0]),\n",
      "   midi.NoteOffEvent(tick=5, channel=0, data=[95, 0]),\n",
      "   midi.NoteOffEvent(tick=57, channel=0, data=[113, 0]),\n",
      "   midi.NoteOffEvent(tick=29, channel=0, data=[120, 0]),\n",
      "   midi.NoteOffEvent(tick=27, channel=0, data=[33, 0]),\n",
      "   midi.NoteOffEvent(tick=19, channel=0, data=[7, 0]),\n",
      "   midi.NoteOffEvent(tick=116, channel=0, data=[112, 0]),\n",
      "   midi.NoteOffEvent(tick=48, channel=0, data=[73, 0]),\n",
      "   midi.NoteOffEvent(tick=5, channel=0, data=[84, 0]),\n",
      "   midi.NoteOffEvent(tick=51, channel=0, data=[16, 0]),\n",
      "   midi.NoteOffEvent(tick=117, channel=0, data=[55, 0]),\n",
      "   midi.NoteOffEvent(tick=57, channel=0, data=[64, 0]),\n",
      "   midi.EndOfTrackEvent(tick=0, data=[])]),\n",
      " midi.Track(\\\n",
      "  [midi.SetTempoEvent(tick=0, data=[8, 227, 124]),\n",
      "   midi.ProgramChangeEvent(tick=0, channel=0, data=[30]),\n",
      "   midi.NoteOnEvent(tick=47, channel=0, data=[110, 235]),\n",
      "   midi.NoteOnEvent(tick=21, channel=0, data=[39, 232]),\n",
      "   midi.NoteOnEvent(tick=47, channel=0, data=[117, 68]),\n",
      "   midi.NoteOnEvent(tick=6, channel=0, data=[10, 147]),\n",
      "   midi.NoteOnEvent(tick=9, channel=0, data=[10, 242]),\n",
      "   midi.NoteOffEvent(tick=31, channel=0, data=[39, 0]),\n",
      "   midi.NoteOnEvent(tick=15, channel=0, data=[52, 133]),\n",
      "   midi.NoteOnEvent(tick=1, channel=0, data=[107, 70]),\n",
      "   midi.NoteOnEvent(tick=6, channel=0, data=[42, 214]),\n",
      "   midi.NoteOnEvent(tick=35, channel=0, data=[122, 62]),\n",
      "   midi.NoteOffEvent(tick=3, channel=0, data=[117, 0]),\n",
      "   midi.NoteOnEvent(tick=25, channel=0, data=[16, 203]),\n",
      "   midi.NoteOnEvent(tick=15, channel=0, data=[127, 221]),\n",
      "   midi.NoteOnEvent(tick=8, channel=0, data=[122, 88]),\n",
      "   midi.NoteOnEvent(tick=62, channel=0, data=[15, 61]),\n",
      "   midi.NoteOnEvent(tick=10, channel=0, data=[84, 131]),\n",
      "   midi.NoteOnEvent(tick=5, channel=0, data=[65, 40]),\n",
      "   midi.NoteOnEvent(tick=0, channel=0, data=[101, 96]),\n",
      "   midi.NoteOnEvent(tick=6, channel=0, data=[3, 45]),\n",
      "   midi.NoteOnEvent(tick=2, channel=0, data=[67, 95]),\n",
      "   midi.NoteOnEvent(tick=21, channel=0, data=[71, 196]),\n",
      "   midi.NoteOffEvent(tick=6, channel=0, data=[107, 0]),\n",
      "   midi.NoteOnEvent(tick=5, channel=0, data=[127, 177]),\n",
      "   midi.NoteOnEvent(tick=24, channel=0, data=[54, 92]),\n",
      "   midi.NoteOnEvent(tick=15, channel=0, data=[5, 202]),\n",
      "   midi.NoteOnEvent(tick=10, channel=0, data=[61, 174]),\n",
      "   midi.NoteOnEvent(tick=6, channel=0, data=[31, 30]),\n",
      "   midi.NoteOnEvent(tick=0, channel=0, data=[23, 95]),\n",
      "   midi.NoteOnEvent(tick=74, channel=0, data=[90, 178]),\n",
      "   midi.NoteOffEvent(tick=18, channel=0, data=[10, 0]),\n",
      "   midi.NoteOnEvent(tick=5, channel=0, data=[18, 244]),\n",
      "   midi.NoteOnEvent(tick=36, channel=0, data=[33, 13]),\n",
      "   midi.NoteOnEvent(tick=0, channel=0, data=[121, 58]),\n",
      "   midi.NoteOnEvent(tick=17, channel=0, data=[11, 72]),\n",
      "   midi.NoteOnEvent(tick=1, channel=0, data=[41, 167]),\n",
      "   midi.NoteOffEvent(tick=8, channel=0, data=[122, 0]),\n",
      "   midi.NoteOnEvent(tick=3, channel=0, data=[87, 25]),\n",
      "   midi.NoteOnEvent(tick=11, channel=0, data=[16, 118]),\n",
      "   midi.NoteOnEvent(tick=4, channel=0, data=[85, 116]),\n",
      "   midi.NoteOnEvent(tick=1, channel=0, data=[90, 0]),\n",
      "   midi.NoteOnEvent(tick=24, channel=0, data=[121, 184]),\n",
      "   midi.NoteOffEvent(tick=15, channel=0, data=[65, 0]),\n",
      "   midi.NoteOnEvent(tick=3, channel=0, data=[86, 179]),\n",
      "   midi.NoteOffEvent(tick=5, channel=0, data=[33, 0]),\n",
      "   midi.NoteOffEvent(tick=3, channel=0, data=[127, 0]),\n",
      "   midi.NoteOffEvent(tick=10, channel=0, data=[85, 0]),\n",
      "   midi.NoteOnEvent(tick=6, channel=0, data=[92, 60]),\n",
      "   midi.NoteOnEvent(tick=7, channel=0, data=[37, 111]),\n",
      "   midi.NoteOffEvent(tick=13, channel=0, data=[110, 0]),\n",
      "   midi.NoteOnEvent(tick=10, channel=0, data=[15, 123]),\n",
      "   midi.NoteOffEvent(tick=11, channel=0, data=[90, 0]),\n",
      "   midi.NoteOnEvent(tick=6, channel=0, data=[11, 221]),\n",
      "   midi.NoteOnEvent(tick=3, channel=0, data=[55, 151]),\n",
      "   midi.NoteOnEvent(tick=9, channel=0, data=[86, 131]),\n",
      "   midi.NoteOnEvent(tick=9, channel=0, data=[52, 102]),\n",
      "   midi.NoteOnEvent(tick=9, channel=0, data=[110, 61]),\n",
      "   midi.NoteOffEvent(tick=8, channel=0, data=[121, 0]),\n",
      "   midi.NoteOffEvent(tick=13, channel=0, data=[15, 0]),\n",
      "   midi.NoteOffEvent(tick=27, channel=0, data=[101, 0]),\n",
      "   midi.NoteOnEvent(tick=15, channel=0, data=[15, 128]),\n",
      "   midi.NoteOffEvent(tick=10, channel=0, data=[5, 0]),\n",
      "   midi.NoteOnEvent(tick=3, channel=0, data=[90, 198]),\n",
      "   midi.NoteOffEvent(tick=38, channel=0, data=[87, 0]),\n",
      "   midi.NoteOffEvent(tick=4, channel=0, data=[61, 0]),\n",
      "   midi.NoteOnEvent(tick=19, channel=0, data=[56, 88]),\n",
      "   midi.NoteOnEvent(tick=3, channel=0, data=[24, 110]),\n",
      "   midi.NoteOnEvent(tick=5, channel=0, data=[126, 128]),\n",
      "   midi.NoteOnEvent(tick=6, channel=0, data=[63, 189]),\n",
      "   midi.NoteOnEvent(tick=4, channel=0, data=[13, 63]),\n",
      "   midi.NoteOffEvent(tick=16, channel=0, data=[37, 0]),\n",
      "   midi.NoteOffEvent(tick=0, channel=0, data=[126, 0]),\n",
      "   midi.NoteOnEvent(tick=1, channel=0, data=[35, 171]),\n",
      "   midi.NoteOnEvent(tick=4, channel=0, data=[100, 114]),\n",
      "   midi.NoteOnEvent(tick=8, channel=0, data=[67, 169]),\n",
      "   midi.NoteOnEvent(tick=23, channel=0, data=[14, 110]),\n",
      "   midi.NoteOnEvent(tick=6, channel=0, data=[122, 63]),\n",
      "   midi.NoteOnEvent(tick=6, channel=0, data=[17, 242]),\n",
      "   midi.NoteOnEvent(tick=11, channel=0, data=[59, 77]),\n",
      "   midi.NoteOffEvent(tick=7, channel=0, data=[24, 0]),\n",
      "   midi.NoteOnEvent(tick=0, channel=0, data=[39, 230]),\n",
      "   midi.NoteOffEvent(tick=37, channel=0, data=[42, 0]),\n",
      "   midi.NoteOffEvent(tick=50, channel=0, data=[35, 0]),\n",
      "   midi.NoteOffEvent(tick=3, channel=0, data=[54, 0]),\n",
      "   midi.NoteOffEvent(tick=1, channel=0, data=[84, 0]),\n",
      "   midi.NoteOffEvent(tick=4, channel=0, data=[59, 0]),\n",
      "   midi.NoteOffEvent(tick=23, channel=0, data=[14, 0]),\n",
      "   midi.NoteOffEvent(tick=23, channel=0, data=[3, 0]),\n",
      "   midi.NoteOffEvent(tick=0, channel=0, data=[31, 0]),\n",
      "   midi.NoteOffEvent(tick=53, channel=0, data=[11, 0]),\n",
      "   midi.NoteOffEvent(tick=18, channel=0, data=[17, 0]),\n",
      "   midi.NoteOffEvent(tick=51, channel=0, data=[41, 0]),\n",
      "   midi.NoteOffEvent(tick=5, channel=0, data=[16, 0]),\n",
      "   midi.NoteOffEvent(tick=85, channel=0, data=[23, 0]),\n",
      "   midi.NoteOffEvent(tick=23, channel=0, data=[71, 0]),\n",
      "   midi.NoteOffEvent(tick=55, channel=0, data=[39, 0]),\n",
      "   midi.NoteOffEvent(tick=14, channel=0, data=[110, 0]),\n",
      "   midi.NoteOffEvent(tick=37, channel=0, data=[18, 0]),\n",
      "   midi.NoteOffEvent(tick=6, channel=0, data=[52, 0]),\n",
      "   midi.NoteOffEvent(tick=9, channel=0, data=[86, 0]),\n",
      "   midi.NoteOffEvent(tick=30, channel=0, data=[92, 0]),\n",
      "   midi.NoteOffEvent(tick=61, channel=0, data=[15, 0]),\n",
      "   midi.NoteOffEvent(tick=15, channel=0, data=[63, 0]),\n",
      "   midi.NoteOffEvent(tick=23, channel=0, data=[56, 0]),\n",
      "   midi.NoteOffEvent(tick=12, channel=0, data=[13, 0]),\n",
      "   midi.NoteOffEvent(tick=9, channel=0, data=[67, 0]),\n",
      "   midi.NoteOffEvent(tick=31, channel=0, data=[55, 0]),\n",
      "   midi.NoteOffEvent(tick=96, channel=0, data=[122, 0]),\n",
      "   midi.NoteOffEvent(tick=46, channel=0, data=[90, 0]),\n",
      "   midi.NoteOffEvent(tick=101, channel=0, data=[100, 0]),\n",
      "   midi.EndOfTrackEvent(tick=0, data=[])]),\n",
      " midi.Track(\\\n",
      "  [midi.SetTempoEvent(tick=0, data=[8, 227, 124]),\n",
      "   midi.ProgramChangeEvent(tick=0, channel=0, data=[31]),\n",
      "   midi.NoteOnEvent(tick=16, channel=0, data=[78, 32]),\n",
      "   midi.NoteOnEvent(tick=0, channel=0, data=[127, 53]),\n",
      "   midi.NoteOnEvent(tick=2, channel=0, data=[20, 23]),\n",
      "   midi.NoteOffEvent(tick=50, channel=0, data=[127, 0]),\n",
      "   midi.NoteOnEvent(tick=10, channel=0, data=[16, 254]),\n",
      "   midi.NoteOnEvent(tick=5, channel=0, data=[111, 74]),\n",
      "   midi.NoteOffEvent(tick=3, channel=0, data=[78, 0]),\n",
      "   midi.NoteOnEvent(tick=31, channel=0, data=[101, 11]),\n",
      "   midi.NoteOnEvent(tick=9, channel=0, data=[102, 151]),\n",
      "   midi.NoteOnEvent(tick=6, channel=0, data=[29, 206]),\n",
      "   midi.NoteOnEvent(tick=6, channel=0, data=[74, 208]),\n",
      "   midi.NoteOnEvent(tick=21, channel=0, data=[127, 127]),\n",
      "   midi.NoteOnEvent(tick=24, channel=0, data=[78, 34]),\n",
      "   midi.NoteOnEvent(tick=14, channel=0, data=[82, 124]),\n",
      "   midi.NoteOnEvent(tick=6, channel=0, data=[28, 61]),\n",
      "   midi.NoteOnEvent(tick=25, channel=0, data=[23, 54]),\n",
      "   midi.NoteOnEvent(tick=8, channel=0, data=[100, 196]),\n",
      "   midi.NoteOffEvent(tick=4, channel=0, data=[16, 0]),\n",
      "   midi.NoteOnEvent(tick=14, channel=0, data=[75, 177]),\n",
      "   midi.NoteOnEvent(tick=36, channel=0, data=[5, 173]),\n",
      "   midi.NoteOnEvent(tick=9, channel=0, data=[64, 108]),\n",
      "   midi.NoteOffEvent(tick=4, channel=0, data=[29, 0]),\n",
      "   midi.NoteOnEvent(tick=10, channel=0, data=[54, 157]),\n",
      "   midi.NoteOffEvent(tick=8, channel=0, data=[74, 0]),\n",
      "   midi.NoteOnEvent(tick=1, channel=0, data=[17, 7]),\n",
      "   midi.NoteOnEvent(tick=24, channel=0, data=[102, 96]),\n",
      "   midi.NoteOffEvent(tick=17, channel=0, data=[28, 0]),\n",
      "   midi.NoteOnEvent(tick=9, channel=0, data=[123, 52]),\n",
      "   midi.NoteOnEvent(tick=55, channel=0, data=[60, 8]),\n",
      "   midi.NoteOnEvent(tick=0, channel=0, data=[43, 180]),\n",
      "   midi.NoteOnEvent(tick=11, channel=0, data=[97, 23]),\n",
      "   midi.NoteOnEvent(tick=3, channel=0, data=[24, 156]),\n",
      "   midi.NoteOffEvent(tick=7, channel=0, data=[54, 0]),\n",
      "   midi.NoteOffEvent(tick=4, channel=0, data=[111, 0]),\n",
      "   midi.NoteOnEvent(tick=19, channel=0, data=[91, 16]),\n",
      "   midi.NoteOffEvent(tick=23, channel=0, data=[75, 0]),\n",
      "   midi.NoteOnEvent(tick=2, channel=0, data=[10, 106]),\n",
      "   midi.NoteOffEvent(tick=17, channel=0, data=[60, 0]),\n",
      "   midi.NoteOnEvent(tick=1, channel=0, data=[90, 94]),\n",
      "   midi.NoteOffEvent(tick=3, channel=0, data=[24, 0]),\n",
      "   midi.NoteOnEvent(tick=1, channel=0, data=[8, 208]),\n",
      "   midi.NoteOnEvent(tick=17, channel=0, data=[7, 201]),\n",
      "   midi.NoteOnEvent(tick=7, channel=0, data=[100, 68]),\n",
      "   midi.NoteOnEvent(tick=14, channel=0, data=[63, 182]),\n",
      "   midi.NoteOffEvent(tick=1, channel=0, data=[101, 0]),\n",
      "   midi.NoteOnEvent(tick=0, channel=0, data=[97, 164]),\n",
      "   midi.NoteOnEvent(tick=1, channel=0, data=[98, 135]),\n",
      "   midi.NoteOffEvent(tick=3, channel=0, data=[23, 0]),\n",
      "   midi.NoteOnEvent(tick=10, channel=0, data=[18, 191]),\n",
      "   midi.NoteOnEvent(tick=0, channel=0, data=[69, 254]),\n",
      "   midi.NoteOnEvent(tick=20, channel=0, data=[118, 215]),\n",
      "   midi.NoteOnEvent(tick=2, channel=0, data=[59, 24]),\n",
      "   midi.NoteOnEvent(tick=23, channel=0, data=[120, 114]),\n",
      "   midi.NoteOffEvent(tick=8, channel=0, data=[64, 0]),\n",
      "   midi.NoteOnEvent(tick=26, channel=0, data=[46, 136]),\n",
      "   midi.NoteOnEvent(tick=15, channel=0, data=[45, 227]),\n",
      "   midi.NoteOnEvent(tick=0, channel=0, data=[108, 171]),\n",
      "   midi.NoteOnEvent(tick=4, channel=0, data=[61, 22]),\n",
      "   midi.NoteOnEvent(tick=21, channel=0, data=[4, 33]),\n",
      "   midi.NoteOnEvent(tick=0, channel=0, data=[15, 156]),\n",
      "   midi.NoteOnEvent(tick=25, channel=0, data=[26, 219]),\n",
      "   midi.NoteOnEvent(tick=11, channel=0, data=[49, 34]),\n",
      "   midi.NoteOffEvent(tick=4, channel=0, data=[100, 0]),\n",
      "   midi.NoteOffEvent(tick=2, channel=0, data=[20, 0]),\n",
      "   midi.NoteOnEvent(tick=4, channel=0, data=[7, 162]),\n",
      "   midi.NoteOnEvent(tick=5, channel=0, data=[78, 241]),\n",
      "   midi.NoteOnEvent(tick=7, channel=0, data=[91, 149]),\n",
      "   midi.NoteOnEvent(tick=4, channel=0, data=[84, 38]),\n",
      "   midi.NoteOnEvent(tick=10, channel=0, data=[61, 100]),\n",
      "   midi.NoteOnEvent(tick=15, channel=0, data=[66, 91]),\n",
      "   midi.NoteOffEvent(tick=7, channel=0, data=[8, 0]),\n",
      "   midi.NoteOffEvent(tick=2, channel=0, data=[43, 0]),\n",
      "   midi.NoteOnEvent(tick=1, channel=0, data=[98, 171]),\n",
      "   midi.NoteOffEvent(tick=1, channel=0, data=[45, 0]),\n",
      "   midi.NoteOffEvent(tick=14, channel=0, data=[90, 0]),\n",
      "   midi.NoteOffEvent(tick=11, channel=0, data=[98, 0]),\n",
      "   midi.NoteOnEvent(tick=5, channel=0, data=[71, 177]),\n",
      "   midi.NoteOnEvent(tick=1, channel=0, data=[107, 40]),\n",
      "   midi.NoteOnEvent(tick=7, channel=0, data=[71, 17]),\n",
      "   midi.NoteOnEvent(tick=16, channel=0, data=[24, 0]),\n",
      "   midi.NoteOnEvent(tick=45, channel=0, data=[28, 38]),\n",
      "   midi.NoteOnEvent(tick=0, channel=0, data=[47, 131]),\n",
      "   midi.NoteOnEvent(tick=30, channel=0, data=[102, 216]),\n",
      "   midi.NoteOffEvent(tick=5, channel=0, data=[123, 0]),\n",
      "   midi.NoteOnEvent(tick=24, channel=0, data=[105, 90]),\n",
      "   midi.NoteOffEvent(tick=4, channel=0, data=[71, 0]),\n",
      "   midi.NoteOnEvent(tick=48, channel=0, data=[106, 198]),\n",
      "   midi.NoteOffEvent(tick=15, channel=0, data=[46, 0]),\n",
      "   midi.NoteOffEvent(tick=30, channel=0, data=[102, 0]),\n",
      "   midi.NoteOffEvent(tick=12, channel=0, data=[127, 0]),\n",
      "   midi.NoteOffEvent(tick=6, channel=0, data=[59, 0]),\n",
      "   midi.NoteOffEvent(tick=10, channel=0, data=[82, 0]),\n",
      "   midi.NoteOffEvent(tick=2, channel=0, data=[97, 0]),\n",
      "   midi.NoteOffEvent(tick=5, channel=0, data=[17, 0]),\n",
      "   midi.NoteOffEvent(tick=25, channel=0, data=[63, 0]),\n",
      "   midi.NoteOffEvent(tick=8, channel=0, data=[66, 0]),\n",
      "   midi.NoteOffEvent(tick=4, channel=0, data=[26, 0]),\n",
      "   midi.NoteOffEvent(tick=41, channel=0, data=[5, 0]),\n",
      "   midi.NoteOffEvent(tick=73, channel=0, data=[49, 0]),\n",
      "   midi.NoteOffEvent(tick=4, channel=0, data=[4, 0]),\n",
      "   midi.NoteOffEvent(tick=15, channel=0, data=[24, 0]),\n",
      "   midi.NoteOffEvent(tick=8, channel=0, data=[107, 0]),\n",
      "   midi.NoteOffEvent(tick=81, channel=0, data=[18, 0]),\n",
      "   midi.NoteOffEvent(tick=50, channel=0, data=[118, 0]),\n",
      "   midi.NoteOffEvent(tick=60, channel=0, data=[69, 0]),\n",
      "   midi.NoteOffEvent(tick=3, channel=0, data=[78, 0]),\n",
      "   midi.NoteOffEvent(tick=8, channel=0, data=[47, 0]),\n",
      "   midi.NoteOffEvent(tick=1, channel=0, data=[61, 0]),\n",
      "   midi.NoteOffEvent(tick=2, channel=0, data=[10, 0]),\n",
      "   midi.NoteOffEvent(tick=5, channel=0, data=[108, 0]),\n",
      "   midi.NoteOffEvent(tick=16, channel=0, data=[7, 0]),\n",
      "   midi.NoteOffEvent(tick=90, channel=0, data=[120, 0]),\n",
      "   midi.NoteOffEvent(tick=24, channel=0, data=[84, 0]),\n",
      "   midi.NoteOffEvent(tick=7, channel=0, data=[15, 0]),\n",
      "   midi.NoteOffEvent(tick=10, channel=0, data=[91, 0]),\n",
      "   midi.NoteOffEvent(tick=74, channel=0, data=[28, 0]),\n",
      "   midi.NoteOffEvent(tick=177, channel=0, data=[105, 0]),\n",
      "   midi.NoteOffEvent(tick=52, channel=0, data=[106, 0]),\n",
      "   midi.EndOfTrackEvent(tick=0, data=[])]),\n",
      " midi.Track(\\\n",
      "  [midi.SetTempoEvent(tick=0, data=[8, 227, 124]),\n",
      "   midi.ProgramChangeEvent(tick=0, channel=0, data=[32]),\n",
      "   midi.NoteOnEvent(tick=83, channel=0, data=[8, 92]),\n",
      "   midi.NoteOnEvent(tick=16, channel=0, data=[59, 77]),\n",
      "   midi.NoteOnEvent(tick=11, channel=0, data=[126, 11]),\n",
      "   midi.NoteOffEvent(tick=9, channel=0, data=[59, 0]),\n",
      "   midi.NoteOnEvent(tick=5, channel=0, data=[26, 103]),\n",
      "   midi.NoteOnEvent(tick=8, channel=0, data=[90, 195]),\n",
      "   midi.NoteOnEvent(tick=6, channel=0, data=[93, 74]),\n",
      "   midi.NoteOnEvent(tick=8, channel=0, data=[100, 144]),\n",
      "   midi.NoteOnEvent(tick=0, channel=0, data=[76, 84]),\n",
      "   midi.NoteOnEvent(tick=24, channel=0, data=[82, 173]),\n",
      "   midi.NoteOnEvent(tick=7, channel=0, data=[117, 219]),\n",
      "   midi.NoteOnEvent(tick=14, channel=0, data=[71, 176]),\n",
      "   midi.NoteOnEvent(tick=6, channel=0, data=[49, 137]),\n",
      "   midi.NoteOnEvent(tick=10, channel=0, data=[62, 200]),\n",
      "   midi.NoteOnEvent(tick=13, channel=0, data=[101, 69]),\n",
      "   midi.NoteOnEvent(tick=16, channel=0, data=[26, 0]),\n",
      "   midi.NoteOnEvent(tick=5, channel=0, data=[83, 74]),\n",
      "   midi.NoteOffEvent(tick=8, channel=0, data=[126, 0]),\n",
      "   midi.NoteOffEvent(tick=1, channel=0, data=[83, 0]),\n",
      "   midi.NoteOnEvent(tick=18, channel=0, data=[92, 184]),\n",
      "   midi.NoteOnEvent(tick=21, channel=0, data=[34, 232]),\n",
      "   midi.NoteOffEvent(tick=3, channel=0, data=[100, 0]),\n",
      "   midi.NoteOnEvent(tick=29, channel=0, data=[51, 52]),\n",
      "   midi.NoteOffEvent(tick=8, channel=0, data=[8, 0]),\n",
      "   midi.NoteOnEvent(tick=3, channel=0, data=[14, 119]),\n",
      "   midi.NoteOnEvent(tick=3, channel=0, data=[115, 194]),\n",
      "   midi.NoteOnEvent(tick=10, channel=0, data=[110, 38]),\n",
      "   midi.NoteOnEvent(tick=1, channel=0, data=[24, 175]),\n",
      "   midi.NoteOnEvent(tick=13, channel=0, data=[92, 127]),\n",
      "   midi.NoteOffEvent(tick=43, channel=0, data=[117, 0]),\n",
      "   midi.NoteOnEvent(tick=4, channel=0, data=[78, 49]),\n",
      "   midi.NoteOnEvent(tick=10, channel=0, data=[99, 172]),\n",
      "   midi.NoteOnEvent(tick=11, channel=0, data=[5, 203]),\n",
      "   midi.NoteOffEvent(tick=53, channel=0, data=[82, 0]),\n",
      "   midi.NoteOnEvent(tick=3, channel=0, data=[113, 48]),\n",
      "   midi.NoteOffEvent(tick=3, channel=0, data=[113, 0]),\n",
      "   midi.NoteOnEvent(tick=7, channel=0, data=[121, 204]),\n",
      "   midi.NoteOnEvent(tick=12, channel=0, data=[86, 54]),\n",
      "   midi.NoteOffEvent(tick=9, channel=0, data=[51, 0]),\n",
      "   midi.NoteOffEvent(tick=3, channel=0, data=[99, 0]),\n",
      "   midi.NoteOnEvent(tick=37, channel=0, data=[79, 2]),\n",
      "   midi.NoteOnEvent(tick=3, channel=0, data=[49, 91]),\n",
      "   midi.NoteOnEvent(tick=6, channel=0, data=[70, 165]),\n",
      "   midi.NoteOffEvent(tick=2, channel=0, data=[78, 0]),\n",
      "   midi.NoteOnEvent(tick=3, channel=0, data=[95, 160]),\n",
      "   midi.NoteOffEvent(tick=2, channel=0, data=[70, 0]),\n",
      "   midi.NoteOnEvent(tick=26, channel=0, data=[121, 100]),\n",
      "   midi.NoteOnEvent(tick=30, channel=0, data=[85, 228]),\n",
      "   midi.NoteOnEvent(tick=0, channel=0, data=[35, 67]),\n",
      "   midi.NoteOnEvent(tick=0, channel=0, data=[98, 102]),\n",
      "   midi.NoteOnEvent(tick=12, channel=0, data=[85, 240]),\n",
      "   midi.NoteOnEvent(tick=1, channel=0, data=[127, 251]),\n",
      "   midi.NoteOnEvent(tick=21, channel=0, data=[29, 187]),\n",
      "   midi.NoteOnEvent(tick=10, channel=0, data=[75, 73]),\n",
      "   midi.NoteOffEvent(tick=4, channel=0, data=[90, 0]),\n",
      "   midi.NoteOnEvent(tick=6, channel=0, data=[51, 39]),\n",
      "   midi.NoteOffEvent(tick=2, channel=0, data=[5, 0]),\n",
      "   midi.NoteOnEvent(tick=15, channel=0, data=[120, 163]),\n",
      "   midi.NoteOnEvent(tick=21, channel=0, data=[38, 110]),\n",
      "   midi.NoteOnEvent(tick=0, channel=0, data=[23, 210]),\n",
      "   midi.NoteOffEvent(tick=3, channel=0, data=[92, 0]),\n",
      "   midi.NoteOffEvent(tick=8, channel=0, data=[35, 0]),\n",
      "   midi.NoteOffEvent(tick=12, channel=0, data=[26, 0]),\n",
      "   midi.NoteOffEvent(tick=5, channel=0, data=[120, 0]),\n",
      "   midi.NoteOffEvent(tick=10, channel=0, data=[98, 0]),\n",
      "   midi.NoteOnEvent(tick=16, channel=0, data=[84, 210]),\n",
      "   midi.NoteOnEvent(tick=15, channel=0, data=[115, 179]),\n",
      "   midi.NoteOffEvent(tick=9, channel=0, data=[24, 0]),\n",
      "   midi.NoteOffEvent(tick=20, channel=0, data=[79, 0]),\n",
      "   midi.NoteOnEvent(tick=3, channel=0, data=[72, 23]),\n",
      "   midi.NoteOnEvent(tick=12, channel=0, data=[23, 225]),\n",
      "   midi.NoteOnEvent(tick=27, channel=0, data=[5, 13]),\n",
      "   midi.NoteOnEvent(tick=0, channel=0, data=[90, 227]),\n",
      "   midi.NoteOnEvent(tick=22, channel=0, data=[68, 218]),\n",
      "   midi.NoteOffEvent(tick=18, channel=0, data=[5, 0]),\n",
      "   midi.NoteOnEvent(tick=6, channel=0, data=[112, 137]),\n",
      "   midi.NoteOffEvent(tick=17, channel=0, data=[93, 0]),\n",
      "   midi.NoteOnEvent(tick=4, channel=0, data=[72, 207]),\n",
      "   midi.NoteOnEvent(tick=6, channel=0, data=[116, 126]),\n",
      "   midi.NoteOnEvent(tick=29, channel=0, data=[84, 57]),\n",
      "   midi.NoteOnEvent(tick=5, channel=0, data=[66, 197]),\n",
      "   midi.NoteOnEvent(tick=14, channel=0, data=[7, 4]),\n",
      "   midi.NoteOnEvent(tick=19, channel=0, data=[56, 108]),\n",
      "   midi.NoteOffEvent(tick=2, channel=0, data=[34, 0]),\n",
      "   midi.NoteOffEvent(tick=18, channel=0, data=[110, 0]),\n",
      "   midi.NoteOffEvent(tick=36, channel=0, data=[76, 0]),\n",
      "   midi.NoteOffEvent(tick=67, channel=0, data=[101, 0]),\n",
      "   midi.NoteOffEvent(tick=1, channel=0, data=[68, 0]),\n",
      "   midi.NoteOffEvent(tick=9, channel=0, data=[71, 0]),\n",
      "   midi.NoteOffEvent(tick=32, channel=0, data=[49, 0]),\n",
      "   midi.NoteOffEvent(tick=10, channel=0, data=[62, 0]),\n",
      "   midi.NoteOffEvent(tick=38, channel=0, data=[85, 0]),\n",
      "   midi.NoteOffEvent(tick=17, channel=0, data=[51, 0]),\n",
      "   midi.NoteOffEvent(tick=74, channel=0, data=[75, 0]),\n",
      "   midi.NoteOffEvent(tick=11, channel=0, data=[14, 0]),\n",
      "   midi.NoteOffEvent(tick=60, channel=0, data=[116, 0]),\n",
      "   midi.NoteOffEvent(tick=23, channel=0, data=[86, 0]),\n",
      "   midi.NoteOffEvent(tick=17, channel=0, data=[38, 0]),\n",
      "   midi.NoteOffEvent(tick=24, channel=0, data=[29, 0]),\n",
      "   midi.NoteOffEvent(tick=72, channel=0, data=[115, 0]),\n",
      "   midi.NoteOffEvent(tick=53, channel=0, data=[95, 0]),\n",
      "   midi.NoteOffEvent(tick=10, channel=0, data=[84, 0]),\n",
      "   midi.NoteOffEvent(tick=2, channel=0, data=[121, 0]),\n",
      "   midi.NoteOffEvent(tick=13, channel=0, data=[90, 0]),\n",
      "   midi.NoteOffEvent(tick=22, channel=0, data=[127, 0]),\n",
      "   midi.NoteOffEvent(tick=17, channel=0, data=[66, 0]),\n",
      "   midi.NoteOffEvent(tick=9, channel=0, data=[23, 0]),\n",
      "   midi.NoteOffEvent(tick=129, channel=0, data=[7, 0]),\n",
      "   midi.NoteOffEvent(tick=16, channel=0, data=[72, 0]),\n",
      "   midi.NoteOffEvent(tick=15, channel=0, data=[56, 0]),\n",
      "   midi.NoteOffEvent(tick=109, channel=0, data=[112, 0]),\n",
      "   midi.EndOfTrackEvent(tick=0, data=[])]),\n",
      " midi.Track(\\\n",
      "  [midi.SetTempoEvent(tick=0, data=[8, 227, 124]),\n",
      "   midi.ProgramChangeEvent(tick=0, channel=0, data=[33]),\n",
      "   midi.NoteOnEvent(tick=3, channel=0, data=[40, 86]),\n",
      "   midi.NoteOnEvent(tick=3, channel=0, data=[85, 227]),\n",
      "   midi.NoteOnEvent(tick=18, channel=0, data=[122, 150]),\n",
      "   midi.NoteOnEvent(tick=23, channel=0, data=[119, 59]),\n",
      "   midi.NoteOnEvent(tick=7, channel=0, data=[104, 232]),\n",
      "   midi.NoteOnEvent(tick=58, channel=0, data=[43, 225]),\n",
      "   midi.NoteOnEvent(tick=2, channel=0, data=[68, 192]),\n",
      "   midi.NoteOnEvent(tick=3, channel=0, data=[75, 106]),\n",
      "   midi.NoteOnEvent(tick=4, channel=0, data=[73, 80]),\n",
      "   midi.NoteOnEvent(tick=8, channel=0, data=[116, 120]),\n",
      "   midi.NoteOnEvent(tick=3, channel=0, data=[9, 213]),\n",
      "   midi.NoteOffEvent(tick=14, channel=0, data=[122, 0]),\n",
      "   midi.NoteOnEvent(tick=0, channel=0, data=[5, 171]),\n",
      "   midi.NoteOnEvent(tick=7, channel=0, data=[97, 74]),\n",
      "   midi.NoteOnEvent(tick=8, channel=0, data=[97, 231]),\n",
      "   midi.NoteOnEvent(tick=5, channel=0, data=[96, 126]),\n",
      "   midi.NoteOnEvent(tick=10, channel=0, data=[42, 206]),\n",
      "   midi.NoteOnEvent(tick=29, channel=0, data=[69, 95]),\n",
      "   midi.NoteOnEvent(tick=15, channel=0, data=[15, 147]),\n",
      "   midi.NoteOnEvent(tick=2, channel=0, data=[6, 165]),\n",
      "   midi.NoteOffEvent(tick=2, channel=0, data=[69, 0]),\n",
      "   midi.NoteOnEvent(tick=4, channel=0, data=[18, 232]),\n",
      "   midi.NoteOnEvent(tick=7, channel=0, data=[59, 187]),\n",
      "   midi.NoteOnEvent(tick=6, channel=0, data=[45, 41]),\n",
      "   midi.NoteOnEvent(tick=4, channel=0, data=[124, 51]),\n",
      "   midi.NoteOnEvent(tick=3, channel=0, data=[100, 255]),\n",
      "   midi.NoteOnEvent(tick=3, channel=0, data=[80, 110]),\n",
      "   midi.NoteOnEvent(tick=5, channel=0, data=[7, 58]),\n",
      "   midi.NoteOffEvent(tick=28, channel=0, data=[43, 0]),\n",
      "   midi.NoteOnEvent(tick=14, channel=0, data=[57, 180]),\n",
      "   midi.NoteOnEvent(tick=14, channel=0, data=[119, 142]),\n",
      "   midi.NoteOffEvent(tick=19, channel=0, data=[119, 0]),\n",
      "   midi.NoteOnEvent(tick=10, channel=0, data=[81, 125]),\n",
      "   midi.NoteOnEvent(tick=4, channel=0, data=[19, 45]),\n",
      "   midi.NoteOffEvent(tick=2, channel=0, data=[73, 0]),\n",
      "   midi.NoteOnEvent(tick=7, channel=0, data=[1, 1]),\n",
      "   midi.NoteOffEvent(tick=14, channel=0, data=[75, 0]),\n",
      "   midi.NoteOnEvent(tick=36, channel=0, data=[97, 15]),\n",
      "   midi.NoteOnEvent(tick=4, channel=0, data=[23, 10]),\n",
      "   midi.NoteOffEvent(tick=8, channel=0, data=[42, 0]),\n",
      "   midi.NoteOnEvent(tick=0, channel=0, data=[31, 246]),\n",
      "   midi.NoteOnEvent(tick=9, channel=0, data=[107, 53]),\n",
      "   midi.NoteOnEvent(tick=16, channel=0, data=[77, 68]),\n",
      "   midi.NoteOffEvent(tick=17, channel=0, data=[97, 0]),\n",
      "   midi.NoteOffEvent(tick=6, channel=0, data=[80, 0]),\n",
      "   midi.NoteOffEvent(tick=7, channel=0, data=[5, 0]),\n",
      "   midi.NoteOnEvent(tick=0, channel=0, data=[25, 253]),\n",
      "   midi.NoteOnEvent(tick=1, channel=0, data=[26, 205]),\n",
      "   midi.NoteOnEvent(tick=4, channel=0, data=[127, 25]),\n",
      "   midi.NoteOffEvent(tick=2, channel=0, data=[23, 0]),\n",
      "   midi.NoteOnEvent(tick=5, channel=0, data=[61, 62]),\n",
      "   midi.NoteOnEvent(tick=3, channel=0, data=[14, 213]),\n",
      "   midi.NoteOnEvent(tick=10, channel=0, data=[13, 116]),\n",
      "   midi.NoteOnEvent(tick=25, channel=0, data=[31, 157]),\n",
      "   midi.NoteOnEvent(tick=11, channel=0, data=[124, 215]),\n",
      "   midi.NoteOffEvent(tick=36, channel=0, data=[26, 0]),\n",
      "   midi.NoteOnEvent(tick=0, channel=0, data=[31, 99]),\n",
      "   midi.NoteOnEvent(tick=0, channel=0, data=[90, 117]),\n",
      "   midi.NoteOnEvent(tick=5, channel=0, data=[66, 187]),\n",
      "   midi.NoteOffEvent(tick=1, channel=0, data=[6, 0]),\n",
      "   midi.NoteOffEvent(tick=8, channel=0, data=[68, 0]),\n",
      "   midi.NoteOnEvent(tick=9, channel=0, data=[63, 196]),\n",
      "   midi.NoteOnEvent(tick=6, channel=0, data=[51, 107]),\n",
      "   midi.NoteOffEvent(tick=1, channel=0, data=[9, 0]),\n",
      "   midi.NoteOnEvent(tick=7, channel=0, data=[10, 172]),\n",
      "   midi.NoteOffEvent(tick=2, channel=0, data=[107, 0]),\n",
      "   midi.NoteOffEvent(tick=7, channel=0, data=[19, 0]),\n",
      "   midi.NoteOffEvent(tick=7, channel=0, data=[40, 0]),\n",
      "   midi.NoteOnEvent(tick=5, channel=0, data=[121, 220]),\n",
      "   midi.NoteOnEvent(tick=0, channel=0, data=[43, 67]),\n",
      "   midi.NoteOnEvent(tick=6, channel=0, data=[54, 210]),\n",
      "   midi.NoteOnEvent(tick=0, channel=0, data=[56, 46]),\n",
      "   midi.NoteOnEvent(tick=11, channel=0, data=[103, 185]),\n",
      "   midi.NoteOffEvent(tick=19, channel=0, data=[77, 0]),\n",
      "   midi.NoteOnEvent(tick=0, channel=0, data=[93, 247]),\n",
      "   midi.NoteOffEvent(tick=28, channel=0, data=[96, 0]),\n",
      "   midi.NoteOffEvent(tick=51, channel=0, data=[7, 0]),\n",
      "   midi.NoteOffEvent(tick=28, channel=0, data=[100, 0]),\n",
      "   midi.NoteOnEvent(tick=3, channel=0, data=[74, 218]),\n",
      "   midi.NoteOnEvent(tick=5, channel=0, data=[66, 110]),\n",
      "   midi.NoteOffEvent(tick=19, channel=0, data=[85, 0]),\n",
      "   midi.NoteOffEvent(tick=6, channel=0, data=[45, 0]),\n",
      "   midi.NoteOffEvent(tick=8, channel=0, data=[18, 0]),\n",
      "   midi.NoteOffEvent(tick=1, channel=0, data=[103, 0]),\n",
      "   midi.NoteOffEvent(tick=7, channel=0, data=[121, 0]),\n",
      "   midi.NoteOffEvent(tick=15, channel=0, data=[59, 0]),\n",
      "   midi.NoteOffEvent(tick=12, channel=0, data=[104, 0]),\n",
      "   midi.NoteOffEvent(tick=53, channel=0, data=[1, 0]),\n",
      "   midi.NoteOnEvent(tick=1, channel=0, data=[89, 106]),\n",
      "   midi.NoteOffEvent(tick=2, channel=0, data=[14, 0]),\n",
      "   midi.NoteOffEvent(tick=19, channel=0, data=[54, 0]),\n",
      "   midi.NoteOnEvent(tick=11, channel=0, data=[32, 215]),\n",
      "   midi.NoteOffEvent(tick=17, channel=0, data=[90, 0]),\n",
      "   midi.NoteOffEvent(tick=6, channel=0, data=[25, 0]),\n",
      "   midi.NoteOnEvent(tick=1, channel=0, data=[41, 220]),\n",
      "   midi.NoteOffEvent(tick=10, channel=0, data=[74, 0]),\n",
      "   midi.NoteOnEvent(tick=0, channel=0, data=[127, 150]),\n",
      "   midi.NoteOffEvent(tick=14, channel=0, data=[124, 0]),\n",
      "   midi.NoteOnEvent(tick=8, channel=0, data=[48, 218]),\n",
      "   midi.NoteOffEvent(tick=92, channel=0, data=[81, 0]),\n",
      "   midi.NoteOffEvent(tick=11, channel=0, data=[116, 0]),\n",
      "   midi.NoteOffEvent(tick=18, channel=0, data=[32, 0]),\n",
      "   midi.NoteOffEvent(tick=5, channel=0, data=[31, 0]),\n",
      "   midi.NoteOffEvent(tick=70, channel=0, data=[15, 0]),\n",
      "   midi.NoteOffEvent(tick=55, channel=0, data=[57, 0]),\n",
      "   midi.NoteOffEvent(tick=20, channel=0, data=[127, 0]),\n",
      "   midi.NoteOffEvent(tick=6, channel=0, data=[61, 0]),\n",
      "   midi.NoteOffEvent(tick=16, channel=0, data=[10, 0]),\n",
      "   midi.NoteOffEvent(tick=5, channel=0, data=[48, 0]),\n",
      "   midi.NoteOffEvent(tick=61, channel=0, data=[89, 0]),\n",
      "   midi.NoteOffEvent(tick=3, channel=0, data=[63, 0]),\n",
      "   midi.NoteOffEvent(tick=40, channel=0, data=[93, 0]),\n",
      "   midi.NoteOffEvent(tick=8, channel=0, data=[43, 0]),\n",
      "   midi.NoteOffEvent(tick=4, channel=0, data=[66, 0]),\n",
      "   midi.NoteOffEvent(tick=34, channel=0, data=[13, 0]),\n",
      "   midi.NoteOffEvent(tick=43, channel=0, data=[56, 0]),\n",
      "   midi.NoteOffEvent(tick=43, channel=0, data=[51, 0]),\n",
      "   midi.NoteOffEvent(tick=112, channel=0, data=[41, 0]),\n",
      "   midi.EndOfTrackEvent(tick=0, data=[])]),\n",
      " midi.Track(\\\n",
      "  [midi.SetTempoEvent(tick=0, data=[8, 227, 124]),\n",
      "   midi.ProgramChangeEvent(tick=0, channel=0, data=[34]),\n",
      "   midi.NoteOnEvent(tick=24, channel=0, data=[118, 19]),\n",
      "   midi.NoteOnEvent(tick=35, channel=0, data=[43, 39]),\n",
      "   midi.NoteOnEvent(tick=9, channel=0, data=[63, 136]),\n",
      "   midi.NoteOnEvent(tick=44, channel=0, data=[41, 99]),\n",
      "   midi.NoteOnEvent(tick=20, channel=0, data=[112, 44]),\n",
      "   midi.NoteOnEvent(tick=12, channel=0, data=[36, 209]),\n",
      "   midi.NoteOnEvent(tick=11, channel=0, data=[105, 135]),\n",
      "   midi.NoteOffEvent(tick=6, channel=0, data=[41, 0]),\n",
      "   midi.NoteOnEvent(tick=9, channel=0, data=[8, 121]),\n",
      "   midi.NoteOffEvent(tick=10, channel=0, data=[43, 0]),\n",
      "   midi.NoteOnEvent(tick=1, channel=0, data=[108, 107]),\n",
      "   midi.NoteOnEvent(tick=60, channel=0, data=[7, 212]),\n",
      "   midi.NoteOnEvent(tick=48, channel=0, data=[44, 196]),\n",
      "   midi.NoteOnEvent(tick=1, channel=0, data=[81, 246]),\n",
      "   midi.NoteOffEvent(tick=3, channel=0, data=[105, 0]),\n",
      "   midi.NoteOnEvent(tick=38, channel=0, data=[54, 50]),\n",
      "   midi.NoteOnEvent(tick=15, channel=0, data=[57, 182]),\n",
      "   midi.NoteOnEvent(tick=0, channel=0, data=[34, 27]),\n",
      "   midi.NoteOnEvent(tick=3, channel=0, data=[104, 123]),\n",
      "   midi.NoteOnEvent(tick=3, channel=0, data=[78, 131]),\n",
      "   midi.NoteOnEvent(tick=22, channel=0, data=[47, 44]),\n",
      "   midi.NoteOnEvent(tick=12, channel=0, data=[38, 49]),\n",
      "   midi.NoteOnEvent(tick=5, channel=0, data=[118, 173]),\n",
      "   midi.NoteOnEvent(tick=5, channel=0, data=[32, 209]),\n",
      "   midi.NoteOffEvent(tick=1, channel=0, data=[34, 0]),\n",
      "   midi.NoteOnEvent(tick=6, channel=0, data=[70, 147]),\n",
      "   midi.NoteOffEvent(tick=28, channel=0, data=[104, 0]),\n",
      "   midi.NoteOnEvent(tick=10, channel=0, data=[108, 71]),\n",
      "   midi.NoteOnEvent(tick=31, channel=0, data=[116, 123]),\n",
      "   midi.NoteOnEvent(tick=3, channel=0, data=[45, 10]),\n",
      "   midi.NoteOnEvent(tick=6, channel=0, data=[36, 42]),\n",
      "   midi.NoteOnEvent(tick=8, channel=0, data=[31, 5]),\n",
      "   midi.NoteOffEvent(tick=16, channel=0, data=[31, 0]),\n",
      "   midi.NoteOffEvent(tick=20, channel=0, data=[70, 0]),\n",
      "   midi.NoteOnEvent(tick=5, channel=0, data=[50, 250]),\n",
      "   midi.NoteOnEvent(tick=1, channel=0, data=[116, 217]),\n",
      "   midi.NoteOffEvent(tick=9, channel=0, data=[7, 0]),\n",
      "   midi.NoteOnEvent(tick=17, channel=0, data=[119, 56]),\n",
      "   midi.NoteOnEvent(tick=1, channel=0, data=[68, 39]),\n",
      "   midi.NoteOnEvent(tick=15, channel=0, data=[49, 123]),\n",
      "   midi.NoteOnEvent(tick=2, channel=0, data=[80, 210]),\n",
      "   midi.NoteOnEvent(tick=0, channel=0, data=[33, 188]),\n",
      "   midi.NoteOnEvent(tick=4, channel=0, data=[85, 230]),\n",
      "   midi.NoteOnEvent(tick=14, channel=0, data=[0, 243]),\n",
      "   midi.NoteOffEvent(tick=10, channel=0, data=[44, 0]),\n",
      "   midi.NoteOnEvent(tick=11, channel=0, data=[106, 49]),\n",
      "   midi.NoteOnEvent(tick=7, channel=0, data=[56, 156]),\n",
      "   midi.NoteOnEvent(tick=22, channel=0, data=[53, 148]),\n",
      "   midi.NoteOffEvent(tick=15, channel=0, data=[63, 0]),\n",
      "   midi.NoteOnEvent(tick=17, channel=0, data=[11, 52]),\n",
      "   midi.NoteOnEvent(tick=13, channel=0, data=[22, 84]),\n",
      "   midi.NoteOffEvent(tick=13, channel=0, data=[54, 0]),\n",
      "   midi.NoteOffEvent(tick=7, channel=0, data=[45, 0]),\n",
      "   midi.NoteOffEvent(tick=1, channel=0, data=[106, 0]),\n",
      "   midi.NoteOnEvent(tick=2, channel=0, data=[12, 196]),\n",
      "   midi.NoteOnEvent(tick=6, channel=0, data=[29, 115]),\n",
      "   midi.NoteOnEvent(tick=38, channel=0, data=[85, 6]),\n",
      "   midi.NoteOnEvent(tick=5, channel=0, data=[83, 49]),\n",
      "   midi.NoteOnEvent(tick=2, channel=0, data=[93, 44]),\n",
      "   midi.NoteOnEvent(tick=1, channel=0, data=[110, 155]),\n",
      "   midi.NoteOffEvent(tick=13, channel=0, data=[85, 0]),\n",
      "   midi.NoteOffEvent(tick=23, channel=0, data=[8, 0]),\n",
      "   midi.NoteOnEvent(tick=2, channel=0, data=[110, 111]),\n",
      "   midi.NoteOffEvent(tick=7, channel=0, data=[32, 0]),\n",
      "   midi.NoteOffEvent(tick=4, channel=0, data=[112, 0]),\n",
      "   midi.NoteOnEvent(tick=6, channel=0, data=[4, 131]),\n",
      "   midi.NoteOffEvent(tick=13, channel=0, data=[78, 0]),\n",
      "   midi.NoteOffEvent(tick=19, channel=0, data=[81, 0]),\n",
      "   midi.NoteOnEvent(tick=33, channel=0, data=[32, 102]),\n",
      "   midi.NoteOnEvent(tick=0, channel=0, data=[56, 243]),\n",
      "   midi.NoteOnEvent(tick=5, channel=0, data=[57, 9]),\n",
      "   midi.NoteOffEvent(tick=6, channel=0, data=[36, 0]),\n",
      "   midi.NoteOnEvent(tick=5, channel=0, data=[15, 55]),\n",
      "   midi.NoteOnEvent(tick=4, channel=0, data=[68, 45]),\n",
      "   midi.NoteOnEvent(tick=26, channel=0, data=[113, 82]),\n",
      "   midi.NoteOnEvent(tick=9, channel=0, data=[121, 58]),\n",
      "   midi.NoteOffEvent(tick=8, channel=0, data=[38, 0]),\n",
      "   midi.NoteOnEvent(tick=15, channel=0, data=[57, 170]),\n",
      "   midi.NoteOnEvent(tick=16, channel=0, data=[19, 255]),\n",
      "   midi.NoteOnEvent(tick=2, channel=0, data=[67, 120]),\n",
      "   midi.NoteOnEvent(tick=12, channel=0, data=[40, 39]),\n",
      "   midi.NoteOnEvent(tick=8, channel=0, data=[16, 12]),\n",
      "   midi.NoteOffEvent(tick=4, channel=0, data=[19, 0]),\n",
      "   midi.NoteOffEvent(tick=28, channel=0, data=[47, 0]),\n",
      "   midi.NoteOffEvent(tick=6, channel=0, data=[57, 0]),\n",
      "   midi.NoteOffEvent(tick=14, channel=0, data=[33, 0]),\n",
      "   midi.NoteOffEvent(tick=88, channel=0, data=[49, 0]),\n",
      "   midi.NoteOffEvent(tick=5, channel=0, data=[108, 0]),\n",
      "   midi.NoteOffEvent(tick=14, channel=0, data=[11, 0]),\n",
      "   midi.NoteOffEvent(tick=13, channel=0, data=[113, 0]),\n",
      "   midi.NoteOffEvent(tick=9, channel=0, data=[80, 0]),\n",
      "   midi.NoteOffEvent(tick=28, channel=0, data=[0, 0]),\n",
      "   midi.NoteOffEvent(tick=12, channel=0, data=[32, 0]),\n",
      "   midi.NoteOffEvent(tick=16, channel=0, data=[93, 0]),\n",
      "   midi.NoteOffEvent(tick=10, channel=0, data=[116, 0]),\n",
      "   midi.NoteOffEvent(tick=40, channel=0, data=[16, 0]),\n",
      "   midi.NoteOffEvent(tick=22, channel=0, data=[118, 0]),\n",
      "   midi.NoteOffEvent(tick=29, channel=0, data=[29, 0]),\n",
      "   midi.NoteOffEvent(tick=4, channel=0, data=[83, 0]),\n",
      "   midi.NoteOffEvent(tick=27, channel=0, data=[110, 0]),\n",
      "   midi.NoteOffEvent(tick=29, channel=0, data=[119, 0]),\n",
      "   midi.NoteOffEvent(tick=74, channel=0, data=[50, 0]),\n",
      "   midi.NoteOffEvent(tick=13, channel=0, data=[12, 0]),\n",
      "   midi.NoteOffEvent(tick=1, channel=0, data=[56, 0]),\n",
      "   midi.NoteOffEvent(tick=17, channel=0, data=[121, 0]),\n",
      "   midi.NoteOffEvent(tick=27, channel=0, data=[40, 0]),\n",
      "   midi.NoteOffEvent(tick=18, channel=0, data=[22, 0]),\n",
      "   midi.NoteOffEvent(tick=31, channel=0, data=[53, 0]),\n",
      "   midi.NoteOffEvent(tick=21, channel=0, data=[68, 0]),\n",
      "   midi.NoteOffEvent(tick=74, channel=0, data=[15, 0]),\n",
      "   midi.NoteOffEvent(tick=52, channel=0, data=[4, 0]),\n",
      "   midi.NoteOffEvent(tick=191, channel=0, data=[67, 0]),\n",
      "   midi.EndOfTrackEvent(tick=0, data=[])]),\n",
      " midi.Track(\\\n",
      "  [midi.SetTempoEvent(tick=0, data=[8, 227, 124]),\n",
      "   midi.ProgramChangeEvent(tick=0, channel=0, data=[35]),\n",
      "   midi.NoteOnEvent(tick=11, channel=0, data=[10, 157]),\n",
      "   midi.NoteOnEvent(tick=17, channel=0, data=[117, 248]),\n",
      "   midi.NoteOnEvent(tick=7, channel=0, data=[8, 129]),\n",
      "   midi.NoteOnEvent(tick=1, channel=0, data=[5, 16]),\n",
      "   midi.NoteOffEvent(tick=3, channel=0, data=[117, 0]),\n",
      "   midi.NoteOnEvent(tick=8, channel=0, data=[117, 78]),\n",
      "   midi.NoteOnEvent(tick=21, channel=0, data=[77, 191]),\n",
      "   midi.NoteOnEvent(tick=0, channel=0, data=[26, 25]),\n",
      "   midi.NoteOffEvent(tick=46, channel=0, data=[8, 0]),\n",
      "   midi.NoteOnEvent(tick=1, channel=0, data=[65, 18]),\n",
      "   midi.NoteOnEvent(tick=4, channel=0, data=[86, 173]),\n",
      "   midi.NoteOnEvent(tick=0, channel=0, data=[74, 185]),\n",
      "   midi.NoteOnEvent(tick=7, channel=0, data=[103, 254]),\n",
      "   midi.NoteOnEvent(tick=4, channel=0, data=[120, 1]),\n",
      "   midi.NoteOnEvent(tick=2, channel=0, data=[78, 26]),\n",
      "   midi.NoteOnEvent(tick=21, channel=0, data=[75, 164]),\n",
      "   midi.NoteOnEvent(tick=13, channel=0, data=[121, 234]),\n",
      "   midi.NoteOnEvent(tick=24, channel=0, data=[50, 26]),\n",
      "   midi.NoteOffEvent(tick=13, channel=0, data=[74, 0]),\n",
      "   midi.NoteOnEvent(tick=28, channel=0, data=[44, 103]),\n",
      "   midi.NoteOnEvent(tick=23, channel=0, data=[20, 79]),\n",
      "   midi.NoteOnEvent(tick=5, channel=0, data=[80, 111]),\n",
      "   midi.NoteOnEvent(tick=0, channel=0, data=[58, 154]),\n",
      "   midi.NoteOffEvent(tick=12, channel=0, data=[77, 0]),\n",
      "   midi.NoteOffEvent(tick=17, channel=0, data=[103, 0]),\n",
      "   midi.NoteOnEvent(tick=1, channel=0, data=[23, 141]),\n",
      "   midi.NoteOnEvent(tick=24, channel=0, data=[110, 254]),\n",
      "   midi.NoteOnEvent(tick=9, channel=0, data=[83, 72]),\n",
      "   midi.NoteOnEvent(tick=9, channel=0, data=[8, 135]),\n",
      "   midi.NoteOnEvent(tick=1, channel=0, data=[58, 210]),\n",
      "   midi.NoteOnEvent(tick=16, channel=0, data=[126, 63]),\n",
      "   midi.NoteOffEvent(tick=9, channel=0, data=[75, 0]),\n",
      "   midi.NoteOffEvent(tick=12, channel=0, data=[86, 0]),\n",
      "   midi.NoteOffEvent(tick=23, channel=0, data=[80, 0]),\n",
      "   midi.NoteOnEvent(tick=4, channel=0, data=[33, 28]),\n",
      "   midi.NoteOnEvent(tick=7, channel=0, data=[74, 224]),\n",
      "   midi.NoteOnEvent(tick=1, channel=0, data=[47, 221]),\n",
      "   midi.NoteOnEvent(tick=4, channel=0, data=[111, 209]),\n",
      "   midi.NoteOnEvent(tick=8, channel=0, data=[18, 123]),\n",
      "   midi.NoteOffEvent(tick=7, channel=0, data=[117, 0]),\n",
      "   midi.NoteOnEvent(tick=17, channel=0, data=[33, 55]),\n",
      "   midi.NoteOnEvent(tick=0, channel=0, data=[26, 235]),\n",
      "   midi.NoteOffEvent(tick=6, channel=0, data=[111, 0]),\n",
      "   midi.NoteOnEvent(tick=5, channel=0, data=[45, 80]),\n",
      "   midi.NoteOnEvent(tick=26, channel=0, data=[11, 192]),\n",
      "   midi.NoteOffEvent(tick=3, channel=0, data=[50, 0]),\n",
      "   midi.NoteOnEvent(tick=3, channel=0, data=[122, 75]),\n",
      "   midi.NoteOffEvent(tick=1, channel=0, data=[120, 0]),\n",
      "   midi.NoteOnEvent(tick=2, channel=0, data=[0, 8]),\n",
      "   midi.NoteOnEvent(tick=5, channel=0, data=[110, 88]),\n",
      "   midi.NoteOnEvent(tick=14, channel=0, data=[91, 144]),\n",
      "   midi.NoteOnEvent(tick=52, channel=0, data=[119, 4]),\n",
      "   midi.NoteOnEvent(tick=3, channel=0, data=[99, 207]),\n",
      "   midi.NoteOnEvent(tick=12, channel=0, data=[10, 200]),\n",
      "   midi.NoteOnEvent(tick=1, channel=0, data=[98, 28]),\n",
      "   midi.NoteOnEvent(tick=6, channel=0, data=[105, 110]),\n",
      "   midi.NoteOnEvent(tick=2, channel=0, data=[107, 252]),\n",
      "   midi.NoteOffEvent(tick=1, channel=0, data=[119, 0]),\n",
      "   midi.NoteOffEvent(tick=3, channel=0, data=[78, 0]),\n",
      "   midi.NoteOnEvent(tick=5, channel=0, data=[48, 13]),\n",
      "   midi.NoteOnEvent(tick=2, channel=0, data=[78, 184]),\n",
      "   midi.NoteOffEvent(tick=6, channel=0, data=[26, 0]),\n",
      "   midi.NoteOnEvent(tick=12, channel=0, data=[49, 161]),\n",
      "   midi.NoteOffEvent(tick=16, channel=0, data=[110, 0]),\n",
      "   midi.NoteOnEvent(tick=31, channel=0, data=[57, 82]),\n",
      "   midi.NoteOffEvent(tick=4, channel=0, data=[33, 0]),\n",
      "   midi.NoteOnEvent(tick=8, channel=0, data=[73, 107]),\n",
      "   midi.NoteOffEvent(tick=4, channel=0, data=[121, 0]),\n",
      "   midi.NoteOnEvent(tick=2, channel=0, data=[64, 159]),\n",
      "   midi.NoteOffEvent(tick=24, channel=0, data=[57, 0]),\n",
      "   midi.NoteOnEvent(tick=6, channel=0, data=[124, 86]),\n",
      "   midi.NoteOffEvent(tick=14, channel=0, data=[5, 0]),\n",
      "   midi.NoteOnEvent(tick=21, channel=0, data=[17, 215]),\n",
      "   midi.NoteOffEvent(tick=1, channel=0, data=[65, 0]),\n",
      "   midi.NoteOffEvent(tick=4, channel=0, data=[18, 0]),\n",
      "   midi.NoteOnEvent(tick=7, channel=0, data=[39, 238]),\n",
      "   midi.NoteOnEvent(tick=11, channel=0, data=[70, 94]),\n",
      "   midi.NoteOffEvent(tick=17, channel=0, data=[124, 0]),\n",
      "   midi.NoteOffEvent(tick=1, channel=0, data=[70, 0]),\n",
      "   midi.NoteOffEvent(tick=6, channel=0, data=[0, 0]),\n",
      "   midi.NoteOnEvent(tick=27, channel=0, data=[102, 9]),\n",
      "   midi.NoteOffEvent(tick=9, channel=0, data=[44, 0]),\n",
      "   midi.NoteOffEvent(tick=31, channel=0, data=[39, 0]),\n",
      "   midi.NoteOffEvent(tick=29, channel=0, data=[23, 0]),\n",
      "   midi.NoteOnEvent(tick=0, channel=0, data=[48, 36]),\n",
      "   midi.NoteOnEvent(tick=4, channel=0, data=[14, 191]),\n",
      "   midi.NoteOffEvent(tick=25, channel=0, data=[122, 0]),\n",
      "   midi.NoteOffEvent(tick=13, channel=0, data=[73, 0]),\n",
      "   midi.NoteOffEvent(tick=3, channel=0, data=[98, 0]),\n",
      "   midi.NoteOnEvent(tick=4, channel=0, data=[126, 167]),\n",
      "   midi.NoteOnEvent(tick=2, channel=0, data=[119, 247]),\n",
      "   midi.NoteOnEvent(tick=4, channel=0, data=[80, 133]),\n",
      "   midi.NoteOnEvent(tick=39, channel=0, data=[45, 242]),\n",
      "   midi.NoteOnEvent(tick=2, channel=0, data=[125, 152]),\n",
      "   midi.NoteOffEvent(tick=5, channel=0, data=[74, 0]),\n",
      "   midi.NoteOffEvent(tick=1, channel=0, data=[10, 0]),\n",
      "   midi.NoteOffEvent(tick=57, channel=0, data=[83, 0]),\n",
      "   midi.NoteOffEvent(tick=1, channel=0, data=[91, 0]),\n",
      "   midi.NoteOffEvent(tick=17, channel=0, data=[47, 0]),\n",
      "   midi.NoteOffEvent(tick=3, channel=0, data=[99, 0]),\n",
      "   midi.NoteOffEvent(tick=49, channel=0, data=[8, 0]),\n",
      "   midi.NoteOffEvent(tick=10, channel=0, data=[58, 0]),\n",
      "   midi.NoteOffEvent(tick=8, channel=0, data=[125, 0]),\n",
      "   midi.NoteOffEvent(tick=22, channel=0, data=[20, 0]),\n",
      "   midi.NoteOffEvent(tick=9, channel=0, data=[17, 0]),\n",
      "   midi.NoteOffEvent(tick=18, channel=0, data=[80, 0]),\n",
      "   midi.NoteOffEvent(tick=74, channel=0, data=[45, 0]),\n",
      "   midi.NoteOffEvent(tick=7, channel=0, data=[119, 0]),\n",
      "   midi.NoteOffEvent(tick=2, channel=0, data=[11, 0]),\n",
      "   midi.NoteOffEvent(tick=2, channel=0, data=[78, 0]),\n",
      "   midi.NoteOffEvent(tick=70, channel=0, data=[64, 0]),\n",
      "   midi.NoteOffEvent(tick=26, channel=0, data=[107, 0]),\n",
      "   midi.NoteOffEvent(tick=59, channel=0, data=[48, 0]),\n",
      "   midi.NoteOffEvent(tick=17, channel=0, data=[105, 0]),\n",
      "   midi.NoteOffEvent(tick=41, channel=0, data=[49, 0]),\n",
      "   midi.NoteOffEvent(tick=49, channel=0, data=[126, 0]),\n",
      "   midi.NoteOffEvent(tick=45, channel=0, data=[102, 0]),\n",
      "   midi.NoteOffEvent(tick=306, channel=0, data=[14, 0]),\n",
      "   midi.EndOfTrackEvent(tick=0, data=[])]),\n",
      " midi.Track(\\\n",
      "  [midi.SetTempoEvent(tick=0, data=[8, 227, 124]),\n",
      "   midi.ProgramChangeEvent(tick=0, channel=0, data=[36]),\n",
      "   midi.NoteOnEvent(tick=3, channel=0, data=[76, 4]),\n",
      "   midi.NoteOnEvent(tick=5, channel=0, data=[109, 179]),\n",
      "   midi.NoteOnEvent(tick=16, channel=0, data=[94, 147]),\n",
      "   midi.NoteOnEvent(tick=12, channel=0, data=[83, 155]),\n",
      "   midi.NoteOnEvent(tick=16, channel=0, data=[89, 63]),\n",
      "   midi.NoteOnEvent(tick=2, channel=0, data=[29, 161]),\n",
      "   midi.NoteOnEvent(tick=45, channel=0, data=[28, 39]),\n",
      "   midi.NoteOnEvent(tick=15, channel=0, data=[66, 5]),\n",
      "   midi.NoteOffEvent(tick=6, channel=0, data=[89, 0]),\n",
      "   midi.NoteOffEvent(tick=2, channel=0, data=[29, 0]),\n",
      "   midi.NoteOnEvent(tick=8, channel=0, data=[53, 100]),\n",
      "   midi.NoteOnEvent(tick=2, channel=0, data=[80, 54]),\n",
      "   midi.NoteOnEvent(tick=6, channel=0, data=[30, 74]),\n",
      "   midi.NoteOnEvent(tick=4, channel=0, data=[120, 193]),\n",
      "   midi.NoteOnEvent(tick=4, channel=0, data=[121, 235]),\n",
      "   midi.NoteOnEvent(tick=13, channel=0, data=[123, 249]),\n",
      "   midi.NoteOnEvent(tick=50, channel=0, data=[27, 158]),\n",
      "   midi.NoteOnEvent(tick=13, channel=0, data=[124, 3]),\n",
      "   midi.NoteOnEvent(tick=0, channel=0, data=[96, 59]),\n",
      "   midi.NoteOnEvent(tick=0, channel=0, data=[23, 210]),\n",
      "   midi.NoteOnEvent(tick=4, channel=0, data=[21, 57]),\n",
      "   midi.NoteOnEvent(tick=30, channel=0, data=[119, 17]),\n",
      "   midi.NoteOnEvent(tick=0, channel=0, data=[98, 186]),\n",
      "   midi.NoteOnEvent(tick=5, channel=0, data=[73, 69]),\n",
      "   midi.NoteOnEvent(tick=38, channel=0, data=[1, 43]),\n",
      "   midi.NoteOnEvent(tick=13, channel=0, data=[72, 31]),\n",
      "   midi.NoteOffEvent(tick=16, channel=0, data=[98, 0]),\n",
      "   midi.NoteOffEvent(tick=1, channel=0, data=[21, 0]),\n",
      "   midi.NoteOffEvent(tick=3, channel=0, data=[109, 0]),\n",
      "   midi.NoteOnEvent(tick=22, channel=0, data=[123, 4]),\n",
      "   midi.NoteOnEvent(tick=3, channel=0, data=[106, 47]),\n",
      "   midi.NoteOffEvent(tick=2, channel=0, data=[1, 0]),\n",
      "   midi.NoteOnEvent(tick=24, channel=0, data=[39, 221]),\n",
      "   midi.NoteOnEvent(tick=7, channel=0, data=[29, 169]),\n",
      "   midi.NoteOffEvent(tick=33, channel=0, data=[39, 0]),\n",
      "   midi.NoteOffEvent(tick=3, channel=0, data=[76, 0]),\n",
      "   midi.NoteOnEvent(tick=31, channel=0, data=[108, 107]),\n",
      "   midi.NoteOnEvent(tick=14, channel=0, data=[3, 90]),\n",
      "   midi.NoteOnEvent(tick=3, channel=0, data=[56, 93]),\n",
      "   midi.NoteOnEvent(tick=8, channel=0, data=[2, 156]),\n",
      "   midi.NoteOffEvent(tick=13, channel=0, data=[2, 0]),\n",
      "   midi.NoteOffEvent(tick=6, channel=0, data=[3, 0]),\n",
      "   midi.NoteOnEvent(tick=7, channel=0, data=[119, 4]),\n",
      "   midi.NoteOffEvent(tick=31, channel=0, data=[123, 0]),\n",
      "   midi.NoteOnEvent(tick=18, channel=0, data=[91, 20]),\n",
      "   midi.NoteOnEvent(tick=11, channel=0, data=[34, 238]),\n",
      "   midi.NoteOnEvent(tick=3, channel=0, data=[48, 250]),\n",
      "   midi.NoteOffEvent(tick=20, channel=0, data=[80, 0]),\n",
      "   midi.NoteOnEvent(tick=6, channel=0, data=[75, 245]),\n",
      "   midi.NoteOffEvent(tick=18, channel=0, data=[96, 0]),\n",
      "   midi.NoteOffEvent(tick=7, channel=0, data=[30, 0]),\n",
      "   midi.NoteOnEvent(tick=12, channel=0, data=[29, 120]),\n",
      "   midi.NoteOnEvent(tick=0, channel=0, data=[8, 15]),\n",
      "   midi.NoteOffEvent(tick=5, channel=0, data=[34, 0]),\n",
      "   midi.NoteOnEvent(tick=18, channel=0, data=[25, 69]),\n",
      "   midi.NoteOffEvent(tick=1, channel=0, data=[25, 0]),\n",
      "   midi.NoteOnEvent(tick=3, channel=0, data=[51, 145]),\n",
      "   midi.NoteOffEvent(tick=1, channel=0, data=[73, 0]),\n",
      "   midi.NoteOnEvent(tick=9, channel=0, data=[121, 175]),\n",
      "   midi.NoteOnEvent(tick=14, channel=0, data=[70, 27]),\n",
      "   midi.NoteOnEvent(tick=3, channel=0, data=[124, 81]),\n",
      "   midi.NoteOnEvent(tick=2, channel=0, data=[96, 219]),\n",
      "   midi.NoteOnEvent(tick=15, channel=0, data=[96, 58]),\n",
      "   midi.NoteOnEvent(tick=43, channel=0, data=[109, 127]),\n",
      "   midi.NoteOnEvent(tick=4, channel=0, data=[36, 193]),\n",
      "   midi.NoteOffEvent(tick=3, channel=0, data=[29, 0]),\n",
      "   midi.NoteOnEvent(tick=9, channel=0, data=[85, 66]),\n",
      "   midi.NoteOffEvent(tick=41, channel=0, data=[70, 0]),\n",
      "   midi.NoteOffEvent(tick=32, channel=0, data=[119, 0]),\n",
      "   midi.NoteOnEvent(tick=1, channel=0, data=[20, 68]),\n",
      "   midi.NoteOffEvent(tick=24, channel=0, data=[91, 0]),\n",
      "   midi.NoteOffEvent(tick=2, channel=0, data=[72, 0]),\n",
      "   midi.NoteOnEvent(tick=16, channel=0, data=[118, 173]),\n",
      "   midi.NoteOnEvent(tick=8, channel=0, data=[29, 201]),\n",
      "   midi.NoteOnEvent(tick=19, channel=0, data=[89, 147]),\n",
      "   midi.NoteOnEvent(tick=6, channel=0, data=[23, 251]),\n",
      "   midi.NoteOnEvent(tick=10, channel=0, data=[11, 168]),\n",
      "   midi.NoteOnEvent(tick=11, channel=0, data=[111, 24]),\n",
      "   midi.NoteOffEvent(tick=16, channel=0, data=[106, 0]),\n",
      "   midi.NoteOnEvent(tick=11, channel=0, data=[57, 220]),\n",
      "   midi.NoteOffEvent(tick=2, channel=0, data=[120, 0]),\n",
      "   midi.NoteOnEvent(tick=2, channel=0, data=[47, 157]),\n",
      "   midi.NoteOnEvent(tick=4, channel=0, data=[47, 138]),\n",
      "   midi.NoteOnEvent(tick=6, channel=0, data=[119, 103]),\n",
      "   midi.NoteOffEvent(tick=4, channel=0, data=[94, 0]),\n",
      "   midi.NoteOffEvent(tick=3, channel=0, data=[53, 0]),\n",
      "   midi.NoteOnEvent(tick=16, channel=0, data=[59, 183]),\n",
      "   midi.NoteOnEvent(tick=0, channel=0, data=[65, 131]),\n",
      "   midi.NoteOffEvent(tick=6, channel=0, data=[83, 0]),\n",
      "   midi.NoteOffEvent(tick=8, channel=0, data=[66, 0]),\n",
      "   midi.NoteOffEvent(tick=4, channel=0, data=[28, 0]),\n",
      "   midi.NoteOffEvent(tick=4, channel=0, data=[96, 0]),\n",
      "   midi.NoteOffEvent(tick=6, channel=0, data=[11, 0]),\n",
      "   midi.NoteOffEvent(tick=45, channel=0, data=[27, 0]),\n",
      "   midi.NoteOffEvent(tick=1, channel=0, data=[75, 0]),\n",
      "   midi.NoteOffEvent(tick=8, channel=0, data=[47, 0]),\n",
      "   midi.NoteOffEvent(tick=13, channel=0, data=[23, 0]),\n",
      "   midi.NoteOffEvent(tick=0, channel=0, data=[85, 0]),\n",
      "   midi.NoteOffEvent(tick=10, channel=0, data=[56, 0]),\n",
      "   midi.NoteOffEvent(tick=43, channel=0, data=[89, 0]),\n",
      "   midi.NoteOffEvent(tick=3, channel=0, data=[48, 0]),\n",
      "   midi.NoteOffEvent(tick=48, channel=0, data=[119, 0]),\n",
      "   midi.NoteOffEvent(tick=13, channel=0, data=[121, 0]),\n",
      "   midi.NoteOffEvent(tick=4, channel=0, data=[59, 0]),\n",
      "   midi.NoteOffEvent(tick=58, channel=0, data=[51, 0]),\n",
      "   midi.NoteOffEvent(tick=21, channel=0, data=[20, 0]),\n",
      "   midi.NoteOffEvent(tick=104, channel=0, data=[108, 0]),\n",
      "   midi.NoteOffEvent(tick=30, channel=0, data=[36, 0]),\n",
      "   midi.NoteOffEvent(tick=30, channel=0, data=[111, 0]),\n",
      "   midi.NoteOffEvent(tick=13, channel=0, data=[57, 0]),\n",
      "   midi.NoteOffEvent(tick=34, channel=0, data=[118, 0]),\n",
      "   midi.NoteOffEvent(tick=10, channel=0, data=[29, 0]),\n",
      "   midi.NoteOffEvent(tick=25, channel=0, data=[109, 0]),\n",
      "   midi.NoteOffEvent(tick=15, channel=0, data=[8, 0]),\n",
      "   midi.NoteOffEvent(tick=101, channel=0, data=[124, 0]),\n",
      "   midi.NoteOffEvent(tick=210, channel=0, data=[65, 0]),\n",
      "   midi.EndOfTrackEvent(tick=0, data=[])]),\n",
      " midi.Track(\\\n",
      "  [midi.SetTempoEvent(tick=0, data=[8, 227, 124]),\n",
      "   midi.ProgramChangeEvent(tick=0, channel=0, data=[37]),\n",
      "   midi.NoteOnEvent(tick=18, channel=0, data=[112, 119]),\n",
      "   midi.NoteOnEvent(tick=10, channel=0, data=[36, 124]),\n",
      "   midi.NoteOnEvent(tick=8, channel=0, data=[74, 58]),\n",
      "   midi.NoteOnEvent(tick=6, channel=0, data=[51, 44]),\n",
      "   midi.NoteOnEvent(tick=26, channel=0, data=[61, 44]),\n",
      "   midi.NoteOnEvent(tick=58, channel=0, data=[51, 141]),\n",
      "   midi.NoteOnEvent(tick=0, channel=0, data=[62, 151]),\n",
      "   midi.NoteOnEvent(tick=4, channel=0, data=[33, 87]),\n",
      "   midi.NoteOnEvent(tick=10, channel=0, data=[79, 169]),\n",
      "   midi.NoteOnEvent(tick=5, channel=0, data=[80, 232]),\n",
      "   midi.NoteOnEvent(tick=14, channel=0, data=[55, 95]),\n",
      "   midi.NoteOnEvent(tick=27, channel=0, data=[63, 22]),\n",
      "   midi.NoteOnEvent(tick=17, channel=0, data=[24, 46]),\n",
      "   midi.NoteOffEvent(tick=9, channel=0, data=[79, 0]),\n",
      "   midi.NoteOnEvent(tick=20, channel=0, data=[6, 174]),\n",
      "   midi.NoteOnEvent(tick=0, channel=0, data=[7, 113]),\n",
      "   midi.NoteOffEvent(tick=8, channel=0, data=[55, 0]),\n",
      "   midi.NoteOnEvent(tick=25, channel=0, data=[98, 179]),\n",
      "   midi.NoteOffEvent(tick=21, channel=0, data=[74, 0]),\n",
      "   midi.NoteOnEvent(tick=17, channel=0, data=[23, 138]),\n",
      "   midi.NoteOnEvent(tick=32, channel=0, data=[6, 136]),\n",
      "   midi.NoteOnEvent(tick=11, channel=0, data=[13, 161]),\n",
      "   midi.NoteOffEvent(tick=14, channel=0, data=[6, 0]),\n",
      "   midi.NoteOnEvent(tick=11, channel=0, data=[76, 103]),\n",
      "   midi.NoteOnEvent(tick=25, channel=0, data=[33, 7]),\n",
      "   midi.NoteOnEvent(tick=4, channel=0, data=[102, 164]),\n",
      "   midi.NoteOnEvent(tick=6, channel=0, data=[103, 115]),\n",
      "   midi.NoteOnEvent(tick=9, channel=0, data=[96, 229]),\n",
      "   midi.NoteOffEvent(tick=18, channel=0, data=[61, 0]),\n",
      "   midi.NoteOnEvent(tick=27, channel=0, data=[74, 93]),\n",
      "   midi.NoteOffEvent(tick=1, channel=0, data=[51, 0]),\n",
      "   midi.NoteOnEvent(tick=6, channel=0, data=[57, 238]),\n",
      "   midi.NoteOnEvent(tick=5, channel=0, data=[68, 94]),\n",
      "   midi.NoteOnEvent(tick=9, channel=0, data=[4, 172]),\n",
      "   midi.NoteOnEvent(tick=5, channel=0, data=[119, 206]),\n",
      "   midi.NoteOnEvent(tick=2, channel=0, data=[115, 145]),\n",
      "   midi.NoteOffEvent(tick=6, channel=0, data=[63, 0]),\n",
      "   midi.NoteOnEvent(tick=22, channel=0, data=[118, 69]),\n",
      "   midi.NoteOnEvent(tick=5, channel=0, data=[20, 31]),\n",
      "   midi.NoteOnEvent(tick=0, channel=0, data=[0, 144]),\n",
      "   midi.NoteOnEvent(tick=11, channel=0, data=[73, 14]),\n",
      "   midi.NoteOffEvent(tick=18, channel=0, data=[23, 0]),\n",
      "   midi.NoteOnEvent(tick=5, channel=0, data=[77, 123]),\n",
      "   midi.NoteOnEvent(tick=8, channel=0, data=[16, 151]),\n",
      "   midi.NoteOnEvent(tick=8, channel=0, data=[82, 249]),\n",
      "   midi.NoteOnEvent(tick=4, channel=0, data=[48, 104]),\n",
      "   midi.NoteOnEvent(tick=18, channel=0, data=[102, 223]),\n",
      "   midi.NoteOnEvent(tick=3, channel=0, data=[87, 117]),\n",
      "   midi.NoteOnEvent(tick=38, channel=0, data=[51, 180]),\n",
      "   midi.NoteOnEvent(tick=1, channel=0, data=[66, 38]),\n",
      "   midi.NoteOffEvent(tick=3, channel=0, data=[13, 0]),\n",
      "   midi.NoteOffEvent(tick=3, channel=0, data=[36, 0]),\n",
      "   midi.NoteOnEvent(tick=9, channel=0, data=[120, 103]),\n",
      "   midi.NoteOnEvent(tick=10, channel=0, data=[36, 96]),\n",
      "   midi.NoteOnEvent(tick=15, channel=0, data=[106, 183]),\n",
      "   midi.NoteOffEvent(tick=2, channel=0, data=[106, 0]),\n",
      "   midi.NoteOffEvent(tick=20, channel=0, data=[112, 0]),\n",
      "   midi.NoteOnEvent(tick=16, channel=0, data=[26, 203]),\n",
      "   midi.NoteOnEvent(tick=6, channel=0, data=[108, 83]),\n",
      "   midi.NoteOnEvent(tick=20, channel=0, data=[112, 43]),\n",
      "   midi.NoteOffEvent(tick=8, channel=0, data=[87, 0]),\n",
      "   midi.NoteOnEvent(tick=5, channel=0, data=[2, 11]),\n",
      "   midi.NoteOnEvent(tick=1, channel=0, data=[31, 183]),\n",
      "   midi.NoteOffEvent(tick=3, channel=0, data=[77, 0]),\n",
      "   midi.NoteOnEvent(tick=3, channel=0, data=[87, 82]),\n",
      "   midi.NoteOnEvent(tick=20, channel=0, data=[79, 67]),\n",
      "   midi.NoteOnEvent(tick=0, channel=0, data=[84, 244]),\n",
      "   midi.NoteOnEvent(tick=12, channel=0, data=[119, 8]),\n",
      "   midi.NoteOffEvent(tick=4, channel=0, data=[118, 0]),\n",
      "   midi.NoteOffEvent(tick=13, channel=0, data=[24, 0]),\n",
      "   midi.NoteOffEvent(tick=2, channel=0, data=[102, 0]),\n",
      "   midi.NoteOnEvent(tick=8, channel=0, data=[53, 222]),\n",
      "   midi.NoteOffEvent(tick=9, channel=0, data=[82, 0]),\n",
      "   midi.NoteOffEvent(tick=7, channel=0, data=[2, 0]),\n",
      "   midi.NoteOffEvent(tick=2, channel=0, data=[103, 0]),\n",
      "   midi.NoteOnEvent(tick=27, channel=0, data=[23, 175]),\n",
      "   midi.NoteOffEvent(tick=15, channel=0, data=[74, 0]),\n",
      "   midi.NoteOnEvent(tick=9, channel=0, data=[101, 146]),\n",
      "   midi.NoteOnEvent(tick=17, channel=0, data=[39, 66]),\n",
      "   midi.NoteOnEvent(tick=13, channel=0, data=[98, 204]),\n",
      "   midi.NoteOffEvent(tick=4, channel=0, data=[115, 0]),\n",
      "   midi.NoteOnEvent(tick=10, channel=0, data=[121, 208]),\n",
      "   midi.NoteOffEvent(tick=7, channel=0, data=[26, 0]),\n",
      "   midi.NoteOnEvent(tick=4, channel=0, data=[98, 199]),\n",
      "   midi.NoteOffEvent(tick=6, channel=0, data=[120, 0]),\n",
      "   midi.NoteOffEvent(tick=7, channel=0, data=[48, 0]),\n",
      "   midi.NoteOnEvent(tick=0, channel=0, data=[14, 38]),\n",
      "   midi.NoteOnEvent(tick=32, channel=0, data=[15, 212]),\n",
      "   midi.NoteOffEvent(tick=7, channel=0, data=[36, 0]),\n",
      "   midi.NoteOffEvent(tick=3, channel=0, data=[14, 0]),\n",
      "   midi.NoteOffEvent(tick=2, channel=0, data=[101, 0]),\n",
      "   midi.NoteOffEvent(tick=27, channel=0, data=[62, 0]),\n",
      "   midi.NoteOffEvent(tick=10, channel=0, data=[57, 0]),\n",
      "   midi.NoteOffEvent(tick=8, channel=0, data=[0, 0]),\n",
      "   midi.NoteOffEvent(tick=4, channel=0, data=[4, 0]),\n",
      "   midi.NoteOffEvent(tick=0, channel=0, data=[68, 0]),\n",
      "   midi.NoteOffEvent(tick=2, channel=0, data=[51, 0]),\n",
      "   midi.NoteOffEvent(tick=26, channel=0, data=[112, 0]),\n",
      "   midi.NoteOffEvent(tick=34, channel=0, data=[80, 0]),\n",
      "   midi.NoteOffEvent(tick=23, channel=0, data=[73, 0]),\n",
      "   midi.NoteOffEvent(tick=23, channel=0, data=[76, 0]),\n",
      "   midi.NoteOffEvent(tick=56, channel=0, data=[7, 0]),\n",
      "   midi.NoteOffEvent(tick=22, channel=0, data=[16, 0]),\n",
      "   midi.NoteOffEvent(tick=6, channel=0, data=[53, 0]),\n",
      "   midi.NoteOffEvent(tick=20, channel=0, data=[33, 0]),\n",
      "   midi.NoteOffEvent(tick=2, channel=0, data=[66, 0]),\n",
      "   midi.NoteOffEvent(tick=12, channel=0, data=[108, 0]),\n",
      "   midi.NoteOffEvent(tick=27, channel=0, data=[121, 0]),\n",
      "   midi.NoteOffEvent(tick=45, channel=0, data=[20, 0]),\n",
      "   midi.NoteOffEvent(tick=38, channel=0, data=[96, 0]),\n",
      "   midi.NoteOffEvent(tick=22, channel=0, data=[15, 0]),\n",
      "   midi.NoteOffEvent(tick=26, channel=0, data=[87, 0]),\n",
      "   midi.NoteOffEvent(tick=4, channel=0, data=[84, 0]),\n",
      "   midi.NoteOffEvent(tick=103, channel=0, data=[31, 0]),\n",
      "   midi.NoteOffEvent(tick=49, channel=0, data=[119, 0]),\n",
      "   midi.NoteOffEvent(tick=30, channel=0, data=[39, 0]),\n",
      "   midi.NoteOffEvent(tick=42, channel=0, data=[98, 0]),\n",
      "   midi.NoteOffEvent(tick=16, channel=0, data=[79, 0]),\n",
      "   midi.NoteOffEvent(tick=162, channel=0, data=[23, 0]),\n",
      "   midi.EndOfTrackEvent(tick=0, data=[])]),\n",
      " midi.Track(\\\n",
      "  [midi.SetTempoEvent(tick=0, data=[8, 227, 124]),\n",
      "   midi.ProgramChangeEvent(tick=0, channel=0, data=[38]),\n",
      "   midi.NoteOnEvent(tick=3, channel=0, data=[115, 155]),\n",
      "   midi.NoteOnEvent(tick=8, channel=0, data=[125, 251]),\n",
      "   midi.NoteOnEvent(tick=0, channel=0, data=[73, 106]),\n",
      "   midi.NoteOnEvent(tick=52, channel=0, data=[127, 38]),\n",
      "   midi.NoteOnEvent(tick=5, channel=0, data=[91, 201]),\n",
      "   midi.NoteOnEvent(tick=42, channel=0, data=[76, 239]),\n",
      "   midi.NoteOnEvent(tick=9, channel=0, data=[61, 98]),\n",
      "   midi.NoteOnEvent(tick=2, channel=0, data=[100, 216]),\n",
      "   midi.NoteOnEvent(tick=19, channel=0, data=[86, 20]),\n",
      "   midi.NoteOnEvent(tick=20, channel=0, data=[18, 37]),\n",
      "   midi.NoteOnEvent(tick=62, channel=0, data=[67, 244]),\n",
      "   midi.NoteOffEvent(tick=13, channel=0, data=[115, 0]),\n",
      "   midi.NoteOnEvent(tick=16, channel=0, data=[102, 180]),\n",
      "   midi.NoteOffEvent(tick=16, channel=0, data=[91, 0]),\n",
      "   midi.NoteOnEvent(tick=26, channel=0, data=[78, 213]),\n",
      "   midi.NoteOnEvent(tick=6, channel=0, data=[64, 172]),\n",
      "   midi.NoteOnEvent(tick=14, channel=0, data=[95, 202]),\n",
      "   midi.NoteOnEvent(tick=5, channel=0, data=[113, 26]),\n",
      "   midi.NoteOnEvent(tick=0, channel=0, data=[86, 77]),\n",
      "   midi.NoteOnEvent(tick=19, channel=0, data=[28, 89]),\n",
      "   midi.NoteOnEvent(tick=8, channel=0, data=[116, 123]),\n",
      "   midi.NoteOnEvent(tick=12, channel=0, data=[48, 148]),\n",
      "   midi.NoteOnEvent(tick=39, channel=0, data=[119, 203]),\n",
      "   midi.NoteOnEvent(tick=2, channel=0, data=[33, 85]),\n",
      "   midi.NoteOnEvent(tick=5, channel=0, data=[108, 71]),\n",
      "   midi.NoteOffEvent(tick=6, channel=0, data=[95, 0]),\n",
      "   midi.NoteOffEvent(tick=23, channel=0, data=[102, 0]),\n",
      "   midi.NoteOffEvent(tick=5, channel=0, data=[100, 0]),\n",
      "   midi.NoteOffEvent(tick=7, channel=0, data=[64, 0]),\n",
      "   midi.NoteOnEvent(tick=30, channel=0, data=[104, 3]),\n",
      "   midi.NoteOffEvent(tick=2, channel=0, data=[28, 0]),\n",
      "   midi.NoteOnEvent(tick=11, channel=0, data=[113, 104]),\n",
      "   midi.NoteOnEvent(tick=13, channel=0, data=[93, 36]),\n",
      "   midi.NoteOnEvent(tick=19, channel=0, data=[49, 8]),\n",
      "   midi.NoteOnEvent(tick=12, channel=0, data=[103, 152]),\n",
      "   midi.NoteOnEvent(tick=4, channel=0, data=[91, 193]),\n",
      "   midi.NoteOffEvent(tick=18, channel=0, data=[91, 0]),\n",
      "   midi.NoteOnEvent(tick=1, channel=0, data=[48, 164]),\n",
      "   midi.NoteOffEvent(tick=6, channel=0, data=[76, 0]),\n",
      "   midi.NoteOffEvent(tick=7, channel=0, data=[86, 0]),\n",
      "   midi.NoteOnEvent(tick=1, channel=0, data=[89, 114]),\n",
      "   midi.NoteOnEvent(tick=3, channel=0, data=[81, 183]),\n",
      "   midi.NoteOnEvent(tick=3, channel=0, data=[12, 126]),\n",
      "   midi.NoteOnEvent(tick=19, channel=0, data=[68, 98]),\n",
      "   midi.NoteOnEvent(tick=0, channel=0, data=[97, 50]),\n",
      "   midi.NoteOnEvent(tick=0, channel=0, data=[11, 121]),\n",
      "   midi.NoteOnEvent(tick=23, channel=0, data=[5, 66]),\n",
      "   midi.NoteOnEvent(tick=23, channel=0, data=[112, 46]),\n",
      "   midi.NoteOnEvent(tick=12, channel=0, data=[117, 31]),\n",
      "   midi.NoteOffEvent(tick=11, channel=0, data=[116, 0]),\n",
      "   midi.NoteOffEvent(tick=10, channel=0, data=[119, 0]),\n",
      "   midi.NoteOffEvent(tick=12, channel=0, data=[61, 0]),\n",
      "   midi.NoteOffEvent(tick=24, channel=0, data=[11, 0]),\n",
      "   midi.NoteOffEvent(tick=18, channel=0, data=[113, 0]),\n",
      "   midi.NoteOffEvent(tick=24, channel=0, data=[103, 0]),\n",
      "   midi.NoteOnEvent(tick=3, channel=0, data=[67, 241]),\n",
      "   midi.NoteOnEvent(tick=7, channel=0, data=[63, 178]),\n",
      "   midi.NoteOnEvent(tick=2, channel=0, data=[72, 200]),\n",
      "   midi.NoteOffEvent(tick=1, channel=0, data=[125, 0]),\n",
      "   midi.NoteOffEvent(tick=17, channel=0, data=[48, 0]),\n",
      "   midi.NoteOnEvent(tick=6, channel=0, data=[56, 88]),\n",
      "   midi.NoteOffEvent(tick=23, channel=0, data=[67, 0]),\n",
      "   midi.NoteOnEvent(tick=17, channel=0, data=[50, 226]),\n",
      "   midi.NoteOffEvent(tick=11, channel=0, data=[73, 0]),\n",
      "   midi.NoteOffEvent(tick=18, channel=0, data=[127, 0]),\n",
      "   midi.NoteOffEvent(tick=12, channel=0, data=[12, 0]),\n",
      "   midi.NoteOffEvent(tick=9, channel=0, data=[50, 0]),\n",
      "   midi.NoteOnEvent(tick=0, channel=0, data=[92, 185]),\n",
      "   midi.NoteOnEvent(tick=1, channel=0, data=[97, 31]),\n",
      "   midi.NoteOnEvent(tick=13, channel=0, data=[40, 28]),\n",
      "   midi.NoteOnEvent(tick=12, channel=0, data=[111, 70]),\n",
      "   midi.NoteOnEvent(tick=2, channel=0, data=[14, 242]),\n",
      "   midi.NoteOnEvent(tick=13, channel=0, data=[18, 40]),\n",
      "   midi.NoteOnEvent(tick=8, channel=0, data=[19, 69]),\n",
      "   midi.NoteOnEvent(tick=6, channel=0, data=[120, 253]),\n",
      "   midi.NoteOnEvent(tick=41, channel=0, data=[4, 120]),\n",
      "   midi.NoteOnEvent(tick=7, channel=0, data=[124, 156]),\n",
      "   midi.NoteOffEvent(tick=5, channel=0, data=[104, 0]),\n",
      "   midi.NoteOffEvent(tick=8, channel=0, data=[124, 0]),\n",
      "   midi.NoteOnEvent(tick=1, channel=0, data=[40, 8]),\n",
      "   midi.NoteOffEvent(tick=61, channel=0, data=[40, 0]),\n",
      "   midi.NoteOffEvent(tick=2, channel=0, data=[63, 0]),\n",
      "   midi.NoteOffEvent(tick=24, channel=0, data=[49, 0]),\n",
      "   midi.NoteOffEvent(tick=8, channel=0, data=[72, 0]),\n",
      "   midi.NoteOffEvent(tick=13, channel=0, data=[97, 0]),\n",
      "   midi.NoteOffEvent(tick=11, channel=0, data=[93, 0]),\n",
      "   midi.NoteOffEvent(tick=20, channel=0, data=[78, 0]),\n",
      "   midi.NoteOffEvent(tick=6, channel=0, data=[108, 0]),\n",
      "   midi.NoteOffEvent(tick=30, channel=0, data=[89, 0]),\n",
      "   midi.NoteOffEvent(tick=26, channel=0, data=[81, 0]),\n",
      "   midi.NoteOffEvent(tick=39, channel=0, data=[33, 0]),\n",
      "   midi.NoteOffEvent(tick=0, channel=0, data=[68, 0]),\n",
      "   midi.NoteOffEvent(tick=4, channel=0, data=[56, 0]),\n",
      "   midi.NoteOffEvent(tick=31, channel=0, data=[19, 0]),\n",
      "   midi.NoteOffEvent(tick=39, channel=0, data=[120, 0]),\n",
      "   midi.NoteOffEvent(tick=113, channel=0, data=[92, 0]),\n",
      "   midi.NoteOffEvent(tick=7, channel=0, data=[117, 0]),\n",
      "   midi.NoteOffEvent(tick=48, channel=0, data=[5, 0]),\n",
      "   midi.NoteOffEvent(tick=57, channel=0, data=[112, 0]),\n",
      "   midi.NoteOffEvent(tick=1, channel=0, data=[18, 0]),\n",
      "   midi.NoteOffEvent(tick=3, channel=0, data=[14, 0]),\n",
      "   midi.NoteOffEvent(tick=35, channel=0, data=[111, 0]),\n",
      "   midi.NoteOffEvent(tick=304, channel=0, data=[4, 0]),\n",
      "   midi.EndOfTrackEvent(tick=0, data=[])]),\n",
      " midi.Track(\\\n",
      "  [midi.SetTempoEvent(tick=0, data=[8, 227, 124]),\n",
      "   midi.ProgramChangeEvent(tick=0, channel=0, data=[39]),\n",
      "   midi.NoteOnEvent(tick=16, channel=0, data=[2, 120]),\n",
      "   midi.NoteOnEvent(tick=12, channel=0, data=[15, 78]),\n",
      "   midi.NoteOnEvent(tick=0, channel=0, data=[38, 62]),\n",
      "   midi.NoteOnEvent(tick=14, channel=0, data=[19, 181]),\n",
      "   midi.NoteOnEvent(tick=5, channel=0, data=[27, 180]),\n",
      "   midi.NoteOnEvent(tick=16, channel=0, data=[73, 122]),\n",
      "   midi.NoteOnEvent(tick=36, channel=0, data=[1, 71]),\n",
      "   midi.NoteOnEvent(tick=3, channel=0, data=[31, 100]),\n",
      "   midi.NoteOnEvent(tick=8, channel=0, data=[44, 154]),\n",
      "   midi.NoteOnEvent(tick=2, channel=0, data=[102, 238]),\n",
      "   midi.NoteOnEvent(tick=5, channel=0, data=[64, 129]),\n",
      "   midi.NoteOnEvent(tick=4, channel=0, data=[9, 113]),\n",
      "   midi.NoteOnEvent(tick=19, channel=0, data=[113, 232]),\n",
      "   midi.NoteOnEvent(tick=2, channel=0, data=[104, 102]),\n",
      "   midi.NoteOnEvent(tick=21, channel=0, data=[21, 84]),\n",
      "   midi.NoteOffEvent(tick=2, channel=0, data=[38, 0]),\n",
      "   midi.NoteOnEvent(tick=29, channel=0, data=[62, 118]),\n",
      "   midi.NoteOnEvent(tick=14, channel=0, data=[63, 95]),\n",
      "   midi.NoteOnEvent(tick=14, channel=0, data=[119, 44]),\n",
      "   midi.NoteOnEvent(tick=4, channel=0, data=[82, 207]),\n",
      "   midi.NoteOnEvent(tick=5, channel=0, data=[49, 63]),\n",
      "   midi.NoteOnEvent(tick=4, channel=0, data=[65, 106]),\n",
      "   midi.NoteOnEvent(tick=21, channel=0, data=[60, 107]),\n",
      "   midi.NoteOnEvent(tick=17, channel=0, data=[10, 140]),\n",
      "   midi.NoteOffEvent(tick=4, channel=0, data=[15, 0]),\n",
      "   midi.NoteOnEvent(tick=31, channel=0, data=[40, 127]),\n",
      "   midi.NoteOnEvent(tick=5, channel=0, data=[127, 1]),\n",
      "   midi.NoteOnEvent(tick=5, channel=0, data=[106, 145]),\n",
      "   midi.NoteOffEvent(tick=44, channel=0, data=[10, 0]),\n",
      "   midi.NoteOffEvent(tick=58, channel=0, data=[104, 0]),\n",
      "   midi.NoteOnEvent(tick=5, channel=0, data=[92, 122]),\n",
      "   midi.NoteOnEvent(tick=0, channel=0, data=[8, 41]),\n",
      "   midi.NoteOnEvent(tick=0, channel=0, data=[24, 77]),\n",
      "   midi.NoteOnEvent(tick=17, channel=0, data=[41, 212]),\n",
      "   midi.NoteOffEvent(tick=5, channel=0, data=[27, 0]),\n",
      "   midi.NoteOnEvent(tick=4, channel=0, data=[127, 6]),\n",
      "   midi.NoteOnEvent(tick=0, channel=0, data=[112, 191]),\n",
      "   midi.NoteOffEvent(tick=1, channel=0, data=[44, 0]),\n",
      "   midi.NoteOffEvent(tick=8, channel=0, data=[19, 0]),\n",
      "   midi.NoteOnEvent(tick=14, channel=0, data=[23, 195]),\n",
      "   midi.NoteOnEvent(tick=19, channel=0, data=[88, 241]),\n",
      "   midi.NoteOnEvent(tick=38, channel=0, data=[29, 58]),\n",
      "   midi.NoteOffEvent(tick=8, channel=0, data=[31, 0]),\n",
      "   midi.NoteOnEvent(tick=8, channel=0, data=[61, 150]),\n",
      "   midi.NoteOnEvent(tick=7, channel=0, data=[118, 109]),\n",
      "   midi.NoteOnEvent(tick=6, channel=0, data=[26, 25]),\n",
      "   midi.NoteOnEvent(tick=8, channel=0, data=[2, 217]),\n",
      "   midi.NoteOnEvent(tick=0, channel=0, data=[94, 14]),\n",
      "   midi.NoteOnEvent(tick=0, channel=0, data=[91, 52]),\n",
      "   midi.NoteOnEvent(tick=11, channel=0, data=[17, 119]),\n",
      "   midi.NoteOnEvent(tick=2, channel=0, data=[121, 1]),\n",
      "   midi.NoteOnEvent(tick=0, channel=0, data=[106, 88]),\n",
      "   midi.NoteOnEvent(tick=0, channel=0, data=[88, 177]),\n",
      "   midi.NoteOffEvent(tick=4, channel=0, data=[60, 0]),\n",
      "   midi.NoteOnEvent(tick=7, channel=0, data=[109, 106]),\n",
      "   midi.NoteOnEvent(tick=1, channel=0, data=[31, 182]),\n",
      "   midi.NoteOnEvent(tick=0, channel=0, data=[49, 144]),\n",
      "   midi.NoteOffEvent(tick=30, channel=0, data=[82, 0]),\n",
      "   midi.NoteOnEvent(tick=15, channel=0, data=[63, 85]),\n",
      "   midi.NoteOffEvent(tick=1, channel=0, data=[127, 0]),\n",
      "   midi.NoteOffEvent(tick=10, channel=0, data=[73, 0]),\n",
      "   midi.NoteOffEvent(tick=45, channel=0, data=[1, 0]),\n",
      "   midi.NoteOffEvent(tick=40, channel=0, data=[64, 0]),\n",
      "   midi.NoteOffEvent(tick=14, channel=0, data=[29, 0]),\n",
      "   midi.NoteOnEvent(tick=5, channel=0, data=[36, 220]),\n",
      "   midi.NoteOffEvent(tick=8, channel=0, data=[102, 0]),\n",
      "   midi.NoteOnEvent(tick=1, channel=0, data=[3, 253]),\n",
      "   midi.NoteOnEvent(tick=0, channel=0, data=[60, 156]),\n",
      "   midi.NoteOffEvent(tick=8, channel=0, data=[65, 0]),\n",
      "   midi.NoteOffEvent(tick=3, channel=0, data=[60, 0]),\n",
      "   midi.NoteOffEvent(tick=4, channel=0, data=[24, 0]),\n",
      "   midi.NoteOnEvent(tick=0, channel=0, data=[9, 201]),\n",
      "   midi.NoteOffEvent(tick=15, channel=0, data=[21, 0]),\n",
      "   midi.NoteOnEvent(tick=9, channel=0, data=[38, 153]),\n",
      "   midi.NoteOnEvent(tick=0, channel=0, data=[89, 9]),\n",
      "   midi.NoteOnEvent(tick=6, channel=0, data=[32, 205]),\n",
      "   midi.NoteOffEvent(tick=30, channel=0, data=[26, 0]),\n",
      "   midi.NoteOnEvent(tick=1, channel=0, data=[52, 128]),\n",
      "   midi.NoteOnEvent(tick=4, channel=0, data=[14, 145]),\n",
      "   midi.NoteOffEvent(tick=21, channel=0, data=[113, 0]),\n",
      "   midi.NoteOffEvent(tick=5, channel=0, data=[118, 0]),\n",
      "   midi.NoteOffEvent(tick=15, channel=0, data=[2, 0]),\n",
      "   midi.NoteOffEvent(tick=11, channel=0, data=[23, 0]),\n",
      "   midi.NoteOffEvent(tick=9, channel=0, data=[49, 0]),\n",
      "   midi.NoteOnEvent(tick=0, channel=0, data=[9, 88]),\n",
      "   midi.NoteOffEvent(tick=5, channel=0, data=[91, 0]),\n",
      "   midi.NoteOffEvent(tick=7, channel=0, data=[63, 0]),\n",
      "   midi.NoteOnEvent(tick=6, channel=0, data=[98, 68]),\n",
      "   midi.NoteOffEvent(tick=2, channel=0, data=[106, 0]),\n",
      "   midi.NoteOffEvent(tick=5, channel=0, data=[109, 0]),\n",
      "   midi.NoteOnEvent(tick=4, channel=0, data=[98, 4]),\n",
      "   midi.NoteOnEvent(tick=10, channel=0, data=[47, 87]),\n",
      "   midi.NoteOffEvent(tick=14, channel=0, data=[94, 0]),\n",
      "   midi.NoteOnEvent(tick=9, channel=0, data=[15, 15]),\n",
      "   midi.NoteOnEvent(tick=5, channel=0, data=[95, 213]),\n",
      "   midi.NoteOffEvent(tick=1, channel=0, data=[47, 0]),\n",
      "   midi.NoteOffEvent(tick=11, channel=0, data=[32, 0]),\n",
      "   midi.NoteOffEvent(tick=4, channel=0, data=[14, 0]),\n",
      "   midi.NoteOnEvent(tick=1, channel=0, data=[20, 142]),\n",
      "   midi.NoteOffEvent(tick=3, channel=0, data=[40, 0]),\n",
      "   midi.NoteOffEvent(tick=28, channel=0, data=[31, 0]),\n",
      "   midi.NoteOffEvent(tick=5, channel=0, data=[17, 0]),\n",
      "   midi.NoteOffEvent(tick=19, channel=0, data=[41, 0]),\n",
      "   midi.NoteOffEvent(tick=11, channel=0, data=[62, 0]),\n",
      "   midi.NoteOffEvent(tick=71, channel=0, data=[119, 0]),\n",
      "   midi.NoteOffEvent(tick=31, channel=0, data=[112, 0]),\n",
      "   midi.NoteOffEvent(tick=25, channel=0, data=[38, 0]),\n",
      "   midi.NoteOffEvent(tick=54, channel=0, data=[15, 0]),\n",
      "   midi.NoteOffEvent(tick=22, channel=0, data=[61, 0]),\n",
      "   midi.NoteOffEvent(tick=95, channel=0, data=[92, 0]),\n",
      "   midi.NoteOffEvent(tick=24, channel=0, data=[88, 0]),\n",
      "   midi.NoteOffEvent(tick=2, channel=0, data=[8, 0]),\n",
      "   midi.NoteOffEvent(tick=5, channel=0, data=[9, 0]),\n",
      "   midi.NoteOffEvent(tick=5, channel=0, data=[121, 0]),\n",
      "   midi.NoteOffEvent(tick=25, channel=0, data=[98, 0]),\n",
      "   midi.NoteOffEvent(tick=11, channel=0, data=[95, 0]),\n",
      "   midi.NoteOffEvent(tick=98, channel=0, data=[52, 0]),\n",
      "   midi.NoteOffEvent(tick=32, channel=0, data=[36, 0]),\n",
      "   midi.NoteOffEvent(tick=76, channel=0, data=[89, 0]),\n",
      "   midi.NoteOffEvent(tick=117, channel=0, data=[3, 0]),\n",
      "   midi.NoteOffEvent(tick=158, channel=0, data=[20, 0]),\n",
      "   midi.EndOfTrackEvent(tick=0, data=[])]),\n",
      " midi.Track(\\\n",
      "  [midi.SetTempoEvent(tick=0, data=[8, 227, 124]),\n",
      "   midi.ProgramChangeEvent(tick=0, channel=0, data=[40]),\n",
      "   midi.NoteOnEvent(tick=8, channel=0, data=[96, 60]),\n",
      "   midi.NoteOnEvent(tick=0, channel=0, data=[70, 45]),\n",
      "   midi.NoteOnEvent(tick=6, channel=0, data=[1, 106]),\n",
      "   midi.NoteOnEvent(tick=33, channel=0, data=[74, 124]),\n",
      "   midi.NoteOnEvent(tick=16, channel=0, data=[40, 146]),\n",
      "   midi.NoteOnEvent(tick=5, channel=0, data=[67, 117]),\n",
      "   midi.NoteOnEvent(tick=15, channel=0, data=[114, 139]),\n",
      "   midi.NoteOnEvent(tick=14, channel=0, data=[84, 69]),\n",
      "   midi.NoteOnEvent(tick=5, channel=0, data=[95, 30]),\n",
      "   midi.NoteOnEvent(tick=12, channel=0, data=[95, 60]),\n",
      "   midi.NoteOnEvent(tick=7, channel=0, data=[61, 156]),\n",
      "   midi.NoteOnEvent(tick=5, channel=0, data=[40, 141]),\n",
      "   midi.NoteOnEvent(tick=3, channel=0, data=[17, 35]),\n",
      "   midi.NoteOnEvent(tick=1, channel=0, data=[82, 24]),\n",
      "   midi.NoteOnEvent(tick=8, channel=0, data=[14, 125]),\n",
      "   midi.NoteOnEvent(tick=0, channel=0, data=[101, 222]),\n",
      "   midi.NoteOffEvent(tick=10, channel=0, data=[70, 0]),\n",
      "   midi.NoteOffEvent(tick=2, channel=0, data=[95, 0]),\n",
      "   midi.NoteOnEvent(tick=16, channel=0, data=[67, 145]),\n",
      "   midi.NoteOffEvent(tick=6, channel=0, data=[40, 0]),\n",
      "   midi.NoteOnEvent(tick=7, channel=0, data=[127, 138]),\n",
      "   midi.NoteOnEvent(tick=24, channel=0, data=[4, 129]),\n",
      "   midi.NoteOnEvent(tick=19, channel=0, data=[0, 181]),\n",
      "   midi.NoteOnEvent(tick=14, channel=0, data=[1, 164]),\n",
      "   midi.NoteOffEvent(tick=11, channel=0, data=[101, 0]),\n",
      "   midi.NoteOnEvent(tick=4, channel=0, data=[44, 142]),\n",
      "   midi.NoteOnEvent(tick=3, channel=0, data=[55, 66]),\n",
      "   midi.NoteOffEvent(tick=27, channel=0, data=[74, 0]),\n",
      "   midi.NoteOnEvent(tick=12, channel=0, data=[5, 78]),\n",
      "   midi.NoteOnEvent(tick=6, channel=0, data=[112, 31]),\n",
      "   midi.NoteOnEvent(tick=10, channel=0, data=[41, 90]),\n",
      "   midi.NoteOffEvent(tick=3, channel=0, data=[82, 0]),\n",
      "   midi.NoteOnEvent(tick=20, channel=0, data=[59, 250]),\n",
      "   midi.NoteOffEvent(tick=23, channel=0, data=[114, 0]),\n",
      "   midi.NoteOnEvent(tick=2, channel=0, data=[65, 197]),\n",
      "   midi.NoteOnEvent(tick=26, channel=0, data=[70, 160]),\n",
      "   midi.NoteOffEvent(tick=10, channel=0, data=[61, 0]),\n",
      "   midi.NoteOnEvent(tick=5, channel=0, data=[15, 242]),\n",
      "   midi.NoteOnEvent(tick=8, channel=0, data=[126, 253]),\n",
      "   midi.NoteOnEvent(tick=27, channel=0, data=[1, 177]),\n",
      "   midi.NoteOnEvent(tick=5, channel=0, data=[19, 72]),\n",
      "   midi.NoteOnEvent(tick=4, channel=0, data=[104, 36]),\n",
      "   midi.NoteOffEvent(tick=22, channel=0, data=[5, 0]),\n",
      "   midi.NoteOnEvent(tick=8, channel=0, data=[36, 89]),\n",
      "   midi.NoteOnEvent(tick=14, channel=0, data=[120, 9]),\n",
      "   midi.NoteOnEvent(tick=2, channel=0, data=[107, 133]),\n",
      "   midi.NoteOnEvent(tick=8, channel=0, data=[117, 236]),\n",
      "   midi.NoteOnEvent(tick=4, channel=0, data=[77, 86]),\n",
      "   midi.NoteOffEvent(tick=37, channel=0, data=[120, 0]),\n",
      "   midi.NoteOnEvent(tick=1, channel=0, data=[111, 16]),\n",
      "   midi.NoteOnEvent(tick=8, channel=0, data=[25, 205]),\n",
      "   midi.NoteOnEvent(tick=6, channel=0, data=[16, 138]),\n",
      "   midi.NoteOnEvent(tick=8, channel=0, data=[82, 74]),\n",
      "   midi.NoteOnEvent(tick=3, channel=0, data=[125, 127]),\n",
      "   midi.NoteOnEvent(tick=5, channel=0, data=[18, 221]),\n",
      "   midi.NoteOnEvent(tick=3, channel=0, data=[12, 68]),\n",
      "   midi.NoteOnEvent(tick=0, channel=0, data=[13, 173]),\n",
      "   midi.NoteOffEvent(tick=1, channel=0, data=[1, 0]),\n",
      "   midi.NoteOnEvent(tick=7, channel=0, data=[87, 95]),\n",
      "   midi.NoteOffEvent(tick=4, channel=0, data=[127, 0]),\n",
      "   midi.NoteOnEvent(tick=10, channel=0, data=[67, 36]),\n",
      "   midi.NoteOffEvent(tick=29, channel=0, data=[44, 0]),\n",
      "   midi.NoteOnEvent(tick=4, channel=0, data=[58, 129]),\n",
      "   midi.NoteOffEvent(tick=22, channel=0, data=[59, 0]),\n",
      "   midi.NoteOffEvent(tick=1, channel=0, data=[17, 0]),\n",
      "   midi.NoteOffEvent(tick=22, channel=0, data=[0, 0]),\n",
      "   midi.NoteOffEvent(tick=36, channel=0, data=[18, 0]),\n",
      "   midi.NoteOffEvent(tick=24, channel=0, data=[19, 0]),\n",
      "   midi.NoteOnEvent(tick=32, channel=0, data=[124, 86]),\n",
      "   midi.NoteOffEvent(tick=19, channel=0, data=[41, 0]),\n",
      "   midi.NoteOffEvent(tick=0, channel=0, data=[67, 0]),\n",
      "   midi.NoteOffEvent(tick=6, channel=0, data=[96, 0]),\n",
      "   midi.NoteOnEvent(tick=19, channel=0, data=[26, 19]),\n",
      "   midi.NoteOffEvent(tick=36, channel=0, data=[82, 0]),\n",
      "   midi.NoteOffEvent(tick=1, channel=0, data=[65, 0]),\n",
      "   midi.NoteOnEvent(tick=14, channel=0, data=[93, 18]),\n",
      "   midi.NoteOffEvent(tick=5, channel=0, data=[77, 0]),\n",
      "   midi.NoteOffEvent(tick=31, channel=0, data=[26, 0]),\n",
      "   midi.NoteOnEvent(tick=19, channel=0, data=[44, 99]),\n",
      "   midi.NoteOnEvent(tick=18, channel=0, data=[21, 176]),\n",
      "   midi.NoteOnEvent(tick=7, channel=0, data=[20, 105]),\n",
      "   midi.NoteOnEvent(tick=1, channel=0, data=[33, 125]),\n",
      "   midi.NoteOnEvent(tick=3, channel=0, data=[33, 112]),\n",
      "   midi.NoteOffEvent(tick=6, channel=0, data=[112, 0]),\n",
      "   midi.NoteOnEvent(tick=17, channel=0, data=[101, 172]),\n",
      "   midi.NoteOffEvent(tick=5, channel=0, data=[20, 0]),\n",
      "   midi.NoteOffEvent(tick=0, channel=0, data=[87, 0]),\n",
      "   midi.NoteOffEvent(tick=29, channel=0, data=[14, 0]),\n",
      "   midi.NoteOffEvent(tick=2, channel=0, data=[124, 0]),\n",
      "   midi.NoteOffEvent(tick=35, channel=0, data=[4, 0]),\n",
      "   midi.NoteOffEvent(tick=0, channel=0, data=[111, 0]),\n",
      "   midi.NoteOffEvent(tick=4, channel=0, data=[12, 0]),\n",
      "   midi.NoteOffEvent(tick=45, channel=0, data=[84, 0]),\n",
      "   midi.NoteOffEvent(tick=15, channel=0, data=[36, 0]),\n",
      "   midi.NoteOffEvent(tick=2, channel=0, data=[33, 0]),\n",
      "   midi.NoteOffEvent(tick=20, channel=0, data=[25, 0]),\n",
      "   midi.NoteOffEvent(tick=2, channel=0, data=[44, 0]),\n",
      "   midi.NoteOffEvent(tick=4, channel=0, data=[13, 0]),\n",
      "   midi.NoteOffEvent(tick=14, channel=0, data=[107, 0]),\n",
      "   midi.NoteOffEvent(tick=13, channel=0, data=[104, 0]),\n",
      "   midi.NoteOffEvent(tick=22, channel=0, data=[15, 0]),\n",
      "   midi.NoteOffEvent(tick=4, channel=0, data=[55, 0]),\n",
      "   midi.NoteOffEvent(tick=4, channel=0, data=[58, 0]),\n",
      "   midi.NoteOffEvent(tick=39, channel=0, data=[93, 0]),\n",
      "   midi.NoteOffEvent(tick=60, channel=0, data=[125, 0]),\n",
      "   midi.NoteOffEvent(tick=29, channel=0, data=[70, 0]),\n",
      "   midi.NoteOffEvent(tick=7, channel=0, data=[101, 0]),\n",
      "   midi.NoteOffEvent(tick=73, channel=0, data=[126, 0]),\n",
      "   midi.NoteOffEvent(tick=1, channel=0, data=[16, 0]),\n",
      "   midi.NoteOffEvent(tick=73, channel=0, data=[117, 0]),\n",
      "   midi.NoteOffEvent(tick=444, channel=0, data=[21, 0]),\n",
      "   midi.EndOfTrackEvent(tick=0, data=[])]),\n",
      " midi.Track(\\\n",
      "  [midi.SetTempoEvent(tick=0, data=[8, 227, 124]),\n",
      "   midi.ProgramChangeEvent(tick=0, channel=0, data=[41]),\n",
      "   midi.NoteOnEvent(tick=8, channel=0, data=[3, 106]),\n",
      "   midi.NoteOnEvent(tick=6, channel=0, data=[100, 139]),\n",
      "   midi.NoteOnEvent(tick=4, channel=0, data=[120, 206]),\n",
      "   midi.NoteOnEvent(tick=32, channel=0, data=[11, 79]),\n",
      "   midi.NoteOnEvent(tick=44, channel=0, data=[91, 33]),\n",
      "   midi.NoteOnEvent(tick=30, channel=0, data=[4, 201]),\n",
      "   midi.NoteOnEvent(tick=0, channel=0, data=[16, 19]),\n",
      "   midi.NoteOnEvent(tick=8, channel=0, data=[107, 33]),\n",
      "   midi.NoteOnEvent(tick=11, channel=0, data=[100, 27]),\n",
      "   midi.NoteOnEvent(tick=33, channel=0, data=[32, 118]),\n",
      "   midi.NoteOnEvent(tick=3, channel=0, data=[59, 9]),\n",
      "   midi.NoteOffEvent(tick=24, channel=0, data=[3, 0]),\n",
      "   midi.NoteOnEvent(tick=15, channel=0, data=[45, 121]),\n",
      "   midi.NoteOnEvent(tick=8, channel=0, data=[84, 70]),\n",
      "   midi.NoteOnEvent(tick=10, channel=0, data=[70, 133]),\n",
      "   midi.NoteOnEvent(tick=18, channel=0, data=[41, 34]),\n",
      "   midi.NoteOnEvent(tick=3, channel=0, data=[118, 4]),\n",
      "   midi.NoteOffEvent(tick=9, channel=0, data=[107, 0]),\n",
      "   midi.NoteOnEvent(tick=10, channel=0, data=[17, 224]),\n",
      "   midi.NoteOnEvent(tick=13, channel=0, data=[34, 91]),\n",
      "   midi.NoteOffEvent(tick=5, channel=0, data=[59, 0]),\n",
      "   midi.NoteOnEvent(tick=5, channel=0, data=[72, 215]),\n",
      "   midi.NoteOffEvent(tick=7, channel=0, data=[34, 0]),\n",
      "   midi.NoteOnEvent(tick=26, channel=0, data=[43, 210]),\n",
      "   midi.NoteOnEvent(tick=14, channel=0, data=[103, 251]),\n",
      "   midi.NoteOnEvent(tick=7, channel=0, data=[54, 181]),\n",
      "   midi.NoteOnEvent(tick=4, channel=0, data=[112, 94]),\n",
      "   midi.NoteOnEvent(tick=17, channel=0, data=[15, 189]),\n",
      "   midi.NoteOnEvent(tick=16, channel=0, data=[82, 59]),\n",
      "   midi.NoteOffEvent(tick=8, channel=0, data=[15, 0]),\n",
      "   midi.NoteOnEvent(tick=2, channel=0, data=[8, 20]),\n",
      "   midi.NoteOnEvent(tick=75, channel=0, data=[112, 115]),\n",
      "   midi.NoteOffEvent(tick=15, channel=0, data=[43, 0]),\n",
      "   midi.NoteOffEvent(tick=9, channel=0, data=[17, 0]),\n",
      "   midi.NoteOnEvent(tick=20, channel=0, data=[65, 91]),\n",
      "   midi.NoteOffEvent(tick=2, channel=0, data=[118, 0]),\n",
      "   midi.NoteOffEvent(tick=1, channel=0, data=[8, 0]),\n",
      "   midi.NoteOnEvent(tick=9, channel=0, data=[16, 182]),\n",
      "   midi.NoteOffEvent(tick=3, channel=0, data=[32, 0]),\n",
      "   midi.NoteOnEvent(tick=21, channel=0, data=[98, 34]),\n",
      "   midi.NoteOnEvent(tick=2, channel=0, data=[56, 111]),\n",
      "   midi.NoteOffEvent(tick=7, channel=0, data=[56, 0]),\n",
      "   midi.NoteOnEvent(tick=8, channel=0, data=[40, 64]),\n",
      "   midi.NoteOnEvent(tick=19, channel=0, data=[96, 166]),\n",
      "   midi.NoteOnEvent(tick=4, channel=0, data=[12, 154]),\n",
      "   midi.NoteOnEvent(tick=8, channel=0, data=[114, 69]),\n",
      "   midi.NoteOnEvent(tick=2, channel=0, data=[47, 34]),\n",
      "   midi.NoteOnEvent(tick=14, channel=0, data=[28, 175]),\n",
      "   midi.NoteOnEvent(tick=11, channel=0, data=[10, 138]),\n",
      "   midi.NoteOnEvent(tick=8, channel=0, data=[65, 108]),\n",
      "   midi.NoteOnEvent(tick=5, channel=0, data=[97, 134]),\n",
      "   midi.NoteOnEvent(tick=18, channel=0, data=[68, 28]),\n",
      "   midi.NoteOnEvent(tick=4, channel=0, data=[115, 250]),\n",
      "   midi.NoteOnEvent(tick=15, channel=0, data=[53, 122]),\n",
      "   midi.NoteOnEvent(tick=4, channel=0, data=[67, 130]),\n",
      "   midi.NoteOnEvent(tick=13, channel=0, data=[120, 84]),\n",
      "   midi.NoteOnEvent(tick=8, channel=0, data=[87, 130]),\n",
      "   midi.NoteOnEvent(tick=0, channel=0, data=[112, 179]),\n",
      "   midi.NoteOnEvent(tick=6, channel=0, data=[40, 166]),\n",
      "   midi.NoteOffEvent(tick=14, channel=0, data=[87, 0]),\n",
      "   midi.NoteOffEvent(tick=0, channel=0, data=[96, 0]),\n",
      "   midi.NoteOffEvent(tick=30, channel=0, data=[53, 0]),\n",
      "   midi.NoteOnEvent(tick=4, channel=0, data=[1, 176]),\n",
      "   midi.NoteOnEvent(tick=13, channel=0, data=[41, 114]),\n",
      "   midi.NoteOffEvent(tick=1, channel=0, data=[112, 0]),\n",
      "   midi.NoteOffEvent(tick=1, channel=0, data=[91, 0]),\n",
      "   midi.NoteOffEvent(tick=14, channel=0, data=[100, 0]),\n",
      "   midi.NoteOnEvent(tick=8, channel=0, data=[0, 194]),\n",
      "   midi.NoteOnEvent(tick=23, channel=0, data=[124, 215]),\n",
      "   midi.NoteOffEvent(tick=11, channel=0, data=[4, 0]),\n",
      "   midi.NoteOffEvent(tick=7, channel=0, data=[45, 0]),\n",
      "   midi.NoteOffEvent(tick=6, channel=0, data=[82, 0]),\n",
      "   midi.NoteOffEvent(tick=1, channel=0, data=[98, 0]),\n",
      "   midi.NoteOnEvent(tick=10, channel=0, data=[88, 195]),\n",
      "   midi.NoteOffEvent(tick=6, channel=0, data=[11, 0]),\n",
      "   midi.NoteOnEvent(tick=16, channel=0, data=[85, 6]),\n",
      "   midi.NoteOnEvent(tick=49, channel=0, data=[31, 153]),\n",
      "   midi.NoteOffEvent(tick=1, channel=0, data=[103, 0]),\n",
      "   midi.NoteOnEvent(tick=12, channel=0, data=[98, 216]),\n",
      "   midi.NoteOnEvent(tick=0, channel=0, data=[27, 154]),\n",
      "   midi.NoteOnEvent(tick=1, channel=0, data=[117, 253]),\n",
      "   midi.NoteOnEvent(tick=10, channel=0, data=[120, 220]),\n",
      "   midi.NoteOnEvent(tick=9, channel=0, data=[92, 26]),\n",
      "   midi.NoteOnEvent(tick=40, channel=0, data=[102, 47]),\n",
      "   midi.NoteOffEvent(tick=75, channel=0, data=[0, 0]),\n",
      "   midi.NoteOffEvent(tick=8, channel=0, data=[27, 0]),\n",
      "   midi.NoteOffEvent(tick=1, channel=0, data=[114, 0]),\n",
      "   midi.NoteOffEvent(tick=33, channel=0, data=[84, 0]),\n",
      "   midi.NoteOffEvent(tick=8, channel=0, data=[41, 0]),\n",
      "   midi.NoteOffEvent(tick=14, channel=0, data=[72, 0]),\n",
      "   midi.NoteOffEvent(tick=12, channel=0, data=[54, 0]),\n",
      "   midi.NoteOffEvent(tick=55, channel=0, data=[65, 0]),\n",
      "   midi.NoteOffEvent(tick=6, channel=0, data=[102, 0]),\n",
      "   midi.NoteOffEvent(tick=1, channel=0, data=[97, 0]),\n",
      "   midi.NoteOffEvent(tick=11, channel=0, data=[70, 0]),\n",
      "   midi.NoteOffEvent(tick=18, channel=0, data=[120, 0]),\n",
      "   midi.NoteOffEvent(tick=8, channel=0, data=[16, 0]),\n",
      "   midi.NoteOffEvent(tick=65, channel=0, data=[28, 0]),\n",
      "   midi.NoteOffEvent(tick=15, channel=0, data=[85, 0]),\n",
      "   midi.NoteOffEvent(tick=15, channel=0, data=[68, 0]),\n",
      "   midi.NoteOffEvent(tick=15, channel=0, data=[47, 0]),\n",
      "   midi.NoteOffEvent(tick=34, channel=0, data=[115, 0]),\n",
      "   midi.NoteOffEvent(tick=20, channel=0, data=[67, 0]),\n",
      "   midi.NoteOffEvent(tick=1, channel=0, data=[12, 0]),\n",
      "   midi.NoteOffEvent(tick=65, channel=0, data=[10, 0]),\n",
      "   midi.NoteOffEvent(tick=44, channel=0, data=[98, 0]),\n",
      "   midi.NoteOffEvent(tick=18, channel=0, data=[40, 0]),\n",
      "   midi.NoteOffEvent(tick=11, channel=0, data=[92, 0]),\n",
      "   midi.NoteOffEvent(tick=52, channel=0, data=[1, 0]),\n",
      "   midi.NoteOffEvent(tick=7, channel=0, data=[88, 0]),\n",
      "   midi.NoteOffEvent(tick=33, channel=0, data=[31, 0]),\n",
      "   midi.NoteOffEvent(tick=146, channel=0, data=[117, 0]),\n",
      "   midi.NoteOffEvent(tick=8, channel=0, data=[124, 0]),\n",
      "   midi.EndOfTrackEvent(tick=0, data=[])]),\n",
      " midi.Track(\\\n",
      "  [midi.SetTempoEvent(tick=0, data=[8, 227, 124]),\n",
      "   midi.ProgramChangeEvent(tick=0, channel=0, data=[42]),\n",
      "   midi.NoteOnEvent(tick=13, channel=0, data=[85, 12]),\n",
      "   midi.NoteOnEvent(tick=1, channel=0, data=[105, 63]),\n",
      "   midi.NoteOnEvent(tick=14, channel=0, data=[51, 55]),\n",
      "   midi.NoteOnEvent(tick=2, channel=0, data=[124, 255]),\n",
      "   midi.NoteOnEvent(tick=0, channel=0, data=[72, 44]),\n",
      "   midi.NoteOnEvent(tick=12, channel=0, data=[18, 147]),\n",
      "   midi.NoteOnEvent(tick=5, channel=0, data=[24, 189]),\n",
      "   midi.NoteOnEvent(tick=76, channel=0, data=[87, 122]),\n",
      "   midi.NoteOnEvent(tick=3, channel=0, data=[62, 166]),\n",
      "   midi.NoteOnEvent(tick=4, channel=0, data=[62, 227]),\n",
      "   midi.NoteOnEvent(tick=8, channel=0, data=[78, 247]),\n",
      "   midi.NoteOffEvent(tick=8, channel=0, data=[18, 0]),\n",
      "   midi.NoteOnEvent(tick=20, channel=0, data=[71, 84]),\n",
      "   midi.NoteOnEvent(tick=20, channel=0, data=[50, 209]),\n",
      "   midi.NoteOnEvent(tick=19, channel=0, data=[80, 156]),\n",
      "   midi.NoteOnEvent(tick=12, channel=0, data=[68, 52]),\n",
      "   midi.NoteOnEvent(tick=0, channel=0, data=[44, 217]),\n",
      "   midi.NoteOnEvent(tick=5, channel=0, data=[19, 33]),\n",
      "   midi.NoteOnEvent(tick=4, channel=0, data=[13, 92]),\n",
      "   midi.NoteOnEvent(tick=25, channel=0, data=[13, 112]),\n",
      "   midi.NoteOnEvent(tick=3, channel=0, data=[33, 134]),\n",
      "   midi.NoteOffEvent(tick=45, channel=0, data=[85, 0]),\n",
      "   midi.NoteOnEvent(tick=10, channel=0, data=[110, 63]),\n",
      "   midi.NoteOnEvent(tick=0, channel=0, data=[125, 163]),\n",
      "   midi.NoteOffEvent(tick=8, channel=0, data=[72, 0]),\n",
      "   midi.NoteOnEvent(tick=4, channel=0, data=[9, 18]),\n",
      "   midi.NoteOnEvent(tick=11, channel=0, data=[63, 136]),\n",
      "   midi.NoteOffEvent(tick=6, channel=0, data=[44, 0]),\n",
      "   midi.NoteOnEvent(tick=7, channel=0, data=[20, 12]),\n",
      "   midi.NoteOnEvent(tick=51, channel=0, data=[114, 251]),\n",
      "   midi.NoteOffEvent(tick=5, channel=0, data=[51, 0]),\n",
      "   midi.NoteOnEvent(tick=24, channel=0, data=[59, 139]),\n",
      "   midi.NoteOffEvent(tick=20, channel=0, data=[68, 0]),\n",
      "   midi.NoteOnEvent(tick=28, channel=0, data=[4, 55]),\n",
      "   midi.NoteOnEvent(tick=10, channel=0, data=[89, 40]),\n",
      "   midi.NoteOffEvent(tick=9, channel=0, data=[78, 0]),\n",
      "   midi.NoteOnEvent(tick=1, channel=0, data=[95, 43]),\n",
      "   midi.NoteOnEvent(tick=17, channel=0, data=[90, 232]),\n",
      "   midi.NoteOnEvent(tick=9, channel=0, data=[60, 104]),\n",
      "   midi.NoteOnEvent(tick=16, channel=0, data=[21, 243]),\n",
      "   midi.NoteOnEvent(tick=21, channel=0, data=[86, 253]),\n",
      "   midi.NoteOnEvent(tick=2, channel=0, data=[60, 157]),\n",
      "   midi.NoteOnEvent(tick=2, channel=0, data=[68, 155]),\n",
      "   midi.NoteOnEvent(tick=1, channel=0, data=[69, 45]),\n",
      "   midi.NoteOnEvent(tick=0, channel=0, data=[121, 23]),\n",
      "   midi.NoteOnEvent(tick=10, channel=0, data=[120, 7]),\n",
      "   midi.NoteOnEvent(tick=0, channel=0, data=[98, 225]),\n",
      "   midi.NoteOnEvent(tick=39, channel=0, data=[6, 31]),\n",
      "   midi.NoteOffEvent(tick=11, channel=0, data=[63, 0]),\n",
      "   midi.NoteOnEvent(tick=5, channel=0, data=[9, 110]),\n",
      "   midi.NoteOffEvent(tick=1, channel=0, data=[62, 0]),\n",
      "   midi.NoteOffEvent(tick=4, channel=0, data=[87, 0]),\n",
      "   midi.NoteOffEvent(tick=3, channel=0, data=[124, 0]),\n",
      "   midi.NoteOffEvent(tick=10, channel=0, data=[19, 0]),\n",
      "   midi.NoteOffEvent(tick=16, channel=0, data=[89, 0]),\n",
      "   midi.NoteOffEvent(tick=21, channel=0, data=[71, 0]),\n",
      "   midi.NoteOnEvent(tick=11, channel=0, data=[103, 99]),\n",
      "   midi.NoteOnEvent(tick=2, channel=0, data=[49, 182]),\n",
      "   midi.NoteOffEvent(tick=15, channel=0, data=[90, 0]),\n",
      "   midi.NoteOnEvent(tick=4, channel=0, data=[29, 46]),\n",
      "   midi.NoteOnEvent(tick=6, channel=0, data=[55, 17]),\n",
      "   midi.NoteOffEvent(tick=5, channel=0, data=[103, 0]),\n",
      "   midi.NoteOnEvent(tick=9, channel=0, data=[76, 141]),\n",
      "   midi.NoteOffEvent(tick=4, channel=0, data=[60, 0]),\n",
      "   midi.NoteOffEvent(tick=3, channel=0, data=[68, 0]),\n",
      "   midi.NoteOnEvent(tick=39, channel=0, data=[61, 26]),\n",
      "   midi.NoteOffEvent(tick=11, channel=0, data=[6, 0]),\n",
      "   midi.NoteOnEvent(tick=1, channel=0, data=[22, 127]),\n",
      "   midi.NoteOffEvent(tick=7, channel=0, data=[105, 0]),\n",
      "   midi.NoteOffEvent(tick=16, channel=0, data=[21, 0]),\n",
      "   midi.NoteOffEvent(tick=0, channel=0, data=[125, 0]),\n",
      "   midi.NoteOffEvent(tick=3, channel=0, data=[24, 0]),\n",
      "   midi.NoteOnEvent(tick=1, channel=0, data=[124, 43]),\n",
      "   midi.NoteOffEvent(tick=1, channel=0, data=[22, 0]),\n",
      "   midi.NoteOnEvent(tick=39, channel=0, data=[85, 23]),\n",
      "   midi.NoteOnEvent(tick=5, channel=0, data=[49, 155]),\n",
      "   midi.NoteOffEvent(tick=1, channel=0, data=[13, 0]),\n",
      "   midi.NoteOnEvent(tick=8, channel=0, data=[55, 31]),\n",
      "   midi.NoteOnEvent(tick=8, channel=0, data=[74, 230]),\n",
      "   midi.NoteOffEvent(tick=3, channel=0, data=[4, 0]),\n",
      "   midi.NoteOnEvent(tick=4, channel=0, data=[111, 229]),\n",
      "   midi.NoteOffEvent(tick=30, channel=0, data=[55, 0]),\n",
      "   midi.NoteOnEvent(tick=4, channel=0, data=[124, 203]),\n",
      "   midi.NoteOnEvent(tick=0, channel=0, data=[63, 9]),\n",
      "   midi.NoteOnEvent(tick=21, channel=0, data=[107, 156]),\n",
      "   midi.NoteOnEvent(tick=18, channel=0, data=[12, 6]),\n",
      "   midi.NoteOnEvent(tick=0, channel=0, data=[26, 64]),\n",
      "   midi.NoteOnEvent(tick=9, channel=0, data=[127, 250]),\n",
      "   midi.NoteOnEvent(tick=1, channel=0, data=[69, 56]),\n",
      "   midi.NoteOffEvent(tick=18, channel=0, data=[111, 0]),\n",
      "   midi.NoteOnEvent(tick=4, channel=0, data=[65, 37]),\n",
      "   midi.NoteOffEvent(tick=1, channel=0, data=[80, 0]),\n",
      "   midi.NoteOffEvent(tick=14, channel=0, data=[20, 0]),\n",
      "   midi.NoteOffEvent(tick=11, channel=0, data=[63, 0]),\n",
      "   midi.NoteOffEvent(tick=15, channel=0, data=[33, 0]),\n",
      "   midi.NoteOffEvent(tick=90, channel=0, data=[98, 0]),\n",
      "   midi.NoteOffEvent(tick=9, channel=0, data=[50, 0]),\n",
      "   midi.NoteOffEvent(tick=62, channel=0, data=[120, 0]),\n",
      "   midi.NoteOffEvent(tick=26, channel=0, data=[121, 0]),\n",
      "   midi.NoteOffEvent(tick=41, channel=0, data=[59, 0]),\n",
      "   midi.NoteOffEvent(tick=25, channel=0, data=[110, 0]),\n",
      "   midi.NoteOffEvent(tick=18, channel=0, data=[114, 0]),\n",
      "   midi.NoteOffEvent(tick=57, channel=0, data=[61, 0]),\n",
      "   midi.NoteOffEvent(tick=13, channel=0, data=[29, 0]),\n",
      "   midi.NoteOffEvent(tick=9, channel=0, data=[127, 0]),\n",
      "   midi.NoteOffEvent(tick=7, channel=0, data=[86, 0]),\n",
      "   midi.NoteOffEvent(tick=4, channel=0, data=[26, 0]),\n",
      "   midi.NoteOffEvent(tick=4, channel=0, data=[95, 0]),\n",
      "   midi.NoteOffEvent(tick=9, channel=0, data=[74, 0]),\n",
      "   midi.NoteOffEvent(tick=1, channel=0, data=[12, 0]),\n",
      "   midi.NoteOffEvent(tick=6, channel=0, data=[49, 0]),\n",
      "   midi.NoteOffEvent(tick=28, channel=0, data=[69, 0]),\n",
      "   midi.NoteOffEvent(tick=25, channel=0, data=[65, 0]),\n",
      "   midi.NoteOffEvent(tick=12, channel=0, data=[9, 0]),\n",
      "   midi.NoteOffEvent(tick=31, channel=0, data=[76, 0]),\n",
      "   midi.NoteOffEvent(tick=68, channel=0, data=[107, 0]),\n",
      "   midi.NoteOffEvent(tick=35, channel=0, data=[85, 0]),\n",
      "   midi.NoteOffEvent(tick=231, channel=0, data=[124, 0]),\n",
      "   midi.EndOfTrackEvent(tick=0, data=[])]),\n",
      " midi.Track(\\\n",
      "  [midi.SetTempoEvent(tick=0, data=[8, 227, 124]),\n",
      "   midi.ProgramChangeEvent(tick=0, channel=0, data=[43]),\n",
      "   midi.NoteOnEvent(tick=14, channel=0, data=[82, 237]),\n",
      "   midi.NoteOnEvent(tick=18, channel=0, data=[5, 218]),\n",
      "   midi.NoteOnEvent(tick=3, channel=0, data=[17, 240]),\n",
      "   midi.NoteOnEvent(tick=12, channel=0, data=[26, 156]),\n",
      "   midi.NoteOnEvent(tick=7, channel=0, data=[96, 106]),\n",
      "   midi.NoteOnEvent(tick=9, channel=0, data=[25, 139]),\n",
      "   midi.NoteOnEvent(tick=20, channel=0, data=[89, 182]),\n",
      "   midi.NoteOnEvent(tick=36, channel=0, data=[8, 44]),\n",
      "   midi.NoteOnEvent(tick=11, channel=0, data=[84, 118]),\n",
      "   midi.NoteOnEvent(tick=2, channel=0, data=[66, 180]),\n",
      "   midi.NoteOnEvent(tick=13, channel=0, data=[27, 116]),\n",
      "   midi.NoteOnEvent(tick=18, channel=0, data=[86, 88]),\n",
      "   midi.NoteOnEvent(tick=3, channel=0, data=[52, 134]),\n",
      "   midi.NoteOnEvent(tick=20, channel=0, data=[16, 28]),\n",
      "   midi.NoteOnEvent(tick=4, channel=0, data=[112, 162]),\n",
      "   midi.NoteOffEvent(tick=1, channel=0, data=[86, 0]),\n",
      "   midi.NoteOnEvent(tick=1, channel=0, data=[87, 203]),\n",
      "   midi.NoteOnEvent(tick=30, channel=0, data=[46, 196]),\n",
      "   midi.NoteOffEvent(tick=2, channel=0, data=[46, 0]),\n",
      "   midi.NoteOnEvent(tick=8, channel=0, data=[23, 244]),\n",
      "   midi.NoteOnEvent(tick=3, channel=0, data=[114, 239]),\n",
      "   midi.NoteOnEvent(tick=6, channel=0, data=[22, 42]),\n",
      "   midi.NoteOnEvent(tick=13, channel=0, data=[117, 24]),\n",
      "   midi.NoteOnEvent(tick=7, channel=0, data=[17, 141]),\n",
      "   midi.NoteOffEvent(tick=16, channel=0, data=[26, 0]),\n",
      "   midi.NoteOnEvent(tick=3, channel=0, data=[37, 221]),\n",
      "   midi.NoteOnEvent(tick=18, channel=0, data=[73, 208]),\n",
      "   midi.NoteOffEvent(tick=2, channel=0, data=[87, 0]),\n",
      "   midi.NoteOnEvent(tick=3, channel=0, data=[85, 156]),\n",
      "   midi.NoteOffEvent(tick=14, channel=0, data=[27, 0]),\n",
      "   midi.NoteOnEvent(tick=1, channel=0, data=[68, 114]),\n",
      "   midi.NoteOnEvent(tick=12, channel=0, data=[62, 157]),\n",
      "   midi.NoteOnEvent(tick=0, channel=0, data=[80, 76]),\n",
      "   midi.NoteOnEvent(tick=15, channel=0, data=[63, 165]),\n",
      "   midi.NoteOnEvent(tick=3, channel=0, data=[16, 246]),\n",
      "   midi.NoteOnEvent(tick=6, channel=0, data=[6, 210]),\n",
      "   midi.NoteOnEvent(tick=17, channel=0, data=[35, 113]),\n",
      "   midi.NoteOffEvent(tick=23, channel=0, data=[63, 0]),\n",
      "   midi.NoteOnEvent(tick=4, channel=0, data=[7, 52]),\n",
      "   midi.NoteOnEvent(tick=29, channel=0, data=[22, 255]),\n",
      "   midi.NoteOffEvent(tick=13, channel=0, data=[73, 0]),\n",
      "   midi.NoteOffEvent(tick=6, channel=0, data=[35, 0]),\n",
      "   midi.NoteOnEvent(tick=27, channel=0, data=[12, 6]),\n",
      "   midi.NoteOnEvent(tick=14, channel=0, data=[101, 164]),\n",
      "   midi.NoteOffEvent(tick=9, channel=0, data=[114, 0]),\n",
      "   midi.NoteOffEvent(tick=8, channel=0, data=[23, 0]),\n",
      "   midi.NoteOnEvent(tick=1, channel=0, data=[51, 165]),\n",
      "   midi.NoteOffEvent(tick=18, channel=0, data=[17, 0]),\n",
      "   midi.NoteOnEvent(tick=7, channel=0, data=[87, 235]),\n",
      "   midi.NoteOffEvent(tick=6, channel=0, data=[96, 0]),\n",
      "   midi.NoteOffEvent(tick=4, channel=0, data=[84, 0]),\n",
      "   midi.NoteOffEvent(tick=5, channel=0, data=[25, 0]),\n",
      "   midi.NoteOnEvent(tick=1, channel=0, data=[36, 113]),\n",
      "   midi.NoteOnEvent(tick=1, channel=0, data=[56, 109]),\n",
      "   midi.NoteOnEvent(tick=0, channel=0, data=[20, 172]),\n",
      "   midi.NoteOffEvent(tick=20, channel=0, data=[112, 0]),\n",
      "   midi.NoteOnEvent(tick=1, channel=0, data=[107, 53]),\n",
      "   midi.NoteOnEvent(tick=22, channel=0, data=[64, 84]),\n",
      "   midi.NoteOnEvent(tick=6, channel=0, data=[39, 111]),\n",
      "   midi.NoteOnEvent(tick=14, channel=0, data=[62, 162]),\n",
      "   midi.NoteOffEvent(tick=3, channel=0, data=[52, 0]),\n",
      "   midi.NoteOnEvent(tick=1, channel=0, data=[97, 89]),\n",
      "   midi.NoteOnEvent(tick=0, channel=0, data=[27, 120]),\n",
      "   midi.NoteOffEvent(tick=9, channel=0, data=[68, 0]),\n",
      "   midi.NoteOnEvent(tick=2, channel=0, data=[68, 24]),\n",
      "   midi.NoteOffEvent(tick=33, channel=0, data=[27, 0]),\n",
      "   midi.NoteOnEvent(tick=8, channel=0, data=[43, 253]),\n",
      "   midi.NoteOffEvent(tick=16, channel=0, data=[68, 0]),\n",
      "   midi.NoteOffEvent(tick=5, channel=0, data=[66, 0]),\n",
      "   midi.NoteOnEvent(tick=17, channel=0, data=[92, 77]),\n",
      "   midi.NoteOnEvent(tick=7, channel=0, data=[50, 106]),\n",
      "   midi.NoteOffEvent(tick=18, channel=0, data=[6, 0]),\n",
      "   midi.NoteOnEvent(tick=6, channel=0, data=[12, 101]),\n",
      "   midi.NoteOffEvent(tick=16, channel=0, data=[89, 0]),\n",
      "   midi.NoteOnEvent(tick=12, channel=0, data=[17, 179]),\n",
      "   midi.NoteOffEvent(tick=15, channel=0, data=[117, 0]),\n",
      "   midi.NoteOffEvent(tick=6, channel=0, data=[7, 0]),\n",
      "   midi.NoteOffEvent(tick=34, channel=0, data=[39, 0]),\n",
      "   midi.NoteOffEvent(tick=10, channel=0, data=[22, 0]),\n",
      "   midi.NoteOffEvent(tick=2, channel=0, data=[64, 0]),\n",
      "   midi.NoteOffEvent(tick=13, channel=0, data=[43, 0]),\n",
      "   midi.NoteOffEvent(tick=14, channel=0, data=[85, 0]),\n",
      "   midi.NoteOffEvent(tick=10, channel=0, data=[82, 0]),\n",
      "   midi.NoteOnEvent(tick=5, channel=0, data=[85, 26]),\n",
      "   midi.NoteOnEvent(tick=4, channel=0, data=[120, 237]),\n",
      "   midi.NoteOffEvent(tick=15, channel=0, data=[97, 0]),\n",
      "   midi.NoteOffEvent(tick=16, channel=0, data=[8, 0]),\n",
      "   midi.NoteOffEvent(tick=1, channel=0, data=[5, 0]),\n",
      "   midi.NoteOnEvent(tick=31, channel=0, data=[53, 3]),\n",
      "   midi.NoteOnEvent(tick=0, channel=0, data=[31, 5]),\n",
      "   midi.NoteOnEvent(tick=22, channel=0, data=[112, 141]),\n",
      "   midi.NoteOnEvent(tick=4, channel=0, data=[7, 92]),\n",
      "   midi.NoteOffEvent(tick=14, channel=0, data=[12, 0]),\n",
      "   midi.NoteOnEvent(tick=8, channel=0, data=[94, 57]),\n",
      "   midi.NoteOffEvent(tick=18, channel=0, data=[87, 0]),\n",
      "   midi.NoteOffEvent(tick=58, channel=0, data=[20, 0]),\n",
      "   midi.NoteOffEvent(tick=0, channel=0, data=[51, 0]),\n",
      "   midi.NoteOffEvent(tick=7, channel=0, data=[101, 0]),\n",
      "   midi.NoteOffEvent(tick=54, channel=0, data=[120, 0]),\n",
      "   midi.NoteOffEvent(tick=4, channel=0, data=[7, 0]),\n",
      "   midi.NoteOffEvent(tick=59, channel=0, data=[53, 0]),\n",
      "   midi.NoteOffEvent(tick=13, channel=0, data=[37, 0]),\n",
      "   midi.NoteOffEvent(tick=24, channel=0, data=[17, 0]),\n",
      "   midi.NoteOffEvent(tick=48, channel=0, data=[16, 0]),\n",
      "   midi.NoteOffEvent(tick=16, channel=0, data=[36, 0]),\n",
      "   midi.NoteOffEvent(tick=17, channel=0, data=[62, 0]),\n",
      "   midi.NoteOffEvent(tick=9, channel=0, data=[50, 0]),\n",
      "   midi.NoteOffEvent(tick=9, channel=0, data=[80, 0]),\n",
      "   midi.NoteOffEvent(tick=46, channel=0, data=[85, 0]),\n",
      "   midi.NoteOffEvent(tick=105, channel=0, data=[56, 0]),\n",
      "   midi.NoteOffEvent(tick=3, channel=0, data=[107, 0]),\n",
      "   midi.NoteOffEvent(tick=10, channel=0, data=[31, 0]),\n",
      "   midi.NoteOffEvent(tick=102, channel=0, data=[92, 0]),\n",
      "   midi.NoteOffEvent(tick=96, channel=0, data=[112, 0]),\n",
      "   midi.NoteOffEvent(tick=140, channel=0, data=[94, 0]),\n",
      "   midi.EndOfTrackEvent(tick=0, data=[])]),\n",
      " midi.Track(\\\n",
      "  [midi.SetTempoEvent(tick=0, data=[8, 227, 124]),\n",
      "   midi.ProgramChangeEvent(tick=0, channel=0, data=[44]),\n",
      "   midi.NoteOnEvent(tick=63, channel=0, data=[14, 80]),\n",
      "   midi.NoteOnEvent(tick=6, channel=0, data=[49, 84]),\n",
      "   midi.NoteOnEvent(tick=0, channel=0, data=[54, 206]),\n",
      "   midi.NoteOnEvent(tick=30, channel=0, data=[54, 234]),\n",
      "   midi.NoteOnEvent(tick=3, channel=0, data=[59, 243]),\n",
      "   midi.NoteOnEvent(tick=10, channel=0, data=[33, 208]),\n",
      "   midi.NoteOnEvent(tick=10, channel=0, data=[21, 95]),\n",
      "   midi.NoteOnEvent(tick=8, channel=0, data=[12, 134]),\n",
      "   midi.NoteOnEvent(tick=2, channel=0, data=[26, 168]),\n",
      "   midi.NoteOnEvent(tick=2, channel=0, data=[82, 253]),\n",
      "   midi.NoteOnEvent(tick=3, channel=0, data=[29, 36]),\n",
      "   midi.NoteOnEvent(tick=0, channel=0, data=[21, 209]),\n",
      "   midi.NoteOffEvent(tick=35, channel=0, data=[54, 0]),\n",
      "   midi.NoteOnEvent(tick=7, channel=0, data=[18, 159]),\n",
      "   midi.NoteOnEvent(tick=11, channel=0, data=[71, 99]),\n",
      "   midi.NoteOnEvent(tick=4, channel=0, data=[11, 88]),\n",
      "   midi.NoteOnEvent(tick=9, channel=0, data=[117, 136]),\n",
      "   midi.NoteOnEvent(tick=0, channel=0, data=[61, 144]),\n",
      "   midi.NoteOffEvent(tick=1, channel=0, data=[26, 0]),\n",
      "   midi.NoteOffEvent(tick=20, channel=0, data=[12, 0]),\n",
      "   midi.NoteOffEvent(tick=11, channel=0, data=[14, 0]),\n",
      "   midi.NoteOnEvent(tick=2, channel=0, data=[23, 171]),\n",
      "   midi.NoteOnEvent(tick=3, channel=0, data=[127, 95]),\n",
      "   midi.NoteOnEvent(tick=0, channel=0, data=[82, 150]),\n",
      "   midi.NoteOnEvent(tick=36, channel=0, data=[91, 119]),\n",
      "   midi.NoteOffEvent(tick=4, channel=0, data=[71, 0]),\n",
      "   midi.NoteOffEvent(tick=6, channel=0, data=[23, 0]),\n",
      "   midi.NoteOnEvent(tick=7, channel=0, data=[96, 114]),\n",
      "   midi.NoteOnEvent(tick=0, channel=0, data=[123, 43]),\n",
      "   midi.NoteOffEvent(tick=9, channel=0, data=[82, 0]),\n",
      "   midi.NoteOnEvent(tick=6, channel=0, data=[17, 44]),\n",
      "   midi.NoteOnEvent(tick=5, channel=0, data=[78, 93]),\n",
      "   midi.NoteOnEvent(tick=5, channel=0, data=[8, 241]),\n",
      "   midi.NoteOnEvent(tick=17, channel=0, data=[119, 248]),\n",
      "   midi.NoteOffEvent(tick=11, channel=0, data=[119, 0]),\n",
      "   midi.NoteOnEvent(tick=11, channel=0, data=[122, 35]),\n",
      "   midi.NoteOnEvent(tick=14, channel=0, data=[122, 172]),\n",
      "   midi.NoteOffEvent(tick=3, channel=0, data=[117, 0]),\n",
      "   midi.NoteOnEvent(tick=9, channel=0, data=[48, 208]),\n",
      "   midi.NoteOnEvent(tick=7, channel=0, data=[48, 144]),\n",
      "   midi.NoteOffEvent(tick=2, channel=0, data=[8, 0]),\n",
      "   midi.NoteOnEvent(tick=10, channel=0, data=[48, 238]),\n",
      "   midi.NoteOnEvent(tick=23, channel=0, data=[55, 100]),\n",
      "   midi.NoteOnEvent(tick=2, channel=0, data=[124, 61]),\n",
      "   midi.NoteOnEvent(tick=11, channel=0, data=[79, 142]),\n",
      "   midi.NoteOnEvent(tick=2, channel=0, data=[72, 253]),\n",
      "   midi.NoteOnEvent(tick=1, channel=0, data=[20, 43]),\n",
      "   midi.NoteOnEvent(tick=16, channel=0, data=[37, 247]),\n",
      "   midi.NoteOffEvent(tick=2, channel=0, data=[37, 0]),\n",
      "   midi.NoteOnEvent(tick=14, channel=0, data=[16, 162]),\n",
      "   midi.NoteOffEvent(tick=44, channel=0, data=[55, 0]),\n",
      "   midi.NoteOffEvent(tick=5, channel=0, data=[48, 0]),\n",
      "   midi.NoteOnEvent(tick=0, channel=0, data=[120, 148]),\n",
      "   midi.NoteOffEvent(tick=1, channel=0, data=[49, 0]),\n",
      "   midi.NoteOnEvent(tick=12, channel=0, data=[60, 234]),\n",
      "   midi.NoteOnEvent(tick=0, channel=0, data=[88, 39]),\n",
      "   midi.NoteOnEvent(tick=11, channel=0, data=[116, 226]),\n",
      "   midi.NoteOnEvent(tick=11, channel=0, data=[28, 153]),\n",
      "   midi.NoteOffEvent(tick=32, channel=0, data=[61, 0]),\n",
      "   midi.NoteOnEvent(tick=2, channel=0, data=[7, 197]),\n",
      "   midi.NoteOffEvent(tick=4, channel=0, data=[120, 0]),\n",
      "   midi.NoteOffEvent(tick=31, channel=0, data=[20, 0]),\n",
      "   midi.NoteOnEvent(tick=13, channel=0, data=[66, 200]),\n",
      "   midi.NoteOnEvent(tick=4, channel=0, data=[25, 198]),\n",
      "   midi.NoteOnEvent(tick=19, channel=0, data=[9, 177]),\n",
      "   midi.NoteOffEvent(tick=1, channel=0, data=[18, 0]),\n",
      "   midi.NoteOnEvent(tick=22, channel=0, data=[4, 137]),\n",
      "   midi.NoteOffEvent(tick=1, channel=0, data=[17, 0]),\n",
      "   midi.NoteOnEvent(tick=4, channel=0, data=[102, 3]),\n",
      "   midi.NoteOnEvent(tick=3, channel=0, data=[96, 209]),\n",
      "   midi.NoteOffEvent(tick=23, channel=0, data=[96, 0]),\n",
      "   midi.NoteOffEvent(tick=5, channel=0, data=[33, 0]),\n",
      "   midi.NoteOnEvent(tick=12, channel=0, data=[75, 42]),\n",
      "   midi.NoteOnEvent(tick=3, channel=0, data=[79, 77]),\n",
      "   midi.NoteOffEvent(tick=16, channel=0, data=[102, 0]),\n",
      "   midi.NoteOnEvent(tick=7, channel=0, data=[97, 69]),\n",
      "   midi.NoteOnEvent(tick=5, channel=0, data=[115, 249]),\n",
      "   midi.NoteOffEvent(tick=12, channel=0, data=[11, 0]),\n",
      "   midi.NoteOnEvent(tick=10, channel=0, data=[8, 38]),\n",
      "   midi.NoteOnEvent(tick=5, channel=0, data=[51, 144]),\n",
      "   midi.NoteOnEvent(tick=5, channel=0, data=[46, 45]),\n",
      "   midi.NoteOnEvent(tick=5, channel=0, data=[82, 181]),\n",
      "   midi.NoteOnEvent(tick=17, channel=0, data=[13, 84]),\n",
      "   midi.NoteOnEvent(tick=7, channel=0, data=[36, 172]),\n",
      "   midi.NoteOffEvent(tick=36, channel=0, data=[8, 0]),\n",
      "   midi.NoteOffEvent(tick=13, channel=0, data=[78, 0]),\n",
      "   midi.NoteOnEvent(tick=3, channel=0, data=[57, 130]),\n",
      "   midi.NoteOffEvent(tick=14, channel=0, data=[21, 0]),\n",
      "   midi.NoteOffEvent(tick=9, channel=0, data=[16, 0]),\n",
      "   midi.NoteOnEvent(tick=7, channel=0, data=[118, 38]),\n",
      "   midi.NoteOffEvent(tick=1, channel=0, data=[123, 0]),\n",
      "   midi.NoteOffEvent(tick=6, channel=0, data=[82, 0]),\n",
      "   midi.NoteOffEvent(tick=12, channel=0, data=[4, 0]),\n",
      "   midi.NoteOnEvent(tick=5, channel=0, data=[2, 31]),\n",
      "   midi.NoteOnEvent(tick=1, channel=0, data=[106, 170]),\n",
      "   midi.NoteOffEvent(tick=4, channel=0, data=[91, 0]),\n",
      "   midi.NoteOnEvent(tick=3, channel=0, data=[52, 244]),\n",
      "   midi.NoteOnEvent(tick=10, channel=0, data=[117, 252]),\n",
      "   midi.NoteOnEvent(tick=13, channel=0, data=[71, 140]),\n",
      "   midi.NoteOnEvent(tick=3, channel=0, data=[42, 163]),\n",
      "   midi.NoteOnEvent(tick=4, channel=0, data=[4, 94]),\n",
      "   midi.NoteOnEvent(tick=23, channel=0, data=[0, 35]),\n",
      "   midi.NoteOffEvent(tick=12, channel=0, data=[127, 0]),\n",
      "   midi.NoteOffEvent(tick=8, channel=0, data=[106, 0]),\n",
      "   midi.NoteOffEvent(tick=8, channel=0, data=[29, 0]),\n",
      "   midi.NoteOffEvent(tick=21, channel=0, data=[4, 0]),\n",
      "   midi.NoteOffEvent(tick=5, channel=0, data=[59, 0]),\n",
      "   midi.NoteOffEvent(tick=36, channel=0, data=[97, 0]),\n",
      "   midi.NoteOffEvent(tick=19, channel=0, data=[118, 0]),\n",
      "   midi.NoteOffEvent(tick=7, channel=0, data=[79, 0]),\n",
      "   midi.NoteOffEvent(tick=9, channel=0, data=[71, 0]),\n",
      "   midi.NoteOffEvent(tick=31, channel=0, data=[116, 0]),\n",
      "   midi.NoteOffEvent(tick=5, channel=0, data=[124, 0]),\n",
      "   midi.NoteOffEvent(tick=13, channel=0, data=[25, 0]),\n",
      "   midi.NoteOffEvent(tick=12, channel=0, data=[2, 0]),\n",
      "   midi.NoteOffEvent(tick=24, channel=0, data=[60, 0]),\n",
      "   midi.NoteOffEvent(tick=8, channel=0, data=[28, 0]),\n",
      "   midi.NoteOffEvent(tick=71, channel=0, data=[88, 0]),\n",
      "   midi.NoteOffEvent(tick=14, channel=0, data=[117, 0]),\n",
      "   midi.NoteOffEvent(tick=5, channel=0, data=[36, 0]),\n",
      "   midi.NoteOffEvent(tick=17, channel=0, data=[115, 0]),\n",
      "   midi.NoteOffEvent(tick=36, channel=0, data=[7, 0]),\n",
      "   midi.NoteOffEvent(tick=11, channel=0, data=[72, 0]),\n",
      "   midi.NoteOffEvent(tick=4, channel=0, data=[122, 0]),\n",
      "   midi.NoteOffEvent(tick=64, channel=0, data=[66, 0]),\n",
      "   midi.NoteOffEvent(tick=146, channel=0, data=[46, 0]),\n",
      "   midi.NoteOffEvent(tick=11, channel=0, data=[9, 0]),\n",
      "   midi.NoteOffEvent(tick=45, channel=0, data=[57, 0]),\n",
      "   midi.NoteOffEvent(tick=27, channel=0, data=[75, 0]),\n",
      "   midi.NoteOffEvent(tick=41, channel=0, data=[13, 0]),\n",
      "   midi.NoteOffEvent(tick=27, channel=0, data=[42, 0]),\n",
      "   midi.NoteOffEvent(tick=47, channel=0, data=[51, 0]),\n",
      "   midi.NoteOffEvent(tick=71, channel=0, data=[52, 0]),\n",
      "   midi.NoteOffEvent(tick=55, channel=0, data=[0, 0]),\n",
      "   midi.EndOfTrackEvent(tick=0, data=[])]),\n",
      " midi.Track(\\\n",
      "  [midi.SetTempoEvent(tick=0, data=[8, 227, 124]),\n",
      "   midi.ProgramChangeEvent(tick=0, channel=0, data=[45]),\n",
      "   midi.NoteOnEvent(tick=3, channel=0, data=[70, 61]),\n",
      "   midi.NoteOnEvent(tick=3, channel=0, data=[45, 82]),\n",
      "   midi.NoteOnEvent(tick=57, channel=0, data=[30, 59]),\n",
      "   midi.NoteOnEvent(tick=41, channel=0, data=[47, 14]),\n",
      "   midi.NoteOnEvent(tick=8, channel=0, data=[30, 185]),\n",
      "   midi.NoteOnEvent(tick=9, channel=0, data=[69, 237]),\n",
      "   midi.NoteOnEvent(tick=0, channel=0, data=[82, 240]),\n",
      "   midi.NoteOnEvent(tick=5, channel=0, data=[62, 181]),\n",
      "   midi.NoteOnEvent(tick=11, channel=0, data=[31, 125]),\n",
      "   midi.NoteOnEvent(tick=5, channel=0, data=[86, 37]),\n",
      "   midi.NoteOnEvent(tick=41, channel=0, data=[41, 101]),\n",
      "   midi.NoteOnEvent(tick=11, channel=0, data=[67, 236]),\n",
      "   midi.NoteOnEvent(tick=23, channel=0, data=[34, 23]),\n",
      "   midi.NoteOnEvent(tick=9, channel=0, data=[40, 52]),\n",
      "   midi.NoteOffEvent(tick=5, channel=0, data=[70, 0]),\n",
      "   midi.NoteOnEvent(tick=4, channel=0, data=[19, 215]),\n",
      "   midi.NoteOnEvent(tick=21, channel=0, data=[124, 140]),\n",
      "   midi.NoteOnEvent(tick=3, channel=0, data=[44, 9]),\n",
      "   midi.NoteOffEvent(tick=1, channel=0, data=[82, 0]),\n",
      "   midi.NoteOnEvent(tick=9, channel=0, data=[90, 223]),\n",
      "   midi.NoteOffEvent(tick=32, channel=0, data=[41, 0]),\n",
      "   midi.NoteOnEvent(tick=2, channel=0, data=[22, 115]),\n",
      "   midi.NoteOffEvent(tick=3, channel=0, data=[40, 0]),\n",
      "   midi.NoteOnEvent(tick=3, channel=0, data=[16, 203]),\n",
      "   midi.NoteOffEvent(tick=10, channel=0, data=[16, 0]),\n",
      "   midi.NoteOffEvent(tick=10, channel=0, data=[31, 0]),\n",
      "   midi.NoteOnEvent(tick=24, channel=0, data=[122, 156]),\n",
      "   midi.NoteOnEvent(tick=53, channel=0, data=[27, 36]),\n",
      "   midi.NoteOnEvent(tick=10, channel=0, data=[4, 75]),\n",
      "   midi.NoteOnEvent(tick=22, channel=0, data=[123, 37]),\n",
      "   midi.NoteOffEvent(tick=23, channel=0, data=[44, 0]),\n",
      "   midi.NoteOnEvent(tick=14, channel=0, data=[46, 108]),\n",
      "   midi.NoteOnEvent(tick=1, channel=0, data=[46, 187]),\n",
      "   midi.NoteOnEvent(tick=0, channel=0, data=[66, 7]),\n",
      "   midi.NoteOnEvent(tick=0, channel=0, data=[6, 108]),\n",
      "   midi.NoteOffEvent(tick=49, channel=0, data=[124, 0]),\n",
      "   midi.NoteOnEvent(tick=22, channel=0, data=[65, 58]),\n",
      "   midi.NoteOnEvent(tick=28, channel=0, data=[92, 115]),\n",
      "   midi.NoteOffEvent(tick=6, channel=0, data=[47, 0]),\n",
      "   midi.NoteOffEvent(tick=3, channel=0, data=[65, 0]),\n",
      "   midi.NoteOffEvent(tick=4, channel=0, data=[6, 0]),\n",
      "   midi.NoteOnEvent(tick=5, channel=0, data=[9, 47]),\n",
      "   midi.NoteOffEvent(tick=15, channel=0, data=[9, 0]),\n",
      "   midi.NoteOffEvent(tick=4, channel=0, data=[34, 0]),\n",
      "   midi.NoteOnEvent(tick=4, channel=0, data=[124, 172]),\n",
      "   midi.NoteOnEvent(tick=10, channel=0, data=[23, 175]),\n",
      "   midi.NoteOnEvent(tick=43, channel=0, data=[5, 123]),\n",
      "   midi.NoteOnEvent(tick=0, channel=0, data=[51, 254]),\n",
      "   midi.NoteOnEvent(tick=2, channel=0, data=[24, 184]),\n",
      "   midi.NoteOnEvent(tick=34, channel=0, data=[37, 146]),\n",
      "   midi.NoteOffEvent(tick=18, channel=0, data=[66, 0]),\n",
      "   midi.NoteOnEvent(tick=10, channel=0, data=[21, 248]),\n",
      "   midi.NoteOnEvent(tick=4, channel=0, data=[108, 249]),\n",
      "   midi.NoteOnEvent(tick=2, channel=0, data=[62, 20]),\n",
      "   midi.NoteOffEvent(tick=5, channel=0, data=[45, 0]),\n",
      "   midi.NoteOffEvent(tick=13, channel=0, data=[51, 0]),\n",
      "   midi.NoteOffEvent(tick=1, channel=0, data=[86, 0]),\n",
      "   midi.NoteOffEvent(tick=9, channel=0, data=[30, 0]),\n",
      "   midi.NoteOffEvent(tick=4, channel=0, data=[4, 0]),\n",
      "   midi.NoteOnEvent(tick=6, channel=0, data=[108, 125]),\n",
      "   midi.NoteOffEvent(tick=66, channel=0, data=[22, 0]),\n",
      "   midi.NoteOnEvent(tick=1, channel=0, data=[15, 164]),\n",
      "   midi.NoteOffEvent(tick=15, channel=0, data=[27, 0]),\n",
      "   midi.NoteOnEvent(tick=54, channel=0, data=[8, 175]),\n",
      "   midi.NoteOffEvent(tick=2, channel=0, data=[123, 0]),\n",
      "   midi.NoteOffEvent(tick=9, channel=0, data=[62, 0]),\n",
      "   midi.NoteOnEvent(tick=5, channel=0, data=[23, 170]),\n",
      "   midi.NoteOffEvent(tick=11, channel=0, data=[122, 0]),\n",
      "   midi.NoteOnEvent(tick=6, channel=0, data=[91, 234]),\n",
      "   midi.NoteOnEvent(tick=14, channel=0, data=[101, 138]),\n",
      "   midi.NoteOnEvent(tick=1, channel=0, data=[24, 128]),\n",
      "   midi.NoteOnEvent(tick=8, channel=0, data=[29, 209]),\n",
      "   midi.NoteOffEvent(tick=23, channel=0, data=[23, 0]),\n",
      "   midi.NoteOffEvent(tick=4, channel=0, data=[37, 0]),\n",
      "   midi.NoteOnEvent(tick=2, channel=0, data=[117, 236]),\n",
      "   midi.NoteOffEvent(tick=22, channel=0, data=[69, 0]),\n",
      "   midi.NoteOffEvent(tick=14, channel=0, data=[108, 0]),\n",
      "   midi.NoteOffEvent(tick=28, channel=0, data=[90, 0]),\n",
      "   midi.NoteOffEvent(tick=6, channel=0, data=[67, 0]),\n",
      "   midi.NoteOffEvent(tick=142, channel=0, data=[29, 0]),\n",
      "   midi.NoteOffEvent(tick=15, channel=0, data=[19, 0]),\n",
      "   midi.NoteOffEvent(tick=45, channel=0, data=[15, 0]),\n",
      "   midi.NoteOffEvent(tick=44, channel=0, data=[46, 0]),\n",
      "   midi.NoteOffEvent(tick=32, channel=0, data=[21, 0]),\n",
      "   midi.NoteOffEvent(tick=6, channel=0, data=[8, 0]),\n",
      "   midi.NoteOffEvent(tick=92, channel=0, data=[101, 0]),\n",
      "   midi.NoteOffEvent(tick=1, channel=0, data=[124, 0]),\n",
      "   midi.NoteOffEvent(tick=70, channel=0, data=[5, 0]),\n",
      "   midi.NoteOffEvent(tick=15, channel=0, data=[92, 0]),\n",
      "   midi.NoteOffEvent(tick=12, channel=0, data=[117, 0]),\n",
      "   midi.NoteOffEvent(tick=336, channel=0, data=[91, 0]),\n",
      "   midi.NoteOffEvent(tick=17, channel=0, data=[24, 0]),\n",
      "   midi.EndOfTrackEvent(tick=0, data=[])]),\n",
      " midi.Track(\\\n",
      "  [midi.SetTempoEvent(tick=0, data=[8, 227, 124]),\n",
      "   midi.ProgramChangeEvent(tick=0, channel=0, data=[46]),\n",
      "   midi.NoteOnEvent(tick=14, channel=0, data=[37, 17]),\n",
      "   midi.NoteOnEvent(tick=8, channel=0, data=[49, 144]),\n",
      "   midi.NoteOnEvent(tick=8, channel=0, data=[76, 253]),\n",
      "   midi.NoteOnEvent(tick=82, channel=0, data=[124, 209]),\n",
      "   midi.NoteOnEvent(tick=2, channel=0, data=[37, 212]),\n",
      "   midi.NoteOnEvent(tick=12, channel=0, data=[116, 63]),\n",
      "   midi.NoteOnEvent(tick=6, channel=0, data=[78, 138]),\n",
      "   midi.NoteOnEvent(tick=6, channel=0, data=[81, 42]),\n",
      "   midi.NoteOffEvent(tick=1, channel=0, data=[49, 0]),\n",
      "   midi.NoteOnEvent(tick=3, channel=0, data=[3, 175]),\n",
      "   midi.NoteOnEvent(tick=24, channel=0, data=[47, 161]),\n",
      "   midi.NoteOnEvent(tick=10, channel=0, data=[3, 165]),\n",
      "   midi.NoteOnEvent(tick=1, channel=0, data=[84, 248]),\n",
      "   midi.NoteOnEvent(tick=26, channel=0, data=[18, 236]),\n",
      "   midi.NoteOffEvent(tick=6, channel=0, data=[18, 0]),\n",
      "   midi.NoteOnEvent(tick=31, channel=0, data=[94, 30]),\n",
      "   midi.NoteOffEvent(tick=27, channel=0, data=[3, 0]),\n",
      "   midi.NoteOnEvent(tick=2, channel=0, data=[85, 105]),\n",
      "   midi.NoteOnEvent(tick=0, channel=0, data=[41, 197]),\n",
      "   midi.NoteOnEvent(tick=76, channel=0, data=[110, 153]),\n",
      "   midi.NoteOnEvent(tick=0, channel=0, data=[96, 178]),\n",
      "   midi.NoteOnEvent(tick=4, channel=0, data=[63, 192]),\n",
      "   midi.NoteOnEvent(tick=1, channel=0, data=[58, 188]),\n",
      "   midi.NoteOffEvent(tick=17, channel=0, data=[96, 0]),\n",
      "   midi.NoteOffEvent(tick=10, channel=0, data=[85, 0]),\n",
      "   midi.NoteOnEvent(tick=63, channel=0, data=[5, 202]),\n",
      "   midi.NoteOnEvent(tick=0, channel=0, data=[106, 87]),\n",
      "   midi.NoteOnEvent(tick=22, channel=0, data=[64, 37]),\n",
      "   midi.NoteOnEvent(tick=5, channel=0, data=[120, 222]),\n",
      "   midi.NoteOnEvent(tick=7, channel=0, data=[112, 202]),\n",
      "   midi.NoteOnEvent(tick=8, channel=0, data=[118, 199]),\n",
      "   midi.NoteOnEvent(tick=1, channel=0, data=[31, 95]),\n",
      "   midi.NoteOnEvent(tick=0, channel=0, data=[29, 119]),\n",
      "   midi.NoteOffEvent(tick=23, channel=0, data=[116, 0]),\n",
      "   midi.NoteOffEvent(tick=9, channel=0, data=[58, 0]),\n",
      "   midi.NoteOnEvent(tick=0, channel=0, data=[15, 34]),\n",
      "   midi.NoteOffEvent(tick=2, channel=0, data=[84, 0]),\n",
      "   midi.NoteOnEvent(tick=2, channel=0, data=[7, 27]),\n",
      "   midi.NoteOffEvent(tick=9, channel=0, data=[76, 0]),\n",
      "   midi.NoteOnEvent(tick=7, channel=0, data=[67, 16]),\n",
      "   midi.NoteOnEvent(tick=0, channel=0, data=[27, 158]),\n",
      "   midi.NoteOnEvent(tick=19, channel=0, data=[58, 138]),\n",
      "   midi.NoteOnEvent(tick=1, channel=0, data=[84, 238]),\n",
      "   midi.NoteOnEvent(tick=2, channel=0, data=[18, 247]),\n",
      "   midi.NoteOffEvent(tick=2, channel=0, data=[78, 0]),\n",
      "   midi.NoteOnEvent(tick=13, channel=0, data=[18, 211]),\n",
      "   midi.NoteOffEvent(tick=5, channel=0, data=[110, 0]),\n",
      "   midi.NoteOnEvent(tick=14, channel=0, data=[127, 52]),\n",
      "   midi.NoteOnEvent(tick=0, channel=0, data=[101, 87]),\n",
      "   midi.NoteOnEvent(tick=0, channel=0, data=[20, 49]),\n",
      "   midi.NoteOnEvent(tick=5, channel=0, data=[96, 56]),\n",
      "   midi.NoteOnEvent(tick=9, channel=0, data=[117, 53]),\n",
      "   midi.NoteOnEvent(tick=11, channel=0, data=[93, 109]),\n",
      "   midi.NoteOffEvent(tick=1, channel=0, data=[31, 0]),\n",
      "   midi.NoteOnEvent(tick=1, channel=0, data=[121, 251]),\n",
      "   midi.NoteOnEvent(tick=7, channel=0, data=[21, 164]),\n",
      "   midi.NoteOnEvent(tick=26, channel=0, data=[92, 149]),\n",
      "   midi.NoteOnEvent(tick=2, channel=0, data=[86, 133]),\n",
      "   midi.NoteOffEvent(tick=15, channel=0, data=[29, 0]),\n",
      "   midi.NoteOnEvent(tick=7, channel=0, data=[12, 249]),\n",
      "   midi.NoteOnEvent(tick=10, channel=0, data=[70, 208]),\n",
      "   midi.NoteOnEvent(tick=3, channel=0, data=[25, 207]),\n",
      "   midi.NoteOnEvent(tick=0, channel=0, data=[64, 76]),\n",
      "   midi.NoteOffEvent(tick=21, channel=0, data=[112, 0]),\n",
      "   midi.NoteOnEvent(tick=10, channel=0, data=[12, 134]),\n",
      "   midi.NoteOnEvent(tick=16, channel=0, data=[102, 200]),\n",
      "   midi.NoteOffEvent(tick=2, channel=0, data=[124, 0]),\n",
      "   midi.NoteOnEvent(tick=0, channel=0, data=[94, 51]),\n",
      "   midi.NoteOnEvent(tick=2, channel=0, data=[99, 191]),\n",
      "   midi.NoteOffEvent(tick=23, channel=0, data=[21, 0]),\n",
      "   midi.NoteOnEvent(tick=17, channel=0, data=[52, 197]),\n",
      "   midi.NoteOnEvent(tick=7, channel=0, data=[60, 193]),\n",
      "   midi.NoteOffEvent(tick=6, channel=0, data=[37, 0]),\n",
      "   midi.NoteOnEvent(tick=21, channel=0, data=[78, 17]),\n",
      "   midi.NoteOnEvent(tick=6, channel=0, data=[28, 117]),\n",
      "   midi.NoteOnEvent(tick=1, channel=0, data=[57, 64]),\n",
      "   midi.NoteOffEvent(tick=5, channel=0, data=[81, 0]),\n",
      "   midi.NoteOnEvent(tick=19, channel=0, data=[113, 163]),\n",
      "   midi.NoteOffEvent(tick=4, channel=0, data=[57, 0]),\n",
      "   midi.NoteOnEvent(tick=24, channel=0, data=[77, 192]),\n",
      "   midi.NoteOffEvent(tick=1, channel=0, data=[64, 0]),\n",
      "   midi.NoteOffEvent(tick=11, channel=0, data=[28, 0]),\n",
      "   midi.NoteOffEvent(tick=10, channel=0, data=[120, 0]),\n",
      "   midi.NoteOnEvent(tick=9, channel=0, data=[125, 120]),\n",
      "   midi.NoteOffEvent(tick=26, channel=0, data=[93, 0]),\n",
      "   midi.NoteOnEvent(tick=31, channel=0, data=[23, 231]),\n",
      "   midi.NoteOnEvent(tick=1, channel=0, data=[91, 108]),\n",
      "   midi.NoteOffEvent(tick=12, channel=0, data=[47, 0]),\n",
      "   midi.NoteOnEvent(tick=2, channel=0, data=[122, 120]),\n",
      "   midi.NoteOffEvent(tick=2, channel=0, data=[58, 0]),\n",
      "   midi.NoteOffEvent(tick=1, channel=0, data=[86, 0]),\n",
      "   midi.NoteOffEvent(tick=8, channel=0, data=[60, 0]),\n",
      "   midi.NoteOffEvent(tick=34, channel=0, data=[18, 0]),\n",
      "   midi.NoteOffEvent(tick=1, channel=0, data=[63, 0]),\n",
      "   midi.NoteOffEvent(tick=15, channel=0, data=[84, 0]),\n",
      "   midi.NoteOffEvent(tick=47, channel=0, data=[78, 0]),\n",
      "   midi.NoteOffEvent(tick=26, channel=0, data=[118, 0]),\n",
      "   midi.NoteOffEvent(tick=8, channel=0, data=[27, 0]),\n",
      "   midi.NoteOffEvent(tick=0, channel=0, data=[41, 0]),\n",
      "   midi.NoteOffEvent(tick=9, channel=0, data=[7, 0]),\n",
      "   midi.NoteOffEvent(tick=11, channel=0, data=[91, 0]),\n",
      "   midi.NoteOffEvent(tick=4, channel=0, data=[122, 0]),\n",
      "   midi.NoteOffEvent(tick=11, channel=0, data=[70, 0]),\n",
      "   midi.NoteOffEvent(tick=15, channel=0, data=[67, 0]),\n",
      "   midi.NoteOffEvent(tick=8, channel=0, data=[117, 0]),\n",
      "   midi.NoteOffEvent(tick=7, channel=0, data=[25, 0]),\n",
      "   midi.NoteOffEvent(tick=4, channel=0, data=[121, 0]),\n",
      "   midi.NoteOffEvent(tick=13, channel=0, data=[12, 0]),\n",
      "   midi.NoteOffEvent(tick=15, channel=0, data=[106, 0]),\n",
      "   midi.NoteOffEvent(tick=13, channel=0, data=[127, 0]),\n",
      "   midi.NoteOffEvent(tick=15, channel=0, data=[77, 0]),\n",
      "   midi.NoteOffEvent(tick=59, channel=0, data=[94, 0]),\n",
      "   midi.NoteOffEvent(tick=54, channel=0, data=[99, 0]),\n",
      "   midi.NoteOffEvent(tick=6, channel=0, data=[5, 0]),\n",
      "   midi.NoteOffEvent(tick=1, channel=0, data=[96, 0]),\n",
      "   midi.NoteOffEvent(tick=20, channel=0, data=[101, 0]),\n",
      "   midi.NoteOffEvent(tick=9, channel=0, data=[23, 0]),\n",
      "   midi.NoteOffEvent(tick=9, channel=0, data=[15, 0]),\n",
      "   midi.NoteOffEvent(tick=97, channel=0, data=[92, 0]),\n",
      "   midi.NoteOffEvent(tick=62, channel=0, data=[20, 0]),\n",
      "   midi.NoteOffEvent(tick=115, channel=0, data=[125, 0]),\n",
      "   midi.NoteOffEvent(tick=47, channel=0, data=[113, 0]),\n",
      "   midi.NoteOffEvent(tick=2, channel=0, data=[102, 0]),\n",
      "   midi.NoteOffEvent(tick=49, channel=0, data=[52, 0]),\n",
      "   midi.EndOfTrackEvent(tick=0, data=[])]),\n",
      " midi.Track(\\\n",
      "  [midi.SetTempoEvent(tick=0, data=[8, 227, 124]),\n",
      "   midi.ProgramChangeEvent(tick=0, channel=0, data=[47]),\n",
      "   midi.NoteOnEvent(tick=102, channel=0, data=[53, 66]),\n",
      "   midi.NoteOnEvent(tick=17, channel=0, data=[66, 107]),\n",
      "   midi.NoteOnEvent(tick=2, channel=0, data=[71, 167]),\n",
      "   midi.NoteOnEvent(tick=11, channel=0, data=[27, 197]),\n",
      "   midi.NoteOnEvent(tick=10, channel=0, data=[127, 249]),\n",
      "   midi.NoteOnEvent(tick=13, channel=0, data=[105, 52]),\n",
      "   midi.NoteOnEvent(tick=62, channel=0, data=[103, 135]),\n",
      "   midi.NoteOnEvent(tick=15, channel=0, data=[100, 62]),\n",
      "   midi.NoteOnEvent(tick=27, channel=0, data=[20, 222]),\n",
      "   midi.NoteOnEvent(tick=6, channel=0, data=[122, 47]),\n",
      "   midi.NoteOnEvent(tick=8, channel=0, data=[20, 18]),\n",
      "   midi.NoteOffEvent(tick=3, channel=0, data=[103, 0]),\n",
      "   midi.NoteOnEvent(tick=17, channel=0, data=[104, 45]),\n",
      "   midi.NoteOnEvent(tick=19, channel=0, data=[82, 16]),\n",
      "   midi.NoteOnEvent(tick=0, channel=0, data=[65, 178]),\n",
      "   midi.NoteOnEvent(tick=6, channel=0, data=[10, 231]),\n",
      "   midi.NoteOffEvent(tick=4, channel=0, data=[71, 0]),\n",
      "   midi.NoteOnEvent(tick=9, channel=0, data=[115, 206]),\n",
      "   midi.NoteOnEvent(tick=17, channel=0, data=[33, 153]),\n",
      "   midi.NoteOnEvent(tick=42, channel=0, data=[59, 63]),\n",
      "   midi.NoteOffEvent(tick=6, channel=0, data=[66, 0]),\n",
      "   midi.NoteOnEvent(tick=8, channel=0, data=[116, 72]),\n",
      "   midi.NoteOnEvent(tick=4, channel=0, data=[113, 202]),\n",
      "   midi.NoteOnEvent(tick=30, channel=0, data=[17, 154]),\n",
      "   midi.NoteOnEvent(tick=3, channel=0, data=[8, 50]),\n",
      "   midi.NoteOnEvent(tick=19, channel=0, data=[75, 219]),\n",
      "   midi.NoteOffEvent(tick=10, channel=0, data=[8, 0]),\n",
      "   midi.NoteOnEvent(tick=23, channel=0, data=[32, 213]),\n",
      "   midi.NoteOnEvent(tick=15, channel=0, data=[36, 122]),\n",
      "   midi.NoteOnEvent(tick=6, channel=0, data=[119, 114]),\n",
      "   midi.NoteOnEvent(tick=7, channel=0, data=[49, 111]),\n",
      "   midi.NoteOnEvent(tick=33, channel=0, data=[36, 124]),\n",
      "   midi.NoteOnEvent(tick=0, channel=0, data=[61, 65]),\n",
      "   midi.NoteOnEvent(tick=7, channel=0, data=[26, 82]),\n",
      "   midi.NoteOnEvent(tick=0, channel=0, data=[110, 68]),\n",
      "   midi.NoteOnEvent(tick=10, channel=0, data=[126, 83]),\n",
      "   midi.NoteOnEvent(tick=0, channel=0, data=[112, 228]),\n",
      "   midi.NoteOnEvent(tick=3, channel=0, data=[45, 159]),\n",
      "   midi.NoteOnEvent(tick=7, channel=0, data=[29, 146]),\n",
      "   midi.NoteOnEvent(tick=12, channel=0, data=[70, 182]),\n",
      "   midi.NoteOffEvent(tick=7, channel=0, data=[126, 0]),\n",
      "   midi.NoteOnEvent(tick=14, channel=0, data=[43, 156]),\n",
      "   midi.NoteOffEvent(tick=13, channel=0, data=[53, 0]),\n",
      "   midi.NoteOffEvent(tick=29, channel=0, data=[119, 0]),\n",
      "   midi.NoteOffEvent(tick=8, channel=0, data=[33, 0]),\n",
      "   midi.NoteOnEvent(tick=5, channel=0, data=[99, 15]),\n",
      "   midi.NoteOnEvent(tick=0, channel=0, data=[13, 67]),\n",
      "   midi.NoteOnEvent(tick=0, channel=0, data=[49, 242]),\n",
      "   midi.NoteOffEvent(tick=12, channel=0, data=[122, 0]),\n",
      "   midi.NoteOffEvent(tick=6, channel=0, data=[10, 0]),\n",
      "   midi.NoteOffEvent(tick=14, channel=0, data=[65, 0]),\n",
      "   midi.NoteOffEvent(tick=10, channel=0, data=[104, 0]),\n",
      "   midi.NoteOnEvent(tick=0, channel=0, data=[110, 93]),\n",
      "   midi.NoteOnEvent(tick=0, channel=0, data=[66, 164]),\n",
      "   midi.NoteOnEvent(tick=4, channel=0, data=[100, 203]),\n",
      "   midi.NoteOnEvent(tick=3, channel=0, data=[101, 51]),\n",
      "   midi.NoteOnEvent(tick=9, channel=0, data=[21, 83]),\n",
      "   midi.NoteOnEvent(tick=8, channel=0, data=[113, 45]),\n",
      "   midi.NoteOffEvent(tick=2, channel=0, data=[27, 0]),\n",
      "   midi.NoteOnEvent(tick=42, channel=0, data=[58, 202]),\n",
      "   midi.NoteOnEvent(tick=35, channel=0, data=[10, 26]),\n",
      "   midi.NoteOnEvent(tick=0, channel=0, data=[75, 7]),\n",
      "   midi.NoteOffEvent(tick=2, channel=0, data=[105, 0]),\n",
      "   midi.NoteOnEvent(tick=2, channel=0, data=[66, 98]),\n",
      "   midi.NoteOnEvent(tick=0, channel=0, data=[65, 96]),\n",
      "   midi.NoteOnEvent(tick=13, channel=0, data=[69, 122]),\n",
      "   midi.NoteOnEvent(tick=13, channel=0, data=[122, 225]),\n",
      "   midi.NoteOffEvent(tick=16, channel=0, data=[20, 0]),\n",
      "   midi.NoteOffEvent(tick=7, channel=0, data=[127, 0]),\n",
      "   midi.NoteOnEvent(tick=5, channel=0, data=[122, 245]),\n",
      "   midi.NoteOffEvent(tick=5, channel=0, data=[29, 0]),\n",
      "   midi.NoteOnEvent(tick=3, channel=0, data=[29, 86]),\n",
      "   midi.NoteOffEvent(tick=18, channel=0, data=[59, 0]),\n",
      "   midi.NoteOnEvent(tick=41, channel=0, data=[72, 128]),\n",
      "   midi.NoteOnEvent(tick=23, channel=0, data=[105, 240]),\n",
      "   midi.NoteOffEvent(tick=3, channel=0, data=[82, 0]),\n",
      "   midi.NoteOnEvent(tick=4, channel=0, data=[53, 155]),\n",
      "   midi.NoteOnEvent(tick=0, channel=0, data=[29, 104]),\n",
      "   midi.NoteOffEvent(tick=15, channel=0, data=[70, 0]),\n",
      "   midi.NoteOffEvent(tick=5, channel=0, data=[69, 0]),\n",
      "   midi.NoteOffEvent(tick=56, channel=0, data=[26, 0]),\n",
      "   midi.NoteOffEvent(tick=9, channel=0, data=[17, 0]),\n",
      "   midi.NoteOffEvent(tick=59, channel=0, data=[116, 0]),\n",
      "   midi.NoteOffEvent(tick=2, channel=0, data=[45, 0]),\n",
      "   midi.NoteOffEvent(tick=55, channel=0, data=[36, 0]),\n",
      "   midi.NoteOffEvent(tick=4, channel=0, data=[21, 0]),\n",
      "   midi.NoteOffEvent(tick=15, channel=0, data=[113, 0]),\n",
      "   midi.NoteOffEvent(tick=7, channel=0, data=[32, 0]),\n",
      "   midi.NoteOffEvent(tick=0, channel=0, data=[115, 0]),\n",
      "   midi.NoteOffEvent(tick=48, channel=0, data=[61, 0]),\n",
      "   midi.NoteOffEvent(tick=3, channel=0, data=[110, 0]),\n",
      "   midi.NoteOffEvent(tick=12, channel=0, data=[65, 0]),\n",
      "   midi.NoteOffEvent(tick=37, channel=0, data=[72, 0]),\n",
      "   midi.NoteOffEvent(tick=21, channel=0, data=[105, 0]),\n",
      "   midi.NoteOffEvent(tick=5, channel=0, data=[49, 0]),\n",
      "   midi.NoteOffEvent(tick=2, channel=0, data=[43, 0]),\n",
      "   midi.NoteOffEvent(tick=16, channel=0, data=[53, 0]),\n",
      "   midi.NoteOffEvent(tick=50, channel=0, data=[10, 0]),\n",
      "   midi.NoteOffEvent(tick=34, channel=0, data=[101, 0]),\n",
      "   midi.NoteOffEvent(tick=35, channel=0, data=[66, 0]),\n",
      "   midi.NoteOffEvent(tick=53, channel=0, data=[112, 0]),\n",
      "   midi.NoteOffEvent(tick=26, channel=0, data=[13, 0]),\n",
      "   midi.NoteOffEvent(tick=45, channel=0, data=[122, 0]),\n",
      "   midi.NoteOffEvent(tick=17, channel=0, data=[58, 0]),\n",
      "   midi.NoteOffEvent(tick=3, channel=0, data=[99, 0]),\n",
      "   midi.NoteOffEvent(tick=14, channel=0, data=[100, 0]),\n",
      "   midi.NoteOffEvent(tick=22, channel=0, data=[29, 0]),\n",
      "   midi.NoteOffEvent(tick=130, channel=0, data=[75, 0]),\n",
      "   midi.EndOfTrackEvent(tick=0, data=[])]),\n",
      " midi.Track(\\\n",
      "  [midi.SetTempoEvent(tick=0, data=[8, 227, 124]),\n",
      "   midi.ProgramChangeEvent(tick=0, channel=0, data=[48]),\n",
      "   midi.NoteOnEvent(tick=35, channel=0, data=[58, 151]),\n",
      "   midi.NoteOnEvent(tick=12, channel=0, data=[113, 127]),\n",
      "   midi.NoteOnEvent(tick=12, channel=0, data=[23, 227]),\n",
      "   midi.NoteOnEvent(tick=51, channel=0, data=[89, 99]),\n",
      "   midi.NoteOnEvent(tick=4, channel=0, data=[0, 213]),\n",
      "   midi.NoteOnEvent(tick=12, channel=0, data=[112, 219]),\n",
      "   midi.NoteOnEvent(tick=20, channel=0, data=[91, 49]),\n",
      "   midi.NoteOnEvent(tick=7, channel=0, data=[57, 230]),\n",
      "   midi.NoteOnEvent(tick=17, channel=0, data=[127, 126]),\n",
      "   midi.NoteOnEvent(tick=6, channel=0, data=[108, 186]),\n",
      "   midi.NoteOnEvent(tick=15, channel=0, data=[81, 152]),\n",
      "   midi.NoteOnEvent(tick=6, channel=0, data=[95, 9]),\n",
      "   midi.NoteOnEvent(tick=3, channel=0, data=[88, 134]),\n",
      "   midi.NoteOnEvent(tick=8, channel=0, data=[124, 131]),\n",
      "   midi.NoteOnEvent(tick=9, channel=0, data=[53, 162]),\n",
      "   midi.NoteOnEvent(tick=11, channel=0, data=[33, 175]),\n",
      "   midi.NoteOnEvent(tick=4, channel=0, data=[54, 104]),\n",
      "   midi.NoteOffEvent(tick=30, channel=0, data=[88, 0]),\n",
      "   midi.NoteOnEvent(tick=56, channel=0, data=[101, 48]),\n",
      "   midi.NoteOffEvent(tick=17, channel=0, data=[33, 0]),\n",
      "   midi.NoteOffEvent(tick=7, channel=0, data=[54, 0]),\n",
      "   midi.NoteOnEvent(tick=7, channel=0, data=[47, 199]),\n",
      "   midi.NoteOnEvent(tick=26, channel=0, data=[56, 239]),\n",
      "   midi.NoteOffEvent(tick=3, channel=0, data=[101, 0]),\n",
      "   midi.NoteOnEvent(tick=8, channel=0, data=[117, 86]),\n",
      "   midi.NoteOnEvent(tick=12, channel=0, data=[3, 240]),\n",
      "   midi.NoteOffEvent(tick=19, channel=0, data=[89, 0]),\n",
      "   midi.NoteOnEvent(tick=8, channel=0, data=[86, 201]),\n",
      "   midi.NoteOnEvent(tick=8, channel=0, data=[63, 220]),\n",
      "   midi.NoteOffEvent(tick=35, channel=0, data=[47, 0]),\n",
      "   midi.NoteOnEvent(tick=3, channel=0, data=[14, 205]),\n",
      "   midi.NoteOnEvent(tick=2, channel=0, data=[27, 12]),\n",
      "   midi.NoteOnEvent(tick=10, channel=0, data=[36, 239]),\n",
      "   midi.NoteOnEvent(tick=17, channel=0, data=[7, 0]),\n",
      "   midi.NoteOffEvent(tick=2, channel=0, data=[124, 0]),\n",
      "   midi.NoteOffEvent(tick=12, channel=0, data=[14, 0]),\n",
      "   midi.NoteOnEvent(tick=0, channel=0, data=[99, 163]),\n",
      "   midi.NoteOffEvent(tick=18, channel=0, data=[7, 0]),\n",
      "   midi.NoteOnEvent(tick=36, channel=0, data=[103, 140]),\n",
      "   midi.NoteOnEvent(tick=7, channel=0, data=[83, 233]),\n",
      "   midi.NoteOffEvent(tick=7, channel=0, data=[91, 0]),\n",
      "   midi.NoteOffEvent(tick=7, channel=0, data=[81, 0]),\n",
      "   midi.NoteOffEvent(tick=0, channel=0, data=[112, 0]),\n",
      "   midi.NoteOnEvent(tick=2, channel=0, data=[46, 167]),\n",
      "   midi.NoteOnEvent(tick=25, channel=0, data=[118, 124]),\n",
      "   midi.NoteOffEvent(tick=5, channel=0, data=[63, 0]),\n",
      "   midi.NoteOnEvent(tick=4, channel=0, data=[83, 216]),\n",
      "   midi.NoteOnEvent(tick=5, channel=0, data=[107, 1]),\n",
      "   midi.NoteOffEvent(tick=4, channel=0, data=[23, 0]),\n",
      "   midi.NoteOffEvent(tick=26, channel=0, data=[108, 0]),\n",
      "   midi.NoteOnEvent(tick=6, channel=0, data=[113, 43]),\n",
      "   midi.NoteOnEvent(tick=19, channel=0, data=[125, 0]),\n",
      "   midi.NoteOffEvent(tick=12, channel=0, data=[113, 0]),\n",
      "   midi.NoteOffEvent(tick=13, channel=0, data=[0, 0]),\n",
      "   midi.NoteOffEvent(tick=2, channel=0, data=[99, 0]),\n",
      "   midi.NoteOffEvent(tick=15, channel=0, data=[46, 0]),\n",
      "   midi.NoteOnEvent(tick=0, channel=0, data=[99, 31]),\n",
      "   midi.NoteOnEvent(tick=0, channel=0, data=[122, 105]),\n",
      "   midi.NoteOnEvent(tick=5, channel=0, data=[83, 153]),\n",
      "   midi.NoteOnEvent(tick=4, channel=0, data=[74, 42]),\n",
      "   midi.NoteOnEvent(tick=1, channel=0, data=[87, 148]),\n",
      "   midi.NoteOnEvent(tick=13, channel=0, data=[123, 4]),\n",
      "   midi.NoteOnEvent(tick=2, channel=0, data=[45, 63]),\n",
      "   midi.NoteOnEvent(tick=7, channel=0, data=[57, 209]),\n",
      "   midi.NoteOnEvent(tick=3, channel=0, data=[44, 31]),\n",
      "   midi.NoteOnEvent(tick=2, channel=0, data=[81, 131]),\n",
      "   midi.NoteOffEvent(tick=12, channel=0, data=[107, 0]),\n",
      "   midi.NoteOnEvent(tick=3, channel=0, data=[75, 71]),\n",
      "   midi.NoteOnEvent(tick=4, channel=0, data=[58, 89]),\n",
      "   midi.NoteOnEvent(tick=18, channel=0, data=[61, 240]),\n",
      "   midi.NoteOffEvent(tick=43, channel=0, data=[95, 0]),\n",
      "   midi.NoteOnEvent(tick=36, channel=0, data=[85, 177]),\n",
      "   midi.NoteOffEvent(tick=18, channel=0, data=[75, 0]),\n",
      "   midi.NoteOnEvent(tick=1, channel=0, data=[114, 146]),\n",
      "   midi.NoteOnEvent(tick=22, channel=0, data=[30, 206]),\n",
      "   midi.NoteOnEvent(tick=0, channel=0, data=[2, 173]),\n",
      "   midi.NoteOffEvent(tick=11, channel=0, data=[99, 0]),\n",
      "   midi.NoteOffEvent(tick=6, channel=0, data=[127, 0]),\n",
      "   midi.NoteOnEvent(tick=1, channel=0, data=[44, 88]),\n",
      "   midi.NoteOffEvent(tick=6, channel=0, data=[74, 0]),\n",
      "   midi.NoteOnEvent(tick=4, channel=0, data=[48, 196]),\n",
      "   midi.NoteOffEvent(tick=1, channel=0, data=[3, 0]),\n",
      "   midi.NoteOffEvent(tick=21, channel=0, data=[83, 0]),\n",
      "   midi.NoteOffEvent(tick=38, channel=0, data=[45, 0]),\n",
      "   midi.NoteOffEvent(tick=94, channel=0, data=[122, 0]),\n",
      "   midi.NoteOffEvent(tick=31, channel=0, data=[56, 0]),\n",
      "   midi.NoteOffEvent(tick=52, channel=0, data=[36, 0]),\n",
      "   midi.NoteOffEvent(tick=29, channel=0, data=[53, 0]),\n",
      "   midi.NoteOffEvent(tick=3, channel=0, data=[125, 0]),\n",
      "   midi.NoteOffEvent(tick=64, channel=0, data=[85, 0]),\n",
      "   midi.NoteOffEvent(tick=32, channel=0, data=[103, 0]),\n",
      "   midi.NoteOffEvent(tick=7, channel=0, data=[30, 0]),\n",
      "   midi.NoteOffEvent(tick=5, channel=0, data=[117, 0]),\n",
      "   midi.NoteOffEvent(tick=70, channel=0, data=[27, 0]),\n",
      "   midi.NoteOffEvent(tick=88, channel=0, data=[118, 0]),\n",
      "   midi.NoteOffEvent(tick=2, channel=0, data=[57, 0]),\n",
      "   midi.NoteOffEvent(tick=1, channel=0, data=[58, 0]),\n",
      "   midi.NoteOffEvent(tick=6, channel=0, data=[123, 0]),\n",
      "   midi.NoteOffEvent(tick=4, channel=0, data=[87, 0]),\n",
      "   midi.NoteOffEvent(tick=14, channel=0, data=[81, 0]),\n",
      "   midi.NoteOffEvent(tick=45, channel=0, data=[114, 0]),\n",
      "   midi.NoteOffEvent(tick=207, channel=0, data=[61, 0]),\n",
      "   midi.NoteOffEvent(tick=34, channel=0, data=[44, 0]),\n",
      "   midi.NoteOffEvent(tick=39, channel=0, data=[2, 0]),\n",
      "   midi.NoteOffEvent(tick=29, channel=0, data=[48, 0]),\n",
      "   midi.EndOfTrackEvent(tick=0, data=[])]),\n",
      " midi.Track(\\\n",
      "  [midi.SetTempoEvent(tick=0, data=[8, 227, 124]),\n",
      "   midi.ProgramChangeEvent(tick=0, channel=0, data=[49]),\n",
      "   midi.NoteOnEvent(tick=7, channel=0, data=[43, 166]),\n",
      "   midi.NoteOffEvent(tick=45, channel=0, data=[43, 0]),\n",
      "   midi.NoteOnEvent(tick=45, channel=0, data=[14, 119]),\n",
      "   midi.NoteOnEvent(tick=82, channel=0, data=[12, 153]),\n",
      "   midi.NoteOnEvent(tick=12, channel=0, data=[54, 112]),\n",
      "   midi.NoteOnEvent(tick=44, channel=0, data=[33, 64]),\n",
      "   midi.NoteOnEvent(tick=19, channel=0, data=[61, 113]),\n",
      "   midi.NoteOnEvent(tick=11, channel=0, data=[63, 181]),\n",
      "   midi.NoteOnEvent(tick=36, channel=0, data=[112, 182]),\n",
      "   midi.NoteOnEvent(tick=2, channel=0, data=[19, 189]),\n",
      "   midi.NoteOnEvent(tick=5, channel=0, data=[40, 249]),\n",
      "   midi.NoteOnEvent(tick=13, channel=0, data=[91, 177]),\n",
      "   midi.NoteOnEvent(tick=27, channel=0, data=[89, 56]),\n",
      "   midi.NoteOnEvent(tick=42, channel=0, data=[104, 88]),\n",
      "   midi.NoteOffEvent(tick=8, channel=0, data=[33, 0]),\n",
      "   midi.NoteOnEvent(tick=0, channel=0, data=[123, 24]),\n",
      "   midi.NoteOffEvent(tick=9, channel=0, data=[54, 0]),\n",
      "   midi.NoteOnEvent(tick=8, channel=0, data=[96, 84]),\n",
      "   midi.NoteOffEvent(tick=23, channel=0, data=[104, 0]),\n",
      "   midi.NoteOnEvent(tick=0, channel=0, data=[93, 194]),\n",
      "   midi.NoteOffEvent(tick=3, channel=0, data=[89, 0]),\n",
      "   midi.NoteOnEvent(tick=19, channel=0, data=[115, 168]),\n",
      "   midi.NoteOnEvent(tick=10, channel=0, data=[117, 239]),\n",
      "   midi.NoteOnEvent(tick=18, channel=0, data=[31, 112]),\n",
      "   midi.NoteOffEvent(tick=2, channel=0, data=[61, 0]),\n",
      "   midi.NoteOnEvent(tick=6, channel=0, data=[67, 174]),\n",
      "   midi.NoteOffEvent(tick=16, channel=0, data=[67, 0]),\n",
      "   midi.NoteOffEvent(tick=14, channel=0, data=[14, 0]),\n",
      "   midi.NoteOnEvent(tick=5, channel=0, data=[24, 59]),\n",
      "   midi.NoteOnEvent(tick=0, channel=0, data=[108, 52]),\n",
      "   midi.NoteOnEvent(tick=15, channel=0, data=[20, 156]),\n",
      "   midi.NoteOnEvent(tick=7, channel=0, data=[69, 29]),\n",
      "   midi.NoteOnEvent(tick=2, channel=0, data=[123, 239]),\n",
      "   midi.NoteOnEvent(tick=8, channel=0, data=[125, 11]),\n",
      "   midi.NoteOnEvent(tick=8, channel=0, data=[5, 71]),\n",
      "   midi.NoteOnEvent(tick=10, channel=0, data=[68, 130]),\n",
      "   midi.NoteOffEvent(tick=15, channel=0, data=[68, 0]),\n",
      "   midi.NoteOnEvent(tick=34, channel=0, data=[109, 160]),\n",
      "   midi.NoteOnEvent(tick=23, channel=0, data=[57, 85]),\n",
      "   midi.NoteOnEvent(tick=40, channel=0, data=[62, 88]),\n",
      "   midi.NoteOnEvent(tick=4, channel=0, data=[93, 192]),\n",
      "   midi.NoteOnEvent(tick=8, channel=0, data=[72, 183]),\n",
      "   midi.NoteOffEvent(tick=7, channel=0, data=[31, 0]),\n",
      "   midi.NoteOnEvent(tick=15, channel=0, data=[105, 214]),\n",
      "   midi.NoteOffEvent(tick=85, channel=0, data=[12, 0]),\n",
      "   midi.NoteOffEvent(tick=19, channel=0, data=[109, 0]),\n",
      "   midi.NoteOnEvent(tick=0, channel=0, data=[45, 11]),\n",
      "   midi.NoteOnEvent(tick=27, channel=0, data=[73, 109]),\n",
      "   midi.NoteOffEvent(tick=15, channel=0, data=[112, 0]),\n",
      "   midi.NoteOffEvent(tick=2, channel=0, data=[19, 0]),\n",
      "   midi.NoteOnEvent(tick=15, channel=0, data=[46, 137]),\n",
      "   midi.NoteOnEvent(tick=0, channel=0, data=[69, 23]),\n",
      "   midi.NoteOnEvent(tick=27, channel=0, data=[86, 193]),\n",
      "   midi.NoteOnEvent(tick=21, channel=0, data=[44, 20]),\n",
      "   midi.NoteOnEvent(tick=11, channel=0, data=[34, 5]),\n",
      "   midi.NoteOnEvent(tick=20, channel=0, data=[79, 8]),\n",
      "   midi.NoteOnEvent(tick=8, channel=0, data=[24, 242]),\n",
      "   midi.NoteOffEvent(tick=5, channel=0, data=[91, 0]),\n",
      "   midi.NoteOnEvent(tick=5, channel=0, data=[86, 246]),\n",
      "   midi.NoteOffEvent(tick=1, channel=0, data=[45, 0]),\n",
      "   midi.NoteOffEvent(tick=1, channel=0, data=[105, 0]),\n",
      "   midi.NoteOnEvent(tick=3, channel=0, data=[11, 131]),\n",
      "   midi.NoteOnEvent(tick=0, channel=0, data=[14, 216]),\n",
      "   midi.NoteOffEvent(tick=9, channel=0, data=[72, 0]),\n",
      "   midi.NoteOffEvent(tick=22, channel=0, data=[63, 0]),\n",
      "   midi.NoteOffEvent(tick=39, channel=0, data=[115, 0]),\n",
      "   midi.NoteOffEvent(tick=37, channel=0, data=[24, 0]),\n",
      "   midi.NoteOffEvent(tick=43, channel=0, data=[11, 0]),\n",
      "   midi.NoteOffEvent(tick=27, channel=0, data=[40, 0]),\n",
      "   midi.NoteOffEvent(tick=6, channel=0, data=[5, 0]),\n",
      "   midi.NoteOffEvent(tick=0, channel=0, data=[62, 0]),\n",
      "   midi.NoteOffEvent(tick=42, channel=0, data=[108, 0]),\n",
      "   midi.NoteOffEvent(tick=3, channel=0, data=[96, 0]),\n",
      "   midi.NoteOffEvent(tick=66, channel=0, data=[86, 0]),\n",
      "   midi.NoteOffEvent(tick=3, channel=0, data=[125, 0]),\n",
      "   midi.NoteOffEvent(tick=10, channel=0, data=[93, 0]),\n",
      "   midi.NoteOffEvent(tick=11, channel=0, data=[73, 0]),\n",
      "   midi.NoteOffEvent(tick=117, channel=0, data=[117, 0]),\n",
      "   midi.NoteOffEvent(tick=4, channel=0, data=[123, 0]),\n",
      "   midi.NoteOffEvent(tick=15, channel=0, data=[46, 0]),\n",
      "   midi.NoteOffEvent(tick=51, channel=0, data=[20, 0]),\n",
      "   midi.NoteOffEvent(tick=4, channel=0, data=[57, 0]),\n",
      "   midi.NoteOffEvent(tick=61, channel=0, data=[79, 0]),\n",
      "   midi.NoteOffEvent(tick=131, channel=0, data=[44, 0]),\n",
      "   midi.NoteOffEvent(tick=162, channel=0, data=[69, 0]),\n",
      "   midi.NoteOffEvent(tick=70, channel=0, data=[14, 0]),\n",
      "   midi.NoteOffEvent(tick=1, channel=0, data=[34, 0]),\n",
      "   midi.EndOfTrackEvent(tick=0, data=[])]),\n",
      " midi.Track(\\\n",
      "  [midi.SetTempoEvent(tick=0, data=[8, 227, 124]),\n",
      "   midi.ProgramChangeEvent(tick=0, channel=0, data=[50]),\n",
      "   midi.NoteOnEvent(tick=30, channel=0, data=[123, 21]),\n",
      "   midi.NoteOnEvent(tick=39, channel=0, data=[29, 120]),\n",
      "   midi.NoteOnEvent(tick=0, channel=0, data=[73, 119]),\n",
      "   midi.NoteOnEvent(tick=53, channel=0, data=[29, 207]),\n",
      "   midi.NoteOnEvent(tick=4, channel=0, data=[124, 55]),\n",
      "   midi.NoteOnEvent(tick=16, channel=0, data=[10, 78]),\n",
      "   midi.NoteOnEvent(tick=11, channel=0, data=[48, 218]),\n",
      "   midi.NoteOnEvent(tick=8, channel=0, data=[51, 189]),\n",
      "   midi.NoteOnEvent(tick=31, channel=0, data=[8, 9]),\n",
      "   midi.NoteOnEvent(tick=5, channel=0, data=[28, 115]),\n",
      "   midi.NoteOnEvent(tick=8, channel=0, data=[8, 131]),\n",
      "   midi.NoteOnEvent(tick=0, channel=0, data=[124, 238]),\n",
      "   midi.NoteOffEvent(tick=32, channel=0, data=[51, 0]),\n",
      "   midi.NoteOffEvent(tick=38, channel=0, data=[73, 0]),\n",
      "   midi.NoteOffEvent(tick=8, channel=0, data=[8, 0]),\n",
      "   midi.NoteOnEvent(tick=15, channel=0, data=[91, 44]),\n",
      "   midi.NoteOnEvent(tick=1, channel=0, data=[62, 141]),\n",
      "   midi.NoteOnEvent(tick=19, channel=0, data=[119, 44]),\n",
      "   midi.NoteOnEvent(tick=0, channel=0, data=[125, 198]),\n",
      "   midi.NoteOnEvent(tick=27, channel=0, data=[40, 120]),\n",
      "   midi.NoteOnEvent(tick=26, channel=0, data=[21, 227]),\n",
      "   midi.NoteOffEvent(tick=18, channel=0, data=[48, 0]),\n",
      "   midi.NoteOnEvent(tick=2, channel=0, data=[108, 231]),\n",
      "   midi.NoteOnEvent(tick=5, channel=0, data=[61, 78]),\n",
      "   midi.NoteOnEvent(tick=2, channel=0, data=[125, 207]),\n",
      "   midi.NoteOnEvent(tick=27, channel=0, data=[53, 196]),\n",
      "   midi.NoteOnEvent(tick=75, channel=0, data=[68, 139]),\n",
      "   midi.NoteOnEvent(tick=0, channel=0, data=[98, 35]),\n",
      "   midi.NoteOffEvent(tick=13, channel=0, data=[29, 0]),\n",
      "   midi.NoteOnEvent(tick=1, channel=0, data=[69, 127]),\n",
      "   midi.NoteOnEvent(tick=2, channel=0, data=[76, 131]),\n",
      "   midi.NoteOffEvent(tick=2, channel=0, data=[21, 0]),\n",
      "   midi.NoteOffEvent(tick=5, channel=0, data=[76, 0]),\n",
      "   midi.NoteOnEvent(tick=12, channel=0, data=[38, 30]),\n",
      "   midi.NoteOnEvent(tick=19, channel=0, data=[56, 69]),\n",
      "   midi.NoteOnEvent(tick=9, channel=0, data=[127, 132]),\n",
      "   midi.NoteOffEvent(tick=46, channel=0, data=[91, 0]),\n",
      "   midi.NoteOnEvent(tick=7, channel=0, data=[116, 155]),\n",
      "   midi.NoteOffEvent(tick=17, channel=0, data=[116, 0]),\n",
      "   midi.NoteOffEvent(tick=21, channel=0, data=[124, 0]),\n",
      "   midi.NoteOnEvent(tick=3, channel=0, data=[70, 66]),\n",
      "   midi.NoteOnEvent(tick=14, channel=0, data=[97, 54]),\n",
      "   midi.NoteOffEvent(tick=15, channel=0, data=[123, 0]),\n",
      "   midi.NoteOnEvent(tick=8, channel=0, data=[14, 124]),\n",
      "   midi.NoteOffEvent(tick=5, channel=0, data=[70, 0]),\n",
      "   midi.NoteOnEvent(tick=14, channel=0, data=[29, 178]),\n",
      "   midi.NoteOnEvent(tick=2, channel=0, data=[102, 64]),\n",
      "   midi.NoteOnEvent(tick=4, channel=0, data=[122, 148]),\n",
      "   midi.NoteOffEvent(tick=7, channel=0, data=[69, 0]),\n",
      "   midi.NoteOffEvent(tick=4, channel=0, data=[56, 0]),\n",
      "   midi.NoteOnEvent(tick=20, channel=0, data=[30, 176]),\n",
      "   midi.NoteOnEvent(tick=11, channel=0, data=[126, 185]),\n",
      "   midi.NoteOnEvent(tick=47, channel=0, data=[19, 133]),\n",
      "   midi.NoteOffEvent(tick=9, channel=0, data=[10, 0]),\n",
      "   midi.NoteOnEvent(tick=14, channel=0, data=[15, 108]),\n",
      "   midi.NoteOffEvent(tick=4, channel=0, data=[53, 0]),\n",
      "   midi.NoteOnEvent(tick=23, channel=0, data=[11, 7]),\n",
      "   midi.NoteOnEvent(tick=18, channel=0, data=[24, 141]),\n",
      "   midi.NoteOffEvent(tick=12, channel=0, data=[108, 0]),\n",
      "   midi.NoteOnEvent(tick=2, channel=0, data=[76, 182]),\n",
      "   midi.NoteOnEvent(tick=14, channel=0, data=[47, 240]),\n",
      "   midi.NoteOffEvent(tick=7, channel=0, data=[125, 0]),\n",
      "   midi.NoteOffEvent(tick=22, channel=0, data=[40, 0]),\n",
      "   midi.NoteOnEvent(tick=1, channel=0, data=[118, 212]),\n",
      "   midi.NoteOnEvent(tick=8, channel=0, data=[13, 55]),\n",
      "   midi.NoteOnEvent(tick=18, channel=0, data=[43, 28]),\n",
      "   midi.NoteOnEvent(tick=1, channel=0, data=[63, 239]),\n",
      "   midi.NoteOnEvent(tick=1, channel=0, data=[73, 38]),\n",
      "   midi.NoteOnEvent(tick=0, channel=0, data=[84, 234]),\n",
      "   midi.NoteOnEvent(tick=3, channel=0, data=[93, 87]),\n",
      "   midi.NoteOnEvent(tick=12, channel=0, data=[119, 221]),\n",
      "   midi.NoteOnEvent(tick=2, channel=0, data=[77, 133]),\n",
      "   midi.NoteOffEvent(tick=10, channel=0, data=[62, 0]),\n",
      "   midi.NoteOffEvent(tick=12, channel=0, data=[14, 0]),\n",
      "   midi.NoteOffEvent(tick=11, channel=0, data=[43, 0]),\n",
      "   midi.NoteOffEvent(tick=12, channel=0, data=[126, 0]),\n",
      "   midi.NoteOffEvent(tick=15, channel=0, data=[28, 0]),\n",
      "   midi.NoteOffEvent(tick=13, channel=0, data=[63, 0]),\n",
      "   midi.NoteOffEvent(tick=31, channel=0, data=[77, 0]),\n",
      "   midi.NoteOffEvent(tick=14, channel=0, data=[102, 0]),\n",
      "   midi.NoteOffEvent(tick=11, channel=0, data=[15, 0]),\n",
      "   midi.NoteOffEvent(tick=17, channel=0, data=[118, 0]),\n",
      "   midi.NoteOffEvent(tick=5, channel=0, data=[19, 0]),\n",
      "   midi.NoteOffEvent(tick=71, channel=0, data=[30, 0]),\n",
      "   midi.NoteOffEvent(tick=51, channel=0, data=[11, 0]),\n",
      "   midi.NoteOffEvent(tick=18, channel=0, data=[127, 0]),\n",
      "   midi.NoteOffEvent(tick=4, channel=0, data=[61, 0]),\n",
      "   midi.NoteOffEvent(tick=3, channel=0, data=[73, 0]),\n",
      "   midi.NoteOffEvent(tick=31, channel=0, data=[13, 0]),\n",
      "   midi.NoteOffEvent(tick=27, channel=0, data=[97, 0]),\n",
      "   midi.NoteOffEvent(tick=8, channel=0, data=[38, 0]),\n",
      "   midi.NoteOffEvent(tick=1, channel=0, data=[98, 0]),\n",
      "   midi.NoteOffEvent(tick=48, channel=0, data=[29, 0]),\n",
      "   midi.NoteOffEvent(tick=44, channel=0, data=[76, 0]),\n",
      "   midi.NoteOffEvent(tick=23, channel=0, data=[122, 0]),\n",
      "   midi.NoteOffEvent(tick=5, channel=0, data=[68, 0]),\n",
      "   midi.NoteOffEvent(tick=128, channel=0, data=[24, 0]),\n",
      "   midi.NoteOffEvent(tick=16, channel=0, data=[84, 0]),\n",
      "   midi.NoteOffEvent(tick=45, channel=0, data=[119, 0]),\n",
      "   midi.NoteOffEvent(tick=165, channel=0, data=[47, 0]),\n",
      "   midi.NoteOffEvent(tick=110, channel=0, data=[93, 0]),\n",
      "   midi.EndOfTrackEvent(tick=0, data=[])]),\n",
      " midi.Track(\\\n",
      "  [midi.SetTempoEvent(tick=0, data=[8, 227, 124]),\n",
      "   midi.ProgramChangeEvent(tick=0, channel=0, data=[51]),\n",
      "   midi.NoteOnEvent(tick=7, channel=0, data=[75, 52]),\n",
      "   midi.NoteOffEvent(tick=8, channel=0, data=[75, 0]),\n",
      "   midi.NoteOnEvent(tick=3, channel=0, data=[19, 244]),\n",
      "   midi.NoteOnEvent(tick=12, channel=0, data=[67, 175]),\n",
      "   midi.NoteOnEvent(tick=0, channel=0, data=[94, 55]),\n",
      "   midi.NoteOnEvent(tick=2, channel=0, data=[92, 119]),\n",
      "   midi.NoteOnEvent(tick=15, channel=0, data=[118, 209]),\n",
      "   midi.NoteOnEvent(tick=16, channel=0, data=[5, 153]),\n",
      "   midi.NoteOnEvent(tick=0, channel=0, data=[20, 130]),\n",
      "   midi.NoteOnEvent(tick=5, channel=0, data=[103, 114]),\n",
      "   midi.NoteOnEvent(tick=72, channel=0, data=[89, 4]),\n",
      "   midi.NoteOnEvent(tick=6, channel=0, data=[40, 234]),\n",
      "   midi.NoteOnEvent(tick=14, channel=0, data=[82, 192]),\n",
      "   midi.NoteOnEvent(tick=26, channel=0, data=[82, 53]),\n",
      "   midi.NoteOnEvent(tick=36, channel=0, data=[40, 131]),\n",
      "   midi.NoteOnEvent(tick=4, channel=0, data=[108, 26]),\n",
      "   midi.NoteOnEvent(tick=0, channel=0, data=[66, 173]),\n",
      "   midi.NoteOnEvent(tick=5, channel=0, data=[42, 107]),\n",
      "   midi.NoteOnEvent(tick=4, channel=0, data=[115, 247]),\n",
      "   midi.NoteOnEvent(tick=16, channel=0, data=[15, 239]),\n",
      "   midi.NoteOnEvent(tick=3, channel=0, data=[55, 99]),\n",
      "   midi.NoteOnEvent(tick=5, channel=0, data=[106, 155]),\n",
      "   midi.NoteOnEvent(tick=0, channel=0, data=[26, 8]),\n",
      "   midi.NoteOnEvent(tick=0, channel=0, data=[117, 118]),\n",
      "   midi.NoteOnEvent(tick=6, channel=0, data=[11, 191]),\n",
      "   midi.NoteOnEvent(tick=8, channel=0, data=[103, 80]),\n",
      "   midi.NoteOffEvent(tick=7, channel=0, data=[40, 0]),\n",
      "   midi.NoteOnEvent(tick=13, channel=0, data=[45, 6]),\n",
      "   midi.NoteOnEvent(tick=6, channel=0, data=[99, 132]),\n",
      "   midi.NoteOnEvent(tick=0, channel=0, data=[15, 247]),\n",
      "   midi.NoteOffEvent(tick=7, channel=0, data=[82, 0]),\n",
      "   midi.NoteOnEvent(tick=12, channel=0, data=[20, 229]),\n",
      "   midi.NoteOnEvent(tick=17, channel=0, data=[87, 44]),\n",
      "   midi.NoteOnEvent(tick=10, channel=0, data=[52, 39]),\n",
      "   midi.NoteOnEvent(tick=3, channel=0, data=[124, 163]),\n",
      "   midi.NoteOnEvent(tick=38, channel=0, data=[17, 132]),\n",
      "   midi.NoteOnEvent(tick=4, channel=0, data=[105, 195]),\n",
      "   midi.NoteOnEvent(tick=1, channel=0, data=[117, 106]),\n",
      "   midi.NoteOffEvent(tick=3, channel=0, data=[94, 0]),\n",
      "   midi.NoteOnEvent(tick=4, channel=0, data=[102, 174]),\n",
      "   midi.NoteOffEvent(tick=20, channel=0, data=[17, 0]),\n",
      "   midi.NoteOnEvent(tick=7, channel=0, data=[36, 54]),\n",
      "   midi.NoteOnEvent(tick=2, channel=0, data=[50, 59]),\n",
      "   midi.NoteOffEvent(tick=6, channel=0, data=[45, 0]),\n",
      "   midi.NoteOnEvent(tick=18, channel=0, data=[93, 72]),\n",
      "   midi.NoteOnEvent(tick=6, channel=0, data=[41, 164]),\n",
      "   midi.NoteOnEvent(tick=13, channel=0, data=[120, 39]),\n",
      "   midi.NoteOnEvent(tick=1, channel=0, data=[78, 11]),\n",
      "   midi.NoteOnEvent(tick=12, channel=0, data=[51, 113]),\n",
      "   midi.NoteOnEvent(tick=0, channel=0, data=[82, 115]),\n",
      "   midi.NoteOnEvent(tick=25, channel=0, data=[7, 138]),\n",
      "   midi.NoteOffEvent(tick=2, channel=0, data=[67, 0]),\n",
      "   midi.NoteOnEvent(tick=22, channel=0, data=[11, 51]),\n",
      "   midi.NoteOnEvent(tick=14, channel=0, data=[82, 16]),\n",
      "   midi.NoteOnEvent(tick=22, channel=0, data=[126, 131]),\n",
      "   midi.NoteOnEvent(tick=11, channel=0, data=[10, 54]),\n",
      "   midi.NoteOffEvent(tick=11, channel=0, data=[36, 0]),\n",
      "   midi.NoteOffEvent(tick=20, channel=0, data=[115, 0]),\n",
      "   midi.NoteOffEvent(tick=5, channel=0, data=[10, 0]),\n",
      "   midi.NoteOffEvent(tick=0, channel=0, data=[120, 0]),\n",
      "   midi.NoteOnEvent(tick=15, channel=0, data=[52, 239]),\n",
      "   midi.NoteOnEvent(tick=31, channel=0, data=[1, 189]),\n",
      "   midi.NoteOnEvent(tick=8, channel=0, data=[61, 108]),\n",
      "   midi.NoteOnEvent(tick=8, channel=0, data=[82, 57]),\n",
      "   midi.NoteOffEvent(tick=3, channel=0, data=[78, 0]),\n",
      "   midi.NoteOnEvent(tick=0, channel=0, data=[41, 29]),\n",
      "   midi.NoteOffEvent(tick=11, channel=0, data=[118, 0]),\n",
      "   midi.NoteOnEvent(tick=13, channel=0, data=[115, 87]),\n",
      "   midi.NoteOffEvent(tick=7, channel=0, data=[108, 0]),\n",
      "   midi.NoteOnEvent(tick=6, channel=0, data=[26, 97]),\n",
      "   midi.NoteOnEvent(tick=1, channel=0, data=[31, 170]),\n",
      "   midi.NoteOffEvent(tick=19, channel=0, data=[103, 0]),\n",
      "   midi.NoteOnEvent(tick=3, channel=0, data=[42, 185]),\n",
      "   midi.NoteOffEvent(tick=11, channel=0, data=[61, 0]),\n",
      "   midi.NoteOnEvent(tick=1, channel=0, data=[66, 113]),\n",
      "   midi.NoteOnEvent(tick=3, channel=0, data=[95, 76]),\n",
      "   midi.NoteOnEvent(tick=22, channel=0, data=[47, 195]),\n",
      "   midi.NoteOnEvent(tick=2, channel=0, data=[12, 177]),\n",
      "   midi.NoteOnEvent(tick=0, channel=0, data=[73, 233]),\n",
      "   midi.NoteOffEvent(tick=3, channel=0, data=[5, 0]),\n",
      "   midi.NoteOffEvent(tick=32, channel=0, data=[106, 0]),\n",
      "   midi.NoteOnEvent(tick=49, channel=0, data=[112, 67]),\n",
      "   midi.NoteOnEvent(tick=17, channel=0, data=[102, 85]),\n",
      "   midi.NoteOffEvent(tick=2, channel=0, data=[19, 0]),\n",
      "   midi.NoteOffEvent(tick=12, channel=0, data=[115, 0]),\n",
      "   midi.NoteOffEvent(tick=13, channel=0, data=[95, 0]),\n",
      "   midi.NoteOnEvent(tick=10, channel=0, data=[119, 87]),\n",
      "   midi.NoteOffEvent(tick=8, channel=0, data=[52, 0]),\n",
      "   midi.NoteOffEvent(tick=12, channel=0, data=[92, 0]),\n",
      "   midi.NoteOnEvent(tick=13, channel=0, data=[28, 95]),\n",
      "   midi.NoteOnEvent(tick=5, channel=0, data=[79, 187]),\n",
      "   midi.NoteOnEvent(tick=5, channel=0, data=[27, 231]),\n",
      "   midi.NoteOffEvent(tick=1, channel=0, data=[117, 0]),\n",
      "   midi.NoteOffEvent(tick=5, channel=0, data=[55, 0]),\n",
      "   midi.NoteOnEvent(tick=3, channel=0, data=[84, 174]),\n",
      "   midi.NoteOnEvent(tick=22, channel=0, data=[92, 177]),\n",
      "   midi.NoteOnEvent(tick=1, channel=0, data=[97, 150]),\n",
      "   midi.NoteOnEvent(tick=0, channel=0, data=[89, 161]),\n",
      "   midi.NoteOnEvent(tick=0, channel=0, data=[47, 45]),\n",
      "   midi.NoteOnEvent(tick=1, channel=0, data=[83, 233]),\n",
      "   midi.NoteOffEvent(tick=23, channel=0, data=[20, 0]),\n",
      "   midi.NoteOffEvent(tick=1, channel=0, data=[124, 0]),\n",
      "   midi.NoteOffEvent(tick=12, channel=0, data=[15, 0]),\n",
      "   midi.NoteOffEvent(tick=4, channel=0, data=[51, 0]),\n",
      "   midi.NoteOffEvent(tick=11, channel=0, data=[93, 0]),\n",
      "   midi.NoteOffEvent(tick=30, channel=0, data=[27, 0]),\n",
      "   midi.NoteOffEvent(tick=3, channel=0, data=[89, 0]),\n",
      "   midi.NoteOffEvent(tick=13, channel=0, data=[31, 0]),\n",
      "   midi.NoteOffEvent(tick=4, channel=0, data=[99, 0]),\n",
      "   midi.NoteOffEvent(tick=15, channel=0, data=[105, 0]),\n",
      "   midi.NoteOffEvent(tick=52, channel=0, data=[112, 0]),\n",
      "   midi.NoteOffEvent(tick=1, channel=0, data=[26, 0]),\n",
      "   midi.NoteOffEvent(tick=17, channel=0, data=[83, 0]),\n",
      "   midi.NoteOffEvent(tick=12, channel=0, data=[50, 0]),\n",
      "   midi.NoteOffEvent(tick=20, channel=0, data=[87, 0]),\n",
      "   midi.NoteOffEvent(tick=35, channel=0, data=[126, 0]),\n",
      "   midi.NoteOffEvent(tick=21, channel=0, data=[73, 0]),\n",
      "   midi.NoteOffEvent(tick=10, channel=0, data=[41, 0]),\n",
      "   midi.NoteOffEvent(tick=17, channel=0, data=[11, 0]),\n",
      "   midi.NoteOffEvent(tick=52, channel=0, data=[28, 0]),\n",
      "   midi.NoteOffEvent(tick=13, channel=0, data=[79, 0]),\n",
      "   midi.NoteOffEvent(tick=60, channel=0, data=[102, 0]),\n",
      "   midi.NoteOffEvent(tick=33, channel=0, data=[12, 0]),\n",
      "   midi.NoteOffEvent(tick=29, channel=0, data=[42, 0]),\n",
      "   midi.NoteOffEvent(tick=21, channel=0, data=[82, 0]),\n",
      "   midi.NoteOffEvent(tick=4, channel=0, data=[7, 0]),\n",
      "   midi.NoteOffEvent(tick=12, channel=0, data=[1, 0]),\n",
      "   midi.NoteOffEvent(tick=25, channel=0, data=[97, 0]),\n",
      "   midi.NoteOffEvent(tick=48, channel=0, data=[66, 0]),\n",
      "   midi.NoteOffEvent(tick=20, channel=0, data=[119, 0]),\n",
      "   midi.NoteOffEvent(tick=34, channel=0, data=[84, 0]),\n",
      "   midi.NoteOffEvent(tick=135, channel=0, data=[92, 0]),\n",
      "   midi.NoteOffEvent(tick=111, channel=0, data=[47, 0]),\n",
      "   midi.EndOfTrackEvent(tick=0, data=[])]),\n",
      " midi.Track(\\\n",
      "  [midi.SetTempoEvent(tick=0, data=[8, 227, 124]),\n",
      "   midi.ProgramChangeEvent(tick=0, channel=0, data=[52]),\n",
      "   midi.NoteOnEvent(tick=8, channel=0, data=[39, 231]),\n",
      "   midi.NoteOnEvent(tick=10, channel=0, data=[90, 238]),\n",
      "   midi.NoteOnEvent(tick=4, channel=0, data=[94, 221]),\n",
      "   midi.NoteOnEvent(tick=8, channel=0, data=[34, 66]),\n",
      "   midi.NoteOnEvent(tick=5, channel=0, data=[112, 138]),\n",
      "   midi.NoteOffEvent(tick=1, channel=0, data=[94, 0]),\n",
      "   midi.NoteOnEvent(tick=14, channel=0, data=[115, 82]),\n",
      "   midi.NoteOnEvent(tick=4, channel=0, data=[122, 234]),\n",
      "   midi.NoteOffEvent(tick=8, channel=0, data=[122, 0]),\n",
      "   midi.NoteOnEvent(tick=1, channel=0, data=[81, 41]),\n",
      "   midi.NoteOnEvent(tick=6, channel=0, data=[29, 57]),\n",
      "   midi.NoteOnEvent(tick=10, channel=0, data=[43, 155]),\n",
      "   midi.NoteOnEvent(tick=20, channel=0, data=[68, 50]),\n",
      "   midi.NoteOffEvent(tick=6, channel=0, data=[90, 0]),\n",
      "   midi.NoteOnEvent(tick=16, channel=0, data=[67, 172]),\n",
      "   midi.NoteOnEvent(tick=9, channel=0, data=[109, 45]),\n",
      "   midi.NoteOnEvent(tick=25, channel=0, data=[125, 222]),\n",
      "   midi.NoteOnEvent(tick=28, channel=0, data=[72, 221]),\n",
      "   midi.NoteOnEvent(tick=0, channel=0, data=[6, 119]),\n",
      "   midi.NoteOffEvent(tick=12, channel=0, data=[109, 0]),\n",
      "   midi.NoteOnEvent(tick=2, channel=0, data=[44, 12]),\n",
      "   midi.NoteOffEvent(tick=7, channel=0, data=[125, 0]),\n",
      "   midi.NoteOnEvent(tick=31, channel=0, data=[48, 15]),\n",
      "   midi.NoteOnEvent(tick=0, channel=0, data=[40, 44]),\n",
      "   midi.NoteOnEvent(tick=1, channel=0, data=[82, 154]),\n",
      "   midi.NoteOffEvent(tick=1, channel=0, data=[81, 0]),\n",
      "   midi.NoteOnEvent(tick=0, channel=0, data=[117, 221]),\n",
      "   midi.NoteOnEvent(tick=17, channel=0, data=[23, 132]),\n",
      "   midi.NoteOnEvent(tick=2, channel=0, data=[122, 33]),\n",
      "   midi.NoteOnEvent(tick=24, channel=0, data=[50, 8]),\n",
      "   midi.NoteOffEvent(tick=28, channel=0, data=[112, 0]),\n",
      "   midi.NoteOnEvent(tick=0, channel=0, data=[85, 189]),\n",
      "   midi.NoteOffEvent(tick=19, channel=0, data=[29, 0]),\n",
      "   midi.NoteOnEvent(tick=8, channel=0, data=[39, 122]),\n",
      "   midi.NoteOnEvent(tick=2, channel=0, data=[18, 127]),\n",
      "   midi.NoteOnEvent(tick=15, channel=0, data=[75, 99]),\n",
      "   midi.NoteOnEvent(tick=7, channel=0, data=[85, 84]),\n",
      "   midi.NoteOnEvent(tick=12, channel=0, data=[53, 107]),\n",
      "   midi.NoteOnEvent(tick=12, channel=0, data=[107, 188]),\n",
      "   midi.NoteOnEvent(tick=33, channel=0, data=[106, 245]),\n",
      "   midi.NoteOffEvent(tick=11, channel=0, data=[53, 0]),\n",
      "   midi.NoteOnEvent(tick=35, channel=0, data=[41, 92]),\n",
      "   midi.NoteOnEvent(tick=9, channel=0, data=[13, 8]),\n",
      "   midi.NoteOnEvent(tick=8, channel=0, data=[75, 27]),\n",
      "   midi.NoteOffEvent(tick=4, channel=0, data=[72, 0]),\n",
      "   midi.NoteOnEvent(tick=6, channel=0, data=[67, 207]),\n",
      "   midi.NoteOnEvent(tick=19, channel=0, data=[34, 6]),\n",
      "   midi.NoteOffEvent(tick=8, channel=0, data=[48, 0]),\n",
      "   midi.NoteOnEvent(tick=0, channel=0, data=[50, 74]),\n",
      "   midi.NoteOnEvent(tick=0, channel=0, data=[124, 217]),\n",
      "   midi.NoteOffEvent(tick=7, channel=0, data=[117, 0]),\n",
      "   midi.NoteOffEvent(tick=18, channel=0, data=[6, 0]),\n",
      "   midi.NoteOffEvent(tick=3, channel=0, data=[67, 0]),\n",
      "   midi.NoteOnEvent(tick=8, channel=0, data=[80, 141]),\n",
      "   midi.NoteOnEvent(tick=11, channel=0, data=[16, 182]),\n",
      "   midi.NoteOffEvent(tick=8, channel=0, data=[41, 0]),\n",
      "   midi.NoteOnEvent(tick=1, channel=0, data=[3, 63]),\n",
      "   midi.NoteOffEvent(tick=10, channel=0, data=[106, 0]),\n",
      "   midi.NoteOnEvent(tick=9, channel=0, data=[73, 191]),\n",
      "   midi.NoteOnEvent(tick=35, channel=0, data=[127, 31]),\n",
      "   midi.NoteOnEvent(tick=59, channel=0, data=[48, 181]),\n",
      "   midi.NoteOnEvent(tick=7, channel=0, data=[40, 121]),\n",
      "   midi.NoteOffEvent(tick=2, channel=0, data=[16, 0]),\n",
      "   midi.NoteOnEvent(tick=19, channel=0, data=[86, 14]),\n",
      "   midi.NoteOnEvent(tick=4, channel=0, data=[15, 22]),\n",
      "   midi.NoteOffEvent(tick=13, channel=0, data=[13, 0]),\n",
      "   midi.NoteOnEvent(tick=5, channel=0, data=[24, 248]),\n",
      "   midi.NoteOffEvent(tick=24, channel=0, data=[40, 0]),\n",
      "   midi.NoteOnEvent(tick=2, channel=0, data=[100, 161]),\n",
      "   midi.NoteOffEvent(tick=3, channel=0, data=[43, 0]),\n",
      "   midi.NoteOffEvent(tick=17, channel=0, data=[127, 0]),\n",
      "   midi.NoteOffEvent(tick=10, channel=0, data=[122, 0]),\n",
      "   midi.NoteOffEvent(tick=11, channel=0, data=[34, 0]),\n",
      "   midi.NoteOnEvent(tick=6, channel=0, data=[73, 87]),\n",
      "   midi.NoteOffEvent(tick=25, channel=0, data=[23, 0]),\n",
      "   midi.NoteOffEvent(tick=0, channel=0, data=[68, 0]),\n",
      "   midi.NoteOffEvent(tick=2, channel=0, data=[73, 0]),\n",
      "   midi.NoteOffEvent(tick=27, channel=0, data=[44, 0]),\n",
      "   midi.NoteOffEvent(tick=5, channel=0, data=[18, 0]),\n",
      "   midi.NoteOnEvent(tick=8, channel=0, data=[91, 251]),\n",
      "   midi.NoteOnEvent(tick=0, channel=0, data=[112, 252]),\n",
      "   midi.NoteOnEvent(tick=5, channel=0, data=[106, 150]),\n",
      "   midi.NoteOnEvent(tick=8, channel=0, data=[54, 119]),\n",
      "   midi.NoteOffEvent(tick=9, channel=0, data=[115, 0]),\n",
      "   midi.NoteOnEvent(tick=7, channel=0, data=[80, 138]),\n",
      "   midi.NoteOnEvent(tick=9, channel=0, data=[8, 15]),\n",
      "   midi.NoteOnEvent(tick=4, channel=0, data=[87, 209]),\n",
      "   midi.NoteOnEvent(tick=6, channel=0, data=[74, 97]),\n",
      "   midi.NoteOnEvent(tick=16, channel=0, data=[72, 77]),\n",
      "   midi.NoteOffEvent(tick=23, channel=0, data=[107, 0]),\n",
      "   midi.NoteOnEvent(tick=3, channel=0, data=[106, 219]),\n",
      "   midi.NoteOffEvent(tick=2, channel=0, data=[82, 0]),\n",
      "   midi.NoteOnEvent(tick=31, channel=0, data=[56, 158]),\n",
      "   midi.NoteOffEvent(tick=21, channel=0, data=[86, 0]),\n",
      "   midi.NoteOffEvent(tick=18, channel=0, data=[54, 0]),\n",
      "   midi.NoteOffEvent(tick=63, channel=0, data=[124, 0]),\n",
      "   midi.NoteOffEvent(tick=37, channel=0, data=[15, 0]),\n",
      "   midi.NoteOffEvent(tick=6, channel=0, data=[75, 0]),\n",
      "   midi.NoteOffEvent(tick=7, channel=0, data=[106, 0]),\n",
      "   midi.NoteOffEvent(tick=98, channel=0, data=[39, 0]),\n",
      "   midi.NoteOffEvent(tick=6, channel=0, data=[112, 0]),\n",
      "   midi.NoteOffEvent(tick=20, channel=0, data=[48, 0]),\n",
      "   midi.NoteOffEvent(tick=70, channel=0, data=[85, 0]),\n",
      "   midi.NoteOffEvent(tick=4, channel=0, data=[50, 0]),\n",
      "   midi.NoteOffEvent(tick=22, channel=0, data=[87, 0]),\n",
      "   midi.NoteOffEvent(tick=14, channel=0, data=[56, 0]),\n",
      "   midi.NoteOffEvent(tick=111, channel=0, data=[100, 0]),\n",
      "   midi.NoteOffEvent(tick=24, channel=0, data=[3, 0]),\n",
      "   midi.NoteOffEvent(tick=34, channel=0, data=[74, 0]),\n",
      "   midi.NoteOffEvent(tick=42, channel=0, data=[80, 0]),\n",
      "   midi.NoteOffEvent(tick=17, channel=0, data=[72, 0]),\n",
      "   midi.NoteOffEvent(tick=106, channel=0, data=[24, 0]),\n",
      "   midi.NoteOffEvent(tick=105, channel=0, data=[8, 0]),\n",
      "   midi.NoteOffEvent(tick=12, channel=0, data=[91, 0]),\n",
      "   midi.EndOfTrackEvent(tick=0, data=[])]),\n",
      " midi.Track(\\\n",
      "  [midi.SetTempoEvent(tick=0, data=[8, 227, 124]),\n",
      "   midi.ProgramChangeEvent(tick=0, channel=0, data=[53]),\n",
      "   midi.NoteOnEvent(tick=3, channel=0, data=[81, 66]),\n",
      "   midi.NoteOnEvent(tick=19, channel=0, data=[1, 126]),\n",
      "   midi.NoteOnEvent(tick=2, channel=0, data=[110, 216]),\n",
      "   midi.NoteOnEvent(tick=8, channel=0, data=[52, 84]),\n",
      "   midi.NoteOnEvent(tick=21, channel=0, data=[12, 215]),\n",
      "   midi.NoteOnEvent(tick=41, channel=0, data=[33, 118]),\n",
      "   midi.NoteOnEvent(tick=27, channel=0, data=[60, 59]),\n",
      "   midi.NoteOnEvent(tick=5, channel=0, data=[43, 147]),\n",
      "   midi.NoteOnEvent(tick=20, channel=0, data=[81, 115]),\n",
      "   midi.NoteOnEvent(tick=17, channel=0, data=[57, 187]),\n",
      "   midi.NoteOffEvent(tick=5, channel=0, data=[43, 0]),\n",
      "   midi.NoteOnEvent(tick=2, channel=0, data=[29, 123]),\n",
      "   midi.NoteOnEvent(tick=0, channel=0, data=[59, 71]),\n",
      "   midi.NoteOnEvent(tick=16, channel=0, data=[49, 150]),\n",
      "   midi.NoteOnEvent(tick=8, channel=0, data=[24, 20]),\n",
      "   midi.NoteOffEvent(tick=3, channel=0, data=[1, 0]),\n",
      "   midi.NoteOffEvent(tick=0, channel=0, data=[24, 0]),\n",
      "   midi.NoteOffEvent(tick=0, channel=0, data=[29, 0]),\n",
      "   midi.NoteOnEvent(tick=10, channel=0, data=[113, 67]),\n",
      "   midi.NoteOnEvent(tick=19, channel=0, data=[1, 220]),\n",
      "   midi.NoteOnEvent(tick=25, channel=0, data=[83, 176]),\n",
      "   midi.NoteOnEvent(tick=5, channel=0, data=[79, 166]),\n",
      "   midi.NoteOnEvent(tick=9, channel=0, data=[120, 204]),\n",
      "   midi.NoteOnEvent(tick=28, channel=0, data=[120, 16]),\n",
      "   midi.NoteOnEvent(tick=6, channel=0, data=[86, 253]),\n",
      "   midi.NoteOnEvent(tick=10, channel=0, data=[86, 26]),\n",
      "   midi.NoteOnEvent(tick=12, channel=0, data=[121, 170]),\n",
      "   midi.NoteOnEvent(tick=9, channel=0, data=[10, 42]),\n",
      "   midi.NoteOnEvent(tick=7, channel=0, data=[71, 83]),\n",
      "   midi.NoteOffEvent(tick=8, channel=0, data=[121, 0]),\n",
      "   midi.NoteOnEvent(tick=0, channel=0, data=[63, 228]),\n",
      "   midi.NoteOffEvent(tick=2, channel=0, data=[86, 0]),\n",
      "   midi.NoteOnEvent(tick=5, channel=0, data=[59, 218]),\n",
      "   midi.NoteOnEvent(tick=7, channel=0, data=[65, 158]),\n",
      "   midi.NoteOnEvent(tick=0, channel=0, data=[120, 41]),\n",
      "   midi.NoteOnEvent(tick=15, channel=0, data=[41, 159]),\n",
      "   midi.NoteOnEvent(tick=1, channel=0, data=[49, 27]),\n",
      "   midi.NoteOnEvent(tick=95, channel=0, data=[14, 129]),\n",
      "   midi.NoteOnEvent(tick=2, channel=0, data=[14, 178]),\n",
      "   midi.NoteOnEvent(tick=3, channel=0, data=[20, 220]),\n",
      "   midi.NoteOnEvent(tick=0, channel=0, data=[88, 213]),\n",
      "   midi.NoteOnEvent(tick=6, channel=0, data=[64, 126]),\n",
      "   midi.NoteOnEvent(tick=2, channel=0, data=[34, 208]),\n",
      "   midi.NoteOnEvent(tick=49, channel=0, data=[116, 136]),\n",
      "   midi.NoteOffEvent(tick=5, channel=0, data=[1, 0]),\n",
      "   midi.NoteOnEvent(tick=42, channel=0, data=[60, 208]),\n",
      "   midi.NoteOffEvent(tick=35, channel=0, data=[79, 0]),\n",
      "   midi.NoteOnEvent(tick=0, channel=0, data=[53, 80]),\n",
      "   midi.NoteOnEvent(tick=12, channel=0, data=[117, 109]),\n",
      "   midi.NoteOnEvent(tick=6, channel=0, data=[55, 97]),\n",
      "   midi.NoteOnEvent(tick=19, channel=0, data=[88, 114]),\n",
      "   midi.NoteOnEvent(tick=11, channel=0, data=[42, 205]),\n",
      "   midi.NoteOnEvent(tick=4, channel=0, data=[78, 155]),\n",
      "   midi.NoteOnEvent(tick=9, channel=0, data=[84, 204]),\n",
      "   midi.NoteOnEvent(tick=13, channel=0, data=[65, 224]),\n",
      "   midi.NoteOnEvent(tick=2, channel=0, data=[89, 22]),\n",
      "   midi.NoteOffEvent(tick=6, channel=0, data=[113, 0]),\n",
      "   midi.NoteOnEvent(tick=8, channel=0, data=[29, 117]),\n",
      "   midi.NoteOffEvent(tick=13, channel=0, data=[14, 0]),\n",
      "   midi.NoteOffEvent(tick=9, channel=0, data=[12, 0]),\n",
      "   midi.NoteOffEvent(tick=9, channel=0, data=[34, 0]),\n",
      "   midi.NoteOnEvent(tick=4, channel=0, data=[2, 196]),\n",
      "   midi.NoteOnEvent(tick=0, channel=0, data=[92, 60]),\n",
      "   midi.NoteOffEvent(tick=2, channel=0, data=[64, 0]),\n",
      "   midi.NoteOnEvent(tick=3, channel=0, data=[49, 184]),\n",
      "   midi.NoteOffEvent(tick=7, channel=0, data=[55, 0]),\n",
      "   midi.NoteOnEvent(tick=2, channel=0, data=[77, 72]),\n",
      "   midi.NoteOffEvent(tick=10, channel=0, data=[33, 0]),\n",
      "   midi.NoteOffEvent(tick=21, channel=0, data=[92, 0]),\n",
      "   midi.NoteOnEvent(tick=2, channel=0, data=[105, 213]),\n",
      "   midi.NoteOffEvent(tick=7, channel=0, data=[41, 0]),\n",
      "   midi.NoteOffEvent(tick=26, channel=0, data=[78, 0]),\n",
      "   midi.NoteOffEvent(tick=8, channel=0, data=[88, 0]),\n",
      "   midi.NoteOffEvent(tick=9, channel=0, data=[57, 0]),\n",
      "   midi.NoteOffEvent(tick=13, channel=0, data=[52, 0]),\n",
      "   midi.NoteOnEvent(tick=9, channel=0, data=[16, 8]),\n",
      "   midi.NoteOffEvent(tick=10, channel=0, data=[81, 0]),\n",
      "   midi.NoteOnEvent(tick=12, channel=0, data=[85, 175]),\n",
      "   midi.NoteOnEvent(tick=7, channel=0, data=[65, 150]),\n",
      "   midi.NoteOnEvent(tick=20, channel=0, data=[84, 45]),\n",
      "   midi.NoteOffEvent(tick=22, channel=0, data=[29, 0]),\n",
      "   midi.NoteOnEvent(tick=2, channel=0, data=[28, 47]),\n",
      "   midi.NoteOffEvent(tick=3, channel=0, data=[110, 0]),\n",
      "   midi.NoteOnEvent(tick=0, channel=0, data=[7, 25]),\n",
      "   midi.NoteOnEvent(tick=15, channel=0, data=[79, 110]),\n",
      "   midi.NoteOffEvent(tick=6, channel=0, data=[71, 0]),\n",
      "   midi.NoteOffEvent(tick=3, channel=0, data=[59, 0]),\n",
      "   midi.NoteOnEvent(tick=11, channel=0, data=[69, 82]),\n",
      "   midi.NoteOnEvent(tick=23, channel=0, data=[85, 209]),\n",
      "   midi.NoteOffEvent(tick=28, channel=0, data=[10, 0]),\n",
      "   midi.NoteOffEvent(tick=20, channel=0, data=[83, 0]),\n",
      "   midi.NoteOffEvent(tick=46, channel=0, data=[63, 0]),\n",
      "   midi.NoteOffEvent(tick=18, channel=0, data=[89, 0]),\n",
      "   midi.NoteOffEvent(tick=80, channel=0, data=[120, 0]),\n",
      "   midi.NoteOffEvent(tick=13, channel=0, data=[20, 0]),\n",
      "   midi.NoteOffEvent(tick=76, channel=0, data=[105, 0]),\n",
      "   midi.NoteOffEvent(tick=34, channel=0, data=[117, 0]),\n",
      "   midi.NoteOffEvent(tick=3, channel=0, data=[84, 0]),\n",
      "   midi.NoteOffEvent(tick=32, channel=0, data=[116, 0]),\n",
      "   midi.NoteOffEvent(tick=44, channel=0, data=[60, 0]),\n",
      "   midi.NoteOffEvent(tick=50, channel=0, data=[42, 0]),\n",
      "   midi.NoteOffEvent(tick=11, channel=0, data=[79, 0]),\n",
      "   midi.NoteOffEvent(tick=78, channel=0, data=[2, 0]),\n",
      "   midi.NoteOffEvent(tick=1, channel=0, data=[85, 0]),\n",
      "   midi.NoteOffEvent(tick=21, channel=0, data=[65, 0]),\n",
      "   midi.NoteOffEvent(tick=4, channel=0, data=[28, 0]),\n",
      "   midi.NoteOffEvent(tick=8, channel=0, data=[49, 0]),\n",
      "   midi.NoteOffEvent(tick=21, channel=0, data=[53, 0]),\n",
      "   midi.NoteOffEvent(tick=74, channel=0, data=[77, 0]),\n",
      "   midi.NoteOffEvent(tick=36, channel=0, data=[69, 0]),\n",
      "   midi.NoteOffEvent(tick=62, channel=0, data=[16, 0]),\n",
      "   midi.NoteOffEvent(tick=177, channel=0, data=[7, 0]),\n",
      "   midi.EndOfTrackEvent(tick=0, data=[])]),\n",
      " midi.Track(\\\n",
      "  [midi.SetTempoEvent(tick=0, data=[8, 227, 124]),\n",
      "   midi.ProgramChangeEvent(tick=0, channel=0, data=[54]),\n",
      "   midi.NoteOnEvent(tick=8, channel=0, data=[7, 57]),\n",
      "   midi.NoteOnEvent(tick=0, channel=0, data=[34, 8]),\n",
      "   midi.NoteOnEvent(tick=42, channel=0, data=[39, 116]),\n",
      "   midi.NoteOnEvent(tick=3, channel=0, data=[40, 92]),\n",
      "   midi.NoteOnEvent(tick=16, channel=0, data=[105, 52]),\n",
      "   midi.NoteOnEvent(tick=50, channel=0, data=[85, 35]),\n",
      "   midi.NoteOnEvent(tick=26, channel=0, data=[123, 38]),\n",
      "   midi.NoteOnEvent(tick=1, channel=0, data=[33, 33]),\n",
      "   midi.NoteOnEvent(tick=24, channel=0, data=[1, 170]),\n",
      "   midi.NoteOnEvent(tick=0, channel=0, data=[10, 206]),\n",
      "   midi.NoteOnEvent(tick=6, channel=0, data=[54, 171]),\n",
      "   midi.NoteOnEvent(tick=1, channel=0, data=[101, 58]),\n",
      "   midi.NoteOnEvent(tick=13, channel=0, data=[124, 209]),\n",
      "   midi.NoteOnEvent(tick=17, channel=0, data=[106, 200]),\n",
      "   midi.NoteOffEvent(tick=10, channel=0, data=[39, 0]),\n",
      "   midi.NoteOnEvent(tick=29, channel=0, data=[6, 194]),\n",
      "   midi.NoteOnEvent(tick=0, channel=0, data=[118, 187]),\n",
      "   midi.NoteOnEvent(tick=11, channel=0, data=[109, 96]),\n",
      "   midi.NoteOnEvent(tick=36, channel=0, data=[26, 225]),\n",
      "   midi.NoteOnEvent(tick=10, channel=0, data=[3, 96]),\n",
      "   midi.NoteOnEvent(tick=5, channel=0, data=[32, 104]),\n",
      "   midi.NoteOnEvent(tick=1, channel=0, data=[109, 149]),\n",
      "   midi.NoteOffEvent(tick=39, channel=0, data=[34, 0]),\n",
      "   midi.NoteOffEvent(tick=14, channel=0, data=[118, 0]),\n",
      "   midi.NoteOnEvent(tick=9, channel=0, data=[19, 81]),\n",
      "   midi.NoteOffEvent(tick=1, channel=0, data=[109, 0]),\n",
      "   midi.NoteOffEvent(tick=4, channel=0, data=[1, 0]),\n",
      "   midi.NoteOffEvent(tick=12, channel=0, data=[40, 0]),\n",
      "   midi.NoteOnEvent(tick=3, channel=0, data=[26, 215]),\n",
      "   midi.NoteOnEvent(tick=13, channel=0, data=[79, 7]),\n",
      "   midi.NoteOnEvent(tick=2, channel=0, data=[102, 179]),\n",
      "   midi.NoteOnEvent(tick=9, channel=0, data=[112, 16]),\n",
      "   midi.NoteOffEvent(tick=19, channel=0, data=[19, 0]),\n",
      "   midi.NoteOnEvent(tick=6, channel=0, data=[109, 40]),\n",
      "   midi.NoteOnEvent(tick=17, channel=0, data=[103, 144]),\n",
      "   midi.NoteOnEvent(tick=17, channel=0, data=[98, 116]),\n",
      "   midi.NoteOffEvent(tick=12, channel=0, data=[112, 0]),\n",
      "   midi.NoteOffEvent(tick=21, channel=0, data=[32, 0]),\n",
      "   midi.NoteOnEvent(tick=11, channel=0, data=[74, 155]),\n",
      "   midi.NoteOnEvent(tick=3, channel=0, data=[76, 37]),\n",
      "   midi.NoteOffEvent(tick=38, channel=0, data=[124, 0]),\n",
      "   midi.NoteOnEvent(tick=1, channel=0, data=[58, 229]),\n",
      "   midi.NoteOnEvent(tick=13, channel=0, data=[6, 224]),\n",
      "   midi.NoteOnEvent(tick=2, channel=0, data=[73, 71]),\n",
      "   midi.NoteOnEvent(tick=4, channel=0, data=[57, 151]),\n",
      "   midi.NoteOnEvent(tick=2, channel=0, data=[15, 159]),\n",
      "   midi.NoteOnEvent(tick=9, channel=0, data=[63, 159]),\n",
      "   midi.NoteOffEvent(tick=4, channel=0, data=[10, 0]),\n",
      "   midi.NoteOffEvent(tick=0, channel=0, data=[85, 0]),\n",
      "   midi.NoteOnEvent(tick=3, channel=0, data=[74, 111]),\n",
      "   midi.NoteOffEvent(tick=11, channel=0, data=[106, 0]),\n",
      "   midi.NoteOffEvent(tick=5, channel=0, data=[105, 0]),\n",
      "   midi.NoteOnEvent(tick=8, channel=0, data=[63, 53]),\n",
      "   midi.NoteOnEvent(tick=13, channel=0, data=[24, 245]),\n",
      "   midi.NoteOnEvent(tick=35, channel=0, data=[106, 48]),\n",
      "   midi.NoteOffEvent(tick=4, channel=0, data=[57, 0]),\n",
      "   midi.NoteOffEvent(tick=1, channel=0, data=[74, 0]),\n",
      "   midi.NoteOffEvent(tick=63, channel=0, data=[102, 0]),\n",
      "   midi.NoteOnEvent(tick=15, channel=0, data=[115, 254]),\n",
      "   midi.NoteOffEvent(tick=5, channel=0, data=[15, 0]),\n",
      "   midi.NoteOnEvent(tick=7, channel=0, data=[10, 176]),\n",
      "   midi.NoteOnEvent(tick=13, channel=0, data=[100, 187]),\n",
      "   midi.NoteOffEvent(tick=18, channel=0, data=[54, 0]),\n",
      "   midi.NoteOnEvent(tick=12, channel=0, data=[19, 142]),\n",
      "   midi.NoteOnEvent(tick=37, channel=0, data=[88, 125]),\n",
      "   midi.NoteOnEvent(tick=14, channel=0, data=[115, 245]),\n",
      "   midi.NoteOffEvent(tick=5, channel=0, data=[101, 0]),\n",
      "   midi.NoteOffEvent(tick=1, channel=0, data=[7, 0]),\n",
      "   midi.NoteOnEvent(tick=26, channel=0, data=[91, 228]),\n",
      "   midi.NoteOffEvent(tick=14, channel=0, data=[98, 0]),\n",
      "   midi.NoteOffEvent(tick=7, channel=0, data=[100, 0]),\n",
      "   midi.NoteOnEvent(tick=6, channel=0, data=[57, 255]),\n",
      "   midi.NoteOnEvent(tick=0, channel=0, data=[54, 239]),\n",
      "   midi.NoteOffEvent(tick=12, channel=0, data=[79, 0]),\n",
      "   midi.NoteOnEvent(tick=5, channel=0, data=[120, 70]),\n",
      "   midi.NoteOnEvent(tick=5, channel=0, data=[22, 221]),\n",
      "   midi.NoteOnEvent(tick=10, channel=0, data=[48, 184]),\n",
      "   midi.NoteOnEvent(tick=13, channel=0, data=[3, 75]),\n",
      "   midi.NoteOffEvent(tick=4, channel=0, data=[76, 0]),\n",
      "   midi.NoteOnEvent(tick=3, channel=0, data=[56, 91]),\n",
      "   midi.NoteOnEvent(tick=3, channel=0, data=[95, 24]),\n",
      "   midi.NoteOnEvent(tick=19, channel=0, data=[29, 174]),\n",
      "   midi.NoteOnEvent(tick=2, channel=0, data=[117, 147]),\n",
      "   midi.NoteOnEvent(tick=6, channel=0, data=[9, 107]),\n",
      "   midi.NoteOffEvent(tick=28, channel=0, data=[33, 0]),\n",
      "   midi.NoteOffEvent(tick=18, channel=0, data=[48, 0]),\n",
      "   midi.NoteOffEvent(tick=0, channel=0, data=[58, 0]),\n",
      "   midi.NoteOffEvent(tick=2, channel=0, data=[123, 0]),\n",
      "   midi.NoteOffEvent(tick=12, channel=0, data=[63, 0]),\n",
      "   midi.NoteOffEvent(tick=5, channel=0, data=[115, 0]),\n",
      "   midi.NoteOffEvent(tick=26, channel=0, data=[91, 0]),\n",
      "   midi.NoteOffEvent(tick=6, channel=0, data=[73, 0]),\n",
      "   midi.NoteOffEvent(tick=55, channel=0, data=[26, 0]),\n",
      "   midi.NoteOffEvent(tick=16, channel=0, data=[56, 0]),\n",
      "   midi.NoteOffEvent(tick=27, channel=0, data=[88, 0]),\n",
      "   midi.NoteOffEvent(tick=54, channel=0, data=[9, 0]),\n",
      "   midi.NoteOffEvent(tick=39, channel=0, data=[6, 0]),\n",
      "   midi.NoteOffEvent(tick=13, channel=0, data=[103, 0]),\n",
      "   midi.NoteOffEvent(tick=19, channel=0, data=[10, 0]),\n",
      "   midi.NoteOffEvent(tick=6, channel=0, data=[109, 0]),\n",
      "   midi.NoteOffEvent(tick=23, channel=0, data=[3, 0]),\n",
      "   midi.NoteOffEvent(tick=6, channel=0, data=[95, 0]),\n",
      "   midi.NoteOffEvent(tick=169, channel=0, data=[54, 0]),\n",
      "   midi.NoteOffEvent(tick=21, channel=0, data=[24, 0]),\n",
      "   midi.NoteOffEvent(tick=17, channel=0, data=[19, 0]),\n",
      "   midi.NoteOffEvent(tick=26, channel=0, data=[106, 0]),\n",
      "   midi.NoteOffEvent(tick=61, channel=0, data=[57, 0]),\n",
      "   midi.NoteOffEvent(tick=25, channel=0, data=[117, 0]),\n",
      "   midi.NoteOffEvent(tick=33, channel=0, data=[22, 0]),\n",
      "   midi.NoteOffEvent(tick=201, channel=0, data=[120, 0]),\n",
      "   midi.NoteOffEvent(tick=35, channel=0, data=[29, 0]),\n",
      "   midi.EndOfTrackEvent(tick=0, data=[])]),\n",
      " midi.Track(\\\n",
      "  [midi.SetTempoEvent(tick=0, data=[8, 227, 124]),\n",
      "   midi.ProgramChangeEvent(tick=0, channel=0, data=[55]),\n",
      "   midi.NoteOnEvent(tick=50, channel=0, data=[78, 118]),\n",
      "   midi.NoteOnEvent(tick=3, channel=0, data=[50, 195]),\n",
      "   midi.NoteOnEvent(tick=10, channel=0, data=[121, 28]),\n",
      "   midi.NoteOnEvent(tick=31, channel=0, data=[38, 195]),\n",
      "   midi.NoteOnEvent(tick=8, channel=0, data=[73, 110]),\n",
      "   midi.NoteOffEvent(tick=2, channel=0, data=[38, 0]),\n",
      "   midi.NoteOffEvent(tick=3, channel=0, data=[50, 0]),\n",
      "   midi.NoteOnEvent(tick=5, channel=0, data=[45, 114]),\n",
      "   midi.NoteOnEvent(tick=25, channel=0, data=[28, 30]),\n",
      "   midi.NoteOnEvent(tick=1, channel=0, data=[123, 26]),\n",
      "   midi.NoteOnEvent(tick=8, channel=0, data=[105, 80]),\n",
      "   midi.NoteOnEvent(tick=7, channel=0, data=[41, 183]),\n",
      "   midi.NoteOffEvent(tick=1, channel=0, data=[78, 0]),\n",
      "   midi.NoteOnEvent(tick=9, channel=0, data=[67, 104]),\n",
      "   midi.NoteOnEvent(tick=14, channel=0, data=[15, 210]),\n",
      "   midi.NoteOnEvent(tick=4, channel=0, data=[19, 2]),\n",
      "   midi.NoteOnEvent(tick=11, channel=0, data=[121, 230]),\n",
      "   midi.NoteOnEvent(tick=13, channel=0, data=[107, 7]),\n",
      "   midi.NoteOnEvent(tick=2, channel=0, data=[62, 139]),\n",
      "   midi.NoteOnEvent(tick=2, channel=0, data=[88, 242]),\n",
      "   midi.NoteOnEvent(tick=11, channel=0, data=[82, 113]),\n",
      "   midi.NoteOnEvent(tick=6, channel=0, data=[101, 159]),\n",
      "   midi.NoteOnEvent(tick=2, channel=0, data=[104, 147]),\n",
      "   midi.NoteOnEvent(tick=4, channel=0, data=[6, 105]),\n",
      "   midi.NoteOnEvent(tick=13, channel=0, data=[39, 195]),\n",
      "   midi.NoteOnEvent(tick=0, channel=0, data=[39, 179]),\n",
      "   midi.NoteOffEvent(tick=9, channel=0, data=[62, 0]),\n",
      "   midi.NoteOnEvent(tick=0, channel=0, data=[38, 231]),\n",
      "   midi.NoteOnEvent(tick=0, channel=0, data=[45, 169]),\n",
      "   midi.NoteOnEvent(tick=49, channel=0, data=[74, 124]),\n",
      "   midi.NoteOffEvent(tick=46, channel=0, data=[123, 0]),\n",
      "   midi.NoteOnEvent(tick=8, channel=0, data=[18, 160]),\n",
      "   midi.NoteOnEvent(tick=14, channel=0, data=[114, 61]),\n",
      "   midi.NoteOffEvent(tick=2, channel=0, data=[28, 0]),\n",
      "   midi.NoteOnEvent(tick=25, channel=0, data=[122, 186]),\n",
      "   midi.NoteOnEvent(tick=12, channel=0, data=[123, 169]),\n",
      "   midi.NoteOffEvent(tick=61, channel=0, data=[122, 0]),\n",
      "   midi.NoteOnEvent(tick=0, channel=0, data=[106, 129]),\n",
      "   midi.NoteOnEvent(tick=2, channel=0, data=[62, 143]),\n",
      "   midi.NoteOffEvent(tick=24, channel=0, data=[101, 0]),\n",
      "   midi.NoteOnEvent(tick=19, channel=0, data=[66, 122]),\n",
      "   midi.NoteOffEvent(tick=6, channel=0, data=[6, 0]),\n",
      "   midi.NoteOnEvent(tick=13, channel=0, data=[47, 2]),\n",
      "   midi.NoteOnEvent(tick=11, channel=0, data=[95, 154]),\n",
      "   midi.NoteOnEvent(tick=28, channel=0, data=[34, 235]),\n",
      "   midi.NoteOffEvent(tick=16, channel=0, data=[74, 0]),\n",
      "   midi.NoteOnEvent(tick=7, channel=0, data=[27, 94]),\n",
      "   midi.NoteOnEvent(tick=17, channel=0, data=[13, 228]),\n",
      "   midi.NoteOffEvent(tick=1, channel=0, data=[106, 0]),\n",
      "   midi.NoteOffEvent(tick=20, channel=0, data=[105, 0]),\n",
      "   midi.NoteOnEvent(tick=0, channel=0, data=[5, 199]),\n",
      "   midi.NoteOffEvent(tick=1, channel=0, data=[47, 0]),\n",
      "   midi.NoteOnEvent(tick=3, channel=0, data=[60, 243]),\n",
      "   midi.NoteOnEvent(tick=11, channel=0, data=[74, 214]),\n",
      "   midi.NoteOnEvent(tick=15, channel=0, data=[3, 212]),\n",
      "   midi.NoteOnEvent(tick=1, channel=0, data=[24, 222]),\n",
      "   midi.NoteOnEvent(tick=18, channel=0, data=[14, 133]),\n",
      "   midi.NoteOffEvent(tick=31, channel=0, data=[73, 0]),\n",
      "   midi.NoteOnEvent(tick=0, channel=0, data=[108, 225]),\n",
      "   midi.NoteOffEvent(tick=1, channel=0, data=[82, 0]),\n",
      "   midi.NoteOnEvent(tick=3, channel=0, data=[46, 67]),\n",
      "   midi.NoteOffEvent(tick=2, channel=0, data=[19, 0]),\n",
      "   midi.NoteOnEvent(tick=14, channel=0, data=[71, 79]),\n",
      "   midi.NoteOffEvent(tick=2, channel=0, data=[5, 0]),\n",
      "   midi.NoteOnEvent(tick=24, channel=0, data=[66, 77]),\n",
      "   midi.NoteOffEvent(tick=16, channel=0, data=[104, 0]),\n",
      "   midi.NoteOnEvent(tick=0, channel=0, data=[97, 236]),\n",
      "   midi.NoteOffEvent(tick=7, channel=0, data=[88, 0]),\n",
      "   midi.NoteOffEvent(tick=5, channel=0, data=[24, 0]),\n",
      "   midi.NoteOnEvent(tick=0, channel=0, data=[118, 162]),\n",
      "   midi.NoteOnEvent(tick=2, channel=0, data=[76, 100]),\n",
      "   midi.NoteOnEvent(tick=5, channel=0, data=[15, 225]),\n",
      "   midi.NoteOnEvent(tick=62, channel=0, data=[6, 108]),\n",
      "   midi.NoteOnEvent(tick=0, channel=0, data=[54, 38]),\n",
      "   midi.NoteOffEvent(tick=5, channel=0, data=[45, 0]),\n",
      "   midi.NoteOffEvent(tick=10, channel=0, data=[121, 0]),\n",
      "   midi.NoteOnEvent(tick=3, channel=0, data=[38, 114]),\n",
      "   midi.NoteOnEvent(tick=0, channel=0, data=[29, 91]),\n",
      "   midi.NoteOnEvent(tick=4, channel=0, data=[46, 212]),\n",
      "   midi.NoteOnEvent(tick=10, channel=0, data=[26, 162]),\n",
      "   midi.NoteOffEvent(tick=13, channel=0, data=[67, 0]),\n",
      "   midi.NoteOffEvent(tick=29, channel=0, data=[107, 0]),\n",
      "   midi.NoteOnEvent(tick=2, channel=0, data=[119, 20]),\n",
      "   midi.NoteOnEvent(tick=5, channel=0, data=[41, 10]),\n",
      "   midi.NoteOffEvent(tick=1, channel=0, data=[3, 0]),\n",
      "   midi.NoteOffEvent(tick=8, channel=0, data=[74, 0]),\n",
      "   midi.NoteOnEvent(tick=1, channel=0, data=[103, 122]),\n",
      "   midi.NoteOnEvent(tick=12, channel=0, data=[109, 200]),\n",
      "   midi.NoteOnEvent(tick=8, channel=0, data=[112, 161]),\n",
      "   midi.NoteOnEvent(tick=23, channel=0, data=[68, 92]),\n",
      "   midi.NoteOffEvent(tick=8, channel=0, data=[114, 0]),\n",
      "   midi.NoteOffEvent(tick=14, channel=0, data=[66, 0]),\n",
      "   midi.NoteOffEvent(tick=16, channel=0, data=[68, 0]),\n",
      "   midi.NoteOffEvent(tick=0, channel=0, data=[118, 0]),\n",
      "   midi.NoteOffEvent(tick=22, channel=0, data=[108, 0]),\n",
      "   midi.NoteOffEvent(tick=52, channel=0, data=[71, 0]),\n",
      "   midi.NoteOffEvent(tick=16, channel=0, data=[112, 0]),\n",
      "   midi.NoteOffEvent(tick=4, channel=0, data=[123, 0]),\n",
      "   midi.NoteOffEvent(tick=25, channel=0, data=[41, 0]),\n",
      "   midi.NoteOffEvent(tick=56, channel=0, data=[60, 0]),\n",
      "   midi.NoteOffEvent(tick=1, channel=0, data=[27, 0]),\n",
      "   midi.NoteOffEvent(tick=21, channel=0, data=[39, 0]),\n",
      "   midi.NoteOffEvent(tick=18, channel=0, data=[95, 0]),\n",
      "   midi.NoteOffEvent(tick=7, channel=0, data=[62, 0]),\n",
      "   midi.NoteOffEvent(tick=20, channel=0, data=[18, 0]),\n",
      "   midi.NoteOffEvent(tick=97, channel=0, data=[13, 0]),\n",
      "   midi.NoteOffEvent(tick=38, channel=0, data=[15, 0]),\n",
      "   midi.NoteOffEvent(tick=15, channel=0, data=[6, 0]),\n",
      "   midi.NoteOffEvent(tick=49, channel=0, data=[54, 0]),\n",
      "   midi.NoteOffEvent(tick=1, channel=0, data=[29, 0]),\n",
      "   midi.NoteOffEvent(tick=49, channel=0, data=[109, 0]),\n",
      "   midi.NoteOffEvent(tick=14, channel=0, data=[38, 0]),\n",
      "   midi.NoteOffEvent(tick=32, channel=0, data=[34, 0]),\n",
      "   midi.NoteOffEvent(tick=20, channel=0, data=[46, 0]),\n",
      "   midi.NoteOffEvent(tick=7, channel=0, data=[97, 0]),\n",
      "   midi.NoteOffEvent(tick=66, channel=0, data=[14, 0]),\n",
      "   midi.NoteOffEvent(tick=59, channel=0, data=[119, 0]),\n",
      "   midi.NoteOffEvent(tick=134, channel=0, data=[26, 0]),\n",
      "   midi.NoteOffEvent(tick=81, channel=0, data=[103, 0]),\n",
      "   midi.EndOfTrackEvent(tick=0, data=[])]),\n",
      " midi.Track(\\\n",
      "  [midi.SetTempoEvent(tick=0, data=[8, 227, 124]),\n",
      "   midi.ProgramChangeEvent(tick=0, channel=0, data=[56]),\n",
      "   midi.NoteOnEvent(tick=42, channel=0, data=[65, 61]),\n",
      "   midi.NoteOnEvent(tick=0, channel=0, data=[106, 70]),\n",
      "   midi.NoteOnEvent(tick=10, channel=0, data=[71, 141]),\n",
      "   midi.NoteOnEvent(tick=17, channel=0, data=[110, 122]),\n",
      "   midi.NoteOnEvent(tick=9, channel=0, data=[86, 41]),\n",
      "   midi.NoteOnEvent(tick=39, channel=0, data=[25, 235]),\n",
      "   midi.NoteOnEvent(tick=20, channel=0, data=[37, 227]),\n",
      "   midi.NoteOnEvent(tick=5, channel=0, data=[45, 83]),\n",
      "   midi.NoteOnEvent(tick=4, channel=0, data=[39, 177]),\n",
      "   midi.NoteOnEvent(tick=15, channel=0, data=[39, 66]),\n",
      "   midi.NoteOnEvent(tick=48, channel=0, data=[20, 172]),\n",
      "   midi.NoteOnEvent(tick=11, channel=0, data=[26, 34]),\n",
      "   midi.NoteOffEvent(tick=2, channel=0, data=[25, 0]),\n",
      "   midi.NoteOffEvent(tick=29, channel=0, data=[20, 0]),\n",
      "   midi.NoteOffEvent(tick=2, channel=0, data=[39, 0]),\n",
      "   midi.NoteOffEvent(tick=137, channel=0, data=[45, 0]),\n",
      "   midi.NoteOnEvent(tick=16, channel=0, data=[115, 96]),\n",
      "   midi.NoteOnEvent(tick=9, channel=0, data=[27, 112]),\n",
      "   midi.NoteOnEvent(tick=1, channel=0, data=[70, 210]),\n",
      "   midi.NoteOnEvent(tick=46, channel=0, data=[34, 76]),\n",
      "   midi.NoteOnEvent(tick=12, channel=0, data=[35, 160]),\n",
      "   midi.NoteOnEvent(tick=1, channel=0, data=[8, 81]),\n",
      "   midi.NoteOnEvent(tick=40, channel=0, data=[49, 22]),\n",
      "   midi.NoteOnEvent(tick=17, channel=0, data=[13, 89]),\n",
      "   midi.NoteOffEvent(tick=21, channel=0, data=[86, 0]),\n",
      "   midi.NoteOnEvent(tick=0, channel=0, data=[46, 179]),\n",
      "   midi.NoteOffEvent(tick=1, channel=0, data=[46, 0]),\n",
      "   midi.NoteOnEvent(tick=1, channel=0, data=[41, 232]),\n",
      "   midi.NoteOnEvent(tick=2, channel=0, data=[76, 107]),\n",
      "   midi.NoteOnEvent(tick=14, channel=0, data=[108, 117]),\n",
      "   midi.NoteOnEvent(tick=22, channel=0, data=[13, 120]),\n",
      "   midi.NoteOffEvent(tick=34, channel=0, data=[65, 0]),\n",
      "   midi.NoteOffEvent(tick=3, channel=0, data=[37, 0]),\n",
      "   midi.NoteOffEvent(tick=12, channel=0, data=[70, 0]),\n",
      "   midi.NoteOnEvent(tick=27, channel=0, data=[68, 252]),\n",
      "   midi.NoteOnEvent(tick=2, channel=0, data=[66, 16]),\n",
      "   midi.NoteOnEvent(tick=17, channel=0, data=[55, 197]),\n",
      "   midi.NoteOffEvent(tick=38, channel=0, data=[13, 0]),\n",
      "   midi.NoteOnEvent(tick=10, channel=0, data=[16, 95]),\n",
      "   midi.NoteOffEvent(tick=1, channel=0, data=[8, 0]),\n",
      "   midi.NoteOnEvent(tick=2, channel=0, data=[124, 151]),\n",
      "   midi.NoteOnEvent(tick=5, channel=0, data=[64, 138]),\n",
      "   midi.NoteOffEvent(tick=1, channel=0, data=[41, 0]),\n",
      "   midi.NoteOnEvent(tick=7, channel=0, data=[80, 197]),\n",
      "   midi.NoteOnEvent(tick=0, channel=0, data=[98, 84]),\n",
      "   midi.NoteOnEvent(tick=20, channel=0, data=[45, 236]),\n",
      "   midi.NoteOnEvent(tick=7, channel=0, data=[12, 194]),\n",
      "   midi.NoteOnEvent(tick=17, channel=0, data=[53, 10]),\n",
      "   midi.NoteOffEvent(tick=5, channel=0, data=[71, 0]),\n",
      "   midi.NoteOffEvent(tick=7, channel=0, data=[106, 0]),\n",
      "   midi.NoteOnEvent(tick=11, channel=0, data=[59, 167]),\n",
      "   midi.NoteOnEvent(tick=61, channel=0, data=[25, 95]),\n",
      "   midi.NoteOnEvent(tick=3, channel=0, data=[13, 45]),\n",
      "   midi.NoteOnEvent(tick=0, channel=0, data=[9, 27]),\n",
      "   midi.NoteOffEvent(tick=16, channel=0, data=[110, 0]),\n",
      "   midi.NoteOnEvent(tick=0, channel=0, data=[110, 38]),\n",
      "   midi.NoteOffEvent(tick=2, channel=0, data=[27, 0]),\n",
      "   midi.NoteOffEvent(tick=18, channel=0, data=[34, 0]),\n",
      "   midi.NoteOnEvent(tick=19, channel=0, data=[52, 21]),\n",
      "   midi.NoteOffEvent(tick=9, channel=0, data=[12, 0]),\n",
      "   midi.NoteOnEvent(tick=32, channel=0, data=[60, 101]),\n",
      "   midi.NoteOnEvent(tick=13, channel=0, data=[29, 182]),\n",
      "   midi.NoteOffEvent(tick=1, channel=0, data=[80, 0]),\n",
      "   midi.NoteOffEvent(tick=31, channel=0, data=[16, 0]),\n",
      "   midi.NoteOffEvent(tick=20, channel=0, data=[49, 0]),\n",
      "   midi.NoteOffEvent(tick=32, channel=0, data=[26, 0]),\n",
      "   midi.NoteOffEvent(tick=23, channel=0, data=[55, 0]),\n",
      "   midi.NoteOffEvent(tick=40, channel=0, data=[35, 0]),\n",
      "   midi.NoteOffEvent(tick=1, channel=0, data=[53, 0]),\n",
      "   midi.NoteOffEvent(tick=1, channel=0, data=[110, 0]),\n",
      "   midi.NoteOffEvent(tick=35, channel=0, data=[115, 0]),\n",
      "   midi.NoteOffEvent(tick=52, channel=0, data=[68, 0]),\n",
      "   midi.NoteOffEvent(tick=12, channel=0, data=[13, 0]),\n",
      "   midi.NoteOffEvent(tick=14, channel=0, data=[60, 0]),\n",
      "   midi.NoteOffEvent(tick=69, channel=0, data=[29, 0]),\n",
      "   midi.NoteOffEvent(tick=64, channel=0, data=[124, 0]),\n",
      "   midi.NoteOffEvent(tick=11, channel=0, data=[59, 0]),\n",
      "   midi.NoteOffEvent(tick=1, channel=0, data=[76, 0]),\n",
      "   midi.NoteOffEvent(tick=42, channel=0, data=[98, 0]),\n",
      "   midi.NoteOffEvent(tick=36, channel=0, data=[108, 0]),\n",
      "   midi.NoteOffEvent(tick=33, channel=0, data=[64, 0]),\n",
      "   midi.NoteOffEvent(tick=31, channel=0, data=[66, 0]),\n",
      "   midi.NoteOffEvent(tick=40, channel=0, data=[25, 0]),\n",
      "   midi.NoteOffEvent(tick=27, channel=0, data=[52, 0]),\n",
      "   midi.NoteOffEvent(tick=39, channel=0, data=[9, 0]),\n",
      "   midi.NoteOffEvent(tick=79, channel=0, data=[45, 0]),\n",
      "   midi.EndOfTrackEvent(tick=0, data=[])]),\n",
      " midi.Track(\\\n",
      "  [midi.SetTempoEvent(tick=0, data=[8, 227, 124]),\n",
      "   midi.ProgramChangeEvent(tick=0, channel=0, data=[57]),\n",
      "   midi.NoteOnEvent(tick=22, channel=0, data=[124, 164]),\n",
      "   midi.NoteOnEvent(tick=46, channel=0, data=[20, 243]),\n",
      "   midi.NoteOnEvent(tick=34, channel=0, data=[58, 122]),\n",
      "   midi.NoteOnEvent(tick=27, channel=0, data=[108, 21]),\n",
      "   midi.NoteOnEvent(tick=9, channel=0, data=[64, 189]),\n",
      "   midi.NoteOnEvent(tick=0, channel=0, data=[11, 196]),\n",
      "   midi.NoteOnEvent(tick=8, channel=0, data=[116, 241]),\n",
      "   midi.NoteOnEvent(tick=30, channel=0, data=[123, 188]),\n",
      "   midi.NoteOnEvent(tick=7, channel=0, data=[67, 147]),\n",
      "   midi.NoteOnEvent(tick=9, channel=0, data=[19, 155]),\n",
      "   midi.NoteOnEvent(tick=5, channel=0, data=[27, 159]),\n",
      "   midi.NoteOffEvent(tick=9, channel=0, data=[58, 0]),\n",
      "   midi.NoteOnEvent(tick=2, channel=0, data=[76, 132]),\n",
      "   midi.NoteOnEvent(tick=1, channel=0, data=[61, 236]),\n",
      "   midi.NoteOnEvent(tick=11, channel=0, data=[90, 88]),\n",
      "   midi.NoteOffEvent(tick=2, channel=0, data=[90, 0]),\n",
      "   midi.NoteOnEvent(tick=0, channel=0, data=[93, 215]),\n",
      "   midi.NoteOnEvent(tick=23, channel=0, data=[111, 93]),\n",
      "   midi.NoteOnEvent(tick=9, channel=0, data=[6, 180]),\n",
      "   midi.NoteOnEvent(tick=11, channel=0, data=[83, 104]),\n",
      "   midi.NoteOnEvent(tick=33, channel=0, data=[31, 189]),\n",
      "   midi.NoteOnEvent(tick=1, channel=0, data=[6, 199]),\n",
      "   midi.NoteOnEvent(tick=51, channel=0, data=[115, 109]),\n",
      "   midi.NoteOffEvent(tick=17, channel=0, data=[64, 0]),\n",
      "   midi.NoteOnEvent(tick=7, channel=0, data=[60, 100]),\n",
      "   midi.NoteOffEvent(tick=11, channel=0, data=[27, 0]),\n",
      "   midi.NoteOffEvent(tick=21, channel=0, data=[93, 0]),\n",
      "   midi.NoteOffEvent(tick=51, channel=0, data=[108, 0]),\n",
      "   midi.NoteOnEvent(tick=14, channel=0, data=[0, 102]),\n",
      "   midi.NoteOnEvent(tick=20, channel=0, data=[56, 188]),\n",
      "   midi.NoteOffEvent(tick=3, channel=0, data=[61, 0]),\n",
      "   midi.NoteOnEvent(tick=2, channel=0, data=[94, 25]),\n",
      "   midi.NoteOnEvent(tick=9, channel=0, data=[93, 227]),\n",
      "   midi.NoteOnEvent(tick=49, channel=0, data=[125, 70]),\n",
      "   midi.NoteOnEvent(tick=18, channel=0, data=[61, 16]),\n",
      "   midi.NoteOffEvent(tick=14, channel=0, data=[83, 0]),\n",
      "   midi.NoteOnEvent(tick=5, channel=0, data=[75, 232]),\n",
      "   midi.NoteOnEvent(tick=4, channel=0, data=[35, 125]),\n",
      "   midi.NoteOnEvent(tick=10, channel=0, data=[64, 203]),\n",
      "   midi.NoteOffEvent(tick=51, channel=0, data=[116, 0]),\n",
      "   midi.NoteOnEvent(tick=13, channel=0, data=[32, 146]),\n",
      "   midi.NoteOnEvent(tick=19, channel=0, data=[81, 54]),\n",
      "   midi.NoteOffEvent(tick=5, channel=0, data=[76, 0]),\n",
      "   midi.NoteOnEvent(tick=18, channel=0, data=[118, 130]),\n",
      "   midi.NoteOnEvent(tick=24, channel=0, data=[72, 195]),\n",
      "   midi.NoteOnEvent(tick=1, channel=0, data=[2, 102]),\n",
      "   midi.NoteOffEvent(tick=9, channel=0, data=[67, 0]),\n",
      "   midi.NoteOnEvent(tick=7, channel=0, data=[10, 110]),\n",
      "   midi.NoteOnEvent(tick=7, channel=0, data=[122, 127]),\n",
      "   midi.NoteOnEvent(tick=13, channel=0, data=[28, 15]),\n",
      "   midi.NoteOnEvent(tick=5, channel=0, data=[34, 145]),\n",
      "   midi.NoteOffEvent(tick=5, channel=0, data=[111, 0]),\n",
      "   midi.NoteOnEvent(tick=14, channel=0, data=[104, 0]),\n",
      "   midi.NoteOnEvent(tick=17, channel=0, data=[17, 151]),\n",
      "   midi.NoteOnEvent(tick=1, channel=0, data=[71, 89]),\n",
      "   midi.NoteOffEvent(tick=4, channel=0, data=[71, 0]),\n",
      "   midi.NoteOffEvent(tick=18, channel=0, data=[56, 0]),\n",
      "   midi.NoteOffEvent(tick=8, channel=0, data=[11, 0]),\n",
      "   midi.NoteOffEvent(tick=9, channel=0, data=[61, 0]),\n",
      "   midi.NoteOffEvent(tick=15, channel=0, data=[20, 0]),\n",
      "   midi.NoteOnEvent(tick=4, channel=0, data=[112, 164]),\n",
      "   midi.NoteOnEvent(tick=15, channel=0, data=[76, 109]),\n",
      "   midi.NoteOffEvent(tick=6, channel=0, data=[6, 0]),\n",
      "   midi.NoteOffEvent(tick=1, channel=0, data=[75, 0]),\n",
      "   midi.NoteOffEvent(tick=19, channel=0, data=[31, 0]),\n",
      "   midi.NoteOffEvent(tick=8, channel=0, data=[118, 0]),\n",
      "   midi.NoteOnEvent(tick=0, channel=0, data=[114, 149]),\n",
      "   midi.NoteOnEvent(tick=4, channel=0, data=[72, 239]),\n",
      "   midi.NoteOnEvent(tick=6, channel=0, data=[44, 181]),\n",
      "   midi.NoteOnEvent(tick=8, channel=0, data=[5, 80]),\n",
      "   midi.NoteOffEvent(tick=7, channel=0, data=[34, 0]),\n",
      "   midi.NoteOnEvent(tick=16, channel=0, data=[125, 221]),\n",
      "   midi.NoteOffEvent(tick=9, channel=0, data=[19, 0]),\n",
      "   midi.NoteOffEvent(tick=5, channel=0, data=[123, 0]),\n",
      "   midi.NoteOnEvent(tick=5, channel=0, data=[88, 224]),\n",
      "   midi.NoteOffEvent(tick=17, channel=0, data=[124, 0]),\n",
      "   midi.NoteOnEvent(tick=0, channel=0, data=[117, 0]),\n",
      "   midi.NoteOnEvent(tick=0, channel=0, data=[99, 37]),\n",
      "   midi.NoteOffEvent(tick=10, channel=0, data=[125, 0]),\n",
      "   midi.NoteOffEvent(tick=39, channel=0, data=[2, 0]),\n",
      "   midi.NoteOffEvent(tick=41, channel=0, data=[64, 0]),\n",
      "   midi.NoteOffEvent(tick=36, channel=0, data=[99, 0]),\n",
      "   midi.NoteOffEvent(tick=23, channel=0, data=[117, 0]),\n",
      "   midi.NoteOffEvent(tick=8, channel=0, data=[60, 0]),\n",
      "   midi.NoteOffEvent(tick=8, channel=0, data=[93, 0]),\n",
      "   midi.NoteOffEvent(tick=15, channel=0, data=[114, 0]),\n",
      "   midi.NoteOffEvent(tick=38, channel=0, data=[10, 0]),\n",
      "   midi.NoteOffEvent(tick=21, channel=0, data=[5, 0]),\n",
      "   midi.NoteOffEvent(tick=37, channel=0, data=[115, 0]),\n",
      "   midi.NoteOffEvent(tick=80, channel=0, data=[17, 0]),\n",
      "   midi.NoteOffEvent(tick=4, channel=0, data=[122, 0]),\n",
      "   midi.NoteOffEvent(tick=11, channel=0, data=[94, 0]),\n",
      "   midi.NoteOffEvent(tick=19, channel=0, data=[35, 0]),\n",
      "   midi.NoteOffEvent(tick=17, channel=0, data=[0, 0]),\n",
      "   midi.NoteOffEvent(tick=23, channel=0, data=[32, 0]),\n",
      "   midi.NoteOffEvent(tick=2, channel=0, data=[88, 0]),\n",
      "   midi.NoteOffEvent(tick=33, channel=0, data=[81, 0]),\n",
      "   midi.NoteOffEvent(tick=84, channel=0, data=[76, 0]),\n",
      "   midi.NoteOffEvent(tick=5, channel=0, data=[104, 0]),\n",
      "   midi.NoteOffEvent(tick=54, channel=0, data=[28, 0]),\n",
      "   midi.NoteOffEvent(tick=83, channel=0, data=[72, 0]),\n",
      "   midi.NoteOffEvent(tick=135, channel=0, data=[112, 0]),\n",
      "   midi.NoteOffEvent(tick=70, channel=0, data=[44, 0]),\n",
      "   midi.EndOfTrackEvent(tick=0, data=[])]),\n",
      " midi.Track(\\\n",
      "  [midi.SetTempoEvent(tick=0, data=[8, 227, 124]),\n",
      "   midi.ProgramChangeEvent(tick=0, channel=0, data=[58]),\n",
      "   midi.NoteOnEvent(tick=6, channel=0, data=[6, 5]),\n",
      "   midi.NoteOnEvent(tick=7, channel=0, data=[13, 167]),\n",
      "   midi.NoteOnEvent(tick=0, channel=0, data=[79, 122]),\n",
      "   midi.NoteOnEvent(tick=15, channel=0, data=[51, 18]),\n",
      "   midi.NoteOnEvent(tick=22, channel=0, data=[54, 3]),\n",
      "   midi.NoteOnEvent(tick=19, channel=0, data=[74, 253]),\n",
      "   midi.NoteOffEvent(tick=6, channel=0, data=[6, 0]),\n",
      "   midi.NoteOffEvent(tick=0, channel=0, data=[79, 0]),\n",
      "   midi.NoteOnEvent(tick=3, channel=0, data=[33, 24]),\n",
      "   midi.NoteOnEvent(tick=5, channel=0, data=[56, 232]),\n",
      "   midi.NoteOffEvent(tick=33, channel=0, data=[51, 0]),\n",
      "   midi.NoteOnEvent(tick=7, channel=0, data=[90, 56]),\n",
      "   midi.NoteOnEvent(tick=36, channel=0, data=[92, 114]),\n",
      "   midi.NoteOnEvent(tick=48, channel=0, data=[118, 190]),\n",
      "   midi.NoteOnEvent(tick=13, channel=0, data=[30, 90]),\n",
      "   midi.NoteOffEvent(tick=14, channel=0, data=[56, 0]),\n",
      "   midi.NoteOnEvent(tick=1, channel=0, data=[17, 255]),\n",
      "   midi.NoteOnEvent(tick=21, channel=0, data=[52, 221]),\n",
      "   midi.NoteOnEvent(tick=9, channel=0, data=[114, 193]),\n",
      "   midi.NoteOnEvent(tick=15, channel=0, data=[58, 1]),\n",
      "   midi.NoteOnEvent(tick=21, channel=0, data=[122, 145]),\n",
      "   midi.NoteOnEvent(tick=0, channel=0, data=[57, 192]),\n",
      "   midi.NoteOnEvent(tick=7, channel=0, data=[101, 224]),\n",
      "   midi.NoteOnEvent(tick=41, channel=0, data=[68, 45]),\n",
      "   midi.NoteOnEvent(tick=1, channel=0, data=[50, 10]),\n",
      "   midi.NoteOffEvent(tick=14, channel=0, data=[50, 0]),\n",
      "   midi.NoteOffEvent(tick=8, channel=0, data=[33, 0]),\n",
      "   midi.NoteOnEvent(tick=0, channel=0, data=[14, 247]),\n",
      "   midi.NoteOnEvent(tick=3, channel=0, data=[91, 201]),\n",
      "   midi.NoteOnEvent(tick=0, channel=0, data=[38, 65]),\n",
      "   midi.NoteOffEvent(tick=6, channel=0, data=[17, 0]),\n",
      "   midi.NoteOnEvent(tick=9, channel=0, data=[28, 237]),\n",
      "   midi.NoteOnEvent(tick=8, channel=0, data=[45, 114]),\n",
      "   midi.NoteOnEvent(tick=6, channel=0, data=[32, 70]),\n",
      "   midi.NoteOffEvent(tick=1, channel=0, data=[28, 0]),\n",
      "   midi.NoteOnEvent(tick=3, channel=0, data=[73, 203]),\n",
      "   midi.NoteOnEvent(tick=8, channel=0, data=[105, 136]),\n",
      "   midi.NoteOffEvent(tick=6, channel=0, data=[73, 0]),\n",
      "   midi.NoteOnEvent(tick=5, channel=0, data=[107, 227]),\n",
      "   midi.NoteOnEvent(tick=11, channel=0, data=[75, 219]),\n",
      "   midi.NoteOnEvent(tick=0, channel=0, data=[64, 142]),\n",
      "   midi.NoteOnEvent(tick=2, channel=0, data=[44, 21]),\n",
      "   midi.NoteOffEvent(tick=9, channel=0, data=[38, 0]),\n",
      "   midi.NoteOnEvent(tick=5, channel=0, data=[26, 178]),\n",
      "   midi.NoteOffEvent(tick=4, channel=0, data=[74, 0]),\n",
      "   midi.NoteOnEvent(tick=2, channel=0, data=[14, 130]),\n",
      "   midi.NoteOnEvent(tick=10, channel=0, data=[25, 240]),\n",
      "   midi.NoteOnEvent(tick=1, channel=0, data=[68, 140]),\n",
      "   midi.NoteOffEvent(tick=10, channel=0, data=[105, 0]),\n",
      "   midi.NoteOnEvent(tick=2, channel=0, data=[62, 8]),\n",
      "   midi.NoteOnEvent(tick=0, channel=0, data=[50, 154]),\n",
      "   midi.NoteOffEvent(tick=13, channel=0, data=[91, 0]),\n",
      "   midi.NoteOnEvent(tick=35, channel=0, data=[10, 111]),\n",
      "   midi.NoteOnEvent(tick=1, channel=0, data=[50, 215]),\n",
      "   midi.NoteOnEvent(tick=3, channel=0, data=[100, 99]),\n",
      "   midi.NoteOnEvent(tick=19, channel=0, data=[36, 8]),\n",
      "   midi.NoteOnEvent(tick=14, channel=0, data=[96, 218]),\n",
      "   midi.NoteOnEvent(tick=27, channel=0, data=[64, 94]),\n",
      "   midi.NoteOffEvent(tick=3, channel=0, data=[90, 0]),\n",
      "   midi.NoteOffEvent(tick=4, channel=0, data=[96, 0]),\n",
      "   midi.NoteOnEvent(tick=3, channel=0, data=[54, 186]),\n",
      "   midi.NoteOnEvent(tick=9, channel=0, data=[89, 165]),\n",
      "   midi.NoteOffEvent(tick=2, channel=0, data=[45, 0]),\n",
      "   midi.NoteOnEvent(tick=2, channel=0, data=[78, 79]),\n",
      "   midi.NoteOnEvent(tick=17, channel=0, data=[14, 50]),\n",
      "   midi.NoteOffEvent(tick=2, channel=0, data=[64, 0]),\n",
      "   midi.NoteOffEvent(tick=14, channel=0, data=[62, 0]),\n",
      "   midi.NoteOffEvent(tick=3, channel=0, data=[118, 0]),\n",
      "   midi.NoteOnEvent(tick=31, channel=0, data=[51, 165]),\n",
      "   midi.NoteOnEvent(tick=32, channel=0, data=[14, 190]),\n",
      "   midi.NoteOnEvent(tick=2, channel=0, data=[10, 133]),\n",
      "   midi.NoteOnEvent(tick=25, channel=0, data=[52, 63]),\n",
      "   midi.NoteOnEvent(tick=16, channel=0, data=[101, 222]),\n",
      "   midi.NoteOffEvent(tick=21, channel=0, data=[57, 0]),\n",
      "   midi.NoteOffEvent(tick=22, channel=0, data=[32, 0]),\n",
      "   midi.NoteOffEvent(tick=3, channel=0, data=[68, 0]),\n",
      "   midi.NoteOffEvent(tick=1, channel=0, data=[50, 0]),\n",
      "   midi.NoteOffEvent(tick=10, channel=0, data=[101, 0]),\n",
      "   midi.NoteOffEvent(tick=15, channel=0, data=[44, 0]),\n",
      "   midi.NoteOnEvent(tick=6, channel=0, data=[47, 29]),\n",
      "   midi.NoteOffEvent(tick=16, channel=0, data=[54, 0]),\n",
      "   midi.NoteOnEvent(tick=34, channel=0, data=[118, 95]),\n",
      "   midi.NoteOffEvent(tick=11, channel=0, data=[75, 0]),\n",
      "   midi.NoteOffEvent(tick=19, channel=0, data=[30, 0]),\n",
      "   midi.NoteOnEvent(tick=20, channel=0, data=[99, 219]),\n",
      "   midi.NoteOffEvent(tick=7, channel=0, data=[13, 0]),\n",
      "   midi.NoteOnEvent(tick=1, channel=0, data=[2, 24]),\n",
      "   midi.NoteOnEvent(tick=23, channel=0, data=[6, 173]),\n",
      "   midi.NoteOffEvent(tick=45, channel=0, data=[92, 0]),\n",
      "   midi.NoteOffEvent(tick=46, channel=0, data=[14, 0]),\n",
      "   midi.NoteOffEvent(tick=83, channel=0, data=[89, 0]),\n",
      "   midi.NoteOffEvent(tick=5, channel=0, data=[52, 0]),\n",
      "   midi.NoteOffEvent(tick=21, channel=0, data=[26, 0]),\n",
      "   midi.NoteOffEvent(tick=44, channel=0, data=[122, 0]),\n",
      "   midi.NoteOffEvent(tick=31, channel=0, data=[58, 0]),\n",
      "   midi.NoteOffEvent(tick=5, channel=0, data=[114, 0]),\n",
      "   midi.NoteOffEvent(tick=56, channel=0, data=[107, 0]),\n",
      "   midi.NoteOffEvent(tick=19, channel=0, data=[25, 0]),\n",
      "   midi.NoteOffEvent(tick=13, channel=0, data=[100, 0]),\n",
      "   midi.NoteOffEvent(tick=4, channel=0, data=[6, 0]),\n",
      "   midi.NoteOffEvent(tick=18, channel=0, data=[118, 0]),\n",
      "   midi.NoteOffEvent(tick=43, channel=0, data=[99, 0]),\n",
      "   midi.NoteOffEvent(tick=32, channel=0, data=[51, 0]),\n",
      "   midi.NoteOffEvent(tick=16, channel=0, data=[2, 0]),\n",
      "   midi.NoteOffEvent(tick=39, channel=0, data=[36, 0]),\n",
      "   midi.NoteOffEvent(tick=25, channel=0, data=[78, 0]),\n",
      "   midi.NoteOffEvent(tick=174, channel=0, data=[47, 0]),\n",
      "   midi.NoteOffEvent(tick=1, channel=0, data=[10, 0]),\n",
      "   midi.EndOfTrackEvent(tick=0, data=[])]),\n",
      " midi.Track(\\\n",
      "  [midi.SetTempoEvent(tick=0, data=[8, 227, 124]),\n",
      "   midi.ProgramChangeEvent(tick=0, channel=0, data=[59]),\n",
      "   midi.NoteOnEvent(tick=3, channel=0, data=[28, 38]),\n",
      "   midi.NoteOnEvent(tick=33, channel=0, data=[114, 87]),\n",
      "   midi.NoteOnEvent(tick=18, channel=0, data=[14, 39]),\n",
      "   midi.NoteOnEvent(tick=5, channel=0, data=[95, 101]),\n",
      "   midi.NoteOnEvent(tick=0, channel=0, data=[99, 75]),\n",
      "   midi.NoteOnEvent(tick=4, channel=0, data=[32, 172]),\n",
      "   midi.NoteOnEvent(tick=15, channel=0, data=[48, 237]),\n",
      "   midi.NoteOffEvent(tick=11, channel=0, data=[95, 0]),\n",
      "   midi.NoteOnEvent(tick=23, channel=0, data=[12, 55]),\n",
      "   midi.NoteOnEvent(tick=2, channel=0, data=[14, 227]),\n",
      "   midi.NoteOnEvent(tick=16, channel=0, data=[58, 142]),\n",
      "   midi.NoteOnEvent(tick=14, channel=0, data=[57, 92]),\n",
      "   midi.NoteOnEvent(tick=9, channel=0, data=[15, 149]),\n",
      "   midi.NoteOnEvent(tick=10, channel=0, data=[75, 12]),\n",
      "   midi.NoteOffEvent(tick=21, channel=0, data=[114, 0]),\n",
      "   midi.NoteOnEvent(tick=6, channel=0, data=[80, 158]),\n",
      "   midi.NoteOnEvent(tick=10, channel=0, data=[23, 209]),\n",
      "   midi.NoteOnEvent(tick=5, channel=0, data=[6, 151]),\n",
      "   midi.NoteOnEvent(tick=2, channel=0, data=[70, 164]),\n",
      "   midi.NoteOnEvent(tick=0, channel=0, data=[5, 188]),\n",
      "   midi.NoteOnEvent(tick=11, channel=0, data=[104, 19]),\n",
      "   midi.NoteOnEvent(tick=8, channel=0, data=[124, 249]),\n",
      "   midi.NoteOffEvent(tick=1, channel=0, data=[70, 0]),\n",
      "   midi.NoteOffEvent(tick=29, channel=0, data=[48, 0]),\n",
      "   midi.NoteOnEvent(tick=45, channel=0, data=[83, 24]),\n",
      "   midi.NoteOnEvent(tick=8, channel=0, data=[93, 138]),\n",
      "   midi.NoteOnEvent(tick=12, channel=0, data=[21, 92]),\n",
      "   midi.NoteOnEvent(tick=11, channel=0, data=[0, 117]),\n",
      "   midi.NoteOffEvent(tick=49, channel=0, data=[23, 0]),\n",
      "   midi.NoteOnEvent(tick=19, channel=0, data=[65, 124]),\n",
      "   midi.NoteOnEvent(tick=6, channel=0, data=[38, 103]),\n",
      "   midi.NoteOffEvent(tick=1, channel=0, data=[65, 0]),\n",
      "   midi.NoteOnEvent(tick=1, channel=0, data=[34, 230]),\n",
      "   midi.NoteOnEvent(tick=7, channel=0, data=[41, 95]),\n",
      "   midi.NoteOnEvent(tick=1, channel=0, data=[21, 233]),\n",
      "   midi.NoteOffEvent(tick=6, channel=0, data=[99, 0]),\n",
      "   midi.NoteOffEvent(tick=2, channel=0, data=[58, 0]),\n",
      "   midi.NoteOnEvent(tick=17, channel=0, data=[99, 91]),\n",
      "   midi.NoteOnEvent(tick=16, channel=0, data=[45, 128]),\n",
      "   midi.NoteOnEvent(tick=5, channel=0, data=[30, 11]),\n",
      "   midi.NoteOnEvent(tick=9, channel=0, data=[68, 64]),\n",
      "   midi.NoteOnEvent(tick=4, channel=0, data=[104, 54]),\n",
      "   midi.NoteOffEvent(tick=2, channel=0, data=[0, 0]),\n",
      "   midi.NoteOnEvent(tick=38, channel=0, data=[25, 87]),\n",
      "   midi.NoteOnEvent(tick=3, channel=0, data=[15, 239]),\n",
      "   midi.NoteOnEvent(tick=3, channel=0, data=[110, 32]),\n",
      "   midi.NoteOnEvent(tick=14, channel=0, data=[76, 71]),\n",
      "   midi.NoteOffEvent(tick=2, channel=0, data=[32, 0]),\n",
      "   midi.NoteOnEvent(tick=16, channel=0, data=[56, 156]),\n",
      "   midi.NoteOnEvent(tick=2, channel=0, data=[29, 126]),\n",
      "   midi.NoteOnEvent(tick=2, channel=0, data=[33, 40]),\n",
      "   midi.NoteOnEvent(tick=14, channel=0, data=[123, 219]),\n",
      "   midi.NoteOnEvent(tick=20, channel=0, data=[65, 145]),\n",
      "   midi.NoteOnEvent(tick=2, channel=0, data=[63, 235]),\n",
      "   midi.NoteOnEvent(tick=0, channel=0, data=[76, 201]),\n",
      "   midi.NoteOffEvent(tick=6, channel=0, data=[5, 0]),\n",
      "   midi.NoteOffEvent(tick=6, channel=0, data=[124, 0]),\n",
      "   midi.NoteOffEvent(tick=27, channel=0, data=[80, 0]),\n",
      "   midi.NoteOnEvent(tick=2, channel=0, data=[111, 102]),\n",
      "   midi.NoteOffEvent(tick=12, channel=0, data=[15, 0]),\n",
      "   midi.NoteOnEvent(tick=2, channel=0, data=[21, 131]),\n",
      "   midi.NoteOffEvent(tick=13, channel=0, data=[104, 0]),\n",
      "   midi.NoteOffEvent(tick=17, channel=0, data=[28, 0]),\n",
      "   midi.NoteOffEvent(tick=0, channel=0, data=[33, 0]),\n",
      "   midi.NoteOffEvent(tick=10, channel=0, data=[99, 0]),\n",
      "   midi.NoteOnEvent(tick=16, channel=0, data=[0, 140]),\n",
      "   midi.NoteOnEvent(tick=0, channel=0, data=[49, 221]),\n",
      "   midi.NoteOnEvent(tick=14, channel=0, data=[83, 226]),\n",
      "   midi.NoteOnEvent(tick=14, channel=0, data=[44, 246]),\n",
      "   midi.NoteOffEvent(tick=3, channel=0, data=[57, 0]),\n",
      "   midi.NoteOnEvent(tick=4, channel=0, data=[8, 245]),\n",
      "   midi.NoteOnEvent(tick=5, channel=0, data=[29, 187]),\n",
      "   midi.NoteOffEvent(tick=16, channel=0, data=[75, 0]),\n",
      "   midi.NoteOffEvent(tick=31, channel=0, data=[6, 0]),\n",
      "   midi.NoteOnEvent(tick=17, channel=0, data=[65, 182]),\n",
      "   midi.NoteOnEvent(tick=23, channel=0, data=[74, 210]),\n",
      "   midi.NoteOnEvent(tick=11, channel=0, data=[44, 12]),\n",
      "   midi.NoteOnEvent(tick=16, channel=0, data=[55, 255]),\n",
      "   midi.NoteOnEvent(tick=29, channel=0, data=[28, 48]),\n",
      "   midi.NoteOnEvent(tick=0, channel=0, data=[60, 209]),\n",
      "   midi.NoteOffEvent(tick=4, channel=0, data=[55, 0]),\n",
      "   midi.NoteOffEvent(tick=6, channel=0, data=[45, 0]),\n",
      "   midi.NoteOnEvent(tick=10, channel=0, data=[120, 207]),\n",
      "   midi.NoteOnEvent(tick=6, channel=0, data=[97, 48]),\n",
      "   midi.NoteOffEvent(tick=10, channel=0, data=[12, 0]),\n",
      "   midi.NoteOnEvent(tick=0, channel=0, data=[54, 26]),\n",
      "   midi.NoteOffEvent(tick=3, channel=0, data=[97, 0]),\n",
      "   midi.NoteOffEvent(tick=23, channel=0, data=[68, 0]),\n",
      "   midi.NoteOffEvent(tick=17, channel=0, data=[34, 0]),\n",
      "   midi.NoteOnEvent(tick=3, channel=0, data=[77, 71]),\n",
      "   midi.NoteOffEvent(tick=10, channel=0, data=[44, 0]),\n",
      "   midi.NoteOnEvent(tick=2, channel=0, data=[60, 194]),\n",
      "   midi.NoteOnEvent(tick=12, channel=0, data=[81, 143]),\n",
      "   midi.NoteOffEvent(tick=1, channel=0, data=[0, 0]),\n",
      "   midi.NoteOffEvent(tick=32, channel=0, data=[14, 0]),\n",
      "   midi.NoteOffEvent(tick=6, channel=0, data=[25, 0]),\n",
      "   midi.NoteOffEvent(tick=29, channel=0, data=[21, 0]),\n",
      "   midi.NoteOffEvent(tick=21, channel=0, data=[93, 0]),\n",
      "   midi.NoteOffEvent(tick=40, channel=0, data=[111, 0]),\n",
      "   midi.NoteOffEvent(tick=20, channel=0, data=[77, 0]),\n",
      "   midi.NoteOffEvent(tick=2, channel=0, data=[74, 0]),\n",
      "   midi.NoteOffEvent(tick=1, channel=0, data=[63, 0]),\n",
      "   midi.NoteOffEvent(tick=11, channel=0, data=[110, 0]),\n",
      "   midi.NoteOffEvent(tick=37, channel=0, data=[120, 0]),\n",
      "   midi.NoteOffEvent(tick=26, channel=0, data=[81, 0]),\n",
      "   midi.NoteOffEvent(tick=19, channel=0, data=[56, 0]),\n",
      "   midi.NoteOffEvent(tick=7, channel=0, data=[60, 0]),\n",
      "   midi.NoteOffEvent(tick=6, channel=0, data=[30, 0]),\n",
      "   midi.NoteOffEvent(tick=9, channel=0, data=[83, 0]),\n",
      "   midi.NoteOffEvent(tick=20, channel=0, data=[41, 0]),\n",
      "   midi.NoteOffEvent(tick=37, channel=0, data=[65, 0]),\n",
      "   midi.NoteOffEvent(tick=33, channel=0, data=[38, 0]),\n",
      "   midi.NoteOffEvent(tick=29, channel=0, data=[123, 0]),\n",
      "   midi.NoteOffEvent(tick=7, channel=0, data=[76, 0]),\n",
      "   midi.NoteOffEvent(tick=154, channel=0, data=[8, 0]),\n",
      "   midi.NoteOffEvent(tick=6, channel=0, data=[29, 0]),\n",
      "   midi.NoteOffEvent(tick=89, channel=0, data=[49, 0]),\n",
      "   midi.NoteOffEvent(tick=151, channel=0, data=[28, 0]),\n",
      "   midi.NoteOffEvent(tick=133, channel=0, data=[54, 0]),\n",
      "   midi.EndOfTrackEvent(tick=0, data=[])]),\n",
      " midi.Track(\\\n",
      "  [midi.SetTempoEvent(tick=0, data=[8, 227, 124]),\n",
      "   midi.ProgramChangeEvent(tick=0, channel=0, data=[60]),\n",
      "   midi.NoteOnEvent(tick=3, channel=0, data=[106, 84]),\n",
      "   midi.NoteOnEvent(tick=1, channel=0, data=[122, 209]),\n",
      "   midi.NoteOnEvent(tick=2, channel=0, data=[26, 144]),\n",
      "   midi.NoteOffEvent(tick=16, channel=0, data=[122, 0]),\n",
      "   midi.NoteOnEvent(tick=2, channel=0, data=[115, 77]),\n",
      "   midi.NoteOnEvent(tick=12, channel=0, data=[111, 255]),\n",
      "   midi.NoteOnEvent(tick=6, channel=0, data=[0, 44]),\n",
      "   midi.NoteOnEvent(tick=5, channel=0, data=[47, 135]),\n",
      "   midi.NoteOnEvent(tick=5, channel=0, data=[83, 22]),\n",
      "   midi.NoteOnEvent(tick=2, channel=0, data=[103, 76]),\n",
      "   midi.NoteOffEvent(tick=20, channel=0, data=[47, 0]),\n",
      "   midi.NoteOnEvent(tick=47, channel=0, data=[12, 11]),\n",
      "   midi.NoteOnEvent(tick=2, channel=0, data=[110, 78]),\n",
      "   midi.NoteOnEvent(tick=9, channel=0, data=[93, 68]),\n",
      "   midi.NoteOnEvent(tick=11, channel=0, data=[75, 149]),\n",
      "   midi.NoteOnEvent(tick=1, channel=0, data=[82, 56]),\n",
      "   midi.NoteOnEvent(tick=17, channel=0, data=[31, 103]),\n",
      "   midi.NoteOnEvent(tick=44, channel=0, data=[5, 160]),\n",
      "   midi.NoteOnEvent(tick=2, channel=0, data=[72, 228]),\n",
      "   midi.NoteOnEvent(tick=11, channel=0, data=[48, 210]),\n",
      "   midi.NoteOnEvent(tick=8, channel=0, data=[78, 10]),\n",
      "   midi.NoteOnEvent(tick=5, channel=0, data=[44, 253]),\n",
      "   midi.NoteOnEvent(tick=5, channel=0, data=[68, 88]),\n",
      "   midi.NoteOnEvent(tick=12, channel=0, data=[9, 188]),\n",
      "   midi.NoteOnEvent(tick=3, channel=0, data=[96, 111]),\n",
      "   midi.NoteOnEvent(tick=3, channel=0, data=[88, 84]),\n",
      "   midi.NoteOnEvent(tick=11, channel=0, data=[88, 148]),\n",
      "   midi.NoteOffEvent(tick=12, channel=0, data=[78, 0]),\n",
      "   midi.NoteOffEvent(tick=14, channel=0, data=[83, 0]),\n",
      "   midi.NoteOnEvent(tick=7, channel=0, data=[6, 93]),\n",
      "   midi.NoteOnEvent(tick=10, channel=0, data=[104, 194]),\n",
      "   midi.NoteOffEvent(tick=3, channel=0, data=[48, 0]),\n",
      "   midi.NoteOnEvent(tick=2, channel=0, data=[111, 94]),\n",
      "   midi.NoteOnEvent(tick=17, channel=0, data=[72, 242]),\n",
      "   midi.NoteOffEvent(tick=8, channel=0, data=[110, 0]),\n",
      "   midi.NoteOffEvent(tick=6, channel=0, data=[111, 0]),\n",
      "   midi.NoteOnEvent(tick=1, channel=0, data=[21, 111]),\n",
      "   midi.NoteOffEvent(tick=11, channel=0, data=[115, 0]),\n",
      "   midi.NoteOffEvent(tick=19, channel=0, data=[6, 0]),\n",
      "   midi.NoteOnEvent(tick=41, channel=0, data=[5, 64]),\n",
      "   midi.NoteOffEvent(tick=20, channel=0, data=[12, 0]),\n",
      "   midi.NoteOffEvent(tick=6, channel=0, data=[106, 0]),\n",
      "   midi.NoteOnEvent(tick=12, channel=0, data=[104, 110]),\n",
      "   midi.NoteOnEvent(tick=23, channel=0, data=[72, 82]),\n",
      "   midi.NoteOnEvent(tick=6, channel=0, data=[47, 79]),\n",
      "   midi.NoteOnEvent(tick=22, channel=0, data=[111, 103]),\n",
      "   midi.NoteOffEvent(tick=3, channel=0, data=[68, 0]),\n",
      "   midi.NoteOnEvent(tick=6, channel=0, data=[86, 134]),\n",
      "   midi.NoteOffEvent(tick=14, channel=0, data=[82, 0]),\n",
      "   midi.NoteOnEvent(tick=28, channel=0, data=[37, 207]),\n",
      "   midi.NoteOffEvent(tick=1, channel=0, data=[21, 0]),\n",
      "   midi.NoteOnEvent(tick=0, channel=0, data=[17, 119]),\n",
      "   midi.NoteOnEvent(tick=0, channel=0, data=[71, 14]),\n",
      "   midi.NoteOnEvent(tick=3, channel=0, data=[50, 84]),\n",
      "   midi.NoteOffEvent(tick=18, channel=0, data=[75, 0]),\n",
      "   midi.NoteOnEvent(tick=1, channel=0, data=[71, 195]),\n",
      "   midi.NoteOffEvent(tick=28, channel=0, data=[31, 0]),\n",
      "   midi.NoteOnEvent(tick=23, channel=0, data=[56, 190]),\n",
      "   midi.NoteOnEvent(tick=20, channel=0, data=[55, 112]),\n",
      "   midi.NoteOnEvent(tick=10, channel=0, data=[116, 66]),\n",
      "   midi.NoteOnEvent(tick=25, channel=0, data=[13, 20]),\n",
      "   midi.NoteOnEvent(tick=9, channel=0, data=[123, 7]),\n",
      "   midi.NoteOffEvent(tick=4, channel=0, data=[72, 0]),\n",
      "   midi.NoteOnEvent(tick=19, channel=0, data=[74, 133]),\n",
      "   midi.NoteOnEvent(tick=2, channel=0, data=[13, 149]),\n",
      "   midi.NoteOnEvent(tick=20, channel=0, data=[90, 88]),\n",
      "   midi.NoteOnEvent(tick=0, channel=0, data=[61, 13]),\n",
      "   midi.NoteOnEvent(tick=1, channel=0, data=[119, 244]),\n",
      "   midi.NoteOffEvent(tick=3, channel=0, data=[47, 0]),\n",
      "   midi.NoteOffEvent(tick=20, channel=0, data=[37, 0]),\n",
      "   midi.NoteOffEvent(tick=16, channel=0, data=[103, 0]),\n",
      "   midi.NoteOnEvent(tick=17, channel=0, data=[47, 237]),\n",
      "   midi.NoteOnEvent(tick=12, channel=0, data=[33, 255]),\n",
      "   midi.NoteOnEvent(tick=12, channel=0, data=[45, 195]),\n",
      "   midi.NoteOnEvent(tick=30, channel=0, data=[111, 184]),\n",
      "   midi.NoteOnEvent(tick=8, channel=0, data=[95, 232]),\n",
      "   midi.NoteOffEvent(tick=5, channel=0, data=[44, 0]),\n",
      "   midi.NoteOffEvent(tick=0, channel=0, data=[74, 0]),\n",
      "   midi.NoteOffEvent(tick=1, channel=0, data=[56, 0]),\n",
      "   midi.NoteOffEvent(tick=32, channel=0, data=[0, 0]),\n",
      "   midi.NoteOffEvent(tick=16, channel=0, data=[93, 0]),\n",
      "   midi.NoteOffEvent(tick=4, channel=0, data=[119, 0]),\n",
      "   midi.NoteOnEvent(tick=13, channel=0, data=[69, 156]),\n",
      "   midi.NoteOnEvent(tick=9, channel=0, data=[8, 9]),\n",
      "   midi.NoteOnEvent(tick=4, channel=0, data=[80, 72]),\n",
      "   midi.NoteOnEvent(tick=4, channel=0, data=[85, 13]),\n",
      "   midi.NoteOffEvent(tick=23, channel=0, data=[95, 0]),\n",
      "   midi.NoteOnEvent(tick=0, channel=0, data=[100, 131]),\n",
      "   midi.NoteOnEvent(tick=6, channel=0, data=[105, 156]),\n",
      "   midi.NoteOffEvent(tick=2, channel=0, data=[123, 0]),\n",
      "   midi.NoteOnEvent(tick=4, channel=0, data=[59, 115]),\n",
      "   midi.NoteOffEvent(tick=2, channel=0, data=[26, 0]),\n",
      "   midi.NoteOffEvent(tick=7, channel=0, data=[5, 0]),\n",
      "   midi.NoteOnEvent(tick=1, channel=0, data=[123, 163]),\n",
      "   midi.NoteOnEvent(tick=1, channel=0, data=[49, 43]),\n",
      "   midi.NoteOffEvent(tick=9, channel=0, data=[71, 0]),\n",
      "   midi.NoteOffEvent(tick=4, channel=0, data=[8, 0]),\n",
      "   midi.NoteOffEvent(tick=54, channel=0, data=[90, 0]),\n",
      "   midi.NoteOffEvent(tick=0, channel=0, data=[116, 0]),\n",
      "   midi.NoteOffEvent(tick=2, channel=0, data=[9, 0]),\n",
      "   midi.NoteOffEvent(tick=21, channel=0, data=[61, 0]),\n",
      "   midi.NoteOffEvent(tick=13, channel=0, data=[13, 0]),\n",
      "   midi.NoteOffEvent(tick=13, channel=0, data=[50, 0]),\n",
      "   midi.NoteOffEvent(tick=15, channel=0, data=[49, 0]),\n",
      "   midi.NoteOffEvent(tick=9, channel=0, data=[33, 0]),\n",
      "   midi.NoteOffEvent(tick=2, channel=0, data=[96, 0]),\n",
      "   midi.NoteOffEvent(tick=33, channel=0, data=[86, 0]),\n",
      "   midi.NoteOffEvent(tick=53, channel=0, data=[88, 0]),\n",
      "   midi.NoteOffEvent(tick=34, channel=0, data=[104, 0]),\n",
      "   midi.NoteOffEvent(tick=11, channel=0, data=[85, 0]),\n",
      "   midi.NoteOffEvent(tick=46, channel=0, data=[111, 0]),\n",
      "   midi.NoteOffEvent(tick=72, channel=0, data=[55, 0]),\n",
      "   midi.NoteOffEvent(tick=90, channel=0, data=[17, 0]),\n",
      "   midi.NoteOffEvent(tick=57, channel=0, data=[45, 0]),\n",
      "   midi.NoteOffEvent(tick=5, channel=0, data=[100, 0]),\n",
      "   midi.NoteOffEvent(tick=16, channel=0, data=[105, 0]),\n",
      "   midi.NoteOffEvent(tick=58, channel=0, data=[47, 0]),\n",
      "   midi.NoteOffEvent(tick=30, channel=0, data=[59, 0]),\n",
      "   midi.NoteOffEvent(tick=57, channel=0, data=[123, 0]),\n",
      "   midi.NoteOffEvent(tick=178, channel=0, data=[69, 0]),\n",
      "   midi.NoteOffEvent(tick=9, channel=0, data=[80, 0]),\n",
      "   midi.EndOfTrackEvent(tick=0, data=[])]),\n",
      " midi.Track(\\\n",
      "  [midi.SetTempoEvent(tick=0, data=[8, 227, 124]),\n",
      "   midi.ProgramChangeEvent(tick=0, channel=0, data=[61]),\n",
      "   midi.NoteOnEvent(tick=4, channel=0, data=[60, 57]),\n",
      "   midi.NoteOnEvent(tick=18, channel=0, data=[105, 57]),\n",
      "   midi.NoteOnEvent(tick=46, channel=0, data=[4, 55]),\n",
      "   midi.NoteOnEvent(tick=0, channel=0, data=[72, 108]),\n",
      "   midi.NoteOnEvent(tick=11, channel=0, data=[80, 183]),\n",
      "   midi.NoteOnEvent(tick=4, channel=0, data=[24, 247]),\n",
      "   midi.NoteOnEvent(tick=31, channel=0, data=[68, 45]),\n",
      "   midi.NoteOnEvent(tick=46, channel=0, data=[34, 205]),\n",
      "   midi.NoteOnEvent(tick=47, channel=0, data=[43, 112]),\n",
      "   midi.NoteOnEvent(tick=2, channel=0, data=[21, 116]),\n",
      "   midi.NoteOnEvent(tick=28, channel=0, data=[37, 137]),\n",
      "   midi.NoteOnEvent(tick=14, channel=0, data=[4, 72]),\n",
      "   midi.NoteOnEvent(tick=22, channel=0, data=[95, 1]),\n",
      "   midi.NoteOffEvent(tick=11, channel=0, data=[21, 0]),\n",
      "   midi.NoteOnEvent(tick=6, channel=0, data=[95, 191]),\n",
      "   midi.NoteOnEvent(tick=9, channel=0, data=[32, 65]),\n",
      "   midi.NoteOnEvent(tick=2, channel=0, data=[17, 70]),\n",
      "   midi.NoteOnEvent(tick=8, channel=0, data=[7, 156]),\n",
      "   midi.NoteOnEvent(tick=4, channel=0, data=[53, 47]),\n",
      "   midi.NoteOnEvent(tick=5, channel=0, data=[70, 115]),\n",
      "   midi.NoteOnEvent(tick=68, channel=0, data=[101, 233]),\n",
      "   midi.NoteOnEvent(tick=5, channel=0, data=[45, 203]),\n",
      "   midi.NoteOffEvent(tick=6, channel=0, data=[68, 0]),\n",
      "   midi.NoteOnEvent(tick=19, channel=0, data=[36, 187]),\n",
      "   midi.NoteOnEvent(tick=5, channel=0, data=[7, 33]),\n",
      "   midi.NoteOnEvent(tick=4, channel=0, data=[11, 51]),\n",
      "   midi.NoteOnEvent(tick=16, channel=0, data=[57, 96]),\n",
      "   midi.NoteOffEvent(tick=1, channel=0, data=[80, 0]),\n",
      "   midi.NoteOffEvent(tick=14, channel=0, data=[11, 0]),\n",
      "   midi.NoteOffEvent(tick=3, channel=0, data=[105, 0]),\n",
      "   midi.NoteOffEvent(tick=3, channel=0, data=[70, 0]),\n",
      "   midi.NoteOffEvent(tick=4, channel=0, data=[72, 0]),\n",
      "   midi.NoteOnEvent(tick=8, channel=0, data=[0, 153]),\n",
      "   midi.NoteOnEvent(tick=12, channel=0, data=[49, 139]),\n",
      "   midi.NoteOnEvent(tick=3, channel=0, data=[118, 165]),\n",
      "   midi.NoteOffEvent(tick=4, channel=0, data=[24, 0]),\n",
      "   midi.NoteOnEvent(tick=12, channel=0, data=[67, 107]),\n",
      "   midi.NoteOnEvent(tick=3, channel=0, data=[6, 153]),\n",
      "   midi.NoteOnEvent(tick=23, channel=0, data=[1, 155]),\n",
      "   midi.NoteOnEvent(tick=0, channel=0, data=[100, 202]),\n",
      "   midi.NoteOffEvent(tick=1, channel=0, data=[34, 0]),\n",
      "   midi.NoteOnEvent(tick=20, channel=0, data=[32, 130]),\n",
      "   midi.NoteOnEvent(tick=3, channel=0, data=[70, 33]),\n",
      "   midi.NoteOnEvent(tick=13, channel=0, data=[74, 117]),\n",
      "   midi.NoteOnEvent(tick=6, channel=0, data=[107, 106]),\n",
      "   midi.NoteOffEvent(tick=12, channel=0, data=[60, 0]),\n",
      "   midi.NoteOnEvent(tick=4, channel=0, data=[102, 8]),\n",
      "   midi.NoteOffEvent(tick=16, channel=0, data=[95, 0]),\n",
      "   midi.NoteOnEvent(tick=15, channel=0, data=[88, 208]),\n",
      "   midi.NoteOffEvent(tick=4, channel=0, data=[100, 0]),\n",
      "   midi.NoteOnEvent(tick=0, channel=0, data=[117, 217]),\n",
      "   midi.NoteOnEvent(tick=5, channel=0, data=[18, 138]),\n",
      "   midi.NoteOnEvent(tick=4, channel=0, data=[103, 67]),\n",
      "   midi.NoteOnEvent(tick=5, channel=0, data=[9, 94]),\n",
      "   midi.NoteOffEvent(tick=32, channel=0, data=[37, 0]),\n",
      "   midi.NoteOffEvent(tick=6, channel=0, data=[103, 0]),\n",
      "   midi.NoteOnEvent(tick=28, channel=0, data=[15, 203]),\n",
      "   midi.NoteOffEvent(tick=10, channel=0, data=[49, 0]),\n",
      "   midi.NoteOnEvent(tick=21, channel=0, data=[14, 229]),\n",
      "   midi.NoteOnEvent(tick=12, channel=0, data=[5, 94]),\n",
      "   midi.NoteOnEvent(tick=2, channel=0, data=[9, 108]),\n",
      "   midi.NoteOnEvent(tick=36, channel=0, data=[111, 202]),\n",
      "   midi.NoteOnEvent(tick=3, channel=0, data=[4, 13]),\n",
      "   midi.NoteOffEvent(tick=19, channel=0, data=[18, 0]),\n",
      "   midi.NoteOnEvent(tick=12, channel=0, data=[44, 111]),\n",
      "   midi.NoteOnEvent(tick=5, channel=0, data=[85, 104]),\n",
      "   midi.NoteOnEvent(tick=6, channel=0, data=[125, 132]),\n",
      "   midi.NoteOnEvent(tick=23, channel=0, data=[71, 250]),\n",
      "   midi.NoteOnEvent(tick=4, channel=0, data=[5, 188]),\n",
      "   midi.NoteOffEvent(tick=12, channel=0, data=[32, 0]),\n",
      "   midi.NoteOnEvent(tick=17, channel=0, data=[47, 40]),\n",
      "   midi.NoteOnEvent(tick=51, channel=0, data=[58, 246]),\n",
      "   midi.NoteOnEvent(tick=0, channel=0, data=[11, 137]),\n",
      "   midi.NoteOnEvent(tick=1, channel=0, data=[79, 94]),\n",
      "   midi.NoteOffEvent(tick=9, channel=0, data=[15, 0]),\n",
      "   midi.NoteOffEvent(tick=8, channel=0, data=[58, 0]),\n",
      "   midi.NoteOffEvent(tick=4, channel=0, data=[79, 0]),\n",
      "   midi.NoteOffEvent(tick=1, channel=0, data=[5, 0]),\n",
      "   midi.NoteOnEvent(tick=8, channel=0, data=[36, 26]),\n",
      "   midi.NoteOnEvent(tick=12, channel=0, data=[91, 67]),\n",
      "   midi.NoteOffEvent(tick=8, channel=0, data=[53, 0]),\n",
      "   midi.NoteOffEvent(tick=22, channel=0, data=[45, 0]),\n",
      "   midi.NoteOffEvent(tick=3, channel=0, data=[43, 0]),\n",
      "   midi.NoteOffEvent(tick=29, channel=0, data=[47, 0]),\n",
      "   midi.NoteOffEvent(tick=17, channel=0, data=[4, 0]),\n",
      "   midi.NoteOffEvent(tick=14, channel=0, data=[67, 0]),\n",
      "   midi.NoteOffEvent(tick=3, channel=0, data=[0, 0]),\n",
      "   midi.NoteOffEvent(tick=86, channel=0, data=[6, 0]),\n",
      "   midi.NoteOffEvent(tick=34, channel=0, data=[107, 0]),\n",
      "   midi.NoteOffEvent(tick=5, channel=0, data=[7, 0]),\n",
      "   midi.NoteOffEvent(tick=25, channel=0, data=[101, 0]),\n",
      "   midi.NoteOffEvent(tick=9, channel=0, data=[17, 0]),\n",
      "   midi.NoteOffEvent(tick=8, channel=0, data=[14, 0]),\n",
      "   midi.NoteOffEvent(tick=10, channel=0, data=[57, 0]),\n",
      "   midi.NoteOffEvent(tick=27, channel=0, data=[1, 0]),\n",
      "   midi.NoteOffEvent(tick=18, channel=0, data=[88, 0]),\n",
      "   midi.NoteOffEvent(tick=4, channel=0, data=[102, 0]),\n",
      "   midi.NoteOffEvent(tick=84, channel=0, data=[118, 0]),\n",
      "   midi.NoteOffEvent(tick=5, channel=0, data=[70, 0]),\n",
      "   midi.NoteOffEvent(tick=58, channel=0, data=[111, 0]),\n",
      "   midi.NoteOffEvent(tick=6, channel=0, data=[11, 0]),\n",
      "   midi.NoteOffEvent(tick=34, channel=0, data=[85, 0]),\n",
      "   midi.NoteOffEvent(tick=46, channel=0, data=[91, 0]),\n",
      "   midi.NoteOffEvent(tick=2, channel=0, data=[9, 0]),\n",
      "   midi.NoteOffEvent(tick=1, channel=0, data=[125, 0]),\n",
      "   midi.NoteOffEvent(tick=14, channel=0, data=[74, 0]),\n",
      "   midi.NoteOffEvent(tick=36, channel=0, data=[117, 0]),\n",
      "   midi.NoteOffEvent(tick=77, channel=0, data=[44, 0]),\n",
      "   midi.NoteOffEvent(tick=5, channel=0, data=[36, 0]),\n",
      "   midi.NoteOffEvent(tick=0, channel=0, data=[71, 0]),\n",
      "   midi.EndOfTrackEvent(tick=0, data=[])]),\n",
      " midi.Track(\\\n",
      "  [midi.SetTempoEvent(tick=0, data=[8, 227, 124]),\n",
      "   midi.ProgramChangeEvent(tick=0, channel=0, data=[62]),\n",
      "   midi.NoteOnEvent(tick=22, channel=0, data=[108, 220]),\n",
      "   midi.NoteOffEvent(tick=41, channel=0, data=[108, 0]),\n",
      "   midi.NoteOnEvent(tick=39, channel=0, data=[111, 56]),\n",
      "   midi.NoteOnEvent(tick=2, channel=0, data=[76, 230]),\n",
      "   midi.NoteOnEvent(tick=0, channel=0, data=[103, 116]),\n",
      "   midi.NoteOnEvent(tick=6, channel=0, data=[60, 73]),\n",
      "   midi.NoteOnEvent(tick=4, channel=0, data=[31, 7]),\n",
      "   midi.NoteOnEvent(tick=16, channel=0, data=[35, 147]),\n",
      "   midi.NoteOnEvent(tick=0, channel=0, data=[21, 98]),\n",
      "   midi.NoteOnEvent(tick=7, channel=0, data=[104, 98]),\n",
      "   midi.NoteOnEvent(tick=8, channel=0, data=[118, 221]),\n",
      "   midi.NoteOnEvent(tick=1, channel=0, data=[0, 193]),\n",
      "   midi.NoteOnEvent(tick=0, channel=0, data=[69, 135]),\n",
      "   midi.NoteOnEvent(tick=7, channel=0, data=[98, 169]),\n",
      "   midi.NoteOnEvent(tick=37, channel=0, data=[78, 108]),\n",
      "   midi.NoteOnEvent(tick=2, channel=0, data=[80, 248]),\n",
      "   midi.NoteOnEvent(tick=0, channel=0, data=[31, 245]),\n",
      "   midi.NoteOnEvent(tick=34, channel=0, data=[86, 9]),\n",
      "   midi.NoteOffEvent(tick=42, channel=0, data=[80, 0]),\n",
      "   midi.NoteOffEvent(tick=0, channel=0, data=[31, 0]),\n",
      "   midi.NoteOnEvent(tick=41, channel=0, data=[108, 33]),\n",
      "   midi.NoteOnEvent(tick=9, channel=0, data=[8, 237]),\n",
      "   midi.NoteOnEvent(tick=4, channel=0, data=[20, 17]),\n",
      "   midi.NoteOffEvent(tick=7, channel=0, data=[86, 0]),\n",
      "   midi.NoteOnEvent(tick=28, channel=0, data=[71, 139]),\n",
      "   midi.NoteOffEvent(tick=16, channel=0, data=[76, 0]),\n",
      "   midi.NoteOnEvent(tick=30, channel=0, data=[69, 228]),\n",
      "   midi.NoteOnEvent(tick=3, channel=0, data=[27, 251]),\n",
      "   midi.NoteOnEvent(tick=0, channel=0, data=[1, 197]),\n",
      "   midi.NoteOnEvent(tick=4, channel=0, data=[69, 42]),\n",
      "   midi.NoteOnEvent(tick=0, channel=0, data=[63, 171]),\n",
      "   midi.NoteOnEvent(tick=23, channel=0, data=[17, 93]),\n",
      "   midi.NoteOnEvent(tick=5, channel=0, data=[114, 7]),\n",
      "   midi.NoteOnEvent(tick=3, channel=0, data=[42, 205]),\n",
      "   midi.NoteOnEvent(tick=10, channel=0, data=[124, 186]),\n",
      "   midi.NoteOnEvent(tick=20, channel=0, data=[109, 72]),\n",
      "   midi.NoteOffEvent(tick=4, channel=0, data=[8, 0]),\n",
      "   midi.NoteOnEvent(tick=7, channel=0, data=[35, 246]),\n",
      "   midi.NoteOnEvent(tick=0, channel=0, data=[99, 91]),\n",
      "   midi.NoteOnEvent(tick=6, channel=0, data=[13, 124]),\n",
      "   midi.NoteOnEvent(tick=0, channel=0, data=[44, 55]),\n",
      "   midi.NoteOnEvent(tick=26, channel=0, data=[66, 85]),\n",
      "   midi.NoteOnEvent(tick=2, channel=0, data=[75, 55]),\n",
      "   midi.NoteOnEvent(tick=5, channel=0, data=[68, 19]),\n",
      "   midi.NoteOnEvent(tick=9, channel=0, data=[33, 18]),\n",
      "   midi.NoteOffEvent(tick=4, channel=0, data=[20, 0]),\n",
      "   midi.NoteOnEvent(tick=4, channel=0, data=[124, 89]),\n",
      "   midi.NoteOnEvent(tick=0, channel=0, data=[34, 97]),\n",
      "   midi.NoteOnEvent(tick=16, channel=0, data=[30, 193]),\n",
      "   midi.NoteOnEvent(tick=0, channel=0, data=[10, 192]),\n",
      "   midi.NoteOnEvent(tick=3, channel=0, data=[120, 59]),\n",
      "   midi.NoteOffEvent(tick=9, channel=0, data=[63, 0]),\n",
      "   midi.NoteOffEvent(tick=5, channel=0, data=[33, 0]),\n",
      "   midi.NoteOnEvent(tick=4, channel=0, data=[24, 70]),\n",
      "   midi.NoteOnEvent(tick=6, channel=0, data=[122, 69]),\n",
      "   midi.NoteOnEvent(tick=0, channel=0, data=[3, 172]),\n",
      "   midi.NoteOffEvent(tick=12, channel=0, data=[34, 0]),\n",
      "   midi.NoteOnEvent(tick=2, channel=0, data=[81, 55]),\n",
      "   midi.NoteOnEvent(tick=8, channel=0, data=[73, 6]),\n",
      "   midi.NoteOnEvent(tick=2, channel=0, data=[45, 77]),\n",
      "   midi.NoteOnEvent(tick=5, channel=0, data=[13, 212]),\n",
      "   midi.NoteOnEvent(tick=8, channel=0, data=[12, 239]),\n",
      "   midi.NoteOnEvent(tick=3, channel=0, data=[72, 247]),\n",
      "   midi.NoteOffEvent(tick=8, channel=0, data=[118, 0]),\n",
      "   midi.NoteOnEvent(tick=5, channel=0, data=[54, 177]),\n",
      "   midi.NoteOffEvent(tick=1, channel=0, data=[1, 0]),\n",
      "   midi.NoteOnEvent(tick=22, channel=0, data=[55, 136]),\n",
      "   midi.NoteOffEvent(tick=8, channel=0, data=[45, 0]),\n",
      "   midi.NoteOnEvent(tick=1, channel=0, data=[124, 230]),\n",
      "   midi.NoteOffEvent(tick=18, channel=0, data=[99, 0]),\n",
      "   midi.NoteOffEvent(tick=9, channel=0, data=[69, 0]),\n",
      "   midi.NoteOffEvent(tick=5, channel=0, data=[108, 0]),\n",
      "   midi.NoteOffEvent(tick=0, channel=0, data=[122, 0]),\n",
      "   midi.NoteOnEvent(tick=15, channel=0, data=[80, 74]),\n",
      "   midi.NoteOffEvent(tick=2, channel=0, data=[104, 0]),\n",
      "   midi.NoteOnEvent(tick=18, channel=0, data=[30, 162]),\n",
      "   midi.NoteOnEvent(tick=2, channel=0, data=[33, 52]),\n",
      "   midi.NoteOffEvent(tick=8, channel=0, data=[103, 0]),\n",
      "   midi.NoteOffEvent(tick=4, channel=0, data=[24, 0]),\n",
      "   midi.NoteOnEvent(tick=30, channel=0, data=[98, 7]),\n",
      "   midi.NoteOffEvent(tick=10, channel=0, data=[42, 0]),\n",
      "   midi.NoteOffEvent(tick=17, channel=0, data=[13, 0]),\n",
      "   midi.NoteOffEvent(tick=12, channel=0, data=[78, 0]),\n",
      "   midi.NoteOnEvent(tick=9, channel=0, data=[61, 94]),\n",
      "   midi.NoteOnEvent(tick=13, channel=0, data=[44, 52]),\n",
      "   midi.NoteOffEvent(tick=13, channel=0, data=[44, 0]),\n",
      "   midi.NoteOnEvent(tick=3, channel=0, data=[12, 142]),\n",
      "   midi.NoteOffEvent(tick=10, channel=0, data=[0, 0]),\n",
      "   midi.NoteOffEvent(tick=27, channel=0, data=[21, 0]),\n",
      "   midi.NoteOffEvent(tick=18, channel=0, data=[27, 0]),\n",
      "   midi.NoteOnEvent(tick=12, channel=0, data=[26, 234]),\n",
      "   midi.NoteOnEvent(tick=0, channel=0, data=[107, 18]),\n",
      "   midi.NoteOnEvent(tick=0, channel=0, data=[51, 0]),\n",
      "   midi.NoteOnEvent(tick=8, channel=0, data=[53, 177]),\n",
      "   midi.NoteOffEvent(tick=14, channel=0, data=[54, 0]),\n",
      "   midi.NoteOffEvent(tick=2, channel=0, data=[71, 0]),\n",
      "   midi.NoteOffEvent(tick=5, channel=0, data=[66, 0]),\n",
      "   midi.NoteOnEvent(tick=0, channel=0, data=[105, 114]),\n",
      "   midi.NoteOnEvent(tick=20, channel=0, data=[13, 146]),\n",
      "   midi.NoteOnEvent(tick=7, channel=0, data=[38, 219]),\n",
      "   midi.NoteOffEvent(tick=8, channel=0, data=[120, 0]),\n",
      "   midi.NoteOffEvent(tick=3, channel=0, data=[33, 0]),\n",
      "   midi.NoteOffEvent(tick=14, channel=0, data=[60, 0]),\n",
      "   midi.NoteOffEvent(tick=15, channel=0, data=[75, 0]),\n",
      "   midi.NoteOffEvent(tick=31, channel=0, data=[68, 0]),\n",
      "   midi.NoteOffEvent(tick=12, channel=0, data=[98, 0]),\n",
      "   midi.NoteOffEvent(tick=24, channel=0, data=[30, 0]),\n",
      "   midi.NoteOffEvent(tick=10, channel=0, data=[13, 0]),\n",
      "   midi.NoteOffEvent(tick=8, channel=0, data=[111, 0]),\n",
      "   midi.NoteOffEvent(tick=3, channel=0, data=[73, 0]),\n",
      "   midi.NoteOffEvent(tick=19, channel=0, data=[72, 0]),\n",
      "   midi.NoteOffEvent(tick=24, channel=0, data=[35, 0]),\n",
      "   midi.NoteOffEvent(tick=9, channel=0, data=[55, 0]),\n",
      "   midi.NoteOffEvent(tick=8, channel=0, data=[114, 0]),\n",
      "   midi.NoteOffEvent(tick=49, channel=0, data=[109, 0]),\n",
      "   midi.NoteOffEvent(tick=12, channel=0, data=[12, 0]),\n",
      "   midi.NoteOffEvent(tick=47, channel=0, data=[26, 0]),\n",
      "   midi.NoteOffEvent(tick=26, channel=0, data=[17, 0]),\n",
      "   midi.NoteOffEvent(tick=31, channel=0, data=[51, 0]),\n",
      "   midi.NoteOffEvent(tick=31, channel=0, data=[81, 0]),\n",
      "   midi.NoteOffEvent(tick=63, channel=0, data=[61, 0]),\n",
      "   midi.NoteOffEvent(tick=52, channel=0, data=[10, 0]),\n",
      "   midi.NoteOffEvent(tick=19, channel=0, data=[105, 0]),\n",
      "   midi.NoteOffEvent(tick=4, channel=0, data=[80, 0]),\n",
      "   midi.NoteOffEvent(tick=11, channel=0, data=[124, 0]),\n",
      "   midi.NoteOffEvent(tick=36, channel=0, data=[3, 0]),\n",
      "   midi.NoteOffEvent(tick=216, channel=0, data=[53, 0]),\n",
      "   midi.NoteOffEvent(tick=76, channel=0, data=[38, 0]),\n",
      "   midi.NoteOffEvent(tick=50, channel=0, data=[107, 0]),\n",
      "   midi.EndOfTrackEvent(tick=0, data=[])]),\n",
      " midi.Track(\\\n",
      "  [midi.SetTempoEvent(tick=0, data=[8, 227, 124]),\n",
      "   midi.ProgramChangeEvent(tick=0, channel=0, data=[63]),\n",
      "   midi.NoteOnEvent(tick=6, channel=0, data=[82, 100]),\n",
      "   midi.NoteOffEvent(tick=26, channel=0, data=[82, 0]),\n",
      "   midi.NoteOnEvent(tick=36, channel=0, data=[118, 21]),\n",
      "   midi.NoteOnEvent(tick=1, channel=0, data=[43, 54]),\n",
      "   midi.NoteOnEvent(tick=43, channel=0, data=[78, 245]),\n",
      "   midi.NoteOnEvent(tick=3, channel=0, data=[82, 76]),\n",
      "   midi.NoteOnEvent(tick=17, channel=0, data=[107, 202]),\n",
      "   midi.NoteOnEvent(tick=21, channel=0, data=[103, 115]),\n",
      "   midi.NoteOnEvent(tick=39, channel=0, data=[96, 193]),\n",
      "   midi.NoteOnEvent(tick=0, channel=0, data=[30, 67]),\n",
      "   midi.NoteOnEvent(tick=2, channel=0, data=[60, 207]),\n",
      "   midi.NoteOnEvent(tick=15, channel=0, data=[62, 114]),\n",
      "   midi.NoteOnEvent(tick=13, channel=0, data=[33, 240]),\n",
      "   midi.NoteOnEvent(tick=0, channel=0, data=[8, 34]),\n",
      "   midi.NoteOnEvent(tick=4, channel=0, data=[93, 87]),\n",
      "   midi.NoteOffEvent(tick=7, channel=0, data=[82, 0]),\n",
      "   midi.NoteOnEvent(tick=12, channel=0, data=[104, 72]),\n",
      "   midi.NoteOffEvent(tick=22, channel=0, data=[8, 0]),\n",
      "   midi.NoteOnEvent(tick=2, channel=0, data=[104, 107]),\n",
      "   midi.NoteOnEvent(tick=7, channel=0, data=[67, 232]),\n",
      "   midi.NoteOffEvent(tick=10, channel=0, data=[96, 0]),\n",
      "   midi.NoteOnEvent(tick=4, channel=0, data=[74, 212]),\n",
      "   midi.NoteOnEvent(tick=3, channel=0, data=[43, 254]),\n",
      "   midi.NoteOnEvent(tick=39, channel=0, data=[65, 18]),\n",
      "   midi.NoteOnEvent(tick=0, channel=0, data=[82, 69]),\n",
      "   midi.NoteOnEvent(tick=4, channel=0, data=[95, 38]),\n",
      "   midi.NoteOnEvent(tick=10, channel=0, data=[99, 85]),\n",
      "   midi.NoteOffEvent(tick=7, channel=0, data=[118, 0]),\n",
      "   midi.NoteOffEvent(tick=9, channel=0, data=[82, 0]),\n",
      "   midi.NoteOnEvent(tick=28, channel=0, data=[54, 43]),\n",
      "   midi.NoteOnEvent(tick=8, channel=0, data=[105, 102]),\n",
      "   midi.NoteOnEvent(tick=6, channel=0, data=[96, 94]),\n",
      "   midi.NoteOnEvent(tick=2, channel=0, data=[19, 89]),\n",
      "   midi.NoteOnEvent(tick=0, channel=0, data=[94, 187]),\n",
      "   midi.NoteOnEvent(tick=15, channel=0, data=[81, 194]),\n",
      "   midi.NoteOffEvent(tick=34, channel=0, data=[103, 0]),\n",
      "   midi.NoteOffEvent(tick=9, channel=0, data=[93, 0]),\n",
      "   midi.NoteOnEvent(tick=7, channel=0, data=[65, 118]),\n",
      "   midi.NoteOffEvent(tick=12, channel=0, data=[65, 0]),\n",
      "   midi.NoteOnEvent(tick=0, channel=0, data=[91, 15]),\n",
      "   midi.NoteOnEvent(tick=4, channel=0, data=[48, 229]),\n",
      "   midi.NoteOnEvent(tick=2, channel=0, data=[122, 235]),\n",
      "   midi.NoteOffEvent(tick=7, channel=0, data=[78, 0]),\n",
      "   midi.NoteOffEvent(tick=10, channel=0, data=[74, 0]),\n",
      "   midi.NoteOnEvent(tick=9, channel=0, data=[75, 67]),\n",
      "   midi.NoteOnEvent(tick=38, channel=0, data=[35, 88]),\n",
      "   midi.NoteOnEvent(tick=5, channel=0, data=[13, 13]),\n",
      "   midi.NoteOnEvent(tick=10, channel=0, data=[80, 29]),\n",
      "   midi.NoteOnEvent(tick=6, channel=0, data=[22, 188]),\n",
      "   midi.NoteOnEvent(tick=0, channel=0, data=[75, 189]),\n",
      "   midi.NoteOnEvent(tick=1, channel=0, data=[84, 165]),\n",
      "   midi.NoteOffEvent(tick=49, channel=0, data=[105, 0]),\n",
      "   midi.NoteOnEvent(tick=2, channel=0, data=[36, 16]),\n",
      "   midi.NoteOnEvent(tick=4, channel=0, data=[106, 190]),\n",
      "   midi.NoteOnEvent(tick=4, channel=0, data=[88, 245]),\n",
      "   midi.NoteOnEvent(tick=19, channel=0, data=[27, 76]),\n",
      "   midi.NoteOffEvent(tick=54, channel=0, data=[36, 0]),\n",
      "   midi.NoteOffEvent(tick=1, channel=0, data=[48, 0]),\n",
      "   midi.NoteOffEvent(tick=18, channel=0, data=[19, 0]),\n",
      "   midi.NoteOnEvent(tick=7, channel=0, data=[89, 169]),\n",
      "   midi.NoteOffEvent(tick=1, channel=0, data=[91, 0]),\n",
      "   midi.NoteOnEvent(tick=5, channel=0, data=[30, 158]),\n",
      "   midi.NoteOnEvent(tick=23, channel=0, data=[41, 167]),\n",
      "   midi.NoteOnEvent(tick=0, channel=0, data=[30, 91]),\n",
      "   midi.NoteOnEvent(tick=2, channel=0, data=[120, 198]),\n",
      "   midi.NoteOffEvent(tick=11, channel=0, data=[67, 0]),\n",
      "   midi.NoteOnEvent(tick=2, channel=0, data=[74, 196]),\n",
      "   midi.NoteOnEvent(tick=9, channel=0, data=[81, 31]),\n",
      "   midi.NoteOnEvent(tick=3, channel=0, data=[119, 53]),\n",
      "   midi.NoteOnEvent(tick=2, channel=0, data=[39, 231]),\n",
      "   midi.NoteOnEvent(tick=17, channel=0, data=[22, 212]),\n",
      "   midi.NoteOnEvent(tick=0, channel=0, data=[120, 83]),\n",
      "   midi.NoteOffEvent(tick=3, channel=0, data=[80, 0]),\n",
      "   midi.NoteOnEvent(tick=7, channel=0, data=[100, 68]),\n",
      "   midi.NoteOffEvent(tick=5, channel=0, data=[84, 0]),\n",
      "   midi.NoteOffEvent(tick=13, channel=0, data=[95, 0]),\n",
      "   midi.NoteOnEvent(tick=14, channel=0, data=[59, 237]),\n",
      "   midi.NoteOnEvent(tick=4, channel=0, data=[70, 152]),\n",
      "   midi.NoteOffEvent(tick=1, channel=0, data=[106, 0]),\n",
      "   midi.NoteOffEvent(tick=4, channel=0, data=[62, 0]),\n",
      "   midi.NoteOffEvent(tick=3, channel=0, data=[60, 0]),\n",
      "   midi.NoteOffEvent(tick=19, channel=0, data=[122, 0]),\n",
      "   midi.NoteOffEvent(tick=2, channel=0, data=[120, 0]),\n",
      "   midi.NoteOnEvent(tick=0, channel=0, data=[61, 195]),\n",
      "   midi.NoteOnEvent(tick=4, channel=0, data=[116, 183]),\n",
      "   midi.NoteOffEvent(tick=3, channel=0, data=[54, 0]),\n",
      "   midi.NoteOffEvent(tick=18, channel=0, data=[75, 0]),\n",
      "   midi.NoteOffEvent(tick=4, channel=0, data=[89, 0]),\n",
      "   midi.NoteOffEvent(tick=14, channel=0, data=[35, 0]),\n",
      "   midi.NoteOnEvent(tick=8, channel=0, data=[34, 43]),\n",
      "   midi.NoteOnEvent(tick=4, channel=0, data=[7, 174]),\n",
      "   midi.NoteOnEvent(tick=1, channel=0, data=[46, 196]),\n",
      "   midi.NoteOnEvent(tick=0, channel=0, data=[61, 133]),\n",
      "   midi.NoteOnEvent(tick=0, channel=0, data=[75, 17]),\n",
      "   midi.NoteOffEvent(tick=7, channel=0, data=[99, 0]),\n",
      "   midi.NoteOnEvent(tick=4, channel=0, data=[3, 18]),\n",
      "   midi.NoteOnEvent(tick=5, channel=0, data=[17, 58]),\n",
      "   midi.NoteOffEvent(tick=2, channel=0, data=[59, 0]),\n",
      "   midi.NoteOnEvent(tick=42, channel=0, data=[84, 19]),\n",
      "   midi.NoteOffEvent(tick=44, channel=0, data=[104, 0]),\n",
      "   midi.NoteOffEvent(tick=17, channel=0, data=[107, 0]),\n",
      "   midi.NoteOffEvent(tick=13, channel=0, data=[3, 0]),\n",
      "   midi.NoteOffEvent(tick=61, channel=0, data=[116, 0]),\n",
      "   midi.NoteOffEvent(tick=8, channel=0, data=[33, 0]),\n",
      "   midi.NoteOffEvent(tick=35, channel=0, data=[61, 0]),\n",
      "   midi.NoteOffEvent(tick=3, channel=0, data=[43, 0]),\n",
      "   midi.NoteOffEvent(tick=1, channel=0, data=[96, 0]),\n",
      "   midi.NoteOffEvent(tick=26, channel=0, data=[70, 0]),\n",
      "   midi.NoteOffEvent(tick=24, channel=0, data=[30, 0]),\n",
      "   midi.NoteOffEvent(tick=0, channel=0, data=[39, 0]),\n",
      "   midi.NoteOffEvent(tick=29, channel=0, data=[119, 0]),\n",
      "   midi.NoteOffEvent(tick=3, channel=0, data=[94, 0]),\n",
      "   midi.NoteOffEvent(tick=4, channel=0, data=[13, 0]),\n",
      "   midi.NoteOffEvent(tick=14, channel=0, data=[81, 0]),\n",
      "   midi.NoteOffEvent(tick=30, channel=0, data=[88, 0]),\n",
      "   midi.NoteOffEvent(tick=6, channel=0, data=[74, 0]),\n",
      "   midi.NoteOffEvent(tick=10, channel=0, data=[7, 0]),\n",
      "   midi.NoteOffEvent(tick=13, channel=0, data=[46, 0]),\n",
      "   midi.NoteOffEvent(tick=29, channel=0, data=[27, 0]),\n",
      "   midi.NoteOffEvent(tick=37, channel=0, data=[41, 0]),\n",
      "   midi.NoteOffEvent(tick=43, channel=0, data=[100, 0]),\n",
      "   midi.NoteOffEvent(tick=21, channel=0, data=[17, 0]),\n",
      "   midi.NoteOffEvent(tick=30, channel=0, data=[34, 0]),\n",
      "   midi.NoteOffEvent(tick=17, channel=0, data=[22, 0]),\n",
      "   midi.NoteOffEvent(tick=339, channel=0, data=[75, 0]),\n",
      "   midi.NoteOffEvent(tick=61, channel=0, data=[84, 0]),\n",
      "   midi.EndOfTrackEvent(tick=0, data=[])]),\n",
      " midi.Track(\\\n",
      "  [midi.SetTempoEvent(tick=0, data=[8, 227, 124]),\n",
      "   midi.ProgramChangeEvent(tick=0, channel=0, data=[64]),\n",
      "   midi.NoteOnEvent(tick=11, channel=0, data=[112, 241]),\n",
      "   midi.NoteOnEvent(tick=21, channel=0, data=[53, 222]),\n",
      "   midi.NoteOnEvent(tick=22, channel=0, data=[50, 151]),\n",
      "   midi.NoteOnEvent(tick=25, channel=0, data=[78, 199]),\n",
      "   midi.NoteOnEvent(tick=25, channel=0, data=[41, 180]),\n",
      "   midi.NoteOffEvent(tick=1, channel=0, data=[41, 0]),\n",
      "   midi.NoteOnEvent(tick=12, channel=0, data=[2, 96]),\n",
      "   midi.NoteOnEvent(tick=5, channel=0, data=[81, 137]),\n",
      "   midi.NoteOnEvent(tick=8, channel=0, data=[110, 123]),\n",
      "   midi.NoteOnEvent(tick=8, channel=0, data=[101, 164]),\n",
      "   midi.NoteOnEvent(tick=45, channel=0, data=[90, 138]),\n",
      "   midi.NoteOnEvent(tick=7, channel=0, data=[85, 165]),\n",
      "   midi.NoteOnEvent(tick=7, channel=0, data=[33, 178]),\n",
      "   midi.NoteOnEvent(tick=11, channel=0, data=[106, 107]),\n",
      "   midi.NoteOnEvent(tick=9, channel=0, data=[84, 197]),\n",
      "   midi.NoteOnEvent(tick=5, channel=0, data=[40, 46]),\n",
      "   midi.NoteOnEvent(tick=71, channel=0, data=[108, 56]),\n",
      "   midi.NoteOnEvent(tick=16, channel=0, data=[110, 33]),\n",
      "   midi.NoteOffEvent(tick=9, channel=0, data=[90, 0]),\n",
      "   midi.NoteOnEvent(tick=14, channel=0, data=[32, 6]),\n",
      "   midi.NoteOffEvent(tick=55, channel=0, data=[101, 0]),\n",
      "   midi.NoteOffEvent(tick=19, channel=0, data=[106, 0]),\n",
      "   midi.NoteOnEvent(tick=2, channel=0, data=[86, 50]),\n",
      "   midi.NoteOffEvent(tick=50, channel=0, data=[112, 0]),\n",
      "   midi.NoteOnEvent(tick=12, channel=0, data=[103, 178]),\n",
      "   midi.NoteOnEvent(tick=2, channel=0, data=[4, 165]),\n",
      "   midi.NoteOnEvent(tick=2, channel=0, data=[37, 4]),\n",
      "   midi.NoteOnEvent(tick=1, channel=0, data=[124, 186]),\n",
      "   midi.NoteOffEvent(tick=8, channel=0, data=[32, 0]),\n",
      "   midi.NoteOnEvent(tick=0, channel=0, data=[36, 212]),\n",
      "   midi.NoteOffEvent(tick=6, channel=0, data=[78, 0]),\n",
      "   midi.NoteOnEvent(tick=4, channel=0, data=[94, 66]),\n",
      "   midi.NoteOnEvent(tick=15, channel=0, data=[65, 191]),\n",
      "   midi.NoteOnEvent(tick=39, channel=0, data=[54, 107]),\n",
      "   midi.NoteOnEvent(tick=7, channel=0, data=[111, 255]),\n",
      "   midi.NoteOnEvent(tick=1, channel=0, data=[70, 172]),\n",
      "   midi.NoteOnEvent(tick=13, channel=0, data=[17, 31]),\n",
      "   midi.NoteOnEvent(tick=0, channel=0, data=[100, 183]),\n",
      "   midi.NoteOnEvent(tick=0, channel=0, data=[12, 198]),\n",
      "   midi.NoteOnEvent(tick=6, channel=0, data=[80, 198]),\n",
      "   midi.NoteOnEvent(tick=17, channel=0, data=[122, 91]),\n",
      "   midi.NoteOffEvent(tick=1, channel=0, data=[12, 0]),\n",
      "   midi.NoteOffEvent(tick=0, channel=0, data=[17, 0]),\n",
      "   midi.NoteOffEvent(tick=12, channel=0, data=[37, 0]),\n",
      "   midi.NoteOffEvent(tick=33, channel=0, data=[124, 0]),\n",
      "   midi.NoteOnEvent(tick=11, channel=0, data=[56, 251]),\n",
      "   midi.NoteOnEvent(tick=9, channel=0, data=[23, 254]),\n",
      "   midi.NoteOffEvent(tick=1, channel=0, data=[50, 0]),\n",
      "   midi.NoteOnEvent(tick=8, channel=0, data=[70, 87]),\n",
      "   midi.NoteOnEvent(tick=5, channel=0, data=[9, 63]),\n",
      "   midi.NoteOnEvent(tick=17, channel=0, data=[85, 254]),\n",
      "   midi.NoteOnEvent(tick=23, channel=0, data=[71, 60]),\n",
      "   midi.NoteOffEvent(tick=28, channel=0, data=[110, 0]),\n",
      "   midi.NoteOffEvent(tick=11, channel=0, data=[81, 0]),\n",
      "   midi.NoteOffEvent(tick=17, channel=0, data=[108, 0]),\n",
      "   midi.NoteOnEvent(tick=5, channel=0, data=[108, 225]),\n",
      "   midi.NoteOffEvent(tick=28, channel=0, data=[2, 0]),\n",
      "   midi.NoteOffEvent(tick=71, channel=0, data=[53, 0]),\n",
      "   midi.NoteOnEvent(tick=4, channel=0, data=[67, 206]),\n",
      "   midi.NoteOffEvent(tick=23, channel=0, data=[122, 0]),\n",
      "   midi.NoteOnEvent(tick=4, channel=0, data=[83, 34]),\n",
      "   midi.NoteOffEvent(tick=12, channel=0, data=[86, 0]),\n",
      "   midi.NoteOnEvent(tick=7, channel=0, data=[1, 222]),\n",
      "   midi.NoteOnEvent(tick=25, channel=0, data=[102, 198]),\n",
      "   midi.NoteOnEvent(tick=9, channel=0, data=[120, 68]),\n",
      "   midi.NoteOffEvent(tick=1, channel=0, data=[36, 0]),\n",
      "   midi.NoteOnEvent(tick=13, channel=0, data=[126, 95]),\n",
      "   midi.NoteOffEvent(tick=33, channel=0, data=[65, 0]),\n",
      "   midi.NoteOffEvent(tick=2, channel=0, data=[33, 0]),\n",
      "   midi.NoteOffEvent(tick=29, channel=0, data=[84, 0]),\n",
      "   midi.NoteOffEvent(tick=2, channel=0, data=[83, 0]),\n",
      "   midi.NoteOffEvent(tick=30, channel=0, data=[70, 0]),\n",
      "   midi.NoteOffEvent(tick=18, channel=0, data=[40, 0]),\n",
      "   midi.NoteOffEvent(tick=12, channel=0, data=[54, 0]),\n",
      "   midi.NoteOffEvent(tick=115, channel=0, data=[108, 0]),\n",
      "   midi.NoteOffEvent(tick=20, channel=0, data=[100, 0]),\n",
      "   midi.NoteOffEvent(tick=45, channel=0, data=[4, 0]),\n",
      "   midi.NoteOffEvent(tick=109, channel=0, data=[71, 0]),\n",
      "   midi.NoteOffEvent(tick=13, channel=0, data=[94, 0]),\n",
      "   midi.NoteOffEvent(tick=2, channel=0, data=[103, 0]),\n",
      "   midi.NoteOffEvent(tick=28, channel=0, data=[85, 0]),\n",
      "   midi.NoteOffEvent(tick=14, channel=0, data=[56, 0]),\n",
      "   midi.NoteOffEvent(tick=4, channel=0, data=[67, 0]),\n",
      "   midi.NoteOffEvent(tick=14, channel=0, data=[111, 0]),\n",
      "   midi.NoteOffEvent(tick=17, channel=0, data=[23, 0]),\n",
      "   midi.NoteOffEvent(tick=17, channel=0, data=[80, 0]),\n",
      "   midi.NoteOffEvent(tick=54, channel=0, data=[102, 0]),\n",
      "   midi.NoteOffEvent(tick=32, channel=0, data=[9, 0]),\n",
      "   midi.NoteOffEvent(tick=154, channel=0, data=[120, 0]),\n",
      "   midi.NoteOffEvent(tick=67, channel=0, data=[1, 0]),\n",
      "   midi.NoteOffEvent(tick=96, channel=0, data=[126, 0]),\n",
      "   midi.EndOfTrackEvent(tick=0, data=[])]),\n",
      " midi.Track(\\\n",
      "  [midi.SetTempoEvent(tick=0, data=[8, 227, 124]),\n",
      "   midi.ProgramChangeEvent(tick=0, channel=0, data=[65]),\n",
      "   midi.NoteOnEvent(tick=3, channel=0, data=[69, 57]),\n",
      "   midi.NoteOnEvent(tick=5, channel=0, data=[85, 250]),\n",
      "   midi.NoteOnEvent(tick=27, channel=0, data=[103, 71]),\n",
      "   midi.NoteOnEvent(tick=69, channel=0, data=[124, 214]),\n",
      "   midi.NoteOnEvent(tick=10, channel=0, data=[2, 35]),\n",
      "   midi.NoteOnEvent(tick=28, channel=0, data=[84, 4]),\n",
      "   midi.NoteOnEvent(tick=24, channel=0, data=[25, 33]),\n",
      "   midi.NoteOnEvent(tick=11, channel=0, data=[15, 28]),\n",
      "   midi.NoteOnEvent(tick=20, channel=0, data=[67, 89]),\n",
      "   midi.NoteOnEvent(tick=6, channel=0, data=[63, 108]),\n",
      "   midi.NoteOnEvent(tick=2, channel=0, data=[19, 45]),\n",
      "   midi.NoteOnEvent(tick=0, channel=0, data=[89, 141]),\n",
      "   midi.NoteOnEvent(tick=0, channel=0, data=[59, 9]),\n",
      "   midi.NoteOnEvent(tick=3, channel=0, data=[76, 244]),\n",
      "   midi.NoteOnEvent(tick=14, channel=0, data=[1, 56]),\n",
      "   midi.NoteOnEvent(tick=10, channel=0, data=[58, 243]),\n",
      "   midi.NoteOnEvent(tick=9, channel=0, data=[40, 3]),\n",
      "   midi.NoteOnEvent(tick=4, channel=0, data=[100, 247]),\n",
      "   midi.NoteOnEvent(tick=1, channel=0, data=[88, 182]),\n",
      "   midi.NoteOnEvent(tick=2, channel=0, data=[33, 63]),\n",
      "   midi.NoteOnEvent(tick=11, channel=0, data=[0, 120]),\n",
      "   midi.NoteOnEvent(tick=21, channel=0, data=[20, 241]),\n",
      "   midi.NoteOnEvent(tick=18, channel=0, data=[106, 214]),\n",
      "   midi.NoteOnEvent(tick=0, channel=0, data=[119, 232]),\n",
      "   midi.NoteOnEvent(tick=15, channel=0, data=[44, 187]),\n",
      "   midi.NoteOffEvent(tick=23, channel=0, data=[58, 0]),\n",
      "   midi.NoteOnEvent(tick=12, channel=0, data=[96, 176]),\n",
      "   midi.NoteOffEvent(tick=15, channel=0, data=[89, 0]),\n",
      "   midi.NoteOnEvent(tick=35, channel=0, data=[110, 50]),\n",
      "   midi.NoteOnEvent(tick=4, channel=0, data=[52, 164]),\n",
      "   midi.NoteOnEvent(tick=1, channel=0, data=[51, 223]),\n",
      "   midi.NoteOnEvent(tick=0, channel=0, data=[46, 54]),\n",
      "   midi.NoteOnEvent(tick=3, channel=0, data=[54, 204]),\n",
      "   midi.NoteOnEvent(tick=9, channel=0, data=[68, 38]),\n",
      "   midi.NoteOffEvent(tick=21, channel=0, data=[51, 0]),\n",
      "   midi.NoteOnEvent(tick=2, channel=0, data=[51, 75]),\n",
      "   midi.NoteOffEvent(tick=15, channel=0, data=[46, 0]),\n",
      "   midi.NoteOffEvent(tick=1, channel=0, data=[1, 0]),\n",
      "   midi.NoteOnEvent(tick=16, channel=0, data=[63, 112]),\n",
      "   midi.NoteOnEvent(tick=7, channel=0, data=[121, 177]),\n",
      "   midi.NoteOnEvent(tick=2, channel=0, data=[55, 180]),\n",
      "   midi.NoteOnEvent(tick=2, channel=0, data=[105, 0]),\n",
      "   midi.NoteOnEvent(tick=10, channel=0, data=[11, 113]),\n",
      "   midi.NoteOnEvent(tick=23, channel=0, data=[63, 45]),\n",
      "   midi.NoteOffEvent(tick=14, channel=0, data=[121, 0]),\n",
      "   midi.NoteOnEvent(tick=32, channel=0, data=[7, 129]),\n",
      "   midi.NoteOffEvent(tick=3, channel=0, data=[106, 0]),\n",
      "   midi.NoteOnEvent(tick=8, channel=0, data=[79, 122]),\n",
      "   midi.NoteOffEvent(tick=26, channel=0, data=[85, 0]),\n",
      "   midi.NoteOffEvent(tick=4, channel=0, data=[40, 0]),\n",
      "   midi.NoteOnEvent(tick=18, channel=0, data=[24, 39]),\n",
      "   midi.NoteOnEvent(tick=2, channel=0, data=[47, 37]),\n",
      "   midi.NoteOffEvent(tick=15, channel=0, data=[54, 0]),\n",
      "   midi.NoteOnEvent(tick=2, channel=0, data=[43, 146]),\n",
      "   midi.NoteOffEvent(tick=23, channel=0, data=[25, 0]),\n",
      "   midi.NoteOnEvent(tick=0, channel=0, data=[10, 162]),\n",
      "   midi.NoteOffEvent(tick=15, channel=0, data=[84, 0]),\n",
      "   midi.NoteOnEvent(tick=4, channel=0, data=[23, 250]),\n",
      "   midi.NoteOnEvent(tick=5, channel=0, data=[75, 126]),\n",
      "   midi.NoteOnEvent(tick=8, channel=0, data=[113, 146]),\n",
      "   midi.NoteOffEvent(tick=7, channel=0, data=[19, 0]),\n",
      "   midi.NoteOffEvent(tick=4, channel=0, data=[79, 0]),\n",
      "   midi.NoteOnEvent(tick=0, channel=0, data=[55, 251]),\n",
      "   midi.NoteOffEvent(tick=1, channel=0, data=[119, 0]),\n",
      "   midi.NoteOnEvent(tick=6, channel=0, data=[116, 130]),\n",
      "   midi.NoteOnEvent(tick=2, channel=0, data=[114, 45]),\n",
      "   midi.NoteOnEvent(tick=4, channel=0, data=[65, 159]),\n",
      "   midi.NoteOffEvent(tick=4, channel=0, data=[100, 0]),\n",
      "   midi.NoteOnEvent(tick=16, channel=0, data=[97, 9]),\n",
      "   midi.NoteOnEvent(tick=2, channel=0, data=[98, 51]),\n",
      "   midi.NoteOnEvent(tick=47, channel=0, data=[23, 145]),\n",
      "   midi.NoteOffEvent(tick=5, channel=0, data=[69, 0]),\n",
      "   midi.NoteOffEvent(tick=10, channel=0, data=[33, 0]),\n",
      "   midi.NoteOnEvent(tick=17, channel=0, data=[106, 135]),\n",
      "   midi.NoteOnEvent(tick=0, channel=0, data=[54, 92]),\n",
      "   midi.NoteOnEvent(tick=7, channel=0, data=[103, 116]),\n",
      "   midi.NoteOffEvent(tick=7, channel=0, data=[116, 0]),\n",
      "   midi.NoteOffEvent(tick=4, channel=0, data=[88, 0]),\n",
      "   midi.NoteOnEvent(tick=2, channel=0, data=[107, 226]),\n",
      "   midi.NoteOffEvent(tick=11, channel=0, data=[114, 0]),\n",
      "   midi.NoteOnEvent(tick=1, channel=0, data=[79, 87]),\n",
      "   midi.NoteOnEvent(tick=8, channel=0, data=[22, 111]),\n",
      "   midi.NoteOnEvent(tick=29, channel=0, data=[119, 231]),\n",
      "   midi.NoteOnEvent(tick=1, channel=0, data=[17, 150]),\n",
      "   midi.NoteOffEvent(tick=6, channel=0, data=[67, 0]),\n",
      "   midi.NoteOffEvent(tick=6, channel=0, data=[76, 0]),\n",
      "   midi.NoteOffEvent(tick=17, channel=0, data=[11, 0]),\n",
      "   midi.NoteOffEvent(tick=11, channel=0, data=[2, 0]),\n",
      "   midi.NoteOnEvent(tick=3, channel=0, data=[125, 70]),\n",
      "   midi.NoteOffEvent(tick=11, channel=0, data=[98, 0]),\n",
      "   midi.NoteOffEvent(tick=3, channel=0, data=[59, 0]),\n",
      "   midi.NoteOnEvent(tick=10, channel=0, data=[26, 156]),\n",
      "   midi.NoteOnEvent(tick=3, channel=0, data=[18, 210]),\n",
      "   midi.NoteOnEvent(tick=4, channel=0, data=[46, 223]),\n",
      "   midi.NoteOnEvent(tick=8, channel=0, data=[29, 65]),\n",
      "   midi.NoteOnEvent(tick=29, channel=0, data=[121, 58]),\n",
      "   midi.NoteOffEvent(tick=37, channel=0, data=[29, 0]),\n",
      "   midi.NoteOffEvent(tick=8, channel=0, data=[52, 0]),\n",
      "   midi.NoteOffEvent(tick=3, channel=0, data=[20, 0]),\n",
      "   midi.NoteOffEvent(tick=10, channel=0, data=[124, 0]),\n",
      "   midi.NoteOffEvent(tick=9, channel=0, data=[24, 0]),\n",
      "   midi.NoteOffEvent(tick=0, channel=0, data=[119, 0]),\n",
      "   midi.NoteOffEvent(tick=31, channel=0, data=[68, 0]),\n",
      "   midi.NoteOffEvent(tick=9, channel=0, data=[22, 0]),\n",
      "   midi.NoteOffEvent(tick=8, channel=0, data=[79, 0]),\n",
      "   midi.NoteOffEvent(tick=4, channel=0, data=[0, 0]),\n",
      "   midi.NoteOffEvent(tick=5, channel=0, data=[15, 0]),\n",
      "   midi.NoteOffEvent(tick=5, channel=0, data=[96, 0]),\n",
      "   midi.NoteOffEvent(tick=1, channel=0, data=[63, 0]),\n",
      "   midi.NoteOffEvent(tick=21, channel=0, data=[47, 0]),\n",
      "   midi.NoteOffEvent(tick=28, channel=0, data=[55, 0]),\n",
      "   midi.NoteOffEvent(tick=5, channel=0, data=[51, 0]),\n",
      "   midi.NoteOffEvent(tick=9, channel=0, data=[17, 0]),\n",
      "   midi.NoteOffEvent(tick=6, channel=0, data=[75, 0]),\n",
      "   midi.NoteOffEvent(tick=34, channel=0, data=[44, 0]),\n",
      "   midi.NoteOffEvent(tick=19, channel=0, data=[110, 0]),\n",
      "   midi.NoteOffEvent(tick=5, channel=0, data=[65, 0]),\n",
      "   midi.NoteOffEvent(tick=3, channel=0, data=[106, 0]),\n",
      "   midi.NoteOffEvent(tick=73, channel=0, data=[7, 0]),\n",
      "   midi.NoteOffEvent(tick=62, channel=0, data=[18, 0]),\n",
      "   midi.NoteOffEvent(tick=40, channel=0, data=[10, 0]),\n",
      "   midi.NoteOffEvent(tick=3, channel=0, data=[105, 0]),\n",
      "   midi.NoteOffEvent(tick=24, channel=0, data=[97, 0]),\n",
      "   midi.NoteOffEvent(tick=14, channel=0, data=[43, 0]),\n",
      "   midi.NoteOffEvent(tick=34, channel=0, data=[103, 0]),\n",
      "   midi.NoteOffEvent(tick=16, channel=0, data=[46, 0]),\n",
      "   midi.NoteOffEvent(tick=1, channel=0, data=[125, 0]),\n",
      "   midi.NoteOffEvent(tick=47, channel=0, data=[107, 0]),\n",
      "   midi.NoteOffEvent(tick=111, channel=0, data=[113, 0]),\n",
      "   midi.NoteOffEvent(tick=29, channel=0, data=[23, 0]),\n",
      "   midi.NoteOffEvent(tick=83, channel=0, data=[54, 0]),\n",
      "   midi.NoteOffEvent(tick=35, channel=0, data=[26, 0]),\n",
      "   midi.NoteOffEvent(tick=6, channel=0, data=[121, 0]),\n",
      "   midi.EndOfTrackEvent(tick=0, data=[])]),\n",
      " midi.Track(\\\n",
      "  [midi.SetTempoEvent(tick=0, data=[8, 227, 124]),\n",
      "   midi.ProgramChangeEvent(tick=0, channel=0, data=[66]),\n",
      "   midi.NoteOnEvent(tick=7, channel=0, data=[67, 59]),\n",
      "   midi.NoteOnEvent(tick=23, channel=0, data=[22, 135]),\n",
      "   midi.NoteOnEvent(tick=5, channel=0, data=[117, 60]),\n",
      "   midi.NoteOnEvent(tick=24, channel=0, data=[47, 207]),\n",
      "   midi.NoteOnEvent(tick=9, channel=0, data=[56, 80]),\n",
      "   midi.NoteOnEvent(tick=1, channel=0, data=[116, 118]),\n",
      "   midi.NoteOffEvent(tick=42, channel=0, data=[117, 0]),\n",
      "   midi.NoteOnEvent(tick=10, channel=0, data=[1, 214]),\n",
      "   midi.NoteOnEvent(tick=3, channel=0, data=[101, 153]),\n",
      "   midi.NoteOnEvent(tick=6, channel=0, data=[121, 195]),\n",
      "   midi.NoteOnEvent(tick=4, channel=0, data=[57, 168]),\n",
      "   midi.NoteOnEvent(tick=21, channel=0, data=[35, 150]),\n",
      "   midi.NoteOnEvent(tick=0, channel=0, data=[79, 197]),\n",
      "   midi.NoteOnEvent(tick=21, channel=0, data=[84, 181]),\n",
      "   midi.NoteOnEvent(tick=21, channel=0, data=[87, 203]),\n",
      "   midi.NoteOffEvent(tick=6, channel=0, data=[35, 0]),\n",
      "   midi.NoteOffEvent(tick=7, channel=0, data=[121, 0]),\n",
      "   midi.NoteOnEvent(tick=16, channel=0, data=[60, 247]),\n",
      "   midi.NoteOnEvent(tick=6, channel=0, data=[78, 99]),\n",
      "   midi.NoteOnEvent(tick=8, channel=0, data=[99, 209]),\n",
      "   midi.NoteOnEvent(tick=1, channel=0, data=[24, 239]),\n",
      "   midi.NoteOnEvent(tick=4, channel=0, data=[64, 75]),\n",
      "   midi.NoteOnEvent(tick=12, channel=0, data=[2, 151]),\n",
      "   midi.NoteOnEvent(tick=11, channel=0, data=[59, 141]),\n",
      "   midi.NoteOnEvent(tick=8, channel=0, data=[38, 144]),\n",
      "   midi.NoteOnEvent(tick=17, channel=0, data=[104, 195]),\n",
      "   midi.NoteOnEvent(tick=20, channel=0, data=[2, 57]),\n",
      "   midi.NoteOnEvent(tick=5, channel=0, data=[50, 190]),\n",
      "   midi.NoteOffEvent(tick=33, channel=0, data=[79, 0]),\n",
      "   midi.NoteOffEvent(tick=6, channel=0, data=[60, 0]),\n",
      "   midi.NoteOnEvent(tick=0, channel=0, data=[20, 247]),\n",
      "   midi.NoteOffEvent(tick=9, channel=0, data=[38, 0]),\n",
      "   midi.NoteOnEvent(tick=34, channel=0, data=[110, 169]),\n",
      "   midi.NoteOnEvent(tick=6, channel=0, data=[108, 250]),\n",
      "   midi.NoteOffEvent(tick=1, channel=0, data=[24, 0]),\n",
      "   midi.NoteOnEvent(tick=28, channel=0, data=[50, 2]),\n",
      "   midi.NoteOnEvent(tick=38, channel=0, data=[118, 201]),\n",
      "   midi.NoteOnEvent(tick=8, channel=0, data=[119, 47]),\n",
      "   midi.NoteOnEvent(tick=1, channel=0, data=[69, 99]),\n",
      "   midi.NoteOnEvent(tick=4, channel=0, data=[53, 148]),\n",
      "   midi.NoteOffEvent(tick=4, channel=0, data=[67, 0]),\n",
      "   midi.NoteOnEvent(tick=25, channel=0, data=[65, 187]),\n",
      "   midi.NoteOffEvent(tick=2, channel=0, data=[84, 0]),\n",
      "   midi.NoteOnEvent(tick=13, channel=0, data=[27, 254]),\n",
      "   midi.NoteOnEvent(tick=0, channel=0, data=[86, 237]),\n",
      "   midi.NoteOnEvent(tick=2, channel=0, data=[35, 217]),\n",
      "   midi.NoteOnEvent(tick=0, channel=0, data=[15, 12]),\n",
      "   midi.NoteOnEvent(tick=3, channel=0, data=[32, 237]),\n",
      "   midi.NoteOnEvent(tick=12, channel=0, data=[15, 201]),\n",
      "   midi.NoteOnEvent(tick=0, channel=0, data=[125, 206]),\n",
      "   midi.NoteOnEvent(tick=5, channel=0, data=[32, 129]),\n",
      "   midi.NoteOnEvent(tick=16, channel=0, data=[83, 138]),\n",
      "   midi.NoteOffEvent(tick=4, channel=0, data=[2, 0]),\n",
      "   midi.NoteOffEvent(tick=0, channel=0, data=[104, 0]),\n",
      "   midi.NoteOffEvent(tick=1, channel=0, data=[20, 0]),\n",
      "   midi.NoteOnEvent(tick=1, channel=0, data=[52, 241]),\n",
      "   midi.NoteOffEvent(tick=18, channel=0, data=[57, 0]),\n",
      "   midi.NoteOffEvent(tick=3, channel=0, data=[116, 0]),\n",
      "   midi.NoteOnEvent(tick=15, channel=0, data=[26, 115]),\n",
      "   midi.NoteOnEvent(tick=6, channel=0, data=[112, 226]),\n",
      "   midi.NoteOnEvent(tick=22, channel=0, data=[95, 80]),\n",
      "   midi.NoteOffEvent(tick=7, channel=0, data=[69, 0]),\n",
      "   midi.NoteOnEvent(tick=2, channel=0, data=[118, 104]),\n",
      "   midi.NoteOffEvent(tick=3, channel=0, data=[47, 0]),\n",
      "   midi.NoteOffEvent(tick=34, channel=0, data=[87, 0]),\n",
      "   midi.NoteOnEvent(tick=0, channel=0, data=[34, 11]),\n",
      "   midi.NoteOnEvent(tick=13, channel=0, data=[16, 19]),\n",
      "   midi.NoteOffEvent(tick=1, channel=0, data=[83, 0]),\n",
      "   midi.NoteOnEvent(tick=15, channel=0, data=[18, 154]),\n",
      "   midi.NoteOffEvent(tick=1, channel=0, data=[125, 0]),\n",
      "   midi.NoteOnEvent(tick=3, channel=0, data=[67, 176]),\n",
      "   midi.NoteOnEvent(tick=19, channel=0, data=[98, 151]),\n",
      "   midi.NoteOffEvent(tick=32, channel=0, data=[15, 0]),\n",
      "   midi.NoteOnEvent(tick=9, channel=0, data=[24, 116]),\n",
      "   midi.NoteOffEvent(tick=9, channel=0, data=[65, 0]),\n",
      "   midi.NoteOffEvent(tick=20, channel=0, data=[24, 0]),\n",
      "   midi.NoteOnEvent(tick=52, channel=0, data=[22, 134]),\n",
      "   midi.NoteOffEvent(tick=9, channel=0, data=[101, 0]),\n",
      "   midi.NoteOnEvent(tick=10, channel=0, data=[20, 17]),\n",
      "   midi.NoteOnEvent(tick=0, channel=0, data=[108, 161]),\n",
      "   midi.NoteOnEvent(tick=13, channel=0, data=[90, 44]),\n",
      "   midi.NoteOnEvent(tick=12, channel=0, data=[27, 34]),\n",
      "   midi.NoteOffEvent(tick=26, channel=0, data=[64, 0]),\n",
      "   midi.NoteOnEvent(tick=6, channel=0, data=[112, 57]),\n",
      "   midi.NoteOffEvent(tick=4, channel=0, data=[1, 0]),\n",
      "   midi.NoteOnEvent(tick=1, channel=0, data=[74, 181]),\n",
      "   midi.NoteOffEvent(tick=6, channel=0, data=[56, 0]),\n",
      "   midi.NoteOnEvent(tick=4, channel=0, data=[95, 124]),\n",
      "   midi.NoteOnEvent(tick=9, channel=0, data=[106, 163]),\n",
      "   midi.NoteOffEvent(tick=10, channel=0, data=[35, 0]),\n",
      "   midi.NoteOffEvent(tick=0, channel=0, data=[86, 0]),\n",
      "   midi.NoteOnEvent(tick=9, channel=0, data=[32, 216]),\n",
      "   midi.NoteOnEvent(tick=10, channel=0, data=[48, 144]),\n",
      "   midi.NoteOffEvent(tick=15, channel=0, data=[98, 0]),\n",
      "   midi.NoteOffEvent(tick=22, channel=0, data=[50, 0]),\n",
      "   midi.NoteOffEvent(tick=4, channel=0, data=[26, 0]),\n",
      "   midi.NoteOffEvent(tick=57, channel=0, data=[78, 0]),\n",
      "   midi.NoteOffEvent(tick=4, channel=0, data=[59, 0]),\n",
      "   midi.NoteOffEvent(tick=34, channel=0, data=[119, 0]),\n",
      "   midi.NoteOffEvent(tick=17, channel=0, data=[118, 0]),\n",
      "   midi.NoteOffEvent(tick=45, channel=0, data=[95, 0]),\n",
      "   midi.NoteOffEvent(tick=2, channel=0, data=[20, 0]),\n",
      "   midi.NoteOffEvent(tick=16, channel=0, data=[67, 0]),\n",
      "   midi.NoteOffEvent(tick=20, channel=0, data=[99, 0]),\n",
      "   midi.NoteOffEvent(tick=46, channel=0, data=[16, 0]),\n",
      "   midi.NoteOffEvent(tick=1, channel=0, data=[27, 0]),\n",
      "   midi.NoteOffEvent(tick=32, channel=0, data=[53, 0]),\n",
      "   midi.NoteOffEvent(tick=7, channel=0, data=[34, 0]),\n",
      "   midi.NoteOffEvent(tick=19, channel=0, data=[112, 0]),\n",
      "   midi.NoteOffEvent(tick=41, channel=0, data=[108, 0]),\n",
      "   midi.NoteOffEvent(tick=13, channel=0, data=[110, 0]),\n",
      "   midi.NoteOffEvent(tick=177, channel=0, data=[52, 0]),\n",
      "   midi.NoteOffEvent(tick=13, channel=0, data=[106, 0]),\n",
      "   midi.NoteOffEvent(tick=26, channel=0, data=[74, 0]),\n",
      "   midi.NoteOffEvent(tick=18, channel=0, data=[32, 0]),\n",
      "   midi.NoteOffEvent(tick=90, channel=0, data=[18, 0]),\n",
      "   midi.NoteOffEvent(tick=33, channel=0, data=[90, 0]),\n",
      "   midi.NoteOffEvent(tick=100, channel=0, data=[22, 0]),\n",
      "   midi.NoteOffEvent(tick=52, channel=0, data=[48, 0]),\n",
      "   midi.EndOfTrackEvent(tick=0, data=[])]),\n",
      " midi.Track(\\\n",
      "  [midi.SetTempoEvent(tick=0, data=[8, 227, 124]),\n",
      "   midi.ProgramChangeEvent(tick=0, channel=0, data=[67]),\n",
      "   midi.NoteOnEvent(tick=3, channel=0, data=[15, 186]),\n",
      "   midi.NoteOnEvent(tick=27, channel=0, data=[81, 113]),\n",
      "   midi.NoteOnEvent(tick=38, channel=0, data=[35, 159]),\n",
      "   midi.NoteOnEvent(tick=10, channel=0, data=[73, 18]),\n",
      "   midi.NoteOnEvent(tick=5, channel=0, data=[12, 64]),\n",
      "   midi.NoteOnEvent(tick=16, channel=0, data=[53, 208]),\n",
      "   midi.NoteOnEvent(tick=16, channel=0, data=[85, 92]),\n",
      "   midi.NoteOnEvent(tick=0, channel=0, data=[80, 147]),\n",
      "   midi.NoteOnEvent(tick=6, channel=0, data=[73, 123]),\n",
      "   midi.NoteOnEvent(tick=5, channel=0, data=[3, 183]),\n",
      "   midi.NoteOnEvent(tick=4, channel=0, data=[75, 221]),\n",
      "   midi.NoteOnEvent(tick=10, channel=0, data=[74, 160]),\n",
      "   midi.NoteOnEvent(tick=43, channel=0, data=[56, 182]),\n",
      "   midi.NoteOnEvent(tick=11, channel=0, data=[96, 211]),\n",
      "   midi.NoteOnEvent(tick=13, channel=0, data=[49, 81]),\n",
      "   midi.NoteOnEvent(tick=13, channel=0, data=[40, 19]),\n",
      "   midi.NoteOnEvent(tick=11, channel=0, data=[101, 79]),\n",
      "   midi.NoteOnEvent(tick=14, channel=0, data=[17, 135]),\n",
      "   midi.NoteOnEvent(tick=3, channel=0, data=[95, 78]),\n",
      "   midi.NoteOnEvent(tick=13, channel=0, data=[124, 207]),\n",
      "   midi.NoteOffEvent(tick=21, channel=0, data=[74, 0]),\n",
      "   midi.NoteOnEvent(tick=49, channel=0, data=[114, 190]),\n",
      "   midi.NoteOnEvent(tick=4, channel=0, data=[84, 207]),\n",
      "   midi.NoteOnEvent(tick=18, channel=0, data=[96, 32]),\n",
      "   midi.NoteOnEvent(tick=4, channel=0, data=[29, 189]),\n",
      "   midi.NoteOnEvent(tick=2, channel=0, data=[86, 240]),\n",
      "   midi.NoteOnEvent(tick=41, channel=0, data=[89, 245]),\n",
      "   midi.NoteOnEvent(tick=3, channel=0, data=[35, 207]),\n",
      "   midi.NoteOnEvent(tick=12, channel=0, data=[97, 208]),\n",
      "   midi.NoteOnEvent(tick=52, channel=0, data=[44, 254]),\n",
      "   midi.NoteOffEvent(tick=2, channel=0, data=[44, 0]),\n",
      "   midi.NoteOnEvent(tick=1, channel=0, data=[9, 238]),\n",
      "   midi.NoteOffEvent(tick=2, channel=0, data=[75, 0]),\n",
      "   midi.NoteOnEvent(tick=19, channel=0, data=[80, 105]),\n",
      "   midi.NoteOffEvent(tick=4, channel=0, data=[40, 0]),\n",
      "   midi.NoteOnEvent(tick=10, channel=0, data=[71, 174]),\n",
      "   midi.NoteOnEvent(tick=3, channel=0, data=[89, 66]),\n",
      "   midi.NoteOffEvent(tick=1, channel=0, data=[9, 0]),\n",
      "   midi.NoteOnEvent(tick=7, channel=0, data=[54, 152]),\n",
      "   midi.NoteOnEvent(tick=0, channel=0, data=[81, 103]),\n",
      "   midi.NoteOnEvent(tick=14, channel=0, data=[50, 85]),\n",
      "   midi.NoteOnEvent(tick=5, channel=0, data=[23, 54]),\n",
      "   midi.NoteOnEvent(tick=7, channel=0, data=[26, 135]),\n",
      "   midi.NoteOnEvent(tick=5, channel=0, data=[110, 165]),\n",
      "   midi.NoteOnEvent(tick=5, channel=0, data=[58, 149]),\n",
      "   midi.NoteOnEvent(tick=1, channel=0, data=[56, 28]),\n",
      "   midi.NoteOnEvent(tick=4, channel=0, data=[56, 236]),\n",
      "   midi.NoteOffEvent(tick=1, channel=0, data=[26, 0]),\n",
      "   midi.NoteOnEvent(tick=0, channel=0, data=[14, 23]),\n",
      "   midi.NoteOnEvent(tick=10, channel=0, data=[34, 71]),\n",
      "   midi.NoteOnEvent(tick=0, channel=0, data=[44, 171]),\n",
      "   midi.NoteOffEvent(tick=2, channel=0, data=[15, 0]),\n",
      "   midi.NoteOffEvent(tick=18, channel=0, data=[53, 0]),\n",
      "   midi.NoteOnEvent(tick=3, channel=0, data=[97, 14]),\n",
      "   midi.NoteOnEvent(tick=0, channel=0, data=[21, 196]),\n",
      "   midi.NoteOnEvent(tick=1, channel=0, data=[50, 28]),\n",
      "   midi.NoteOffEvent(tick=8, channel=0, data=[58, 0]),\n",
      "   midi.NoteOnEvent(tick=34, channel=0, data=[95, 166]),\n",
      "   midi.NoteOffEvent(tick=2, channel=0, data=[71, 0]),\n",
      "   midi.NoteOffEvent(tick=6, channel=0, data=[23, 0]),\n",
      "   midi.NoteOnEvent(tick=8, channel=0, data=[11, 12]),\n",
      "   midi.NoteOnEvent(tick=21, channel=0, data=[116, 38]),\n",
      "   midi.NoteOffEvent(tick=5, channel=0, data=[73, 0]),\n",
      "   midi.NoteOffEvent(tick=20, channel=0, data=[17, 0]),\n",
      "   midi.NoteOffEvent(tick=2, channel=0, data=[96, 0]),\n",
      "   midi.NoteOffEvent(tick=3, channel=0, data=[114, 0]),\n",
      "   midi.NoteOnEvent(tick=16, channel=0, data=[4, 179]),\n",
      "   midi.NoteOnEvent(tick=9, channel=0, data=[121, 198]),\n",
      "   midi.NoteOnEvent(tick=13, channel=0, data=[125, 221]),\n",
      "   midi.NoteOffEvent(tick=9, channel=0, data=[14, 0]),\n",
      "   midi.NoteOnEvent(tick=14, channel=0, data=[100, 113]),\n",
      "   midi.NoteOffEvent(tick=2, channel=0, data=[84, 0]),\n",
      "   midi.NoteOffEvent(tick=11, channel=0, data=[49, 0]),\n",
      "   midi.NoteOnEvent(tick=4, channel=0, data=[90, 5]),\n",
      "   midi.NoteOnEvent(tick=7, channel=0, data=[18, 15]),\n",
      "   midi.NoteOnEvent(tick=0, channel=0, data=[96, 53]),\n",
      "   midi.NoteOnEvent(tick=5, channel=0, data=[110, 12]),\n",
      "   midi.NoteOffEvent(tick=14, channel=0, data=[50, 0]),\n",
      "   midi.NoteOnEvent(tick=9, channel=0, data=[9, 188]),\n",
      "   midi.NoteOnEvent(tick=6, channel=0, data=[72, 39]),\n",
      "   midi.NoteOnEvent(tick=0, channel=0, data=[104, 18]),\n",
      "   midi.NoteOnEvent(tick=22, channel=0, data=[96, 119]),\n",
      "   midi.NoteOnEvent(tick=0, channel=0, data=[110, 253]),\n",
      "   midi.NoteOnEvent(tick=16, channel=0, data=[39, 10]),\n",
      "   midi.NoteOffEvent(tick=2, channel=0, data=[85, 0]),\n",
      "   midi.NoteOnEvent(tick=3, channel=0, data=[25, 234]),\n",
      "   midi.NoteOnEvent(tick=12, channel=0, data=[71, 22]),\n",
      "   midi.NoteOnEvent(tick=0, channel=0, data=[95, 31]),\n",
      "   midi.NoteOnEvent(tick=12, channel=0, data=[61, 228]),\n",
      "   midi.NoteOnEvent(tick=1, channel=0, data=[33, 37]),\n",
      "   midi.NoteOnEvent(tick=0, channel=0, data=[100, 17]),\n",
      "   midi.NoteOffEvent(tick=12, channel=0, data=[54, 0]),\n",
      "   midi.NoteOffEvent(tick=14, channel=0, data=[72, 0]),\n",
      "   midi.NoteOnEvent(tick=7, channel=0, data=[127, 140]),\n",
      "   midi.NoteOffEvent(tick=3, channel=0, data=[39, 0]),\n",
      "   midi.NoteOffEvent(tick=1, channel=0, data=[89, 0]),\n",
      "   midi.NoteOnEvent(tick=13, channel=0, data=[54, 119]),\n",
      "   midi.NoteOnEvent(tick=1, channel=0, data=[107, 48]),\n",
      "   midi.NoteOffEvent(tick=26, channel=0, data=[80, 0]),\n",
      "   midi.NoteOffEvent(tick=25, channel=0, data=[44, 0]),\n",
      "   midi.NoteOffEvent(tick=10, channel=0, data=[12, 0]),\n",
      "   midi.NoteOffEvent(tick=34, channel=0, data=[35, 0]),\n",
      "   midi.NoteOffEvent(tick=6, channel=0, data=[61, 0]),\n",
      "   midi.NoteOffEvent(tick=29, channel=0, data=[3, 0]),\n",
      "   midi.NoteOffEvent(tick=6, channel=0, data=[34, 0]),\n",
      "   midi.NoteOffEvent(tick=2, channel=0, data=[21, 0]),\n",
      "   midi.NoteOffEvent(tick=19, channel=0, data=[125, 0]),\n",
      "   midi.NoteOffEvent(tick=1, channel=0, data=[81, 0]),\n",
      "   midi.NoteOffEvent(tick=16, channel=0, data=[110, 0]),\n",
      "   midi.NoteOffEvent(tick=7, channel=0, data=[4, 0]),\n",
      "   midi.NoteOffEvent(tick=18, channel=0, data=[101, 0]),\n",
      "   midi.NoteOffEvent(tick=1, channel=0, data=[124, 0]),\n",
      "   midi.NoteOffEvent(tick=9, channel=0, data=[71, 0]),\n",
      "   midi.NoteOffEvent(tick=41, channel=0, data=[116, 0]),\n",
      "   midi.NoteOffEvent(tick=10, channel=0, data=[86, 0]),\n",
      "   midi.NoteOffEvent(tick=10, channel=0, data=[11, 0]),\n",
      "   midi.NoteOffEvent(tick=3, channel=0, data=[90, 0]),\n",
      "   midi.NoteOffEvent(tick=24, channel=0, data=[97, 0]),\n",
      "   midi.NoteOffEvent(tick=19, channel=0, data=[121, 0]),\n",
      "   midi.NoteOffEvent(tick=12, channel=0, data=[18, 0]),\n",
      "   midi.NoteOffEvent(tick=2, channel=0, data=[29, 0]),\n",
      "   midi.NoteOffEvent(tick=87, channel=0, data=[127, 0]),\n",
      "   midi.NoteOffEvent(tick=18, channel=0, data=[100, 0]),\n",
      "   midi.NoteOffEvent(tick=86, channel=0, data=[9, 0]),\n",
      "   midi.NoteOffEvent(tick=1, channel=0, data=[104, 0]),\n",
      "   midi.NoteOffEvent(tick=27, channel=0, data=[56, 0]),\n",
      "   midi.NoteOffEvent(tick=101, channel=0, data=[107, 0]),\n",
      "   midi.NoteOffEvent(tick=18, channel=0, data=[25, 0]),\n",
      "   midi.NoteOffEvent(tick=10, channel=0, data=[96, 0]),\n",
      "   midi.NoteOffEvent(tick=98, channel=0, data=[54, 0]),\n",
      "   midi.NoteOffEvent(tick=19, channel=0, data=[33, 0]),\n",
      "   midi.NoteOffEvent(tick=45, channel=0, data=[95, 0]),\n",
      "   midi.EndOfTrackEvent(tick=0, data=[])]),\n",
      " midi.Track(\\\n",
      "  [midi.SetTempoEvent(tick=0, data=[8, 227, 124]),\n",
      "   midi.ProgramChangeEvent(tick=0, channel=0, data=[68]),\n",
      "   midi.NoteOnEvent(tick=28, channel=0, data=[97, 157]),\n",
      "   midi.NoteOnEvent(tick=40, channel=0, data=[88, 18]),\n",
      "   midi.NoteOnEvent(tick=34, channel=0, data=[82, 143]),\n",
      "   midi.NoteOnEvent(tick=8, channel=0, data=[17, 161]),\n",
      "   midi.NoteOnEvent(tick=28, channel=0, data=[114, 105]),\n",
      "   midi.NoteOnEvent(tick=4, channel=0, data=[88, 157]),\n",
      "   midi.NoteOnEvent(tick=1, channel=0, data=[101, 64]),\n",
      "   midi.NoteOnEvent(tick=3, channel=0, data=[47, 156]),\n",
      "   midi.NoteOnEvent(tick=40, channel=0, data=[104, 20]),\n",
      "   midi.NoteOnEvent(tick=11, channel=0, data=[109, 13]),\n",
      "   midi.NoteOnEvent(tick=20, channel=0, data=[126, 184]),\n",
      "   midi.NoteOnEvent(tick=19, channel=0, data=[92, 229]),\n",
      "   midi.NoteOffEvent(tick=2, channel=0, data=[114, 0]),\n",
      "   midi.NoteOffEvent(tick=15, channel=0, data=[88, 0]),\n",
      "   midi.NoteOnEvent(tick=1, channel=0, data=[86, 7]),\n",
      "   midi.NoteOnEvent(tick=3, channel=0, data=[41, 12]),\n",
      "   midi.NoteOnEvent(tick=0, channel=0, data=[81, 136]),\n",
      "   midi.NoteOffEvent(tick=6, channel=0, data=[17, 0]),\n",
      "   midi.NoteOnEvent(tick=30, channel=0, data=[76, 28]),\n",
      "   midi.NoteOnEvent(tick=15, channel=0, data=[34, 235]),\n",
      "   midi.NoteOnEvent(tick=1, channel=0, data=[125, 244]),\n",
      "   midi.NoteOnEvent(tick=0, channel=0, data=[11, 155]),\n",
      "   midi.NoteOnEvent(tick=0, channel=0, data=[71, 33]),\n",
      "   midi.NoteOffEvent(tick=20, channel=0, data=[101, 0]),\n",
      "   midi.NoteOnEvent(tick=7, channel=0, data=[81, 188]),\n",
      "   midi.NoteOnEvent(tick=13, channel=0, data=[54, 170]),\n",
      "   midi.NoteOnEvent(tick=25, channel=0, data=[10, 103]),\n",
      "   midi.NoteOnEvent(tick=30, channel=0, data=[100, 8]),\n",
      "   midi.NoteOnEvent(tick=23, channel=0, data=[50, 70]),\n",
      "   midi.NoteOnEvent(tick=14, channel=0, data=[61, 148]),\n",
      "   midi.NoteOffEvent(tick=21, channel=0, data=[81, 0]),\n",
      "   midi.NoteOnEvent(tick=0, channel=0, data=[89, 125]),\n",
      "   midi.NoteOnEvent(tick=21, channel=0, data=[47, 136]),\n",
      "   midi.NoteOnEvent(tick=3, channel=0, data=[41, 41]),\n",
      "   midi.NoteOnEvent(tick=10, channel=0, data=[54, 180]),\n",
      "   midi.NoteOffEvent(tick=3, channel=0, data=[54, 0]),\n",
      "   midi.NoteOffEvent(tick=21, channel=0, data=[125, 0]),\n",
      "   midi.NoteOnEvent(tick=10, channel=0, data=[58, 26]),\n",
      "   midi.NoteOffEvent(tick=4, channel=0, data=[58, 0]),\n",
      "   midi.NoteOffEvent(tick=15, channel=0, data=[41, 0]),\n",
      "   midi.NoteOnEvent(tick=8, channel=0, data=[16, 220]),\n",
      "   midi.NoteOnEvent(tick=0, channel=0, data=[79, 241]),\n",
      "   midi.NoteOnEvent(tick=16, channel=0, data=[27, 157]),\n",
      "   midi.NoteOnEvent(tick=0, channel=0, data=[107, 114]),\n",
      "   midi.NoteOnEvent(tick=1, channel=0, data=[88, 123]),\n",
      "   midi.NoteOnEvent(tick=5, channel=0, data=[69, 185]),\n",
      "   midi.NoteOnEvent(tick=26, channel=0, data=[56, 157]),\n",
      "   midi.NoteOffEvent(tick=4, channel=0, data=[92, 0]),\n",
      "   midi.NoteOnEvent(tick=7, channel=0, data=[32, 230]),\n",
      "   midi.NoteOnEvent(tick=16, channel=0, data=[120, 159]),\n",
      "   midi.NoteOffEvent(tick=15, channel=0, data=[79, 0]),\n",
      "   midi.NoteOnEvent(tick=0, channel=0, data=[51, 68]),\n",
      "   midi.NoteOnEvent(tick=3, channel=0, data=[60, 3]),\n",
      "   midi.NoteOnEvent(tick=0, channel=0, data=[89, 121]),\n",
      "   midi.NoteOnEvent(tick=0, channel=0, data=[94, 202]),\n",
      "   midi.NoteOnEvent(tick=30, channel=0, data=[103, 198]),\n",
      "   midi.NoteOffEvent(tick=18, channel=0, data=[34, 0]),\n",
      "   midi.NoteOnEvent(tick=15, channel=0, data=[96, 169]),\n",
      "   midi.NoteOffEvent(tick=4, channel=0, data=[107, 0]),\n",
      "   midi.NoteOffEvent(tick=1, channel=0, data=[120, 0]),\n",
      "   midi.NoteOffEvent(tick=10, channel=0, data=[96, 0]),\n",
      "   midi.NoteOnEvent(tick=4, channel=0, data=[79, 44]),\n",
      "   midi.NoteOffEvent(tick=5, channel=0, data=[76, 0]),\n",
      "   midi.NoteOnEvent(tick=2, channel=0, data=[60, 82]),\n",
      "   midi.NoteOnEvent(tick=38, channel=0, data=[111, 164]),\n",
      "   midi.NoteOnEvent(tick=0, channel=0, data=[67, 105]),\n",
      "   midi.NoteOnEvent(tick=9, channel=0, data=[80, 80]),\n",
      "   midi.NoteOnEvent(tick=1, channel=0, data=[107, 247]),\n",
      "   midi.NoteOffEvent(tick=17, channel=0, data=[61, 0]),\n",
      "   midi.NoteOffEvent(tick=33, channel=0, data=[97, 0]),\n",
      "   midi.NoteOffEvent(tick=29, channel=0, data=[27, 0]),\n",
      "   midi.NoteOffEvent(tick=0, channel=0, data=[109, 0]),\n",
      "   midi.NoteOnEvent(tick=11, channel=0, data=[3, 142]),\n",
      "   midi.NoteOnEvent(tick=0, channel=0, data=[34, 130]),\n",
      "   midi.NoteOffEvent(tick=4, channel=0, data=[103, 0]),\n",
      "   midi.NoteOffEvent(tick=9, channel=0, data=[71, 0]),\n",
      "   midi.NoteOnEvent(tick=0, channel=0, data=[5, 31]),\n",
      "   midi.NoteOnEvent(tick=0, channel=0, data=[104, 22]),\n",
      "   midi.NoteOnEvent(tick=13, channel=0, data=[68, 220]),\n",
      "   midi.NoteOffEvent(tick=11, channel=0, data=[51, 0]),\n",
      "   midi.NoteOnEvent(tick=25, channel=0, data=[44, 16]),\n",
      "   midi.NoteOnEvent(tick=0, channel=0, data=[16, 220]),\n",
      "   midi.NoteOffEvent(tick=3, channel=0, data=[94, 0]),\n",
      "   midi.NoteOffEvent(tick=5, channel=0, data=[82, 0]),\n",
      "   midi.NoteOffEvent(tick=8, channel=0, data=[79, 0]),\n",
      "   midi.NoteOffEvent(tick=10, channel=0, data=[100, 0]),\n",
      "   midi.NoteOnEvent(tick=4, channel=0, data=[4, 171]),\n",
      "   midi.NoteOnEvent(tick=8, channel=0, data=[110, 88]),\n",
      "   midi.NoteOffEvent(tick=3, channel=0, data=[32, 0]),\n",
      "   midi.NoteOffEvent(tick=13, channel=0, data=[47, 0]),\n",
      "   midi.NoteOffEvent(tick=21, channel=0, data=[89, 0]),\n",
      "   midi.NoteOffEvent(tick=47, channel=0, data=[86, 0]),\n",
      "   midi.NoteOffEvent(tick=3, channel=0, data=[68, 0]),\n",
      "   midi.NoteOffEvent(tick=12, channel=0, data=[107, 0]),\n",
      "   midi.NoteOffEvent(tick=56, channel=0, data=[69, 0]),\n",
      "   midi.NoteOffEvent(tick=3, channel=0, data=[111, 0]),\n",
      "   midi.NoteOffEvent(tick=2, channel=0, data=[3, 0]),\n",
      "   midi.NoteOffEvent(tick=2, channel=0, data=[126, 0]),\n",
      "   midi.NoteOffEvent(tick=12, channel=0, data=[67, 0]),\n",
      "   midi.NoteOffEvent(tick=51, channel=0, data=[11, 0]),\n",
      "   midi.NoteOffEvent(tick=9, channel=0, data=[60, 0]),\n",
      "   midi.NoteOffEvent(tick=32, channel=0, data=[5, 0]),\n",
      "   midi.NoteOffEvent(tick=42, channel=0, data=[80, 0]),\n",
      "   midi.NoteOffEvent(tick=19, channel=0, data=[10, 0]),\n",
      "   midi.NoteOffEvent(tick=45, channel=0, data=[88, 0]),\n",
      "   midi.NoteOffEvent(tick=38, channel=0, data=[50, 0]),\n",
      "   midi.NoteOffEvent(tick=16, channel=0, data=[4, 0]),\n",
      "   midi.NoteOffEvent(tick=66, channel=0, data=[56, 0]),\n",
      "   midi.NoteOffEvent(tick=13, channel=0, data=[34, 0]),\n",
      "   midi.NoteOffEvent(tick=2, channel=0, data=[44, 0]),\n",
      "   midi.NoteOffEvent(tick=28, channel=0, data=[110, 0]),\n",
      "   midi.NoteOffEvent(tick=34, channel=0, data=[104, 0]),\n",
      "   midi.NoteOffEvent(tick=77, channel=0, data=[16, 0]),\n",
      "   midi.EndOfTrackEvent(tick=0, data=[])]),\n",
      " midi.Track(\\\n",
      "  [midi.SetTempoEvent(tick=0, data=[8, 227, 124]),\n",
      "   midi.ProgramChangeEvent(tick=0, channel=0, data=[69]),\n",
      "   midi.NoteOnEvent(tick=24, channel=0, data=[77, 105]),\n",
      "   midi.NoteOnEvent(tick=8, channel=0, data=[23, 152]),\n",
      "   midi.NoteOnEvent(tick=3, channel=0, data=[101, 97]),\n",
      "   midi.NoteOnEvent(tick=0, channel=0, data=[33, 78]),\n",
      "   midi.NoteOnEvent(tick=17, channel=0, data=[101, 56]),\n",
      "   midi.NoteOnEvent(tick=2, channel=0, data=[69, 106]),\n",
      "   midi.NoteOnEvent(tick=15, channel=0, data=[127, 59]),\n",
      "   midi.NoteOnEvent(tick=14, channel=0, data=[81, 165]),\n",
      "   midi.NoteOnEvent(tick=31, channel=0, data=[118, 38]),\n",
      "   midi.NoteOnEvent(tick=5, channel=0, data=[62, 77]),\n",
      "   midi.NoteOnEvent(tick=3, channel=0, data=[83, 140]),\n",
      "   midi.NoteOnEvent(tick=4, channel=0, data=[82, 187]),\n",
      "   midi.NoteOnEvent(tick=4, channel=0, data=[93, 74]),\n",
      "   midi.NoteOnEvent(tick=0, channel=0, data=[115, 10]),\n",
      "   midi.NoteOnEvent(tick=30, channel=0, data=[35, 206]),\n",
      "   midi.NoteOnEvent(tick=30, channel=0, data=[45, 61]),\n",
      "   midi.NoteOnEvent(tick=1, channel=0, data=[56, 243]),\n",
      "   midi.NoteOnEvent(tick=9, channel=0, data=[40, 219]),\n",
      "   midi.NoteOffEvent(tick=22, channel=0, data=[62, 0]),\n",
      "   midi.NoteOnEvent(tick=24, channel=0, data=[88, 131]),\n",
      "   midi.NoteOnEvent(tick=0, channel=0, data=[30, 85]),\n",
      "   midi.NoteOffEvent(tick=9, channel=0, data=[77, 0]),\n",
      "   midi.NoteOnEvent(tick=10, channel=0, data=[8, 52]),\n",
      "   midi.NoteOnEvent(tick=0, channel=0, data=[107, 51]),\n",
      "   midi.NoteOnEvent(tick=8, channel=0, data=[60, 147]),\n",
      "   midi.NoteOnEvent(tick=3, channel=0, data=[110, 57]),\n",
      "   midi.NoteOnEvent(tick=4, channel=0, data=[88, 107]),\n",
      "   midi.NoteOnEvent(tick=9, channel=0, data=[112, 107]),\n",
      "   midi.NoteOnEvent(tick=41, channel=0, data=[107, 77]),\n",
      "   midi.NoteOnEvent(tick=0, channel=0, data=[19, 217]),\n",
      "   midi.NoteOnEvent(tick=2, channel=0, data=[116, 38]),\n",
      "   midi.NoteOffEvent(tick=15, channel=0, data=[127, 0]),\n",
      "   midi.NoteOffEvent(tick=1, channel=0, data=[112, 0]),\n",
      "   midi.NoteOnEvent(tick=2, channel=0, data=[104, 41]),\n",
      "   midi.NoteOffEvent(tick=1, channel=0, data=[81, 0]),\n",
      "   midi.NoteOnEvent(tick=1, channel=0, data=[62, 123]),\n",
      "   midi.NoteOnEvent(tick=7, channel=0, data=[31, 31]),\n",
      "   midi.NoteOffEvent(tick=47, channel=0, data=[45, 0]),\n",
      "   midi.NoteOnEvent(tick=4, channel=0, data=[77, 145]),\n",
      "   midi.NoteOnEvent(tick=5, channel=0, data=[117, 4]),\n",
      "   midi.NoteOffEvent(tick=10, channel=0, data=[101, 0]),\n",
      "   midi.NoteOffEvent(tick=9, channel=0, data=[23, 0]),\n",
      "   midi.NoteOnEvent(tick=23, channel=0, data=[118, 104]),\n",
      "   midi.NoteOnEvent(tick=0, channel=0, data=[2, 30]),\n",
      "   midi.NoteOffEvent(tick=14, channel=0, data=[33, 0]),\n",
      "   midi.NoteOnEvent(tick=3, channel=0, data=[101, 253]),\n",
      "   midi.NoteOnEvent(tick=1, channel=0, data=[110, 214]),\n",
      "   midi.NoteOnEvent(tick=8, channel=0, data=[15, 133]),\n",
      "   midi.NoteOnEvent(tick=0, channel=0, data=[12, 56]),\n",
      "   midi.NoteOnEvent(tick=3, channel=0, data=[127, 63]),\n",
      "   midi.NoteOffEvent(tick=15, channel=0, data=[31, 0]),\n",
      "   midi.NoteOffEvent(tick=12, channel=0, data=[40, 0]),\n",
      "   midi.NoteOnEvent(tick=2, channel=0, data=[15, 216]),\n",
      "   midi.NoteOnEvent(tick=7, channel=0, data=[47, 228]),\n",
      "   midi.NoteOnEvent(tick=9, channel=0, data=[20, 133]),\n",
      "   midi.NoteOnEvent(tick=0, channel=0, data=[12, 123]),\n",
      "   midi.NoteOnEvent(tick=15, channel=0, data=[15, 147]),\n",
      "   midi.NoteOnEvent(tick=9, channel=0, data=[53, 113]),\n",
      "   midi.NoteOffEvent(tick=1, channel=0, data=[82, 0]),\n",
      "   midi.NoteOffEvent(tick=7, channel=0, data=[30, 0]),\n",
      "   midi.NoteOnEvent(tick=5, channel=0, data=[55, 123]),\n",
      "   midi.NoteOnEvent(tick=6, channel=0, data=[62, 235]),\n",
      "   midi.NoteOnEvent(tick=19, channel=0, data=[16, 203]),\n",
      "   midi.NoteOffEvent(tick=16, channel=0, data=[35, 0]),\n",
      "   midi.NoteOffEvent(tick=15, channel=0, data=[101, 0]),\n",
      "   midi.NoteOffEvent(tick=23, channel=0, data=[93, 0]),\n",
      "   midi.NoteOnEvent(tick=15, channel=0, data=[64, 198]),\n",
      "   midi.NoteOnEvent(tick=7, channel=0, data=[42, 49]),\n",
      "   midi.NoteOnEvent(tick=2, channel=0, data=[21, 210]),\n",
      "   midi.NoteOffEvent(tick=5, channel=0, data=[19, 0]),\n",
      "   midi.NoteOnEvent(tick=4, channel=0, data=[127, 2]),\n",
      "   midi.NoteOnEvent(tick=5, channel=0, data=[12, 168]),\n",
      "   midi.NoteOnEvent(tick=0, channel=0, data=[101, 253]),\n",
      "   midi.NoteOnEvent(tick=7, channel=0, data=[10, 131]),\n",
      "   midi.NoteOffEvent(tick=1, channel=0, data=[21, 0]),\n",
      "   midi.NoteOffEvent(tick=9, channel=0, data=[69, 0]),\n",
      "   midi.NoteOnEvent(tick=9, channel=0, data=[116, 145]),\n",
      "   midi.NoteOnEvent(tick=2, channel=0, data=[4, 25]),\n",
      "   midi.NoteOnEvent(tick=20, channel=0, data=[51, 181]),\n",
      "   midi.NoteOnEvent(tick=0, channel=0, data=[103, 248]),\n",
      "   midi.NoteOnEvent(tick=4, channel=0, data=[85, 192]),\n",
      "   midi.NoteOffEvent(tick=2, channel=0, data=[103, 0]),\n",
      "   midi.NoteOnEvent(tick=1, channel=0, data=[107, 63]),\n",
      "   midi.NoteOnEvent(tick=13, channel=0, data=[113, 195]),\n",
      "   midi.NoteOnEvent(tick=7, channel=0, data=[88, 170]),\n",
      "   midi.NoteOnEvent(tick=2, channel=0, data=[103, 180]),\n",
      "   midi.NoteOffEvent(tick=8, channel=0, data=[83, 0]),\n",
      "   midi.NoteOnEvent(tick=7, channel=0, data=[17, 75]),\n",
      "   midi.NoteOnEvent(tick=12, channel=0, data=[55, 58]),\n",
      "   midi.NoteOnEvent(tick=19, channel=0, data=[127, 160]),\n",
      "   midi.NoteOffEvent(tick=17, channel=0, data=[77, 0]),\n",
      "   midi.NoteOnEvent(tick=0, channel=0, data=[110, 93]),\n",
      "   midi.NoteOffEvent(tick=6, channel=0, data=[101, 0]),\n",
      "   midi.NoteOnEvent(tick=0, channel=0, data=[1, 178]),\n",
      "   midi.NoteOnEvent(tick=0, channel=0, data=[87, 179]),\n",
      "   midi.NoteOnEvent(tick=7, channel=0, data=[126, 231]),\n",
      "   midi.NoteOnEvent(tick=6, channel=0, data=[32, 240]),\n",
      "   midi.NoteOffEvent(tick=10, channel=0, data=[127, 0]),\n",
      "   midi.NoteOnEvent(tick=22, channel=0, data=[61, 35]),\n",
      "   midi.NoteOffEvent(tick=20, channel=0, data=[51, 0]),\n",
      "   midi.NoteOnEvent(tick=3, channel=0, data=[11, 156]),\n",
      "   midi.NoteOnEvent(tick=24, channel=0, data=[97, 107]),\n",
      "   midi.NoteOnEvent(tick=16, channel=0, data=[61, 105]),\n",
      "   midi.NoteOffEvent(tick=4, channel=0, data=[64, 0]),\n",
      "   midi.NoteOffEvent(tick=24, channel=0, data=[107, 0]),\n",
      "   midi.NoteOnEvent(tick=2, channel=0, data=[60, 253]),\n",
      "   midi.NoteOnEvent(tick=0, channel=0, data=[36, 52]),\n",
      "   midi.NoteOnEvent(tick=0, channel=0, data=[99, 30]),\n",
      "   midi.NoteOnEvent(tick=0, channel=0, data=[68, 31]),\n",
      "   midi.NoteOnEvent(tick=1, channel=0, data=[34, 221]),\n",
      "   midi.NoteOnEvent(tick=17, channel=0, data=[80, 25]),\n",
      "   midi.NoteOnEvent(tick=0, channel=0, data=[12, 184]),\n",
      "   midi.NoteOffEvent(tick=2, channel=0, data=[1, 0]),\n",
      "   midi.NoteOnEvent(tick=3, channel=0, data=[111, 85]),\n",
      "   midi.NoteOffEvent(tick=16, channel=0, data=[61, 0]),\n",
      "   midi.NoteOffEvent(tick=0, channel=0, data=[110, 0]),\n",
      "   midi.NoteOffEvent(tick=7, channel=0, data=[2, 0]),\n",
      "   midi.NoteOffEvent(tick=2, channel=0, data=[104, 0]),\n",
      "   midi.NoteOffEvent(tick=22, channel=0, data=[15, 0]),\n",
      "   midi.NoteOffEvent(tick=10, channel=0, data=[115, 0]),\n",
      "   midi.NoteOffEvent(tick=22, channel=0, data=[4, 0]),\n",
      "   midi.NoteOffEvent(tick=2, channel=0, data=[118, 0]),\n",
      "   midi.NoteOffEvent(tick=8, channel=0, data=[8, 0]),\n",
      "   midi.NoteOffEvent(tick=1, channel=0, data=[47, 0]),\n",
      "   midi.NoteOffEvent(tick=22, channel=0, data=[62, 0]),\n",
      "   midi.NoteOffEvent(tick=41, channel=0, data=[111, 0]),\n",
      "   midi.NoteOffEvent(tick=14, channel=0, data=[56, 0]),\n",
      "   midi.NoteOffEvent(tick=20, channel=0, data=[11, 0]),\n",
      "   midi.NoteOffEvent(tick=0, channel=0, data=[68, 0]),\n",
      "   midi.NoteOffEvent(tick=2, channel=0, data=[116, 0]),\n",
      "   midi.NoteOffEvent(tick=58, channel=0, data=[55, 0]),\n",
      "   midi.NoteOffEvent(tick=39, channel=0, data=[17, 0]),\n",
      "   midi.NoteOffEvent(tick=57, channel=0, data=[32, 0]),\n",
      "   midi.NoteOffEvent(tick=0, channel=0, data=[85, 0]),\n",
      "   midi.NoteOffEvent(tick=15, channel=0, data=[53, 0]),\n",
      "   midi.NoteOffEvent(tick=23, channel=0, data=[117, 0]),\n",
      "   midi.NoteOffEvent(tick=77, channel=0, data=[34, 0]),\n",
      "   midi.NoteOffEvent(tick=16, channel=0, data=[20, 0]),\n",
      "   midi.NoteOffEvent(tick=3, channel=0, data=[60, 0]),\n",
      "   midi.NoteOffEvent(tick=9, channel=0, data=[88, 0]),\n",
      "   midi.NoteOffEvent(tick=48, channel=0, data=[10, 0]),\n",
      "   midi.NoteOffEvent(tick=15, channel=0, data=[99, 0]),\n",
      "   midi.NoteOffEvent(tick=9, channel=0, data=[113, 0]),\n",
      "   midi.NoteOffEvent(tick=9, channel=0, data=[16, 0]),\n",
      "   midi.NoteOffEvent(tick=19, channel=0, data=[42, 0]),\n",
      "   midi.NoteOffEvent(tick=30, channel=0, data=[103, 0]),\n",
      "   midi.NoteOffEvent(tick=70, channel=0, data=[80, 0]),\n",
      "   midi.NoteOffEvent(tick=0, channel=0, data=[126, 0]),\n",
      "   midi.NoteOffEvent(tick=56, channel=0, data=[36, 0]),\n",
      "   midi.NoteOffEvent(tick=36, channel=0, data=[87, 0]),\n",
      "   midi.NoteOffEvent(tick=26, channel=0, data=[12, 0]),\n",
      "   midi.NoteOffEvent(tick=91, channel=0, data=[97, 0]),\n",
      "   midi.EndOfTrackEvent(tick=0, data=[])]),\n",
      " midi.Track(\\\n",
      "  [midi.SetTempoEvent(tick=0, data=[8, 227, 124]),\n",
      "   midi.ProgramChangeEvent(tick=0, channel=0, data=[70]),\n",
      "   midi.NoteOnEvent(tick=14, channel=0, data=[100, 102]),\n",
      "   midi.NoteOnEvent(tick=33, channel=0, data=[117, 165]),\n",
      "   midi.NoteOnEvent(tick=22, channel=0, data=[42, 86]),\n",
      "   midi.NoteOnEvent(tick=14, channel=0, data=[62, 240]),\n",
      "   midi.NoteOnEvent(tick=31, channel=0, data=[53, 213]),\n",
      "   midi.NoteOnEvent(tick=23, channel=0, data=[56, 106]),\n",
      "   midi.NoteOnEvent(tick=6, channel=0, data=[90, 203]),\n",
      "   midi.NoteOnEvent(tick=1, channel=0, data=[72, 42]),\n",
      "   midi.NoteOnEvent(tick=1, channel=0, data=[96, 163]),\n",
      "   midi.NoteOnEvent(tick=15, channel=0, data=[59, 244]),\n",
      "   midi.NoteOnEvent(tick=0, channel=0, data=[90, 90]),\n",
      "   midi.NoteOnEvent(tick=0, channel=0, data=[58, 255]),\n",
      "   midi.NoteOffEvent(tick=24, channel=0, data=[117, 0]),\n",
      "   midi.NoteOnEvent(tick=13, channel=0, data=[75, 236]),\n",
      "   midi.NoteOffEvent(tick=16, channel=0, data=[100, 0]),\n",
      "   midi.NoteOnEvent(tick=23, channel=0, data=[69, 130]),\n",
      "   midi.NoteOnEvent(tick=21, channel=0, data=[44, 75]),\n",
      "   midi.NoteOnEvent(tick=36, channel=0, data=[91, 206]),\n",
      "   midi.NoteOnEvent(tick=8, channel=0, data=[36, 135]),\n",
      "   midi.NoteOffEvent(tick=13, channel=0, data=[58, 0]),\n",
      "   midi.NoteOffEvent(tick=26, channel=0, data=[90, 0]),\n",
      "   midi.NoteOnEvent(tick=5, channel=0, data=[51, 222]),\n",
      "   midi.NoteOnEvent(tick=9, channel=0, data=[76, 91]),\n",
      "   midi.NoteOnEvent(tick=37, channel=0, data=[59, 242]),\n",
      "   midi.NoteOnEvent(tick=11, channel=0, data=[2, 158]),\n",
      "   midi.NoteOnEvent(tick=2, channel=0, data=[98, 68]),\n",
      "   midi.NoteOnEvent(tick=11, channel=0, data=[3, 112]),\n",
      "   midi.NoteOnEvent(tick=12, channel=0, data=[35, 215]),\n",
      "   midi.NoteOffEvent(tick=1, channel=0, data=[75, 0]),\n",
      "   midi.NoteOnEvent(tick=14, channel=0, data=[116, 6]),\n",
      "   midi.NoteOffEvent(tick=26, channel=0, data=[35, 0]),\n",
      "   midi.NoteOnEvent(tick=18, channel=0, data=[54, 135]),\n",
      "   midi.NoteOnEvent(tick=2, channel=0, data=[113, 181]),\n",
      "   midi.NoteOffEvent(tick=12, channel=0, data=[44, 0]),\n",
      "   midi.NoteOffEvent(tick=25, channel=0, data=[42, 0]),\n",
      "   midi.NoteOffEvent(tick=1, channel=0, data=[53, 0]),\n",
      "   midi.NoteOnEvent(tick=5, channel=0, data=[4, 251]),\n",
      "   midi.NoteOffEvent(tick=12, channel=0, data=[98, 0]),\n",
      "   midi.NoteOnEvent(tick=17, channel=0, data=[123, 107]),\n",
      "   midi.NoteOffEvent(tick=3, channel=0, data=[116, 0]),\n",
      "   midi.NoteOnEvent(tick=5, channel=0, data=[125, 159]),\n",
      "   midi.NoteOnEvent(tick=3, channel=0, data=[119, 132]),\n",
      "   midi.NoteOffEvent(tick=12, channel=0, data=[125, 0]),\n",
      "   midi.NoteOffEvent(tick=3, channel=0, data=[3, 0]),\n",
      "   midi.NoteOnEvent(tick=5, channel=0, data=[118, 249]),\n",
      "   midi.NoteOffEvent(tick=16, channel=0, data=[54, 0]),\n",
      "   midi.NoteOnEvent(tick=58, channel=0, data=[81, 184]),\n",
      "   midi.NoteOffEvent(tick=2, channel=0, data=[113, 0]),\n",
      "   midi.NoteOnEvent(tick=2, channel=0, data=[35, 174]),\n",
      "   midi.NoteOffEvent(tick=11, channel=0, data=[56, 0]),\n",
      "   midi.NoteOnEvent(tick=12, channel=0, data=[10, 32]),\n",
      "   midi.NoteOnEvent(tick=0, channel=0, data=[26, 191]),\n",
      "   midi.NoteOnEvent(tick=1, channel=0, data=[50, 155]),\n",
      "   midi.NoteOnEvent(tick=11, channel=0, data=[6, 130]),\n",
      "   midi.NoteOffEvent(tick=21, channel=0, data=[91, 0]),\n",
      "   midi.NoteOnEvent(tick=23, channel=0, data=[110, 115]),\n",
      "   midi.NoteOffEvent(tick=3, channel=0, data=[62, 0]),\n",
      "   midi.NoteOnEvent(tick=11, channel=0, data=[100, 76]),\n",
      "   midi.NoteOffEvent(tick=7, channel=0, data=[76, 0]),\n",
      "   midi.NoteOffEvent(tick=1, channel=0, data=[6, 0]),\n",
      "   midi.NoteOnEvent(tick=16, channel=0, data=[122, 40]),\n",
      "   midi.NoteOffEvent(tick=43, channel=0, data=[35, 0]),\n",
      "   midi.NoteOffEvent(tick=77, channel=0, data=[50, 0]),\n",
      "   midi.NoteOnEvent(tick=15, channel=0, data=[86, 8]),\n",
      "   midi.NoteOffEvent(tick=31, channel=0, data=[81, 0]),\n",
      "   midi.NoteOnEvent(tick=17, channel=0, data=[71, 188]),\n",
      "   midi.NoteOnEvent(tick=0, channel=0, data=[27, 150]),\n",
      "   midi.NoteOffEvent(tick=5, channel=0, data=[122, 0]),\n",
      "   midi.NoteOnEvent(tick=3, channel=0, data=[117, 117]),\n",
      "   midi.NoteOnEvent(tick=14, channel=0, data=[68, 65]),\n",
      "   midi.NoteOffEvent(tick=13, channel=0, data=[2, 0]),\n",
      "   midi.NoteOffEvent(tick=52, channel=0, data=[96, 0]),\n",
      "   midi.NoteOffEvent(tick=8, channel=0, data=[118, 0]),\n",
      "   midi.NoteOffEvent(tick=1, channel=0, data=[123, 0]),\n",
      "   midi.NoteOffEvent(tick=55, channel=0, data=[51, 0]),\n",
      "   midi.NoteOffEvent(tick=4, channel=0, data=[36, 0]),\n",
      "   midi.NoteOffEvent(tick=13, channel=0, data=[26, 0]),\n",
      "   midi.NoteOffEvent(tick=2, channel=0, data=[72, 0]),\n",
      "   midi.NoteOffEvent(tick=15, channel=0, data=[27, 0]),\n",
      "   midi.NoteOffEvent(tick=11, channel=0, data=[69, 0]),\n",
      "   midi.NoteOffEvent(tick=78, channel=0, data=[59, 0]),\n",
      "   midi.NoteOffEvent(tick=32, channel=0, data=[71, 0]),\n",
      "   midi.NoteOffEvent(tick=20, channel=0, data=[4, 0]),\n",
      "   midi.NoteOffEvent(tick=4, channel=0, data=[119, 0]),\n",
      "   midi.NoteOffEvent(tick=53, channel=0, data=[86, 0]),\n",
      "   midi.NoteOffEvent(tick=101, channel=0, data=[110, 0]),\n",
      "   midi.NoteOffEvent(tick=55, channel=0, data=[68, 0]),\n",
      "   midi.NoteOffEvent(tick=14, channel=0, data=[10, 0]),\n",
      "   midi.NoteOffEvent(tick=44, channel=0, data=[100, 0]),\n",
      "   midi.NoteOffEvent(tick=360, channel=0, data=[117, 0]),\n",
      "   midi.EndOfTrackEvent(tick=0, data=[])]),\n",
      " midi.Track(\\\n",
      "  [midi.SetTempoEvent(tick=0, data=[8, 227, 124]),\n",
      "   midi.ProgramChangeEvent(tick=0, channel=0, data=[71]),\n",
      "   midi.NoteOnEvent(tick=8, channel=0, data=[74, 222]),\n",
      "   midi.NoteOnEvent(tick=10, channel=0, data=[11, 251]),\n",
      "   midi.NoteOnEvent(tick=12, channel=0, data=[1, 254]),\n",
      "   midi.NoteOffEvent(tick=2, channel=0, data=[74, 0]),\n",
      "   midi.NoteOnEvent(tick=21, channel=0, data=[54, 181]),\n",
      "   midi.NoteOnEvent(tick=10, channel=0, data=[60, 130]),\n",
      "   midi.NoteOnEvent(tick=5, channel=0, data=[26, 140]),\n",
      "   midi.NoteOnEvent(tick=49, channel=0, data=[19, 156]),\n",
      "   midi.NoteOnEvent(tick=2, channel=0, data=[53, 209]),\n",
      "   midi.NoteOnEvent(tick=11, channel=0, data=[21, 113]),\n",
      "   midi.NoteOffEvent(tick=18, channel=0, data=[11, 0]),\n",
      "   midi.NoteOnEvent(tick=29, channel=0, data=[75, 129]),\n",
      "   midi.NoteOnEvent(tick=4, channel=0, data=[32, 233]),\n",
      "   midi.NoteOffEvent(tick=65, channel=0, data=[19, 0]),\n",
      "   midi.NoteOnEvent(tick=13, channel=0, data=[78, 22]),\n",
      "   midi.NoteOffEvent(tick=50, channel=0, data=[75, 0]),\n",
      "   midi.NoteOnEvent(tick=21, channel=0, data=[24, 10]),\n",
      "   midi.NoteOnEvent(tick=24, channel=0, data=[115, 159]),\n",
      "   midi.NoteOnEvent(tick=0, channel=0, data=[77, 194]),\n",
      "   midi.NoteOnEvent(tick=3, channel=0, data=[58, 94]),\n",
      "   midi.NoteOnEvent(tick=39, channel=0, data=[104, 241]),\n",
      "   midi.NoteOffEvent(tick=47, channel=0, data=[21, 0]),\n",
      "   midi.NoteOnEvent(tick=30, channel=0, data=[83, 229]),\n",
      "   midi.NoteOnEvent(tick=1, channel=0, data=[15, 226]),\n",
      "   midi.NoteOnEvent(tick=7, channel=0, data=[98, 21]),\n",
      "   midi.NoteOnEvent(tick=6, channel=0, data=[20, 196]),\n",
      "   midi.NoteOnEvent(tick=1, channel=0, data=[104, 177]),\n",
      "   midi.NoteOnEvent(tick=0, channel=0, data=[32, 190]),\n",
      "   midi.NoteOffEvent(tick=6, channel=0, data=[54, 0]),\n",
      "   midi.NoteOnEvent(tick=38, channel=0, data=[16, 210]),\n",
      "   midi.NoteOnEvent(tick=20, channel=0, data=[31, 32]),\n",
      "   midi.NoteOffEvent(tick=6, channel=0, data=[16, 0]),\n",
      "   midi.NoteOnEvent(tick=0, channel=0, data=[17, 130]),\n",
      "   midi.NoteOffEvent(tick=10, channel=0, data=[104, 0]),\n",
      "   midi.NoteOnEvent(tick=0, channel=0, data=[70, 138]),\n",
      "   midi.NoteOffEvent(tick=1, channel=0, data=[1, 0]),\n",
      "   midi.NoteOnEvent(tick=2, channel=0, data=[82, 103]),\n",
      "   midi.NoteOnEvent(tick=1, channel=0, data=[127, 190]),\n",
      "   midi.NoteOnEvent(tick=3, channel=0, data=[65, 125]),\n",
      "   midi.NoteOffEvent(tick=11, channel=0, data=[65, 0]),\n",
      "   midi.NoteOnEvent(tick=5, channel=0, data=[84, 28]),\n",
      "   midi.NoteOnEvent(tick=2, channel=0, data=[46, 127]),\n",
      "   midi.NoteOffEvent(tick=7, channel=0, data=[24, 0]),\n",
      "   midi.NoteOnEvent(tick=26, channel=0, data=[20, 105]),\n",
      "   midi.NoteOnEvent(tick=8, channel=0, data=[73, 122]),\n",
      "   midi.NoteOnEvent(tick=4, channel=0, data=[65, 239]),\n",
      "   midi.NoteOffEvent(tick=1, channel=0, data=[98, 0]),\n",
      "   midi.NoteOffEvent(tick=1, channel=0, data=[82, 0]),\n",
      "   midi.NoteOnEvent(tick=17, channel=0, data=[26, 170]),\n",
      "   midi.NoteOnEvent(tick=13, channel=0, data=[55, 187]),\n",
      "   midi.NoteOffEvent(tick=2, channel=0, data=[20, 0]),\n",
      "   midi.NoteOffEvent(tick=17, channel=0, data=[73, 0]),\n",
      "   midi.NoteOnEvent(tick=28, channel=0, data=[117, 25]),\n",
      "   midi.NoteOnEvent(tick=1, channel=0, data=[111, 241]),\n",
      "   midi.NoteOnEvent(tick=1, channel=0, data=[64, 131]),\n",
      "   midi.NoteOnEvent(tick=13, channel=0, data=[69, 44]),\n",
      "   midi.NoteOnEvent(tick=7, channel=0, data=[36, 98]),\n",
      "   midi.NoteOnEvent(tick=9, channel=0, data=[87, 138]),\n",
      "   midi.NoteOffEvent(tick=8, channel=0, data=[31, 0]),\n",
      "   midi.NoteOnEvent(tick=6, channel=0, data=[27, 199]),\n",
      "   midi.NoteOnEvent(tick=17, channel=0, data=[117, 68]),\n",
      "   midi.NoteOnEvent(tick=0, channel=0, data=[106, 73]),\n",
      "   midi.NoteOffEvent(tick=4, channel=0, data=[53, 0]),\n",
      "   midi.NoteOnEvent(tick=0, channel=0, data=[120, 184]),\n",
      "   midi.NoteOffEvent(tick=4, channel=0, data=[83, 0]),\n",
      "   midi.NoteOnEvent(tick=4, channel=0, data=[62, 8]),\n",
      "   midi.NoteOffEvent(tick=22, channel=0, data=[62, 0]),\n",
      "   midi.NoteOnEvent(tick=0, channel=0, data=[26, 148]),\n",
      "   midi.NoteOffEvent(tick=6, channel=0, data=[77, 0]),\n",
      "   midi.NoteOffEvent(tick=4, channel=0, data=[111, 0]),\n",
      "   midi.NoteOnEvent(tick=3, channel=0, data=[113, 243]),\n",
      "   midi.NoteOnEvent(tick=32, channel=0, data=[111, 228]),\n",
      "   midi.NoteOnEvent(tick=5, channel=0, data=[54, 217]),\n",
      "   midi.NoteOffEvent(tick=6, channel=0, data=[15, 0]),\n",
      "   midi.NoteOnEvent(tick=3, channel=0, data=[21, 166]),\n",
      "   midi.NoteOnEvent(tick=15, channel=0, data=[5, 186]),\n",
      "   midi.NoteOnEvent(tick=3, channel=0, data=[24, 97]),\n",
      "   midi.NoteOffEvent(tick=8, channel=0, data=[69, 0]),\n",
      "   midi.NoteOnEvent(tick=6, channel=0, data=[45, 146]),\n",
      "   midi.NoteOffEvent(tick=3, channel=0, data=[21, 0]),\n",
      "   midi.NoteOffEvent(tick=2, channel=0, data=[78, 0]),\n",
      "   midi.NoteOnEvent(tick=40, channel=0, data=[39, 104]),\n",
      "   midi.NoteOnEvent(tick=12, channel=0, data=[122, 235]),\n",
      "   midi.NoteOnEvent(tick=8, channel=0, data=[18, 162]),\n",
      "   midi.NoteOnEvent(tick=0, channel=0, data=[14, 61]),\n",
      "   midi.NoteOffEvent(tick=3, channel=0, data=[18, 0]),\n",
      "   midi.NoteOnEvent(tick=9, channel=0, data=[19, 198]),\n",
      "   midi.NoteOnEvent(tick=11, channel=0, data=[71, 237]),\n",
      "   midi.NoteOffEvent(tick=2, channel=0, data=[46, 0]),\n",
      "   midi.NoteOnEvent(tick=4, channel=0, data=[58, 177]),\n",
      "   midi.NoteOffEvent(tick=20, channel=0, data=[55, 0]),\n",
      "   midi.NoteOffEvent(tick=25, channel=0, data=[60, 0]),\n",
      "   midi.NoteOffEvent(tick=54, channel=0, data=[111, 0]),\n",
      "   midi.NoteOffEvent(tick=65, channel=0, data=[113, 0]),\n",
      "   midi.NoteOffEvent(tick=2, channel=0, data=[106, 0]),\n",
      "   midi.NoteOffEvent(tick=10, channel=0, data=[27, 0]),\n",
      "   midi.NoteOffEvent(tick=30, channel=0, data=[65, 0]),\n",
      "   midi.NoteOffEvent(tick=18, channel=0, data=[36, 0]),\n",
      "   midi.NoteOffEvent(tick=33, channel=0, data=[17, 0]),\n",
      "   midi.NoteOffEvent(tick=71, channel=0, data=[84, 0]),\n",
      "   midi.NoteOffEvent(tick=3, channel=0, data=[122, 0]),\n",
      "   midi.NoteOffEvent(tick=4, channel=0, data=[115, 0]),\n",
      "   midi.NoteOffEvent(tick=11, channel=0, data=[5, 0]),\n",
      "   midi.NoteOffEvent(tick=3, channel=0, data=[54, 0]),\n",
      "   midi.NoteOffEvent(tick=5, channel=0, data=[24, 0]),\n",
      "   midi.NoteOffEvent(tick=107, channel=0, data=[71, 0]),\n",
      "   midi.NoteOffEvent(tick=18, channel=0, data=[32, 0]),\n",
      "   midi.NoteOffEvent(tick=42, channel=0, data=[70, 0]),\n",
      "   midi.NoteOffEvent(tick=18, channel=0, data=[64, 0]),\n",
      "   midi.NoteOffEvent(tick=24, channel=0, data=[127, 0]),\n",
      "   midi.NoteOffEvent(tick=33, channel=0, data=[45, 0]),\n",
      "   midi.NoteOffEvent(tick=42, channel=0, data=[26, 0]),\n",
      "   midi.NoteOffEvent(tick=35, channel=0, data=[87, 0]),\n",
      "   midi.NoteOffEvent(tick=39, channel=0, data=[39, 0]),\n",
      "   midi.NoteOffEvent(tick=20, channel=0, data=[120, 0]),\n",
      "   midi.NoteOffEvent(tick=7, channel=0, data=[117, 0]),\n",
      "   midi.NoteOffEvent(tick=16, channel=0, data=[19, 0]),\n",
      "   midi.NoteOffEvent(tick=8, channel=0, data=[14, 0]),\n",
      "   midi.NoteOffEvent(tick=237, channel=0, data=[58, 0]),\n",
      "   midi.EndOfTrackEvent(tick=0, data=[])]),\n",
      " midi.Track(\\\n",
      "  [midi.SetTempoEvent(tick=0, data=[8, 227, 124]),\n",
      "   midi.ProgramChangeEvent(tick=0, channel=0, data=[72]),\n",
      "   midi.NoteOnEvent(tick=7, channel=0, data=[53, 149]),\n",
      "   midi.NoteOnEvent(tick=29, channel=0, data=[9, 188]),\n",
      "   midi.NoteOnEvent(tick=33, channel=0, data=[85, 74]),\n",
      "   midi.NoteOnEvent(tick=25, channel=0, data=[22, 74]),\n",
      "   midi.NoteOnEvent(tick=8, channel=0, data=[44, 55]),\n",
      "   midi.NoteOnEvent(tick=19, channel=0, data=[113, 77]),\n",
      "   midi.NoteOnEvent(tick=5, channel=0, data=[51, 91]),\n",
      "   midi.NoteOnEvent(tick=12, channel=0, data=[38, 124]),\n",
      "   midi.NoteOnEvent(tick=17, channel=0, data=[51, 1]),\n",
      "   midi.NoteOnEvent(tick=50, channel=0, data=[5, 217]),\n",
      "   midi.NoteOnEvent(tick=2, channel=0, data=[40, 89]),\n",
      "   midi.NoteOnEvent(tick=1, channel=0, data=[85, 175]),\n",
      "   midi.NoteOnEvent(tick=14, channel=0, data=[47, 107]),\n",
      "   midi.NoteOffEvent(tick=4, channel=0, data=[113, 0]),\n",
      "   midi.NoteOffEvent(tick=3, channel=0, data=[22, 0]),\n",
      "   midi.NoteOnEvent(tick=16, channel=0, data=[12, 146]),\n",
      "   midi.NoteOnEvent(tick=16, channel=0, data=[13, 138]),\n",
      "   midi.NoteOffEvent(tick=9, channel=0, data=[44, 0]),\n",
      "   midi.NoteOnEvent(tick=20, channel=0, data=[41, 164]),\n",
      "   midi.NoteOnEvent(tick=32, channel=0, data=[30, 27]),\n",
      "   midi.NoteOffEvent(tick=1, channel=0, data=[9, 0]),\n",
      "   midi.NoteOnEvent(tick=7, channel=0, data=[7, 178]),\n",
      "   midi.NoteOnEvent(tick=15, channel=0, data=[61, 173]),\n",
      "   midi.NoteOnEvent(tick=3, channel=0, data=[31, 236]),\n",
      "   midi.NoteOnEvent(tick=1, channel=0, data=[117, 31]),\n",
      "   midi.NoteOnEvent(tick=0, channel=0, data=[22, 37]),\n",
      "   midi.NoteOnEvent(tick=22, channel=0, data=[102, 109]),\n",
      "   midi.NoteOffEvent(tick=12, channel=0, data=[12, 0]),\n",
      "   midi.NoteOnEvent(tick=0, channel=0, data=[124, 76]),\n",
      "   midi.NoteOffEvent(tick=1, channel=0, data=[102, 0]),\n",
      "   midi.NoteOnEvent(tick=12, channel=0, data=[50, 209]),\n",
      "   midi.NoteOnEvent(tick=19, channel=0, data=[81, 182]),\n",
      "   midi.NoteOnEvent(tick=12, channel=0, data=[64, 195]),\n",
      "   midi.NoteOnEvent(tick=8, channel=0, data=[90, 43]),\n",
      "   midi.NoteOnEvent(tick=0, channel=0, data=[76, 215]),\n",
      "   midi.NoteOnEvent(tick=6, channel=0, data=[94, 58]),\n",
      "   midi.NoteOffEvent(tick=11, channel=0, data=[5, 0]),\n",
      "   midi.NoteOffEvent(tick=21, channel=0, data=[85, 0]),\n",
      "   midi.NoteOnEvent(tick=0, channel=0, data=[122, 237]),\n",
      "   midi.NoteOnEvent(tick=1, channel=0, data=[76, 6]),\n",
      "   midi.NoteOnEvent(tick=3, channel=0, data=[12, 26]),\n",
      "   midi.NoteOnEvent(tick=5, channel=0, data=[43, 169]),\n",
      "   midi.NoteOnEvent(tick=1, channel=0, data=[32, 126]),\n",
      "   midi.NoteOffEvent(tick=4, channel=0, data=[61, 0]),\n",
      "   midi.NoteOffEvent(tick=3, channel=0, data=[124, 0]),\n",
      "   midi.NoteOnEvent(tick=20, channel=0, data=[24, 142]),\n",
      "   midi.NoteOnEvent(tick=5, channel=0, data=[50, 22]),\n",
      "   midi.NoteOffEvent(tick=10, channel=0, data=[31, 0]),\n",
      "   midi.NoteOffEvent(tick=10, channel=0, data=[7, 0]),\n",
      "   midi.NoteOnEvent(tick=0, channel=0, data=[34, 91]),\n",
      "   midi.NoteOnEvent(tick=12, channel=0, data=[18, 82]),\n",
      "   midi.NoteOnEvent(tick=7, channel=0, data=[20, 9]),\n",
      "   midi.NoteOnEvent(tick=4, channel=0, data=[14, 242]),\n",
      "   midi.NoteOffEvent(tick=2, channel=0, data=[117, 0]),\n",
      "   midi.NoteOnEvent(tick=0, channel=0, data=[98, 186]),\n",
      "   midi.NoteOffEvent(tick=9, channel=0, data=[24, 0]),\n",
      "   midi.NoteOffEvent(tick=3, channel=0, data=[53, 0]),\n",
      "   midi.NoteOnEvent(tick=7, channel=0, data=[90, 54]),\n",
      "   midi.NoteOnEvent(tick=12, channel=0, data=[123, 252]),\n",
      "   midi.NoteOffEvent(tick=1, channel=0, data=[18, 0]),\n",
      "   midi.NoteOnEvent(tick=1, channel=0, data=[115, 236]),\n",
      "   midi.NoteOffEvent(tick=25, channel=0, data=[34, 0]),\n",
      "   midi.NoteOnEvent(tick=8, channel=0, data=[55, 213]),\n",
      "   midi.NoteOnEvent(tick=13, channel=0, data=[42, 84]),\n",
      "   midi.NoteOnEvent(tick=23, channel=0, data=[77, 80]),\n",
      "   midi.NoteOnEvent(tick=3, channel=0, data=[63, 144]),\n",
      "   midi.NoteOnEvent(tick=5, channel=0, data=[119, 27]),\n",
      "   midi.NoteOnEvent(tick=10, channel=0, data=[80, 107]),\n",
      "   midi.NoteOnEvent(tick=17, channel=0, data=[39, 149]),\n",
      "   midi.NoteOnEvent(tick=21, channel=0, data=[83, 173]),\n",
      "   midi.NoteOffEvent(tick=63, channel=0, data=[94, 0]),\n",
      "   midi.NoteOnEvent(tick=8, channel=0, data=[113, 8]),\n",
      "   midi.NoteOffEvent(tick=36, channel=0, data=[32, 0]),\n",
      "   midi.NoteOffEvent(tick=17, channel=0, data=[43, 0]),\n",
      "   midi.NoteOffEvent(tick=8, channel=0, data=[38, 0]),\n",
      "   midi.NoteOffEvent(tick=9, channel=0, data=[98, 0]),\n",
      "   midi.NoteOnEvent(tick=28, channel=0, data=[29, 15]),\n",
      "   midi.NoteOffEvent(tick=4, channel=0, data=[50, 0]),\n",
      "   midi.NoteOnEvent(tick=13, channel=0, data=[126, 238]),\n",
      "   midi.NoteOffEvent(tick=14, channel=0, data=[40, 0]),\n",
      "   midi.NoteOffEvent(tick=4, channel=0, data=[77, 0]),\n",
      "   midi.NoteOnEvent(tick=20, channel=0, data=[112, 160]),\n",
      "   midi.NoteOnEvent(tick=18, channel=0, data=[105, 43]),\n",
      "   midi.NoteOffEvent(tick=10, channel=0, data=[55, 0]),\n",
      "   midi.NoteOnEvent(tick=21, channel=0, data=[120, 126]),\n",
      "   midi.NoteOnEvent(tick=1, channel=0, data=[74, 157]),\n",
      "   midi.NoteOnEvent(tick=6, channel=0, data=[89, 215]),\n",
      "   midi.NoteOnEvent(tick=0, channel=0, data=[36, 157]),\n",
      "   midi.NoteOffEvent(tick=28, channel=0, data=[63, 0]),\n",
      "   midi.NoteOffEvent(tick=6, channel=0, data=[64, 0]),\n",
      "   midi.NoteOffEvent(tick=3, channel=0, data=[105, 0]),\n",
      "   midi.NoteOffEvent(tick=6, channel=0, data=[51, 0]),\n",
      "   midi.NoteOffEvent(tick=1, channel=0, data=[36, 0]),\n",
      "   midi.NoteOffEvent(tick=21, channel=0, data=[13, 0]),\n",
      "   midi.NoteOffEvent(tick=18, channel=0, data=[80, 0]),\n",
      "   midi.NoteOffEvent(tick=3, channel=0, data=[89, 0]),\n",
      "   midi.NoteOffEvent(tick=7, channel=0, data=[112, 0]),\n",
      "   midi.NoteOffEvent(tick=35, channel=0, data=[30, 0]),\n",
      "   midi.NoteOffEvent(tick=19, channel=0, data=[83, 0]),\n",
      "   midi.NoteOffEvent(tick=48, channel=0, data=[122, 0]),\n",
      "   midi.NoteOffEvent(tick=2, channel=0, data=[126, 0]),\n",
      "   midi.NoteOffEvent(tick=12, channel=0, data=[47, 0]),\n",
      "   midi.NoteOffEvent(tick=6, channel=0, data=[39, 0]),\n",
      "   midi.NoteOffEvent(tick=32, channel=0, data=[41, 0]),\n",
      "   midi.NoteOffEvent(tick=1, channel=0, data=[12, 0]),\n",
      "   midi.NoteOffEvent(tick=20, channel=0, data=[20, 0]),\n",
      "   midi.NoteOffEvent(tick=16, channel=0, data=[119, 0]),\n",
      "   midi.NoteOffEvent(tick=35, channel=0, data=[22, 0]),\n",
      "   midi.NoteOffEvent(tick=25, channel=0, data=[76, 0]),\n",
      "   midi.NoteOffEvent(tick=39, channel=0, data=[123, 0]),\n",
      "   midi.NoteOffEvent(tick=20, channel=0, data=[81, 0]),\n",
      "   midi.NoteOffEvent(tick=81, channel=0, data=[90, 0]),\n",
      "   midi.NoteOffEvent(tick=52, channel=0, data=[115, 0]),\n",
      "   midi.NoteOffEvent(tick=7, channel=0, data=[14, 0]),\n",
      "   midi.NoteOffEvent(tick=4, channel=0, data=[113, 0]),\n",
      "   midi.NoteOffEvent(tick=38, channel=0, data=[42, 0]),\n",
      "   midi.NoteOffEvent(tick=63, channel=0, data=[74, 0]),\n",
      "   midi.NoteOffEvent(tick=7, channel=0, data=[120, 0]),\n",
      "   midi.NoteOffEvent(tick=178, channel=0, data=[29, 0]),\n",
      "   midi.EndOfTrackEvent(tick=0, data=[])]),\n",
      " midi.Track(\\\n",
      "  [midi.SetTempoEvent(tick=0, data=[8, 227, 124]),\n",
      "   midi.ProgramChangeEvent(tick=0, channel=0, data=[73]),\n",
      "   midi.NoteOnEvent(tick=3, channel=0, data=[100, 86]),\n",
      "   midi.NoteOnEvent(tick=0, channel=0, data=[48, 150]),\n",
      "   midi.NoteOnEvent(tick=5, channel=0, data=[66, 60]),\n",
      "   midi.NoteOnEvent(tick=10, channel=0, data=[102, 64]),\n",
      "   midi.NoteOnEvent(tick=18, channel=0, data=[13, 183]),\n",
      "   midi.NoteOnEvent(tick=16, channel=0, data=[19, 85]),\n",
      "   midi.NoteOnEvent(tick=2, channel=0, data=[48, 189]),\n",
      "   midi.NoteOnEvent(tick=25, channel=0, data=[19, 36]),\n",
      "   midi.NoteOnEvent(tick=4, channel=0, data=[91, 237]),\n",
      "   midi.NoteOnEvent(tick=34, channel=0, data=[70, 207]),\n",
      "   midi.NoteOnEvent(tick=6, channel=0, data=[104, 6]),\n",
      "   midi.NoteOnEvent(tick=3, channel=0, data=[62, 143]),\n",
      "   midi.NoteOnEvent(tick=18, channel=0, data=[4, 159]),\n",
      "   midi.NoteOnEvent(tick=11, channel=0, data=[55, 183]),\n",
      "   midi.NoteOffEvent(tick=22, channel=0, data=[13, 0]),\n",
      "   midi.NoteOnEvent(tick=15, channel=0, data=[125, 4]),\n",
      "   midi.NoteOffEvent(tick=11, channel=0, data=[62, 0]),\n",
      "   midi.NoteOnEvent(tick=2, channel=0, data=[77, 16]),\n",
      "   midi.NoteOnEvent(tick=35, channel=0, data=[77, 0]),\n",
      "   midi.NoteOnEvent(tick=1, channel=0, data=[118, 49]),\n",
      "   midi.NoteOnEvent(tick=16, channel=0, data=[42, 32]),\n",
      "   midi.NoteOnEvent(tick=4, channel=0, data=[73, 234]),\n",
      "   midi.NoteOnEvent(tick=7, channel=0, data=[104, 193]),\n",
      "   midi.NoteOnEvent(tick=8, channel=0, data=[85, 54]),\n",
      "   midi.NoteOnEvent(tick=13, channel=0, data=[102, 95]),\n",
      "   midi.NoteOnEvent(tick=24, channel=0, data=[91, 251]),\n",
      "   midi.NoteOnEvent(tick=5, channel=0, data=[120, 208]),\n",
      "   midi.NoteOffEvent(tick=4, channel=0, data=[4, 0]),\n",
      "   midi.NoteOnEvent(tick=13, channel=0, data=[111, 224]),\n",
      "   midi.NoteOnEvent(tick=2, channel=0, data=[33, 61]),\n",
      "   midi.NoteOnEvent(tick=8, channel=0, data=[116, 54]),\n",
      "   midi.NoteOnEvent(tick=0, channel=0, data=[114, 17]),\n",
      "   midi.NoteOnEvent(tick=14, channel=0, data=[45, 60]),\n",
      "   midi.NoteOffEvent(tick=16, channel=0, data=[45, 0]),\n",
      "   midi.NoteOffEvent(tick=8, channel=0, data=[33, 0]),\n",
      "   midi.NoteOnEvent(tick=20, channel=0, data=[117, 47]),\n",
      "   midi.NoteOnEvent(tick=1, channel=0, data=[115, 231]),\n",
      "   midi.NoteOffEvent(tick=2, channel=0, data=[115, 0]),\n",
      "   midi.NoteOnEvent(tick=9, channel=0, data=[115, 53]),\n",
      "   midi.NoteOffEvent(tick=5, channel=0, data=[118, 0]),\n",
      "   midi.NoteOnEvent(tick=15, channel=0, data=[57, 12]),\n",
      "   midi.NoteOnEvent(tick=7, channel=0, data=[50, 69]),\n",
      "   midi.NoteOffEvent(tick=1, channel=0, data=[57, 0]),\n",
      "   midi.NoteOnEvent(tick=8, channel=0, data=[120, 10]),\n",
      "   midi.NoteOnEvent(tick=3, channel=0, data=[61, 56]),\n",
      "   midi.NoteOffEvent(tick=10, channel=0, data=[125, 0]),\n",
      "   midi.NoteOffEvent(tick=15, channel=0, data=[100, 0]),\n",
      "   midi.NoteOnEvent(tick=4, channel=0, data=[56, 133]),\n",
      "   midi.NoteOnEvent(tick=0, channel=0, data=[124, 23]),\n",
      "   midi.NoteOnEvent(tick=4, channel=0, data=[1, 215]),\n",
      "   midi.NoteOnEvent(tick=23, channel=0, data=[83, 226]),\n",
      "   midi.NoteOffEvent(tick=19, channel=0, data=[77, 0]),\n",
      "   midi.NoteOffEvent(tick=2, channel=0, data=[19, 0]),\n",
      "   midi.NoteOffEvent(tick=3, channel=0, data=[66, 0]),\n",
      "   midi.NoteOnEvent(tick=1, channel=0, data=[123, 212]),\n",
      "   midi.NoteOnEvent(tick=7, channel=0, data=[114, 91]),\n",
      "   midi.NoteOnEvent(tick=12, channel=0, data=[10, 215]),\n",
      "   midi.NoteOnEvent(tick=37, channel=0, data=[107, 216]),\n",
      "   midi.NoteOnEvent(tick=0, channel=0, data=[30, 58]),\n",
      "   midi.NoteOnEvent(tick=0, channel=0, data=[42, 142]),\n",
      "   midi.NoteOffEvent(tick=16, channel=0, data=[73, 0]),\n",
      "   midi.NoteOnEvent(tick=27, channel=0, data=[63, 185]),\n",
      "   midi.NoteOnEvent(tick=1, channel=0, data=[15, 29]),\n",
      "   midi.NoteOnEvent(tick=18, channel=0, data=[21, 148]),\n",
      "   midi.NoteOnEvent(tick=9, channel=0, data=[45, 41]),\n",
      "   midi.NoteOnEvent(tick=9, channel=0, data=[43, 228]),\n",
      "   midi.NoteOnEvent(tick=6, channel=0, data=[123, 107]),\n",
      "   midi.NoteOffEvent(tick=2, channel=0, data=[115, 0]),\n",
      "   midi.NoteOffEvent(tick=2, channel=0, data=[114, 0]),\n",
      "   midi.NoteOnEvent(tick=9, channel=0, data=[124, 137]),\n",
      "   midi.NoteOnEvent(tick=4, channel=0, data=[78, 138]),\n",
      "   midi.NoteOnEvent(tick=0, channel=0, data=[64, 186]),\n",
      "   midi.NoteOnEvent(tick=21, channel=0, data=[5, 248]),\n",
      "   midi.NoteOffEvent(tick=1, channel=0, data=[55, 0]),\n",
      "   midi.NoteOffEvent(tick=23, channel=0, data=[120, 0]),\n",
      "   midi.NoteOnEvent(tick=16, channel=0, data=[50, 53]),\n",
      "   midi.NoteOnEvent(tick=4, channel=0, data=[113, 153]),\n",
      "   midi.NoteOffEvent(tick=1, channel=0, data=[15, 0]),\n",
      "   midi.NoteOnEvent(tick=4, channel=0, data=[91, 164]),\n",
      "   midi.NoteOffEvent(tick=15, channel=0, data=[117, 0]),\n",
      "   midi.NoteOnEvent(tick=0, channel=0, data=[31, 244]),\n",
      "   midi.NoteOnEvent(tick=17, channel=0, data=[4, 18]),\n",
      "   midi.NoteOffEvent(tick=14, channel=0, data=[61, 0]),\n",
      "   midi.NoteOffEvent(tick=19, channel=0, data=[10, 0]),\n",
      "   midi.NoteOffEvent(tick=11, channel=0, data=[107, 0]),\n",
      "   midi.NoteOffEvent(tick=13, channel=0, data=[70, 0]),\n",
      "   midi.NoteOnEvent(tick=22, channel=0, data=[3, 218]),\n",
      "   midi.NoteOnEvent(tick=0, channel=0, data=[104, 176]),\n",
      "   midi.NoteOnEvent(tick=2, channel=0, data=[107, 157]),\n",
      "   midi.NoteOffEvent(tick=3, channel=0, data=[43, 0]),\n",
      "   midi.NoteOnEvent(tick=0, channel=0, data=[119, 33]),\n",
      "   midi.NoteOnEvent(tick=7, channel=0, data=[28, 234]),\n",
      "   midi.NoteOffEvent(tick=12, channel=0, data=[56, 0]),\n",
      "   midi.NoteOnEvent(tick=4, channel=0, data=[44, 134]),\n",
      "   midi.NoteOnEvent(tick=4, channel=0, data=[43, 248]),\n",
      "   midi.NoteOnEvent(tick=14, channel=0, data=[100, 244]),\n",
      "   midi.NoteOnEvent(tick=11, channel=0, data=[94, 166]),\n",
      "   midi.NoteOnEvent(tick=7, channel=0, data=[32, 241]),\n",
      "   midi.NoteOffEvent(tick=18, channel=0, data=[44, 0]),\n",
      "   midi.NoteOffEvent(tick=7, channel=0, data=[48, 0]),\n",
      "   midi.NoteOnEvent(tick=11, channel=0, data=[15, 40]),\n",
      "   midi.NoteOffEvent(tick=38, channel=0, data=[1, 0]),\n",
      "   midi.NoteOffEvent(tick=26, channel=0, data=[5, 0]),\n",
      "   midi.NoteOffEvent(tick=12, channel=0, data=[3, 0]),\n",
      "   midi.NoteOffEvent(tick=10, channel=0, data=[45, 0]),\n",
      "   midi.NoteOffEvent(tick=20, channel=0, data=[116, 0]),\n",
      "   midi.NoteOffEvent(tick=2, channel=0, data=[91, 0]),\n",
      "   midi.NoteOffEvent(tick=12, channel=0, data=[124, 0]),\n",
      "   midi.NoteOffEvent(tick=3, channel=0, data=[102, 0]),\n",
      "   midi.NoteOffEvent(tick=30, channel=0, data=[28, 0]),\n",
      "   midi.NoteOffEvent(tick=69, channel=0, data=[30, 0]),\n",
      "   midi.NoteOffEvent(tick=82, channel=0, data=[111, 0]),\n",
      "   midi.NoteOffEvent(tick=10, channel=0, data=[104, 0]),\n",
      "   midi.NoteOffEvent(tick=13, channel=0, data=[4, 0]),\n",
      "   midi.NoteOffEvent(tick=26, channel=0, data=[63, 0]),\n",
      "   midi.NoteOffEvent(tick=6, channel=0, data=[78, 0]),\n",
      "   midi.NoteOffEvent(tick=33, channel=0, data=[83, 0]),\n",
      "   midi.NoteOffEvent(tick=74, channel=0, data=[42, 0]),\n",
      "   midi.NoteOffEvent(tick=20, channel=0, data=[123, 0]),\n",
      "   midi.NoteOffEvent(tick=45, channel=0, data=[21, 0]),\n",
      "   midi.NoteOffEvent(tick=9, channel=0, data=[107, 0]),\n",
      "   midi.NoteOffEvent(tick=70, channel=0, data=[94, 0]),\n",
      "   midi.NoteOffEvent(tick=17, channel=0, data=[50, 0]),\n",
      "   midi.NoteOffEvent(tick=29, channel=0, data=[31, 0]),\n",
      "   midi.NoteOffEvent(tick=17, channel=0, data=[64, 0]),\n",
      "   midi.NoteOffEvent(tick=6, channel=0, data=[113, 0]),\n",
      "   midi.NoteOffEvent(tick=3, channel=0, data=[100, 0]),\n",
      "   midi.NoteOffEvent(tick=93, channel=0, data=[15, 0]),\n",
      "   midi.NoteOffEvent(tick=101, channel=0, data=[43, 0]),\n",
      "   midi.NoteOffEvent(tick=5, channel=0, data=[32, 0]),\n",
      "   midi.NoteOffEvent(tick=11, channel=0, data=[119, 0]),\n",
      "   midi.EndOfTrackEvent(tick=0, data=[])]),\n",
      " midi.Track(\\\n",
      "  [midi.SetTempoEvent(tick=0, data=[8, 227, 124]),\n",
      "   midi.ProgramChangeEvent(tick=0, channel=0, data=[74]),\n",
      "   midi.NoteOnEvent(tick=6, channel=0, data=[109, 179]),\n",
      "   midi.NoteOnEvent(tick=10, channel=0, data=[18, 148]),\n",
      "   midi.NoteOnEvent(tick=20, channel=0, data=[107, 251]),\n",
      "   midi.NoteOnEvent(tick=33, channel=0, data=[28, 105]),\n",
      "   midi.NoteOnEvent(tick=14, channel=0, data=[100, 3]),\n",
      "   midi.NoteOnEvent(tick=36, channel=0, data=[101, 32]),\n",
      "   midi.NoteOnEvent(tick=4, channel=0, data=[21, 4]),\n",
      "   midi.NoteOffEvent(tick=1, channel=0, data=[28, 0]),\n",
      "   midi.NoteOnEvent(tick=10, channel=0, data=[71, 120]),\n",
      "   midi.NoteOnEvent(tick=11, channel=0, data=[82, 229]),\n",
      "   midi.NoteOnEvent(tick=8, channel=0, data=[26, 243]),\n",
      "   midi.NoteOnEvent(tick=6, channel=0, data=[6, 216]),\n",
      "   midi.NoteOnEvent(tick=1, channel=0, data=[16, 130]),\n",
      "   midi.NoteOnEvent(tick=17, channel=0, data=[48, 178]),\n",
      "   midi.NoteOnEvent(tick=20, channel=0, data=[62, 95]),\n",
      "   midi.NoteOnEvent(tick=10, channel=0, data=[114, 229]),\n",
      "   midi.NoteOnEvent(tick=2, channel=0, data=[111, 160]),\n",
      "   midi.NoteOnEvent(tick=9, channel=0, data=[25, 12]),\n",
      "   midi.NoteOnEvent(tick=27, channel=0, data=[113, 41]),\n",
      "   midi.NoteOnEvent(tick=0, channel=0, data=[4, 255]),\n",
      "   midi.NoteOnEvent(tick=14, channel=0, data=[111, 71]),\n",
      "   midi.NoteOnEvent(tick=30, channel=0, data=[39, 220]),\n",
      "   midi.NoteOffEvent(tick=4, channel=0, data=[109, 0]),\n",
      "   midi.NoteOnEvent(tick=6, channel=0, data=[115, 28]),\n",
      "   midi.NoteOffEvent(tick=31, channel=0, data=[82, 0]),\n",
      "   midi.NoteOffEvent(tick=38, channel=0, data=[21, 0]),\n",
      "   midi.NoteOffEvent(tick=1, channel=0, data=[113, 0]),\n",
      "   midi.NoteOffEvent(tick=6, channel=0, data=[18, 0]),\n",
      "   midi.NoteOffEvent(tick=27, channel=0, data=[62, 0]),\n",
      "   midi.NoteOffEvent(tick=14, channel=0, data=[26, 0]),\n",
      "   midi.NoteOnEvent(tick=25, channel=0, data=[18, 41]),\n",
      "   midi.NoteOffEvent(tick=5, channel=0, data=[107, 0]),\n",
      "   midi.NoteOffEvent(tick=6, channel=0, data=[39, 0]),\n",
      "   midi.NoteOnEvent(tick=21, channel=0, data=[75, 105]),\n",
      "   midi.NoteOffEvent(tick=3, channel=0, data=[16, 0]),\n",
      "   midi.NoteOnEvent(tick=7, channel=0, data=[127, 248]),\n",
      "   midi.NoteOnEvent(tick=4, channel=0, data=[41, 123]),\n",
      "   midi.NoteOnEvent(tick=28, channel=0, data=[46, 155]),\n",
      "   midi.NoteOffEvent(tick=6, channel=0, data=[101, 0]),\n",
      "   midi.NoteOnEvent(tick=11, channel=0, data=[121, 47]),\n",
      "   midi.NoteOnEvent(tick=3, channel=0, data=[73, 126]),\n",
      "   midi.NoteOnEvent(tick=12, channel=0, data=[10, 122]),\n",
      "   midi.NoteOnEvent(tick=21, channel=0, data=[42, 26]),\n",
      "   midi.NoteOnEvent(tick=3, channel=0, data=[112, 111]),\n",
      "   midi.NoteOnEvent(tick=0, channel=0, data=[95, 34]),\n",
      "   midi.NoteOnEvent(tick=2, channel=0, data=[93, 10]),\n",
      "   midi.NoteOffEvent(tick=3, channel=0, data=[25, 0]),\n",
      "   midi.NoteOnEvent(tick=19, channel=0, data=[34, 27]),\n",
      "   midi.NoteOnEvent(tick=30, channel=0, data=[115, 241]),\n",
      "   midi.NoteOnEvent(tick=1, channel=0, data=[112, 58]),\n",
      "   midi.NoteOnEvent(tick=12, channel=0, data=[37, 67]),\n",
      "   midi.NoteOnEvent(tick=12, channel=0, data=[24, 18]),\n",
      "   midi.NoteOffEvent(tick=2, channel=0, data=[6, 0]),\n",
      "   midi.NoteOffEvent(tick=2, channel=0, data=[100, 0]),\n",
      "   midi.NoteOffEvent(tick=7, channel=0, data=[41, 0]),\n",
      "   midi.NoteOnEvent(tick=1, channel=0, data=[124, 134]),\n",
      "   midi.NoteOnEvent(tick=9, channel=0, data=[77, 51]),\n",
      "   midi.NoteOffEvent(tick=4, channel=0, data=[115, 0]),\n",
      "   midi.NoteOnEvent(tick=17, channel=0, data=[14, 229]),\n",
      "   midi.NoteOnEvent(tick=0, channel=0, data=[104, 230]),\n",
      "   midi.NoteOnEvent(tick=5, channel=0, data=[54, 229]),\n",
      "   midi.NoteOnEvent(tick=7, channel=0, data=[8, 205]),\n",
      "   midi.NoteOffEvent(tick=7, channel=0, data=[114, 0]),\n",
      "   midi.NoteOnEvent(tick=6, channel=0, data=[52, 171]),\n",
      "   midi.NoteOffEvent(tick=18, channel=0, data=[52, 0]),\n",
      "   midi.NoteOnEvent(tick=4, channel=0, data=[125, 92]),\n",
      "   midi.NoteOffEvent(tick=22, channel=0, data=[4, 0]),\n",
      "   midi.NoteOnEvent(tick=11, channel=0, data=[7, 44]),\n",
      "   midi.NoteOffEvent(tick=12, channel=0, data=[71, 0]),\n",
      "   midi.NoteOffEvent(tick=7, channel=0, data=[37, 0]),\n",
      "   midi.NoteOnEvent(tick=22, channel=0, data=[20, 179]),\n",
      "   midi.NoteOnEvent(tick=5, channel=0, data=[76, 184]),\n",
      "   midi.NoteOnEvent(tick=0, channel=0, data=[74, 249]),\n",
      "   midi.NoteOffEvent(tick=16, channel=0, data=[10, 0]),\n",
      "   midi.NoteOffEvent(tick=0, channel=0, data=[18, 0]),\n",
      "   midi.NoteOnEvent(tick=16, channel=0, data=[72, 135]),\n",
      "   midi.NoteOffEvent(tick=37, channel=0, data=[48, 0]),\n",
      "   midi.NoteOnEvent(tick=3, channel=0, data=[126, 104]),\n",
      "   midi.NoteOffEvent(tick=18, channel=0, data=[8, 0]),\n",
      "   midi.NoteOnEvent(tick=13, channel=0, data=[115, 119]),\n",
      "   midi.NoteOffEvent(tick=10, channel=0, data=[75, 0]),\n",
      "   midi.NoteOffEvent(tick=3, channel=0, data=[24, 0]),\n",
      "   midi.NoteOnEvent(tick=4, channel=0, data=[47, 238]),\n",
      "   midi.NoteOnEvent(tick=31, channel=0, data=[41, 160]),\n",
      "   midi.NoteOffEvent(tick=4, channel=0, data=[54, 0]),\n",
      "   midi.NoteOffEvent(tick=5, channel=0, data=[73, 0]),\n",
      "   midi.NoteOnEvent(tick=15, channel=0, data=[91, 229]),\n",
      "   midi.NoteOnEvent(tick=0, channel=0, data=[23, 15]),\n",
      "   midi.NoteOffEvent(tick=26, channel=0, data=[74, 0]),\n",
      "   midi.NoteOffEvent(tick=0, channel=0, data=[121, 0]),\n",
      "   midi.NoteOffEvent(tick=26, channel=0, data=[95, 0]),\n",
      "   midi.NoteOffEvent(tick=72, channel=0, data=[76, 0]),\n",
      "   midi.NoteOffEvent(tick=1, channel=0, data=[111, 0]),\n",
      "   midi.NoteOffEvent(tick=48, channel=0, data=[14, 0]),\n",
      "   midi.NoteOffEvent(tick=10, channel=0, data=[7, 0]),\n",
      "   midi.NoteOffEvent(tick=9, channel=0, data=[34, 0]),\n",
      "   midi.NoteOffEvent(tick=39, channel=0, data=[124, 0]),\n",
      "   midi.NoteOffEvent(tick=76, channel=0, data=[93, 0]),\n",
      "   midi.NoteOffEvent(tick=0, channel=0, data=[126, 0]),\n",
      "   midi.NoteOffEvent(tick=39, channel=0, data=[104, 0]),\n",
      "   midi.NoteOffEvent(tick=31, channel=0, data=[91, 0]),\n",
      "   midi.NoteOffEvent(tick=61, channel=0, data=[127, 0]),\n",
      "   midi.NoteOffEvent(tick=10, channel=0, data=[125, 0]),\n",
      "   midi.NoteOffEvent(tick=28, channel=0, data=[72, 0]),\n",
      "   midi.NoteOffEvent(tick=5, channel=0, data=[115, 0]),\n",
      "   midi.NoteOffEvent(tick=7, channel=0, data=[46, 0]),\n",
      "   midi.NoteOffEvent(tick=8, channel=0, data=[112, 0]),\n",
      "   midi.NoteOffEvent(tick=11, channel=0, data=[77, 0]),\n",
      "   midi.NoteOffEvent(tick=32, channel=0, data=[42, 0]),\n",
      "   midi.NoteOffEvent(tick=25, channel=0, data=[47, 0]),\n",
      "   midi.NoteOffEvent(tick=186, channel=0, data=[41, 0]),\n",
      "   midi.NoteOffEvent(tick=28, channel=0, data=[20, 0]),\n",
      "   midi.NoteOffEvent(tick=214, channel=0, data=[23, 0]),\n",
      "   midi.EndOfTrackEvent(tick=0, data=[])]),\n",
      " midi.Track(\\\n",
      "  [midi.SetTempoEvent(tick=0, data=[8, 227, 124]),\n",
      "   midi.ProgramChangeEvent(tick=0, channel=0, data=[75]),\n",
      "   midi.NoteOnEvent(tick=13, channel=0, data=[59, 253]),\n",
      "   midi.NoteOnEvent(tick=0, channel=0, data=[5, 140]),\n",
      "   midi.NoteOnEvent(tick=5, channel=0, data=[52, 105]),\n",
      "   midi.NoteOffEvent(tick=13, channel=0, data=[52, 0]),\n",
      "   midi.NoteOnEvent(tick=4, channel=0, data=[123, 160]),\n",
      "   midi.NoteOnEvent(tick=24, channel=0, data=[87, 122]),\n",
      "   midi.NoteOnEvent(tick=9, channel=0, data=[77, 140]),\n",
      "   midi.NoteOnEvent(tick=15, channel=0, data=[73, 201]),\n",
      "   midi.NoteOnEvent(tick=0, channel=0, data=[46, 24]),\n",
      "   midi.NoteOffEvent(tick=6, channel=0, data=[77, 0]),\n",
      "   midi.NoteOnEvent(tick=5, channel=0, data=[80, 172]),\n",
      "   midi.NoteOnEvent(tick=27, channel=0, data=[17, 252]),\n",
      "   midi.NoteOnEvent(tick=1, channel=0, data=[98, 60]),\n",
      "   midi.NoteOnEvent(tick=7, channel=0, data=[106, 158]),\n",
      "   midi.NoteOnEvent(tick=71, channel=0, data=[53, 180]),\n",
      "   midi.NoteOnEvent(tick=7, channel=0, data=[7, 61]),\n",
      "   midi.NoteOnEvent(tick=24, channel=0, data=[76, 84]),\n",
      "   midi.NoteOffEvent(tick=1, channel=0, data=[17, 0]),\n",
      "   midi.NoteOffEvent(tick=6, channel=0, data=[106, 0]),\n",
      "   midi.NoteOnEvent(tick=19, channel=0, data=[56, 59]),\n",
      "   midi.NoteOnEvent(tick=41, channel=0, data=[10, 102]),\n",
      "   midi.NoteOnEvent(tick=39, channel=0, data=[99, 58]),\n",
      "   midi.NoteOnEvent(tick=12, channel=0, data=[49, 180]),\n",
      "   midi.NoteOffEvent(tick=10, channel=0, data=[10, 0]),\n",
      "   midi.NoteOnEvent(tick=16, channel=0, data=[68, 170]),\n",
      "   midi.NoteOffEvent(tick=3, channel=0, data=[99, 0]),\n",
      "   midi.NoteOnEvent(tick=8, channel=0, data=[92, 236]),\n",
      "   midi.NoteOffEvent(tick=26, channel=0, data=[59, 0]),\n",
      "   midi.NoteOnEvent(tick=13, channel=0, data=[43, 19]),\n",
      "   midi.NoteOnEvent(tick=10, channel=0, data=[69, 185]),\n",
      "   midi.NoteOffEvent(tick=34, channel=0, data=[46, 0]),\n",
      "   midi.NoteOnEvent(tick=12, channel=0, data=[46, 33]),\n",
      "   midi.NoteOnEvent(tick=1, channel=0, data=[64, 141]),\n",
      "   midi.NoteOnEvent(tick=1, channel=0, data=[58, 213]),\n",
      "   midi.NoteOnEvent(tick=6, channel=0, data=[93, 79]),\n",
      "   midi.NoteOffEvent(tick=21, channel=0, data=[76, 0]),\n",
      "   midi.NoteOnEvent(tick=6, channel=0, data=[105, 24]),\n",
      "   midi.NoteOnEvent(tick=3, channel=0, data=[22, 126]),\n",
      "   midi.NoteOnEvent(tick=41, channel=0, data=[31, 154]),\n",
      "   midi.NoteOnEvent(tick=8, channel=0, data=[102, 197]),\n",
      "   midi.NoteOnEvent(tick=6, channel=0, data=[79, 216]),\n",
      "   midi.NoteOffEvent(tick=1, channel=0, data=[46, 0]),\n",
      "   midi.NoteOffEvent(tick=2, channel=0, data=[87, 0]),\n",
      "   midi.NoteOffEvent(tick=10, channel=0, data=[58, 0]),\n",
      "   midi.NoteOnEvent(tick=8, channel=0, data=[90, 74]),\n",
      "   midi.NoteOffEvent(tick=37, channel=0, data=[123, 0]),\n",
      "   midi.NoteOffEvent(tick=7, channel=0, data=[102, 0]),\n",
      "   midi.NoteOffEvent(tick=9, channel=0, data=[31, 0]),\n",
      "   midi.NoteOffEvent(tick=10, channel=0, data=[79, 0]),\n",
      "   midi.NoteOnEvent(tick=7, channel=0, data=[30, 29]),\n",
      "   midi.NoteOnEvent(tick=12, channel=0, data=[67, 8]),\n",
      "   midi.NoteOffEvent(tick=8, channel=0, data=[5, 0]),\n",
      "   midi.NoteOnEvent(tick=0, channel=0, data=[96, 115]),\n",
      "   midi.NoteOnEvent(tick=0, channel=0, data=[122, 4]),\n",
      "   midi.NoteOffEvent(tick=3, channel=0, data=[90, 0]),\n",
      "   midi.NoteOnEvent(tick=6, channel=0, data=[8, 248]),\n",
      "   midi.NoteOnEvent(tick=19, channel=0, data=[66, 234]),\n",
      "   midi.NoteOnEvent(tick=5, channel=0, data=[24, 162]),\n",
      "   midi.NoteOffEvent(tick=44, channel=0, data=[98, 0]),\n",
      "   midi.NoteOnEvent(tick=0, channel=0, data=[46, 114]),\n",
      "   midi.NoteOnEvent(tick=0, channel=0, data=[78, 92]),\n",
      "   midi.NoteOnEvent(tick=10, channel=0, data=[97, 252]),\n",
      "   midi.NoteOnEvent(tick=14, channel=0, data=[125, 183]),\n",
      "   midi.NoteOffEvent(tick=3, channel=0, data=[24, 0]),\n",
      "   midi.NoteOnEvent(tick=7, channel=0, data=[96, 174]),\n",
      "   midi.NoteOnEvent(tick=18, channel=0, data=[42, 239]),\n",
      "   midi.NoteOnEvent(tick=5, channel=0, data=[9, 18]),\n",
      "   midi.NoteOffEvent(tick=5, channel=0, data=[22, 0]),\n",
      "   midi.NoteOffEvent(tick=23, channel=0, data=[73, 0]),\n",
      "   midi.NoteOnEvent(tick=7, channel=0, data=[115, 47]),\n",
      "   midi.NoteOffEvent(tick=4, channel=0, data=[69, 0]),\n",
      "   midi.NoteOnEvent(tick=0, channel=0, data=[99, 188]),\n",
      "   midi.NoteOffEvent(tick=17, channel=0, data=[92, 0]),\n",
      "   midi.NoteOffEvent(tick=33, channel=0, data=[115, 0]),\n",
      "   midi.NoteOnEvent(tick=5, channel=0, data=[61, 233]),\n",
      "   midi.NoteOffEvent(tick=27, channel=0, data=[93, 0]),\n",
      "   midi.NoteOffEvent(tick=27, channel=0, data=[49, 0]),\n",
      "   midi.NoteOffEvent(tick=16, channel=0, data=[7, 0]),\n",
      "   midi.NoteOnEvent(tick=4, channel=0, data=[69, 119]),\n",
      "   midi.NoteOffEvent(tick=7, channel=0, data=[122, 0]),\n",
      "   midi.NoteOffEvent(tick=60, channel=0, data=[80, 0]),\n",
      "   midi.NoteOffEvent(tick=13, channel=0, data=[69, 0]),\n",
      "   midi.NoteOffEvent(tick=16, channel=0, data=[56, 0]),\n",
      "   midi.NoteOffEvent(tick=20, channel=0, data=[64, 0]),\n",
      "   midi.NoteOffEvent(tick=12, channel=0, data=[46, 0]),\n",
      "   midi.NoteOffEvent(tick=55, channel=0, data=[30, 0]),\n",
      "   midi.NoteOffEvent(tick=15, channel=0, data=[43, 0]),\n",
      "   midi.NoteOffEvent(tick=9, channel=0, data=[53, 0]),\n",
      "   midi.NoteOffEvent(tick=56, channel=0, data=[9, 0]),\n",
      "   midi.NoteOffEvent(tick=19, channel=0, data=[67, 0]),\n",
      "   midi.NoteOffEvent(tick=14, channel=0, data=[96, 0]),\n",
      "   midi.NoteOffEvent(tick=31, channel=0, data=[68, 0]),\n",
      "   midi.NoteOffEvent(tick=31, channel=0, data=[8, 0]),\n",
      "   midi.NoteOffEvent(tick=1, channel=0, data=[105, 0]),\n",
      "   midi.NoteOffEvent(tick=8, channel=0, data=[97, 0]),\n",
      "   midi.NoteOffEvent(tick=23, channel=0, data=[61, 0]),\n",
      "   midi.NoteOffEvent(tick=38, channel=0, data=[78, 0]),\n",
      "   midi.NoteOffEvent(tick=25, channel=0, data=[99, 0]),\n",
      "   midi.NoteOffEvent(tick=127, channel=0, data=[66, 0]),\n",
      "   midi.NoteOffEvent(tick=106, channel=0, data=[42, 0]),\n",
      "   midi.NoteOffEvent(tick=104, channel=0, data=[125, 0]),\n",
      "   midi.EndOfTrackEvent(tick=0, data=[])]),\n",
      " midi.Track(\\\n",
      "  [midi.SetTempoEvent(tick=0, data=[8, 227, 124]),\n",
      "   midi.ProgramChangeEvent(tick=0, channel=0, data=[76]),\n",
      "   midi.NoteOnEvent(tick=7, channel=0, data=[87, 6]),\n",
      "   midi.NoteOnEvent(tick=6, channel=0, data=[46, 202]),\n",
      "   midi.NoteOnEvent(tick=11, channel=0, data=[50, 102]),\n",
      "   midi.NoteOffEvent(tick=20, channel=0, data=[87, 0]),\n",
      "   midi.NoteOnEvent(tick=3, channel=0, data=[42, 7]),\n",
      "   midi.NoteOnEvent(tick=32, channel=0, data=[38, 245]),\n",
      "   midi.NoteOnEvent(tick=23, channel=0, data=[122, 226]),\n",
      "   midi.NoteOnEvent(tick=8, channel=0, data=[115, 154]),\n",
      "   midi.NoteOnEvent(tick=2, channel=0, data=[18, 122]),\n",
      "   midi.NoteOnEvent(tick=26, channel=0, data=[119, 146]),\n",
      "   midi.NoteOnEvent(tick=4, channel=0, data=[108, 177]),\n",
      "   midi.NoteOnEvent(tick=2, channel=0, data=[59, 54]),\n",
      "   midi.NoteOnEvent(tick=17, channel=0, data=[53, 125]),\n",
      "   midi.NoteOnEvent(tick=15, channel=0, data=[43, 245]),\n",
      "   midi.NoteOffEvent(tick=9, channel=0, data=[46, 0]),\n",
      "   midi.NoteOnEvent(tick=6, channel=0, data=[45, 233]),\n",
      "   midi.NoteOnEvent(tick=35, channel=0, data=[20, 37]),\n",
      "   midi.NoteOnEvent(tick=5, channel=0, data=[48, 18]),\n",
      "   midi.NoteOnEvent(tick=0, channel=0, data=[8, 146]),\n",
      "   midi.NoteOffEvent(tick=5, channel=0, data=[20, 0]),\n",
      "   midi.NoteOnEvent(tick=12, channel=0, data=[102, 156]),\n",
      "   midi.NoteOnEvent(tick=9, channel=0, data=[97, 124]),\n",
      "   midi.NoteOnEvent(tick=2, channel=0, data=[26, 74]),\n",
      "   midi.NoteOnEvent(tick=17, channel=0, data=[68, 172]),\n",
      "   midi.NoteOnEvent(tick=4, channel=0, data=[28, 220]),\n",
      "   midi.NoteOnEvent(tick=56, channel=0, data=[72, 144]),\n",
      "   midi.NoteOnEvent(tick=12, channel=0, data=[104, 100]),\n",
      "   midi.NoteOnEvent(tick=1, channel=0, data=[113, 49]),\n",
      "   midi.NoteOnEvent(tick=3, channel=0, data=[5, 35]),\n",
      "   midi.NoteOnEvent(tick=1, channel=0, data=[114, 189]),\n",
      "   midi.NoteOnEvent(tick=4, channel=0, data=[18, 146]),\n",
      "   midi.NoteOffEvent(tick=3, channel=0, data=[108, 0]),\n",
      "   midi.NoteOffEvent(tick=5, channel=0, data=[26, 0]),\n",
      "   midi.NoteOnEvent(tick=25, channel=0, data=[34, 131]),\n",
      "   midi.NoteOffEvent(tick=7, channel=0, data=[34, 0]),\n",
      "   midi.NoteOnEvent(tick=1, channel=0, data=[27, 142]),\n",
      "   midi.NoteOnEvent(tick=29, channel=0, data=[29, 17]),\n",
      "   midi.NoteOffEvent(tick=33, channel=0, data=[53, 0]),\n",
      "   midi.NoteOffEvent(tick=28, channel=0, data=[29, 0]),\n",
      "   midi.NoteOffEvent(tick=21, channel=0, data=[72, 0]),\n",
      "   midi.NoteOffEvent(tick=8, channel=0, data=[5, 0]),\n",
      "   midi.NoteOnEvent(tick=14, channel=0, data=[24, 86]),\n",
      "   midi.NoteOffEvent(tick=15, channel=0, data=[43, 0]),\n",
      "   midi.NoteOnEvent(tick=1, channel=0, data=[34, 235]),\n",
      "   midi.NoteOnEvent(tick=6, channel=0, data=[65, 217]),\n",
      "   midi.NoteOnEvent(tick=0, channel=0, data=[102, 20]),\n",
      "   midi.NoteOffEvent(tick=32, channel=0, data=[38, 0]),\n",
      "   midi.NoteOnEvent(tick=31, channel=0, data=[57, 94]),\n",
      "   midi.NoteOnEvent(tick=10, channel=0, data=[87, 172]),\n",
      "   midi.NoteOnEvent(tick=4, channel=0, data=[39, 178]),\n",
      "   midi.NoteOffEvent(tick=8, channel=0, data=[115, 0]),\n",
      "   midi.NoteOffEvent(tick=6, channel=0, data=[68, 0]),\n",
      "   midi.NoteOffEvent(tick=3, channel=0, data=[102, 0]),\n",
      "   midi.NoteOffEvent(tick=8, channel=0, data=[18, 0]),\n",
      "   midi.NoteOffEvent(tick=12, channel=0, data=[59, 0]),\n",
      "   midi.NoteOnEvent(tick=8, channel=0, data=[76, 248]),\n",
      "   midi.NoteOffEvent(tick=10, channel=0, data=[57, 0]),\n",
      "   midi.NoteOffEvent(tick=2, channel=0, data=[65, 0]),\n",
      "   midi.NoteOnEvent(tick=28, channel=0, data=[81, 215]),\n",
      "   midi.NoteOnEvent(tick=17, channel=0, data=[12, 108]),\n",
      "   midi.NoteOffEvent(tick=30, channel=0, data=[28, 0]),\n",
      "   midi.NoteOffEvent(tick=4, channel=0, data=[104, 0]),\n",
      "   midi.NoteOnEvent(tick=17, channel=0, data=[100, 11]),\n",
      "   midi.NoteOnEvent(tick=8, channel=0, data=[90, 88]),\n",
      "   midi.NoteOffEvent(tick=22, channel=0, data=[100, 0]),\n",
      "   midi.NoteOnEvent(tick=1, channel=0, data=[126, 61]),\n",
      "   midi.NoteOnEvent(tick=5, channel=0, data=[117, 117]),\n",
      "   midi.NoteOnEvent(tick=7, channel=0, data=[112, 193]),\n",
      "   midi.NoteOffEvent(tick=7, channel=0, data=[122, 0]),\n",
      "   midi.NoteOnEvent(tick=17, channel=0, data=[1, 54]),\n",
      "   midi.NoteOffEvent(tick=15, channel=0, data=[24, 0]),\n",
      "   midi.NoteOnEvent(tick=10, channel=0, data=[109, 213]),\n",
      "   midi.NoteOnEvent(tick=1, channel=0, data=[16, 50]),\n",
      "   midi.NoteOnEvent(tick=11, channel=0, data=[70, 56]),\n",
      "   midi.NoteOffEvent(tick=4, channel=0, data=[119, 0]),\n",
      "   midi.NoteOffEvent(tick=17, channel=0, data=[8, 0]),\n",
      "   midi.NoteOffEvent(tick=10, channel=0, data=[42, 0]),\n",
      "   midi.NoteOnEvent(tick=3, channel=0, data=[76, 91]),\n",
      "   midi.NoteOffEvent(tick=7, channel=0, data=[39, 0]),\n",
      "   midi.NoteOnEvent(tick=3, channel=0, data=[60, 156]),\n",
      "   midi.NoteOnEvent(tick=8, channel=0, data=[80, 115]),\n",
      "   midi.NoteOnEvent(tick=3, channel=0, data=[55, 238]),\n",
      "   midi.NoteOnEvent(tick=0, channel=0, data=[52, 103]),\n",
      "   midi.NoteOffEvent(tick=2, channel=0, data=[81, 0]),\n",
      "   midi.NoteOffEvent(tick=1, channel=0, data=[50, 0]),\n",
      "   midi.NoteOffEvent(tick=8, channel=0, data=[45, 0]),\n",
      "   midi.NoteOnEvent(tick=5, channel=0, data=[54, 19]),\n",
      "   midi.NoteOnEvent(tick=12, channel=0, data=[41, 38]),\n",
      "   midi.NoteOffEvent(tick=15, channel=0, data=[34, 0]),\n",
      "   midi.NoteOffEvent(tick=12, channel=0, data=[70, 0]),\n",
      "   midi.NoteOffEvent(tick=34, channel=0, data=[1, 0]),\n",
      "   midi.NoteOffEvent(tick=19, channel=0, data=[55, 0]),\n",
      "   midi.NoteOffEvent(tick=7, channel=0, data=[97, 0]),\n",
      "   midi.NoteOffEvent(tick=17, channel=0, data=[76, 0]),\n",
      "   midi.NoteOffEvent(tick=1, channel=0, data=[48, 0]),\n",
      "   midi.NoteOffEvent(tick=35, channel=0, data=[114, 0]),\n",
      "   midi.NoteOffEvent(tick=119, channel=0, data=[27, 0]),\n",
      "   midi.NoteOffEvent(tick=2, channel=0, data=[113, 0]),\n",
      "   midi.NoteOffEvent(tick=34, channel=0, data=[112, 0]),\n",
      "   midi.NoteOffEvent(tick=85, channel=0, data=[109, 0]),\n",
      "   midi.NoteOffEvent(tick=9, channel=0, data=[41, 0]),\n",
      "   midi.NoteOffEvent(tick=98, channel=0, data=[52, 0]),\n",
      "   midi.NoteOffEvent(tick=26, channel=0, data=[117, 0]),\n",
      "   midi.NoteOffEvent(tick=6, channel=0, data=[12, 0]),\n",
      "   midi.NoteOffEvent(tick=50, channel=0, data=[126, 0]),\n",
      "   midi.NoteOffEvent(tick=8, channel=0, data=[87, 0]),\n",
      "   midi.NoteOffEvent(tick=68, channel=0, data=[90, 0]),\n",
      "   midi.NoteOffEvent(tick=15, channel=0, data=[16, 0]),\n",
      "   midi.NoteOffEvent(tick=34, channel=0, data=[54, 0]),\n",
      "   midi.NoteOffEvent(tick=25, channel=0, data=[80, 0]),\n",
      "   midi.NoteOffEvent(tick=7, channel=0, data=[60, 0]),\n",
      "   midi.EndOfTrackEvent(tick=0, data=[])]),\n",
      " midi.Track(\\\n",
      "  [midi.SetTempoEvent(tick=0, data=[8, 227, 124]),\n",
      "   midi.ProgramChangeEvent(tick=0, channel=0, data=[77]),\n",
      "   midi.NoteOnEvent(tick=6, channel=0, data=[114, 220]),\n",
      "   midi.NoteOnEvent(tick=1, channel=0, data=[26, 161]),\n",
      "   midi.NoteOnEvent(tick=1, channel=0, data=[79, 90]),\n",
      "   midi.NoteOnEvent(tick=60, channel=0, data=[37, 34]),\n",
      "   midi.NoteOnEvent(tick=10, channel=0, data=[45, 86]),\n",
      "   midi.NoteOnEvent(tick=16, channel=0, data=[60, 228]),\n",
      "   midi.NoteOnEvent(tick=18, channel=0, data=[114, 161]),\n",
      "   midi.NoteOffEvent(tick=1, channel=0, data=[37, 0]),\n",
      "   midi.NoteOnEvent(tick=29, channel=0, data=[17, 180]),\n",
      "   midi.NoteOffEvent(tick=8, channel=0, data=[114, 0]),\n",
      "   midi.NoteOnEvent(tick=44, channel=0, data=[101, 23]),\n",
      "   midi.NoteOnEvent(tick=0, channel=0, data=[18, 1]),\n",
      "   midi.NoteOnEvent(tick=6, channel=0, data=[54, 15]),\n",
      "   midi.NoteOnEvent(tick=8, channel=0, data=[91, 184]),\n",
      "   midi.NoteOnEvent(tick=28, channel=0, data=[13, 102]),\n",
      "   midi.NoteOnEvent(tick=9, channel=0, data=[47, 228]),\n",
      "   midi.NoteOnEvent(tick=0, channel=0, data=[23, 12]),\n",
      "   midi.NoteOnEvent(tick=45, channel=0, data=[54, 75]),\n",
      "   midi.NoteOnEvent(tick=9, channel=0, data=[124, 75]),\n",
      "   midi.NoteOnEvent(tick=2, channel=0, data=[117, 178]),\n",
      "   midi.NoteOffEvent(tick=29, channel=0, data=[60, 0]),\n",
      "   midi.NoteOffEvent(tick=11, channel=0, data=[45, 0]),\n",
      "   midi.NoteOnEvent(tick=4, channel=0, data=[67, 192]),\n",
      "   midi.NoteOnEvent(tick=7, channel=0, data=[107, 144]),\n",
      "   midi.NoteOnEvent(tick=7, channel=0, data=[9, 222]),\n",
      "   midi.NoteOnEvent(tick=39, channel=0, data=[18, 125]),\n",
      "   midi.NoteOffEvent(tick=15, channel=0, data=[54, 0]),\n",
      "   midi.NoteOnEvent(tick=3, channel=0, data=[2, 129]),\n",
      "   midi.NoteOnEvent(tick=38, channel=0, data=[121, 49]),\n",
      "   midi.NoteOnEvent(tick=13, channel=0, data=[48, 88]),\n",
      "   midi.NoteOnEvent(tick=0, channel=0, data=[23, 126]),\n",
      "   midi.NoteOnEvent(tick=3, channel=0, data=[8, 89]),\n",
      "   midi.NoteOnEvent(tick=2, channel=0, data=[44, 96]),\n",
      "   midi.NoteOffEvent(tick=3, channel=0, data=[44, 0]),\n",
      "   midi.NoteOnEvent(tick=14, channel=0, data=[92, 237]),\n",
      "   midi.NoteOffEvent(tick=3, channel=0, data=[79, 0]),\n",
      "   midi.NoteOnEvent(tick=8, channel=0, data=[56, 210]),\n",
      "   midi.NoteOnEvent(tick=14, channel=0, data=[106, 32]),\n",
      "   midi.NoteOnEvent(tick=2, channel=0, data=[84, 10]),\n",
      "   midi.NoteOnEvent(tick=57, channel=0, data=[89, 43]),\n",
      "   midi.NoteOnEvent(tick=1, channel=0, data=[99, 136]),\n",
      "   midi.NoteOffEvent(tick=42, channel=0, data=[67, 0]),\n",
      "   midi.NoteOnEvent(tick=10, channel=0, data=[126, 132]),\n",
      "   midi.NoteOffEvent(tick=7, channel=0, data=[107, 0]),\n",
      "   midi.NoteOffEvent(tick=7, channel=0, data=[23, 0]),\n",
      "   midi.NoteOnEvent(tick=11, channel=0, data=[54, 75]),\n",
      "   midi.NoteOffEvent(tick=18, channel=0, data=[13, 0]),\n",
      "   midi.NoteOffEvent(tick=0, channel=0, data=[92, 0]),\n",
      "   midi.NoteOnEvent(tick=6, channel=0, data=[127, 101]),\n",
      "   midi.NoteOnEvent(tick=18, channel=0, data=[15, 132]),\n",
      "   midi.NoteOnEvent(tick=1, channel=0, data=[19, 101]),\n",
      "   midi.NoteOnEvent(tick=0, channel=0, data=[124, 171]),\n",
      "   midi.NoteOffEvent(tick=16, channel=0, data=[99, 0]),\n",
      "   midi.NoteOnEvent(tick=5, channel=0, data=[16, 5]),\n",
      "   midi.NoteOnEvent(tick=2, channel=0, data=[42, 241]),\n",
      "   midi.NoteOffEvent(tick=5, channel=0, data=[117, 0]),\n",
      "   midi.NoteOnEvent(tick=4, channel=0, data=[24, 203]),\n",
      "   midi.NoteOffEvent(tick=8, channel=0, data=[91, 0]),\n",
      "   midi.NoteOnEvent(tick=19, channel=0, data=[50, 136]),\n",
      "   midi.NoteOffEvent(tick=13, channel=0, data=[47, 0]),\n",
      "   midi.NoteOffEvent(tick=35, channel=0, data=[26, 0]),\n",
      "   midi.NoteOffEvent(tick=2, channel=0, data=[17, 0]),\n",
      "   midi.NoteOnEvent(tick=11, channel=0, data=[32, 11]),\n",
      "   midi.NoteOffEvent(tick=21, channel=0, data=[18, 0]),\n",
      "   midi.NoteOnEvent(tick=7, channel=0, data=[14, 150]),\n",
      "   midi.NoteOffEvent(tick=8, channel=0, data=[56, 0]),\n",
      "   midi.NoteOnEvent(tick=4, channel=0, data=[6, 75]),\n",
      "   midi.NoteOnEvent(tick=23, channel=0, data=[35, 44]),\n",
      "   midi.NoteOnEvent(tick=10, channel=0, data=[47, 86]),\n",
      "   midi.NoteOffEvent(tick=3, channel=0, data=[35, 0]),\n",
      "   midi.NoteOffEvent(tick=14, channel=0, data=[48, 0]),\n",
      "   midi.NoteOnEvent(tick=0, channel=0, data=[26, 168]),\n",
      "   midi.NoteOffEvent(tick=5, channel=0, data=[24, 0]),\n",
      "   midi.NoteOffEvent(tick=12, channel=0, data=[84, 0]),\n",
      "   midi.NoteOffEvent(tick=2, channel=0, data=[14, 0]),\n",
      "   midi.NoteOnEvent(tick=39, channel=0, data=[45, 253]),\n",
      "   midi.NoteOffEvent(tick=2, channel=0, data=[126, 0]),\n",
      "   midi.NoteOffEvent(tick=2, channel=0, data=[32, 0]),\n",
      "   midi.NoteOffEvent(tick=2, channel=0, data=[8, 0]),\n",
      "   midi.NoteOnEvent(tick=4, channel=0, data=[70, 200]),\n",
      "   midi.NoteOffEvent(tick=27, channel=0, data=[106, 0]),\n",
      "   midi.NoteOffEvent(tick=19, channel=0, data=[127, 0]),\n",
      "   midi.NoteOffEvent(tick=7, channel=0, data=[15, 0]),\n",
      "   midi.NoteOffEvent(tick=13, channel=0, data=[101, 0]),\n",
      "   midi.NoteOffEvent(tick=4, channel=0, data=[9, 0]),\n",
      "   midi.NoteOffEvent(tick=8, channel=0, data=[124, 0]),\n",
      "   midi.NoteOffEvent(tick=7, channel=0, data=[6, 0]),\n",
      "   midi.NoteOffEvent(tick=107, channel=0, data=[54, 0]),\n",
      "   midi.NoteOffEvent(tick=37, channel=0, data=[2, 0]),\n",
      "   midi.NoteOffEvent(tick=74, channel=0, data=[26, 0]),\n",
      "   midi.NoteOffEvent(tick=24, channel=0, data=[45, 0]),\n",
      "   midi.NoteOffEvent(tick=8, channel=0, data=[42, 0]),\n",
      "   midi.NoteOffEvent(tick=34, channel=0, data=[121, 0]),\n",
      "   midi.NoteOffEvent(tick=67, channel=0, data=[19, 0]),\n",
      "   midi.NoteOffEvent(tick=43, channel=0, data=[89, 0]),\n",
      "   midi.NoteOffEvent(tick=108, channel=0, data=[16, 0]),\n",
      "   midi.NoteOffEvent(tick=4, channel=0, data=[50, 0]),\n",
      "   midi.NoteOffEvent(tick=217, channel=0, data=[70, 0]),\n",
      "   midi.NoteOffEvent(tick=6, channel=0, data=[47, 0]),\n",
      "   midi.EndOfTrackEvent(tick=0, data=[])]),\n",
      " midi.Track(\\\n",
      "  [midi.SetTempoEvent(tick=0, data=[8, 227, 124]),\n",
      "   midi.ProgramChangeEvent(tick=0, channel=0, data=[78]),\n",
      "   midi.NoteOnEvent(tick=4, channel=0, data=[32, 78]),\n",
      "   midi.NoteOnEvent(tick=2, channel=0, data=[69, 29]),\n",
      "   midi.NoteOnEvent(tick=7, channel=0, data=[76, 51]),\n",
      "   midi.NoteOnEvent(tick=15, channel=0, data=[4, 31]),\n",
      "   midi.NoteOnEvent(tick=7, channel=0, data=[15, 82]),\n",
      "   midi.NoteOnEvent(tick=28, channel=0, data=[99, 4]),\n",
      "   midi.NoteOnEvent(tick=16, channel=0, data=[99, 255]),\n",
      "   midi.NoteOnEvent(tick=40, channel=0, data=[91, 254]),\n",
      "   midi.NoteOnEvent(tick=4, channel=0, data=[46, 168]),\n",
      "   midi.NoteOnEvent(tick=1, channel=0, data=[107, 131]),\n",
      "   midi.NoteOnEvent(tick=0, channel=0, data=[3, 60]),\n",
      "   midi.NoteOnEvent(tick=13, channel=0, data=[47, 25]),\n",
      "   midi.NoteOnEvent(tick=18, channel=0, data=[29, 167]),\n",
      "   midi.NoteOffEvent(tick=13, channel=0, data=[47, 0]),\n",
      "   midi.NoteOnEvent(tick=11, channel=0, data=[76, 0]),\n",
      "   midi.NoteOnEvent(tick=13, channel=0, data=[126, 67]),\n",
      "   midi.NoteOnEvent(tick=0, channel=0, data=[105, 208]),\n",
      "   midi.NoteOnEvent(tick=11, channel=0, data=[93, 214]),\n",
      "   midi.NoteOffEvent(tick=1, channel=0, data=[4, 0]),\n",
      "   midi.NoteOnEvent(tick=4, channel=0, data=[15, 225]),\n",
      "   midi.NoteOffEvent(tick=31, channel=0, data=[105, 0]),\n",
      "   midi.NoteOffEvent(tick=4, channel=0, data=[3, 0]),\n",
      "   midi.NoteOffEvent(tick=7, channel=0, data=[32, 0]),\n",
      "   midi.NoteOnEvent(tick=63, channel=0, data=[17, 54]),\n",
      "   midi.NoteOnEvent(tick=23, channel=0, data=[14, 170]),\n",
      "   midi.NoteOnEvent(tick=9, channel=0, data=[103, 140]),\n",
      "   midi.NoteOnEvent(tick=8, channel=0, data=[74, 104]),\n",
      "   midi.NoteOnEvent(tick=19, channel=0, data=[58, 109]),\n",
      "   midi.NoteOnEvent(tick=24, channel=0, data=[80, 32]),\n",
      "   midi.NoteOnEvent(tick=0, channel=0, data=[89, 179]),\n",
      "   midi.NoteOnEvent(tick=10, channel=0, data=[61, 204]),\n",
      "   midi.NoteOnEvent(tick=35, channel=0, data=[43, 146]),\n",
      "   midi.NoteOnEvent(tick=30, channel=0, data=[26, 24]),\n",
      "   midi.NoteOnEvent(tick=5, channel=0, data=[19, 186]),\n",
      "   midi.NoteOnEvent(tick=3, channel=0, data=[95, 20]),\n",
      "   midi.NoteOnEvent(tick=9, channel=0, data=[46, 205]),\n",
      "   midi.NoteOnEvent(tick=26, channel=0, data=[84, 157]),\n",
      "   midi.NoteOnEvent(tick=1, channel=0, data=[77, 47]),\n",
      "   midi.NoteOnEvent(tick=1, channel=0, data=[53, 252]),\n",
      "   midi.NoteOffEvent(tick=3, channel=0, data=[43, 0]),\n",
      "   midi.NoteOnEvent(tick=2, channel=0, data=[75, 247]),\n",
      "   midi.NoteOnEvent(tick=17, channel=0, data=[79, 111]),\n",
      "   midi.NoteOnEvent(tick=4, channel=0, data=[30, 196]),\n",
      "   midi.NoteOnEvent(tick=5, channel=0, data=[70, 139]),\n",
      "   midi.NoteOnEvent(tick=10, channel=0, data=[24, 105]),\n",
      "   midi.NoteOnEvent(tick=0, channel=0, data=[37, 118]),\n",
      "   midi.NoteOnEvent(tick=0, channel=0, data=[25, 163]),\n",
      "   midi.NoteOnEvent(tick=15, channel=0, data=[7, 57]),\n",
      "   midi.NoteOffEvent(tick=5, channel=0, data=[76, 0]),\n",
      "   midi.NoteOnEvent(tick=2, channel=0, data=[62, 44]),\n",
      "   midi.NoteOffEvent(tick=7, channel=0, data=[77, 0]),\n",
      "   midi.NoteOnEvent(tick=24, channel=0, data=[103, 92]),\n",
      "   midi.NoteOnEvent(tick=11, channel=0, data=[56, 48]),\n",
      "   midi.NoteOnEvent(tick=5, channel=0, data=[18, 248]),\n",
      "   midi.NoteOnEvent(tick=12, channel=0, data=[55, 151]),\n",
      "   midi.NoteOnEvent(tick=5, channel=0, data=[76, 99]),\n",
      "   midi.NoteOnEvent(tick=8, channel=0, data=[75, 87]),\n",
      "   midi.NoteOffEvent(tick=16, channel=0, data=[15, 0]),\n",
      "   midi.NoteOffEvent(tick=6, channel=0, data=[95, 0]),\n",
      "   midi.NoteOnEvent(tick=7, channel=0, data=[18, 99]),\n",
      "   midi.NoteOnEvent(tick=33, channel=0, data=[69, 137]),\n",
      "   midi.NoteOnEvent(tick=0, channel=0, data=[26, 220]),\n",
      "   midi.NoteOnEvent(tick=6, channel=0, data=[84, 224]),\n",
      "   midi.NoteOnEvent(tick=7, channel=0, data=[100, 145]),\n",
      "   midi.NoteOnEvent(tick=13, channel=0, data=[0, 231]),\n",
      "   midi.NoteOffEvent(tick=6, channel=0, data=[17, 0]),\n",
      "   midi.NoteOnEvent(tick=17, channel=0, data=[100, 177]),\n",
      "   midi.NoteOnEvent(tick=0, channel=0, data=[122, 202]),\n",
      "   midi.NoteOnEvent(tick=0, channel=0, data=[73, 135]),\n",
      "   midi.NoteOffEvent(tick=3, channel=0, data=[14, 0]),\n",
      "   midi.NoteOffEvent(tick=8, channel=0, data=[100, 0]),\n",
      "   midi.NoteOffEvent(tick=33, channel=0, data=[29, 0]),\n",
      "   midi.NoteOnEvent(tick=1, channel=0, data=[12, 16]),\n",
      "   midi.NoteOnEvent(tick=7, channel=0, data=[71, 61]),\n",
      "   midi.NoteOffEvent(tick=3, channel=0, data=[30, 0]),\n",
      "   midi.NoteOnEvent(tick=21, channel=0, data=[14, 183]),\n",
      "   midi.NoteOffEvent(tick=1, channel=0, data=[80, 0]),\n",
      "   midi.NoteOnEvent(tick=11, channel=0, data=[104, 128]),\n",
      "   midi.NoteOnEvent(tick=0, channel=0, data=[70, 201]),\n",
      "   midi.NoteOnEvent(tick=27, channel=0, data=[102, 42]),\n",
      "   midi.NoteOnEvent(tick=6, channel=0, data=[107, 81]),\n",
      "   midi.NoteOnEvent(tick=19, channel=0, data=[45, 88]),\n",
      "   midi.NoteOffEvent(tick=8, channel=0, data=[62, 0]),\n",
      "   midi.NoteOffEvent(tick=1, channel=0, data=[103, 0]),\n",
      "   midi.NoteOnEvent(tick=2, channel=0, data=[120, 102]),\n",
      "   midi.NoteOffEvent(tick=6, channel=0, data=[107, 0]),\n",
      "   midi.NoteOffEvent(tick=5, channel=0, data=[79, 0]),\n",
      "   midi.NoteOffEvent(tick=1, channel=0, data=[37, 0]),\n",
      "   midi.NoteOnEvent(tick=6, channel=0, data=[115, 131]),\n",
      "   midi.NoteOffEvent(tick=2, channel=0, data=[55, 0]),\n",
      "   midi.NoteOffEvent(tick=5, channel=0, data=[26, 0]),\n",
      "   midi.NoteOnEvent(tick=4, channel=0, data=[112, 242]),\n",
      "   midi.NoteOffEvent(tick=16, channel=0, data=[25, 0]),\n",
      "   midi.NoteOnEvent(tick=0, channel=0, data=[6, 88]),\n",
      "   midi.NoteOnEvent(tick=11, channel=0, data=[101, 175]),\n",
      "   midi.NoteOnEvent(tick=6, channel=0, data=[18, 108]),\n",
      "   midi.NoteOffEvent(tick=10, channel=0, data=[71, 0]),\n",
      "   midi.NoteOffEvent(tick=51, channel=0, data=[99, 0]),\n",
      "   midi.NoteOffEvent(tick=17, channel=0, data=[58, 0]),\n",
      "   midi.NoteOffEvent(tick=16, channel=0, data=[126, 0]),\n",
      "   midi.NoteOffEvent(tick=6, channel=0, data=[91, 0]),\n",
      "   midi.NoteOffEvent(tick=2, channel=0, data=[73, 0]),\n",
      "   midi.NoteOffEvent(tick=32, channel=0, data=[93, 0]),\n",
      "   midi.NoteOffEvent(tick=9, channel=0, data=[74, 0]),\n",
      "   midi.NoteOffEvent(tick=45, channel=0, data=[61, 0]),\n",
      "   midi.NoteOffEvent(tick=11, channel=0, data=[19, 0]),\n",
      "   midi.NoteOffEvent(tick=3, channel=0, data=[7, 0]),\n",
      "   midi.NoteOffEvent(tick=14, channel=0, data=[122, 0]),\n",
      "   midi.NoteOffEvent(tick=25, channel=0, data=[45, 0]),\n",
      "   midi.NoteOffEvent(tick=13, channel=0, data=[56, 0]),\n",
      "   midi.NoteOffEvent(tick=6, channel=0, data=[89, 0]),\n",
      "   midi.NoteOffEvent(tick=43, channel=0, data=[14, 0]),\n",
      "   midi.NoteOffEvent(tick=33, channel=0, data=[70, 0]),\n",
      "   midi.NoteOffEvent(tick=20, channel=0, data=[46, 0]),\n",
      "   midi.NoteOffEvent(tick=72, channel=0, data=[104, 0]),\n",
      "   midi.NoteOffEvent(tick=86, channel=0, data=[53, 0]),\n",
      "   midi.NoteOffEvent(tick=1, channel=0, data=[112, 0]),\n",
      "   midi.NoteOffEvent(tick=15, channel=0, data=[76, 0]),\n",
      "   midi.NoteOffEvent(tick=4, channel=0, data=[24, 0]),\n",
      "   midi.NoteOffEvent(tick=46, channel=0, data=[75, 0]),\n",
      "   midi.NoteOffEvent(tick=32, channel=0, data=[84, 0]),\n",
      "   midi.NoteOffEvent(tick=17, channel=0, data=[101, 0]),\n",
      "   midi.NoteOffEvent(tick=0, channel=0, data=[115, 0]),\n",
      "   midi.NoteOffEvent(tick=8, channel=0, data=[120, 0]),\n",
      "   midi.NoteOffEvent(tick=4, channel=0, data=[0, 0]),\n",
      "   midi.NoteOffEvent(tick=6, channel=0, data=[69, 0]),\n",
      "   midi.NoteOffEvent(tick=182, channel=0, data=[12, 0]),\n",
      "   midi.NoteOffEvent(tick=3, channel=0, data=[102, 0]),\n",
      "   midi.NoteOffEvent(tick=59, channel=0, data=[18, 0]),\n",
      "   midi.NoteOffEvent(tick=57, channel=0, data=[6, 0]),\n",
      "   midi.EndOfTrackEvent(tick=0, data=[])]),\n",
      " midi.Track(\\\n",
      "  [midi.SetTempoEvent(tick=0, data=[8, 227, 124]),\n",
      "   midi.ProgramChangeEvent(tick=0, channel=0, data=[79]),\n",
      "   midi.NoteOnEvent(tick=13, channel=0, data=[56, 241]),\n",
      "   midi.NoteOnEvent(tick=1, channel=0, data=[9, 53]),\n",
      "   midi.NoteOnEvent(tick=21, channel=0, data=[67, 78]),\n",
      "   midi.NoteOffEvent(tick=38, channel=0, data=[9, 0]),\n",
      "   midi.NoteOnEvent(tick=6, channel=0, data=[64, 83]),\n",
      "   midi.NoteOnEvent(tick=15, channel=0, data=[68, 3]),\n",
      "   midi.NoteOnEvent(tick=10, channel=0, data=[100, 121]),\n",
      "   midi.NoteOnEvent(tick=8, channel=0, data=[120, 60]),\n",
      "   midi.NoteOnEvent(tick=7, channel=0, data=[125, 28]),\n",
      "   midi.NoteOnEvent(tick=3, channel=0, data=[109, 15]),\n",
      "   midi.NoteOnEvent(tick=31, channel=0, data=[114, 128]),\n",
      "   midi.NoteOnEvent(tick=2, channel=0, data=[13, 87]),\n",
      "   midi.NoteOffEvent(tick=20, channel=0, data=[64, 0]),\n",
      "   midi.NoteOnEvent(tick=6, channel=0, data=[32, 13]),\n",
      "   midi.NoteOnEvent(tick=5, channel=0, data=[73, 167]),\n",
      "   midi.NoteOnEvent(tick=36, channel=0, data=[92, 161]),\n",
      "   midi.NoteOnEvent(tick=6, channel=0, data=[27, 210]),\n",
      "   midi.NoteOnEvent(tick=17, channel=0, data=[17, 126]),\n",
      "   midi.NoteOnEvent(tick=0, channel=0, data=[23, 57]),\n",
      "   midi.NoteOnEvent(tick=11, channel=0, data=[33, 26]),\n",
      "   midi.NoteOnEvent(tick=1, channel=0, data=[29, 163]),\n",
      "   midi.NoteOnEvent(tick=19, channel=0, data=[105, 16]),\n",
      "   midi.NoteOnEvent(tick=17, channel=0, data=[32, 40]),\n",
      "   midi.NoteOnEvent(tick=6, channel=0, data=[61, 175]),\n",
      "   midi.NoteOnEvent(tick=13, channel=0, data=[66, 196]),\n",
      "   midi.NoteOnEvent(tick=1, channel=0, data=[50, 231]),\n",
      "   midi.NoteOnEvent(tick=17, channel=0, data=[22, 188]),\n",
      "   midi.NoteOnEvent(tick=11, channel=0, data=[27, 164]),\n",
      "   midi.NoteOnEvent(tick=8, channel=0, data=[21, 152]),\n",
      "   midi.NoteOnEvent(tick=0, channel=0, data=[104, 87]),\n",
      "   midi.NoteOnEvent(tick=22, channel=0, data=[24, 3]),\n",
      "   midi.NoteOnEvent(tick=12, channel=0, data=[95, 89]),\n",
      "   midi.NoteOnEvent(tick=27, channel=0, data=[38, 213]),\n",
      "   midi.NoteOnEvent(tick=6, channel=0, data=[5, 126]),\n",
      "   midi.NoteOnEvent(tick=5, channel=0, data=[31, 31]),\n",
      "   midi.NoteOnEvent(tick=20, channel=0, data=[104, 40]),\n",
      "   midi.NoteOffEvent(tick=11, channel=0, data=[33, 0]),\n",
      "   midi.NoteOffEvent(tick=18, channel=0, data=[100, 0]),\n",
      "   midi.NoteOnEvent(tick=1, channel=0, data=[31, 40]),\n",
      "   midi.NoteOnEvent(tick=1, channel=0, data=[100, 38]),\n",
      "   midi.NoteOnEvent(tick=4, channel=0, data=[122, 8]),\n",
      "   midi.NoteOffEvent(tick=15, channel=0, data=[13, 0]),\n",
      "   midi.NoteOnEvent(tick=2, channel=0, data=[47, 128]),\n",
      "   midi.NoteOnEvent(tick=7, channel=0, data=[42, 10]),\n",
      "   midi.NoteOffEvent(tick=9, channel=0, data=[68, 0]),\n",
      "   midi.NoteOffEvent(tick=15, channel=0, data=[109, 0]),\n",
      "   midi.NoteOnEvent(tick=7, channel=0, data=[115, 171]),\n",
      "   midi.NoteOnEvent(tick=7, channel=0, data=[31, 5]),\n",
      "   midi.NoteOffEvent(tick=25, channel=0, data=[24, 0]),\n",
      "   midi.NoteOnEvent(tick=5, channel=0, data=[28, 250]),\n",
      "   midi.NoteOnEvent(tick=3, channel=0, data=[17, 153]),\n",
      "   midi.NoteOnEvent(tick=21, channel=0, data=[112, 80]),\n",
      "   midi.NoteOffEvent(tick=3, channel=0, data=[120, 0]),\n",
      "   midi.NoteOffEvent(tick=5, channel=0, data=[67, 0]),\n",
      "   midi.NoteOffEvent(tick=3, channel=0, data=[122, 0]),\n",
      "   midi.NoteOnEvent(tick=2, channel=0, data=[63, 158]),\n",
      "   midi.NoteOffEvent(tick=15, channel=0, data=[31, 0]),\n",
      "   midi.NoteOnEvent(tick=40, channel=0, data=[39, 80]),\n",
      "   midi.NoteOffEvent(tick=9, channel=0, data=[95, 0]),\n",
      "   midi.NoteOffEvent(tick=3, channel=0, data=[22, 0]),\n",
      "   midi.NoteOffEvent(tick=5, channel=0, data=[115, 0]),\n",
      "   midi.NoteOnEvent(tick=8, channel=0, data=[88, 168]),\n",
      "   midi.NoteOnEvent(tick=5, channel=0, data=[43, 224]),\n",
      "   midi.NoteOffEvent(tick=5, channel=0, data=[29, 0]),\n",
      "   midi.NoteOnEvent(tick=9, channel=0, data=[86, 61]),\n",
      "   midi.NoteOffEvent(tick=17, channel=0, data=[38, 0]),\n",
      "   midi.NoteOffEvent(tick=11, channel=0, data=[88, 0]),\n",
      "   midi.NoteOffEvent(tick=6, channel=0, data=[39, 0]),\n",
      "   midi.NoteOnEvent(tick=1, channel=0, data=[122, 35]),\n",
      "   midi.NoteOnEvent(tick=0, channel=0, data=[77, 139]),\n",
      "   midi.NoteOffEvent(tick=5, channel=0, data=[47, 0]),\n",
      "   midi.NoteOnEvent(tick=4, channel=0, data=[91, 147]),\n",
      "   midi.NoteOnEvent(tick=4, channel=0, data=[8, 12]),\n",
      "   midi.NoteOffEvent(tick=3, channel=0, data=[42, 0]),\n",
      "   midi.NoteOnEvent(tick=4, channel=0, data=[93, 87]),\n",
      "   midi.NoteOnEvent(tick=2, channel=0, data=[18, 59]),\n",
      "   midi.NoteOnEvent(tick=40, channel=0, data=[108, 14]),\n",
      "   midi.NoteOnEvent(tick=18, channel=0, data=[54, 251]),\n",
      "   midi.NoteOnEvent(tick=0, channel=0, data=[4, 148]),\n",
      "   midi.NoteOffEvent(tick=5, channel=0, data=[18, 0]),\n",
      "   midi.NoteOnEvent(tick=1, channel=0, data=[19, 40]),\n",
      "   midi.NoteOnEvent(tick=17, channel=0, data=[100, 217]),\n",
      "   midi.NoteOffEvent(tick=9, channel=0, data=[86, 0]),\n",
      "   midi.NoteOffEvent(tick=1, channel=0, data=[21, 0]),\n",
      "   midi.NoteOffEvent(tick=0, channel=0, data=[50, 0]),\n",
      "   midi.NoteOnEvent(tick=6, channel=0, data=[13, 3]),\n",
      "   midi.NoteOffEvent(tick=13, channel=0, data=[28, 0]),\n",
      "   midi.NoteOnEvent(tick=9, channel=0, data=[39, 28]),\n",
      "   midi.NoteOnEvent(tick=10, channel=0, data=[91, 212]),\n",
      "   midi.NoteOnEvent(tick=14, channel=0, data=[127, 166]),\n",
      "   midi.NoteOffEvent(tick=3, channel=0, data=[32, 0]),\n",
      "   midi.NoteOnEvent(tick=18, channel=0, data=[121, 61]),\n",
      "   midi.NoteOnEvent(tick=6, channel=0, data=[94, 115]),\n",
      "   midi.NoteOffEvent(tick=23, channel=0, data=[105, 0]),\n",
      "   midi.NoteOffEvent(tick=7, channel=0, data=[112, 0]),\n",
      "   midi.NoteOnEvent(tick=14, channel=0, data=[68, 80]),\n",
      "   midi.NoteOffEvent(tick=4, channel=0, data=[56, 0]),\n",
      "   midi.NoteOffEvent(tick=6, channel=0, data=[92, 0]),\n",
      "   midi.NoteOffEvent(tick=19, channel=0, data=[68, 0]),\n",
      "   midi.NoteOffEvent(tick=6, channel=0, data=[104, 0]),\n",
      "   midi.NoteOffEvent(tick=3, channel=0, data=[5, 0]),\n",
      "   midi.NoteOffEvent(tick=4, channel=0, data=[114, 0]),\n",
      "   midi.NoteOffEvent(tick=18, channel=0, data=[61, 0]),\n",
      "   midi.NoteOffEvent(tick=35, channel=0, data=[73, 0]),\n",
      "   midi.NoteOffEvent(tick=18, channel=0, data=[94, 0]),\n",
      "   midi.NoteOffEvent(tick=29, channel=0, data=[125, 0]),\n",
      "   midi.NoteOffEvent(tick=36, channel=0, data=[17, 0]),\n",
      "   midi.NoteOffEvent(tick=19, channel=0, data=[122, 0]),\n",
      "   midi.NoteOffEvent(tick=11, channel=0, data=[66, 0]),\n",
      "   midi.NoteOffEvent(tick=4, channel=0, data=[23, 0]),\n",
      "   midi.NoteOffEvent(tick=33, channel=0, data=[19, 0]),\n",
      "   midi.NoteOffEvent(tick=9, channel=0, data=[54, 0]),\n",
      "   midi.NoteOffEvent(tick=31, channel=0, data=[27, 0]),\n",
      "   midi.NoteOffEvent(tick=33, channel=0, data=[121, 0]),\n",
      "   midi.NoteOffEvent(tick=7, channel=0, data=[13, 0]),\n",
      "   midi.NoteOffEvent(tick=5, channel=0, data=[8, 0]),\n",
      "   midi.NoteOffEvent(tick=51, channel=0, data=[4, 0]),\n",
      "   midi.NoteOffEvent(tick=126, channel=0, data=[127, 0]),\n",
      "   midi.NoteOffEvent(tick=11, channel=0, data=[43, 0]),\n",
      "   midi.NoteOffEvent(tick=33, channel=0, data=[108, 0]),\n",
      "   midi.NoteOffEvent(tick=4, channel=0, data=[93, 0]),\n",
      "   midi.NoteOffEvent(tick=15, channel=0, data=[100, 0]),\n",
      "   midi.NoteOffEvent(tick=44, channel=0, data=[63, 0]),\n",
      "   midi.NoteOffEvent(tick=68, channel=0, data=[77, 0]),\n",
      "   midi.NoteOffEvent(tick=69, channel=0, data=[91, 0]),\n",
      "   midi.NoteOffEvent(tick=59, channel=0, data=[39, 0]),\n",
      "   midi.EndOfTrackEvent(tick=0, data=[])]),\n",
      " midi.Track(\\\n",
      "  [midi.SetTempoEvent(tick=0, data=[8, 227, 124]),\n",
      "   midi.ProgramChangeEvent(tick=0, channel=0, data=[80]),\n",
      "   midi.NoteOnEvent(tick=7, channel=0, data=[114, 42]),\n",
      "   midi.NoteOnEvent(tick=92, channel=0, data=[71, 184]),\n",
      "   midi.NoteOnEvent(tick=11, channel=0, data=[125, 124]),\n",
      "   midi.NoteOnEvent(tick=2, channel=0, data=[12, 128]),\n",
      "   midi.NoteOnEvent(tick=11, channel=0, data=[57, 224]),\n",
      "   midi.NoteOnEvent(tick=17, channel=0, data=[70, 14]),\n",
      "   midi.NoteOnEvent(tick=13, channel=0, data=[37, 203]),\n",
      "   midi.NoteOnEvent(tick=6, channel=0, data=[121, 154]),\n",
      "   midi.NoteOnEvent(tick=4, channel=0, data=[64, 244]),\n",
      "   midi.NoteOnEvent(tick=16, channel=0, data=[44, 56]),\n",
      "   midi.NoteOnEvent(tick=2, channel=0, data=[43, 201]),\n",
      "   midi.NoteOnEvent(tick=0, channel=0, data=[13, 173]),\n",
      "   midi.NoteOnEvent(tick=16, channel=0, data=[117, 76]),\n",
      "   midi.NoteOnEvent(tick=48, channel=0, data=[48, 131]),\n",
      "   midi.NoteOffEvent(tick=6, channel=0, data=[57, 0]),\n",
      "   midi.NoteOnEvent(tick=3, channel=0, data=[69, 150]),\n",
      "   midi.NoteOnEvent(tick=5, channel=0, data=[120, 213]),\n",
      "   midi.NoteOnEvent(tick=2, channel=0, data=[123, 241]),\n",
      "   midi.NoteOnEvent(tick=4, channel=0, data=[69, 224]),\n",
      "   midi.NoteOnEvent(tick=4, channel=0, data=[67, 242]),\n",
      "   midi.NoteOnEvent(tick=24, channel=0, data=[117, 12]),\n",
      "   midi.NoteOnEvent(tick=56, channel=0, data=[67, 217]),\n",
      "   midi.NoteOnEvent(tick=8, channel=0, data=[36, 220]),\n",
      "   midi.NoteOnEvent(tick=0, channel=0, data=[110, 150]),\n",
      "   midi.NoteOnEvent(tick=14, channel=0, data=[15, 145]),\n",
      "   midi.NoteOnEvent(tick=3, channel=0, data=[46, 231]),\n",
      "   midi.NoteOnEvent(tick=0, channel=0, data=[28, 66]),\n",
      "   midi.NoteOffEvent(tick=6, channel=0, data=[70, 0]),\n",
      "   midi.NoteOffEvent(tick=2, channel=0, data=[37, 0]),\n",
      "   midi.NoteOnEvent(tick=8, channel=0, data=[29, 103]),\n",
      "   midi.NoteOnEvent(tick=0, channel=0, data=[106, 205]),\n",
      "   midi.NoteOnEvent(tick=12, channel=0, data=[6, 252]),\n",
      "   midi.NoteOnEvent(tick=2, channel=0, data=[64, 89]),\n",
      "   midi.NoteOffEvent(tick=14, channel=0, data=[64, 0]),\n",
      "   midi.NoteOffEvent(tick=3, channel=0, data=[44, 0]),\n",
      "   midi.NoteOnEvent(tick=4, channel=0, data=[1, 39]),\n",
      "   midi.NoteOnEvent(tick=8, channel=0, data=[28, 16]),\n",
      "   midi.NoteOffEvent(tick=3, channel=0, data=[46, 0]),\n",
      "   midi.NoteOnEvent(tick=5, channel=0, data=[113, 95]),\n",
      "   midi.NoteOnEvent(tick=13, channel=0, data=[90, 180]),\n",
      "   midi.NoteOnEvent(tick=3, channel=0, data=[115, 95]),\n",
      "   midi.NoteOffEvent(tick=21, channel=0, data=[67, 0]),\n",
      "   midi.NoteOnEvent(tick=5, channel=0, data=[69, 248]),\n",
      "   midi.NoteOnEvent(tick=5, channel=0, data=[99, 189]),\n",
      "   midi.NoteOffEvent(tick=16, channel=0, data=[36, 0]),\n",
      "   midi.NoteOnEvent(tick=6, channel=0, data=[65, 46]),\n",
      "   midi.NoteOnEvent(tick=42, channel=0, data=[99, 12]),\n",
      "   midi.NoteOnEvent(tick=9, channel=0, data=[24, 64]),\n",
      "   midi.NoteOnEvent(tick=2, channel=0, data=[55, 210]),\n",
      "   midi.NoteOnEvent(tick=8, channel=0, data=[77, 255]),\n",
      "   midi.NoteOffEvent(tick=8, channel=0, data=[12, 0]),\n",
      "   midi.NoteOnEvent(tick=16, channel=0, data=[73, 62]),\n",
      "   midi.NoteOnEvent(tick=0, channel=0, data=[63, 47]),\n",
      "   midi.NoteOnEvent(tick=2, channel=0, data=[97, 180]),\n",
      "   midi.NoteOffEvent(tick=9, channel=0, data=[29, 0]),\n",
      "   midi.NoteOffEvent(tick=3, channel=0, data=[121, 0]),\n",
      "   midi.NoteOnEvent(tick=16, channel=0, data=[96, 78]),\n",
      "   midi.NoteOnEvent(tick=5, channel=0, data=[83, 243]),\n",
      "   midi.NoteOnEvent(tick=4, channel=0, data=[23, 185]),\n",
      "   midi.NoteOffEvent(tick=20, channel=0, data=[71, 0]),\n",
      "   midi.NoteOnEvent(tick=23, channel=0, data=[116, 77]),\n",
      "   midi.NoteOnEvent(tick=59, channel=0, data=[108, 168]),\n",
      "   midi.NoteOnEvent(tick=3, channel=0, data=[107, 139]),\n",
      "   midi.NoteOnEvent(tick=5, channel=0, data=[70, 243]),\n",
      "   midi.NoteOffEvent(tick=4, channel=0, data=[24, 0]),\n",
      "   midi.NoteOnEvent(tick=7, channel=0, data=[127, 144]),\n",
      "   midi.NoteOnEvent(tick=6, channel=0, data=[90, 244]),\n",
      "   midi.NoteOffEvent(tick=8, channel=0, data=[117, 0]),\n",
      "   midi.NoteOnEvent(tick=17, channel=0, data=[83, 30]),\n",
      "   midi.NoteOffEvent(tick=3, channel=0, data=[110, 0]),\n",
      "   midi.NoteOffEvent(tick=1, channel=0, data=[108, 0]),\n",
      "   midi.NoteOffEvent(tick=3, channel=0, data=[120, 0]),\n",
      "   midi.NoteOffEvent(tick=12, channel=0, data=[125, 0]),\n",
      "   midi.NoteOffEvent(tick=4, channel=0, data=[23, 0]),\n",
      "   midi.NoteOffEvent(tick=1, channel=0, data=[55, 0]),\n",
      "   midi.NoteOffEvent(tick=12, channel=0, data=[83, 0]),\n",
      "   midi.NoteOffEvent(tick=8, channel=0, data=[48, 0]),\n",
      "   midi.NoteOnEvent(tick=14, channel=0, data=[47, 240]),\n",
      "   midi.NoteOnEvent(tick=11, channel=0, data=[127, 73]),\n",
      "   midi.NoteOffEvent(tick=26, channel=0, data=[1, 0]),\n",
      "   midi.NoteOnEvent(tick=50, channel=0, data=[14, 73]),\n",
      "   midi.NoteOffEvent(tick=10, channel=0, data=[99, 0]),\n",
      "   midi.NoteOnEvent(tick=5, channel=0, data=[44, 90]),\n",
      "   midi.NoteOnEvent(tick=12, channel=0, data=[53, 218]),\n",
      "   midi.NoteOffEvent(tick=12, channel=0, data=[114, 0]),\n",
      "   midi.NoteOffEvent(tick=25, channel=0, data=[73, 0]),\n",
      "   midi.NoteOffEvent(tick=3, channel=0, data=[13, 0]),\n",
      "   midi.NoteOnEvent(tick=0, channel=0, data=[100, 24]),\n",
      "   midi.NoteOffEvent(tick=10, channel=0, data=[15, 0]),\n",
      "   midi.NoteOffEvent(tick=8, channel=0, data=[53, 0]),\n",
      "   midi.NoteOffEvent(tick=7, channel=0, data=[123, 0]),\n",
      "   midi.NoteOffEvent(tick=8, channel=0, data=[28, 0]),\n",
      "   midi.NoteOffEvent(tick=8, channel=0, data=[116, 0]),\n",
      "   midi.NoteOffEvent(tick=31, channel=0, data=[43, 0]),\n",
      "   midi.NoteOffEvent(tick=1, channel=0, data=[106, 0]),\n",
      "   midi.NoteOffEvent(tick=72, channel=0, data=[65, 0]),\n",
      "   midi.NoteOffEvent(tick=19, channel=0, data=[90, 0]),\n",
      "   midi.NoteOffEvent(tick=46, channel=0, data=[97, 0]),\n",
      "   midi.NoteOffEvent(tick=11, channel=0, data=[96, 0]),\n",
      "   midi.NoteOffEvent(tick=42, channel=0, data=[113, 0]),\n",
      "   midi.NoteOffEvent(tick=13, channel=0, data=[6, 0]),\n",
      "   midi.NoteOffEvent(tick=1, channel=0, data=[100, 0]),\n",
      "   midi.NoteOffEvent(tick=3, channel=0, data=[70, 0]),\n",
      "   midi.NoteOffEvent(tick=15, channel=0, data=[127, 0]),\n",
      "   midi.NoteOffEvent(tick=28, channel=0, data=[69, 0]),\n",
      "   midi.NoteOffEvent(tick=3, channel=0, data=[44, 0]),\n",
      "   midi.NoteOffEvent(tick=10, channel=0, data=[107, 0]),\n",
      "   midi.NoteOffEvent(tick=44, channel=0, data=[115, 0]),\n",
      "   midi.NoteOffEvent(tick=29, channel=0, data=[77, 0]),\n",
      "   midi.NoteOffEvent(tick=80, channel=0, data=[63, 0]),\n",
      "   midi.NoteOffEvent(tick=24, channel=0, data=[14, 0]),\n",
      "   midi.NoteOffEvent(tick=147, channel=0, data=[47, 0]),\n",
      "   midi.EndOfTrackEvent(tick=0, data=[])]),\n",
      " midi.Track(\\\n",
      "  [midi.SetTempoEvent(tick=0, data=[8, 227, 124]),\n",
      "   midi.ProgramChangeEvent(tick=0, channel=0, data=[81]),\n",
      "   midi.NoteOnEvent(tick=8, channel=0, data=[31, 22]),\n",
      "   midi.NoteOnEvent(tick=14, channel=0, data=[112, 70]),\n",
      "   midi.NoteOnEvent(tick=8, channel=0, data=[22, 54]),\n",
      "   midi.NoteOffEvent(tick=9, channel=0, data=[112, 0]),\n",
      "   midi.NoteOnEvent(tick=24, channel=0, data=[94, 238]),\n",
      "   midi.NoteOnEvent(tick=51, channel=0, data=[70, 152]),\n",
      "   midi.NoteOnEvent(tick=12, channel=0, data=[7, 126]),\n",
      "   midi.NoteOnEvent(tick=51, channel=0, data=[23, 152]),\n",
      "   midi.NoteOffEvent(tick=66, channel=0, data=[7, 0]),\n",
      "   midi.NoteOnEvent(tick=3, channel=0, data=[124, 172]),\n",
      "   midi.NoteOnEvent(tick=19, channel=0, data=[117, 160]),\n",
      "   midi.NoteOnEvent(tick=38, channel=0, data=[117, 224]),\n",
      "   midi.NoteOffEvent(tick=13, channel=0, data=[94, 0]),\n",
      "   midi.NoteOnEvent(tick=2, channel=0, data=[91, 154]),\n",
      "   midi.NoteOnEvent(tick=41, channel=0, data=[121, 117]),\n",
      "   midi.NoteOnEvent(tick=0, channel=0, data=[75, 23]),\n",
      "   midi.NoteOnEvent(tick=39, channel=0, data=[119, 105]),\n",
      "   midi.NoteOffEvent(tick=14, channel=0, data=[117, 0]),\n",
      "   midi.NoteOnEvent(tick=28, channel=0, data=[94, 92]),\n",
      "   midi.NoteOnEvent(tick=1, channel=0, data=[70, 39]),\n",
      "   midi.NoteOnEvent(tick=1, channel=0, data=[0, 44]),\n",
      "   midi.NoteOnEvent(tick=0, channel=0, data=[86, 92]),\n",
      "   midi.NoteOnEvent(tick=18, channel=0, data=[96, 6]),\n",
      "   midi.NoteOffEvent(tick=3, channel=0, data=[75, 0]),\n",
      "   midi.NoteOnEvent(tick=11, channel=0, data=[72, 245]),\n",
      "   midi.NoteOffEvent(tick=8, channel=0, data=[70, 0]),\n",
      "   midi.NoteOnEvent(tick=33, channel=0, data=[79, 81]),\n",
      "   midi.NoteOnEvent(tick=1, channel=0, data=[123, 0]),\n",
      "   midi.NoteOnEvent(tick=19, channel=0, data=[116, 96]),\n",
      "   midi.NoteOnEvent(tick=0, channel=0, data=[75, 21]),\n",
      "   midi.NoteOnEvent(tick=19, channel=0, data=[36, 197]),\n",
      "   midi.NoteOnEvent(tick=2, channel=0, data=[90, 178]),\n",
      "   midi.NoteOnEvent(tick=2, channel=0, data=[49, 191]),\n",
      "   midi.NoteOnEvent(tick=2, channel=0, data=[126, 166]),\n",
      "   midi.NoteOnEvent(tick=3, channel=0, data=[80, 161]),\n",
      "   midi.NoteOnEvent(tick=28, channel=0, data=[125, 57]),\n",
      "   midi.NoteOnEvent(tick=14, channel=0, data=[20, 59]),\n",
      "   midi.NoteOnEvent(tick=11, channel=0, data=[91, 216]),\n",
      "   midi.NoteOnEvent(tick=0, channel=0, data=[61, 181]),\n",
      "   midi.NoteOnEvent(tick=23, channel=0, data=[71, 239]),\n",
      "   midi.NoteOffEvent(tick=2, channel=0, data=[90, 0]),\n",
      "   midi.NoteOffEvent(tick=11, channel=0, data=[22, 0]),\n",
      "   midi.NoteOffEvent(tick=5, channel=0, data=[36, 0]),\n",
      "   midi.NoteOffEvent(tick=1, channel=0, data=[80, 0]),\n",
      "   midi.NoteOffEvent(tick=8, channel=0, data=[23, 0]),\n",
      "   midi.NoteOnEvent(tick=3, channel=0, data=[125, 22]),\n",
      "   midi.NoteOnEvent(tick=1, channel=0, data=[114, 107]),\n",
      "   midi.NoteOffEvent(tick=4, channel=0, data=[31, 0]),\n",
      "   midi.NoteOnEvent(tick=14, channel=0, data=[70, 250]),\n",
      "   midi.NoteOnEvent(tick=17, channel=0, data=[83, 129]),\n",
      "   midi.NoteOnEvent(tick=6, channel=0, data=[31, 153]),\n",
      "   midi.NoteOnEvent(tick=2, channel=0, data=[82, 102]),\n",
      "   midi.NoteOnEvent(tick=0, channel=0, data=[106, 105]),\n",
      "   midi.NoteOnEvent(tick=22, channel=0, data=[94, 237]),\n",
      "   midi.NoteOnEvent(tick=6, channel=0, data=[70, 36]),\n",
      "   midi.NoteOnEvent(tick=7, channel=0, data=[115, 12]),\n",
      "   midi.NoteOnEvent(tick=14, channel=0, data=[47, 96]),\n",
      "   midi.NoteOnEvent(tick=0, channel=0, data=[97, 196]),\n",
      "   midi.NoteOnEvent(tick=39, channel=0, data=[105, 231]),\n",
      "   midi.NoteOnEvent(tick=12, channel=0, data=[35, 57]),\n",
      "   midi.NoteOffEvent(tick=11, channel=0, data=[124, 0]),\n",
      "   midi.NoteOffEvent(tick=21, channel=0, data=[105, 0]),\n",
      "   midi.NoteOnEvent(tick=18, channel=0, data=[29, 68]),\n",
      "   midi.NoteOffEvent(tick=3, channel=0, data=[94, 0]),\n",
      "   midi.NoteOnEvent(tick=10, channel=0, data=[31, 121]),\n",
      "   midi.NoteOffEvent(tick=2, channel=0, data=[49, 0]),\n",
      "   midi.NoteOffEvent(tick=9, channel=0, data=[121, 0]),\n",
      "   midi.NoteOffEvent(tick=13, channel=0, data=[71, 0]),\n",
      "   midi.NoteOffEvent(tick=15, channel=0, data=[72, 0]),\n",
      "   midi.NoteOnEvent(tick=8, channel=0, data=[9, 46]),\n",
      "   midi.NoteOnEvent(tick=19, channel=0, data=[27, 252]),\n",
      "   midi.NoteOnEvent(tick=18, channel=0, data=[73, 76]),\n",
      "   midi.NoteOnEvent(tick=5, channel=0, data=[96, 17]),\n",
      "   midi.NoteOffEvent(tick=20, channel=0, data=[116, 0]),\n",
      "   midi.NoteOffEvent(tick=3, channel=0, data=[27, 0]),\n",
      "   midi.NoteOnEvent(tick=10, channel=0, data=[93, 204]),\n",
      "   midi.NoteOffEvent(tick=3, channel=0, data=[123, 0]),\n",
      "   midi.NoteOffEvent(tick=3, channel=0, data=[61, 0]),\n",
      "   midi.NoteOffEvent(tick=6, channel=0, data=[106, 0]),\n",
      "   midi.NoteOffEvent(tick=35, channel=0, data=[86, 0]),\n",
      "   midi.NoteOffEvent(tick=7, channel=0, data=[126, 0]),\n",
      "   midi.NoteOffEvent(tick=54, channel=0, data=[97, 0]),\n",
      "   midi.NoteOffEvent(tick=72, channel=0, data=[0, 0]),\n",
      "   midi.NoteOffEvent(tick=24, channel=0, data=[9, 0]),\n",
      "   midi.NoteOffEvent(tick=39, channel=0, data=[119, 0]),\n",
      "   midi.NoteOffEvent(tick=14, channel=0, data=[29, 0]),\n",
      "   midi.NoteOffEvent(tick=25, channel=0, data=[47, 0]),\n",
      "   midi.NoteOffEvent(tick=17, channel=0, data=[31, 0]),\n",
      "   midi.NoteOffEvent(tick=25, channel=0, data=[70, 0]),\n",
      "   midi.NoteOffEvent(tick=20, channel=0, data=[91, 0]),\n",
      "   midi.NoteOffEvent(tick=63, channel=0, data=[79, 0]),\n",
      "   midi.NoteOffEvent(tick=37, channel=0, data=[75, 0]),\n",
      "   midi.NoteOffEvent(tick=0, channel=0, data=[114, 0]),\n",
      "   midi.NoteOffEvent(tick=32, channel=0, data=[20, 0]),\n",
      "   midi.NoteOffEvent(tick=23, channel=0, data=[93, 0]),\n",
      "   midi.NoteOffEvent(tick=29, channel=0, data=[35, 0]),\n",
      "   midi.NoteOffEvent(tick=0, channel=0, data=[82, 0]),\n",
      "   midi.NoteOffEvent(tick=96, channel=0, data=[125, 0]),\n",
      "   midi.NoteOffEvent(tick=64, channel=0, data=[115, 0]),\n",
      "   midi.NoteOffEvent(tick=14, channel=0, data=[83, 0]),\n",
      "   midi.NoteOffEvent(tick=135, channel=0, data=[96, 0]),\n",
      "   midi.NoteOffEvent(tick=48, channel=0, data=[73, 0]),\n",
      "   midi.EndOfTrackEvent(tick=0, data=[])]),\n",
      " midi.Track(\\\n",
      "  [midi.SetTempoEvent(tick=0, data=[8, 227, 124]),\n",
      "   midi.ProgramChangeEvent(tick=0, channel=0, data=[82]),\n",
      "   midi.NoteOnEvent(tick=14, channel=0, data=[114, 6]),\n",
      "   midi.NoteOnEvent(tick=14, channel=0, data=[95, 227]),\n",
      "   midi.NoteOnEvent(tick=14, channel=0, data=[85, 202]),\n",
      "   midi.NoteOnEvent(tick=11, channel=0, data=[68, 120]),\n",
      "   midi.NoteOnEvent(tick=77, channel=0, data=[96, 139]),\n",
      "   midi.NoteOnEvent(tick=8, channel=0, data=[82, 78]),\n",
      "   midi.NoteOnEvent(tick=2, channel=0, data=[93, 179]),\n",
      "   midi.NoteOnEvent(tick=5, channel=0, data=[105, 124]),\n",
      "   midi.NoteOnEvent(tick=10, channel=0, data=[59, 68]),\n",
      "   midi.NoteOnEvent(tick=26, channel=0, data=[76, 17]),\n",
      "   midi.NoteOnEvent(tick=10, channel=0, data=[67, 69]),\n",
      "   midi.NoteOffEvent(tick=14, channel=0, data=[85, 0]),\n",
      "   midi.NoteOnEvent(tick=0, channel=0, data=[102, 180]),\n",
      "   midi.NoteOnEvent(tick=0, channel=0, data=[115, 44]),\n",
      "   midi.NoteOnEvent(tick=23, channel=0, data=[67, 28]),\n",
      "   midi.NoteOnEvent(tick=65, channel=0, data=[113, 95]),\n",
      "   midi.NoteOnEvent(tick=5, channel=0, data=[50, 29]),\n",
      "   midi.NoteOnEvent(tick=0, channel=0, data=[100, 210]),\n",
      "   midi.NoteOnEvent(tick=15, channel=0, data=[95, 207]),\n",
      "   midi.NoteOnEvent(tick=8, channel=0, data=[67, 133]),\n",
      "   midi.NoteOnEvent(tick=20, channel=0, data=[42, 193]),\n",
      "   midi.NoteOnEvent(tick=7, channel=0, data=[71, 24]),\n",
      "   midi.NoteOnEvent(tick=2, channel=0, data=[38, 143]),\n",
      "   midi.NoteOffEvent(tick=21, channel=0, data=[113, 0]),\n",
      "   midi.NoteOnEvent(tick=3, channel=0, data=[29, 118]),\n",
      "   midi.NoteOnEvent(tick=24, channel=0, data=[83, 20]),\n",
      "   midi.NoteOnEvent(tick=17, channel=0, data=[46, 212]),\n",
      "   midi.NoteOffEvent(tick=45, channel=0, data=[76, 0]),\n",
      "   midi.NoteOnEvent(tick=2, channel=0, data=[45, 254]),\n",
      "   midi.NoteOnEvent(tick=17, channel=0, data=[122, 30]),\n",
      "   midi.NoteOnEvent(tick=3, channel=0, data=[7, 217]),\n",
      "   midi.NoteOnEvent(tick=11, channel=0, data=[33, 169]),\n",
      "   midi.NoteOffEvent(tick=12, channel=0, data=[68, 0]),\n",
      "   midi.NoteOnEvent(tick=5, channel=0, data=[28, 94]),\n",
      "   midi.NoteOnEvent(tick=20, channel=0, data=[110, 215]),\n",
      "   midi.NoteOffEvent(tick=61, channel=0, data=[115, 0]),\n",
      "   midi.NoteOnEvent(tick=5, channel=0, data=[96, 4]),\n",
      "   midi.NoteOnEvent(tick=22, channel=0, data=[97, 69]),\n",
      "   midi.NoteOnEvent(tick=33, channel=0, data=[101, 103]),\n",
      "   midi.NoteOnEvent(tick=14, channel=0, data=[0, 48]),\n",
      "   midi.NoteOnEvent(tick=15, channel=0, data=[79, 112]),\n",
      "   midi.NoteOnEvent(tick=13, channel=0, data=[75, 92]),\n",
      "   midi.NoteOnEvent(tick=11, channel=0, data=[35, 79]),\n",
      "   midi.NoteOnEvent(tick=22, channel=0, data=[87, 188]),\n",
      "   midi.NoteOnEvent(tick=1, channel=0, data=[0, 56]),\n",
      "   midi.NoteOffEvent(tick=4, channel=0, data=[100, 0]),\n",
      "   midi.NoteOnEvent(tick=1, channel=0, data=[81, 161]),\n",
      "   midi.NoteOnEvent(tick=1, channel=0, data=[39, 225]),\n",
      "   midi.NoteOnEvent(tick=3, channel=0, data=[123, 0]),\n",
      "   midi.NoteOffEvent(tick=4, channel=0, data=[67, 0]),\n",
      "   midi.NoteOnEvent(tick=19, channel=0, data=[20, 230]),\n",
      "   midi.NoteOnEvent(tick=2, channel=0, data=[1, 70]),\n",
      "   midi.NoteOnEvent(tick=1, channel=0, data=[101, 200]),\n",
      "   midi.NoteOnEvent(tick=17, channel=0, data=[65, 63]),\n",
      "   midi.NoteOnEvent(tick=10, channel=0, data=[33, 147]),\n",
      "   midi.NoteOffEvent(tick=14, channel=0, data=[59, 0]),\n",
      "   midi.NoteOffEvent(tick=38, channel=0, data=[114, 0]),\n",
      "   midi.NoteOnEvent(tick=17, channel=0, data=[56, 189]),\n",
      "   midi.NoteOnEvent(tick=0, channel=0, data=[107, 133]),\n",
      "   midi.NoteOffEvent(tick=1, channel=0, data=[93, 0]),\n",
      "   midi.NoteOffEvent(tick=3, channel=0, data=[20, 0]),\n",
      "   midi.NoteOnEvent(tick=14, channel=0, data=[6, 96]),\n",
      "   midi.NoteOffEvent(tick=19, channel=0, data=[96, 0]),\n",
      "   midi.NoteOnEvent(tick=7, channel=0, data=[76, 247]),\n",
      "   midi.NoteOnEvent(tick=1, channel=0, data=[68, 12]),\n",
      "   midi.NoteOffEvent(tick=10, channel=0, data=[45, 0]),\n",
      "   midi.NoteOnEvent(tick=4, channel=0, data=[18, 160]),\n",
      "   midi.NoteOnEvent(tick=4, channel=0, data=[58, 252]),\n",
      "   midi.NoteOnEvent(tick=17, channel=0, data=[19, 244]),\n",
      "   midi.NoteOnEvent(tick=12, channel=0, data=[18, 47]),\n",
      "   midi.NoteOnEvent(tick=19, channel=0, data=[59, 96]),\n",
      "   midi.NoteOffEvent(tick=15, channel=0, data=[105, 0]),\n",
      "   midi.NoteOffEvent(tick=5, channel=0, data=[46, 0]),\n",
      "   midi.NoteOnEvent(tick=3, channel=0, data=[104, 127]),\n",
      "   midi.NoteOnEvent(tick=0, channel=0, data=[20, 93]),\n",
      "   midi.NoteOffEvent(tick=1, channel=0, data=[33, 0]),\n",
      "   midi.NoteOffEvent(tick=1, channel=0, data=[1, 0]),\n",
      "   midi.NoteOffEvent(tick=1, channel=0, data=[20, 0]),\n",
      "   midi.NoteOffEvent(tick=1, channel=0, data=[102, 0]),\n",
      "   midi.NoteOffEvent(tick=31, channel=0, data=[101, 0]),\n",
      "   midi.NoteOffEvent(tick=22, channel=0, data=[35, 0]),\n",
      "   midi.NoteOffEvent(tick=34, channel=0, data=[104, 0]),\n",
      "   midi.NoteOffEvent(tick=13, channel=0, data=[82, 0]),\n",
      "   midi.NoteOffEvent(tick=0, channel=0, data=[87, 0]),\n",
      "   midi.NoteOffEvent(tick=1, channel=0, data=[58, 0]),\n",
      "   midi.NoteOffEvent(tick=3, channel=0, data=[71, 0]),\n",
      "   midi.NoteOffEvent(tick=39, channel=0, data=[81, 0]),\n",
      "   midi.NoteOffEvent(tick=2, channel=0, data=[97, 0]),\n",
      "   midi.NoteOffEvent(tick=14, channel=0, data=[50, 0]),\n",
      "   midi.NoteOffEvent(tick=2, channel=0, data=[76, 0]),\n",
      "   midi.NoteOffEvent(tick=39, channel=0, data=[42, 0]),\n",
      "   midi.NoteOffEvent(tick=11, channel=0, data=[38, 0]),\n",
      "   midi.NoteOffEvent(tick=17, channel=0, data=[107, 0]),\n",
      "   midi.NoteOffEvent(tick=2, channel=0, data=[95, 0]),\n",
      "   midi.NoteOffEvent(tick=40, channel=0, data=[39, 0]),\n",
      "   midi.NoteOffEvent(tick=28, channel=0, data=[83, 0]),\n",
      "   midi.NoteOffEvent(tick=5, channel=0, data=[122, 0]),\n",
      "   midi.NoteOffEvent(tick=48, channel=0, data=[29, 0]),\n",
      "   midi.NoteOffEvent(tick=3, channel=0, data=[7, 0]),\n",
      "   midi.NoteOffEvent(tick=10, channel=0, data=[65, 0]),\n",
      "   midi.NoteOffEvent(tick=84, channel=0, data=[110, 0]),\n",
      "   midi.NoteOffEvent(tick=55, channel=0, data=[19, 0]),\n",
      "   midi.NoteOffEvent(tick=1, channel=0, data=[28, 0]),\n",
      "   midi.NoteOffEvent(tick=72, channel=0, data=[123, 0]),\n",
      "   midi.NoteOffEvent(tick=33, channel=0, data=[75, 0]),\n",
      "   midi.NoteOffEvent(tick=57, channel=0, data=[79, 0]),\n",
      "   midi.NoteOffEvent(tick=63, channel=0, data=[0, 0]),\n",
      "   midi.NoteOffEvent(tick=1, channel=0, data=[18, 0]),\n",
      "   midi.NoteOffEvent(tick=29, channel=0, data=[6, 0]),\n",
      "   midi.NoteOffEvent(tick=65, channel=0, data=[68, 0]),\n",
      "   midi.NoteOffEvent(tick=11, channel=0, data=[56, 0]),\n",
      "   midi.NoteOffEvent(tick=14, channel=0, data=[59, 0]),\n",
      "   midi.EndOfTrackEvent(tick=0, data=[])]),\n",
      " midi.Track(\\\n",
      "  [midi.SetTempoEvent(tick=0, data=[8, 227, 124]),\n",
      "   midi.ProgramChangeEvent(tick=0, channel=0, data=[83]),\n",
      "   midi.NoteOnEvent(tick=3, channel=0, data=[126, 191]),\n",
      "   midi.NoteOnEvent(tick=4, channel=0, data=[17, 51]),\n",
      "   midi.NoteOnEvent(tick=17, channel=0, data=[56, 198]),\n",
      "   midi.NoteOnEvent(tick=8, channel=0, data=[103, 21]),\n",
      "   midi.NoteOnEvent(tick=21, channel=0, data=[6, 108]),\n",
      "   midi.NoteOnEvent(tick=15, channel=0, data=[33, 249]),\n",
      "   midi.NoteOnEvent(tick=1, channel=0, data=[124, 239]),\n",
      "   midi.NoteOnEvent(tick=10, channel=0, data=[64, 150]),\n",
      "   midi.NoteOnEvent(tick=15, channel=0, data=[20, 91]),\n",
      "   midi.NoteOnEvent(tick=5, channel=0, data=[7, 226]),\n",
      "   midi.NoteOffEvent(tick=4, channel=0, data=[6, 0]),\n",
      "   midi.NoteOnEvent(tick=23, channel=0, data=[110, 205]),\n",
      "   midi.NoteOnEvent(tick=8, channel=0, data=[12, 6]),\n",
      "   midi.NoteOnEvent(tick=10, channel=0, data=[112, 99]),\n",
      "   midi.NoteOnEvent(tick=0, channel=0, data=[60, 81]),\n",
      "   midi.NoteOnEvent(tick=15, channel=0, data=[4, 74]),\n",
      "   midi.NoteOnEvent(tick=1, channel=0, data=[38, 104]),\n",
      "   midi.NoteOnEvent(tick=3, channel=0, data=[28, 86]),\n",
      "   midi.NoteOffEvent(tick=12, channel=0, data=[4, 0]),\n",
      "   midi.NoteOnEvent(tick=1, channel=0, data=[55, 173]),\n",
      "   midi.NoteOnEvent(tick=14, channel=0, data=[10, 179]),\n",
      "   midi.NoteOffEvent(tick=3, channel=0, data=[38, 0]),\n",
      "   midi.NoteOnEvent(tick=4, channel=0, data=[113, 240]),\n",
      "   midi.NoteOnEvent(tick=3, channel=0, data=[108, 31]),\n",
      "   midi.NoteOnEvent(tick=5, channel=0, data=[6, 104]),\n",
      "   midi.NoteOffEvent(tick=1, channel=0, data=[12, 0]),\n",
      "   midi.NoteOnEvent(tick=3, channel=0, data=[51, 114]),\n",
      "   midi.NoteOnEvent(tick=17, channel=0, data=[50, 41]),\n",
      "   midi.NoteOnEvent(tick=5, channel=0, data=[52, 201]),\n",
      "   midi.NoteOnEvent(tick=10, channel=0, data=[35, 248]),\n",
      "   midi.NoteOffEvent(tick=2, channel=0, data=[56, 0]),\n",
      "   midi.NoteOnEvent(tick=14, channel=0, data=[98, 142]),\n",
      "   midi.NoteOnEvent(tick=4, channel=0, data=[104, 66]),\n",
      "   midi.NoteOffEvent(tick=9, channel=0, data=[28, 0]),\n",
      "   midi.NoteOnEvent(tick=23, channel=0, data=[93, 241]),\n",
      "   midi.NoteOnEvent(tick=15, channel=0, data=[95, 33]),\n",
      "   midi.NoteOnEvent(tick=23, channel=0, data=[2, 208]),\n",
      "   midi.NoteOnEvent(tick=1, channel=0, data=[65, 210]),\n",
      "   midi.NoteOnEvent(tick=9, channel=0, data=[98, 133]),\n",
      "   midi.NoteOffEvent(tick=8, channel=0, data=[17, 0]),\n",
      "   midi.NoteOnEvent(tick=5, channel=0, data=[20, 73]),\n",
      "   midi.NoteOnEvent(tick=18, channel=0, data=[121, 166]),\n",
      "   midi.NoteOnEvent(tick=34, channel=0, data=[90, 156]),\n",
      "   midi.NoteOffEvent(tick=8, channel=0, data=[35, 0]),\n",
      "   midi.NoteOnEvent(tick=27, channel=0, data=[38, 32]),\n",
      "   midi.NoteOnEvent(tick=38, channel=0, data=[85, 86]),\n",
      "   midi.NoteOnEvent(tick=3, channel=0, data=[52, 98]),\n",
      "   midi.NoteOnEvent(tick=1, channel=0, data=[104, 72]),\n",
      "   midi.NoteOnEvent(tick=32, channel=0, data=[76, 110]),\n",
      "   midi.NoteOnEvent(tick=16, channel=0, data=[49, 64]),\n",
      "   midi.NoteOnEvent(tick=16, channel=0, data=[11, 45]),\n",
      "   midi.NoteOnEvent(tick=0, channel=0, data=[50, 66]),\n",
      "   midi.NoteOnEvent(tick=8, channel=0, data=[35, 192]),\n",
      "   midi.NoteOnEvent(tick=2, channel=0, data=[49, 53]),\n",
      "   midi.NoteOnEvent(tick=38, channel=0, data=[9, 197]),\n",
      "   midi.NoteOffEvent(tick=1, channel=0, data=[113, 0]),\n",
      "   midi.NoteOnEvent(tick=1, channel=0, data=[111, 21]),\n",
      "   midi.NoteOffEvent(tick=14, channel=0, data=[35, 0]),\n",
      "   midi.NoteOffEvent(tick=4, channel=0, data=[10, 0]),\n",
      "   midi.NoteOffEvent(tick=4, channel=0, data=[126, 0]),\n",
      "   midi.NoteOnEvent(tick=6, channel=0, data=[55, 200]),\n",
      "   midi.NoteOffEvent(tick=23, channel=0, data=[95, 0]),\n",
      "   midi.NoteOffEvent(tick=51, channel=0, data=[49, 0]),\n",
      "   midi.NoteOffEvent(tick=14, channel=0, data=[2, 0]),\n",
      "   midi.NoteOffEvent(tick=7, channel=0, data=[11, 0]),\n",
      "   midi.NoteOffEvent(tick=10, channel=0, data=[60, 0]),\n",
      "   midi.NoteOffEvent(tick=18, channel=0, data=[33, 0]),\n",
      "   midi.NoteOnEvent(tick=7, channel=0, data=[97, 188]),\n",
      "   midi.NoteOnEvent(tick=7, channel=0, data=[47, 225]),\n",
      "   midi.NoteOffEvent(tick=7, channel=0, data=[98, 0]),\n",
      "   midi.NoteOnEvent(tick=8, channel=0, data=[112, 79]),\n",
      "   midi.NoteOnEvent(tick=12, channel=0, data=[74, 175]),\n",
      "   midi.NoteOffEvent(tick=1, channel=0, data=[108, 0]),\n",
      "   midi.NoteOffEvent(tick=6, channel=0, data=[64, 0]),\n",
      "   midi.NoteOnEvent(tick=17, channel=0, data=[19, 23]),\n",
      "   midi.NoteOnEvent(tick=12, channel=0, data=[9, 9]),\n",
      "   midi.NoteOffEvent(tick=2, channel=0, data=[111, 0]),\n",
      "   midi.NoteOffEvent(tick=8, channel=0, data=[97, 0]),\n",
      "   midi.NoteOnEvent(tick=15, channel=0, data=[56, 236]),\n",
      "   midi.NoteOnEvent(tick=8, channel=0, data=[58, 180]),\n",
      "   midi.NoteOffEvent(tick=17, channel=0, data=[85, 0]),\n",
      "   midi.NoteOnEvent(tick=2, channel=0, data=[103, 69]),\n",
      "   midi.NoteOnEvent(tick=13, channel=0, data=[123, 26]),\n",
      "   midi.NoteOnEvent(tick=12, channel=0, data=[106, 28]),\n",
      "   midi.NoteOffEvent(tick=10, channel=0, data=[90, 0]),\n",
      "   midi.NoteOnEvent(tick=1, channel=0, data=[92, 56]),\n",
      "   midi.NoteOnEvent(tick=19, channel=0, data=[6, 139]),\n",
      "   midi.NoteOnEvent(tick=7, channel=0, data=[63, 133]),\n",
      "   midi.NoteOnEvent(tick=11, channel=0, data=[116, 160]),\n",
      "   midi.NoteOnEvent(tick=0, channel=0, data=[24, 225]),\n",
      "   midi.NoteOffEvent(tick=7, channel=0, data=[110, 0]),\n",
      "   midi.NoteOffEvent(tick=8, channel=0, data=[112, 0]),\n",
      "   midi.NoteOffEvent(tick=13, channel=0, data=[104, 0]),\n",
      "   midi.NoteOffEvent(tick=6, channel=0, data=[38, 0]),\n",
      "   midi.NoteOffEvent(tick=3, channel=0, data=[93, 0]),\n",
      "   midi.NoteOnEvent(tick=11, channel=0, data=[81, 234]),\n",
      "   midi.NoteOffEvent(tick=21, channel=0, data=[51, 0]),\n",
      "   midi.NoteOffEvent(tick=4, channel=0, data=[92, 0]),\n",
      "   midi.NoteOffEvent(tick=7, channel=0, data=[124, 0]),\n",
      "   midi.NoteOffEvent(tick=13, channel=0, data=[7, 0]),\n",
      "   midi.NoteOffEvent(tick=24, channel=0, data=[81, 0]),\n",
      "   midi.NoteOffEvent(tick=39, channel=0, data=[65, 0]),\n",
      "   midi.NoteOffEvent(tick=46, channel=0, data=[121, 0]),\n",
      "   midi.NoteOffEvent(tick=26, channel=0, data=[24, 0]),\n",
      "   midi.NoteOffEvent(tick=13, channel=0, data=[19, 0]),\n",
      "   midi.NoteOffEvent(tick=31, channel=0, data=[47, 0]),\n",
      "   midi.NoteOffEvent(tick=27, channel=0, data=[76, 0]),\n",
      "   midi.NoteOffEvent(tick=17, channel=0, data=[6, 0]),\n",
      "   midi.NoteOffEvent(tick=0, channel=0, data=[50, 0]),\n",
      "   midi.NoteOffEvent(tick=18, channel=0, data=[52, 0]),\n",
      "   midi.NoteOffEvent(tick=2, channel=0, data=[20, 0]),\n",
      "   midi.NoteOffEvent(tick=33, channel=0, data=[123, 0]),\n",
      "   midi.NoteOffEvent(tick=26, channel=0, data=[74, 0]),\n",
      "   midi.NoteOffEvent(tick=15, channel=0, data=[106, 0]),\n",
      "   midi.NoteOffEvent(tick=6, channel=0, data=[55, 0]),\n",
      "   midi.NoteOffEvent(tick=139, channel=0, data=[9, 0]),\n",
      "   midi.NoteOffEvent(tick=174, channel=0, data=[116, 0]),\n",
      "   midi.NoteOffEvent(tick=20, channel=0, data=[103, 0]),\n",
      "   midi.NoteOffEvent(tick=20, channel=0, data=[63, 0]),\n",
      "   midi.NoteOffEvent(tick=3, channel=0, data=[56, 0]),\n",
      "   midi.NoteOffEvent(tick=58, channel=0, data=[58, 0]),\n",
      "   midi.EndOfTrackEvent(tick=0, data=[])]),\n",
      " midi.Track(\\\n",
      "  [midi.SetTempoEvent(tick=0, data=[8, 227, 124]),\n",
      "   midi.ProgramChangeEvent(tick=0, channel=0, data=[84]),\n",
      "   midi.NoteOnEvent(tick=11, channel=0, data=[82, 123]),\n",
      "   midi.NoteOnEvent(tick=19, channel=0, data=[56, 187]),\n",
      "   midi.NoteOnEvent(tick=0, channel=0, data=[113, 210]),\n",
      "   midi.NoteOnEvent(tick=6, channel=0, data=[121, 36]),\n",
      "   midi.NoteOnEvent(tick=42, channel=0, data=[74, 145]),\n",
      "   midi.NoteOnEvent(tick=24, channel=0, data=[77, 72]),\n",
      "   midi.NoteOnEvent(tick=13, channel=0, data=[2, 112]),\n",
      "   midi.NoteOnEvent(tick=6, channel=0, data=[63, 109]),\n",
      "   midi.NoteOnEvent(tick=11, channel=0, data=[107, 49]),\n",
      "   midi.NoteOnEvent(tick=14, channel=0, data=[98, 93]),\n",
      "   midi.NoteOnEvent(tick=14, channel=0, data=[123, 124]),\n",
      "   midi.NoteOnEvent(tick=37, channel=0, data=[77, 129]),\n",
      "   midi.NoteOnEvent(tick=23, channel=0, data=[55, 4]),\n",
      "   midi.NoteOnEvent(tick=15, channel=0, data=[72, 144]),\n",
      "   midi.NoteOnEvent(tick=34, channel=0, data=[88, 155]),\n",
      "   midi.NoteOnEvent(tick=20, channel=0, data=[111, 184]),\n",
      "   midi.NoteOnEvent(tick=14, channel=0, data=[88, 116]),\n",
      "   midi.NoteOnEvent(tick=10, channel=0, data=[71, 6]),\n",
      "   midi.NoteOnEvent(tick=8, channel=0, data=[114, 68]),\n",
      "   midi.NoteOffEvent(tick=41, channel=0, data=[71, 0]),\n",
      "   midi.NoteOnEvent(tick=29, channel=0, data=[113, 183]),\n",
      "   midi.NoteOffEvent(tick=3, channel=0, data=[56, 0]),\n",
      "   midi.NoteOffEvent(tick=18, channel=0, data=[55, 0]),\n",
      "   midi.NoteOnEvent(tick=3, channel=0, data=[113, 153]),\n",
      "   midi.NoteOnEvent(tick=6, channel=0, data=[70, 197]),\n",
      "   midi.NoteOnEvent(tick=4, channel=0, data=[125, 17]),\n",
      "   midi.NoteOffEvent(tick=20, channel=0, data=[2, 0]),\n",
      "   midi.NoteOnEvent(tick=9, channel=0, data=[88, 42]),\n",
      "   midi.NoteOnEvent(tick=13, channel=0, data=[12, 9]),\n",
      "   midi.NoteOnEvent(tick=4, channel=0, data=[75, 164]),\n",
      "   midi.NoteOnEvent(tick=0, channel=0, data=[3, 150]),\n",
      "   midi.NoteOnEvent(tick=0, channel=0, data=[83, 246]),\n",
      "   midi.NoteOffEvent(tick=5, channel=0, data=[74, 0]),\n",
      "   midi.NoteOnEvent(tick=5, channel=0, data=[29, 151]),\n",
      "   midi.NoteOnEvent(tick=10, channel=0, data=[70, 45]),\n",
      "   midi.NoteOnEvent(tick=19, channel=0, data=[94, 80]),\n",
      "   midi.NoteOnEvent(tick=25, channel=0, data=[71, 230]),\n",
      "   midi.NoteOnEvent(tick=12, channel=0, data=[53, 120]),\n",
      "   midi.NoteOnEvent(tick=0, channel=0, data=[71, 167]),\n",
      "   midi.NoteOnEvent(tick=0, channel=0, data=[107, 3]),\n",
      "   midi.NoteOnEvent(tick=10, channel=0, data=[49, 28]),\n",
      "   midi.NoteOnEvent(tick=0, channel=0, data=[49, 55]),\n",
      "   midi.NoteOnEvent(tick=6, channel=0, data=[2, 23]),\n",
      "   midi.NoteOnEvent(tick=5, channel=0, data=[60, 116]),\n",
      "   midi.NoteOnEvent(tick=23, channel=0, data=[99, 212]),\n",
      "   midi.NoteOnEvent(tick=0, channel=0, data=[4, 9]),\n",
      "   midi.NoteOnEvent(tick=2, channel=0, data=[28, 127]),\n",
      "   midi.NoteOnEvent(tick=17, channel=0, data=[106, 226]),\n",
      "   midi.NoteOffEvent(tick=1, channel=0, data=[75, 0]),\n",
      "   midi.NoteOffEvent(tick=8, channel=0, data=[82, 0]),\n",
      "   midi.NoteOnEvent(tick=6, channel=0, data=[17, 165]),\n",
      "   midi.NoteOnEvent(tick=18, channel=0, data=[82, 230]),\n",
      "   midi.NoteOnEvent(tick=42, channel=0, data=[68, 70]),\n",
      "   midi.NoteOnEvent(tick=5, channel=0, data=[119, 3]),\n",
      "   midi.NoteOnEvent(tick=3, channel=0, data=[101, 106]),\n",
      "   midi.NoteOffEvent(tick=2, channel=0, data=[70, 0]),\n",
      "   midi.NoteOffEvent(tick=3, channel=0, data=[123, 0]),\n",
      "   midi.NoteOffEvent(tick=8, channel=0, data=[88, 0]),\n",
      "   midi.NoteOffEvent(tick=6, channel=0, data=[49, 0]),\n",
      "   midi.NoteOnEvent(tick=5, channel=0, data=[53, 87]),\n",
      "   midi.NoteOnEvent(tick=1, channel=0, data=[99, 149]),\n",
      "   midi.NoteOnEvent(tick=0, channel=0, data=[15, 137]),\n",
      "   midi.NoteOffEvent(tick=12, channel=0, data=[72, 0]),\n",
      "   midi.NoteOffEvent(tick=6, channel=0, data=[114, 0]),\n",
      "   midi.NoteOnEvent(tick=4, channel=0, data=[122, 91]),\n",
      "   midi.NoteOnEvent(tick=1, channel=0, data=[4, 253]),\n",
      "   midi.NoteOnEvent(tick=3, channel=0, data=[90, 166]),\n",
      "   midi.NoteOffEvent(tick=2, channel=0, data=[60, 0]),\n",
      "   midi.NoteOffEvent(tick=0, channel=0, data=[71, 0]),\n",
      "   midi.NoteOnEvent(tick=9, channel=0, data=[5, 2]),\n",
      "   midi.NoteOnEvent(tick=7, channel=0, data=[35, 157]),\n",
      "   midi.NoteOnEvent(tick=15, channel=0, data=[105, 75]),\n",
      "   midi.NoteOffEvent(tick=1, channel=0, data=[83, 0]),\n",
      "   midi.NoteOnEvent(tick=11, channel=0, data=[86, 79]),\n",
      "   midi.NoteOffEvent(tick=17, channel=0, data=[113, 0]),\n",
      "   midi.NoteOnEvent(tick=2, channel=0, data=[122, 26]),\n",
      "   midi.NoteOffEvent(tick=4, channel=0, data=[90, 0]),\n",
      "   midi.NoteOnEvent(tick=8, channel=0, data=[22, 252]),\n",
      "   midi.NoteOffEvent(tick=34, channel=0, data=[98, 0]),\n",
      "   midi.NoteOffEvent(tick=23, channel=0, data=[22, 0]),\n",
      "   midi.NoteOffEvent(tick=5, channel=0, data=[125, 0]),\n",
      "   midi.NoteOnEvent(tick=20, channel=0, data=[93, 15]),\n",
      "   midi.NoteOffEvent(tick=4, channel=0, data=[122, 0]),\n",
      "   midi.NoteOffEvent(tick=13, channel=0, data=[82, 0]),\n",
      "   midi.NoteOnEvent(tick=4, channel=0, data=[96, 38]),\n",
      "   midi.NoteOnEvent(tick=6, channel=0, data=[79, 141]),\n",
      "   midi.NoteOffEvent(tick=14, channel=0, data=[121, 0]),\n",
      "   midi.NoteOffEvent(tick=26, channel=0, data=[101, 0]),\n",
      "   midi.NoteOffEvent(tick=6, channel=0, data=[99, 0]),\n",
      "   midi.NoteOffEvent(tick=4, channel=0, data=[94, 0]),\n",
      "   midi.NoteOffEvent(tick=26, channel=0, data=[12, 0]),\n",
      "   midi.NoteOffEvent(tick=1, channel=0, data=[53, 0]),\n",
      "   midi.NoteOffEvent(tick=11, channel=0, data=[63, 0]),\n",
      "   midi.NoteOffEvent(tick=5, channel=0, data=[93, 0]),\n",
      "   midi.NoteOffEvent(tick=42, channel=0, data=[79, 0]),\n",
      "   midi.NoteOffEvent(tick=8, channel=0, data=[3, 0]),\n",
      "   midi.NoteOffEvent(tick=71, channel=0, data=[77, 0]),\n",
      "   midi.NoteOffEvent(tick=17, channel=0, data=[68, 0]),\n",
      "   midi.NoteOffEvent(tick=60, channel=0, data=[111, 0]),\n",
      "   midi.NoteOffEvent(tick=5, channel=0, data=[17, 0]),\n",
      "   midi.NoteOffEvent(tick=108, channel=0, data=[29, 0]),\n",
      "   midi.NoteOffEvent(tick=45, channel=0, data=[96, 0]),\n",
      "   midi.NoteOffEvent(tick=40, channel=0, data=[107, 0]),\n",
      "   midi.NoteOffEvent(tick=66, channel=0, data=[4, 0]),\n",
      "   midi.NoteOffEvent(tick=24, channel=0, data=[106, 0]),\n",
      "   midi.NoteOffEvent(tick=5, channel=0, data=[2, 0]),\n",
      "   midi.NoteOffEvent(tick=36, channel=0, data=[35, 0]),\n",
      "   midi.NoteOffEvent(tick=15, channel=0, data=[28, 0]),\n",
      "   midi.NoteOffEvent(tick=52, channel=0, data=[119, 0]),\n",
      "   midi.NoteOffEvent(tick=54, channel=0, data=[5, 0]),\n",
      "   midi.NoteOffEvent(tick=24, channel=0, data=[15, 0]),\n",
      "   midi.NoteOffEvent(tick=12, channel=0, data=[86, 0]),\n",
      "   midi.NoteOffEvent(tick=0, channel=0, data=[105, 0]),\n",
      "   midi.EndOfTrackEvent(tick=0, data=[])]),\n",
      " midi.Track(\\\n",
      "  [midi.SetTempoEvent(tick=0, data=[8, 227, 124]),\n",
      "   midi.ProgramChangeEvent(tick=0, channel=0, data=[85]),\n",
      "   midi.NoteOnEvent(tick=8, channel=0, data=[103, 242]),\n",
      "   midi.NoteOnEvent(tick=45, channel=0, data=[48, 119]),\n",
      "   midi.NoteOnEvent(tick=10, channel=0, data=[119, 133]),\n",
      "   midi.NoteOnEvent(tick=56, channel=0, data=[122, 197]),\n",
      "   midi.NoteOnEvent(tick=4, channel=0, data=[67, 111]),\n",
      "   midi.NoteOnEvent(tick=15, channel=0, data=[22, 7]),\n",
      "   midi.NoteOnEvent(tick=8, channel=0, data=[18, 243]),\n",
      "   midi.NoteOnEvent(tick=14, channel=0, data=[101, 136]),\n",
      "   midi.NoteOnEvent(tick=1, channel=0, data=[96, 234]),\n",
      "   midi.NoteOnEvent(tick=15, channel=0, data=[110, 173]),\n",
      "   midi.NoteOffEvent(tick=46, channel=0, data=[22, 0]),\n",
      "   midi.NoteOnEvent(tick=0, channel=0, data=[69, 61]),\n",
      "   midi.NoteOnEvent(tick=4, channel=0, data=[49, 40]),\n",
      "   midi.NoteOnEvent(tick=0, channel=0, data=[27, 121]),\n",
      "   midi.NoteOnEvent(tick=11, channel=0, data=[26, 24]),\n",
      "   midi.NoteOnEvent(tick=28, channel=0, data=[66, 8]),\n",
      "   midi.NoteOnEvent(tick=8, channel=0, data=[62, 129]),\n",
      "   midi.NoteOffEvent(tick=18, channel=0, data=[103, 0]),\n",
      "   midi.NoteOnEvent(tick=21, channel=0, data=[27, 111]),\n",
      "   midi.NoteOffEvent(tick=16, channel=0, data=[101, 0]),\n",
      "   midi.NoteOffEvent(tick=2, channel=0, data=[66, 0]),\n",
      "   midi.NoteOnEvent(tick=6, channel=0, data=[80, 105]),\n",
      "   midi.NoteOffEvent(tick=2, channel=0, data=[27, 0]),\n",
      "   midi.NoteOnEvent(tick=7, channel=0, data=[44, 211]),\n",
      "   midi.NoteOnEvent(tick=8, channel=0, data=[81, 229]),\n",
      "   midi.NoteOnEvent(tick=4, channel=0, data=[46, 204]),\n",
      "   midi.NoteOffEvent(tick=27, channel=0, data=[49, 0]),\n",
      "   midi.NoteOnEvent(tick=24, channel=0, data=[89, 224]),\n",
      "   midi.NoteOnEvent(tick=7, channel=0, data=[34, 47]),\n",
      "   midi.NoteOnEvent(tick=1, channel=0, data=[15, 168]),\n",
      "   midi.NoteOnEvent(tick=0, channel=0, data=[122, 193]),\n",
      "   midi.NoteOnEvent(tick=9, channel=0, data=[104, 185]),\n",
      "   midi.NoteOnEvent(tick=16, channel=0, data=[72, 183]),\n",
      "   midi.NoteOffEvent(tick=5, channel=0, data=[15, 0]),\n",
      "   midi.NoteOffEvent(tick=18, channel=0, data=[34, 0]),\n",
      "   midi.NoteOnEvent(tick=6, channel=0, data=[103, 216]),\n",
      "   midi.NoteOnEvent(tick=3, channel=0, data=[26, 23]),\n",
      "   midi.NoteOffEvent(tick=2, channel=0, data=[119, 0]),\n",
      "   midi.NoteOnEvent(tick=39, channel=0, data=[8, 85]),\n",
      "   midi.NoteOnEvent(tick=17, channel=0, data=[25, 198]),\n",
      "   midi.NoteOnEvent(tick=4, channel=0, data=[57, 212]),\n",
      "   midi.NoteOnEvent(tick=12, channel=0, data=[50, 114]),\n",
      "   midi.NoteOnEvent(tick=7, channel=0, data=[104, 190]),\n",
      "   midi.NoteOffEvent(tick=3, channel=0, data=[122, 0]),\n",
      "   midi.NoteOnEvent(tick=14, channel=0, data=[32, 29]),\n",
      "   midi.NoteOnEvent(tick=3, channel=0, data=[65, 181]),\n",
      "   midi.NoteOnEvent(tick=18, channel=0, data=[88, 98]),\n",
      "   midi.NoteOnEvent(tick=5, channel=0, data=[92, 234]),\n",
      "   midi.NoteOffEvent(tick=16, channel=0, data=[81, 0]),\n",
      "   midi.NoteOnEvent(tick=6, channel=0, data=[72, 72]),\n",
      "   midi.NoteOffEvent(tick=6, channel=0, data=[65, 0]),\n",
      "   midi.NoteOffEvent(tick=5, channel=0, data=[67, 0]),\n",
      "   midi.NoteOnEvent(tick=17, channel=0, data=[86, 37]),\n",
      "   midi.NoteOnEvent(tick=4, channel=0, data=[36, 199]),\n",
      "   midi.NoteOnEvent(tick=10, channel=0, data=[17, 44]),\n",
      "   midi.NoteOffEvent(tick=6, channel=0, data=[50, 0]),\n",
      "   midi.NoteOnEvent(tick=3, channel=0, data=[99, 77]),\n",
      "   midi.NoteOnEvent(tick=18, channel=0, data=[80, 14]),\n",
      "   midi.NoteOnEvent(tick=5, channel=0, data=[82, 245]),\n",
      "   midi.NoteOffEvent(tick=8, channel=0, data=[92, 0]),\n",
      "   midi.NoteOnEvent(tick=12, channel=0, data=[3, 240]),\n",
      "   midi.NoteOffEvent(tick=24, channel=0, data=[25, 0]),\n",
      "   midi.NoteOnEvent(tick=0, channel=0, data=[122, 95]),\n",
      "   midi.NoteOnEvent(tick=2, channel=0, data=[28, 90]),\n",
      "   midi.NoteOffEvent(tick=10, channel=0, data=[8, 0]),\n",
      "   midi.NoteOnEvent(tick=4, channel=0, data=[33, 87]),\n",
      "   midi.NoteOnEvent(tick=7, channel=0, data=[2, 53]),\n",
      "   midi.NoteOffEvent(tick=5, channel=0, data=[69, 0]),\n",
      "   midi.NoteOffEvent(tick=4, channel=0, data=[122, 0]),\n",
      "   midi.NoteOffEvent(tick=3, channel=0, data=[26, 0]),\n",
      "   midi.NoteOffEvent(tick=11, channel=0, data=[103, 0]),\n",
      "   midi.NoteOffEvent(tick=41, channel=0, data=[48, 0]),\n",
      "   midi.NoteOnEvent(tick=20, channel=0, data=[46, 220]),\n",
      "   midi.NoteOnEvent(tick=14, channel=0, data=[38, 230]),\n",
      "   midi.NoteOnEvent(tick=0, channel=0, data=[9, 139]),\n",
      "   midi.NoteOnEvent(tick=18, channel=0, data=[92, 150]),\n",
      "   midi.NoteOffEvent(tick=36, channel=0, data=[104, 0]),\n",
      "   midi.NoteOffEvent(tick=10, channel=0, data=[96, 0]),\n",
      "   midi.NoteOnEvent(tick=3, channel=0, data=[82, 55]),\n",
      "   midi.NoteOnEvent(tick=17, channel=0, data=[0, 197]),\n",
      "   midi.NoteOnEvent(tick=20, channel=0, data=[62, 218]),\n",
      "   midi.NoteOffEvent(tick=1, channel=0, data=[2, 0]),\n",
      "   midi.NoteOnEvent(tick=18, channel=0, data=[81, 85]),\n",
      "   midi.NoteOffEvent(tick=12, channel=0, data=[28, 0]),\n",
      "   midi.NoteOffEvent(tick=38, channel=0, data=[81, 0]),\n",
      "   midi.NoteOffEvent(tick=18, channel=0, data=[110, 0]),\n",
      "   midi.NoteOffEvent(tick=38, channel=0, data=[18, 0]),\n",
      "   midi.NoteOffEvent(tick=8, channel=0, data=[62, 0]),\n",
      "   midi.NoteOffEvent(tick=92, channel=0, data=[88, 0]),\n",
      "   midi.NoteOffEvent(tick=20, channel=0, data=[92, 0]),\n",
      "   midi.NoteOffEvent(tick=6, channel=0, data=[89, 0]),\n",
      "   midi.NoteOffEvent(tick=36, channel=0, data=[80, 0]),\n",
      "   midi.NoteOffEvent(tick=29, channel=0, data=[32, 0]),\n",
      "   midi.NoteOffEvent(tick=18, channel=0, data=[44, 0]),\n",
      "   midi.NoteOffEvent(tick=95, channel=0, data=[57, 0]),\n",
      "   midi.NoteOffEvent(tick=23, channel=0, data=[0, 0]),\n",
      "   midi.NoteOffEvent(tick=1, channel=0, data=[46, 0]),\n",
      "   midi.NoteOffEvent(tick=2, channel=0, data=[33, 0]),\n",
      "   midi.NoteOffEvent(tick=9, channel=0, data=[36, 0]),\n",
      "   midi.NoteOffEvent(tick=10, channel=0, data=[72, 0]),\n",
      "   midi.NoteOffEvent(tick=74, channel=0, data=[86, 0]),\n",
      "   midi.NoteOffEvent(tick=28, channel=0, data=[3, 0]),\n",
      "   midi.NoteOffEvent(tick=3, channel=0, data=[99, 0]),\n",
      "   midi.NoteOffEvent(tick=66, channel=0, data=[17, 0]),\n",
      "   midi.NoteOffEvent(tick=41, channel=0, data=[38, 0]),\n",
      "   midi.NoteOffEvent(tick=7, channel=0, data=[9, 0]),\n",
      "   midi.NoteOffEvent(tick=238, channel=0, data=[82, 0]),\n",
      "   midi.EndOfTrackEvent(tick=0, data=[])]),\n",
      " midi.Track(\\\n",
      "  [midi.SetTempoEvent(tick=0, data=[8, 227, 124]),\n",
      "   midi.ProgramChangeEvent(tick=0, channel=0, data=[86]),\n",
      "   midi.NoteOnEvent(tick=8, channel=0, data=[21, 54]),\n",
      "   midi.NoteOnEvent(tick=10, channel=0, data=[38, 12]),\n",
      "   midi.NoteOnEvent(tick=17, channel=0, data=[34, 61]),\n",
      "   midi.NoteOnEvent(tick=1, channel=0, data=[116, 6]),\n",
      "   midi.NoteOnEvent(tick=17, channel=0, data=[66, 95]),\n",
      "   midi.NoteOnEvent(tick=46, channel=0, data=[58, 251]),\n",
      "   midi.NoteOnEvent(tick=23, channel=0, data=[88, 44]),\n",
      "   midi.NoteOnEvent(tick=8, channel=0, data=[89, 63]),\n",
      "   midi.NoteOnEvent(tick=0, channel=0, data=[22, 47]),\n",
      "   midi.NoteOnEvent(tick=8, channel=0, data=[85, 95]),\n",
      "   midi.NoteOnEvent(tick=0, channel=0, data=[6, 185]),\n",
      "   midi.NoteOnEvent(tick=4, channel=0, data=[76, 120]),\n",
      "   midi.NoteOnEvent(tick=4, channel=0, data=[19, 39]),\n",
      "   midi.NoteOnEvent(tick=7, channel=0, data=[80, 134]),\n",
      "   midi.NoteOnEvent(tick=10, channel=0, data=[7, 223]),\n",
      "   midi.NoteOnEvent(tick=0, channel=0, data=[49, 230]),\n",
      "   midi.NoteOffEvent(tick=25, channel=0, data=[21, 0]),\n",
      "   midi.NoteOnEvent(tick=21, channel=0, data=[65, 196]),\n",
      "   midi.NoteOnEvent(tick=0, channel=0, data=[120, 208]),\n",
      "   midi.NoteOnEvent(tick=26, channel=0, data=[21, 4]),\n",
      "   midi.NoteOnEvent(tick=2, channel=0, data=[79, 101]),\n",
      "   midi.NoteOnEvent(tick=9, channel=0, data=[108, 169]),\n",
      "   midi.NoteOnEvent(tick=11, channel=0, data=[95, 251]),\n",
      "   midi.NoteOnEvent(tick=8, channel=0, data=[97, 71]),\n",
      "   midi.NoteOnEvent(tick=11, channel=0, data=[78, 102]),\n",
      "   midi.NoteOnEvent(tick=42, channel=0, data=[62, 111]),\n",
      "   midi.NoteOnEvent(tick=4, channel=0, data=[71, 232]),\n",
      "   midi.NoteOffEvent(tick=6, channel=0, data=[97, 0]),\n",
      "   midi.NoteOffEvent(tick=18, channel=0, data=[19, 0]),\n",
      "   midi.NoteOnEvent(tick=0, channel=0, data=[47, 229]),\n",
      "   midi.NoteOnEvent(tick=0, channel=0, data=[81, 207]),\n",
      "   midi.NoteOffEvent(tick=4, channel=0, data=[66, 0]),\n",
      "   midi.NoteOnEvent(tick=0, channel=0, data=[27, 227]),\n",
      "   midi.NoteOnEvent(tick=7, channel=0, data=[110, 168]),\n",
      "   midi.NoteOnEvent(tick=2, channel=0, data=[125, 205]),\n",
      "   midi.NoteOffEvent(tick=17, channel=0, data=[6, 0]),\n",
      "   midi.NoteOnEvent(tick=10, channel=0, data=[65, 30]),\n",
      "   midi.NoteOffEvent(tick=9, channel=0, data=[76, 0]),\n",
      "   midi.NoteOnEvent(tick=1, channel=0, data=[54, 218]),\n",
      "   midi.NoteOnEvent(tick=2, channel=0, data=[45, 189]),\n",
      "   midi.NoteOnEvent(tick=2, channel=0, data=[113, 75]),\n",
      "   midi.NoteOnEvent(tick=6, channel=0, data=[60, 69]),\n",
      "   midi.NoteOnEvent(tick=34, channel=0, data=[19, 152]),\n",
      "   midi.NoteOnEvent(tick=1, channel=0, data=[23, 231]),\n",
      "   midi.NoteOffEvent(tick=7, channel=0, data=[65, 0]),\n",
      "   midi.NoteOffEvent(tick=14, channel=0, data=[88, 0]),\n",
      "   midi.NoteOnEvent(tick=11, channel=0, data=[8, 233]),\n",
      "   midi.NoteOnEvent(tick=1, channel=0, data=[67, 229]),\n",
      "   midi.NoteOnEvent(tick=8, channel=0, data=[90, 13]),\n",
      "   midi.NoteOnEvent(tick=11, channel=0, data=[15, 61]),\n",
      "   midi.NoteOffEvent(tick=4, channel=0, data=[8, 0]),\n",
      "   midi.NoteOnEvent(tick=3, channel=0, data=[95, 254]),\n",
      "   midi.NoteOnEvent(tick=15, channel=0, data=[113, 237]),\n",
      "   midi.NoteOnEvent(tick=3, channel=0, data=[69, 102]),\n",
      "   midi.NoteOnEvent(tick=3, channel=0, data=[3, 14]),\n",
      "   midi.NoteOffEvent(tick=3, channel=0, data=[7, 0]),\n",
      "   midi.NoteOffEvent(tick=5, channel=0, data=[81, 0]),\n",
      "   midi.NoteOnEvent(tick=9, channel=0, data=[70, 75]),\n",
      "   midi.NoteOffEvent(tick=5, channel=0, data=[27, 0]),\n",
      "   midi.NoteOnEvent(tick=9, channel=0, data=[55, 107]),\n",
      "   midi.NoteOnEvent(tick=1, channel=0, data=[26, 99]),\n",
      "   midi.NoteOnEvent(tick=19, channel=0, data=[106, 138]),\n",
      "   midi.NoteOnEvent(tick=0, channel=0, data=[93, 241]),\n",
      "   midi.NoteOnEvent(tick=1, channel=0, data=[88, 21]),\n",
      "   midi.NoteOffEvent(tick=10, channel=0, data=[120, 0]),\n",
      "   midi.NoteOffEvent(tick=1, channel=0, data=[93, 0]),\n",
      "   midi.NoteOffEvent(tick=17, channel=0, data=[78, 0]),\n",
      "   midi.NoteOnEvent(tick=18, channel=0, data=[68, 234]),\n",
      "   midi.NoteOnEvent(tick=2, channel=0, data=[0, 135]),\n",
      "   midi.NoteOnEvent(tick=4, channel=0, data=[64, 122]),\n",
      "   midi.NoteOffEvent(tick=11, channel=0, data=[38, 0]),\n",
      "   midi.NoteOnEvent(tick=7, channel=0, data=[118, 231]),\n",
      "   midi.NoteOffEvent(tick=2, channel=0, data=[58, 0]),\n",
      "   midi.NoteOffEvent(tick=8, channel=0, data=[60, 0]),\n",
      "   midi.NoteOffEvent(tick=3, channel=0, data=[80, 0]),\n",
      "   midi.NoteOnEvent(tick=13, channel=0, data=[103, 219]),\n",
      "   midi.NoteOffEvent(tick=8, channel=0, data=[47, 0]),\n",
      "   midi.NoteOffEvent(tick=3, channel=0, data=[79, 0]),\n",
      "   midi.NoteOnEvent(tick=8, channel=0, data=[126, 240]),\n",
      "   midi.NoteOffEvent(tick=7, channel=0, data=[67, 0]),\n",
      "   midi.NoteOffEvent(tick=10, channel=0, data=[34, 0]),\n",
      "   midi.NoteOffEvent(tick=2, channel=0, data=[68, 0]),\n",
      "   midi.NoteOnEvent(tick=6, channel=0, data=[111, 217]),\n",
      "   midi.NoteOnEvent(tick=19, channel=0, data=[73, 214]),\n",
      "   midi.NoteOnEvent(tick=3, channel=0, data=[123, 248]),\n",
      "   midi.NoteOnEvent(tick=9, channel=0, data=[90, 214]),\n",
      "   midi.NoteOnEvent(tick=4, channel=0, data=[100, 67]),\n",
      "   midi.NoteOnEvent(tick=4, channel=0, data=[28, 116]),\n",
      "   midi.NoteOnEvent(tick=10, channel=0, data=[98, 230]),\n",
      "   midi.NoteOnEvent(tick=17, channel=0, data=[62, 201]),\n",
      "   midi.NoteOffEvent(tick=11, channel=0, data=[118, 0]),\n",
      "   midi.NoteOnEvent(tick=1, channel=0, data=[93, 38]),\n",
      "   midi.NoteOffEvent(tick=3, channel=0, data=[45, 0]),\n",
      "   midi.NoteOnEvent(tick=7, channel=0, data=[65, 65]),\n",
      "   midi.NoteOffEvent(tick=9, channel=0, data=[23, 0]),\n",
      "   midi.NoteOnEvent(tick=8, channel=0, data=[105, 54]),\n",
      "   midi.NoteOnEvent(tick=1, channel=0, data=[69, 152]),\n",
      "   midi.NoteOnEvent(tick=12, channel=0, data=[119, 27]),\n",
      "   midi.NoteOffEvent(tick=11, channel=0, data=[116, 0]),\n",
      "   midi.NoteOffEvent(tick=12, channel=0, data=[49, 0]),\n",
      "   midi.NoteOffEvent(tick=2, channel=0, data=[103, 0]),\n",
      "   midi.NoteOnEvent(tick=7, channel=0, data=[67, 141]),\n",
      "   midi.NoteOffEvent(tick=8, channel=0, data=[106, 0]),\n",
      "   midi.NoteOffEvent(tick=21, channel=0, data=[88, 0]),\n",
      "   midi.NoteOffEvent(tick=0, channel=0, data=[100, 0]),\n",
      "   midi.NoteOffEvent(tick=1, channel=0, data=[3, 0]),\n",
      "   midi.NoteOnEvent(tick=6, channel=0, data=[32, 124]),\n",
      "   midi.NoteOffEvent(tick=9, channel=0, data=[125, 0]),\n",
      "   midi.NoteOffEvent(tick=3, channel=0, data=[89, 0]),\n",
      "   midi.NoteOffEvent(tick=12, channel=0, data=[22, 0]),\n",
      "   midi.NoteOffEvent(tick=45, channel=0, data=[64, 0]),\n",
      "   midi.NoteOnEvent(tick=1, channel=0, data=[69, 95]),\n",
      "   midi.NoteOnEvent(tick=0, channel=0, data=[39, 205]),\n",
      "   midi.NoteOffEvent(tick=1, channel=0, data=[54, 0]),\n",
      "   midi.NoteOffEvent(tick=15, channel=0, data=[108, 0]),\n",
      "   midi.NoteOffEvent(tick=5, channel=0, data=[85, 0]),\n",
      "   midi.NoteOnEvent(tick=9, channel=0, data=[5, 77]),\n",
      "   midi.NoteOffEvent(tick=18, channel=0, data=[71, 0]),\n",
      "   midi.NoteOffEvent(tick=1, channel=0, data=[90, 0]),\n",
      "   midi.NoteOffEvent(tick=34, channel=0, data=[93, 0]),\n",
      "   midi.NoteOffEvent(tick=64, channel=0, data=[70, 0]),\n",
      "   midi.NoteOffEvent(tick=46, channel=0, data=[5, 0]),\n",
      "   midi.NoteOffEvent(tick=2, channel=0, data=[21, 0]),\n",
      "   midi.NoteOffEvent(tick=28, channel=0, data=[19, 0]),\n",
      "   midi.NoteOffEvent(tick=9, channel=0, data=[0, 0]),\n",
      "   midi.NoteOffEvent(tick=46, channel=0, data=[110, 0]),\n",
      "   midi.NoteOffEvent(tick=22, channel=0, data=[123, 0]),\n",
      "   midi.NoteOffEvent(tick=17, channel=0, data=[67, 0]),\n",
      "   midi.NoteOffEvent(tick=4, channel=0, data=[113, 0]),\n",
      "   midi.NoteOffEvent(tick=6, channel=0, data=[105, 0]),\n",
      "   midi.NoteOffEvent(tick=18, channel=0, data=[26, 0]),\n",
      "   midi.NoteOffEvent(tick=20, channel=0, data=[95, 0]),\n",
      "   midi.NoteOffEvent(tick=3, channel=0, data=[15, 0]),\n",
      "   midi.NoteOffEvent(tick=4, channel=0, data=[69, 0]),\n",
      "   midi.NoteOffEvent(tick=4, channel=0, data=[28, 0]),\n",
      "   midi.NoteOffEvent(tick=57, channel=0, data=[126, 0]),\n",
      "   midi.NoteOffEvent(tick=4, channel=0, data=[55, 0]),\n",
      "   midi.NoteOffEvent(tick=12, channel=0, data=[119, 0]),\n",
      "   midi.NoteOffEvent(tick=21, channel=0, data=[111, 0]),\n",
      "   midi.NoteOffEvent(tick=17, channel=0, data=[65, 0]),\n",
      "   midi.NoteOffEvent(tick=103, channel=0, data=[73, 0]),\n",
      "   midi.NoteOffEvent(tick=3, channel=0, data=[98, 0]),\n",
      "   midi.NoteOffEvent(tick=87, channel=0, data=[62, 0]),\n",
      "   midi.NoteOffEvent(tick=53, channel=0, data=[39, 0]),\n",
      "   midi.NoteOffEvent(tick=167, channel=0, data=[32, 0]),\n",
      "   midi.EndOfTrackEvent(tick=0, data=[])]),\n",
      " midi.Track(\\\n",
      "  [midi.SetTempoEvent(tick=0, data=[8, 227, 124]),\n",
      "   midi.ProgramChangeEvent(tick=0, channel=0, data=[87]),\n",
      "   midi.NoteOnEvent(tick=11, channel=0, data=[16, 30]),\n",
      "   midi.NoteOnEvent(tick=11, channel=0, data=[106, 97]),\n",
      "   midi.NoteOnEvent(tick=13, channel=0, data=[58, 90]),\n",
      "   midi.NoteOnEvent(tick=7, channel=0, data=[55, 200]),\n",
      "   midi.NoteOnEvent(tick=17, channel=0, data=[116, 150]),\n",
      "   midi.NoteOnEvent(tick=9, channel=0, data=[104, 77]),\n",
      "   midi.NoteOnEvent(tick=11, channel=0, data=[108, 88]),\n",
      "   midi.NoteOnEvent(tick=18, channel=0, data=[22, 113]),\n",
      "   midi.NoteOnEvent(tick=15, channel=0, data=[5, 17]),\n",
      "   midi.NoteOnEvent(tick=5, channel=0, data=[25, 134]),\n",
      "   midi.NoteOnEvent(tick=2, channel=0, data=[123, 34]),\n",
      "   midi.NoteOnEvent(tick=3, channel=0, data=[78, 138]),\n",
      "   midi.NoteOnEvent(tick=2, channel=0, data=[46, 230]),\n",
      "   midi.NoteOnEvent(tick=6, channel=0, data=[98, 151]),\n",
      "   midi.NoteOnEvent(tick=0, channel=0, data=[49, 242]),\n",
      "   midi.NoteOnEvent(tick=10, channel=0, data=[19, 96]),\n",
      "   midi.NoteOnEvent(tick=2, channel=0, data=[120, 214]),\n",
      "   midi.NoteOnEvent(tick=0, channel=0, data=[73, 64]),\n",
      "   midi.NoteOnEvent(tick=1, channel=0, data=[30, 2]),\n",
      "   midi.NoteOnEvent(tick=48, channel=0, data=[127, 128]),\n",
      "   midi.NoteOnEvent(tick=0, channel=0, data=[103, 156]),\n",
      "   midi.NoteOnEvent(tick=9, channel=0, data=[40, 217]),\n",
      "   midi.NoteOnEvent(tick=5, channel=0, data=[102, 155]),\n",
      "   midi.NoteOffEvent(tick=8, channel=0, data=[19, 0]),\n",
      "   midi.NoteOnEvent(tick=15, channel=0, data=[83, 186]),\n",
      "   midi.NoteOffEvent(tick=4, channel=0, data=[78, 0]),\n",
      "   midi.NoteOnEvent(tick=9, channel=0, data=[20, 221]),\n",
      "   midi.NoteOnEvent(tick=18, channel=0, data=[18, 17]),\n",
      "   midi.NoteOffEvent(tick=6, channel=0, data=[103, 0]),\n",
      "   midi.NoteOnEvent(tick=4, channel=0, data=[23, 238]),\n",
      "   midi.NoteOnEvent(tick=20, channel=0, data=[75, 73]),\n",
      "   midi.NoteOffEvent(tick=15, channel=0, data=[108, 0]),\n",
      "   midi.NoteOffEvent(tick=4, channel=0, data=[120, 0]),\n",
      "   midi.NoteOnEvent(tick=14, channel=0, data=[40, 248]),\n",
      "   midi.NoteOffEvent(tick=5, channel=0, data=[55, 0]),\n",
      "   midi.NoteOnEvent(tick=5, channel=0, data=[123, 68]),\n",
      "   midi.NoteOnEvent(tick=5, channel=0, data=[107, 144]),\n",
      "   midi.NoteOnEvent(tick=9, channel=0, data=[77, 89]),\n",
      "   midi.NoteOnEvent(tick=3, channel=0, data=[48, 55]),\n",
      "   midi.NoteOnEvent(tick=1, channel=0, data=[44, 206]),\n",
      "   midi.NoteOnEvent(tick=7, channel=0, data=[85, 66]),\n",
      "   midi.NoteOnEvent(tick=15, channel=0, data=[55, 255]),\n",
      "   midi.NoteOffEvent(tick=9, channel=0, data=[25, 0]),\n",
      "   midi.NoteOnEvent(tick=23, channel=0, data=[115, 104]),\n",
      "   midi.NoteOffEvent(tick=1, channel=0, data=[16, 0]),\n",
      "   midi.NoteOnEvent(tick=3, channel=0, data=[122, 69]),\n",
      "   midi.NoteOffEvent(tick=40, channel=0, data=[115, 0]),\n",
      "   midi.NoteOnEvent(tick=3, channel=0, data=[57, 153]),\n",
      "   midi.NoteOnEvent(tick=22, channel=0, data=[76, 215]),\n",
      "   midi.NoteOnEvent(tick=3, channel=0, data=[120, 2]),\n",
      "   midi.NoteOffEvent(tick=4, channel=0, data=[22, 0]),\n",
      "   midi.NoteOnEvent(tick=3, channel=0, data=[39, 8]),\n",
      "   midi.NoteOnEvent(tick=4, channel=0, data=[30, 205]),\n",
      "   midi.NoteOffEvent(tick=4, channel=0, data=[120, 0]),\n",
      "   midi.NoteOnEvent(tick=9, channel=0, data=[2, 227]),\n",
      "   midi.NoteOnEvent(tick=15, channel=0, data=[62, 125]),\n",
      "   midi.NoteOnEvent(tick=15, channel=0, data=[46, 181]),\n",
      "   midi.NoteOnEvent(tick=5, channel=0, data=[99, 173]),\n",
      "   midi.NoteOffEvent(tick=14, channel=0, data=[49, 0]),\n",
      "   midi.NoteOnEvent(tick=7, channel=0, data=[102, 170]),\n",
      "   midi.NoteOnEvent(tick=12, channel=0, data=[32, 25]),\n",
      "   midi.NoteOffEvent(tick=6, channel=0, data=[18, 0]),\n",
      "   midi.NoteOffEvent(tick=1, channel=0, data=[104, 0]),\n",
      "   midi.NoteOnEvent(tick=6, channel=0, data=[108, 130]),\n",
      "   midi.NoteOnEvent(tick=9, channel=0, data=[60, 251]),\n",
      "   midi.NoteOffEvent(tick=16, channel=0, data=[5, 0]),\n",
      "   midi.NoteOnEvent(tick=20, channel=0, data=[35, 30]),\n",
      "   midi.NoteOnEvent(tick=13, channel=0, data=[96, 148]),\n",
      "   midi.NoteOnEvent(tick=12, channel=0, data=[93, 95]),\n",
      "   midi.NoteOffEvent(tick=8, channel=0, data=[58, 0]),\n",
      "   midi.NoteOnEvent(tick=1, channel=0, data=[118, 18]),\n",
      "   midi.NoteOnEvent(tick=34, channel=0, data=[111, 249]),\n",
      "   midi.NoteOnEvent(tick=11, channel=0, data=[24, 179]),\n",
      "   midi.NoteOffEvent(tick=19, channel=0, data=[2, 0]),\n",
      "   midi.NoteOffEvent(tick=7, channel=0, data=[77, 0]),\n",
      "   midi.NoteOffEvent(tick=5, channel=0, data=[32, 0]),\n",
      "   midi.NoteOffEvent(tick=13, channel=0, data=[35, 0]),\n",
      "   midi.NoteOnEvent(tick=3, channel=0, data=[123, 91]),\n",
      "   midi.NoteOffEvent(tick=3, channel=0, data=[111, 0]),\n",
      "   midi.NoteOffEvent(tick=10, channel=0, data=[106, 0]),\n",
      "   midi.NoteOnEvent(tick=12, channel=0, data=[125, 41]),\n",
      "   midi.NoteOnEvent(tick=2, channel=0, data=[49, 123]),\n",
      "   midi.NoteOnEvent(tick=12, channel=0, data=[16, 117]),\n",
      "   midi.NoteOffEvent(tick=34, channel=0, data=[23, 0]),\n",
      "   midi.NoteOnEvent(tick=33, channel=0, data=[58, 69]),\n",
      "   midi.NoteOffEvent(tick=1, channel=0, data=[57, 0]),\n",
      "   midi.NoteOffEvent(tick=2, channel=0, data=[62, 0]),\n",
      "   midi.NoteOffEvent(tick=7, channel=0, data=[96, 0]),\n",
      "   midi.NoteOffEvent(tick=9, channel=0, data=[98, 0]),\n",
      "   midi.NoteOffEvent(tick=25, channel=0, data=[116, 0]),\n",
      "   midi.NoteOffEvent(tick=2, channel=0, data=[73, 0]),\n",
      "   midi.NoteOffEvent(tick=0, channel=0, data=[125, 0]),\n",
      "   midi.NoteOnEvent(tick=17, channel=0, data=[118, 97]),\n",
      "   midi.NoteOnEvent(tick=10, channel=0, data=[91, 245]),\n",
      "   midi.NoteOffEvent(tick=8, channel=0, data=[107, 0]),\n",
      "   midi.NoteOffEvent(tick=53, channel=0, data=[24, 0]),\n",
      "   midi.NoteOnEvent(tick=7, channel=0, data=[25, 189]),\n",
      "   midi.NoteOffEvent(tick=11, channel=0, data=[55, 0]),\n",
      "   midi.NoteOffEvent(tick=18, channel=0, data=[49, 0]),\n",
      "   midi.NoteOffEvent(tick=9, channel=0, data=[83, 0]),\n",
      "   midi.NoteOffEvent(tick=17, channel=0, data=[25, 0]),\n",
      "   midi.NoteOffEvent(tick=0, channel=0, data=[40, 0]),\n",
      "   midi.NoteOffEvent(tick=9, channel=0, data=[44, 0]),\n",
      "   midi.NoteOffEvent(tick=9, channel=0, data=[85, 0]),\n",
      "   midi.NoteOffEvent(tick=65, channel=0, data=[20, 0]),\n",
      "   midi.NoteOffEvent(tick=25, channel=0, data=[127, 0]),\n",
      "   midi.NoteOffEvent(tick=31, channel=0, data=[48, 0]),\n",
      "   midi.NoteOffEvent(tick=23, channel=0, data=[39, 0]),\n",
      "   midi.NoteOffEvent(tick=1, channel=0, data=[122, 0]),\n",
      "   midi.NoteOffEvent(tick=17, channel=0, data=[75, 0]),\n",
      "   midi.NoteOffEvent(tick=15, channel=0, data=[60, 0]),\n",
      "   midi.NoteOffEvent(tick=4, channel=0, data=[99, 0]),\n",
      "   midi.NoteOffEvent(tick=12, channel=0, data=[102, 0]),\n",
      "   midi.NoteOffEvent(tick=41, channel=0, data=[93, 0]),\n",
      "   midi.NoteOffEvent(tick=33, channel=0, data=[58, 0]),\n",
      "   midi.NoteOffEvent(tick=1, channel=0, data=[30, 0]),\n",
      "   midi.NoteOffEvent(tick=77, channel=0, data=[123, 0]),\n",
      "   midi.NoteOffEvent(tick=31, channel=0, data=[76, 0]),\n",
      "   midi.NoteOffEvent(tick=28, channel=0, data=[46, 0]),\n",
      "   midi.NoteOffEvent(tick=22, channel=0, data=[108, 0]),\n",
      "   midi.NoteOffEvent(tick=26, channel=0, data=[91, 0]),\n",
      "   midi.NoteOffEvent(tick=108, channel=0, data=[16, 0]),\n",
      "   midi.NoteOffEvent(tick=152, channel=0, data=[118, 0]),\n",
      "   midi.EndOfTrackEvent(tick=0, data=[])]),\n",
      " midi.Track(\\\n",
      "  [midi.SetTempoEvent(tick=0, data=[8, 227, 124]),\n",
      "   midi.ProgramChangeEvent(tick=0, channel=0, data=[88]),\n",
      "   midi.NoteOnEvent(tick=3, channel=0, data=[107, 124]),\n",
      "   midi.NoteOnEvent(tick=11, channel=0, data=[68, 187]),\n",
      "   midi.NoteOnEvent(tick=38, channel=0, data=[14, 212]),\n",
      "   midi.NoteOnEvent(tick=0, channel=0, data=[113, 245]),\n",
      "   midi.NoteOnEvent(tick=11, channel=0, data=[114, 186]),\n",
      "   midi.NoteOnEvent(tick=36, channel=0, data=[10, 132]),\n",
      "   midi.NoteOnEvent(tick=22, channel=0, data=[103, 216]),\n",
      "   midi.NoteOnEvent(tick=5, channel=0, data=[122, 12]),\n",
      "   midi.NoteOnEvent(tick=4, channel=0, data=[33, 178]),\n",
      "   midi.NoteOnEvent(tick=2, channel=0, data=[112, 206]),\n",
      "   midi.NoteOnEvent(tick=0, channel=0, data=[58, 102]),\n",
      "   midi.NoteOnEvent(tick=12, channel=0, data=[9, 200]),\n",
      "   midi.NoteOffEvent(tick=22, channel=0, data=[58, 0]),\n",
      "   midi.NoteOnEvent(tick=15, channel=0, data=[41, 134]),\n",
      "   midi.NoteOnEvent(tick=36, channel=0, data=[99, 176]),\n",
      "   midi.NoteOnEvent(tick=1, channel=0, data=[31, 173]),\n",
      "   midi.NoteOnEvent(tick=4, channel=0, data=[59, 228]),\n",
      "   midi.NoteOffEvent(tick=4, channel=0, data=[41, 0]),\n",
      "   midi.NoteOnEvent(tick=0, channel=0, data=[50, 247]),\n",
      "   midi.NoteOnEvent(tick=11, channel=0, data=[69, 236]),\n",
      "   midi.NoteOnEvent(tick=20, channel=0, data=[19, 34]),\n",
      "   midi.NoteOnEvent(tick=2, channel=0, data=[102, 128]),\n",
      "   midi.NoteOffEvent(tick=13, channel=0, data=[69, 0]),\n",
      "   midi.NoteOnEvent(tick=18, channel=0, data=[25, 31]),\n",
      "   midi.NoteOffEvent(tick=38, channel=0, data=[122, 0]),\n",
      "   midi.NoteOnEvent(tick=9, channel=0, data=[81, 47]),\n",
      "   midi.NoteOnEvent(tick=9, channel=0, data=[73, 63]),\n",
      "   midi.NoteOnEvent(tick=13, channel=0, data=[3, 103]),\n",
      "   midi.NoteOffEvent(tick=7, channel=0, data=[102, 0]),\n",
      "   midi.NoteOffEvent(tick=4, channel=0, data=[10, 0]),\n",
      "   midi.NoteOnEvent(tick=5, channel=0, data=[54, 77]),\n",
      "   midi.NoteOffEvent(tick=8, channel=0, data=[68, 0]),\n",
      "   midi.NoteOnEvent(tick=8, channel=0, data=[77, 117]),\n",
      "   midi.NoteOnEvent(tick=0, channel=0, data=[107, 161]),\n",
      "   midi.NoteOnEvent(tick=13, channel=0, data=[45, 171]),\n",
      "   midi.NoteOnEvent(tick=0, channel=0, data=[85, 72]),\n",
      "   midi.NoteOnEvent(tick=6, channel=0, data=[54, 110]),\n",
      "   midi.NoteOffEvent(tick=1, channel=0, data=[113, 0]),\n",
      "   midi.NoteOffEvent(tick=1, channel=0, data=[50, 0]),\n",
      "   midi.NoteOffEvent(tick=22, channel=0, data=[54, 0]),\n",
      "   midi.NoteOnEvent(tick=1, channel=0, data=[50, 24]),\n",
      "   midi.NoteOnEvent(tick=22, channel=0, data=[120, 60]),\n",
      "   midi.NoteOnEvent(tick=16, channel=0, data=[78, 106]),\n",
      "   midi.NoteOnEvent(tick=10, channel=0, data=[107, 47]),\n",
      "   midi.NoteOnEvent(tick=22, channel=0, data=[103, 200]),\n",
      "   midi.NoteOnEvent(tick=5, channel=0, data=[47, 194]),\n",
      "   midi.NoteOnEvent(tick=8, channel=0, data=[62, 86]),\n",
      "   midi.NoteOffEvent(tick=10, channel=0, data=[31, 0]),\n",
      "   midi.NoteOnEvent(tick=26, channel=0, data=[95, 77]),\n",
      "   midi.NoteOnEvent(tick=3, channel=0, data=[65, 104]),\n",
      "   midi.NoteOnEvent(tick=1, channel=0, data=[14, 244]),\n",
      "   midi.NoteOnEvent(tick=10, channel=0, data=[117, 141]),\n",
      "   midi.NoteOnEvent(tick=27, channel=0, data=[65, 22]),\n",
      "   midi.NoteOnEvent(tick=10, channel=0, data=[4, 27]),\n",
      "   midi.NoteOnEvent(tick=0, channel=0, data=[104, 2]),\n",
      "   midi.NoteOnEvent(tick=5, channel=0, data=[120, 158]),\n",
      "   midi.NoteOffEvent(tick=1, channel=0, data=[19, 0]),\n",
      "   midi.NoteOnEvent(tick=37, channel=0, data=[71, 108]),\n",
      "   midi.NoteOffEvent(tick=2, channel=0, data=[114, 0]),\n",
      "   midi.NoteOnEvent(tick=3, channel=0, data=[123, 196]),\n",
      "   midi.NoteOffEvent(tick=8, channel=0, data=[107, 0]),\n",
      "   midi.NoteOffEvent(tick=12, channel=0, data=[81, 0]),\n",
      "   midi.NoteOnEvent(tick=11, channel=0, data=[98, 45]),\n",
      "   midi.NoteOffEvent(tick=3, channel=0, data=[78, 0]),\n",
      "   midi.NoteOnEvent(tick=5, channel=0, data=[102, 67]),\n",
      "   midi.NoteOnEvent(tick=2, channel=0, data=[74, 233]),\n",
      "   midi.NoteOnEvent(tick=45, channel=0, data=[110, 37]),\n",
      "   midi.NoteOnEvent(tick=2, channel=0, data=[42, 24]),\n",
      "   midi.NoteOnEvent(tick=0, channel=0, data=[43, 206]),\n",
      "   midi.NoteOffEvent(tick=1, channel=0, data=[103, 0]),\n",
      "   midi.NoteOffEvent(tick=12, channel=0, data=[117, 0]),\n",
      "   midi.NoteOnEvent(tick=23, channel=0, data=[78, 41]),\n",
      "   midi.NoteOnEvent(tick=0, channel=0, data=[100, 149]),\n",
      "   midi.NoteOffEvent(tick=1, channel=0, data=[99, 0]),\n",
      "   midi.NoteOnEvent(tick=13, channel=0, data=[16, 95]),\n",
      "   midi.NoteOffEvent(tick=2, channel=0, data=[45, 0]),\n",
      "   midi.NoteOffEvent(tick=9, channel=0, data=[9, 0]),\n",
      "   midi.NoteOffEvent(tick=2, channel=0, data=[120, 0]),\n",
      "   midi.NoteOnEvent(tick=9, channel=0, data=[50, 225]),\n",
      "   midi.NoteOnEvent(tick=5, channel=0, data=[55, 21]),\n",
      "   midi.NoteOnEvent(tick=2, channel=0, data=[2, 240]),\n",
      "   midi.NoteOffEvent(tick=2, channel=0, data=[73, 0]),\n",
      "   midi.NoteOffEvent(tick=3, channel=0, data=[98, 0]),\n",
      "   midi.NoteOffEvent(tick=0, channel=0, data=[104, 0]),\n",
      "   midi.NoteOffEvent(tick=7, channel=0, data=[3, 0]),\n",
      "   midi.NoteOnEvent(tick=12, channel=0, data=[75, 157]),\n",
      "   midi.NoteOffEvent(tick=33, channel=0, data=[25, 0]),\n",
      "   midi.NoteOnEvent(tick=10, channel=0, data=[106, 240]),\n",
      "   midi.NoteOffEvent(tick=21, channel=0, data=[102, 0]),\n",
      "   midi.NoteOnEvent(tick=13, channel=0, data=[117, 144]),\n",
      "   midi.NoteOffEvent(tick=2, channel=0, data=[16, 0]),\n",
      "   midi.NoteOnEvent(tick=0, channel=0, data=[79, 214]),\n",
      "   midi.NoteOffEvent(tick=14, channel=0, data=[77, 0]),\n",
      "   midi.NoteOnEvent(tick=2, channel=0, data=[71, 181]),\n",
      "   midi.NoteOnEvent(tick=3, channel=0, data=[48, 207]),\n",
      "   midi.NoteOnEvent(tick=4, channel=0, data=[103, 181]),\n",
      "   midi.NoteOffEvent(tick=3, channel=0, data=[110, 0]),\n",
      "   midi.NoteOnEvent(tick=11, channel=0, data=[92, 233]),\n",
      "   midi.NoteOffEvent(tick=3, channel=0, data=[112, 0]),\n",
      "   midi.NoteOffEvent(tick=3, channel=0, data=[100, 0]),\n",
      "   midi.NoteOnEvent(tick=3, channel=0, data=[84, 181]),\n",
      "   midi.NoteOffEvent(tick=5, channel=0, data=[43, 0]),\n",
      "   midi.NoteOnEvent(tick=13, channel=0, data=[86, 198]),\n",
      "   midi.NoteOnEvent(tick=0, channel=0, data=[37, 230]),\n",
      "   midi.NoteOffEvent(tick=32, channel=0, data=[59, 0]),\n",
      "   midi.NoteOffEvent(tick=27, channel=0, data=[33, 0]),\n",
      "   midi.NoteOffEvent(tick=14, channel=0, data=[42, 0]),\n",
      "   midi.NoteOffEvent(tick=66, channel=0, data=[123, 0]),\n",
      "   midi.NoteOffEvent(tick=13, channel=0, data=[75, 0]),\n",
      "   midi.NoteOffEvent(tick=22, channel=0, data=[79, 0]),\n",
      "   midi.NoteOffEvent(tick=3, channel=0, data=[84, 0]),\n",
      "   midi.NoteOffEvent(tick=9, channel=0, data=[117, 0]),\n",
      "   midi.NoteOffEvent(tick=16, channel=0, data=[65, 0]),\n",
      "   midi.NoteOffEvent(tick=48, channel=0, data=[95, 0]),\n",
      "   midi.NoteOffEvent(tick=11, channel=0, data=[85, 0]),\n",
      "   midi.NoteOffEvent(tick=18, channel=0, data=[71, 0]),\n",
      "   midi.NoteOffEvent(tick=13, channel=0, data=[47, 0]),\n",
      "   midi.NoteOffEvent(tick=27, channel=0, data=[2, 0]),\n",
      "   midi.NoteOffEvent(tick=30, channel=0, data=[92, 0]),\n",
      "   midi.NoteOffEvent(tick=20, channel=0, data=[4, 0]),\n",
      "   midi.NoteOffEvent(tick=29, channel=0, data=[14, 0]),\n",
      "   midi.NoteOffEvent(tick=57, channel=0, data=[50, 0]),\n",
      "   midi.NoteOffEvent(tick=7, channel=0, data=[106, 0]),\n",
      "   midi.NoteOffEvent(tick=12, channel=0, data=[48, 0]),\n",
      "   midi.NoteOffEvent(tick=50, channel=0, data=[62, 0]),\n",
      "   midi.NoteOffEvent(tick=16, channel=0, data=[55, 0]),\n",
      "   midi.NoteOffEvent(tick=66, channel=0, data=[74, 0]),\n",
      "   midi.NoteOffEvent(tick=48, channel=0, data=[86, 0]),\n",
      "   midi.NoteOffEvent(tick=11, channel=0, data=[78, 0]),\n",
      "   midi.NoteOffEvent(tick=178, channel=0, data=[37, 0]),\n",
      "   midi.NoteOffEvent(tick=100, channel=0, data=[103, 0]),\n",
      "   midi.EndOfTrackEvent(tick=0, data=[])]),\n",
      " midi.Track(\\\n",
      "  [midi.SetTempoEvent(tick=0, data=[8, 227, 124]),\n",
      "   midi.ProgramChangeEvent(tick=0, channel=0, data=[89]),\n",
      "   midi.NoteOnEvent(tick=97, channel=0, data=[90, 26]),\n",
      "   midi.NoteOnEvent(tick=15, channel=0, data=[75, 90]),\n",
      "   midi.NoteOnEvent(tick=10, channel=0, data=[42, 255]),\n",
      "   midi.NoteOnEvent(tick=1, channel=0, data=[60, 1]),\n",
      "   midi.NoteOnEvent(tick=6, channel=0, data=[14, 28]),\n",
      "   midi.NoteOnEvent(tick=3, channel=0, data=[41, 96]),\n",
      "   midi.NoteOnEvent(tick=11, channel=0, data=[109, 156]),\n",
      "   midi.NoteOnEvent(tick=3, channel=0, data=[31, 23]),\n",
      "   midi.NoteOnEvent(tick=61, channel=0, data=[47, 75]),\n",
      "   midi.NoteOnEvent(tick=11, channel=0, data=[95, 236]),\n",
      "   midi.NoteOnEvent(tick=4, channel=0, data=[39, 66]),\n",
      "   midi.NoteOnEvent(tick=4, channel=0, data=[64, 16]),\n",
      "   midi.NoteOffEvent(tick=7, channel=0, data=[109, 0]),\n",
      "   midi.NoteOnEvent(tick=21, channel=0, data=[89, 128]),\n",
      "   midi.NoteOnEvent(tick=5, channel=0, data=[2, 53]),\n",
      "   midi.NoteOnEvent(tick=39, channel=0, data=[82, 49]),\n",
      "   midi.NoteOnEvent(tick=10, channel=0, data=[30, 171]),\n",
      "   midi.NoteOnEvent(tick=10, channel=0, data=[67, 33]),\n",
      "   midi.NoteOnEvent(tick=14, channel=0, data=[14, 236]),\n",
      "   midi.NoteOffEvent(tick=19, channel=0, data=[64, 0]),\n",
      "   midi.NoteOnEvent(tick=23, channel=0, data=[37, 110]),\n",
      "   midi.NoteOnEvent(tick=36, channel=0, data=[89, 205]),\n",
      "   midi.NoteOnEvent(tick=23, channel=0, data=[75, 131]),\n",
      "   midi.NoteOnEvent(tick=9, channel=0, data=[38, 223]),\n",
      "   midi.NoteOnEvent(tick=34, channel=0, data=[25, 206]),\n",
      "   midi.NoteOnEvent(tick=0, channel=0, data=[114, 88]),\n",
      "   midi.NoteOnEvent(tick=17, channel=0, data=[6, 29]),\n",
      "   midi.NoteOffEvent(tick=20, channel=0, data=[31, 0]),\n",
      "   midi.NoteOnEvent(tick=19, channel=0, data=[91, 25]),\n",
      "   midi.NoteOnEvent(tick=3, channel=0, data=[106, 112]),\n",
      "   midi.NoteOnEvent(tick=21, channel=0, data=[4, 148]),\n",
      "   midi.NoteOnEvent(tick=1, channel=0, data=[85, 104]),\n",
      "   midi.NoteOnEvent(tick=11, channel=0, data=[80, 119]),\n",
      "   midi.NoteOnEvent(tick=4, channel=0, data=[127, 33]),\n",
      "   midi.NoteOnEvent(tick=20, channel=0, data=[93, 137]),\n",
      "   midi.NoteOnEvent(tick=3, channel=0, data=[0, 60]),\n",
      "   midi.NoteOffEvent(tick=11, channel=0, data=[6, 0]),\n",
      "   midi.NoteOffEvent(tick=14, channel=0, data=[82, 0]),\n",
      "   midi.NoteOffEvent(tick=10, channel=0, data=[85, 0]),\n",
      "   midi.NoteOnEvent(tick=2, channel=0, data=[115, 175]),\n",
      "   midi.NoteOnEvent(tick=2, channel=0, data=[80, 125]),\n",
      "   midi.NoteOffEvent(tick=1, channel=0, data=[60, 0]),\n",
      "   midi.NoteOnEvent(tick=4, channel=0, data=[14, 222]),\n",
      "   midi.NoteOnEvent(tick=31, channel=0, data=[55, 225]),\n",
      "   midi.NoteOnEvent(tick=10, channel=0, data=[52, 28]),\n",
      "   midi.NoteOffEvent(tick=5, channel=0, data=[89, 0]),\n",
      "   midi.NoteOffEvent(tick=0, channel=0, data=[95, 0]),\n",
      "   midi.NoteOffEvent(tick=5, channel=0, data=[37, 0]),\n",
      "   midi.NoteOnEvent(tick=27, channel=0, data=[84, 102]),\n",
      "   midi.NoteOnEvent(tick=10, channel=0, data=[108, 108]),\n",
      "   midi.NoteOnEvent(tick=12, channel=0, data=[84, 29]),\n",
      "   midi.NoteOffEvent(tick=16, channel=0, data=[39, 0]),\n",
      "   midi.NoteOnEvent(tick=0, channel=0, data=[22, 165]),\n",
      "   midi.NoteOnEvent(tick=24, channel=0, data=[67, 14]),\n",
      "   midi.NoteOffEvent(tick=1, channel=0, data=[42, 0]),\n",
      "   midi.NoteOffEvent(tick=25, channel=0, data=[91, 0]),\n",
      "   midi.NoteOnEvent(tick=8, channel=0, data=[125, 251]),\n",
      "   midi.NoteOnEvent(tick=6, channel=0, data=[96, 127]),\n",
      "   midi.NoteOnEvent(tick=36, channel=0, data=[53, 64]),\n",
      "   midi.NoteOnEvent(tick=0, channel=0, data=[120, 251]),\n",
      "   midi.NoteOffEvent(tick=16, channel=0, data=[114, 0]),\n",
      "   midi.NoteOnEvent(tick=6, channel=0, data=[85, 70]),\n",
      "   midi.NoteOnEvent(tick=6, channel=0, data=[88, 55]),\n",
      "   midi.NoteOnEvent(tick=4, channel=0, data=[42, 65]),\n",
      "   midi.NoteOnEvent(tick=3, channel=0, data=[19, 91]),\n",
      "   midi.NoteOnEvent(tick=9, channel=0, data=[102, 121]),\n",
      "   midi.NoteOffEvent(tick=18, channel=0, data=[67, 0]),\n",
      "   midi.NoteOffEvent(tick=5, channel=0, data=[30, 0]),\n",
      "   midi.NoteOffEvent(tick=12, channel=0, data=[47, 0]),\n",
      "   midi.NoteOnEvent(tick=12, channel=0, data=[91, 91]),\n",
      "   midi.NoteOffEvent(tick=11, channel=0, data=[93, 0]),\n",
      "   midi.NoteOnEvent(tick=4, channel=0, data=[14, 228]),\n",
      "   midi.NoteOnEvent(tick=1, channel=0, data=[82, 52]),\n",
      "   midi.NoteOnEvent(tick=8, channel=0, data=[67, 111]),\n",
      "   midi.NoteOffEvent(tick=7, channel=0, data=[67, 0]),\n",
      "   midi.NoteOffEvent(tick=28, channel=0, data=[19, 0]),\n",
      "   midi.NoteOffEvent(tick=15, channel=0, data=[75, 0]),\n",
      "   midi.NoteOffEvent(tick=33, channel=0, data=[102, 0]),\n",
      "   midi.NoteOffEvent(tick=6, channel=0, data=[88, 0]),\n",
      "   midi.NoteOffEvent(tick=7, channel=0, data=[125, 0]),\n",
      "   midi.NoteOffEvent(tick=26, channel=0, data=[90, 0]),\n",
      "   midi.NoteOffEvent(tick=4, channel=0, data=[108, 0]),\n",
      "   midi.NoteOffEvent(tick=21, channel=0, data=[41, 0]),\n",
      "   midi.NoteOffEvent(tick=17, channel=0, data=[115, 0]),\n",
      "   midi.NoteOffEvent(tick=5, channel=0, data=[25, 0]),\n",
      "   midi.NoteOffEvent(tick=10, channel=0, data=[2, 0]),\n",
      "   midi.NoteOffEvent(tick=3, channel=0, data=[127, 0]),\n",
      "   midi.NoteOffEvent(tick=53, channel=0, data=[55, 0]),\n",
      "   midi.NoteOffEvent(tick=63, channel=0, data=[4, 0]),\n",
      "   midi.NoteOffEvent(tick=24, channel=0, data=[53, 0]),\n",
      "   midi.NoteOffEvent(tick=35, channel=0, data=[42, 0]),\n",
      "   midi.NoteOffEvent(tick=55, channel=0, data=[106, 0]),\n",
      "   midi.NoteOffEvent(tick=18, channel=0, data=[38, 0]),\n",
      "   midi.NoteOffEvent(tick=44, channel=0, data=[0, 0]),\n",
      "   midi.NoteOffEvent(tick=2, channel=0, data=[80, 0]),\n",
      "   midi.NoteOffEvent(tick=60, channel=0, data=[52, 0]),\n",
      "   midi.NoteOffEvent(tick=2, channel=0, data=[22, 0]),\n",
      "   midi.NoteOffEvent(tick=24, channel=0, data=[96, 0]),\n",
      "   midi.NoteOffEvent(tick=45, channel=0, data=[14, 0]),\n",
      "   midi.NoteOffEvent(tick=16, channel=0, data=[84, 0]),\n",
      "   midi.NoteOffEvent(tick=27, channel=0, data=[85, 0]),\n",
      "   midi.NoteOffEvent(tick=79, channel=0, data=[82, 0]),\n",
      "   midi.NoteOffEvent(tick=16, channel=0, data=[91, 0]),\n",
      "   midi.NoteOffEvent(tick=111, channel=0, data=[120, 0]),\n",
      "   midi.EndOfTrackEvent(tick=0, data=[])]),\n",
      " midi.Track(\\\n",
      "  [midi.SetTempoEvent(tick=0, data=[8, 227, 124]),\n",
      "   midi.ProgramChangeEvent(tick=0, channel=0, data=[90]),\n",
      "   midi.NoteOnEvent(tick=6, channel=0, data=[52, 43]),\n",
      "   midi.NoteOnEvent(tick=113, channel=0, data=[47, 178]),\n",
      "   midi.NoteOnEvent(tick=0, channel=0, data=[100, 89]),\n",
      "   midi.NoteOnEvent(tick=5, channel=0, data=[67, 196]),\n",
      "   midi.NoteOnEvent(tick=2, channel=0, data=[113, 222]),\n",
      "   midi.NoteOnEvent(tick=16, channel=0, data=[59, 58]),\n",
      "   midi.NoteOnEvent(tick=2, channel=0, data=[102, 181]),\n",
      "   midi.NoteOnEvent(tick=65, channel=0, data=[75, 190]),\n",
      "   midi.NoteOnEvent(tick=31, channel=0, data=[110, 19]),\n",
      "   midi.NoteOnEvent(tick=16, channel=0, data=[6, 35]),\n",
      "   midi.NoteOnEvent(tick=3, channel=0, data=[52, 37]),\n",
      "   midi.NoteOnEvent(tick=2, channel=0, data=[38, 17]),\n",
      "   midi.NoteOffEvent(tick=43, channel=0, data=[110, 0]),\n",
      "   midi.NoteOffEvent(tick=2, channel=0, data=[75, 0]),\n",
      "   midi.NoteOffEvent(tick=3, channel=0, data=[6, 0]),\n",
      "   midi.NoteOnEvent(tick=23, channel=0, data=[48, 37]),\n",
      "   midi.NoteOnEvent(tick=9, channel=0, data=[73, 240]),\n",
      "   midi.NoteOnEvent(tick=4, channel=0, data=[71, 121]),\n",
      "   midi.NoteOnEvent(tick=3, channel=0, data=[94, 75]),\n",
      "   midi.NoteOffEvent(tick=15, channel=0, data=[71, 0]),\n",
      "   midi.NoteOnEvent(tick=8, channel=0, data=[114, 27]),\n",
      "   midi.NoteOffEvent(tick=26, channel=0, data=[102, 0]),\n",
      "   midi.NoteOnEvent(tick=9, channel=0, data=[64, 56]),\n",
      "   midi.NoteOnEvent(tick=10, channel=0, data=[33, 118]),\n",
      "   midi.NoteOnEvent(tick=11, channel=0, data=[8, 171]),\n",
      "   midi.NoteOnEvent(tick=6, channel=0, data=[50, 6]),\n",
      "   midi.NoteOnEvent(tick=40, channel=0, data=[46, 191]),\n",
      "   midi.NoteOnEvent(tick=4, channel=0, data=[76, 7]),\n",
      "   midi.NoteOnEvent(tick=12, channel=0, data=[70, 50]),\n",
      "   midi.NoteOffEvent(tick=1, channel=0, data=[50, 0]),\n",
      "   midi.NoteOnEvent(tick=20, channel=0, data=[17, 26]),\n",
      "   midi.NoteOnEvent(tick=11, channel=0, data=[100, 177]),\n",
      "   midi.NoteOffEvent(tick=2, channel=0, data=[59, 0]),\n",
      "   midi.NoteOnEvent(tick=8, channel=0, data=[110, 100]),\n",
      "   midi.NoteOffEvent(tick=10, channel=0, data=[73, 0]),\n",
      "   midi.NoteOnEvent(tick=5, channel=0, data=[89, 248]),\n",
      "   midi.NoteOnEvent(tick=8, channel=0, data=[21, 78]),\n",
      "   midi.NoteOnEvent(tick=0, channel=0, data=[96, 189]),\n",
      "   midi.NoteOnEvent(tick=2, channel=0, data=[27, 49]),\n",
      "   midi.NoteOnEvent(tick=1, channel=0, data=[26, 86]),\n",
      "   midi.NoteOnEvent(tick=1, channel=0, data=[51, 236]),\n",
      "   midi.NoteOnEvent(tick=2, channel=0, data=[7, 180]),\n",
      "   midi.NoteOffEvent(tick=7, channel=0, data=[46, 0]),\n",
      "   midi.NoteOnEvent(tick=1, channel=0, data=[26, 52]),\n",
      "   midi.NoteOnEvent(tick=3, channel=0, data=[88, 168]),\n",
      "   midi.NoteOnEvent(tick=26, channel=0, data=[76, 239]),\n",
      "   midi.NoteOnEvent(tick=42, channel=0, data=[121, 111]),\n",
      "   midi.NoteOnEvent(tick=8, channel=0, data=[2, 255]),\n",
      "   midi.NoteOnEvent(tick=0, channel=0, data=[23, 181]),\n",
      "   midi.NoteOffEvent(tick=5, channel=0, data=[23, 0]),\n",
      "   midi.NoteOnEvent(tick=1, channel=0, data=[37, 131]),\n",
      "   midi.NoteOnEvent(tick=7, channel=0, data=[116, 163]),\n",
      "   midi.NoteOnEvent(tick=24, channel=0, data=[9, 253]),\n",
      "   midi.NoteOffEvent(tick=19, channel=0, data=[113, 0]),\n",
      "   midi.NoteOnEvent(tick=23, channel=0, data=[10, 167]),\n",
      "   midi.NoteOffEvent(tick=5, channel=0, data=[47, 0]),\n",
      "   midi.NoteOffEvent(tick=9, channel=0, data=[67, 0]),\n",
      "   midi.NoteOnEvent(tick=12, channel=0, data=[3, 109]),\n",
      "   midi.NoteOffEvent(tick=8, channel=0, data=[96, 0]),\n",
      "   midi.NoteOnEvent(tick=0, channel=0, data=[24, 126]),\n",
      "   midi.NoteOffEvent(tick=25, channel=0, data=[38, 0]),\n",
      "   midi.NoteOffEvent(tick=7, channel=0, data=[3, 0]),\n",
      "   midi.NoteOnEvent(tick=9, channel=0, data=[40, 23]),\n",
      "   midi.NoteOnEvent(tick=17, channel=0, data=[52, 252]),\n",
      "   midi.NoteOffEvent(tick=12, channel=0, data=[100, 0]),\n",
      "   midi.NoteOffEvent(tick=26, channel=0, data=[70, 0]),\n",
      "   midi.NoteOnEvent(tick=24, channel=0, data=[42, 14]),\n",
      "   midi.NoteOffEvent(tick=27, channel=0, data=[89, 0]),\n",
      "   midi.NoteOffEvent(tick=11, channel=0, data=[48, 0]),\n",
      "   midi.NoteOnEvent(tick=21, channel=0, data=[87, 49]),\n",
      "   midi.NoteOnEvent(tick=30, channel=0, data=[111, 143]),\n",
      "   midi.NoteOnEvent(tick=0, channel=0, data=[91, 13]),\n",
      "   midi.NoteOnEvent(tick=0, channel=0, data=[24, 217]),\n",
      "   midi.NoteOffEvent(tick=25, channel=0, data=[27, 0]),\n",
      "   midi.NoteOffEvent(tick=3, channel=0, data=[7, 0]),\n",
      "   midi.NoteOffEvent(tick=2, channel=0, data=[26, 0]),\n",
      "   midi.NoteOffEvent(tick=12, channel=0, data=[64, 0]),\n",
      "   midi.NoteOffEvent(tick=72, channel=0, data=[76, 0]),\n",
      "   midi.NoteOffEvent(tick=4, channel=0, data=[2, 0]),\n",
      "   midi.NoteOffEvent(tick=8, channel=0, data=[88, 0]),\n",
      "   midi.NoteOffEvent(tick=12, channel=0, data=[21, 0]),\n",
      "   midi.NoteOffEvent(tick=30, channel=0, data=[110, 0]),\n",
      "   midi.NoteOffEvent(tick=41, channel=0, data=[94, 0]),\n",
      "   midi.NoteOffEvent(tick=0, channel=0, data=[121, 0]),\n",
      "   midi.NoteOffEvent(tick=84, channel=0, data=[114, 0]),\n",
      "   midi.NoteOffEvent(tick=9, channel=0, data=[33, 0]),\n",
      "   midi.NoteOffEvent(tick=5, channel=0, data=[9, 0]),\n",
      "   midi.NoteOffEvent(tick=9, channel=0, data=[37, 0]),\n",
      "   midi.NoteOffEvent(tick=7, channel=0, data=[8, 0]),\n",
      "   midi.NoteOffEvent(tick=50, channel=0, data=[24, 0]),\n",
      "   midi.NoteOffEvent(tick=44, channel=0, data=[52, 0]),\n",
      "   midi.NoteOffEvent(tick=26, channel=0, data=[51, 0]),\n",
      "   midi.NoteOffEvent(tick=51, channel=0, data=[17, 0]),\n",
      "   midi.NoteOffEvent(tick=33, channel=0, data=[10, 0]),\n",
      "   midi.NoteOffEvent(tick=71, channel=0, data=[116, 0]),\n",
      "   midi.NoteOffEvent(tick=92, channel=0, data=[87, 0]),\n",
      "   midi.NoteOffEvent(tick=28, channel=0, data=[42, 0]),\n",
      "   midi.NoteOffEvent(tick=90, channel=0, data=[91, 0]),\n",
      "   midi.NoteOffEvent(tick=21, channel=0, data=[40, 0]),\n",
      "   midi.NoteOffEvent(tick=117, channel=0, data=[111, 0]),\n",
      "   midi.EndOfTrackEvent(tick=0, data=[])]),\n",
      " midi.Track(\\\n",
      "  [midi.SetTempoEvent(tick=0, data=[8, 227, 124]),\n",
      "   midi.ProgramChangeEvent(tick=0, channel=0, data=[91]),\n",
      "   midi.NoteOnEvent(tick=6, channel=0, data=[13, 16]),\n",
      "   midi.NoteOnEvent(tick=8, channel=0, data=[107, 187]),\n",
      "   midi.NoteOnEvent(tick=10, channel=0, data=[89, 175]),\n",
      "   midi.NoteOnEvent(tick=30, channel=0, data=[23, 114]),\n",
      "   midi.NoteOnEvent(tick=9, channel=0, data=[33, 154]),\n",
      "   midi.NoteOnEvent(tick=15, channel=0, data=[116, 184]),\n",
      "   midi.NoteOnEvent(tick=21, channel=0, data=[77, 98]),\n",
      "   midi.NoteOnEvent(tick=39, channel=0, data=[100, 107]),\n",
      "   midi.NoteOnEvent(tick=7, channel=0, data=[47, 61]),\n",
      "   midi.NoteOffEvent(tick=4, channel=0, data=[13, 0]),\n",
      "   midi.NoteOnEvent(tick=10, channel=0, data=[47, 86]),\n",
      "   midi.NoteOnEvent(tick=2, channel=0, data=[58, 236]),\n",
      "   midi.NoteOffEvent(tick=61, channel=0, data=[116, 0]),\n",
      "   midi.NoteOnEvent(tick=15, channel=0, data=[2, 138]),\n",
      "   midi.NoteOnEvent(tick=3, channel=0, data=[23, 136]),\n",
      "   midi.NoteOnEvent(tick=28, channel=0, data=[2, 152]),\n",
      "   midi.NoteOnEvent(tick=25, channel=0, data=[113, 102]),\n",
      "   midi.NoteOnEvent(tick=8, channel=0, data=[90, 221]),\n",
      "   midi.NoteOnEvent(tick=8, channel=0, data=[74, 144]),\n",
      "   midi.NoteOnEvent(tick=9, channel=0, data=[33, 137]),\n",
      "   midi.NoteOnEvent(tick=0, channel=0, data=[48, 56]),\n",
      "   midi.NoteOnEvent(tick=3, channel=0, data=[71, 151]),\n",
      "   midi.NoteOnEvent(tick=0, channel=0, data=[122, 43]),\n",
      "   midi.NoteOnEvent(tick=1, channel=0, data=[31, 40]),\n",
      "   midi.NoteOnEvent(tick=8, channel=0, data=[48, 169]),\n",
      "   midi.NoteOnEvent(tick=7, channel=0, data=[121, 0]),\n",
      "   midi.NoteOnEvent(tick=8, channel=0, data=[60, 9]),\n",
      "   midi.NoteOnEvent(tick=12, channel=0, data=[98, 90]),\n",
      "   midi.NoteOnEvent(tick=0, channel=0, data=[102, 132]),\n",
      "   midi.NoteOffEvent(tick=20, channel=0, data=[100, 0]),\n",
      "   midi.NoteOffEvent(tick=16, channel=0, data=[58, 0]),\n",
      "   midi.NoteOffEvent(tick=2, channel=0, data=[107, 0]),\n",
      "   midi.NoteOnEvent(tick=3, channel=0, data=[57, 176]),\n",
      "   midi.NoteOffEvent(tick=6, channel=0, data=[77, 0]),\n",
      "   midi.NoteOnEvent(tick=0, channel=0, data=[21, 142]),\n",
      "   midi.NoteOnEvent(tick=0, channel=0, data=[52, 33]),\n",
      "   midi.NoteOffEvent(tick=7, channel=0, data=[33, 0]),\n",
      "   midi.NoteOnEvent(tick=5, channel=0, data=[33, 39]),\n",
      "   midi.NoteOffEvent(tick=3, channel=0, data=[89, 0]),\n",
      "   midi.NoteOnEvent(tick=14, channel=0, data=[121, 120]),\n",
      "   midi.NoteOffEvent(tick=3, channel=0, data=[90, 0]),\n",
      "   midi.NoteOnEvent(tick=5, channel=0, data=[53, 106]),\n",
      "   midi.NoteOnEvent(tick=19, channel=0, data=[35, 255]),\n",
      "   midi.NoteOffEvent(tick=3, channel=0, data=[102, 0]),\n",
      "   midi.NoteOnEvent(tick=10, channel=0, data=[119, 153]),\n",
      "   midi.NoteOnEvent(tick=10, channel=0, data=[45, 171]),\n",
      "   midi.NoteOffEvent(tick=24, channel=0, data=[45, 0]),\n",
      "   midi.NoteOnEvent(tick=1, channel=0, data=[37, 56]),\n",
      "   midi.NoteOnEvent(tick=2, channel=0, data=[12, 17]),\n",
      "   midi.NoteOnEvent(tick=12, channel=0, data=[87, 43]),\n",
      "   midi.NoteOffEvent(tick=19, channel=0, data=[121, 0]),\n",
      "   midi.NoteOnEvent(tick=19, channel=0, data=[9, 124]),\n",
      "   midi.NoteOffEvent(tick=29, channel=0, data=[122, 0]),\n",
      "   midi.NoteOnEvent(tick=2, channel=0, data=[64, 125]),\n",
      "   midi.NoteOffEvent(tick=1, channel=0, data=[57, 0]),\n",
      "   midi.NoteOnEvent(tick=5, channel=0, data=[69, 111]),\n",
      "   midi.NoteOnEvent(tick=17, channel=0, data=[58, 231]),\n",
      "   midi.NoteOnEvent(tick=12, channel=0, data=[10, 60]),\n",
      "   midi.NoteOnEvent(tick=8, channel=0, data=[18, 106]),\n",
      "   midi.NoteOnEvent(tick=4, channel=0, data=[122, 231]),\n",
      "   midi.NoteOnEvent(tick=15, channel=0, data=[48, 88]),\n",
      "   midi.NoteOffEvent(tick=3, channel=0, data=[47, 0]),\n",
      "   midi.NoteOffEvent(tick=6, channel=0, data=[33, 0]),\n",
      "   midi.NoteOffEvent(tick=3, channel=0, data=[2, 0]),\n",
      "   midi.NoteOnEvent(tick=15, channel=0, data=[123, 6]),\n",
      "   midi.NoteOnEvent(tick=57, channel=0, data=[37, 178]),\n",
      "   midi.NoteOffEvent(tick=7, channel=0, data=[23, 0]),\n",
      "   midi.NoteOnEvent(tick=33, channel=0, data=[0, 128]),\n",
      "   midi.NoteOffEvent(tick=4, channel=0, data=[123, 0]),\n",
      "   midi.NoteOnEvent(tick=5, channel=0, data=[121, 180]),\n",
      "   midi.NoteOnEvent(tick=21, channel=0, data=[65, 37]),\n",
      "   midi.NoteOffEvent(tick=19, channel=0, data=[10, 0]),\n",
      "   midi.NoteOnEvent(tick=0, channel=0, data=[49, 126]),\n",
      "   midi.NoteOnEvent(tick=18, channel=0, data=[72, 186]),\n",
      "   midi.NoteOnEvent(tick=6, channel=0, data=[94, 58]),\n",
      "   midi.NoteOffEvent(tick=3, channel=0, data=[98, 0]),\n",
      "   midi.NoteOnEvent(tick=1, channel=0, data=[119, 123]),\n",
      "   midi.NoteOnEvent(tick=18, channel=0, data=[106, 197]),\n",
      "   midi.NoteOffEvent(tick=4, channel=0, data=[87, 0]),\n",
      "   midi.NoteOnEvent(tick=1, channel=0, data=[117, 204]),\n",
      "   midi.NoteOffEvent(tick=18, channel=0, data=[21, 0]),\n",
      "   midi.NoteOffEvent(tick=0, channel=0, data=[31, 0]),\n",
      "   midi.NoteOffEvent(tick=4, channel=0, data=[69, 0]),\n",
      "   midi.NoteOnEvent(tick=5, channel=0, data=[29, 142]),\n",
      "   midi.NoteOffEvent(tick=8, channel=0, data=[113, 0]),\n",
      "   midi.NoteOffEvent(tick=13, channel=0, data=[65, 0]),\n",
      "   midi.NoteOffEvent(tick=0, channel=0, data=[94, 0]),\n",
      "   midi.NoteOnEvent(tick=6, channel=0, data=[121, 168]),\n",
      "   midi.NoteOnEvent(tick=1, channel=0, data=[5, 127]),\n",
      "   midi.NoteOnEvent(tick=2, channel=0, data=[66, 250]),\n",
      "   midi.NoteOnEvent(tick=4, channel=0, data=[39, 122]),\n",
      "   midi.NoteOnEvent(tick=1, channel=0, data=[95, 242]),\n",
      "   midi.NoteOffEvent(tick=6, channel=0, data=[64, 0]),\n",
      "   midi.NoteOffEvent(tick=4, channel=0, data=[53, 0]),\n",
      "   midi.NoteOnEvent(tick=9, channel=0, data=[57, 53]),\n",
      "   midi.NoteOnEvent(tick=7, channel=0, data=[0, 33]),\n",
      "   midi.NoteOnEvent(tick=27, channel=0, data=[16, 63]),\n",
      "   midi.NoteOffEvent(tick=3, channel=0, data=[5, 0]),\n",
      "   midi.NoteOffEvent(tick=18, channel=0, data=[72, 0]),\n",
      "   midi.NoteOffEvent(tick=96, channel=0, data=[18, 0]),\n",
      "   midi.NoteOffEvent(tick=0, channel=0, data=[37, 0]),\n",
      "   midi.NoteOffEvent(tick=27, channel=0, data=[48, 0]),\n",
      "   midi.NoteOffEvent(tick=1, channel=0, data=[66, 0]),\n",
      "   midi.NoteOffEvent(tick=73, channel=0, data=[117, 0]),\n",
      "   midi.NoteOffEvent(tick=4, channel=0, data=[29, 0]),\n",
      "   midi.NoteOffEvent(tick=16, channel=0, data=[71, 0]),\n",
      "   midi.NoteOffEvent(tick=10, channel=0, data=[57, 0]),\n",
      "   midi.NoteOffEvent(tick=10, channel=0, data=[60, 0]),\n",
      "   midi.NoteOffEvent(tick=6, channel=0, data=[74, 0]),\n",
      "   midi.NoteOffEvent(tick=6, channel=0, data=[9, 0]),\n",
      "   midi.NoteOffEvent(tick=41, channel=0, data=[95, 0]),\n",
      "   midi.NoteOffEvent(tick=8, channel=0, data=[35, 0]),\n",
      "   midi.NoteOffEvent(tick=0, channel=0, data=[122, 0]),\n",
      "   midi.NoteOffEvent(tick=1, channel=0, data=[52, 0]),\n",
      "   midi.NoteOffEvent(tick=117, channel=0, data=[49, 0]),\n",
      "   midi.NoteOffEvent(tick=45, channel=0, data=[16, 0]),\n",
      "   midi.NoteOffEvent(tick=8, channel=0, data=[12, 0]),\n",
      "   midi.NoteOffEvent(tick=48, channel=0, data=[58, 0]),\n",
      "   midi.NoteOffEvent(tick=33, channel=0, data=[106, 0]),\n",
      "   midi.NoteOffEvent(tick=60, channel=0, data=[119, 0]),\n",
      "   midi.NoteOffEvent(tick=139, channel=0, data=[0, 0]),\n",
      "   midi.NoteOffEvent(tick=72, channel=0, data=[39, 0]),\n",
      "   midi.NoteOffEvent(tick=70, channel=0, data=[121, 0]),\n",
      "   midi.EndOfTrackEvent(tick=0, data=[])]),\n",
      " midi.Track(\\\n",
      "  [midi.SetTempoEvent(tick=0, data=[8, 227, 124]),\n",
      "   midi.ProgramChangeEvent(tick=0, channel=0, data=[92]),\n",
      "   midi.NoteOnEvent(tick=4, channel=0, data=[41, 122]),\n",
      "   midi.NoteOnEvent(tick=2, channel=0, data=[54, 46]),\n",
      "   midi.NoteOnEvent(tick=7, channel=0, data=[56, 127]),\n",
      "   midi.NoteOnEvent(tick=9, channel=0, data=[1, 156]),\n",
      "   midi.NoteOnEvent(tick=8, channel=0, data=[43, 160]),\n",
      "   midi.NoteOnEvent(tick=5, channel=0, data=[80, 165]),\n",
      "   midi.NoteOnEvent(tick=1, channel=0, data=[26, 1]),\n",
      "   midi.NoteOffEvent(tick=7, channel=0, data=[56, 0]),\n",
      "   midi.NoteOnEvent(tick=56, channel=0, data=[17, 129]),\n",
      "   midi.NoteOnEvent(tick=5, channel=0, data=[118, 102]),\n",
      "   midi.NoteOnEvent(tick=8, channel=0, data=[66, 213]),\n",
      "   midi.NoteOffEvent(tick=5, channel=0, data=[17, 0]),\n",
      "   midi.NoteOnEvent(tick=2, channel=0, data=[109, 37]),\n",
      "   midi.NoteOnEvent(tick=2, channel=0, data=[23, 38]),\n",
      "   midi.NoteOnEvent(tick=8, channel=0, data=[8, 121]),\n",
      "   midi.NoteOnEvent(tick=13, channel=0, data=[102, 209]),\n",
      "   midi.NoteOnEvent(tick=11, channel=0, data=[102, 52]),\n",
      "   midi.NoteOffEvent(tick=12, channel=0, data=[102, 0]),\n",
      "   midi.NoteOnEvent(tick=14, channel=0, data=[30, 190]),\n",
      "   midi.NoteOnEvent(tick=13, channel=0, data=[95, 236]),\n",
      "   midi.NoteOnEvent(tick=34, channel=0, data=[5, 56]),\n",
      "   midi.NoteOnEvent(tick=25, channel=0, data=[82, 211]),\n",
      "   midi.NoteOnEvent(tick=6, channel=0, data=[68, 33]),\n",
      "   midi.NoteOffEvent(tick=31, channel=0, data=[80, 0]),\n",
      "   midi.NoteOnEvent(tick=2, channel=0, data=[106, 205]),\n",
      "   midi.NoteOnEvent(tick=8, channel=0, data=[19, 28]),\n",
      "   midi.NoteOnEvent(tick=3, channel=0, data=[31, 201]),\n",
      "   midi.NoteOnEvent(tick=2, channel=0, data=[49, 17]),\n",
      "   midi.NoteOffEvent(tick=15, channel=0, data=[82, 0]),\n",
      "   midi.NoteOnEvent(tick=0, channel=0, data=[126, 48]),\n",
      "   midi.NoteOnEvent(tick=12, channel=0, data=[62, 166]),\n",
      "   midi.NoteOnEvent(tick=6, channel=0, data=[122, 242]),\n",
      "   midi.NoteOffEvent(tick=6, channel=0, data=[19, 0]),\n",
      "   midi.NoteOnEvent(tick=3, channel=0, data=[7, 76]),\n",
      "   midi.NoteOffEvent(tick=1, channel=0, data=[31, 0]),\n",
      "   midi.NoteOnEvent(tick=54, channel=0, data=[36, 19]),\n",
      "   midi.NoteOnEvent(tick=25, channel=0, data=[74, 41]),\n",
      "   midi.NoteOffEvent(tick=17, channel=0, data=[41, 0]),\n",
      "   midi.NoteOffEvent(tick=49, channel=0, data=[74, 0]),\n",
      "   midi.NoteOffEvent(tick=6, channel=0, data=[54, 0]),\n",
      "   midi.NoteOnEvent(tick=13, channel=0, data=[101, 249]),\n",
      "   midi.NoteOnEvent(tick=6, channel=0, data=[34, 56]),\n",
      "   midi.NoteOffEvent(tick=7, channel=0, data=[49, 0]),\n",
      "   midi.NoteOffEvent(tick=2, channel=0, data=[95, 0]),\n",
      "   midi.NoteOnEvent(tick=10, channel=0, data=[109, 35]),\n",
      "   midi.NoteOnEvent(tick=0, channel=0, data=[61, 229]),\n",
      "   midi.NoteOffEvent(tick=2, channel=0, data=[66, 0]),\n",
      "   midi.NoteOnEvent(tick=5, channel=0, data=[62, 163]),\n",
      "   midi.NoteOffEvent(tick=2, channel=0, data=[5, 0]),\n",
      "   midi.NoteOffEvent(tick=9, channel=0, data=[23, 0]),\n",
      "   midi.NoteOnEvent(tick=1, channel=0, data=[76, 79]),\n",
      "   midi.NoteOnEvent(tick=6, channel=0, data=[32, 119]),\n",
      "   midi.NoteOffEvent(tick=1, channel=0, data=[118, 0]),\n",
      "   midi.NoteOnEvent(tick=2, channel=0, data=[9, 38]),\n",
      "   midi.NoteOffEvent(tick=4, channel=0, data=[7, 0]),\n",
      "   midi.NoteOnEvent(tick=4, channel=0, data=[107, 255]),\n",
      "   midi.NoteOnEvent(tick=10, channel=0, data=[79, 97]),\n",
      "   midi.NoteOnEvent(tick=12, channel=0, data=[114, 31]),\n",
      "   midi.NoteOnEvent(tick=12, channel=0, data=[88, 78]),\n",
      "   midi.NoteOnEvent(tick=16, channel=0, data=[18, 133]),\n",
      "   midi.NoteOnEvent(tick=4, channel=0, data=[121, 171]),\n",
      "   midi.NoteOffEvent(tick=4, channel=0, data=[1, 0]),\n",
      "   midi.NoteOffEvent(tick=10, channel=0, data=[126, 0]),\n",
      "   midi.NoteOnEvent(tick=0, channel=0, data=[127, 90]),\n",
      "   midi.NoteOffEvent(tick=4, channel=0, data=[101, 0]),\n",
      "   midi.NoteOnEvent(tick=5, channel=0, data=[97, 167]),\n",
      "   midi.NoteOnEvent(tick=0, channel=0, data=[97, 153]),\n",
      "   midi.NoteOnEvent(tick=18, channel=0, data=[126, 50]),\n",
      "   midi.NoteOnEvent(tick=3, channel=0, data=[17, 161]),\n",
      "   midi.NoteOnEvent(tick=6, channel=0, data=[6, 234]),\n",
      "   midi.NoteOnEvent(tick=22, channel=0, data=[110, 222]),\n",
      "   midi.NoteOnEvent(tick=16, channel=0, data=[119, 16]),\n",
      "   midi.NoteOnEvent(tick=0, channel=0, data=[29, 104]),\n",
      "   midi.NoteOnEvent(tick=20, channel=0, data=[72, 235]),\n",
      "   midi.NoteOffEvent(tick=4, channel=0, data=[109, 0]),\n",
      "   midi.NoteOnEvent(tick=13, channel=0, data=[65, 2]),\n",
      "   midi.NoteOnEvent(tick=0, channel=0, data=[63, 27]),\n",
      "   midi.NoteOffEvent(tick=1, channel=0, data=[106, 0]),\n",
      "   midi.NoteOffEvent(tick=13, channel=0, data=[32, 0]),\n",
      "   midi.NoteOffEvent(tick=8, channel=0, data=[61, 0]),\n",
      "   midi.NoteOnEvent(tick=5, channel=0, data=[122, 244]),\n",
      "   midi.NoteOffEvent(tick=7, channel=0, data=[26, 0]),\n",
      "   midi.NoteOnEvent(tick=29, channel=0, data=[68, 149]),\n",
      "   midi.NoteOffEvent(tick=29, channel=0, data=[127, 0]),\n",
      "   midi.NoteOnEvent(tick=0, channel=0, data=[123, 246]),\n",
      "   midi.NoteOnEvent(tick=13, channel=0, data=[59, 122]),\n",
      "   midi.NoteOffEvent(tick=33, channel=0, data=[30, 0]),\n",
      "   midi.NoteOnEvent(tick=15, channel=0, data=[27, 165]),\n",
      "   midi.NoteOffEvent(tick=18, channel=0, data=[65, 0]),\n",
      "   midi.NoteOffEvent(tick=2, channel=0, data=[43, 0]),\n",
      "   midi.NoteOnEvent(tick=15, channel=0, data=[6, 255]),\n",
      "   midi.NoteOnEvent(tick=4, channel=0, data=[74, 28]),\n",
      "   midi.NoteOnEvent(tick=7, channel=0, data=[71, 172]),\n",
      "   midi.NoteOffEvent(tick=1, channel=0, data=[76, 0]),\n",
      "   midi.NoteOnEvent(tick=0, channel=0, data=[8, 58]),\n",
      "   midi.NoteOffEvent(tick=9, channel=0, data=[74, 0]),\n",
      "   midi.NoteOnEvent(tick=11, channel=0, data=[100, 199]),\n",
      "   midi.NoteOffEvent(tick=5, channel=0, data=[62, 0]),\n",
      "   midi.NoteOnEvent(tick=0, channel=0, data=[17, 9]),\n",
      "   midi.NoteOnEvent(tick=16, channel=0, data=[42, 251]),\n",
      "   midi.NoteOffEvent(tick=1, channel=0, data=[110, 0]),\n",
      "   midi.NoteOnEvent(tick=6, channel=0, data=[122, 105]),\n",
      "   midi.NoteOffEvent(tick=19, channel=0, data=[119, 0]),\n",
      "   midi.NoteOffEvent(tick=7, channel=0, data=[27, 0]),\n",
      "   midi.NoteOffEvent(tick=60, channel=0, data=[68, 0]),\n",
      "   midi.NoteOffEvent(tick=73, channel=0, data=[6, 0]),\n",
      "   midi.NoteOffEvent(tick=39, channel=0, data=[29, 0]),\n",
      "   midi.NoteOffEvent(tick=22, channel=0, data=[100, 0]),\n",
      "   midi.NoteOffEvent(tick=28, channel=0, data=[126, 0]),\n",
      "   midi.NoteOffEvent(tick=19, channel=0, data=[122, 0]),\n",
      "   midi.NoteOffEvent(tick=51, channel=0, data=[42, 0]),\n",
      "   midi.NoteOffEvent(tick=14, channel=0, data=[121, 0]),\n",
      "   midi.NoteOffEvent(tick=20, channel=0, data=[107, 0]),\n",
      "   midi.NoteOffEvent(tick=4, channel=0, data=[18, 0]),\n",
      "   midi.NoteOffEvent(tick=27, channel=0, data=[36, 0]),\n",
      "   midi.NoteOffEvent(tick=11, channel=0, data=[88, 0]),\n",
      "   midi.NoteOffEvent(tick=20, channel=0, data=[63, 0]),\n",
      "   midi.NoteOffEvent(tick=39, channel=0, data=[17, 0]),\n",
      "   midi.NoteOffEvent(tick=8, channel=0, data=[34, 0]),\n",
      "   midi.NoteOffEvent(tick=24, channel=0, data=[114, 0]),\n",
      "   midi.NoteOffEvent(tick=2, channel=0, data=[72, 0]),\n",
      "   midi.NoteOffEvent(tick=29, channel=0, data=[9, 0]),\n",
      "   midi.NoteOffEvent(tick=7, channel=0, data=[79, 0]),\n",
      "   midi.NoteOffEvent(tick=52, channel=0, data=[97, 0]),\n",
      "   midi.NoteOffEvent(tick=145, channel=0, data=[71, 0]),\n",
      "   midi.NoteOffEvent(tick=64, channel=0, data=[8, 0]),\n",
      "   midi.NoteOffEvent(tick=8, channel=0, data=[59, 0]),\n",
      "   midi.NoteOffEvent(tick=37, channel=0, data=[123, 0]),\n",
      "   midi.EndOfTrackEvent(tick=0, data=[])]),\n",
      " midi.Track(\\\n",
      "  [midi.SetTempoEvent(tick=0, data=[8, 227, 124]),\n",
      "   midi.ProgramChangeEvent(tick=0, channel=0, data=[93]),\n",
      "   midi.NoteOnEvent(tick=4, channel=0, data=[109, 101]),\n",
      "   midi.NoteOnEvent(tick=31, channel=0, data=[122, 207]),\n",
      "   midi.NoteOnEvent(tick=7, channel=0, data=[61, 85]),\n",
      "   midi.NoteOnEvent(tick=17, channel=0, data=[110, 243]),\n",
      "   midi.NoteOnEvent(tick=19, channel=0, data=[82, 26]),\n",
      "   midi.NoteOnEvent(tick=41, channel=0, data=[3, 4]),\n",
      "   midi.NoteOffEvent(tick=7, channel=0, data=[122, 0]),\n",
      "   midi.NoteOnEvent(tick=8, channel=0, data=[10, 104]),\n",
      "   midi.NoteOnEvent(tick=3, channel=0, data=[78, 101]),\n",
      "   midi.NoteOnEvent(tick=5, channel=0, data=[20, 208]),\n",
      "   midi.NoteOnEvent(tick=4, channel=0, data=[122, 138]),\n",
      "   midi.NoteOnEvent(tick=7, channel=0, data=[108, 136]),\n",
      "   midi.NoteOnEvent(tick=0, channel=0, data=[114, 5]),\n",
      "   midi.NoteOnEvent(tick=73, channel=0, data=[97, 171]),\n",
      "   midi.NoteOnEvent(tick=2, channel=0, data=[60, 9]),\n",
      "   midi.NoteOnEvent(tick=12, channel=0, data=[50, 211]),\n",
      "   midi.NoteOffEvent(tick=15, channel=0, data=[109, 0]),\n",
      "   midi.NoteOffEvent(tick=6, channel=0, data=[82, 0]),\n",
      "   midi.NoteOnEvent(tick=4, channel=0, data=[3, 131]),\n",
      "   midi.NoteOnEvent(tick=15, channel=0, data=[53, 2]),\n",
      "   midi.NoteOnEvent(tick=21, channel=0, data=[97, 187]),\n",
      "   midi.NoteOnEvent(tick=12, channel=0, data=[69, 99]),\n",
      "   midi.NoteOnEvent(tick=17, channel=0, data=[55, 116]),\n",
      "   midi.NoteOnEvent(tick=2, channel=0, data=[92, 154]),\n",
      "   midi.NoteOnEvent(tick=3, channel=0, data=[3, 111]),\n",
      "   midi.NoteOnEvent(tick=1, channel=0, data=[48, 113]),\n",
      "   midi.NoteOnEvent(tick=21, channel=0, data=[19, 214]),\n",
      "   midi.NoteOnEvent(tick=26, channel=0, data=[37, 190]),\n",
      "   midi.NoteOnEvent(tick=21, channel=0, data=[4, 167]),\n",
      "   midi.NoteOffEvent(tick=10, channel=0, data=[114, 0]),\n",
      "   midi.NoteOnEvent(tick=65, channel=0, data=[118, 149]),\n",
      "   midi.NoteOnEvent(tick=14, channel=0, data=[109, 0]),\n",
      "   midi.NoteOnEvent(tick=25, channel=0, data=[0, 200]),\n",
      "   midi.NoteOnEvent(tick=4, channel=0, data=[106, 62]),\n",
      "   midi.NoteOffEvent(tick=3, channel=0, data=[53, 0]),\n",
      "   midi.NoteOffEvent(tick=28, channel=0, data=[110, 0]),\n",
      "   midi.NoteOnEvent(tick=21, channel=0, data=[63, 109]),\n",
      "   midi.NoteOnEvent(tick=5, channel=0, data=[126, 74]),\n",
      "   midi.NoteOnEvent(tick=12, channel=0, data=[120, 137]),\n",
      "   midi.NoteOnEvent(tick=12, channel=0, data=[26, 145]),\n",
      "   midi.NoteOnEvent(tick=7, channel=0, data=[57, 217]),\n",
      "   midi.NoteOnEvent(tick=22, channel=0, data=[121, 147]),\n",
      "   midi.NoteOnEvent(tick=2, channel=0, data=[54, 123]),\n",
      "   midi.NoteOnEvent(tick=1, channel=0, data=[104, 141]),\n",
      "   midi.NoteOnEvent(tick=0, channel=0, data=[42, 149]),\n",
      "   midi.NoteOffEvent(tick=10, channel=0, data=[92, 0]),\n",
      "   midi.NoteOffEvent(tick=21, channel=0, data=[3, 0]),\n",
      "   midi.NoteOnEvent(tick=11, channel=0, data=[112, 174]),\n",
      "   midi.NoteOffEvent(tick=5, channel=0, data=[120, 0]),\n",
      "   midi.NoteOffEvent(tick=2, channel=0, data=[55, 0]),\n",
      "   midi.NoteOffEvent(tick=8, channel=0, data=[122, 0]),\n",
      "   midi.NoteOnEvent(tick=21, channel=0, data=[127, 189]),\n",
      "   midi.NoteOffEvent(tick=1, channel=0, data=[97, 0]),\n",
      "   midi.NoteOffEvent(tick=4, channel=0, data=[61, 0]),\n",
      "   midi.NoteOnEvent(tick=1, channel=0, data=[81, 213]),\n",
      "   midi.NoteOffEvent(tick=11, channel=0, data=[37, 0]),\n",
      "   midi.NoteOnEvent(tick=5, channel=0, data=[65, 44]),\n",
      "   midi.NoteOnEvent(tick=17, channel=0, data=[95, 92]),\n",
      "   midi.NoteOffEvent(tick=7, channel=0, data=[0, 0]),\n",
      "   midi.NoteOnEvent(tick=3, channel=0, data=[112, 208]),\n",
      "   midi.NoteOffEvent(tick=3, channel=0, data=[54, 0]),\n",
      "   midi.NoteOnEvent(tick=21, channel=0, data=[24, 232]),\n",
      "   midi.NoteOffEvent(tick=25, channel=0, data=[60, 0]),\n",
      "   midi.NoteOffEvent(tick=15, channel=0, data=[108, 0]),\n",
      "   midi.NoteOnEvent(tick=12, channel=0, data=[37, 43]),\n",
      "   midi.NoteOffEvent(tick=3, channel=0, data=[50, 0]),\n",
      "   midi.NoteOnEvent(tick=22, channel=0, data=[108, 222]),\n",
      "   midi.NoteOnEvent(tick=0, channel=0, data=[29, 218]),\n",
      "   midi.NoteOffEvent(tick=11, channel=0, data=[104, 0]),\n",
      "   midi.NoteOnEvent(tick=2, channel=0, data=[124, 213]),\n",
      "   midi.NoteOffEvent(tick=2, channel=0, data=[37, 0]),\n",
      "   midi.NoteOnEvent(tick=21, channel=0, data=[21, 207]),\n",
      "   midi.NoteOffEvent(tick=14, channel=0, data=[42, 0]),\n",
      "   midi.NoteOffEvent(tick=8, channel=0, data=[4, 0]),\n",
      "   midi.NoteOffEvent(tick=7, channel=0, data=[20, 0]),\n",
      "   midi.NoteOffEvent(tick=4, channel=0, data=[124, 0]),\n",
      "   midi.NoteOffEvent(tick=2, channel=0, data=[78, 0]),\n",
      "   midi.NoteOnEvent(tick=15, channel=0, data=[33, 54]),\n",
      "   midi.NoteOffEvent(tick=1, channel=0, data=[121, 0]),\n",
      "   midi.NoteOnEvent(tick=0, channel=0, data=[8, 30]),\n",
      "   midi.NoteOffEvent(tick=19, channel=0, data=[19, 0]),\n",
      "   midi.NoteOffEvent(tick=0, channel=0, data=[57, 0]),\n",
      "   midi.NoteOnEvent(tick=0, channel=0, data=[64, 83]),\n",
      "   midi.NoteOffEvent(tick=1, channel=0, data=[10, 0]),\n",
      "   midi.NoteOnEvent(tick=17, channel=0, data=[38, 254]),\n",
      "   midi.NoteOffEvent(tick=44, channel=0, data=[81, 0]),\n",
      "   midi.NoteOffEvent(tick=79, channel=0, data=[69, 0]),\n",
      "   midi.NoteOffEvent(tick=1, channel=0, data=[21, 0]),\n",
      "   midi.NoteOffEvent(tick=29, channel=0, data=[118, 0]),\n",
      "   midi.NoteOffEvent(tick=1, channel=0, data=[24, 0]),\n",
      "   midi.NoteOffEvent(tick=10, channel=0, data=[65, 0]),\n",
      "   midi.NoteOffEvent(tick=23, channel=0, data=[127, 0]),\n",
      "   midi.NoteOffEvent(tick=24, channel=0, data=[48, 0]),\n",
      "   midi.NoteOffEvent(tick=24, channel=0, data=[109, 0]),\n",
      "   midi.NoteOffEvent(tick=31, channel=0, data=[63, 0]),\n",
      "   midi.NoteOffEvent(tick=11, channel=0, data=[112, 0]),\n",
      "   midi.NoteOffEvent(tick=3, channel=0, data=[126, 0]),\n",
      "   midi.NoteOffEvent(tick=58, channel=0, data=[29, 0]),\n",
      "   midi.NoteOffEvent(tick=15, channel=0, data=[106, 0]),\n",
      "   midi.NoteOffEvent(tick=24, channel=0, data=[95, 0]),\n",
      "   midi.NoteOffEvent(tick=57, channel=0, data=[64, 0]),\n",
      "   midi.NoteOffEvent(tick=25, channel=0, data=[8, 0]),\n",
      "   midi.NoteOffEvent(tick=11, channel=0, data=[26, 0]),\n",
      "   midi.NoteOffEvent(tick=269, channel=0, data=[38, 0]),\n",
      "   midi.NoteOffEvent(tick=112, channel=0, data=[108, 0]),\n",
      "   midi.NoteOffEvent(tick=91, channel=0, data=[33, 0]),\n",
      "   midi.EndOfTrackEvent(tick=0, data=[])]),\n",
      " midi.Track(\\\n",
      "  [midi.SetTempoEvent(tick=0, data=[8, 227, 124]),\n",
      "   midi.ProgramChangeEvent(tick=0, channel=0, data=[94]),\n",
      "   midi.NoteOnEvent(tick=8, channel=0, data=[127, 181]),\n",
      "   midi.NoteOnEvent(tick=16, channel=0, data=[51, 170]),\n",
      "   midi.NoteOnEvent(tick=8, channel=0, data=[28, 224]),\n",
      "   midi.NoteOnEvent(tick=4, channel=0, data=[79, 57]),\n",
      "   midi.NoteOffEvent(tick=3, channel=0, data=[79, 0]),\n",
      "   midi.NoteOnEvent(tick=29, channel=0, data=[55, 48]),\n",
      "   midi.NoteOnEvent(tick=0, channel=0, data=[86, 82]),\n",
      "   midi.NoteOnEvent(tick=44, channel=0, data=[100, 84]),\n",
      "   midi.NoteOnEvent(tick=7, channel=0, data=[120, 139]),\n",
      "   midi.NoteOffEvent(tick=4, channel=0, data=[127, 0]),\n",
      "   midi.NoteOnEvent(tick=9, channel=0, data=[84, 6]),\n",
      "   midi.NoteOnEvent(tick=2, channel=0, data=[57, 115]),\n",
      "   midi.NoteOnEvent(tick=3, channel=0, data=[14, 157]),\n",
      "   midi.NoteOnEvent(tick=1, channel=0, data=[56, 86]),\n",
      "   midi.NoteOnEvent(tick=25, channel=0, data=[110, 116]),\n",
      "   midi.NoteOnEvent(tick=18, channel=0, data=[77, 161]),\n",
      "   midi.NoteOffEvent(tick=9, channel=0, data=[110, 0]),\n",
      "   midi.NoteOffEvent(tick=4, channel=0, data=[56, 0]),\n",
      "   midi.NoteOnEvent(tick=0, channel=0, data=[106, 33]),\n",
      "   midi.NoteOnEvent(tick=3, channel=0, data=[7, 173]),\n",
      "   midi.NoteOnEvent(tick=3, channel=0, data=[60, 13]),\n",
      "   midi.NoteOnEvent(tick=3, channel=0, data=[44, 16]),\n",
      "   midi.NoteOnEvent(tick=2, channel=0, data=[63, 183]),\n",
      "   midi.NoteOnEvent(tick=2, channel=0, data=[49, 209]),\n",
      "   midi.NoteOnEvent(tick=15, channel=0, data=[40, 149]),\n",
      "   midi.NoteOnEvent(tick=4, channel=0, data=[124, 109]),\n",
      "   midi.NoteOnEvent(tick=5, channel=0, data=[127, 151]),\n",
      "   midi.NoteOnEvent(tick=10, channel=0, data=[106, 203]),\n",
      "   midi.NoteOnEvent(tick=4, channel=0, data=[91, 233]),\n",
      "   midi.NoteOnEvent(tick=14, channel=0, data=[72, 146]),\n",
      "   midi.NoteOffEvent(tick=6, channel=0, data=[14, 0]),\n",
      "   midi.NoteOffEvent(tick=14, channel=0, data=[28, 0]),\n",
      "   midi.NoteOnEvent(tick=1, channel=0, data=[41, 208]),\n",
      "   midi.NoteOffEvent(tick=9, channel=0, data=[44, 0]),\n",
      "   midi.NoteOffEvent(tick=7, channel=0, data=[72, 0]),\n",
      "   midi.NoteOnEvent(tick=13, channel=0, data=[121, 203]),\n",
      "   midi.NoteOnEvent(tick=23, channel=0, data=[9, 110]),\n",
      "   midi.NoteOnEvent(tick=17, channel=0, data=[47, 166]),\n",
      "   midi.NoteOffEvent(tick=7, channel=0, data=[86, 0]),\n",
      "   midi.NoteOnEvent(tick=16, channel=0, data=[4, 152]),\n",
      "   midi.NoteOnEvent(tick=3, channel=0, data=[18, 44]),\n",
      "   midi.NoteOnEvent(tick=23, channel=0, data=[107, 76]),\n",
      "   midi.NoteOnEvent(tick=2, channel=0, data=[22, 35]),\n",
      "   midi.NoteOffEvent(tick=8, channel=0, data=[127, 0]),\n",
      "   midi.NoteOnEvent(tick=7, channel=0, data=[25, 85]),\n",
      "   midi.NoteOnEvent(tick=1, channel=0, data=[25, 119]),\n",
      "   midi.NoteOnEvent(tick=9, channel=0, data=[93, 154]),\n",
      "   midi.NoteOnEvent(tick=2, channel=0, data=[126, 14]),\n",
      "   midi.NoteOnEvent(tick=27, channel=0, data=[114, 226]),\n",
      "   midi.NoteOnEvent(tick=6, channel=0, data=[94, 201]),\n",
      "   midi.NoteOffEvent(tick=13, channel=0, data=[49, 0]),\n",
      "   midi.NoteOnEvent(tick=10, channel=0, data=[100, 204]),\n",
      "   midi.NoteOffEvent(tick=5, channel=0, data=[84, 0]),\n",
      "   midi.NoteOffEvent(tick=11, channel=0, data=[124, 0]),\n",
      "   midi.NoteOffEvent(tick=11, channel=0, data=[9, 0]),\n",
      "   midi.NoteOnEvent(tick=5, channel=0, data=[120, 116]),\n",
      "   midi.NoteOnEvent(tick=1, channel=0, data=[120, 93]),\n",
      "   midi.NoteOnEvent(tick=5, channel=0, data=[112, 110]),\n",
      "   midi.NoteOffEvent(tick=11, channel=0, data=[114, 0]),\n",
      "   midi.NoteOnEvent(tick=0, channel=0, data=[13, 197]),\n",
      "   midi.NoteOnEvent(tick=23, channel=0, data=[92, 227]),\n",
      "   midi.NoteOnEvent(tick=13, channel=0, data=[20, 18]),\n",
      "   midi.NoteOffEvent(tick=2, channel=0, data=[51, 0]),\n",
      "   midi.NoteOnEvent(tick=1, channel=0, data=[6, 142]),\n",
      "   midi.NoteOnEvent(tick=0, channel=0, data=[35, 247]),\n",
      "   midi.NoteOnEvent(tick=0, channel=0, data=[91, 253]),\n",
      "   midi.NoteOnEvent(tick=2, channel=0, data=[87, 131]),\n",
      "   midi.NoteOnEvent(tick=1, channel=0, data=[0, 207]),\n",
      "   midi.NoteOffEvent(tick=10, channel=0, data=[0, 0]),\n",
      "   midi.NoteOnEvent(tick=8, channel=0, data=[120, 181]),\n",
      "   midi.NoteOnEvent(tick=0, channel=0, data=[70, 36]),\n",
      "   midi.NoteOnEvent(tick=1, channel=0, data=[120, 11]),\n",
      "   midi.NoteOnEvent(tick=3, channel=0, data=[37, 30]),\n",
      "   midi.NoteOnEvent(tick=7, channel=0, data=[43, 250]),\n",
      "   midi.NoteOnEvent(tick=0, channel=0, data=[12, 98]),\n",
      "   midi.NoteOffEvent(tick=17, channel=0, data=[13, 0]),\n",
      "   midi.NoteOffEvent(tick=3, channel=0, data=[87, 0]),\n",
      "   midi.NoteOffEvent(tick=0, channel=0, data=[107, 0]),\n",
      "   midi.NoteOffEvent(tick=17, channel=0, data=[93, 0]),\n",
      "   midi.NoteOffEvent(tick=3, channel=0, data=[37, 0]),\n",
      "   midi.NoteOffEvent(tick=10, channel=0, data=[60, 0]),\n",
      "   midi.NoteOffEvent(tick=7, channel=0, data=[41, 0]),\n",
      "   midi.NoteOffEvent(tick=2, channel=0, data=[35, 0]),\n",
      "   midi.NoteOnEvent(tick=3, channel=0, data=[84, 88]),\n",
      "   midi.NoteOnEvent(tick=1, channel=0, data=[105, 190]),\n",
      "   midi.NoteOnEvent(tick=0, channel=0, data=[44, 223]),\n",
      "   midi.NoteOffEvent(tick=5, channel=0, data=[7, 0]),\n",
      "   midi.NoteOffEvent(tick=1, channel=0, data=[4, 0]),\n",
      "   midi.NoteOnEvent(tick=12, channel=0, data=[22, 82]),\n",
      "   midi.NoteOnEvent(tick=1, channel=0, data=[113, 127]),\n",
      "   midi.NoteOnEvent(tick=3, channel=0, data=[51, 164]),\n",
      "   midi.NoteOnEvent(tick=4, channel=0, data=[5, 162]),\n",
      "   midi.NoteOnEvent(tick=12, channel=0, data=[110, 150]),\n",
      "   midi.NoteOnEvent(tick=13, channel=0, data=[99, 170]),\n",
      "   midi.NoteOffEvent(tick=5, channel=0, data=[51, 0]),\n",
      "   midi.NoteOnEvent(tick=13, channel=0, data=[123, 252]),\n",
      "   midi.NoteOnEvent(tick=13, channel=0, data=[120, 151]),\n",
      "   midi.NoteOnEvent(tick=2, channel=0, data=[104, 71]),\n",
      "   midi.NoteOnEvent(tick=3, channel=0, data=[13, 139]),\n",
      "   midi.NoteOnEvent(tick=7, channel=0, data=[9, 39]),\n",
      "   midi.NoteOffEvent(tick=27, channel=0, data=[77, 0]),\n",
      "   midi.NoteOffEvent(tick=1, channel=0, data=[22, 0]),\n",
      "   midi.NoteOffEvent(tick=4, channel=0, data=[94, 0]),\n",
      "   midi.NoteOffEvent(tick=22, channel=0, data=[110, 0]),\n",
      "   midi.NoteOffEvent(tick=4, channel=0, data=[113, 0]),\n",
      "   midi.NoteOnEvent(tick=24, channel=0, data=[41, 247]),\n",
      "   midi.NoteOnEvent(tick=16, channel=0, data=[108, 16]),\n",
      "   midi.NoteOnEvent(tick=19, channel=0, data=[5, 163]),\n",
      "   midi.NoteOnEvent(tick=0, channel=0, data=[104, 233]),\n",
      "   midi.NoteOffEvent(tick=1, channel=0, data=[6, 0]),\n",
      "   midi.NoteOnEvent(tick=5, channel=0, data=[64, 245]),\n",
      "   midi.NoteOnEvent(tick=5, channel=0, data=[82, 36]),\n",
      "   midi.NoteOffEvent(tick=14, channel=0, data=[25, 0]),\n",
      "   midi.NoteOnEvent(tick=5, channel=0, data=[103, 94]),\n",
      "   midi.NoteOnEvent(tick=32, channel=0, data=[77, 152]),\n",
      "   midi.NoteOnEvent(tick=0, channel=0, data=[60, 121]),\n",
      "   midi.NoteOnEvent(tick=10, channel=0, data=[110, 49]),\n",
      "   midi.NoteOnEvent(tick=21, channel=0, data=[108, 134]),\n",
      "   midi.NoteOffEvent(tick=6, channel=0, data=[40, 0]),\n",
      "   midi.NoteOnEvent(tick=16, channel=0, data=[59, 112]),\n",
      "   midi.NoteOffEvent(tick=3, channel=0, data=[18, 0]),\n",
      "   midi.NoteOffEvent(tick=18, channel=0, data=[57, 0]),\n",
      "   midi.NoteOffEvent(tick=1, channel=0, data=[100, 0]),\n",
      "   midi.NoteOffEvent(tick=2, channel=0, data=[55, 0]),\n",
      "   midi.NoteOffEvent(tick=16, channel=0, data=[47, 0]),\n",
      "   midi.NoteOffEvent(tick=11, channel=0, data=[13, 0]),\n",
      "   midi.NoteOffEvent(tick=15, channel=0, data=[99, 0]),\n",
      "   midi.NoteOffEvent(tick=1, channel=0, data=[126, 0]),\n",
      "   midi.NoteOffEvent(tick=35, channel=0, data=[121, 0]),\n",
      "   midi.NoteOffEvent(tick=31, channel=0, data=[64, 0]),\n",
      "   midi.NoteOffEvent(tick=4, channel=0, data=[82, 0]),\n",
      "   midi.NoteOffEvent(tick=17, channel=0, data=[108, 0]),\n",
      "   midi.NoteOffEvent(tick=43, channel=0, data=[60, 0]),\n",
      "   midi.NoteOffEvent(tick=9, channel=0, data=[106, 0]),\n",
      "   midi.NoteOffEvent(tick=4, channel=0, data=[63, 0]),\n",
      "   midi.NoteOffEvent(tick=0, channel=0, data=[92, 0]),\n",
      "   midi.NoteOffEvent(tick=6, channel=0, data=[44, 0]),\n",
      "   midi.NoteOffEvent(tick=5, channel=0, data=[123, 0]),\n",
      "   midi.NoteOffEvent(tick=10, channel=0, data=[43, 0]),\n",
      "   midi.NoteOffEvent(tick=13, channel=0, data=[77, 0]),\n",
      "   midi.NoteOffEvent(tick=16, channel=0, data=[9, 0]),\n",
      "   midi.NoteOffEvent(tick=2, channel=0, data=[41, 0]),\n",
      "   midi.NoteOffEvent(tick=51, channel=0, data=[59, 0]),\n",
      "   midi.NoteOffEvent(tick=17, channel=0, data=[84, 0]),\n",
      "   midi.NoteOffEvent(tick=38, channel=0, data=[12, 0]),\n",
      "   midi.NoteOffEvent(tick=59, channel=0, data=[112, 0]),\n",
      "   midi.NoteOffEvent(tick=39, channel=0, data=[91, 0]),\n",
      "   midi.NoteOffEvent(tick=66, channel=0, data=[20, 0]),\n",
      "   midi.NoteOffEvent(tick=1, channel=0, data=[110, 0]),\n",
      "   midi.NoteOffEvent(tick=20, channel=0, data=[105, 0]),\n",
      "   midi.NoteOffEvent(tick=3, channel=0, data=[70, 0]),\n",
      "   midi.NoteOffEvent(tick=21, channel=0, data=[104, 0]),\n",
      "   midi.NoteOffEvent(tick=122, channel=0, data=[103, 0]),\n",
      "   midi.NoteOffEvent(tick=33, channel=0, data=[120, 0]),\n",
      "   midi.NoteOffEvent(tick=41, channel=0, data=[5, 0]),\n",
      "   midi.EndOfTrackEvent(tick=0, data=[])]),\n",
      " midi.Track(\\\n",
      "  [midi.SetTempoEvent(tick=0, data=[8, 227, 124]),\n",
      "   midi.ProgramChangeEvent(tick=0, channel=0, data=[95]),\n",
      "   midi.NoteOnEvent(tick=8, channel=0, data=[122, 11]),\n",
      "   midi.NoteOnEvent(tick=0, channel=0, data=[43, 190]),\n",
      "   midi.NoteOnEvent(tick=14, channel=0, data=[94, 165]),\n",
      "   midi.NoteOnEvent(tick=2, channel=0, data=[10, 69]),\n",
      "   midi.NoteOnEvent(tick=23, channel=0, data=[72, 138]),\n",
      "   midi.NoteOnEvent(tick=16, channel=0, data=[36, 233]),\n",
      "   midi.NoteOnEvent(tick=20, channel=0, data=[105, 192]),\n",
      "   midi.NoteOnEvent(tick=0, channel=0, data=[39, 53]),\n",
      "   midi.NoteOffEvent(tick=6, channel=0, data=[10, 0]),\n",
      "   midi.NoteOnEvent(tick=15, channel=0, data=[22, 237]),\n",
      "   midi.NoteOnEvent(tick=17, channel=0, data=[60, 82]),\n",
      "   midi.NoteOnEvent(tick=25, channel=0, data=[71, 167]),\n",
      "   midi.NoteOnEvent(tick=59, channel=0, data=[18, 141]),\n",
      "   midi.NoteOnEvent(tick=2, channel=0, data=[99, 37]),\n",
      "   midi.NoteOffEvent(tick=31, channel=0, data=[99, 0]),\n",
      "   midi.NoteOnEvent(tick=7, channel=0, data=[94, 2]),\n",
      "   midi.NoteOnEvent(tick=3, channel=0, data=[59, 40]),\n",
      "   midi.NoteOnEvent(tick=3, channel=0, data=[54, 113]),\n",
      "   midi.NoteOnEvent(tick=8, channel=0, data=[30, 144]),\n",
      "   midi.NoteOffEvent(tick=44, channel=0, data=[39, 0]),\n",
      "   midi.NoteOnEvent(tick=42, channel=0, data=[25, 3]),\n",
      "   midi.NoteOffEvent(tick=7, channel=0, data=[43, 0]),\n",
      "   midi.NoteOnEvent(tick=20, channel=0, data=[5, 173]),\n",
      "   midi.NoteOnEvent(tick=19, channel=0, data=[31, 230]),\n",
      "   midi.NoteOnEvent(tick=15, channel=0, data=[71, 62]),\n",
      "   midi.NoteOnEvent(tick=2, channel=0, data=[112, 171]),\n",
      "   midi.NoteOnEvent(tick=7, channel=0, data=[98, 57]),\n",
      "   midi.NoteOffEvent(tick=30, channel=0, data=[72, 0]),\n",
      "   midi.NoteOnEvent(tick=6, channel=0, data=[59, 59]),\n",
      "   midi.NoteOnEvent(tick=16, channel=0, data=[113, 58]),\n",
      "   midi.NoteOnEvent(tick=4, channel=0, data=[20, 183]),\n",
      "   midi.NoteOnEvent(tick=6, channel=0, data=[124, 52]),\n",
      "   midi.NoteOnEvent(tick=10, channel=0, data=[39, 89]),\n",
      "   midi.NoteOnEvent(tick=4, channel=0, data=[2, 3]),\n",
      "   midi.NoteOnEvent(tick=2, channel=0, data=[1, 1]),\n",
      "   midi.NoteOffEvent(tick=8, channel=0, data=[122, 0]),\n",
      "   midi.NoteOnEvent(tick=14, channel=0, data=[43, 230]),\n",
      "   midi.NoteOffEvent(tick=1, channel=0, data=[2, 0]),\n",
      "   midi.NoteOffEvent(tick=14, channel=0, data=[59, 0]),\n",
      "   midi.NoteOnEvent(tick=5, channel=0, data=[45, 92]),\n",
      "   midi.NoteOnEvent(tick=0, channel=0, data=[113, 93]),\n",
      "   midi.NoteOnEvent(tick=7, channel=0, data=[85, 81]),\n",
      "   midi.NoteOffEvent(tick=9, channel=0, data=[36, 0]),\n",
      "   midi.NoteOnEvent(tick=1, channel=0, data=[70, 2]),\n",
      "   midi.NoteOffEvent(tick=5, channel=0, data=[1, 0]),\n",
      "   midi.NoteOnEvent(tick=1, channel=0, data=[61, 183]),\n",
      "   midi.NoteOnEvent(tick=10, channel=0, data=[104, 74]),\n",
      "   midi.NoteOnEvent(tick=3, channel=0, data=[80, 47]),\n",
      "   midi.NoteOnEvent(tick=1, channel=0, data=[27, 232]),\n",
      "   midi.NoteOnEvent(tick=1, channel=0, data=[106, 230]),\n",
      "   midi.NoteOnEvent(tick=18, channel=0, data=[92, 174]),\n",
      "   midi.NoteOffEvent(tick=5, channel=0, data=[71, 0]),\n",
      "   midi.NoteOffEvent(tick=12, channel=0, data=[43, 0]),\n",
      "   midi.NoteOnEvent(tick=8, channel=0, data=[39, 246]),\n",
      "   midi.NoteOffEvent(tick=3, channel=0, data=[22, 0]),\n",
      "   midi.NoteOffEvent(tick=20, channel=0, data=[54, 0]),\n",
      "   midi.NoteOffEvent(tick=10, channel=0, data=[27, 0]),\n",
      "   midi.NoteOnEvent(tick=20, channel=0, data=[8, 202]),\n",
      "   midi.NoteOnEvent(tick=15, channel=0, data=[96, 152]),\n",
      "   midi.NoteOffEvent(tick=1, channel=0, data=[61, 0]),\n",
      "   midi.NoteOnEvent(tick=0, channel=0, data=[44, 128]),\n",
      "   midi.NoteOnEvent(tick=9, channel=0, data=[27, 191]),\n",
      "   midi.NoteOnEvent(tick=23, channel=0, data=[82, 157]),\n",
      "   midi.NoteOffEvent(tick=3, channel=0, data=[104, 0]),\n",
      "   midi.NoteOnEvent(tick=43, channel=0, data=[52, 77]),\n",
      "   midi.NoteOffEvent(tick=5, channel=0, data=[106, 0]),\n",
      "   midi.NoteOffEvent(tick=4, channel=0, data=[52, 0]),\n",
      "   midi.NoteOnEvent(tick=7, channel=0, data=[70, 128]),\n",
      "   midi.NoteOnEvent(tick=8, channel=0, data=[38, 190]),\n",
      "   midi.NoteOffEvent(tick=10, channel=0, data=[18, 0]),\n",
      "   midi.NoteOffEvent(tick=11, channel=0, data=[112, 0]),\n",
      "   midi.NoteOnEvent(tick=17, channel=0, data=[98, 168]),\n",
      "   midi.NoteOnEvent(tick=19, channel=0, data=[31, 171]),\n",
      "   midi.NoteOnEvent(tick=11, channel=0, data=[114, 57]),\n",
      "   midi.NoteOffEvent(tick=13, channel=0, data=[92, 0]),\n",
      "   midi.NoteOnEvent(tick=9, channel=0, data=[81, 245]),\n",
      "   midi.NoteOffEvent(tick=6, channel=0, data=[25, 0]),\n",
      "   midi.NoteOnEvent(tick=7, channel=0, data=[93, 60]),\n",
      "   midi.NoteOffEvent(tick=5, channel=0, data=[105, 0]),\n",
      "   midi.NoteOnEvent(tick=8, channel=0, data=[75, 98]),\n",
      "   midi.NoteOffEvent(tick=26, channel=0, data=[30, 0]),\n",
      "   midi.NoteOffEvent(tick=1, channel=0, data=[113, 0]),\n",
      "   midi.NoteOnEvent(tick=9, channel=0, data=[6, 32]),\n",
      "   midi.NoteOffEvent(tick=1, channel=0, data=[75, 0]),\n",
      "   midi.NoteOnEvent(tick=6, channel=0, data=[51, 111]),\n",
      "   midi.NoteOnEvent(tick=14, channel=0, data=[4, 224]),\n",
      "   midi.NoteOnEvent(tick=12, channel=0, data=[52, 149]),\n",
      "   midi.NoteOffEvent(tick=12, channel=0, data=[20, 0]),\n",
      "   midi.NoteOffEvent(tick=5, channel=0, data=[60, 0]),\n",
      "   midi.NoteOnEvent(tick=2, channel=0, data=[57, 226]),\n",
      "   midi.NoteOnEvent(tick=1, channel=0, data=[38, 16]),\n",
      "   midi.NoteOffEvent(tick=4, channel=0, data=[80, 0]),\n",
      "   midi.NoteOnEvent(tick=2, channel=0, data=[41, 20]),\n",
      "   midi.NoteOffEvent(tick=5, channel=0, data=[98, 0]),\n",
      "   midi.NoteOffEvent(tick=83, channel=0, data=[57, 0]),\n",
      "   midi.NoteOffEvent(tick=18, channel=0, data=[82, 0]),\n",
      "   midi.NoteOffEvent(tick=30, channel=0, data=[124, 0]),\n",
      "   midi.NoteOffEvent(tick=36, channel=0, data=[44, 0]),\n",
      "   midi.NoteOffEvent(tick=24, channel=0, data=[81, 0]),\n",
      "   midi.NoteOffEvent(tick=10, channel=0, data=[31, 0]),\n",
      "   midi.NoteOffEvent(tick=1, channel=0, data=[5, 0]),\n",
      "   midi.NoteOffEvent(tick=9, channel=0, data=[94, 0]),\n",
      "   midi.NoteOffEvent(tick=41, channel=0, data=[52, 0]),\n",
      "   midi.NoteOffEvent(tick=7, channel=0, data=[8, 0]),\n",
      "   midi.NoteOffEvent(tick=26, channel=0, data=[38, 0]),\n",
      "   midi.NoteOffEvent(tick=168, channel=0, data=[93, 0]),\n",
      "   midi.NoteOffEvent(tick=30, channel=0, data=[41, 0]),\n",
      "   midi.NoteOffEvent(tick=2, channel=0, data=[39, 0]),\n",
      "   midi.NoteOffEvent(tick=5, channel=0, data=[85, 0]),\n",
      "   midi.NoteOffEvent(tick=5, channel=0, data=[45, 0]),\n",
      "   midi.NoteOffEvent(tick=8, channel=0, data=[96, 0]),\n",
      "   midi.NoteOffEvent(tick=56, channel=0, data=[27, 0]),\n",
      "   midi.NoteOffEvent(tick=52, channel=0, data=[70, 0]),\n",
      "   midi.NoteOffEvent(tick=28, channel=0, data=[114, 0]),\n",
      "   midi.NoteOffEvent(tick=119, channel=0, data=[4, 0]),\n",
      "   midi.NoteOffEvent(tick=20, channel=0, data=[6, 0]),\n",
      "   midi.NoteOffEvent(tick=72, channel=0, data=[51, 0]),\n",
      "   midi.EndOfTrackEvent(tick=0, data=[])]),\n",
      " midi.Track(\\\n",
      "  [midi.SetTempoEvent(tick=0, data=[8, 227, 124]),\n",
      "   midi.ProgramChangeEvent(tick=0, channel=0, data=[96]),\n",
      "   midi.NoteOnEvent(tick=35, channel=0, data=[70, 209]),\n",
      "   midi.NoteOnEvent(tick=12, channel=0, data=[16, 45]),\n",
      "   midi.NoteOnEvent(tick=0, channel=0, data=[54, 154]),\n",
      "   midi.NoteOnEvent(tick=3, channel=0, data=[68, 227]),\n",
      "   midi.NoteOnEvent(tick=47, channel=0, data=[32, 142]),\n",
      "   midi.NoteOnEvent(tick=24, channel=0, data=[62, 173]),\n",
      "   midi.NoteOnEvent(tick=9, channel=0, data=[81, 254]),\n",
      "   midi.NoteOnEvent(tick=15, channel=0, data=[81, 184]),\n",
      "   midi.NoteOnEvent(tick=18, channel=0, data=[10, 108]),\n",
      "   midi.NoteOffEvent(tick=33, channel=0, data=[16, 0]),\n",
      "   midi.NoteOnEvent(tick=4, channel=0, data=[72, 69]),\n",
      "   midi.NoteOnEvent(tick=8, channel=0, data=[39, 108]),\n",
      "   midi.NoteOnEvent(tick=46, channel=0, data=[25, 110]),\n",
      "   midi.NoteOffEvent(tick=20, channel=0, data=[54, 0]),\n",
      "   midi.NoteOffEvent(tick=3, channel=0, data=[10, 0]),\n",
      "   midi.NoteOnEvent(tick=13, channel=0, data=[25, 25]),\n",
      "   midi.NoteOnEvent(tick=3, channel=0, data=[22, 198]),\n",
      "   midi.NoteOnEvent(tick=20, channel=0, data=[83, 83]),\n",
      "   midi.NoteOnEvent(tick=18, channel=0, data=[24, 65]),\n",
      "   midi.NoteOnEvent(tick=14, channel=0, data=[10, 49]),\n",
      "   midi.NoteOnEvent(tick=3, channel=0, data=[54, 132]),\n",
      "   midi.NoteOnEvent(tick=0, channel=0, data=[51, 58]),\n",
      "   midi.NoteOnEvent(tick=9, channel=0, data=[82, 69]),\n",
      "   midi.NoteOnEvent(tick=41, channel=0, data=[36, 202]),\n",
      "   midi.NoteOffEvent(tick=4, channel=0, data=[39, 0]),\n",
      "   midi.NoteOnEvent(tick=4, channel=0, data=[47, 71]),\n",
      "   midi.NoteOnEvent(tick=35, channel=0, data=[28, 146]),\n",
      "   midi.NoteOffEvent(tick=25, channel=0, data=[28, 0]),\n",
      "   midi.NoteOnEvent(tick=1, channel=0, data=[98, 51]),\n",
      "   midi.NoteOnEvent(tick=7, channel=0, data=[77, 252]),\n",
      "   midi.NoteOnEvent(tick=5, channel=0, data=[85, 93]),\n",
      "   midi.NoteOnEvent(tick=14, channel=0, data=[25, 204]),\n",
      "   midi.NoteOffEvent(tick=7, channel=0, data=[83, 0]),\n",
      "   midi.NoteOnEvent(tick=15, channel=0, data=[6, 196]),\n",
      "   midi.NoteOnEvent(tick=17, channel=0, data=[60, 122]),\n",
      "   midi.NoteOnEvent(tick=3, channel=0, data=[68, 54]),\n",
      "   midi.NoteOnEvent(tick=7, channel=0, data=[33, 133]),\n",
      "   midi.NoteOnEvent(tick=4, channel=0, data=[31, 46]),\n",
      "   midi.NoteOnEvent(tick=1, channel=0, data=[15, 235]),\n",
      "   midi.NoteOnEvent(tick=10, channel=0, data=[103, 27]),\n",
      "   midi.NoteOnEvent(tick=0, channel=0, data=[43, 109]),\n",
      "   midi.NoteOnEvent(tick=11, channel=0, data=[21, 204]),\n",
      "   midi.NoteOnEvent(tick=0, channel=0, data=[88, 83]),\n",
      "   midi.NoteOffEvent(tick=20, channel=0, data=[51, 0]),\n",
      "   midi.NoteOnEvent(tick=9, channel=0, data=[66, 176]),\n",
      "   midi.NoteOnEvent(tick=8, channel=0, data=[98, 154]),\n",
      "   midi.NoteOnEvent(tick=14, channel=0, data=[46, 201]),\n",
      "   midi.NoteOnEvent(tick=29, channel=0, data=[4, 181]),\n",
      "   midi.NoteOffEvent(tick=14, channel=0, data=[70, 0]),\n",
      "   midi.NoteOffEvent(tick=5, channel=0, data=[81, 0]),\n",
      "   midi.NoteOnEvent(tick=10, channel=0, data=[93, 111]),\n",
      "   midi.NoteOnEvent(tick=0, channel=0, data=[27, 9]),\n",
      "   midi.NoteOnEvent(tick=11, channel=0, data=[79, 117]),\n",
      "   midi.NoteOnEvent(tick=2, channel=0, data=[70, 0]),\n",
      "   midi.NoteOffEvent(tick=33, channel=0, data=[103, 0]),\n",
      "   midi.NoteOnEvent(tick=4, channel=0, data=[14, 111]),\n",
      "   midi.NoteOffEvent(tick=2, channel=0, data=[27, 0]),\n",
      "   midi.NoteOnEvent(tick=7, channel=0, data=[33, 16]),\n",
      "   midi.NoteOnEvent(tick=4, channel=0, data=[126, 191]),\n",
      "   midi.NoteOffEvent(tick=7, channel=0, data=[66, 0]),\n",
      "   midi.NoteOffEvent(tick=20, channel=0, data=[77, 0]),\n",
      "   midi.NoteOnEvent(tick=20, channel=0, data=[15, 134]),\n",
      "   midi.NoteOffEvent(tick=6, channel=0, data=[25, 0]),\n",
      "   midi.NoteOffEvent(tick=10, channel=0, data=[21, 0]),\n",
      "   midi.NoteOffEvent(tick=7, channel=0, data=[68, 0]),\n",
      "   midi.NoteOnEvent(tick=3, channel=0, data=[115, 236]),\n",
      "   midi.NoteOffEvent(tick=42, channel=0, data=[10, 0]),\n",
      "   midi.NoteOffEvent(tick=23, channel=0, data=[22, 0]),\n",
      "   midi.NoteOnEvent(tick=5, channel=0, data=[91, 119]),\n",
      "   midi.NoteOnEvent(tick=4, channel=0, data=[70, 54]),\n",
      "   midi.NoteOffEvent(tick=3, channel=0, data=[54, 0]),\n",
      "   midi.NoteOnEvent(tick=9, channel=0, data=[62, 244]),\n",
      "   midi.NoteOffEvent(tick=18, channel=0, data=[46, 0]),\n",
      "   midi.NoteOnEvent(tick=17, channel=0, data=[104, 185]),\n",
      "   midi.NoteOnEvent(tick=0, channel=0, data=[123, 76]),\n",
      "   midi.NoteOnEvent(tick=8, channel=0, data=[4, 161]),\n",
      "   midi.NoteOnEvent(tick=8, channel=0, data=[24, 198]),\n",
      "   midi.NoteOffEvent(tick=9, channel=0, data=[32, 0]),\n",
      "   midi.NoteOnEvent(tick=3, channel=0, data=[64, 52]),\n",
      "   midi.NoteOnEvent(tick=3, channel=0, data=[80, 124]),\n",
      "   midi.NoteOnEvent(tick=4, channel=0, data=[66, 116]),\n",
      "   midi.NoteOnEvent(tick=23, channel=0, data=[73, 167]),\n",
      "   midi.NoteOnEvent(tick=0, channel=0, data=[12, 165]),\n",
      "   midi.NoteOffEvent(tick=28, channel=0, data=[82, 0]),\n",
      "   midi.NoteOffEvent(tick=31, channel=0, data=[98, 0]),\n",
      "   midi.NoteOffEvent(tick=18, channel=0, data=[66, 0]),\n",
      "   midi.NoteOffEvent(tick=14, channel=0, data=[72, 0]),\n",
      "   midi.NoteOffEvent(tick=21, channel=0, data=[60, 0]),\n",
      "   midi.NoteOffEvent(tick=39, channel=0, data=[62, 0]),\n",
      "   midi.NoteOffEvent(tick=14, channel=0, data=[91, 0]),\n",
      "   midi.NoteOffEvent(tick=6, channel=0, data=[88, 0]),\n",
      "   midi.NoteOffEvent(tick=9, channel=0, data=[79, 0]),\n",
      "   midi.NoteOffEvent(tick=3, channel=0, data=[24, 0]),\n",
      "   midi.NoteOffEvent(tick=2, channel=0, data=[123, 0]),\n",
      "   midi.NoteOffEvent(tick=75, channel=0, data=[85, 0]),\n",
      "   midi.NoteOffEvent(tick=10, channel=0, data=[31, 0]),\n",
      "   midi.NoteOffEvent(tick=15, channel=0, data=[115, 0]),\n",
      "   midi.NoteOffEvent(tick=7, channel=0, data=[70, 0]),\n",
      "   midi.NoteOffEvent(tick=1, channel=0, data=[73, 0]),\n",
      "   midi.NoteOffEvent(tick=18, channel=0, data=[36, 0]),\n",
      "   midi.NoteOffEvent(tick=21, channel=0, data=[6, 0]),\n",
      "   midi.NoteOffEvent(tick=7, channel=0, data=[14, 0]),\n",
      "   midi.NoteOffEvent(tick=45, channel=0, data=[126, 0]),\n",
      "   midi.NoteOffEvent(tick=6, channel=0, data=[47, 0]),\n",
      "   midi.NoteOffEvent(tick=66, channel=0, data=[4, 0]),\n",
      "   midi.NoteOffEvent(tick=33, channel=0, data=[93, 0]),\n",
      "   midi.NoteOffEvent(tick=18, channel=0, data=[43, 0]),\n",
      "   midi.NoteOffEvent(tick=8, channel=0, data=[15, 0]),\n",
      "   midi.NoteOffEvent(tick=53, channel=0, data=[104, 0]),\n",
      "   midi.NoteOffEvent(tick=73, channel=0, data=[33, 0]),\n",
      "   midi.NoteOffEvent(tick=16, channel=0, data=[12, 0]),\n",
      "   midi.NoteOffEvent(tick=92, channel=0, data=[80, 0]),\n",
      "   midi.NoteOffEvent(tick=211, channel=0, data=[64, 0]),\n",
      "   midi.EndOfTrackEvent(tick=0, data=[])]),\n",
      " midi.Track(\\\n",
      "  [midi.SetTempoEvent(tick=0, data=[8, 227, 124]),\n",
      "   midi.ProgramChangeEvent(tick=0, channel=0, data=[97]),\n",
      "   midi.NoteOnEvent(tick=7, channel=0, data=[103, 245]),\n",
      "   midi.NoteOnEvent(tick=23, channel=0, data=[107, 54]),\n",
      "   midi.NoteOnEvent(tick=23, channel=0, data=[18, 18]),\n",
      "   midi.NoteOnEvent(tick=51, channel=0, data=[89, 100]),\n",
      "   midi.NoteOnEvent(tick=0, channel=0, data=[54, 36]),\n",
      "   midi.NoteOnEvent(tick=22, channel=0, data=[45, 164]),\n",
      "   midi.NoteOffEvent(tick=16, channel=0, data=[54, 0]),\n",
      "   midi.NoteOnEvent(tick=1, channel=0, data=[107, 220]),\n",
      "   midi.NoteOnEvent(tick=23, channel=0, data=[82, 211]),\n",
      "   midi.NoteOnEvent(tick=43, channel=0, data=[97, 84]),\n",
      "   midi.NoteOnEvent(tick=13, channel=0, data=[60, 92]),\n",
      "   midi.NoteOnEvent(tick=0, channel=0, data=[29, 40]),\n",
      "   midi.NoteOnEvent(tick=14, channel=0, data=[109, 234]),\n",
      "   midi.NoteOnEvent(tick=1, channel=0, data=[65, 178]),\n",
      "   midi.NoteOffEvent(tick=3, channel=0, data=[109, 0]),\n",
      "   midi.NoteOnEvent(tick=5, channel=0, data=[17, 177]),\n",
      "   midi.NoteOnEvent(tick=12, channel=0, data=[36, 22]),\n",
      "   midi.NoteOnEvent(tick=12, channel=0, data=[18, 139]),\n",
      "   midi.NoteOnEvent(tick=7, channel=0, data=[73, 43]),\n",
      "   midi.NoteOnEvent(tick=4, channel=0, data=[62, 209]),\n",
      "   midi.NoteOnEvent(tick=13, channel=0, data=[92, 99]),\n",
      "   midi.NoteOnEvent(tick=0, channel=0, data=[38, 201]),\n",
      "   midi.NoteOnEvent(tick=5, channel=0, data=[56, 108]),\n",
      "   midi.NoteOnEvent(tick=1, channel=0, data=[7, 120]),\n",
      "   midi.NoteOnEvent(tick=14, channel=0, data=[63, 205]),\n",
      "   midi.NoteOnEvent(tick=23, channel=0, data=[112, 17]),\n",
      "   midi.NoteOnEvent(tick=1, channel=0, data=[97, 140]),\n",
      "   midi.NoteOnEvent(tick=8, channel=0, data=[108, 95]),\n",
      "   midi.NoteOnEvent(tick=9, channel=0, data=[41, 69]),\n",
      "   midi.NoteOffEvent(tick=29, channel=0, data=[112, 0]),\n",
      "   midi.NoteOnEvent(tick=15, channel=0, data=[76, 210]),\n",
      "   midi.NoteOnEvent(tick=5, channel=0, data=[50, 181]),\n",
      "   midi.NoteOnEvent(tick=1, channel=0, data=[81, 206]),\n",
      "   midi.NoteOnEvent(tick=0, channel=0, data=[6, 119]),\n",
      "   midi.NoteOnEvent(tick=4, channel=0, data=[118, 68]),\n",
      "   midi.NoteOnEvent(tick=8, channel=0, data=[93, 111]),\n",
      "   midi.NoteOffEvent(tick=3, channel=0, data=[45, 0]),\n",
      "   midi.NoteOnEvent(tick=32, channel=0, data=[75, 68]),\n",
      "   midi.NoteOnEvent(tick=6, channel=0, data=[88, 45]),\n",
      "   midi.NoteOnEvent(tick=5, channel=0, data=[115, 149]),\n",
      "   midi.NoteOffEvent(tick=7, channel=0, data=[118, 0]),\n",
      "   midi.NoteOnEvent(tick=1, channel=0, data=[48, 44]),\n",
      "   midi.NoteOnEvent(tick=26, channel=0, data=[72, 63]),\n",
      "   midi.NoteOffEvent(tick=1, channel=0, data=[75, 0]),\n",
      "   midi.NoteOffEvent(tick=2, channel=0, data=[97, 0]),\n",
      "   midi.NoteOnEvent(tick=16, channel=0, data=[13, 222]),\n",
      "   midi.NoteOnEvent(tick=1, channel=0, data=[30, 95]),\n",
      "   midi.NoteOnEvent(tick=14, channel=0, data=[22, 36]),\n",
      "   midi.NoteOffEvent(tick=2, channel=0, data=[89, 0]),\n",
      "   midi.NoteOnEvent(tick=15, channel=0, data=[0, 142]),\n",
      "   midi.NoteOnEvent(tick=7, channel=0, data=[72, 81]),\n",
      "   midi.NoteOnEvent(tick=14, channel=0, data=[57, 134]),\n",
      "   midi.NoteOnEvent(tick=6, channel=0, data=[86, 2]),\n",
      "   midi.NoteOnEvent(tick=18, channel=0, data=[11, 44]),\n",
      "   midi.NoteOffEvent(tick=1, channel=0, data=[50, 0]),\n",
      "   midi.NoteOnEvent(tick=10, channel=0, data=[123, 74]),\n",
      "   midi.NoteOnEvent(tick=22, channel=0, data=[100, 106]),\n",
      "   midi.NoteOnEvent(tick=1, channel=0, data=[57, 193]),\n",
      "   midi.NoteOffEvent(tick=9, channel=0, data=[0, 0]),\n",
      "   midi.NoteOffEvent(tick=8, channel=0, data=[63, 0]),\n",
      "   midi.NoteOffEvent(tick=25, channel=0, data=[29, 0]),\n",
      "   midi.NoteOffEvent(tick=0, channel=0, data=[107, 0]),\n",
      "   midi.NoteOnEvent(tick=7, channel=0, data=[119, 154]),\n",
      "   midi.NoteOffEvent(tick=59, channel=0, data=[103, 0]),\n",
      "   midi.NoteOnEvent(tick=3, channel=0, data=[11, 25]),\n",
      "   midi.NoteOnEvent(tick=7, channel=0, data=[29, 86]),\n",
      "   midi.NoteOnEvent(tick=8, channel=0, data=[3, 222]),\n",
      "   midi.NoteOnEvent(tick=3, channel=0, data=[15, 3]),\n",
      "   midi.NoteOnEvent(tick=9, channel=0, data=[7, 99]),\n",
      "   midi.NoteOffEvent(tick=6, channel=0, data=[30, 0]),\n",
      "   midi.NoteOnEvent(tick=2, channel=0, data=[67, 49]),\n",
      "   midi.NoteOnEvent(tick=7, channel=0, data=[107, 162]),\n",
      "   midi.NoteOffEvent(tick=1, channel=0, data=[6, 0]),\n",
      "   midi.NoteOnEvent(tick=3, channel=0, data=[93, 95]),\n",
      "   midi.NoteOnEvent(tick=3, channel=0, data=[5, 127]),\n",
      "   midi.NoteOnEvent(tick=1, channel=0, data=[89, 51]),\n",
      "   midi.NoteOffEvent(tick=26, channel=0, data=[41, 0]),\n",
      "   midi.NoteOnEvent(tick=6, channel=0, data=[33, 121]),\n",
      "   midi.NoteOnEvent(tick=6, channel=0, data=[2, 34]),\n",
      "   midi.NoteOffEvent(tick=13, channel=0, data=[100, 0]),\n",
      "   midi.NoteOnEvent(tick=4, channel=0, data=[94, 246]),\n",
      "   midi.NoteOnEvent(tick=16, channel=0, data=[68, 225]),\n",
      "   midi.NoteOffEvent(tick=2, channel=0, data=[57, 0]),\n",
      "   midi.NoteOnEvent(tick=12, channel=0, data=[58, 209]),\n",
      "   midi.NoteOnEvent(tick=0, channel=0, data=[17, 74]),\n",
      "   midi.NoteOffEvent(tick=5, channel=0, data=[88, 0]),\n",
      "   midi.NoteOnEvent(tick=10, channel=0, data=[13, 32]),\n",
      "   midi.NoteOffEvent(tick=12, channel=0, data=[48, 0]),\n",
      "   midi.NoteOffEvent(tick=4, channel=0, data=[92, 0]),\n",
      "   midi.NoteOnEvent(tick=0, channel=0, data=[122, 108]),\n",
      "   midi.NoteOffEvent(tick=12, channel=0, data=[60, 0]),\n",
      "   midi.NoteOnEvent(tick=14, channel=0, data=[98, 222]),\n",
      "   midi.NoteOnEvent(tick=10, channel=0, data=[123, 103]),\n",
      "   midi.NoteOnEvent(tick=7, channel=0, data=[101, 11]),\n",
      "   midi.NoteOffEvent(tick=4, channel=0, data=[119, 0]),\n",
      "   midi.NoteOnEvent(tick=0, channel=0, data=[77, 187]),\n",
      "   midi.NoteOnEvent(tick=19, channel=0, data=[45, 6]),\n",
      "   midi.NoteOnEvent(tick=0, channel=0, data=[96, 236]),\n",
      "   midi.NoteOnEvent(tick=0, channel=0, data=[14, 123]),\n",
      "   midi.NoteOnEvent(tick=3, channel=0, data=[56, 127]),\n",
      "   midi.NoteOnEvent(tick=3, channel=0, data=[66, 122]),\n",
      "   midi.NoteOnEvent(tick=12, channel=0, data=[51, 88]),\n",
      "   midi.NoteOnEvent(tick=5, channel=0, data=[11, 128]),\n",
      "   midi.NoteOffEvent(tick=44, channel=0, data=[45, 0]),\n",
      "   midi.NoteOffEvent(tick=27, channel=0, data=[11, 0]),\n",
      "   midi.NoteOffEvent(tick=1, channel=0, data=[15, 0]),\n",
      "   midi.NoteOffEvent(tick=7, channel=0, data=[68, 0]),\n",
      "   midi.NoteOffEvent(tick=10, channel=0, data=[62, 0]),\n",
      "   midi.NoteOffEvent(tick=3, channel=0, data=[29, 0]),\n",
      "   midi.NoteOffEvent(tick=24, channel=0, data=[36, 0]),\n",
      "   midi.NoteOffEvent(tick=3, channel=0, data=[107, 0]),\n",
      "   midi.NoteOffEvent(tick=13, channel=0, data=[58, 0]),\n",
      "   midi.NoteOffEvent(tick=8, channel=0, data=[67, 0]),\n",
      "   midi.NoteOffEvent(tick=11, channel=0, data=[122, 0]),\n",
      "   midi.NoteOffEvent(tick=2, channel=0, data=[82, 0]),\n",
      "   midi.NoteOffEvent(tick=4, channel=0, data=[89, 0]),\n",
      "   midi.NoteOffEvent(tick=14, channel=0, data=[65, 0]),\n",
      "   midi.NoteOffEvent(tick=3, channel=0, data=[115, 0]),\n",
      "   midi.NoteOffEvent(tick=7, channel=0, data=[18, 0]),\n",
      "   midi.NoteOffEvent(tick=1, channel=0, data=[38, 0]),\n",
      "   midi.NoteOffEvent(tick=43, channel=0, data=[22, 0]),\n",
      "   midi.NoteOffEvent(tick=26, channel=0, data=[73, 0]),\n",
      "   midi.NoteOffEvent(tick=2, channel=0, data=[76, 0]),\n",
      "   midi.NoteOffEvent(tick=11, channel=0, data=[81, 0]),\n",
      "   midi.NoteOffEvent(tick=13, channel=0, data=[98, 0]),\n",
      "   midi.NoteOffEvent(tick=6, channel=0, data=[123, 0]),\n",
      "   midi.NoteOffEvent(tick=42, channel=0, data=[108, 0]),\n",
      "   midi.NoteOffEvent(tick=38, channel=0, data=[13, 0]),\n",
      "   midi.NoteOffEvent(tick=10, channel=0, data=[7, 0]),\n",
      "   midi.NoteOffEvent(tick=32, channel=0, data=[72, 0]),\n",
      "   midi.NoteOffEvent(tick=9, channel=0, data=[96, 0]),\n",
      "   midi.NoteOffEvent(tick=69, channel=0, data=[101, 0]),\n",
      "   midi.NoteOffEvent(tick=2, channel=0, data=[17, 0]),\n",
      "   midi.NoteOffEvent(tick=60, channel=0, data=[86, 0]),\n",
      "   midi.NoteOffEvent(tick=57, channel=0, data=[3, 0]),\n",
      "   midi.NoteOffEvent(tick=0, channel=0, data=[14, 0]),\n",
      "   midi.NoteOffEvent(tick=52, channel=0, data=[93, 0]),\n",
      "   midi.NoteOffEvent(tick=4, channel=0, data=[5, 0]),\n",
      "   midi.NoteOffEvent(tick=23, channel=0, data=[56, 0]),\n",
      "   midi.NoteOffEvent(tick=27, channel=0, data=[77, 0]),\n",
      "   midi.NoteOffEvent(tick=98, channel=0, data=[51, 0]),\n",
      "   midi.NoteOffEvent(tick=3, channel=0, data=[94, 0]),\n",
      "   midi.NoteOffEvent(tick=7, channel=0, data=[2, 0]),\n",
      "   midi.NoteOffEvent(tick=5, channel=0, data=[33, 0]),\n",
      "   midi.NoteOffEvent(tick=7, channel=0, data=[66, 0]),\n",
      "   midi.EndOfTrackEvent(tick=0, data=[])]),\n",
      " midi.Track(\\\n",
      "  [midi.SetTempoEvent(tick=0, data=[8, 227, 124]),\n",
      "   midi.ProgramChangeEvent(tick=0, channel=0, data=[98]),\n",
      "   midi.NoteOnEvent(tick=7, channel=0, data=[18, 3]),\n",
      "   midi.NoteOnEvent(tick=40, channel=0, data=[75, 203]),\n",
      "   midi.NoteOnEvent(tick=0, channel=0, data=[15, 38]),\n",
      "   midi.NoteOnEvent(tick=6, channel=0, data=[95, 226]),\n",
      "   midi.NoteOnEvent(tick=73, channel=0, data=[99, 68]),\n",
      "   midi.NoteOnEvent(tick=3, channel=0, data=[31, 3]),\n",
      "   midi.NoteOnEvent(tick=30, channel=0, data=[8, 61]),\n",
      "   midi.NoteOffEvent(tick=15, channel=0, data=[18, 0]),\n",
      "   midi.NoteOnEvent(tick=2, channel=0, data=[94, 13]),\n",
      "   midi.NoteOnEvent(tick=21, channel=0, data=[117, 217]),\n",
      "   midi.NoteOffEvent(tick=13, channel=0, data=[15, 0]),\n",
      "   midi.NoteOnEvent(tick=35, channel=0, data=[0, 239]),\n",
      "   midi.NoteOnEvent(tick=0, channel=0, data=[33, 137]),\n",
      "   midi.NoteOffEvent(tick=3, channel=0, data=[117, 0]),\n",
      "   midi.NoteOnEvent(tick=9, channel=0, data=[0, 153]),\n",
      "   midi.NoteOnEvent(tick=0, channel=0, data=[51, 127]),\n",
      "   midi.NoteOnEvent(tick=8, channel=0, data=[97, 15]),\n",
      "   midi.NoteOffEvent(tick=3, channel=0, data=[31, 0]),\n",
      "   midi.NoteOnEvent(tick=33, channel=0, data=[43, 75]),\n",
      "   midi.NoteOnEvent(tick=12, channel=0, data=[88, 242]),\n",
      "   midi.NoteOnEvent(tick=18, channel=0, data=[107, 203]),\n",
      "   midi.NoteOnEvent(tick=1, channel=0, data=[53, 59]),\n",
      "   midi.NoteOnEvent(tick=13, channel=0, data=[106, 79]),\n",
      "   midi.NoteOnEvent(tick=0, channel=0, data=[33, 55]),\n",
      "   midi.NoteOffEvent(tick=17, channel=0, data=[0, 0]),\n",
      "   midi.NoteOffEvent(tick=2, channel=0, data=[106, 0]),\n",
      "   midi.NoteOffEvent(tick=22, channel=0, data=[51, 0]),\n",
      "   midi.NoteOnEvent(tick=52, channel=0, data=[95, 163]),\n",
      "   midi.NoteOnEvent(tick=16, channel=0, data=[42, 6]),\n",
      "   midi.NoteOffEvent(tick=22, channel=0, data=[88, 0]),\n",
      "   midi.NoteOffEvent(tick=3, channel=0, data=[95, 0]),\n",
      "   midi.NoteOnEvent(tick=7, channel=0, data=[122, 128]),\n",
      "   midi.NoteOnEvent(tick=45, channel=0, data=[75, 119]),\n",
      "   midi.NoteOnEvent(tick=4, channel=0, data=[107, 61]),\n",
      "   midi.NoteOffEvent(tick=10, channel=0, data=[42, 0]),\n",
      "   midi.NoteOffEvent(tick=26, channel=0, data=[53, 0]),\n",
      "   midi.NoteOnEvent(tick=21, channel=0, data=[108, 44]),\n",
      "   midi.NoteOffEvent(tick=3, channel=0, data=[33, 0]),\n",
      "   midi.NoteOnEvent(tick=102, channel=0, data=[76, 177]),\n",
      "   midi.NoteOffEvent(tick=5, channel=0, data=[97, 0]),\n",
      "   midi.NoteOffEvent(tick=18, channel=0, data=[99, 0]),\n",
      "   midi.NoteOnEvent(tick=12, channel=0, data=[28, 221]),\n",
      "   midi.NoteOnEvent(tick=9, channel=0, data=[51, 180]),\n",
      "   midi.NoteOffEvent(tick=4, channel=0, data=[76, 0]),\n",
      "   midi.NoteOnEvent(tick=27, channel=0, data=[112, 72]),\n",
      "   midi.NoteOnEvent(tick=5, channel=0, data=[49, 155]),\n",
      "   midi.NoteOffEvent(tick=6, channel=0, data=[43, 0]),\n",
      "   midi.NoteOffEvent(tick=28, channel=0, data=[108, 0]),\n",
      "   midi.NoteOnEvent(tick=14, channel=0, data=[49, 103]),\n",
      "   midi.NoteOffEvent(tick=43, channel=0, data=[28, 0]),\n",
      "   midi.NoteOnEvent(tick=7, channel=0, data=[73, 45]),\n",
      "   midi.NoteOnEvent(tick=15, channel=0, data=[35, 161]),\n",
      "   midi.NoteOnEvent(tick=0, channel=0, data=[51, 64]),\n",
      "   midi.NoteOnEvent(tick=17, channel=0, data=[38, 229]),\n",
      "   midi.NoteOnEvent(tick=10, channel=0, data=[34, 25]),\n",
      "   midi.NoteOnEvent(tick=25, channel=0, data=[62, 202]),\n",
      "   midi.NoteOnEvent(tick=27, channel=0, data=[3, 237]),\n",
      "   midi.NoteOnEvent(tick=1, channel=0, data=[18, 57]),\n",
      "   midi.NoteOffEvent(tick=9, channel=0, data=[18, 0]),\n",
      "   midi.NoteOffEvent(tick=8, channel=0, data=[112, 0]),\n",
      "   midi.NoteOnEvent(tick=6, channel=0, data=[46, 18]),\n",
      "   midi.NoteOffEvent(tick=99, channel=0, data=[122, 0]),\n",
      "   midi.NoteOffEvent(tick=14, channel=0, data=[8, 0]),\n",
      "   midi.NoteOffEvent(tick=2, channel=0, data=[94, 0]),\n",
      "   midi.NoteOffEvent(tick=217, channel=0, data=[107, 0]),\n",
      "   midi.NoteOffEvent(tick=94, channel=0, data=[49, 0]),\n",
      "   midi.NoteOffEvent(tick=29, channel=0, data=[62, 0]),\n",
      "   midi.NoteOffEvent(tick=19, channel=0, data=[75, 0]),\n",
      "   midi.NoteOffEvent(tick=19, channel=0, data=[35, 0]),\n",
      "   midi.NoteOffEvent(tick=16, channel=0, data=[73, 0]),\n",
      "   midi.NoteOffEvent(tick=14, channel=0, data=[38, 0]),\n",
      "   midi.NoteOffEvent(tick=151, channel=0, data=[46, 0]),\n",
      "   midi.NoteOffEvent(tick=90, channel=0, data=[34, 0]),\n",
      "   midi.NoteOffEvent(tick=41, channel=0, data=[51, 0]),\n",
      "   midi.NoteOffEvent(tick=27, channel=0, data=[3, 0]),\n",
      "   midi.EndOfTrackEvent(tick=0, data=[])]),\n",
      " midi.Track(\\\n",
      "  [midi.SetTempoEvent(tick=0, data=[8, 227, 124]),\n",
      "   midi.ProgramChangeEvent(tick=0, channel=0, data=[99]),\n",
      "   midi.NoteOnEvent(tick=7, channel=0, data=[34, 9]),\n",
      "   midi.NoteOnEvent(tick=1, channel=0, data=[76, 95]),\n",
      "   midi.NoteOnEvent(tick=3, channel=0, data=[92, 108]),\n",
      "   midi.NoteOnEvent(tick=3, channel=0, data=[65, 143]),\n",
      "   midi.NoteOnEvent(tick=0, channel=0, data=[63, 212]),\n",
      "   midi.NoteOnEvent(tick=4, channel=0, data=[110, 189]),\n",
      "   midi.NoteOnEvent(tick=24, channel=0, data=[36, 183]),\n",
      "   midi.NoteOnEvent(tick=12, channel=0, data=[24, 91]),\n",
      "   midi.NoteOffEvent(tick=8, channel=0, data=[63, 0]),\n",
      "   midi.NoteOnEvent(tick=6, channel=0, data=[74, 113]),\n",
      "   midi.NoteOnEvent(tick=15, channel=0, data=[20, 76]),\n",
      "   midi.NoteOnEvent(tick=11, channel=0, data=[13, 84]),\n",
      "   midi.NoteOnEvent(tick=3, channel=0, data=[113, 8]),\n",
      "   midi.NoteOnEvent(tick=29, channel=0, data=[69, 187]),\n",
      "   midi.NoteOnEvent(tick=0, channel=0, data=[88, 208]),\n",
      "   midi.NoteOnEvent(tick=4, channel=0, data=[34, 91]),\n",
      "   midi.NoteOnEvent(tick=0, channel=0, data=[36, 33]),\n",
      "   midi.NoteOnEvent(tick=8, channel=0, data=[5, 31]),\n",
      "   midi.NoteOnEvent(tick=7, channel=0, data=[20, 176]),\n",
      "   midi.NoteOnEvent(tick=1, channel=0, data=[72, 242]),\n",
      "   midi.NoteOnEvent(tick=31, channel=0, data=[93, 167]),\n",
      "   midi.NoteOffEvent(tick=27, channel=0, data=[69, 0]),\n",
      "   midi.NoteOnEvent(tick=1, channel=0, data=[9, 72]),\n",
      "   midi.NoteOnEvent(tick=17, channel=0, data=[12, 89]),\n",
      "   midi.NoteOnEvent(tick=13, channel=0, data=[115, 179]),\n",
      "   midi.NoteOffEvent(tick=9, channel=0, data=[24, 0]),\n",
      "   midi.NoteOnEvent(tick=2, channel=0, data=[72, 245]),\n",
      "   midi.NoteOnEvent(tick=11, channel=0, data=[47, 0]),\n",
      "   midi.NoteOffEvent(tick=5, channel=0, data=[113, 0]),\n",
      "   midi.NoteOnEvent(tick=3, channel=0, data=[66, 243]),\n",
      "   midi.NoteOnEvent(tick=15, channel=0, data=[45, 217]),\n",
      "   midi.NoteOnEvent(tick=29, channel=0, data=[84, 100]),\n",
      "   midi.NoteOnEvent(tick=0, channel=0, data=[44, 43]),\n",
      "   midi.NoteOnEvent(tick=4, channel=0, data=[64, 226]),\n",
      "   midi.NoteOnEvent(tick=5, channel=0, data=[44, 43]),\n",
      "   midi.NoteOnEvent(tick=3, channel=0, data=[51, 170]),\n",
      "   midi.NoteOffEvent(tick=2, channel=0, data=[12, 0]),\n",
      "   midi.NoteOnEvent(tick=26, channel=0, data=[40, 37]),\n",
      "   midi.NoteOnEvent(tick=3, channel=0, data=[87, 54]),\n",
      "   midi.NoteOnEvent(tick=0, channel=0, data=[72, 253]),\n",
      "   midi.NoteOnEvent(tick=19, channel=0, data=[42, 129]),\n",
      "   midi.NoteOffEvent(tick=2, channel=0, data=[5, 0]),\n",
      "   midi.NoteOnEvent(tick=13, channel=0, data=[107, 158]),\n",
      "   midi.NoteOffEvent(tick=9, channel=0, data=[9, 0]),\n",
      "   midi.NoteOnEvent(tick=45, channel=0, data=[2, 212]),\n",
      "   midi.NoteOnEvent(tick=2, channel=0, data=[26, 170]),\n",
      "   midi.NoteOnEvent(tick=29, channel=0, data=[72, 4]),\n",
      "   midi.NoteOnEvent(tick=2, channel=0, data=[6, 218]),\n",
      "   midi.NoteOffEvent(tick=7, channel=0, data=[88, 0]),\n",
      "   midi.NoteOnEvent(tick=11, channel=0, data=[85, 210]),\n",
      "   midi.NoteOnEvent(tick=14, channel=0, data=[14, 96]),\n",
      "   midi.NoteOnEvent(tick=17, channel=0, data=[107, 65]),\n",
      "   midi.NoteOffEvent(tick=1, channel=0, data=[93, 0]),\n",
      "   midi.NoteOnEvent(tick=15, channel=0, data=[122, 209]),\n",
      "   midi.NoteOffEvent(tick=5, channel=0, data=[92, 0]),\n",
      "   midi.NoteOffEvent(tick=13, channel=0, data=[40, 0]),\n",
      "   midi.NoteOnEvent(tick=2, channel=0, data=[41, 28]),\n",
      "   midi.NoteOffEvent(tick=1, channel=0, data=[74, 0]),\n",
      "   midi.NoteOffEvent(tick=4, channel=0, data=[64, 0]),\n",
      "   midi.NoteOnEvent(tick=33, channel=0, data=[56, 20]),\n",
      "   midi.NoteOnEvent(tick=0, channel=0, data=[6, 103]),\n",
      "   midi.NoteOffEvent(tick=9, channel=0, data=[122, 0]),\n",
      "   midi.NoteOnEvent(tick=9, channel=0, data=[68, 82]),\n",
      "   midi.NoteOffEvent(tick=4, channel=0, data=[72, 0]),\n",
      "   midi.NoteOnEvent(tick=8, channel=0, data=[35, 64]),\n",
      "   midi.NoteOffEvent(tick=35, channel=0, data=[34, 0]),\n",
      "   midi.NoteOffEvent(tick=45, channel=0, data=[107, 0]),\n",
      "   midi.NoteOnEvent(tick=5, channel=0, data=[16, 59]),\n",
      "   midi.NoteOnEvent(tick=6, channel=0, data=[82, 103]),\n",
      "   midi.NoteOffEvent(tick=8, channel=0, data=[16, 0]),\n",
      "   midi.NoteOffEvent(tick=8, channel=0, data=[42, 0]),\n",
      "   midi.NoteOffEvent(tick=1, channel=0, data=[85, 0]),\n",
      "   midi.NoteOnEvent(tick=5, channel=0, data=[119, 39]),\n",
      "   midi.NoteOnEvent(tick=0, channel=0, data=[47, 26]),\n",
      "   midi.NoteOnEvent(tick=1, channel=0, data=[5, 47]),\n",
      "   midi.NoteOffEvent(tick=8, channel=0, data=[65, 0]),\n",
      "   midi.NoteOnEvent(tick=2, channel=0, data=[46, 94]),\n",
      "   midi.NoteOnEvent(tick=0, channel=0, data=[50, 213]),\n",
      "   midi.NoteOffEvent(tick=7, channel=0, data=[45, 0]),\n",
      "   midi.NoteOffEvent(tick=4, channel=0, data=[76, 0]),\n",
      "   midi.NoteOnEvent(tick=1, channel=0, data=[75, 245]),\n",
      "   midi.NoteOnEvent(tick=1, channel=0, data=[20, 254]),\n",
      "   midi.NoteOnEvent(tick=23, channel=0, data=[54, 161]),\n",
      "   midi.NoteOffEvent(tick=1, channel=0, data=[56, 0]),\n",
      "   midi.NoteOffEvent(tick=11, channel=0, data=[13, 0]),\n",
      "   midi.NoteOffEvent(tick=1, channel=0, data=[36, 0]),\n",
      "   midi.NoteOffEvent(tick=11, channel=0, data=[82, 0]),\n",
      "   midi.NoteOnEvent(tick=62, channel=0, data=[52, 38]),\n",
      "   midi.NoteOnEvent(tick=27, channel=0, data=[28, 53]),\n",
      "   midi.NoteOnEvent(tick=24, channel=0, data=[32, 179]),\n",
      "   midi.NoteOffEvent(tick=4, channel=0, data=[87, 0]),\n",
      "   midi.NoteOnEvent(tick=11, channel=0, data=[88, 243]),\n",
      "   midi.NoteOffEvent(tick=4, channel=0, data=[110, 0]),\n",
      "   midi.NoteOnEvent(tick=0, channel=0, data=[95, 133]),\n",
      "   midi.NoteOffEvent(tick=15, channel=0, data=[84, 0]),\n",
      "   midi.NoteOnEvent(tick=4, channel=0, data=[53, 227]),\n",
      "   midi.NoteOnEvent(tick=8, channel=0, data=[4, 94]),\n",
      "   midi.NoteOnEvent(tick=0, channel=0, data=[71, 56]),\n",
      "   midi.NoteOnEvent(tick=3, channel=0, data=[97, 134]),\n",
      "   midi.NoteOnEvent(tick=0, channel=0, data=[37, 168]),\n",
      "   midi.NoteOffEvent(tick=1, channel=0, data=[2, 0]),\n",
      "   midi.NoteOffEvent(tick=4, channel=0, data=[71, 0]),\n",
      "   midi.NoteOnEvent(tick=0, channel=0, data=[4, 185]),\n",
      "   midi.NoteOffEvent(tick=1, channel=0, data=[66, 0]),\n",
      "   midi.NoteOffEvent(tick=5, channel=0, data=[51, 0]),\n",
      "   midi.NoteOffEvent(tick=7, channel=0, data=[68, 0]),\n",
      "   midi.NoteOffEvent(tick=9, channel=0, data=[52, 0]),\n",
      "   midi.NoteOffEvent(tick=37, channel=0, data=[97, 0]),\n",
      "   midi.NoteOffEvent(tick=49, channel=0, data=[14, 0]),\n",
      "   midi.NoteOffEvent(tick=73, channel=0, data=[115, 0]),\n",
      "   midi.NoteOffEvent(tick=20, channel=0, data=[75, 0]),\n",
      "   midi.NoteOffEvent(tick=23, channel=0, data=[41, 0]),\n",
      "   midi.NoteOffEvent(tick=17, channel=0, data=[50, 0]),\n",
      "   midi.NoteOffEvent(tick=22, channel=0, data=[26, 0]),\n",
      "   midi.NoteOffEvent(tick=7, channel=0, data=[46, 0]),\n",
      "   midi.NoteOffEvent(tick=12, channel=0, data=[4, 0]),\n",
      "   midi.NoteOffEvent(tick=14, channel=0, data=[37, 0]),\n",
      "   midi.NoteOffEvent(tick=36, channel=0, data=[44, 0]),\n",
      "   midi.NoteOffEvent(tick=16, channel=0, data=[20, 0]),\n",
      "   midi.NoteOffEvent(tick=60, channel=0, data=[35, 0]),\n",
      "   midi.NoteOffEvent(tick=5, channel=0, data=[5, 0]),\n",
      "   midi.NoteOffEvent(tick=8, channel=0, data=[47, 0]),\n",
      "   midi.NoteOffEvent(tick=12, channel=0, data=[54, 0]),\n",
      "   midi.NoteOffEvent(tick=44, channel=0, data=[119, 0]),\n",
      "   midi.NoteOffEvent(tick=8, channel=0, data=[6, 0]),\n",
      "   midi.NoteOffEvent(tick=180, channel=0, data=[32, 0]),\n",
      "   midi.NoteOffEvent(tick=64, channel=0, data=[95, 0]),\n",
      "   midi.NoteOffEvent(tick=122, channel=0, data=[88, 0]),\n",
      "   midi.NoteOffEvent(tick=4, channel=0, data=[53, 0]),\n",
      "   midi.NoteOffEvent(tick=52, channel=0, data=[28, 0]),\n",
      "   midi.EndOfTrackEvent(tick=0, data=[])]),\n",
      " midi.Track(\\\n",
      "  [midi.SetTempoEvent(tick=0, data=[8, 227, 124]),\n",
      "   midi.ProgramChangeEvent(tick=0, channel=0, data=[100]),\n",
      "   midi.NoteOnEvent(tick=11, channel=0, data=[6, 36]),\n",
      "   midi.NoteOnEvent(tick=19, channel=0, data=[2, 241]),\n",
      "   midi.NoteOnEvent(tick=2, channel=0, data=[103, 9]),\n",
      "   midi.NoteOnEvent(tick=0, channel=0, data=[114, 21]),\n",
      "   midi.NoteOnEvent(tick=20, channel=0, data=[76, 106]),\n",
      "   midi.NoteOnEvent(tick=2, channel=0, data=[52, 18]),\n",
      "   midi.NoteOnEvent(tick=24, channel=0, data=[68, 254]),\n",
      "   midi.NoteOffEvent(tick=5, channel=0, data=[52, 0]),\n",
      "   midi.NoteOffEvent(tick=24, channel=0, data=[2, 0]),\n",
      "   midi.NoteOnEvent(tick=12, channel=0, data=[100, 116]),\n",
      "   midi.NoteOnEvent(tick=18, channel=0, data=[55, 54]),\n",
      "   midi.NoteOnEvent(tick=3, channel=0, data=[16, 98]),\n",
      "   midi.NoteOnEvent(tick=2, channel=0, data=[116, 216]),\n",
      "   midi.NoteOnEvent(tick=11, channel=0, data=[123, 199]),\n",
      "   midi.NoteOnEvent(tick=39, channel=0, data=[48, 50]),\n",
      "   midi.NoteOnEvent(tick=5, channel=0, data=[102, 185]),\n",
      "   midi.NoteOnEvent(tick=3, channel=0, data=[55, 125]),\n",
      "   midi.NoteOnEvent(tick=0, channel=0, data=[99, 244]),\n",
      "   midi.NoteOffEvent(tick=35, channel=0, data=[16, 0]),\n",
      "   midi.NoteOnEvent(tick=24, channel=0, data=[78, 250]),\n",
      "   midi.NoteOnEvent(tick=6, channel=0, data=[49, 55]),\n",
      "   midi.NoteOffEvent(tick=29, channel=0, data=[68, 0]),\n",
      "   midi.NoteOnEvent(tick=9, channel=0, data=[51, 96]),\n",
      "   midi.NoteOnEvent(tick=0, channel=0, data=[100, 186]),\n",
      "   midi.NoteOnEvent(tick=46, channel=0, data=[26, 249]),\n",
      "   midi.NoteOnEvent(tick=4, channel=0, data=[124, 17]),\n",
      "   midi.NoteOnEvent(tick=4, channel=0, data=[36, 240]),\n",
      "   midi.NoteOffEvent(tick=5, channel=0, data=[49, 0]),\n",
      "   midi.NoteOnEvent(tick=12, channel=0, data=[99, 75]),\n",
      "   midi.NoteOffEvent(tick=17, channel=0, data=[48, 0]),\n",
      "   midi.NoteOnEvent(tick=13, channel=0, data=[91, 71]),\n",
      "   midi.NoteOnEvent(tick=17, channel=0, data=[103, 227]),\n",
      "   midi.NoteOnEvent(tick=46, channel=0, data=[57, 142]),\n",
      "   midi.NoteOffEvent(tick=7, channel=0, data=[78, 0]),\n",
      "   midi.NoteOnEvent(tick=5, channel=0, data=[100, 90]),\n",
      "   midi.NoteOffEvent(tick=2, channel=0, data=[36, 0]),\n",
      "   midi.NoteOnEvent(tick=1, channel=0, data=[36, 251]),\n",
      "   midi.NoteOnEvent(tick=7, channel=0, data=[0, 43]),\n",
      "   midi.NoteOnEvent(tick=0, channel=0, data=[29, 140]),\n",
      "   midi.NoteOnEvent(tick=7, channel=0, data=[82, 14]),\n",
      "   midi.NoteOnEvent(tick=14, channel=0, data=[98, 223]),\n",
      "   midi.NoteOnEvent(tick=8, channel=0, data=[115, 222]),\n",
      "   midi.NoteOnEvent(tick=14, channel=0, data=[77, 187]),\n",
      "   midi.NoteOnEvent(tick=10, channel=0, data=[98, 207]),\n",
      "   midi.NoteOnEvent(tick=12, channel=0, data=[52, 235]),\n",
      "   midi.NoteOnEvent(tick=1, channel=0, data=[41, 240]),\n",
      "   midi.NoteOnEvent(tick=2, channel=0, data=[56, 249]),\n",
      "   midi.NoteOnEvent(tick=0, channel=0, data=[29, 166]),\n",
      "   midi.NoteOffEvent(tick=5, channel=0, data=[82, 0]),\n",
      "   midi.NoteOnEvent(tick=6, channel=0, data=[80, 143]),\n",
      "   midi.NoteOnEvent(tick=3, channel=0, data=[83, 57]),\n",
      "   midi.NoteOnEvent(tick=2, channel=0, data=[92, 197]),\n",
      "   midi.NoteOffEvent(tick=10, channel=0, data=[76, 0]),\n",
      "   midi.NoteOffEvent(tick=14, channel=0, data=[91, 0]),\n",
      "   midi.NoteOnEvent(tick=21, channel=0, data=[37, 215]),\n",
      "   midi.NoteOffEvent(tick=17, channel=0, data=[124, 0]),\n",
      "   midi.NoteOnEvent(tick=4, channel=0, data=[11, 249]),\n",
      "   midi.NoteOnEvent(tick=11, channel=0, data=[5, 240]),\n",
      "   midi.NoteOffEvent(tick=6, channel=0, data=[6, 0]),\n",
      "   midi.NoteOnEvent(tick=6, channel=0, data=[98, 73]),\n",
      "   midi.NoteOffEvent(tick=17, channel=0, data=[52, 0]),\n",
      "   midi.NoteOnEvent(tick=14, channel=0, data=[5, 245]),\n",
      "   midi.NoteOffEvent(tick=42, channel=0, data=[114, 0]),\n",
      "   midi.NoteOffEvent(tick=1, channel=0, data=[116, 0]),\n",
      "   midi.NoteOnEvent(tick=12, channel=0, data=[74, 60]),\n",
      "   midi.NoteOnEvent(tick=11, channel=0, data=[3, 165]),\n",
      "   midi.NoteOnEvent(tick=18, channel=0, data=[119, 122]),\n",
      "   midi.NoteOnEvent(tick=10, channel=0, data=[114, 145]),\n",
      "   midi.NoteOffEvent(tick=12, channel=0, data=[103, 0]),\n",
      "   midi.NoteOnEvent(tick=2, channel=0, data=[118, 106]),\n",
      "   midi.NoteOffEvent(tick=4, channel=0, data=[119, 0]),\n",
      "   midi.NoteOffEvent(tick=7, channel=0, data=[41, 0]),\n",
      "   midi.NoteOffEvent(tick=15, channel=0, data=[92, 0]),\n",
      "   midi.NoteOffEvent(tick=2, channel=0, data=[98, 0]),\n",
      "   midi.NoteOnEvent(tick=9, channel=0, data=[64, 70]),\n",
      "   midi.NoteOnEvent(tick=12, channel=0, data=[6, 182]),\n",
      "   midi.NoteOnEvent(tick=4, channel=0, data=[33, 155]),\n",
      "   midi.NoteOnEvent(tick=0, channel=0, data=[97, 214]),\n",
      "   midi.NoteOnEvent(tick=0, channel=0, data=[2, 136]),\n",
      "   midi.NoteOnEvent(tick=0, channel=0, data=[53, 80]),\n",
      "   midi.NoteOnEvent(tick=4, channel=0, data=[55, 41]),\n",
      "   midi.NoteOffEvent(tick=14, channel=0, data=[100, 0]),\n",
      "   midi.NoteOffEvent(tick=4, channel=0, data=[0, 0]),\n",
      "   midi.NoteOnEvent(tick=11, channel=0, data=[122, 25]),\n",
      "   midi.NoteOnEvent(tick=3, channel=0, data=[50, 7]),\n",
      "   midi.NoteOnEvent(tick=33, channel=0, data=[113, 234]),\n",
      "   midi.NoteOnEvent(tick=2, channel=0, data=[82, 136]),\n",
      "   midi.NoteOffEvent(tick=3, channel=0, data=[29, 0]),\n",
      "   midi.NoteOnEvent(tick=3, channel=0, data=[37, 72]),\n",
      "   midi.NoteOffEvent(tick=3, channel=0, data=[50, 0]),\n",
      "   midi.NoteOnEvent(tick=5, channel=0, data=[0, 237]),\n",
      "   midi.NoteOffEvent(tick=1, channel=0, data=[3, 0]),\n",
      "   midi.NoteOffEvent(tick=1, channel=0, data=[83, 0]),\n",
      "   midi.NoteOnEvent(tick=1, channel=0, data=[60, 35]),\n",
      "   midi.NoteOnEvent(tick=16, channel=0, data=[71, 6]),\n",
      "   midi.NoteOnEvent(tick=2, channel=0, data=[39, 177]),\n",
      "   midi.NoteOnEvent(tick=1, channel=0, data=[40, 59]),\n",
      "   midi.NoteOffEvent(tick=3, channel=0, data=[26, 0]),\n",
      "   midi.NoteOnEvent(tick=17, channel=0, data=[22, 92]),\n",
      "   midi.NoteOffEvent(tick=50, channel=0, data=[5, 0]),\n",
      "   midi.NoteOffEvent(tick=13, channel=0, data=[74, 0]),\n",
      "   midi.NoteOffEvent(tick=14, channel=0, data=[97, 0]),\n",
      "   midi.NoteOffEvent(tick=10, channel=0, data=[77, 0]),\n",
      "   midi.NoteOffEvent(tick=54, channel=0, data=[2, 0]),\n",
      "   midi.NoteOffEvent(tick=22, channel=0, data=[99, 0]),\n",
      "   midi.NoteOffEvent(tick=1, channel=0, data=[102, 0]),\n",
      "   midi.NoteOffEvent(tick=0, channel=0, data=[123, 0]),\n",
      "   midi.NoteOffEvent(tick=40, channel=0, data=[53, 0]),\n",
      "   midi.NoteOffEvent(tick=6, channel=0, data=[36, 0]),\n",
      "   midi.NoteOffEvent(tick=14, channel=0, data=[0, 0]),\n",
      "   midi.NoteOffEvent(tick=22, channel=0, data=[51, 0]),\n",
      "   midi.NoteOffEvent(tick=22, channel=0, data=[22, 0]),\n",
      "   midi.NoteOffEvent(tick=9, channel=0, data=[115, 0]),\n",
      "   midi.NoteOffEvent(tick=37, channel=0, data=[60, 0]),\n",
      "   midi.NoteOffEvent(tick=42, channel=0, data=[114, 0]),\n",
      "   midi.NoteOffEvent(tick=44, channel=0, data=[56, 0]),\n",
      "   midi.NoteOffEvent(tick=12, channel=0, data=[57, 0]),\n",
      "   midi.NoteOffEvent(tick=11, channel=0, data=[118, 0]),\n",
      "   midi.NoteOffEvent(tick=50, channel=0, data=[11, 0]),\n",
      "   midi.NoteOffEvent(tick=25, channel=0, data=[33, 0]),\n",
      "   midi.NoteOffEvent(tick=2, channel=0, data=[55, 0]),\n",
      "   midi.NoteOffEvent(tick=4, channel=0, data=[40, 0]),\n",
      "   midi.NoteOffEvent(tick=19, channel=0, data=[6, 0]),\n",
      "   midi.NoteOffEvent(tick=33, channel=0, data=[71, 0]),\n",
      "   midi.NoteOffEvent(tick=4, channel=0, data=[80, 0]),\n",
      "   midi.NoteOffEvent(tick=126, channel=0, data=[122, 0]),\n",
      "   midi.NoteOffEvent(tick=32, channel=0, data=[113, 0]),\n",
      "   midi.NoteOffEvent(tick=25, channel=0, data=[37, 0]),\n",
      "   midi.NoteOffEvent(tick=40, channel=0, data=[64, 0]),\n",
      "   midi.NoteOffEvent(tick=56, channel=0, data=[82, 0]),\n",
      "   midi.NoteOffEvent(tick=4, channel=0, data=[39, 0]),\n",
      "   midi.EndOfTrackEvent(tick=0, data=[])]),\n",
      " midi.Track(\\\n",
      "  [midi.SetTempoEvent(tick=0, data=[8, 227, 124]),\n",
      "   midi.ProgramChangeEvent(tick=0, channel=0, data=[101]),\n",
      "   midi.NoteOnEvent(tick=4, channel=0, data=[23, 48]),\n",
      "   midi.NoteOnEvent(tick=26, channel=0, data=[120, 168]),\n",
      "   midi.NoteOnEvent(tick=2, channel=0, data=[80, 203]),\n",
      "   midi.NoteOnEvent(tick=10, channel=0, data=[8, 24]),\n",
      "   midi.NoteOnEvent(tick=73, channel=0, data=[36, 19]),\n",
      "   midi.NoteOnEvent(tick=17, channel=0, data=[82, 81]),\n",
      "   midi.NoteOnEvent(tick=5, channel=0, data=[24, 230]),\n",
      "   midi.NoteOnEvent(tick=0, channel=0, data=[114, 77]),\n",
      "   midi.NoteOffEvent(tick=10, channel=0, data=[8, 0]),\n",
      "   midi.NoteOnEvent(tick=60, channel=0, data=[24, 130]),\n",
      "   midi.NoteOnEvent(tick=33, channel=0, data=[27, 150]),\n",
      "   midi.NoteOffEvent(tick=1, channel=0, data=[24, 0]),\n",
      "   midi.NoteOnEvent(tick=0, channel=0, data=[121, 250]),\n",
      "   midi.NoteOnEvent(tick=7, channel=0, data=[124, 99]),\n",
      "   midi.NoteOnEvent(tick=9, channel=0, data=[19, 238]),\n",
      "   midi.NoteOnEvent(tick=8, channel=0, data=[58, 219]),\n",
      "   midi.NoteOffEvent(tick=2, channel=0, data=[121, 0]),\n",
      "   midi.NoteOffEvent(tick=3, channel=0, data=[80, 0]),\n",
      "   midi.NoteOnEvent(tick=6, channel=0, data=[80, 80]),\n",
      "   midi.NoteOnEvent(tick=4, channel=0, data=[104, 2]),\n",
      "   midi.NoteOnEvent(tick=19, channel=0, data=[8, 67]),\n",
      "   midi.NoteOnEvent(tick=2, channel=0, data=[37, 165]),\n",
      "   midi.NoteOnEvent(tick=12, channel=0, data=[65, 229]),\n",
      "   midi.NoteOnEvent(tick=18, channel=0, data=[6, 6]),\n",
      "   midi.NoteOnEvent(tick=22, channel=0, data=[32, 115]),\n",
      "   midi.NoteOffEvent(tick=10, channel=0, data=[120, 0]),\n",
      "   midi.NoteOnEvent(tick=12, channel=0, data=[53, 121]),\n",
      "   midi.NoteOnEvent(tick=21, channel=0, data=[60, 24]),\n",
      "   midi.NoteOnEvent(tick=4, channel=0, data=[38, 19]),\n",
      "   midi.NoteOnEvent(tick=25, channel=0, data=[121, 207]),\n",
      "   midi.NoteOnEvent(tick=8, channel=0, data=[8, 39]),\n",
      "   midi.NoteOnEvent(tick=29, channel=0, data=[27, 115]),\n",
      "   midi.NoteOffEvent(tick=6, channel=0, data=[58, 0]),\n",
      "   midi.NoteOnEvent(tick=3, channel=0, data=[86, 10]),\n",
      "   midi.NoteOffEvent(tick=1, channel=0, data=[121, 0]),\n",
      "   midi.NoteOnEvent(tick=14, channel=0, data=[36, 107]),\n",
      "   midi.NoteOnEvent(tick=29, channel=0, data=[59, 236]),\n",
      "   midi.NoteOnEvent(tick=1, channel=0, data=[2, 44]),\n",
      "   midi.NoteOnEvent(tick=15, channel=0, data=[72, 131]),\n",
      "   midi.NoteOnEvent(tick=23, channel=0, data=[47, 137]),\n",
      "   midi.NoteOnEvent(tick=3, channel=0, data=[0, 252]),\n",
      "   midi.NoteOffEvent(tick=2, channel=0, data=[38, 0]),\n",
      "   midi.NoteOnEvent(tick=1, channel=0, data=[65, 189]),\n",
      "   midi.NoteOnEvent(tick=3, channel=0, data=[110, 235]),\n",
      "   midi.NoteOnEvent(tick=5, channel=0, data=[50, 210]),\n",
      "   midi.NoteOnEvent(tick=3, channel=0, data=[34, 135]),\n",
      "   midi.NoteOffEvent(tick=8, channel=0, data=[23, 0]),\n",
      "   midi.NoteOnEvent(tick=17, channel=0, data=[43, 250]),\n",
      "   midi.NoteOnEvent(tick=7, channel=0, data=[102, 207]),\n",
      "   midi.NoteOnEvent(tick=7, channel=0, data=[71, 217]),\n",
      "   midi.NoteOffEvent(tick=4, channel=0, data=[53, 0]),\n",
      "   midi.NoteOnEvent(tick=4, channel=0, data=[14, 193]),\n",
      "   midi.NoteOnEvent(tick=12, channel=0, data=[126, 195]),\n",
      "   midi.NoteOffEvent(tick=17, channel=0, data=[126, 0]),\n",
      "   midi.NoteOffEvent(tick=2, channel=0, data=[82, 0]),\n",
      "   midi.NoteOffEvent(tick=5, channel=0, data=[114, 0]),\n",
      "   midi.NoteOnEvent(tick=6, channel=0, data=[57, 146]),\n",
      "   midi.NoteOffEvent(tick=3, channel=0, data=[104, 0]),\n",
      "   midi.NoteOffEvent(tick=17, channel=0, data=[8, 0]),\n",
      "   midi.NoteOnEvent(tick=14, channel=0, data=[47, 56]),\n",
      "   midi.NoteOnEvent(tick=33, channel=0, data=[105, 175]),\n",
      "   midi.NoteOffEvent(tick=27, channel=0, data=[71, 0]),\n",
      "   midi.NoteOnEvent(tick=9, channel=0, data=[120, 80]),\n",
      "   midi.NoteOffEvent(tick=13, channel=0, data=[36, 0]),\n",
      "   midi.NoteOffEvent(tick=1, channel=0, data=[0, 0]),\n",
      "   midi.NoteOffEvent(tick=7, channel=0, data=[110, 0]),\n",
      "   midi.NoteOffEvent(tick=21, channel=0, data=[60, 0]),\n",
      "   midi.NoteOffEvent(tick=2, channel=0, data=[124, 0]),\n",
      "   midi.NoteOnEvent(tick=0, channel=0, data=[64, 144]),\n",
      "   midi.NoteOnEvent(tick=11, channel=0, data=[62, 200]),\n",
      "   midi.NoteOffEvent(tick=55, channel=0, data=[47, 0]),\n",
      "   midi.NoteOnEvent(tick=26, channel=0, data=[63, 159]),\n",
      "   midi.NoteOnEvent(tick=3, channel=0, data=[58, 121]),\n",
      "   midi.NoteOffEvent(tick=5, channel=0, data=[37, 0]),\n",
      "   midi.NoteOffEvent(tick=6, channel=0, data=[59, 0]),\n",
      "   midi.NoteOnEvent(tick=29, channel=0, data=[5, 183]),\n",
      "   midi.NoteOffEvent(tick=5, channel=0, data=[80, 0]),\n",
      "   midi.NoteOnEvent(tick=3, channel=0, data=[81, 54]),\n",
      "   midi.NoteOnEvent(tick=5, channel=0, data=[41, 241]),\n",
      "   midi.NoteOffEvent(tick=2, channel=0, data=[50, 0]),\n",
      "   midi.NoteOffEvent(tick=7, channel=0, data=[6, 0]),\n",
      "   midi.NoteOffEvent(tick=3, channel=0, data=[19, 0]),\n",
      "   midi.NoteOnEvent(tick=2, channel=0, data=[12, 194]),\n",
      "   midi.NoteOffEvent(tick=2, channel=0, data=[2, 0]),\n",
      "   midi.NoteOnEvent(tick=21, channel=0, data=[5, 62]),\n",
      "   midi.NoteOnEvent(tick=6, channel=0, data=[9, 237]),\n",
      "   midi.NoteOffEvent(tick=62, channel=0, data=[58, 0]),\n",
      "   midi.NoteOffEvent(tick=3, channel=0, data=[102, 0]),\n",
      "   midi.NoteOffEvent(tick=42, channel=0, data=[14, 0]),\n",
      "   midi.NoteOffEvent(tick=50, channel=0, data=[43, 0]),\n",
      "   midi.NoteOffEvent(tick=2, channel=0, data=[57, 0]),\n",
      "   midi.NoteOffEvent(tick=32, channel=0, data=[64, 0]),\n",
      "   midi.NoteOffEvent(tick=17, channel=0, data=[81, 0]),\n",
      "   midi.NoteOffEvent(tick=27, channel=0, data=[12, 0]),\n",
      "   midi.NoteOffEvent(tick=38, channel=0, data=[27, 0]),\n",
      "   midi.NoteOffEvent(tick=16, channel=0, data=[86, 0]),\n",
      "   midi.NoteOffEvent(tick=0, channel=0, data=[105, 0]),\n",
      "   midi.NoteOffEvent(tick=17, channel=0, data=[72, 0]),\n",
      "   midi.NoteOffEvent(tick=3, channel=0, data=[32, 0]),\n",
      "   midi.NoteOffEvent(tick=26, channel=0, data=[63, 0]),\n",
      "   midi.NoteOffEvent(tick=60, channel=0, data=[34, 0]),\n",
      "   midi.NoteOffEvent(tick=26, channel=0, data=[65, 0]),\n",
      "   midi.NoteOffEvent(tick=44, channel=0, data=[62, 0]),\n",
      "   midi.NoteOffEvent(tick=86, channel=0, data=[120, 0]),\n",
      "   midi.NoteOffEvent(tick=13, channel=0, data=[9, 0]),\n",
      "   midi.NoteOffEvent(tick=118, channel=0, data=[5, 0]),\n",
      "   midi.NoteOffEvent(tick=156, channel=0, data=[41, 0]),\n",
      "   midi.EndOfTrackEvent(tick=0, data=[])]),\n",
      " midi.Track(\\\n",
      "  [midi.SetTempoEvent(tick=0, data=[8, 227, 124]),\n",
      "   midi.ProgramChangeEvent(tick=0, channel=0, data=[102]),\n",
      "   midi.NoteOnEvent(tick=6, channel=0, data=[4, 31]),\n",
      "   midi.NoteOnEvent(tick=0, channel=0, data=[37, 69]),\n",
      "   midi.NoteOnEvent(tick=5, channel=0, data=[110, 190]),\n",
      "   midi.NoteOnEvent(tick=21, channel=0, data=[52, 162]),\n",
      "   midi.NoteOnEvent(tick=3, channel=0, data=[32, 132]),\n",
      "   midi.NoteOnEvent(tick=44, channel=0, data=[83, 254]),\n",
      "   midi.NoteOnEvent(tick=45, channel=0, data=[68, 218]),\n",
      "   midi.NoteOnEvent(tick=5, channel=0, data=[106, 12]),\n",
      "   midi.NoteOnEvent(tick=0, channel=0, data=[103, 217]),\n",
      "   midi.NoteOffEvent(tick=1, channel=0, data=[68, 0]),\n",
      "   midi.NoteOnEvent(tick=2, channel=0, data=[13, 239]),\n",
      "   midi.NoteOnEvent(tick=6, channel=0, data=[12, 240]),\n",
      "   midi.NoteOnEvent(tick=7, channel=0, data=[42, 236]),\n",
      "   midi.NoteOnEvent(tick=36, channel=0, data=[40, 22]),\n",
      "   midi.NoteOnEvent(tick=11, channel=0, data=[33, 179]),\n",
      "   midi.NoteOnEvent(tick=28, channel=0, data=[103, 245]),\n",
      "   midi.NoteOnEvent(tick=6, channel=0, data=[102, 240]),\n",
      "   midi.NoteOnEvent(tick=14, channel=0, data=[89, 216]),\n",
      "   midi.NoteOnEvent(tick=6, channel=0, data=[108, 36]),\n",
      "   midi.NoteOnEvent(tick=8, channel=0, data=[85, 18]),\n",
      "   midi.NoteOffEvent(tick=7, channel=0, data=[85, 0]),\n",
      "   midi.NoteOnEvent(tick=48, channel=0, data=[31, 150]),\n",
      "   midi.NoteOffEvent(tick=11, channel=0, data=[33, 0]),\n",
      "   midi.NoteOnEvent(tick=1, channel=0, data=[40, 150]),\n",
      "   midi.NoteOnEvent(tick=1, channel=0, data=[40, 213]),\n",
      "   midi.NoteOnEvent(tick=8, channel=0, data=[97, 159]),\n",
      "   midi.NoteOffEvent(tick=2, channel=0, data=[40, 0]),\n",
      "   midi.NoteOnEvent(tick=13, channel=0, data=[7, 26]),\n",
      "   midi.NoteOnEvent(tick=0, channel=0, data=[46, 158]),\n",
      "   midi.NoteOnEvent(tick=5, channel=0, data=[84, 233]),\n",
      "   midi.NoteOffEvent(tick=3, channel=0, data=[97, 0]),\n",
      "   midi.NoteOnEvent(tick=4, channel=0, data=[16, 107]),\n",
      "   midi.NoteOffEvent(tick=18, channel=0, data=[13, 0]),\n",
      "   midi.NoteOffEvent(tick=8, channel=0, data=[83, 0]),\n",
      "   midi.NoteOnEvent(tick=0, channel=0, data=[110, 13]),\n",
      "   midi.NoteOnEvent(tick=0, channel=0, data=[124, 19]),\n",
      "   midi.NoteOnEvent(tick=19, channel=0, data=[23, 23]),\n",
      "   midi.NoteOnEvent(tick=2, channel=0, data=[89, 110]),\n",
      "   midi.NoteOffEvent(tick=9, channel=0, data=[31, 0]),\n",
      "   midi.NoteOnEvent(tick=2, channel=0, data=[68, 68]),\n",
      "   midi.NoteOffEvent(tick=9, channel=0, data=[103, 0]),\n",
      "   midi.NoteOnEvent(tick=1, channel=0, data=[98, 214]),\n",
      "   midi.NoteOnEvent(tick=13, channel=0, data=[118, 78]),\n",
      "   midi.NoteOnEvent(tick=13, channel=0, data=[121, 189]),\n",
      "   midi.NoteOnEvent(tick=3, channel=0, data=[87, 68]),\n",
      "   midi.NoteOnEvent(tick=3, channel=0, data=[13, 60]),\n",
      "   midi.NoteOnEvent(tick=16, channel=0, data=[52, 26]),\n",
      "   midi.NoteOnEvent(tick=43, channel=0, data=[48, 62]),\n",
      "   midi.NoteOnEvent(tick=30, channel=0, data=[3, 218]),\n",
      "   midi.NoteOnEvent(tick=1, channel=0, data=[111, 145]),\n",
      "   midi.NoteOffEvent(tick=1, channel=0, data=[7, 0]),\n",
      "   midi.NoteOnEvent(tick=4, channel=0, data=[69, 145]),\n",
      "   midi.NoteOnEvent(tick=5, channel=0, data=[31, 223]),\n",
      "   midi.NoteOnEvent(tick=0, channel=0, data=[116, 24]),\n",
      "   midi.NoteOnEvent(tick=15, channel=0, data=[41, 237]),\n",
      "   midi.NoteOnEvent(tick=19, channel=0, data=[85, 125]),\n",
      "   midi.NoteOnEvent(tick=2, channel=0, data=[114, 77]),\n",
      "   midi.NoteOnEvent(tick=21, channel=0, data=[3, 49]),\n",
      "   midi.NoteOffEvent(tick=3, channel=0, data=[31, 0]),\n",
      "   midi.NoteOnEvent(tick=9, channel=0, data=[80, 50]),\n",
      "   midi.NoteOnEvent(tick=8, channel=0, data=[89, 26]),\n",
      "   midi.NoteOnEvent(tick=0, channel=0, data=[58, 211]),\n",
      "   midi.NoteOnEvent(tick=4, channel=0, data=[18, 156]),\n",
      "   midi.NoteOffEvent(tick=4, channel=0, data=[48, 0]),\n",
      "   midi.NoteOnEvent(tick=1, channel=0, data=[59, 138]),\n",
      "   midi.NoteOffEvent(tick=11, channel=0, data=[89, 0]),\n",
      "   midi.NoteOnEvent(tick=6, channel=0, data=[24, 59]),\n",
      "   midi.NoteOnEvent(tick=2, channel=0, data=[29, 108]),\n",
      "   midi.NoteOnEvent(tick=8, channel=0, data=[37, 237]),\n",
      "   midi.NoteOffEvent(tick=3, channel=0, data=[84, 0]),\n",
      "   midi.NoteOffEvent(tick=2, channel=0, data=[80, 0]),\n",
      "   midi.NoteOnEvent(tick=0, channel=0, data=[40, 107]),\n",
      "   midi.NoteOnEvent(tick=15, channel=0, data=[81, 72]),\n",
      "   midi.NoteOnEvent(tick=25, channel=0, data=[45, 2]),\n",
      "   midi.NoteOffEvent(tick=1, channel=0, data=[45, 0]),\n",
      "   midi.NoteOnEvent(tick=1, channel=0, data=[57, 89]),\n",
      "   midi.NoteOnEvent(tick=1, channel=0, data=[29, 0]),\n",
      "   midi.NoteOffEvent(tick=10, channel=0, data=[42, 0]),\n",
      "   midi.NoteOnEvent(tick=8, channel=0, data=[42, 18]),\n",
      "   midi.NoteOnEvent(tick=3, channel=0, data=[46, 193]),\n",
      "   midi.NoteOnEvent(tick=24, channel=0, data=[90, 68]),\n",
      "   midi.NoteOnEvent(tick=0, channel=0, data=[86, 153]),\n",
      "   midi.NoteOffEvent(tick=28, channel=0, data=[116, 0]),\n",
      "   midi.NoteOnEvent(tick=29, channel=0, data=[49, 30]),\n",
      "   midi.NoteOffEvent(tick=2, channel=0, data=[23, 0]),\n",
      "   midi.NoteOnEvent(tick=4, channel=0, data=[25, 190]),\n",
      "   midi.NoteOffEvent(tick=17, channel=0, data=[3, 0]),\n",
      "   midi.NoteOffEvent(tick=0, channel=0, data=[114, 0]),\n",
      "   midi.NoteOffEvent(tick=1, channel=0, data=[32, 0]),\n",
      "   midi.NoteOnEvent(tick=33, channel=0, data=[111, 197]),\n",
      "   midi.NoteOffEvent(tick=4, channel=0, data=[16, 0]),\n",
      "   midi.NoteOnEvent(tick=9, channel=0, data=[63, 203]),\n",
      "   midi.NoteOffEvent(tick=5, channel=0, data=[124, 0]),\n",
      "   midi.NoteOffEvent(tick=4, channel=0, data=[40, 0]),\n",
      "   midi.NoteOnEvent(tick=4, channel=0, data=[121, 171]),\n",
      "   midi.NoteOffEvent(tick=4, channel=0, data=[68, 0]),\n",
      "   midi.NoteOnEvent(tick=6, channel=0, data=[63, 108]),\n",
      "   midi.NoteOnEvent(tick=4, channel=0, data=[120, 180]),\n",
      "   midi.NoteOffEvent(tick=15, channel=0, data=[12, 0]),\n",
      "   midi.NoteOffEvent(tick=9, channel=0, data=[46, 0]),\n",
      "   midi.NoteOffEvent(tick=14, channel=0, data=[120, 0]),\n",
      "   midi.NoteOffEvent(tick=1, channel=0, data=[108, 0]),\n",
      "   midi.NoteOnEvent(tick=6, channel=0, data=[106, 49]),\n",
      "   midi.NoteOffEvent(tick=16, channel=0, data=[4, 0]),\n",
      "   midi.NoteOnEvent(tick=3, channel=0, data=[44, 27]),\n",
      "   midi.NoteOnEvent(tick=0, channel=0, data=[10, 16]),\n",
      "   midi.NoteOnEvent(tick=11, channel=0, data=[113, 194]),\n",
      "   midi.NoteOffEvent(tick=42, channel=0, data=[44, 0]),\n",
      "   midi.NoteOffEvent(tick=2, channel=0, data=[59, 0]),\n",
      "   midi.NoteOffEvent(tick=8, channel=0, data=[49, 0]),\n",
      "   midi.NoteOffEvent(tick=7, channel=0, data=[85, 0]),\n",
      "   midi.NoteOffEvent(tick=21, channel=0, data=[24, 0]),\n",
      "   midi.NoteOffEvent(tick=2, channel=0, data=[110, 0]),\n",
      "   midi.NoteOffEvent(tick=8, channel=0, data=[41, 0]),\n",
      "   midi.NoteOffEvent(tick=39, channel=0, data=[90, 0]),\n",
      "   midi.NoteOffEvent(tick=40, channel=0, data=[29, 0]),\n",
      "   midi.NoteOffEvent(tick=56, channel=0, data=[58, 0]),\n",
      "   midi.NoteOffEvent(tick=2, channel=0, data=[81, 0]),\n",
      "   midi.NoteOffEvent(tick=5, channel=0, data=[102, 0]),\n",
      "   midi.NoteOffEvent(tick=28, channel=0, data=[69, 0]),\n",
      "   midi.NoteOffEvent(tick=4, channel=0, data=[42, 0]),\n",
      "   midi.NoteOffEvent(tick=14, channel=0, data=[86, 0]),\n",
      "   midi.NoteOffEvent(tick=22, channel=0, data=[18, 0]),\n",
      "   midi.NoteOffEvent(tick=12, channel=0, data=[87, 0]),\n",
      "   midi.NoteOffEvent(tick=38, channel=0, data=[57, 0]),\n",
      "   midi.NoteOffEvent(tick=34, channel=0, data=[52, 0]),\n",
      "   midi.NoteOffEvent(tick=18, channel=0, data=[98, 0]),\n",
      "   midi.NoteOffEvent(tick=39, channel=0, data=[118, 0]),\n",
      "   midi.NoteOffEvent(tick=16, channel=0, data=[13, 0]),\n",
      "   midi.NoteOffEvent(tick=72, channel=0, data=[10, 0]),\n",
      "   midi.NoteOffEvent(tick=46, channel=0, data=[37, 0]),\n",
      "   midi.NoteOffEvent(tick=88, channel=0, data=[113, 0]),\n",
      "   midi.NoteOffEvent(tick=111, channel=0, data=[25, 0]),\n",
      "   midi.NoteOffEvent(tick=19, channel=0, data=[111, 0]),\n",
      "   midi.NoteOffEvent(tick=71, channel=0, data=[121, 0]),\n",
      "   midi.NoteOffEvent(tick=13, channel=0, data=[106, 0]),\n",
      "   midi.NoteOffEvent(tick=14, channel=0, data=[63, 0]),\n",
      "   midi.EndOfTrackEvent(tick=0, data=[])]),\n",
      " midi.Track(\\\n",
      "  [midi.SetTempoEvent(tick=0, data=[8, 227, 124]),\n",
      "   midi.ProgramChangeEvent(tick=0, channel=0, data=[103]),\n",
      "   midi.NoteOnEvent(tick=8, channel=0, data=[106, 203]),\n",
      "   midi.NoteOnEvent(tick=6, channel=0, data=[0, 82]),\n",
      "   midi.NoteOnEvent(tick=2, channel=0, data=[96, 85]),\n",
      "   midi.NoteOnEvent(tick=36, channel=0, data=[11, 159]),\n",
      "   midi.NoteOnEvent(tick=0, channel=0, data=[117, 4]),\n",
      "   midi.NoteOnEvent(tick=16, channel=0, data=[50, 99]),\n",
      "   midi.NoteOnEvent(tick=0, channel=0, data=[36, 80]),\n",
      "   midi.NoteOnEvent(tick=15, channel=0, data=[50, 98]),\n",
      "   midi.NoteOnEvent(tick=16, channel=0, data=[57, 254]),\n",
      "   midi.NoteOnEvent(tick=3, channel=0, data=[55, 139]),\n",
      "   midi.NoteOnEvent(tick=15, channel=0, data=[54, 60]),\n",
      "   midi.NoteOnEvent(tick=4, channel=0, data=[98, 11]),\n",
      "   midi.NoteOnEvent(tick=17, channel=0, data=[39, 240]),\n",
      "   midi.NoteOnEvent(tick=5, channel=0, data=[50, 97]),\n",
      "   midi.NoteOnEvent(tick=17, channel=0, data=[24, 126]),\n",
      "   midi.NoteOffEvent(tick=10, channel=0, data=[55, 0]),\n",
      "   midi.NoteOnEvent(tick=0, channel=0, data=[51, 5]),\n",
      "   midi.NoteOnEvent(tick=7, channel=0, data=[29, 95]),\n",
      "   midi.NoteOffEvent(tick=40, channel=0, data=[50, 0]),\n",
      "   midi.NoteOnEvent(tick=5, channel=0, data=[82, 1]),\n",
      "   midi.NoteOnEvent(tick=0, channel=0, data=[26, 10]),\n",
      "   midi.NoteOnEvent(tick=4, channel=0, data=[72, 86]),\n",
      "   midi.NoteOnEvent(tick=11, channel=0, data=[43, 226]),\n",
      "   midi.NoteOnEvent(tick=17, channel=0, data=[11, 205]),\n",
      "   midi.NoteOnEvent(tick=0, channel=0, data=[85, 197]),\n",
      "   midi.NoteOnEvent(tick=5, channel=0, data=[117, 169]),\n",
      "   midi.NoteOnEvent(tick=14, channel=0, data=[81, 230]),\n",
      "   midi.NoteOnEvent(tick=26, channel=0, data=[10, 231]),\n",
      "   midi.NoteOnEvent(tick=10, channel=0, data=[109, 41]),\n",
      "   midi.NoteOnEvent(tick=3, channel=0, data=[13, 195]),\n",
      "   midi.NoteOnEvent(tick=24, channel=0, data=[20, 198]),\n",
      "   midi.NoteOnEvent(tick=13, channel=0, data=[30, 127]),\n",
      "   midi.NoteOnEvent(tick=8, channel=0, data=[89, 91]),\n",
      "   midi.NoteOnEvent(tick=15, channel=0, data=[110, 19]),\n",
      "   midi.NoteOnEvent(tick=11, channel=0, data=[105, 9]),\n",
      "   midi.NoteOnEvent(tick=15, channel=0, data=[43, 222]),\n",
      "   midi.NoteOnEvent(tick=5, channel=0, data=[123, 186]),\n",
      "   midi.NoteOnEvent(tick=3, channel=0, data=[57, 83]),\n",
      "   midi.NoteOnEvent(tick=4, channel=0, data=[9, 237]),\n",
      "   midi.NoteOffEvent(tick=2, channel=0, data=[0, 0]),\n",
      "   midi.NoteOffEvent(tick=3, channel=0, data=[106, 0]),\n",
      "   midi.NoteOnEvent(tick=10, channel=0, data=[53, 61]),\n",
      "   midi.NoteOffEvent(tick=9, channel=0, data=[81, 0]),\n",
      "   midi.NoteOnEvent(tick=7, channel=0, data=[90, 58]),\n",
      "   midi.NoteOffEvent(tick=9, channel=0, data=[123, 0]),\n",
      "   midi.NoteOnEvent(tick=10, channel=0, data=[14, 126]),\n",
      "   midi.NoteOffEvent(tick=5, channel=0, data=[89, 0]),\n",
      "   midi.NoteOnEvent(tick=5, channel=0, data=[23, 239]),\n",
      "   midi.NoteOnEvent(tick=26, channel=0, data=[63, 124]),\n",
      "   midi.NoteOffEvent(tick=15, channel=0, data=[36, 0]),\n",
      "   midi.NoteOnEvent(tick=4, channel=0, data=[96, 57]),\n",
      "   midi.NoteOnEvent(tick=1, channel=0, data=[43, 160]),\n",
      "   midi.NoteOnEvent(tick=2, channel=0, data=[99, 133]),\n",
      "   midi.NoteOnEvent(tick=14, channel=0, data=[50, 172]),\n",
      "   midi.NoteOnEvent(tick=3, channel=0, data=[119, 238]),\n",
      "   midi.NoteOnEvent(tick=3, channel=0, data=[83, 182]),\n",
      "   midi.NoteOnEvent(tick=4, channel=0, data=[41, 84]),\n",
      "   midi.NoteOffEvent(tick=1, channel=0, data=[98, 0]),\n",
      "   midi.NoteOffEvent(tick=9, channel=0, data=[54, 0]),\n",
      "   midi.NoteOnEvent(tick=5, channel=0, data=[35, 242]),\n",
      "   midi.NoteOnEvent(tick=16, channel=0, data=[36, 187]),\n",
      "   midi.NoteOnEvent(tick=20, channel=0, data=[118, 143]),\n",
      "   midi.NoteOffEvent(tick=6, channel=0, data=[11, 0]),\n",
      "   midi.NoteOnEvent(tick=6, channel=0, data=[94, 209]),\n",
      "   midi.NoteOnEvent(tick=13, channel=0, data=[31, 21]),\n",
      "   midi.NoteOnEvent(tick=8, channel=0, data=[96, 226]),\n",
      "   midi.NoteOffEvent(tick=3, channel=0, data=[26, 0]),\n",
      "   midi.NoteOnEvent(tick=3, channel=0, data=[52, 239]),\n",
      "   midi.NoteOnEvent(tick=3, channel=0, data=[14, 193]),\n",
      "   midi.NoteOnEvent(tick=8, channel=0, data=[12, 215]),\n",
      "   midi.NoteOffEvent(tick=12, channel=0, data=[119, 0]),\n",
      "   midi.NoteOnEvent(tick=10, channel=0, data=[118, 162]),\n",
      "   midi.NoteOnEvent(tick=20, channel=0, data=[71, 156]),\n",
      "   midi.NoteOnEvent(tick=5, channel=0, data=[31, 13]),\n",
      "   midi.NoteOnEvent(tick=2, channel=0, data=[77, 180]),\n",
      "   midi.NoteOnEvent(tick=5, channel=0, data=[87, 128]),\n",
      "   midi.NoteOffEvent(tick=3, channel=0, data=[39, 0]),\n",
      "   midi.NoteOffEvent(tick=48, channel=0, data=[117, 0]),\n",
      "   midi.NoteOnEvent(tick=4, channel=0, data=[85, 94]),\n",
      "   midi.NoteOnEvent(tick=1, channel=0, data=[109, 119]),\n",
      "   midi.NoteOnEvent(tick=9, channel=0, data=[28, 87]),\n",
      "   midi.NoteOnEvent(tick=0, channel=0, data=[106, 46]),\n",
      "   midi.NoteOnEvent(tick=2, channel=0, data=[50, 177]),\n",
      "   midi.NoteOnEvent(tick=13, channel=0, data=[86, 240]),\n",
      "   midi.NoteOffEvent(tick=40, channel=0, data=[13, 0]),\n",
      "   midi.NoteOnEvent(tick=1, channel=0, data=[115, 100]),\n",
      "   midi.NoteOnEvent(tick=0, channel=0, data=[27, 54]),\n",
      "   midi.NoteOnEvent(tick=8, channel=0, data=[32, 243]),\n",
      "   midi.NoteOnEvent(tick=12, channel=0, data=[111, 37]),\n",
      "   midi.NoteOnEvent(tick=12, channel=0, data=[40, 13]),\n",
      "   midi.NoteOnEvent(tick=5, channel=0, data=[11, 230]),\n",
      "   midi.NoteOnEvent(tick=17, channel=0, data=[67, 184]),\n",
      "   midi.NoteOnEvent(tick=35, channel=0, data=[78, 153]),\n",
      "   midi.NoteOffEvent(tick=8, channel=0, data=[85, 0]),\n",
      "   midi.NoteOnEvent(tick=8, channel=0, data=[20, 190]),\n",
      "   midi.NoteOffEvent(tick=2, channel=0, data=[72, 0]),\n",
      "   midi.NoteOffEvent(tick=10, channel=0, data=[24, 0]),\n",
      "   midi.NoteOffEvent(tick=23, channel=0, data=[30, 0]),\n",
      "   midi.NoteOffEvent(tick=13, channel=0, data=[29, 0]),\n",
      "   midi.NoteOffEvent(tick=47, channel=0, data=[51, 0]),\n",
      "   midi.NoteOffEvent(tick=13, channel=0, data=[111, 0]),\n",
      "   midi.NoteOffEvent(tick=4, channel=0, data=[53, 0]),\n",
      "   midi.NoteOffEvent(tick=47, channel=0, data=[35, 0]),\n",
      "   midi.NoteOffEvent(tick=2, channel=0, data=[31, 0]),\n",
      "   midi.NoteOffEvent(tick=7, channel=0, data=[14, 0]),\n",
      "   midi.NoteOffEvent(tick=31, channel=0, data=[90, 0]),\n",
      "   midi.NoteOffEvent(tick=21, channel=0, data=[23, 0]),\n",
      "   midi.NoteOffEvent(tick=0, channel=0, data=[82, 0]),\n",
      "   midi.NoteOffEvent(tick=10, channel=0, data=[10, 0]),\n",
      "   midi.NoteOffEvent(tick=17, channel=0, data=[67, 0]),\n",
      "   midi.NoteOffEvent(tick=3, channel=0, data=[96, 0]),\n",
      "   midi.NoteOffEvent(tick=20, channel=0, data=[32, 0]),\n",
      "   midi.NoteOffEvent(tick=9, channel=0, data=[41, 0]),\n",
      "   midi.NoteOffEvent(tick=17, channel=0, data=[71, 0]),\n",
      "   midi.NoteOffEvent(tick=4, channel=0, data=[99, 0]),\n",
      "   midi.NoteOffEvent(tick=9, channel=0, data=[115, 0]),\n",
      "   midi.NoteOffEvent(tick=13, channel=0, data=[105, 0]),\n",
      "   midi.NoteOffEvent(tick=11, channel=0, data=[110, 0]),\n",
      "   midi.NoteOffEvent(tick=4, channel=0, data=[52, 0]),\n",
      "   midi.NoteOffEvent(tick=14, channel=0, data=[77, 0]),\n",
      "   midi.NoteOffEvent(tick=4, channel=0, data=[28, 0]),\n",
      "   midi.NoteOffEvent(tick=62, channel=0, data=[9, 0]),\n",
      "   midi.NoteOffEvent(tick=22, channel=0, data=[36, 0]),\n",
      "   midi.NoteOffEvent(tick=4, channel=0, data=[118, 0]),\n",
      "   midi.NoteOffEvent(tick=6, channel=0, data=[27, 0]),\n",
      "   midi.NoteOffEvent(tick=0, channel=0, data=[57, 0]),\n",
      "   midi.NoteOffEvent(tick=2, channel=0, data=[63, 0]),\n",
      "   midi.NoteOffEvent(tick=6, channel=0, data=[50, 0]),\n",
      "   midi.NoteOffEvent(tick=72, channel=0, data=[43, 0]),\n",
      "   midi.NoteOffEvent(tick=53, channel=0, data=[12, 0]),\n",
      "   midi.NoteOffEvent(tick=17, channel=0, data=[94, 0]),\n",
      "   midi.NoteOffEvent(tick=4, channel=0, data=[83, 0]),\n",
      "   midi.NoteOffEvent(tick=23, channel=0, data=[20, 0]),\n",
      "   midi.NoteOffEvent(tick=30, channel=0, data=[11, 0]),\n",
      "   midi.NoteOffEvent(tick=34, channel=0, data=[87, 0]),\n",
      "   midi.NoteOffEvent(tick=70, channel=0, data=[78, 0]),\n",
      "   midi.NoteOffEvent(tick=0, channel=0, data=[106, 0]),\n",
      "   midi.NoteOffEvent(tick=7, channel=0, data=[109, 0]),\n",
      "   midi.NoteOffEvent(tick=11, channel=0, data=[86, 0]),\n",
      "   midi.NoteOffEvent(tick=123, channel=0, data=[40, 0]),\n",
      "   midi.EndOfTrackEvent(tick=0, data=[])]),\n",
      " midi.Track(\\\n",
      "  [midi.SetTempoEvent(tick=0, data=[8, 227, 124]),\n",
      "   midi.ProgramChangeEvent(tick=0, channel=0, data=[104]),\n",
      "   midi.NoteOnEvent(tick=6, channel=0, data=[87, 84]),\n",
      "   midi.NoteOnEvent(tick=0, channel=0, data=[37, 41]),\n",
      "   midi.NoteOnEvent(tick=41, channel=0, data=[43, 249]),\n",
      "   midi.NoteOnEvent(tick=16, channel=0, data=[100, 218]),\n",
      "   midi.NoteOnEvent(tick=47, channel=0, data=[102, 84]),\n",
      "   midi.NoteOnEvent(tick=43, channel=0, data=[49, 78]),\n",
      "   midi.NoteOnEvent(tick=2, channel=0, data=[81, 40]),\n",
      "   midi.NoteOnEvent(tick=5, channel=0, data=[109, 69]),\n",
      "   midi.NoteOnEvent(tick=6, channel=0, data=[103, 217]),\n",
      "   midi.NoteOnEvent(tick=39, channel=0, data=[102, 174]),\n",
      "   midi.NoteOnEvent(tick=2, channel=0, data=[12, 5]),\n",
      "   midi.NoteOnEvent(tick=10, channel=0, data=[113, 235]),\n",
      "   midi.NoteOnEvent(tick=5, channel=0, data=[69, 253]),\n",
      "   midi.NoteOnEvent(tick=4, channel=0, data=[101, 19]),\n",
      "   midi.NoteOnEvent(tick=6, channel=0, data=[103, 237]),\n",
      "   midi.NoteOffEvent(tick=73, channel=0, data=[12, 0]),\n",
      "   midi.NoteOnEvent(tick=30, channel=0, data=[114, 92]),\n",
      "   midi.NoteOnEvent(tick=86, channel=0, data=[40, 187]),\n",
      "   midi.NoteOnEvent(tick=4, channel=0, data=[23, 59]),\n",
      "   midi.NoteOnEvent(tick=8, channel=0, data=[126, 136]),\n",
      "   midi.NoteOffEvent(tick=74, channel=0, data=[126, 0]),\n",
      "   midi.NoteOnEvent(tick=28, channel=0, data=[117, 228]),\n",
      "   midi.NoteOnEvent(tick=3, channel=0, data=[119, 132]),\n",
      "   midi.NoteOnEvent(tick=14, channel=0, data=[91, 59]),\n",
      "   midi.NoteOffEvent(tick=4, channel=0, data=[100, 0]),\n",
      "   midi.NoteOnEvent(tick=0, channel=0, data=[53, 62]),\n",
      "   midi.NoteOnEvent(tick=0, channel=0, data=[115, 253]),\n",
      "   midi.NoteOnEvent(tick=4, channel=0, data=[63, 112]),\n",
      "   midi.NoteOffEvent(tick=6, channel=0, data=[103, 0]),\n",
      "   midi.NoteOffEvent(tick=4, channel=0, data=[117, 0]),\n",
      "   midi.NoteOnEvent(tick=4, channel=0, data=[50, 210]),\n",
      "   midi.NoteOnEvent(tick=19, channel=0, data=[42, 0]),\n",
      "   midi.NoteOnEvent(tick=39, channel=0, data=[29, 46]),\n",
      "   midi.NoteOffEvent(tick=3, channel=0, data=[91, 0]),\n",
      "   midi.NoteOnEvent(tick=4, channel=0, data=[45, 226]),\n",
      "   midi.NoteOnEvent(tick=9, channel=0, data=[64, 127]),\n",
      "   midi.NoteOnEvent(tick=3, channel=0, data=[127, 32]),\n",
      "   midi.NoteOffEvent(tick=1, channel=0, data=[43, 0]),\n",
      "   midi.NoteOnEvent(tick=5, channel=0, data=[73, 89]),\n",
      "   midi.NoteOffEvent(tick=2, channel=0, data=[37, 0]),\n",
      "   midi.NoteOnEvent(tick=3, channel=0, data=[10, 76]),\n",
      "   midi.NoteOnEvent(tick=4, channel=0, data=[18, 98]),\n",
      "   midi.NoteOffEvent(tick=12, channel=0, data=[29, 0]),\n",
      "   midi.NoteOnEvent(tick=15, channel=0, data=[3, 96]),\n",
      "   midi.NoteOnEvent(tick=20, channel=0, data=[18, 13]),\n",
      "   midi.NoteOnEvent(tick=0, channel=0, data=[43, 61]),\n",
      "   midi.NoteOnEvent(tick=13, channel=0, data=[10, 3]),\n",
      "   midi.NoteOnEvent(tick=9, channel=0, data=[12, 233]),\n",
      "   midi.NoteOnEvent(tick=4, channel=0, data=[39, 122]),\n",
      "   midi.NoteOffEvent(tick=52, channel=0, data=[73, 0]),\n",
      "   midi.NoteOffEvent(tick=18, channel=0, data=[40, 0]),\n",
      "   midi.NoteOffEvent(tick=3, channel=0, data=[101, 0]),\n",
      "   midi.NoteOffEvent(tick=6, channel=0, data=[114, 0]),\n",
      "   midi.NoteOnEvent(tick=0, channel=0, data=[115, 140]),\n",
      "   midi.NoteOnEvent(tick=2, channel=0, data=[38, 78]),\n",
      "   midi.NoteOnEvent(tick=87, channel=0, data=[102, 207]),\n",
      "   midi.NoteOffEvent(tick=5, channel=0, data=[23, 0]),\n",
      "   midi.NoteOnEvent(tick=1, channel=0, data=[91, 202]),\n",
      "   midi.NoteOnEvent(tick=0, channel=0, data=[25, 67]),\n",
      "   midi.NoteOnEvent(tick=8, channel=0, data=[116, 173]),\n",
      "   midi.NoteOnEvent(tick=8, channel=0, data=[68, 253]),\n",
      "   midi.NoteOnEvent(tick=2, channel=0, data=[116, 29]),\n",
      "   midi.NoteOffEvent(tick=12, channel=0, data=[113, 0]),\n",
      "   midi.NoteOffEvent(tick=0, channel=0, data=[119, 0]),\n",
      "   midi.NoteOffEvent(tick=2, channel=0, data=[87, 0]),\n",
      "   midi.NoteOffEvent(tick=4, channel=0, data=[69, 0]),\n",
      "   midi.NoteOffEvent(tick=0, channel=0, data=[115, 0]),\n",
      "   midi.NoteOnEvent(tick=6, channel=0, data=[54, 187]),\n",
      "   midi.NoteOnEvent(tick=5, channel=0, data=[115, 124]),\n",
      "   midi.NoteOffEvent(tick=32, channel=0, data=[68, 0]),\n",
      "   midi.NoteOnEvent(tick=0, channel=0, data=[22, 62]),\n",
      "   midi.NoteOffEvent(tick=4, channel=0, data=[81, 0]),\n",
      "   midi.NoteOffEvent(tick=16, channel=0, data=[25, 0]),\n",
      "   midi.NoteOffEvent(tick=64, channel=0, data=[49, 0]),\n",
      "   midi.NoteOffEvent(tick=13, channel=0, data=[12, 0]),\n",
      "   midi.NoteOffEvent(tick=18, channel=0, data=[127, 0]),\n",
      "   midi.NoteOffEvent(tick=2, channel=0, data=[63, 0]),\n",
      "   midi.NoteOffEvent(tick=14, channel=0, data=[109, 0]),\n",
      "   midi.NoteOffEvent(tick=45, channel=0, data=[3, 0]),\n",
      "   midi.NoteOffEvent(tick=145, channel=0, data=[43, 0]),\n",
      "   midi.NoteOffEvent(tick=39, channel=0, data=[18, 0]),\n",
      "   midi.NoteOffEvent(tick=62, channel=0, data=[50, 0]),\n",
      "   midi.NoteOffEvent(tick=1, channel=0, data=[53, 0]),\n",
      "   midi.NoteOffEvent(tick=11, channel=0, data=[42, 0]),\n",
      "   midi.NoteOffEvent(tick=51, channel=0, data=[10, 0]),\n",
      "   midi.NoteOffEvent(tick=44, channel=0, data=[39, 0]),\n",
      "   midi.NoteOffEvent(tick=23, channel=0, data=[45, 0]),\n",
      "   midi.NoteOffEvent(tick=4, channel=0, data=[54, 0]),\n",
      "   midi.NoteOffEvent(tick=11, channel=0, data=[64, 0]),\n",
      "   midi.NoteOffEvent(tick=90, channel=0, data=[22, 0]),\n",
      "   midi.NoteOffEvent(tick=53, channel=0, data=[91, 0]),\n",
      "   midi.NoteOffEvent(tick=100, channel=0, data=[102, 0]),\n",
      "   midi.NoteOffEvent(tick=18, channel=0, data=[38, 0]),\n",
      "   midi.NoteOffEvent(tick=14, channel=0, data=[115, 0]),\n",
      "   midi.NoteOffEvent(tick=32, channel=0, data=[116, 0]),\n",
      "   midi.EndOfTrackEvent(tick=0, data=[])]),\n",
      " midi.Track(\\\n",
      "  [midi.SetTempoEvent(tick=0, data=[8, 227, 124]),\n",
      "   midi.ProgramChangeEvent(tick=0, channel=0, data=[105]),\n",
      "   midi.NoteOnEvent(tick=4, channel=0, data=[21, 62]),\n",
      "   midi.NoteOnEvent(tick=18, channel=0, data=[16, 175]),\n",
      "   midi.NoteOnEvent(tick=41, channel=0, data=[3, 23]),\n",
      "   midi.NoteOnEvent(tick=5, channel=0, data=[123, 212]),\n",
      "   midi.NoteOnEvent(tick=1, channel=0, data=[123, 180]),\n",
      "   midi.NoteOnEvent(tick=41, channel=0, data=[106, 177]),\n",
      "   midi.NoteOnEvent(tick=9, channel=0, data=[110, 26]),\n",
      "   midi.NoteOnEvent(tick=42, channel=0, data=[102, 107]),\n",
      "   midi.NoteOnEvent(tick=18, channel=0, data=[22, 235]),\n",
      "   midi.NoteOnEvent(tick=12, channel=0, data=[64, 113]),\n",
      "   midi.NoteOnEvent(tick=3, channel=0, data=[38, 158]),\n",
      "   midi.NoteOnEvent(tick=43, channel=0, data=[46, 216]),\n",
      "   midi.NoteOnEvent(tick=9, channel=0, data=[86, 177]),\n",
      "   midi.NoteOnEvent(tick=13, channel=0, data=[67, 138]),\n",
      "   midi.NoteOnEvent(tick=2, channel=0, data=[67, 119]),\n",
      "   midi.NoteOnEvent(tick=12, channel=0, data=[52, 104]),\n",
      "   midi.NoteOnEvent(tick=0, channel=0, data=[53, 218]),\n",
      "   midi.NoteOnEvent(tick=16, channel=0, data=[16, 114]),\n",
      "   midi.NoteOnEvent(tick=1, channel=0, data=[43, 227]),\n",
      "   midi.NoteOffEvent(tick=24, channel=0, data=[106, 0]),\n",
      "   midi.NoteOnEvent(tick=18, channel=0, data=[25, 159]),\n",
      "   midi.NoteOffEvent(tick=3, channel=0, data=[21, 0]),\n",
      "   midi.NoteOnEvent(tick=10, channel=0, data=[75, 58]),\n",
      "   midi.NoteOnEvent(tick=4, channel=0, data=[107, 12]),\n",
      "   midi.NoteOffEvent(tick=47, channel=0, data=[25, 0]),\n",
      "   midi.NoteOnEvent(tick=2, channel=0, data=[93, 12]),\n",
      "   midi.NoteOnEvent(tick=2, channel=0, data=[3, 22]),\n",
      "   midi.NoteOnEvent(tick=4, channel=0, data=[31, 32]),\n",
      "   midi.NoteOnEvent(tick=11, channel=0, data=[61, 213]),\n",
      "   midi.NoteOnEvent(tick=23, channel=0, data=[81, 212]),\n",
      "   midi.NoteOnEvent(tick=4, channel=0, data=[87, 215]),\n",
      "   midi.NoteOnEvent(tick=12, channel=0, data=[72, 30]),\n",
      "   midi.NoteOnEvent(tick=19, channel=0, data=[94, 12]),\n",
      "   midi.NoteOnEvent(tick=13, channel=0, data=[62, 98]),\n",
      "   midi.NoteOffEvent(tick=39, channel=0, data=[107, 0]),\n",
      "   midi.NoteOnEvent(tick=22, channel=0, data=[38, 54]),\n",
      "   midi.NoteOnEvent(tick=10, channel=0, data=[107, 76]),\n",
      "   midi.NoteOnEvent(tick=3, channel=0, data=[113, 132]),\n",
      "   midi.NoteOnEvent(tick=8, channel=0, data=[105, 241]),\n",
      "   midi.NoteOffEvent(tick=7, channel=0, data=[93, 0]),\n",
      "   midi.NoteOnEvent(tick=18, channel=0, data=[62, 74]),\n",
      "   midi.NoteOnEvent(tick=21, channel=0, data=[88, 102]),\n",
      "   midi.NoteOnEvent(tick=5, channel=0, data=[88, 184]),\n",
      "   midi.NoteOnEvent(tick=6, channel=0, data=[13, 217]),\n",
      "   midi.NoteOffEvent(tick=10, channel=0, data=[88, 0]),\n",
      "   midi.NoteOnEvent(tick=0, channel=0, data=[52, 252]),\n",
      "   midi.NoteOffEvent(tick=2, channel=0, data=[110, 0]),\n",
      "   midi.NoteOnEvent(tick=11, channel=0, data=[83, 247]),\n",
      "   midi.NoteOnEvent(tick=9, channel=0, data=[97, 126]),\n",
      "   midi.NoteOnEvent(tick=27, channel=0, data=[84, 233]),\n",
      "   midi.NoteOffEvent(tick=8, channel=0, data=[64, 0]),\n",
      "   midi.NoteOnEvent(tick=1, channel=0, data=[47, 79]),\n",
      "   midi.NoteOnEvent(tick=4, channel=0, data=[111, 226]),\n",
      "   midi.NoteOnEvent(tick=0, channel=0, data=[119, 136]),\n",
      "   midi.NoteOnEvent(tick=8, channel=0, data=[78, 33]),\n",
      "   midi.NoteOffEvent(tick=12, channel=0, data=[102, 0]),\n",
      "   midi.NoteOnEvent(tick=0, channel=0, data=[125, 165]),\n",
      "   midi.NoteOnEvent(tick=9, channel=0, data=[22, 35]),\n",
      "   midi.NoteOffEvent(tick=1, channel=0, data=[123, 0]),\n",
      "   midi.NoteOnEvent(tick=12, channel=0, data=[33, 253]),\n",
      "   midi.NoteOffEvent(tick=16, channel=0, data=[46, 0]),\n",
      "   midi.NoteOnEvent(tick=0, channel=0, data=[127, 111]),\n",
      "   midi.NoteOffEvent(tick=16, channel=0, data=[47, 0]),\n",
      "   midi.NoteOnEvent(tick=8, channel=0, data=[57, 34]),\n",
      "   midi.NoteOnEvent(tick=0, channel=0, data=[100, 195]),\n",
      "   midi.NoteOnEvent(tick=4, channel=0, data=[86, 225]),\n",
      "   midi.NoteOffEvent(tick=7, channel=0, data=[62, 0]),\n",
      "   midi.NoteOffEvent(tick=14, channel=0, data=[43, 0]),\n",
      "   midi.NoteOffEvent(tick=2, channel=0, data=[100, 0]),\n",
      "   midi.NoteOffEvent(tick=1, channel=0, data=[16, 0]),\n",
      "   midi.NoteOnEvent(tick=0, channel=0, data=[13, 6]),\n",
      "   midi.NoteOffEvent(tick=24, channel=0, data=[127, 0]),\n",
      "   midi.NoteOffEvent(tick=6, channel=0, data=[67, 0]),\n",
      "   midi.NoteOffEvent(tick=5, channel=0, data=[13, 0]),\n",
      "   midi.NoteOnEvent(tick=12, channel=0, data=[38, 14]),\n",
      "   midi.NoteOnEvent(tick=0, channel=0, data=[43, 57]),\n",
      "   midi.NoteOffEvent(tick=12, channel=0, data=[107, 0]),\n",
      "   midi.NoteOffEvent(tick=11, channel=0, data=[119, 0]),\n",
      "   midi.NoteOnEvent(tick=10, channel=0, data=[79, 239]),\n",
      "   midi.NoteOnEvent(tick=1, channel=0, data=[123, 65]),\n",
      "   midi.NoteOnEvent(tick=2, channel=0, data=[56, 85]),\n",
      "   midi.NoteOnEvent(tick=12, channel=0, data=[116, 87]),\n",
      "   midi.NoteOnEvent(tick=2, channel=0, data=[121, 20]),\n",
      "   midi.NoteOffEvent(tick=2, channel=0, data=[105, 0]),\n",
      "   midi.NoteOffEvent(tick=19, channel=0, data=[57, 0]),\n",
      "   midi.NoteOnEvent(tick=0, channel=0, data=[75, 136]),\n",
      "   midi.NoteOnEvent(tick=4, channel=0, data=[101, 150]),\n",
      "   midi.NoteOffEvent(tick=7, channel=0, data=[52, 0]),\n",
      "   midi.NoteOnEvent(tick=13, channel=0, data=[18, 136]),\n",
      "   midi.NoteOffEvent(tick=49, channel=0, data=[113, 0]),\n",
      "   midi.NoteOffEvent(tick=22, channel=0, data=[22, 0]),\n",
      "   midi.NoteOffEvent(tick=4, channel=0, data=[53, 0]),\n",
      "   midi.NoteOffEvent(tick=2, channel=0, data=[81, 0]),\n",
      "   midi.NoteOffEvent(tick=76, channel=0, data=[61, 0]),\n",
      "   midi.NoteOffEvent(tick=12, channel=0, data=[3, 0]),\n",
      "   midi.NoteOffEvent(tick=3, channel=0, data=[121, 0]),\n",
      "   midi.NoteOffEvent(tick=38, channel=0, data=[43, 0]),\n",
      "   midi.NoteOffEvent(tick=30, channel=0, data=[31, 0]),\n",
      "   midi.NoteOffEvent(tick=20, channel=0, data=[83, 0]),\n",
      "   midi.NoteOffEvent(tick=5, channel=0, data=[56, 0]),\n",
      "   midi.NoteOffEvent(tick=3, channel=0, data=[87, 0]),\n",
      "   midi.NoteOffEvent(tick=0, channel=0, data=[94, 0]),\n",
      "   midi.NoteOffEvent(tick=3, channel=0, data=[18, 0]),\n",
      "   midi.NoteOffEvent(tick=128, channel=0, data=[86, 0]),\n",
      "   midi.NoteOffEvent(tick=5, channel=0, data=[97, 0]),\n",
      "   midi.NoteOffEvent(tick=4, channel=0, data=[33, 0]),\n",
      "   midi.NoteOffEvent(tick=14, channel=0, data=[79, 0]),\n",
      "   midi.NoteOffEvent(tick=76, channel=0, data=[72, 0]),\n",
      "   midi.NoteOffEvent(tick=24, channel=0, data=[125, 0]),\n",
      "   midi.NoteOffEvent(tick=23, channel=0, data=[116, 0]),\n",
      "   midi.NoteOffEvent(tick=40, channel=0, data=[111, 0]),\n",
      "   midi.NoteOffEvent(tick=19, channel=0, data=[78, 0]),\n",
      "   midi.NoteOffEvent(tick=66, channel=0, data=[101, 0]),\n",
      "   midi.NoteOffEvent(tick=35, channel=0, data=[84, 0]),\n",
      "   midi.NoteOffEvent(tick=66, channel=0, data=[123, 0]),\n",
      "   midi.NoteOffEvent(tick=107, channel=0, data=[75, 0]),\n",
      "   midi.NoteOffEvent(tick=6, channel=0, data=[38, 0]),\n",
      "   midi.EndOfTrackEvent(tick=0, data=[])]),\n",
      " midi.Track(\\\n",
      "  [midi.SetTempoEvent(tick=0, data=[8, 227, 124]),\n",
      "   midi.ProgramChangeEvent(tick=0, channel=0, data=[106]),\n",
      "   midi.NoteOnEvent(tick=13, channel=0, data=[100, 22]),\n",
      "   midi.NoteOnEvent(tick=86, channel=0, data=[59, 219]),\n",
      "   midi.NoteOnEvent(tick=5, channel=0, data=[124, 188]),\n",
      "   midi.NoteOnEvent(tick=19, channel=0, data=[46, 127]),\n",
      "   midi.NoteOnEvent(tick=54, channel=0, data=[13, 203]),\n",
      "   midi.NoteOnEvent(tick=2, channel=0, data=[60, 208]),\n",
      "   midi.NoteOnEvent(tick=7, channel=0, data=[86, 245]),\n",
      "   midi.NoteOnEvent(tick=6, channel=0, data=[98, 141]),\n",
      "   midi.NoteOnEvent(tick=30, channel=0, data=[36, 152]),\n",
      "   midi.NoteOnEvent(tick=32, channel=0, data=[0, 178]),\n",
      "   midi.NoteOnEvent(tick=0, channel=0, data=[41, 187]),\n",
      "   midi.NoteOnEvent(tick=2, channel=0, data=[114, 194]),\n",
      "   midi.NoteOnEvent(tick=1, channel=0, data=[48, 231]),\n",
      "   midi.NoteOnEvent(tick=41, channel=0, data=[97, 39]),\n",
      "   midi.NoteOnEvent(tick=1, channel=0, data=[17, 131]),\n",
      "   midi.NoteOffEvent(tick=2, channel=0, data=[60, 0]),\n",
      "   midi.NoteOffEvent(tick=16, channel=0, data=[46, 0]),\n",
      "   midi.NoteOnEvent(tick=81, channel=0, data=[62, 102]),\n",
      "   midi.NoteOnEvent(tick=2, channel=0, data=[49, 216]),\n",
      "   midi.NoteOnEvent(tick=2, channel=0, data=[114, 242]),\n",
      "   midi.NoteOnEvent(tick=2, channel=0, data=[65, 143]),\n",
      "   midi.NoteOffEvent(tick=12, channel=0, data=[13, 0]),\n",
      "   midi.NoteOffEvent(tick=1, channel=0, data=[59, 0]),\n",
      "   midi.NoteOnEvent(tick=21, channel=0, data=[1, 49]),\n",
      "   midi.NoteOnEvent(tick=24, channel=0, data=[17, 11]),\n",
      "   midi.NoteOffEvent(tick=9, channel=0, data=[86, 0]),\n",
      "   midi.NoteOnEvent(tick=0, channel=0, data=[71, 54]),\n",
      "   midi.NoteOffEvent(tick=3, channel=0, data=[48, 0]),\n",
      "   midi.NoteOnEvent(tick=0, channel=0, data=[54, 41]),\n",
      "   midi.NoteOnEvent(tick=0, channel=0, data=[84, 138]),\n",
      "   midi.NoteOnEvent(tick=7, channel=0, data=[14, 50]),\n",
      "   midi.NoteOnEvent(tick=33, channel=0, data=[38, 56]),\n",
      "   midi.NoteOnEvent(tick=4, channel=0, data=[62, 166]),\n",
      "   midi.NoteOffEvent(tick=3, channel=0, data=[0, 0]),\n",
      "   midi.NoteOnEvent(tick=11, channel=0, data=[33, 47]),\n",
      "   midi.NoteOffEvent(tick=2, channel=0, data=[54, 0]),\n",
      "   midi.NoteOnEvent(tick=8, channel=0, data=[34, 195]),\n",
      "   midi.NoteOnEvent(tick=10, channel=0, data=[109, 3]),\n",
      "   midi.NoteOnEvent(tick=8, channel=0, data=[0, 38]),\n",
      "   midi.NoteOnEvent(tick=1, channel=0, data=[36, 84]),\n",
      "   midi.NoteOffEvent(tick=10, channel=0, data=[0, 0]),\n",
      "   midi.NoteOnEvent(tick=1, channel=0, data=[108, 85]),\n",
      "   midi.NoteOnEvent(tick=2, channel=0, data=[118, 207]),\n",
      "   midi.NoteOffEvent(tick=15, channel=0, data=[33, 0]),\n",
      "   midi.NoteOnEvent(tick=3, channel=0, data=[89, 55]),\n",
      "   midi.NoteOnEvent(tick=26, channel=0, data=[127, 202]),\n",
      "   midi.NoteOnEvent(tick=14, channel=0, data=[19, 207]),\n",
      "   midi.NoteOnEvent(tick=11, channel=0, data=[62, 222]),\n",
      "   midi.NoteOffEvent(tick=28, channel=0, data=[36, 0]),\n",
      "   midi.NoteOffEvent(tick=8, channel=0, data=[65, 0]),\n",
      "   midi.NoteOnEvent(tick=38, channel=0, data=[67, 199]),\n",
      "   midi.NoteOnEvent(tick=1, channel=0, data=[96, 81]),\n",
      "   midi.NoteOnEvent(tick=8, channel=0, data=[113, 5]),\n",
      "   midi.NoteOffEvent(tick=4, channel=0, data=[17, 0]),\n",
      "   midi.NoteOffEvent(tick=14, channel=0, data=[98, 0]),\n",
      "   midi.NoteOnEvent(tick=8, channel=0, data=[59, 10]),\n",
      "   midi.NoteOnEvent(tick=1, channel=0, data=[102, 107]),\n",
      "   midi.NoteOnEvent(tick=0, channel=0, data=[23, 112]),\n",
      "   midi.NoteOffEvent(tick=8, channel=0, data=[124, 0]),\n",
      "   midi.NoteOnEvent(tick=18, channel=0, data=[7, 122]),\n",
      "   midi.NoteOnEvent(tick=0, channel=0, data=[7, 215]),\n",
      "   midi.NoteOnEvent(tick=7, channel=0, data=[27, 80]),\n",
      "   midi.NoteOnEvent(tick=0, channel=0, data=[121, 106]),\n",
      "   midi.NoteOnEvent(tick=5, channel=0, data=[72, 129]),\n",
      "   midi.NoteOffEvent(tick=2, channel=0, data=[100, 0]),\n",
      "   midi.NoteOnEvent(tick=8, channel=0, data=[102, 113]),\n",
      "   midi.NoteOnEvent(tick=30, channel=0, data=[86, 69]),\n",
      "   midi.NoteOnEvent(tick=0, channel=0, data=[65, 80]),\n",
      "   midi.NoteOffEvent(tick=5, channel=0, data=[49, 0]),\n",
      "   midi.NoteOnEvent(tick=6, channel=0, data=[121, 210]),\n",
      "   midi.NoteOnEvent(tick=33, channel=0, data=[25, 155]),\n",
      "   midi.NoteOnEvent(tick=8, channel=0, data=[38, 119]),\n",
      "   midi.NoteOnEvent(tick=4, channel=0, data=[124, 41]),\n",
      "   midi.NoteOnEvent(tick=20, channel=0, data=[32, 85]),\n",
      "   midi.NoteOnEvent(tick=35, channel=0, data=[6, 80]),\n",
      "   midi.NoteOnEvent(tick=16, channel=0, data=[45, 34]),\n",
      "   midi.NoteOnEvent(tick=12, channel=0, data=[55, 115]),\n",
      "   midi.NoteOffEvent(tick=3, channel=0, data=[89, 0]),\n",
      "   midi.NoteOnEvent(tick=8, channel=0, data=[121, 71]),\n",
      "   midi.NoteOffEvent(tick=31, channel=0, data=[121, 0]),\n",
      "   midi.NoteOffEvent(tick=4, channel=0, data=[14, 0]),\n",
      "   midi.NoteOffEvent(tick=4, channel=0, data=[19, 0]),\n",
      "   midi.NoteOffEvent(tick=7, channel=0, data=[109, 0]),\n",
      "   midi.NoteOffEvent(tick=14, channel=0, data=[108, 0]),\n",
      "   midi.NoteOffEvent(tick=2, channel=0, data=[41, 0]),\n",
      "   midi.NoteOffEvent(tick=29, channel=0, data=[96, 0]),\n",
      "   midi.NoteOffEvent(tick=42, channel=0, data=[97, 0]),\n",
      "   midi.NoteOffEvent(tick=12, channel=0, data=[7, 0]),\n",
      "   midi.NoteOffEvent(tick=4, channel=0, data=[124, 0]),\n",
      "   midi.NoteOffEvent(tick=14, channel=0, data=[34, 0]),\n",
      "   midi.NoteOffEvent(tick=11, channel=0, data=[38, 0]),\n",
      "   midi.NoteOffEvent(tick=17, channel=0, data=[71, 0]),\n",
      "   midi.NoteOffEvent(tick=7, channel=0, data=[84, 0]),\n",
      "   midi.NoteOffEvent(tick=4, channel=0, data=[72, 0]),\n",
      "   midi.NoteOffEvent(tick=52, channel=0, data=[114, 0]),\n",
      "   midi.NoteOffEvent(tick=50, channel=0, data=[23, 0]),\n",
      "   midi.NoteOffEvent(tick=2, channel=0, data=[1, 0]),\n",
      "   midi.NoteOffEvent(tick=31, channel=0, data=[27, 0]),\n",
      "   midi.NoteOffEvent(tick=2, channel=0, data=[62, 0]),\n",
      "   midi.NoteOffEvent(tick=8, channel=0, data=[118, 0]),\n",
      "   midi.NoteOffEvent(tick=2, channel=0, data=[59, 0]),\n",
      "   midi.NoteOffEvent(tick=13, channel=0, data=[102, 0]),\n",
      "   midi.NoteOffEvent(tick=57, channel=0, data=[45, 0]),\n",
      "   midi.NoteOffEvent(tick=89, channel=0, data=[65, 0]),\n",
      "   midi.NoteOffEvent(tick=11, channel=0, data=[127, 0]),\n",
      "   midi.NoteOffEvent(tick=29, channel=0, data=[67, 0]),\n",
      "   midi.NoteOffEvent(tick=82, channel=0, data=[86, 0]),\n",
      "   midi.NoteOffEvent(tick=68, channel=0, data=[25, 0]),\n",
      "   midi.NoteOffEvent(tick=12, channel=0, data=[113, 0]),\n",
      "   midi.NoteOffEvent(tick=11, channel=0, data=[6, 0]),\n",
      "   midi.NoteOffEvent(tick=13, channel=0, data=[32, 0]),\n",
      "   midi.NoteOffEvent(tick=68, channel=0, data=[55, 0]),\n",
      "   midi.EndOfTrackEvent(tick=0, data=[])]),\n",
      " midi.Track(\\\n",
      "  [midi.SetTempoEvent(tick=0, data=[8, 227, 124]),\n",
      "   midi.ProgramChangeEvent(tick=0, channel=0, data=[107]),\n",
      "   midi.NoteOnEvent(tick=22, channel=0, data=[66, 131]),\n",
      "   midi.NoteOnEvent(tick=0, channel=0, data=[76, 115]),\n",
      "   midi.NoteOnEvent(tick=2, channel=0, data=[42, 209]),\n",
      "   midi.NoteOnEvent(tick=0, channel=0, data=[46, 54]),\n",
      "   midi.NoteOnEvent(tick=0, channel=0, data=[114, 123]),\n",
      "   midi.NoteOnEvent(tick=11, channel=0, data=[59, 73]),\n",
      "   midi.NoteOnEvent(tick=17, channel=0, data=[0, 132]),\n",
      "   midi.NoteOnEvent(tick=16, channel=0, data=[75, 46]),\n",
      "   midi.NoteOnEvent(tick=58, channel=0, data=[126, 119]),\n",
      "   midi.NoteOnEvent(tick=20, channel=0, data=[10, 104]),\n",
      "   midi.NoteOnEvent(tick=0, channel=0, data=[90, 136]),\n",
      "   midi.NoteOnEvent(tick=7, channel=0, data=[47, 34]),\n",
      "   midi.NoteOnEvent(tick=41, channel=0, data=[107, 52]),\n",
      "   midi.NoteOffEvent(tick=43, channel=0, data=[47, 0]),\n",
      "   midi.NoteOnEvent(tick=8, channel=0, data=[112, 145]),\n",
      "   midi.NoteOnEvent(tick=23, channel=0, data=[99, 58]),\n",
      "   midi.NoteOffEvent(tick=2, channel=0, data=[76, 0]),\n",
      "   midi.NoteOnEvent(tick=3, channel=0, data=[87, 66]),\n",
      "   midi.NoteOnEvent(tick=28, channel=0, data=[61, 51]),\n",
      "   midi.NoteOnEvent(tick=8, channel=0, data=[21, 19]),\n",
      "   midi.NoteOnEvent(tick=36, channel=0, data=[72, 11]),\n",
      "   midi.NoteOnEvent(tick=0, channel=0, data=[113, 162]),\n",
      "   midi.NoteOnEvent(tick=4, channel=0, data=[60, 116]),\n",
      "   midi.NoteOffEvent(tick=15, channel=0, data=[72, 0]),\n",
      "   midi.NoteOffEvent(tick=12, channel=0, data=[113, 0]),\n",
      "   midi.NoteOffEvent(tick=41, channel=0, data=[90, 0]),\n",
      "   midi.NoteOnEvent(tick=8, channel=0, data=[28, 79]),\n",
      "   midi.NoteOffEvent(tick=20, channel=0, data=[75, 0]),\n",
      "   midi.NoteOnEvent(tick=15, channel=0, data=[123, 140]),\n",
      "   midi.NoteOnEvent(tick=19, channel=0, data=[122, 12]),\n",
      "   midi.NoteOnEvent(tick=4, channel=0, data=[28, 48]),\n",
      "   midi.NoteOnEvent(tick=17, channel=0, data=[33, 6]),\n",
      "   midi.NoteOnEvent(tick=5, channel=0, data=[125, 82]),\n",
      "   midi.NoteOffEvent(tick=24, channel=0, data=[126, 0]),\n",
      "   midi.NoteOnEvent(tick=2, channel=0, data=[60, 107]),\n",
      "   midi.NoteOffEvent(tick=4, channel=0, data=[66, 0]),\n",
      "   midi.NoteOffEvent(tick=5, channel=0, data=[59, 0]),\n",
      "   midi.NoteOnEvent(tick=15, channel=0, data=[105, 242]),\n",
      "   midi.NoteOnEvent(tick=3, channel=0, data=[68, 155]),\n",
      "   midi.NoteOnEvent(tick=2, channel=0, data=[85, 4]),\n",
      "   midi.NoteOnEvent(tick=3, channel=0, data=[58, 201]),\n",
      "   midi.NoteOnEvent(tick=51, channel=0, data=[9, 216]),\n",
      "   midi.NoteOnEvent(tick=5, channel=0, data=[81, 67]),\n",
      "   midi.NoteOffEvent(tick=15, channel=0, data=[28, 0]),\n",
      "   midi.NoteOnEvent(tick=17, channel=0, data=[70, 118]),\n",
      "   midi.NoteOnEvent(tick=10, channel=0, data=[100, 200]),\n",
      "   midi.NoteOffEvent(tick=7, channel=0, data=[99, 0]),\n",
      "   midi.NoteOffEvent(tick=3, channel=0, data=[112, 0]),\n",
      "   midi.NoteOnEvent(tick=13, channel=0, data=[124, 95]),\n",
      "   midi.NoteOnEvent(tick=1, channel=0, data=[40, 117]),\n",
      "   midi.NoteOnEvent(tick=32, channel=0, data=[10, 179]),\n",
      "   midi.NoteOffEvent(tick=4, channel=0, data=[70, 0]),\n",
      "   midi.NoteOnEvent(tick=6, channel=0, data=[38, 7]),\n",
      "   midi.NoteOffEvent(tick=2, channel=0, data=[105, 0]),\n",
      "   midi.NoteOffEvent(tick=5, channel=0, data=[122, 0]),\n",
      "   midi.NoteOffEvent(tick=15, channel=0, data=[38, 0]),\n",
      "   midi.NoteOnEvent(tick=34, channel=0, data=[39, 24]),\n",
      "   midi.NoteOnEvent(tick=6, channel=0, data=[99, 131]),\n",
      "   midi.NoteOffEvent(tick=18, channel=0, data=[33, 0]),\n",
      "   midi.NoteOffEvent(tick=9, channel=0, data=[68, 0]),\n",
      "   midi.NoteOffEvent(tick=1, channel=0, data=[0, 0]),\n",
      "   midi.NoteOnEvent(tick=3, channel=0, data=[99, 48]),\n",
      "   midi.NoteOnEvent(tick=11, channel=0, data=[114, 211]),\n",
      "   midi.NoteOffEvent(tick=45, channel=0, data=[42, 0]),\n",
      "   midi.NoteOnEvent(tick=14, channel=0, data=[52, 82]),\n",
      "   midi.NoteOnEvent(tick=9, channel=0, data=[103, 203]),\n",
      "   midi.NoteOnEvent(tick=22, channel=0, data=[63, 178]),\n",
      "   midi.NoteOffEvent(tick=39, channel=0, data=[61, 0]),\n",
      "   midi.NoteOnEvent(tick=19, channel=0, data=[77, 230]),\n",
      "   midi.NoteOffEvent(tick=10, channel=0, data=[46, 0]),\n",
      "   midi.NoteOnEvent(tick=9, channel=0, data=[74, 68]),\n",
      "   midi.NoteOffEvent(tick=33, channel=0, data=[60, 0]),\n",
      "   midi.NoteOffEvent(tick=25, channel=0, data=[58, 0]),\n",
      "   midi.NoteOffEvent(tick=84, channel=0, data=[125, 0]),\n",
      "   midi.NoteOffEvent(tick=40, channel=0, data=[107, 0]),\n",
      "   midi.NoteOffEvent(tick=4, channel=0, data=[21, 0]),\n",
      "   midi.NoteOffEvent(tick=5, channel=0, data=[87, 0]),\n",
      "   midi.NoteOffEvent(tick=98, channel=0, data=[124, 0]),\n",
      "   midi.NoteOffEvent(tick=13, channel=0, data=[9, 0]),\n",
      "   midi.NoteOffEvent(tick=45, channel=0, data=[63, 0]),\n",
      "   midi.NoteOffEvent(tick=13, channel=0, data=[100, 0]),\n",
      "   midi.NoteOffEvent(tick=41, channel=0, data=[123, 0]),\n",
      "   midi.NoteOffEvent(tick=8, channel=0, data=[85, 0]),\n",
      "   midi.NoteOffEvent(tick=5, channel=0, data=[74, 0]),\n",
      "   midi.NoteOffEvent(tick=25, channel=0, data=[81, 0]),\n",
      "   midi.NoteOffEvent(tick=65, channel=0, data=[77, 0]),\n",
      "   midi.NoteOffEvent(tick=4, channel=0, data=[40, 0]),\n",
      "   midi.NoteOffEvent(tick=21, channel=0, data=[52, 0]),\n",
      "   midi.NoteOffEvent(tick=30, channel=0, data=[103, 0]),\n",
      "   midi.NoteOffEvent(tick=28, channel=0, data=[39, 0]),\n",
      "   midi.NoteOffEvent(tick=86, channel=0, data=[10, 0]),\n",
      "   midi.NoteOffEvent(tick=97, channel=0, data=[114, 0]),\n",
      "   midi.NoteOffEvent(tick=48, channel=0, data=[99, 0]),\n",
      "   midi.EndOfTrackEvent(tick=0, data=[])]),\n",
      " midi.Track(\\\n",
      "  [midi.SetTempoEvent(tick=0, data=[8, 227, 124]),\n",
      "   midi.ProgramChangeEvent(tick=0, channel=0, data=[108]),\n",
      "   midi.NoteOnEvent(tick=6, channel=0, data=[84, 93]),\n",
      "   midi.NoteOnEvent(tick=1, channel=0, data=[87, 253]),\n",
      "   midi.NoteOnEvent(tick=28, channel=0, data=[68, 60]),\n",
      "   midi.NoteOnEvent(tick=7, channel=0, data=[82, 210]),\n",
      "   midi.NoteOffEvent(tick=16, channel=0, data=[84, 0]),\n",
      "   midi.NoteOnEvent(tick=1, channel=0, data=[33, 94]),\n",
      "   midi.NoteOnEvent(tick=9, channel=0, data=[114, 115]),\n",
      "   midi.NoteOnEvent(tick=15, channel=0, data=[20, 64]),\n",
      "   midi.NoteOffEvent(tick=49, channel=0, data=[114, 0]),\n",
      "   midi.NoteOnEvent(tick=0, channel=0, data=[20, 224]),\n",
      "   midi.NoteOnEvent(tick=11, channel=0, data=[67, 113]),\n",
      "   midi.NoteOffEvent(tick=9, channel=0, data=[33, 0]),\n",
      "   midi.NoteOffEvent(tick=2, channel=0, data=[82, 0]),\n",
      "   midi.NoteOnEvent(tick=5, channel=0, data=[68, 93]),\n",
      "   midi.NoteOnEvent(tick=11, channel=0, data=[91, 1]),\n",
      "   midi.NoteOnEvent(tick=7, channel=0, data=[87, 45]),\n",
      "   midi.NoteOnEvent(tick=26, channel=0, data=[114, 128]),\n",
      "   midi.NoteOnEvent(tick=2, channel=0, data=[93, 164]),\n",
      "   midi.NoteOnEvent(tick=12, channel=0, data=[14, 19]),\n",
      "   midi.NoteOnEvent(tick=9, channel=0, data=[51, 182]),\n",
      "   midi.NoteOnEvent(tick=6, channel=0, data=[10, 254]),\n",
      "   midi.NoteOnEvent(tick=13, channel=0, data=[80, 173]),\n",
      "   midi.NoteOffEvent(tick=2, channel=0, data=[10, 0]),\n",
      "   midi.NoteOffEvent(tick=4, channel=0, data=[114, 0]),\n",
      "   midi.NoteOnEvent(tick=3, channel=0, data=[50, 190]),\n",
      "   midi.NoteOnEvent(tick=11, channel=0, data=[119, 34]),\n",
      "   midi.NoteOnEvent(tick=28, channel=0, data=[40, 226]),\n",
      "   midi.NoteOnEvent(tick=6, channel=0, data=[113, 212]),\n",
      "   midi.NoteOnEvent(tick=32, channel=0, data=[65, 173]),\n",
      "   midi.NoteOnEvent(tick=0, channel=0, data=[12, 141]),\n",
      "   midi.NoteOnEvent(tick=1, channel=0, data=[85, 41]),\n",
      "   midi.NoteOnEvent(tick=3, channel=0, data=[9, 203]),\n",
      "   midi.NoteOffEvent(tick=16, channel=0, data=[87, 0]),\n",
      "   midi.NoteOnEvent(tick=1, channel=0, data=[117, 210]),\n",
      "   midi.NoteOnEvent(tick=7, channel=0, data=[17, 194]),\n",
      "   midi.NoteOffEvent(tick=35, channel=0, data=[14, 0]),\n",
      "   midi.NoteOffEvent(tick=17, channel=0, data=[50, 0]),\n",
      "   midi.NoteOnEvent(tick=29, channel=0, data=[69, 228]),\n",
      "   midi.NoteOnEvent(tick=20, channel=0, data=[9, 78]),\n",
      "   midi.NoteOnEvent(tick=14, channel=0, data=[48, 118]),\n",
      "   midi.NoteOnEvent(tick=0, channel=0, data=[54, 156]),\n",
      "   midi.NoteOffEvent(tick=1, channel=0, data=[12, 0]),\n",
      "   midi.NoteOffEvent(tick=8, channel=0, data=[69, 0]),\n",
      "   midi.NoteOffEvent(tick=8, channel=0, data=[68, 0]),\n",
      "   midi.NoteOffEvent(tick=13, channel=0, data=[85, 0]),\n",
      "   midi.NoteOnEvent(tick=4, channel=0, data=[105, 65]),\n",
      "   midi.NoteOnEvent(tick=0, channel=0, data=[110, 210]),\n",
      "   midi.NoteOnEvent(tick=14, channel=0, data=[94, 5]),\n",
      "   midi.NoteOffEvent(tick=8, channel=0, data=[93, 0]),\n",
      "   midi.NoteOnEvent(tick=41, channel=0, data=[28, 190]),\n",
      "   midi.NoteOffEvent(tick=3, channel=0, data=[54, 0]),\n",
      "   midi.NoteOnEvent(tick=17, channel=0, data=[10, 32]),\n",
      "   midi.NoteOnEvent(tick=4, channel=0, data=[52, 23]),\n",
      "   midi.NoteOffEvent(tick=16, channel=0, data=[117, 0]),\n",
      "   midi.NoteOnEvent(tick=7, channel=0, data=[72, 151]),\n",
      "   midi.NoteOffEvent(tick=9, channel=0, data=[20, 0]),\n",
      "   midi.NoteOnEvent(tick=24, channel=0, data=[64, 97]),\n",
      "   midi.NoteOnEvent(tick=2, channel=0, data=[37, 33]),\n",
      "   midi.NoteOffEvent(tick=3, channel=0, data=[17, 0]),\n",
      "   midi.NoteOnEvent(tick=5, channel=0, data=[91, 66]),\n",
      "   midi.NoteOnEvent(tick=8, channel=0, data=[78, 17]),\n",
      "   midi.NoteOnEvent(tick=1, channel=0, data=[107, 228]),\n",
      "   midi.NoteOnEvent(tick=14, channel=0, data=[84, 35]),\n",
      "   midi.NoteOnEvent(tick=1, channel=0, data=[51, 229]),\n",
      "   midi.NoteOffEvent(tick=37, channel=0, data=[67, 0]),\n",
      "   midi.NoteOnEvent(tick=26, channel=0, data=[52, 7]),\n",
      "   midi.NoteOnEvent(tick=12, channel=0, data=[39, 99]),\n",
      "   midi.NoteOnEvent(tick=2, channel=0, data=[76, 79]),\n",
      "   midi.NoteOnEvent(tick=0, channel=0, data=[85, 8]),\n",
      "   midi.NoteOnEvent(tick=15, channel=0, data=[71, 89]),\n",
      "   midi.NoteOnEvent(tick=9, channel=0, data=[26, 157]),\n",
      "   midi.NoteOnEvent(tick=1, channel=0, data=[53, 238]),\n",
      "   midi.NoteOffEvent(tick=14, channel=0, data=[113, 0]),\n",
      "   midi.NoteOffEvent(tick=6, channel=0, data=[94, 0]),\n",
      "   midi.NoteOnEvent(tick=11, channel=0, data=[100, 57]),\n",
      "   midi.NoteOnEvent(tick=20, channel=0, data=[97, 55]),\n",
      "   midi.NoteOffEvent(tick=20, channel=0, data=[80, 0]),\n",
      "   midi.NoteOnEvent(tick=5, channel=0, data=[3, 156]),\n",
      "   midi.NoteOffEvent(tick=9, channel=0, data=[52, 0]),\n",
      "   midi.NoteOnEvent(tick=5, channel=0, data=[85, 28]),\n",
      "   midi.NoteOffEvent(tick=12, channel=0, data=[119, 0]),\n",
      "   midi.NoteOffEvent(tick=7, channel=0, data=[28, 0]),\n",
      "   midi.NoteOnEvent(tick=6, channel=0, data=[124, 121]),\n",
      "   midi.NoteOffEvent(tick=13, channel=0, data=[9, 0]),\n",
      "   midi.NoteOnEvent(tick=6, channel=0, data=[26, 12]),\n",
      "   midi.NoteOnEvent(tick=8, channel=0, data=[40, 163]),\n",
      "   midi.NoteOnEvent(tick=2, channel=0, data=[10, 214]),\n",
      "   midi.NoteOnEvent(tick=0, channel=0, data=[106, 243]),\n",
      "   midi.NoteOffEvent(tick=5, channel=0, data=[65, 0]),\n",
      "   midi.NoteOffEvent(tick=0, channel=0, data=[91, 0]),\n",
      "   midi.NoteOffEvent(tick=25, channel=0, data=[51, 0]),\n",
      "   midi.NoteOnEvent(tick=30, channel=0, data=[124, 72]),\n",
      "   midi.NoteOnEvent(tick=2, channel=0, data=[1, 59]),\n",
      "   midi.NoteOffEvent(tick=72, channel=0, data=[72, 0]),\n",
      "   midi.NoteOffEvent(tick=15, channel=0, data=[48, 0]),\n",
      "   midi.NoteOffEvent(tick=36, channel=0, data=[105, 0]),\n",
      "   midi.NoteOffEvent(tick=19, channel=0, data=[107, 0]),\n",
      "   midi.NoteOffEvent(tick=23, channel=0, data=[3, 0]),\n",
      "   midi.NoteOffEvent(tick=1, channel=0, data=[53, 0]),\n",
      "   midi.NoteOffEvent(tick=14, channel=0, data=[64, 0]),\n",
      "   midi.NoteOffEvent(tick=39, channel=0, data=[71, 0]),\n",
      "   midi.NoteOffEvent(tick=17, channel=0, data=[84, 0]),\n",
      "   midi.NoteOffEvent(tick=55, channel=0, data=[85, 0]),\n",
      "   midi.NoteOffEvent(tick=167, channel=0, data=[76, 0]),\n",
      "   midi.NoteOffEvent(tick=11, channel=0, data=[110, 0]),\n",
      "   midi.NoteOffEvent(tick=16, channel=0, data=[39, 0]),\n",
      "   midi.NoteOffEvent(tick=39, channel=0, data=[106, 0]),\n",
      "   midi.NoteOffEvent(tick=79, channel=0, data=[40, 0]),\n",
      "   midi.NoteOffEvent(tick=7, channel=0, data=[37, 0]),\n",
      "   midi.NoteOffEvent(tick=9, channel=0, data=[78, 0]),\n",
      "   midi.NoteOffEvent(tick=25, channel=0, data=[10, 0]),\n",
      "   midi.NoteOffEvent(tick=20, channel=0, data=[97, 0]),\n",
      "   midi.NoteOffEvent(tick=8, channel=0, data=[26, 0]),\n",
      "   midi.NoteOffEvent(tick=101, channel=0, data=[100, 0]),\n",
      "   midi.NoteOffEvent(tick=9, channel=0, data=[124, 0]),\n",
      "   midi.NoteOffEvent(tick=176, channel=0, data=[1, 0]),\n",
      "   midi.EndOfTrackEvent(tick=0, data=[])]),\n",
      " midi.Track(\\\n",
      "  [midi.SetTempoEvent(tick=0, data=[8, 227, 124]),\n",
      "   midi.ProgramChangeEvent(tick=0, channel=0, data=[109]),\n",
      "   midi.NoteOnEvent(tick=18, channel=0, data=[51, 239]),\n",
      "   midi.NoteOnEvent(tick=35, channel=0, data=[126, 46]),\n",
      "   midi.NoteOnEvent(tick=6, channel=0, data=[61, 43]),\n",
      "   midi.NoteOnEvent(tick=53, channel=0, data=[32, 5]),\n",
      "   midi.NoteOnEvent(tick=9, channel=0, data=[34, 210]),\n",
      "   midi.NoteOnEvent(tick=45, channel=0, data=[16, 173]),\n",
      "   midi.NoteOnEvent(tick=34, channel=0, data=[115, 244]),\n",
      "   midi.NoteOnEvent(tick=7, channel=0, data=[76, 155]),\n",
      "   midi.NoteOnEvent(tick=0, channel=0, data=[26, 18]),\n",
      "   midi.NoteOnEvent(tick=15, channel=0, data=[36, 137]),\n",
      "   midi.NoteOnEvent(tick=35, channel=0, data=[28, 231]),\n",
      "   midi.NoteOnEvent(tick=0, channel=0, data=[74, 252]),\n",
      "   midi.NoteOnEvent(tick=2, channel=0, data=[53, 28]),\n",
      "   midi.NoteOnEvent(tick=21, channel=0, data=[98, 96]),\n",
      "   midi.NoteOnEvent(tick=0, channel=0, data=[79, 136]),\n",
      "   midi.NoteOnEvent(tick=9, channel=0, data=[55, 85]),\n",
      "   midi.NoteOnEvent(tick=23, channel=0, data=[62, 31]),\n",
      "   midi.NoteOnEvent(tick=23, channel=0, data=[36, 75]),\n",
      "   midi.NoteOnEvent(tick=6, channel=0, data=[74, 86]),\n",
      "   midi.NoteOnEvent(tick=16, channel=0, data=[29, 172]),\n",
      "   midi.NoteOnEvent(tick=41, channel=0, data=[36, 15]),\n",
      "   midi.NoteOffEvent(tick=16, channel=0, data=[16, 0]),\n",
      "   midi.NoteOnEvent(tick=7, channel=0, data=[19, 111]),\n",
      "   midi.NoteOnEvent(tick=0, channel=0, data=[109, 172]),\n",
      "   midi.NoteOnEvent(tick=12, channel=0, data=[71, 34]),\n",
      "   midi.NoteOffEvent(tick=28, channel=0, data=[34, 0]),\n",
      "   midi.NoteOnEvent(tick=11, channel=0, data=[54, 41]),\n",
      "   midi.NoteOffEvent(tick=47, channel=0, data=[32, 0]),\n",
      "   midi.NoteOnEvent(tick=3, channel=0, data=[12, 164]),\n",
      "   midi.NoteOnEvent(tick=10, channel=0, data=[6, 24]),\n",
      "   midi.NoteOnEvent(tick=26, channel=0, data=[79, 12]),\n",
      "   midi.NoteOffEvent(tick=1, channel=0, data=[62, 0]),\n",
      "   midi.NoteOnEvent(tick=9, channel=0, data=[35, 113]),\n",
      "   midi.NoteOnEvent(tick=0, channel=0, data=[102, 32]),\n",
      "   midi.NoteOnEvent(tick=25, channel=0, data=[49, 174]),\n",
      "   midi.NoteOnEvent(tick=64, channel=0, data=[60, 212]),\n",
      "   midi.NoteOnEvent(tick=27, channel=0, data=[77, 76]),\n",
      "   midi.NoteOnEvent(tick=20, channel=0, data=[14, 211]),\n",
      "   midi.NoteOnEvent(tick=22, channel=0, data=[14, 55]),\n",
      "   midi.NoteOnEvent(tick=10, channel=0, data=[5, 91]),\n",
      "   midi.NoteOnEvent(tick=1, channel=0, data=[115, 8]),\n",
      "   midi.NoteOnEvent(tick=0, channel=0, data=[115, 239]),\n",
      "   midi.NoteOffEvent(tick=4, channel=0, data=[77, 0]),\n",
      "   midi.NoteOnEvent(tick=0, channel=0, data=[36, 1]),\n",
      "   midi.NoteOnEvent(tick=11, channel=0, data=[117, 60]),\n",
      "   midi.NoteOffEvent(tick=4, channel=0, data=[6, 0]),\n",
      "   midi.NoteOnEvent(tick=6, channel=0, data=[74, 205]),\n",
      "   midi.NoteOffEvent(tick=8, channel=0, data=[98, 0]),\n",
      "   midi.NoteOffEvent(tick=10, channel=0, data=[79, 0]),\n",
      "   midi.NoteOffEvent(tick=54, channel=0, data=[117, 0]),\n",
      "   midi.NoteOffEvent(tick=18, channel=0, data=[51, 0]),\n",
      "   midi.NoteOffEvent(tick=22, channel=0, data=[36, 0]),\n",
      "   midi.NoteOnEvent(tick=14, channel=0, data=[50, 135]),\n",
      "   midi.NoteOffEvent(tick=9, channel=0, data=[109, 0]),\n",
      "   midi.NoteOffEvent(tick=4, channel=0, data=[126, 0]),\n",
      "   midi.NoteOnEvent(tick=30, channel=0, data=[60, 140]),\n",
      "   midi.NoteOnEvent(tick=11, channel=0, data=[1, 36]),\n",
      "   midi.NoteOffEvent(tick=13, channel=0, data=[102, 0]),\n",
      "   midi.NoteOnEvent(tick=15, channel=0, data=[72, 86]),\n",
      "   midi.NoteOffEvent(tick=6, channel=0, data=[115, 0]),\n",
      "   midi.NoteOffEvent(tick=11, channel=0, data=[55, 0]),\n",
      "   midi.NoteOnEvent(tick=6, channel=0, data=[91, 179]),\n",
      "   midi.NoteOffEvent(tick=1, channel=0, data=[76, 0]),\n",
      "   midi.NoteOffEvent(tick=2, channel=0, data=[72, 0]),\n",
      "   midi.NoteOffEvent(tick=1, channel=0, data=[61, 0]),\n",
      "   midi.NoteOffEvent(tick=14, channel=0, data=[35, 0]),\n",
      "   midi.NoteOffEvent(tick=24, channel=0, data=[53, 0]),\n",
      "   midi.NoteOffEvent(tick=8, channel=0, data=[49, 0]),\n",
      "   midi.NoteOffEvent(tick=2, channel=0, data=[71, 0]),\n",
      "   midi.NoteOffEvent(tick=29, channel=0, data=[12, 0]),\n",
      "   midi.NoteOffEvent(tick=19, channel=0, data=[28, 0]),\n",
      "   midi.NoteOffEvent(tick=74, channel=0, data=[50, 0]),\n",
      "   midi.NoteOffEvent(tick=4, channel=0, data=[60, 0]),\n",
      "   midi.NoteOffEvent(tick=7, channel=0, data=[26, 0]),\n",
      "   midi.NoteOffEvent(tick=73, channel=0, data=[19, 0]),\n",
      "   midi.NoteOffEvent(tick=16, channel=0, data=[74, 0]),\n",
      "   midi.NoteOffEvent(tick=5, channel=0, data=[5, 0]),\n",
      "   midi.NoteOffEvent(tick=24, channel=0, data=[29, 0]),\n",
      "   midi.NoteOffEvent(tick=46, channel=0, data=[54, 0]),\n",
      "   midi.NoteOffEvent(tick=13, channel=0, data=[14, 0]),\n",
      "   midi.NoteOffEvent(tick=40, channel=0, data=[91, 0]),\n",
      "   midi.NoteOffEvent(tick=270, channel=0, data=[1, 0]),\n",
      "   midi.EndOfTrackEvent(tick=0, data=[])]),\n",
      " midi.Track(\\\n",
      "  [midi.SetTempoEvent(tick=0, data=[8, 227, 124]),\n",
      "   midi.ProgramChangeEvent(tick=0, channel=0, data=[110]),\n",
      "   midi.NoteOnEvent(tick=6, channel=0, data=[19, 156]),\n",
      "   midi.NoteOnEvent(tick=0, channel=0, data=[4, 112]),\n",
      "   midi.NoteOnEvent(tick=2, channel=0, data=[34, 100]),\n",
      "   midi.NoteOnEvent(tick=3, channel=0, data=[43, 150]),\n",
      "   midi.NoteOnEvent(tick=19, channel=0, data=[79, 4]),\n",
      "   midi.NoteOnEvent(tick=38, channel=0, data=[105, 83]),\n",
      "   midi.NoteOnEvent(tick=31, channel=0, data=[34, 93]),\n",
      "   midi.NoteOnEvent(tick=3, channel=0, data=[98, 60]),\n",
      "   midi.NoteOnEvent(tick=17, channel=0, data=[105, 109]),\n",
      "   midi.NoteOnEvent(tick=5, channel=0, data=[125, 19]),\n",
      "   midi.NoteOnEvent(tick=16, channel=0, data=[63, 243]),\n",
      "   midi.NoteOnEvent(tick=15, channel=0, data=[11, 46]),\n",
      "   midi.NoteOnEvent(tick=4, channel=0, data=[116, 207]),\n",
      "   midi.NoteOnEvent(tick=38, channel=0, data=[82, 231]),\n",
      "   midi.NoteOffEvent(tick=29, channel=0, data=[34, 0]),\n",
      "   midi.NoteOnEvent(tick=5, channel=0, data=[103, 245]),\n",
      "   midi.NoteOnEvent(tick=5, channel=0, data=[102, 250]),\n",
      "   midi.NoteOnEvent(tick=10, channel=0, data=[75, 129]),\n",
      "   midi.NoteOnEvent(tick=2, channel=0, data=[56, 158]),\n",
      "   midi.NoteOnEvent(tick=9, channel=0, data=[28, 185]),\n",
      "   midi.NoteOnEvent(tick=0, channel=0, data=[29, 208]),\n",
      "   midi.NoteOnEvent(tick=4, channel=0, data=[43, 91]),\n",
      "   midi.NoteOnEvent(tick=32, channel=0, data=[34, 12]),\n",
      "   midi.NoteOffEvent(tick=10, channel=0, data=[63, 0]),\n",
      "   midi.NoteOnEvent(tick=0, channel=0, data=[113, 211]),\n",
      "   midi.NoteOnEvent(tick=10, channel=0, data=[115, 172]),\n",
      "   midi.NoteOffEvent(tick=11, channel=0, data=[105, 0]),\n",
      "   midi.NoteOffEvent(tick=8, channel=0, data=[75, 0]),\n",
      "   midi.NoteOffEvent(tick=6, channel=0, data=[34, 0]),\n",
      "   midi.NoteOnEvent(tick=11, channel=0, data=[99, 156]),\n",
      "   midi.NoteOnEvent(tick=4, channel=0, data=[8, 209]),\n",
      "   midi.NoteOnEvent(tick=6, channel=0, data=[108, 107]),\n",
      "   midi.NoteOnEvent(tick=15, channel=0, data=[1, 2]),\n",
      "   midi.NoteOffEvent(tick=10, channel=0, data=[98, 0]),\n",
      "   midi.NoteOnEvent(tick=7, channel=0, data=[125, 169]),\n",
      "   midi.NoteOnEvent(tick=12, channel=0, data=[56, 240]),\n",
      "   midi.NoteOnEvent(tick=3, channel=0, data=[21, 169]),\n",
      "   midi.NoteOnEvent(tick=10, channel=0, data=[69, 63]),\n",
      "   midi.NoteOffEvent(tick=33, channel=0, data=[19, 0]),\n",
      "   midi.NoteOnEvent(tick=22, channel=0, data=[48, 91]),\n",
      "   midi.NoteOnEvent(tick=3, channel=0, data=[67, 217]),\n",
      "   midi.NoteOnEvent(tick=8, channel=0, data=[116, 209]),\n",
      "   midi.NoteOnEvent(tick=23, channel=0, data=[82, 249]),\n",
      "   midi.NoteOnEvent(tick=16, channel=0, data=[49, 246]),\n",
      "   midi.NoteOnEvent(tick=14, channel=0, data=[55, 151]),\n",
      "   midi.NoteOnEvent(tick=0, channel=0, data=[75, 87]),\n",
      "   midi.NoteOnEvent(tick=0, channel=0, data=[26, 58]),\n",
      "   midi.NoteOffEvent(tick=18, channel=0, data=[108, 0]),\n",
      "   midi.NoteOnEvent(tick=1, channel=0, data=[95, 213]),\n",
      "   midi.NoteOffEvent(tick=12, channel=0, data=[69, 0]),\n",
      "   midi.NoteOffEvent(tick=5, channel=0, data=[125, 0]),\n",
      "   midi.NoteOnEvent(tick=0, channel=0, data=[16, 137]),\n",
      "   midi.NoteOnEvent(tick=0, channel=0, data=[82, 38]),\n",
      "   midi.NoteOnEvent(tick=0, channel=0, data=[5, 49]),\n",
      "   midi.NoteOffEvent(tick=3, channel=0, data=[103, 0]),\n",
      "   midi.NoteOnEvent(tick=17, channel=0, data=[107, 19]),\n",
      "   midi.NoteOnEvent(tick=14, channel=0, data=[55, 197]),\n",
      "   midi.NoteOnEvent(tick=34, channel=0, data=[8, 144]),\n",
      "   midi.NoteOnEvent(tick=0, channel=0, data=[120, 99]),\n",
      "   midi.NoteOnEvent(tick=8, channel=0, data=[92, 250]),\n",
      "   midi.NoteOnEvent(tick=6, channel=0, data=[78, 215]),\n",
      "   midi.NoteOnEvent(tick=16, channel=0, data=[4, 199]),\n",
      "   midi.NoteOffEvent(tick=4, channel=0, data=[43, 0]),\n",
      "   midi.NoteOnEvent(tick=12, channel=0, data=[88, 79]),\n",
      "   midi.NoteOffEvent(tick=11, channel=0, data=[11, 0]),\n",
      "   midi.NoteOnEvent(tick=40, channel=0, data=[85, 120]),\n",
      "   midi.NoteOnEvent(tick=0, channel=0, data=[12, 79]),\n",
      "   midi.NoteOnEvent(tick=3, channel=0, data=[74, 44]),\n",
      "   midi.NoteOnEvent(tick=5, channel=0, data=[124, 115]),\n",
      "   midi.NoteOnEvent(tick=6, channel=0, data=[59, 6]),\n",
      "   midi.NoteOnEvent(tick=36, channel=0, data=[97, 224]),\n",
      "   midi.NoteOnEvent(tick=0, channel=0, data=[64, 45]),\n",
      "   midi.NoteOnEvent(tick=5, channel=0, data=[34, 123]),\n",
      "   midi.NoteOffEvent(tick=11, channel=0, data=[79, 0]),\n",
      "   midi.NoteOnEvent(tick=6, channel=0, data=[96, 160]),\n",
      "   midi.NoteOffEvent(tick=39, channel=0, data=[28, 0]),\n",
      "   midi.NoteOffEvent(tick=19, channel=0, data=[12, 0]),\n",
      "   midi.NoteOffEvent(tick=17, channel=0, data=[124, 0]),\n",
      "   midi.NoteOffEvent(tick=8, channel=0, data=[56, 0]),\n",
      "   midi.NoteOnEvent(tick=30, channel=0, data=[101, 12]),\n",
      "   midi.NoteOnEvent(tick=2, channel=0, data=[62, 201]),\n",
      "   midi.NoteOnEvent(tick=6, channel=0, data=[19, 101]),\n",
      "   midi.NoteOffEvent(tick=25, channel=0, data=[101, 0]),\n",
      "   midi.NoteOffEvent(tick=4, channel=0, data=[29, 0]),\n",
      "   midi.NoteOnEvent(tick=0, channel=0, data=[16, 213]),\n",
      "   midi.NoteOnEvent(tick=3, channel=0, data=[109, 106]),\n",
      "   midi.NoteOnEvent(tick=8, channel=0, data=[54, 95]),\n",
      "   midi.NoteOffEvent(tick=5, channel=0, data=[34, 0]),\n",
      "   midi.NoteOnEvent(tick=5, channel=0, data=[58, 209]),\n",
      "   midi.NoteOnEvent(tick=0, channel=0, data=[64, 229]),\n",
      "   midi.NoteOffEvent(tick=15, channel=0, data=[85, 0]),\n",
      "   midi.NoteOnEvent(tick=5, channel=0, data=[9, 108]),\n",
      "   midi.NoteOffEvent(tick=44, channel=0, data=[102, 0]),\n",
      "   midi.NoteOffEvent(tick=4, channel=0, data=[116, 0]),\n",
      "   midi.NoteOffEvent(tick=3, channel=0, data=[82, 0]),\n",
      "   midi.NoteOffEvent(tick=21, channel=0, data=[49, 0]),\n",
      "   midi.NoteOffEvent(tick=1, channel=0, data=[75, 0]),\n",
      "   midi.NoteOffEvent(tick=9, channel=0, data=[64, 0]),\n",
      "   midi.NoteOffEvent(tick=2, channel=0, data=[113, 0]),\n",
      "   midi.NoteOffEvent(tick=10, channel=0, data=[78, 0]),\n",
      "   midi.NoteOffEvent(tick=10, channel=0, data=[115, 0]),\n",
      "   midi.NoteOffEvent(tick=1, channel=0, data=[1, 0]),\n",
      "   midi.NoteOffEvent(tick=16, channel=0, data=[58, 0]),\n",
      "   midi.NoteOffEvent(tick=28, channel=0, data=[67, 0]),\n",
      "   midi.NoteOffEvent(tick=7, channel=0, data=[9, 0]),\n",
      "   midi.NoteOffEvent(tick=10, channel=0, data=[48, 0]),\n",
      "   midi.NoteOffEvent(tick=1, channel=0, data=[19, 0]),\n",
      "   midi.NoteOffEvent(tick=28, channel=0, data=[95, 0]),\n",
      "   midi.NoteOffEvent(tick=4, channel=0, data=[21, 0]),\n",
      "   midi.NoteOffEvent(tick=33, channel=0, data=[107, 0]),\n",
      "   midi.NoteOffEvent(tick=66, channel=0, data=[16, 0]),\n",
      "   midi.NoteOffEvent(tick=1, channel=0, data=[5, 0]),\n",
      "   midi.NoteOffEvent(tick=14, channel=0, data=[99, 0]),\n",
      "   midi.NoteOffEvent(tick=38, channel=0, data=[55, 0]),\n",
      "   midi.NoteOffEvent(tick=9, channel=0, data=[120, 0]),\n",
      "   midi.NoteOffEvent(tick=22, channel=0, data=[92, 0]),\n",
      "   midi.NoteOffEvent(tick=19, channel=0, data=[97, 0]),\n",
      "   midi.NoteOffEvent(tick=84, channel=0, data=[74, 0]),\n",
      "   midi.NoteOffEvent(tick=2, channel=0, data=[8, 0]),\n",
      "   midi.NoteOffEvent(tick=38, channel=0, data=[4, 0]),\n",
      "   midi.NoteOffEvent(tick=6, channel=0, data=[26, 0]),\n",
      "   midi.NoteOffEvent(tick=39, channel=0, data=[54, 0]),\n",
      "   midi.NoteOffEvent(tick=29, channel=0, data=[59, 0]),\n",
      "   midi.NoteOffEvent(tick=1, channel=0, data=[88, 0]),\n",
      "   midi.NoteOffEvent(tick=6, channel=0, data=[109, 0]),\n",
      "   midi.NoteOffEvent(tick=96, channel=0, data=[96, 0]),\n",
      "   midi.NoteOffEvent(tick=109, channel=0, data=[62, 0]),\n",
      "   midi.EndOfTrackEvent(tick=0, data=[])]),\n",
      " midi.Track(\\\n",
      "  [midi.SetTempoEvent(tick=0, data=[8, 227, 124]),\n",
      "   midi.ProgramChangeEvent(tick=0, channel=0, data=[111]),\n",
      "   midi.NoteOnEvent(tick=4, channel=0, data=[65, 240]),\n",
      "   midi.NoteOnEvent(tick=2, channel=0, data=[73, 122]),\n",
      "   midi.NoteOnEvent(tick=12, channel=0, data=[31, 72]),\n",
      "   midi.NoteOnEvent(tick=12, channel=0, data=[10, 129]),\n",
      "   midi.NoteOnEvent(tick=20, channel=0, data=[115, 122]),\n",
      "   midi.NoteOnEvent(tick=44, channel=0, data=[31, 189]),\n",
      "   midi.NoteOnEvent(tick=20, channel=0, data=[119, 39]),\n",
      "   midi.NoteOnEvent(tick=1, channel=0, data=[22, 235]),\n",
      "   midi.NoteOnEvent(tick=0, channel=0, data=[18, 243]),\n",
      "   midi.NoteOnEvent(tick=4, channel=0, data=[0, 79]),\n",
      "   midi.NoteOnEvent(tick=0, channel=0, data=[45, 170]),\n",
      "   midi.NoteOffEvent(tick=1, channel=0, data=[18, 0]),\n",
      "   midi.NoteOffEvent(tick=18, channel=0, data=[31, 0]),\n",
      "   midi.NoteOnEvent(tick=4, channel=0, data=[80, 135]),\n",
      "   midi.NoteOnEvent(tick=17, channel=0, data=[29, 169]),\n",
      "   midi.NoteOnEvent(tick=4, channel=0, data=[126, 244]),\n",
      "   midi.NoteOnEvent(tick=20, channel=0, data=[127, 147]),\n",
      "   midi.NoteOnEvent(tick=14, channel=0, data=[113, 217]),\n",
      "   midi.NoteOnEvent(tick=8, channel=0, data=[4, 124]),\n",
      "   midi.NoteOnEvent(tick=46, channel=0, data=[31, 7]),\n",
      "   midi.NoteOffEvent(tick=22, channel=0, data=[31, 0]),\n",
      "   midi.NoteOnEvent(tick=16, channel=0, data=[70, 31]),\n",
      "   midi.NoteOnEvent(tick=12, channel=0, data=[69, 208]),\n",
      "   midi.NoteOnEvent(tick=21, channel=0, data=[38, 70]),\n",
      "   midi.NoteOnEvent(tick=49, channel=0, data=[70, 195]),\n",
      "   midi.NoteOnEvent(tick=15, channel=0, data=[105, 232]),\n",
      "   midi.NoteOnEvent(tick=5, channel=0, data=[83, 110]),\n",
      "   midi.NoteOffEvent(tick=7, channel=0, data=[105, 0]),\n",
      "   midi.NoteOnEvent(tick=0, channel=0, data=[32, 186]),\n",
      "   midi.NoteOnEvent(tick=4, channel=0, data=[54, 97]),\n",
      "   midi.NoteOffEvent(tick=8, channel=0, data=[80, 0]),\n",
      "   midi.NoteOnEvent(tick=15, channel=0, data=[59, 14]),\n",
      "   midi.NoteOnEvent(tick=2, channel=0, data=[106, 39]),\n",
      "   midi.NoteOffEvent(tick=7, channel=0, data=[4, 0]),\n",
      "   midi.NoteOnEvent(tick=1, channel=0, data=[29, 215]),\n",
      "   midi.NoteOffEvent(tick=7, channel=0, data=[10, 0]),\n",
      "   midi.NoteOffEvent(tick=7, channel=0, data=[54, 0]),\n",
      "   midi.NoteOnEvent(tick=5, channel=0, data=[91, 250]),\n",
      "   midi.NoteOnEvent(tick=20, channel=0, data=[86, 31]),\n",
      "   midi.NoteOnEvent(tick=1, channel=0, data=[102, 245]),\n",
      "   midi.NoteOnEvent(tick=2, channel=0, data=[53, 245]),\n",
      "   midi.NoteOnEvent(tick=4, channel=0, data=[99, 222]),\n",
      "   midi.NoteOnEvent(tick=2, channel=0, data=[120, 57]),\n",
      "   midi.NoteOnEvent(tick=5, channel=0, data=[94, 241]),\n",
      "   midi.NoteOffEvent(tick=4, channel=0, data=[65, 0]),\n",
      "   midi.NoteOnEvent(tick=4, channel=0, data=[0, 252]),\n",
      "   midi.NoteOffEvent(tick=12, channel=0, data=[83, 0]),\n",
      "   midi.NoteOnEvent(tick=0, channel=0, data=[28, 60]),\n",
      "   midi.NoteOnEvent(tick=11, channel=0, data=[6, 189]),\n",
      "   midi.NoteOnEvent(tick=12, channel=0, data=[0, 245]),\n",
      "   midi.NoteOnEvent(tick=4, channel=0, data=[78, 37]),\n",
      "   midi.NoteOnEvent(tick=26, channel=0, data=[114, 244]),\n",
      "   midi.NoteOnEvent(tick=12, channel=0, data=[76, 94]),\n",
      "   midi.NoteOffEvent(tick=8, channel=0, data=[38, 0]),\n",
      "   midi.NoteOnEvent(tick=0, channel=0, data=[0, 22]),\n",
      "   midi.NoteOnEvent(tick=9, channel=0, data=[72, 168]),\n",
      "   midi.NoteOnEvent(tick=0, channel=0, data=[74, 145]),\n",
      "   midi.NoteOnEvent(tick=3, channel=0, data=[9, 215]),\n",
      "   midi.NoteOnEvent(tick=0, channel=0, data=[88, 215]),\n",
      "   midi.NoteOnEvent(tick=4, channel=0, data=[39, 54]),\n",
      "   midi.NoteOffEvent(tick=9, channel=0, data=[73, 0]),\n",
      "   midi.NoteOffEvent(tick=1, channel=0, data=[119, 0]),\n",
      "   midi.NoteOffEvent(tick=1, channel=0, data=[126, 0]),\n",
      "   midi.NoteOffEvent(tick=7, channel=0, data=[0, 0]),\n",
      "   midi.NoteOffEvent(tick=20, channel=0, data=[106, 0]),\n",
      "   midi.NoteOnEvent(tick=0, channel=0, data=[37, 25]),\n",
      "   midi.NoteOffEvent(tick=10, channel=0, data=[22, 0]),\n",
      "   midi.NoteOnEvent(tick=2, channel=0, data=[19, 215]),\n",
      "   midi.NoteOnEvent(tick=1, channel=0, data=[60, 182]),\n",
      "   midi.NoteOnEvent(tick=2, channel=0, data=[92, 52]),\n",
      "   midi.NoteOnEvent(tick=21, channel=0, data=[96, 17]),\n",
      "   midi.NoteOnEvent(tick=13, channel=0, data=[91, 22]),\n",
      "   midi.NoteOffEvent(tick=51, channel=0, data=[37, 0]),\n",
      "   midi.NoteOnEvent(tick=4, channel=0, data=[83, 237]),\n",
      "   midi.NoteOnEvent(tick=14, channel=0, data=[91, 179]),\n",
      "   midi.NoteOnEvent(tick=2, channel=0, data=[4, 213]),\n",
      "   midi.NoteOnEvent(tick=8, channel=0, data=[117, 128]),\n",
      "   midi.NoteOnEvent(tick=1, channel=0, data=[89, 87]),\n",
      "   midi.NoteOffEvent(tick=27, channel=0, data=[45, 0]),\n",
      "   midi.NoteOffEvent(tick=17, channel=0, data=[39, 0]),\n",
      "   midi.NoteOffEvent(tick=10, channel=0, data=[32, 0]),\n",
      "   midi.NoteOnEvent(tick=0, channel=0, data=[122, 210]),\n",
      "   midi.NoteOnEvent(tick=1, channel=0, data=[88, 37]),\n",
      "   midi.NoteOnEvent(tick=12, channel=0, data=[81, 143]),\n",
      "   midi.NoteOffEvent(tick=3, channel=0, data=[9, 0]),\n",
      "   midi.NoteOffEvent(tick=52, channel=0, data=[120, 0]),\n",
      "   midi.NoteOffEvent(tick=3, channel=0, data=[72, 0]),\n",
      "   midi.NoteOnEvent(tick=36, channel=0, data=[50, 221]),\n",
      "   midi.NoteOffEvent(tick=9, channel=0, data=[60, 0]),\n",
      "   midi.NoteOnEvent(tick=4, channel=0, data=[14, 0]),\n",
      "   midi.NoteOffEvent(tick=14, channel=0, data=[99, 0]),\n",
      "   midi.NoteOnEvent(tick=3, channel=0, data=[116, 106]),\n",
      "   midi.NoteOffEvent(tick=1, channel=0, data=[29, 0]),\n",
      "   midi.NoteOnEvent(tick=2, channel=0, data=[83, 210]),\n",
      "   midi.NoteOnEvent(tick=7, channel=0, data=[119, 165]),\n",
      "   midi.NoteOnEvent(tick=4, channel=0, data=[98, 104]),\n",
      "   midi.NoteOnEvent(tick=8, channel=0, data=[22, 5]),\n",
      "   midi.NoteOffEvent(tick=17, channel=0, data=[74, 0]),\n",
      "   midi.NoteOffEvent(tick=0, channel=0, data=[115, 0]),\n",
      "   midi.NoteOnEvent(tick=4, channel=0, data=[49, 80]),\n",
      "   midi.NoteOnEvent(tick=1, channel=0, data=[13, 227]),\n",
      "   midi.NoteOffEvent(tick=8, channel=0, data=[94, 0]),\n",
      "   midi.NoteOffEvent(tick=55, channel=0, data=[19, 0]),\n",
      "   midi.NoteOffEvent(tick=11, channel=0, data=[70, 0]),\n",
      "   midi.NoteOffEvent(tick=3, channel=0, data=[59, 0]),\n",
      "   midi.NoteOffEvent(tick=8, channel=0, data=[69, 0]),\n",
      "   midi.NoteOffEvent(tick=8, channel=0, data=[6, 0]),\n",
      "   midi.NoteOffEvent(tick=21, channel=0, data=[102, 0]),\n",
      "   midi.NoteOffEvent(tick=16, channel=0, data=[113, 0]),\n",
      "   midi.NoteOffEvent(tick=14, channel=0, data=[127, 0]),\n",
      "   midi.NoteOffEvent(tick=17, channel=0, data=[53, 0]),\n",
      "   midi.NoteOffEvent(tick=2, channel=0, data=[122, 0]),\n",
      "   midi.NoteOffEvent(tick=10, channel=0, data=[86, 0]),\n",
      "   midi.NoteOffEvent(tick=10, channel=0, data=[96, 0]),\n",
      "   midi.NoteOffEvent(tick=3, channel=0, data=[81, 0]),\n",
      "   midi.NoteOffEvent(tick=37, channel=0, data=[28, 0]),\n",
      "   midi.NoteOffEvent(tick=48, channel=0, data=[76, 0]),\n",
      "   midi.NoteOffEvent(tick=49, channel=0, data=[114, 0]),\n",
      "   midi.NoteOffEvent(tick=57, channel=0, data=[88, 0]),\n",
      "   midi.NoteOffEvent(tick=16, channel=0, data=[49, 0]),\n",
      "   midi.NoteOffEvent(tick=31, channel=0, data=[78, 0]),\n",
      "   midi.NoteOffEvent(tick=23, channel=0, data=[89, 0]),\n",
      "   midi.NoteOffEvent(tick=48, channel=0, data=[4, 0]),\n",
      "   midi.NoteOffEvent(tick=34, channel=0, data=[92, 0]),\n",
      "   midi.NoteOffEvent(tick=65, channel=0, data=[116, 0]),\n",
      "   midi.NoteOffEvent(tick=25, channel=0, data=[98, 0]),\n",
      "   midi.NoteOffEvent(tick=13, channel=0, data=[91, 0]),\n",
      "   midi.NoteOffEvent(tick=22, channel=0, data=[50, 0]),\n",
      "   midi.NoteOffEvent(tick=99, channel=0, data=[117, 0]),\n",
      "   midi.NoteOffEvent(tick=45, channel=0, data=[83, 0]),\n",
      "   midi.NoteOffEvent(tick=17, channel=0, data=[13, 0]),\n",
      "   midi.NoteOffEvent(tick=14, channel=0, data=[14, 0]),\n",
      "   midi.NoteOffEvent(tick=13, channel=0, data=[22, 0]),\n",
      "   midi.NoteOffEvent(tick=71, channel=0, data=[119, 0]),\n",
      "   midi.EndOfTrackEvent(tick=0, data=[])]),\n",
      " midi.Track(\\\n",
      "  [midi.SetTempoEvent(tick=0, data=[8, 227, 124]),\n",
      "   midi.ProgramChangeEvent(tick=0, channel=0, data=[112]),\n",
      "   midi.NoteOnEvent(tick=16, channel=0, data=[101, 101]),\n",
      "   midi.NoteOnEvent(tick=31, channel=0, data=[38, 24]),\n",
      "   midi.NoteOnEvent(tick=12, channel=0, data=[40, 151]),\n",
      "   midi.NoteOffEvent(tick=3, channel=0, data=[40, 0]),\n",
      "   midi.NoteOffEvent(tick=2, channel=0, data=[38, 0]),\n",
      "   midi.NoteOnEvent(tick=48, channel=0, data=[99, 44]),\n",
      "   midi.NoteOnEvent(tick=10, channel=0, data=[74, 41]),\n",
      "   midi.NoteOnEvent(tick=4, channel=0, data=[44, 154]),\n",
      "   midi.NoteOnEvent(tick=17, channel=0, data=[82, 214]),\n",
      "   midi.NoteOnEvent(tick=1, channel=0, data=[24, 196]),\n",
      "   midi.NoteOnEvent(tick=1, channel=0, data=[108, 193]),\n",
      "   midi.NoteOffEvent(tick=28, channel=0, data=[44, 0]),\n",
      "   midi.NoteOnEvent(tick=47, channel=0, data=[89, 101]),\n",
      "   midi.NoteOnEvent(tick=8, channel=0, data=[15, 132]),\n",
      "   midi.NoteOnEvent(tick=13, channel=0, data=[100, 106]),\n",
      "   midi.NoteOffEvent(tick=12, channel=0, data=[100, 0]),\n",
      "   midi.NoteOffEvent(tick=14, channel=0, data=[108, 0]),\n",
      "   midi.NoteOnEvent(tick=32, channel=0, data=[114, 237]),\n",
      "   midi.NoteOnEvent(tick=10, channel=0, data=[80, 23]),\n",
      "   midi.NoteOnEvent(tick=4, channel=0, data=[4, 70]),\n",
      "   midi.NoteOffEvent(tick=12, channel=0, data=[114, 0]),\n",
      "   midi.NoteOnEvent(tick=20, channel=0, data=[67, 42]),\n",
      "   midi.NoteOnEvent(tick=8, channel=0, data=[46, 38]),\n",
      "   midi.NoteOffEvent(tick=22, channel=0, data=[82, 0]),\n",
      "   midi.NoteOffEvent(tick=11, channel=0, data=[74, 0]),\n",
      "   midi.NoteOnEvent(tick=10, channel=0, data=[98, 216]),\n",
      "   midi.NoteOnEvent(tick=6, channel=0, data=[102, 37]),\n",
      "   midi.NoteOffEvent(tick=3, channel=0, data=[98, 0]),\n",
      "   midi.NoteOnEvent(tick=5, channel=0, data=[89, 15]),\n",
      "   midi.NoteOnEvent(tick=11, channel=0, data=[12, 132]),\n",
      "   midi.NoteOffEvent(tick=22, channel=0, data=[24, 0]),\n",
      "   midi.NoteOffEvent(tick=30, channel=0, data=[99, 0]),\n",
      "   midi.NoteOnEvent(tick=13, channel=0, data=[61, 237]),\n",
      "   midi.NoteOnEvent(tick=22, channel=0, data=[88, 24]),\n",
      "   midi.NoteOnEvent(tick=46, channel=0, data=[46, 167]),\n",
      "   midi.NoteOnEvent(tick=3, channel=0, data=[41, 202]),\n",
      "   midi.NoteOnEvent(tick=3, channel=0, data=[81, 14]),\n",
      "   midi.NoteOffEvent(tick=1, channel=0, data=[89, 0]),\n",
      "   midi.NoteOnEvent(tick=55, channel=0, data=[81, 56]),\n",
      "   midi.NoteOnEvent(tick=0, channel=0, data=[82, 107]),\n",
      "   midi.NoteOnEvent(tick=64, channel=0, data=[86, 158]),\n",
      "   midi.NoteOnEvent(tick=12, channel=0, data=[81, 219]),\n",
      "   midi.NoteOnEvent(tick=25, channel=0, data=[106, 21]),\n",
      "   midi.NoteOnEvent(tick=0, channel=0, data=[64, 5]),\n",
      "   midi.NoteOnEvent(tick=20, channel=0, data=[65, 73]),\n",
      "   midi.NoteOffEvent(tick=11, channel=0, data=[102, 0]),\n",
      "   midi.NoteOnEvent(tick=16, channel=0, data=[83, 233]),\n",
      "   midi.NoteOffEvent(tick=13, channel=0, data=[15, 0]),\n",
      "   midi.NoteOnEvent(tick=9, channel=0, data=[99, 121]),\n",
      "   midi.NoteOnEvent(tick=1, channel=0, data=[121, 191]),\n",
      "   midi.NoteOnEvent(tick=0, channel=0, data=[84, 222]),\n",
      "   midi.NoteOffEvent(tick=30, channel=0, data=[86, 0]),\n",
      "   midi.NoteOffEvent(tick=6, channel=0, data=[46, 0]),\n",
      "   midi.NoteOnEvent(tick=3, channel=0, data=[46, 198]),\n",
      "   midi.NoteOffEvent(tick=24, channel=0, data=[65, 0]),\n",
      "   midi.NoteOnEvent(tick=5, channel=0, data=[9, 109]),\n",
      "   midi.NoteOnEvent(tick=8, channel=0, data=[5, 82]),\n",
      "   midi.NoteOffEvent(tick=17, channel=0, data=[41, 0]),\n",
      "   midi.NoteOnEvent(tick=10, channel=0, data=[81, 47]),\n",
      "   midi.NoteOnEvent(tick=17, channel=0, data=[9, 101]),\n",
      "   midi.NoteOnEvent(tick=18, channel=0, data=[21, 227]),\n",
      "   midi.NoteOnEvent(tick=4, channel=0, data=[94, 73]),\n",
      "   midi.NoteOnEvent(tick=10, channel=0, data=[48, 157]),\n",
      "   midi.NoteOnEvent(tick=3, channel=0, data=[127, 95]),\n",
      "   midi.NoteOffEvent(tick=20, channel=0, data=[84, 0]),\n",
      "   midi.NoteOnEvent(tick=7, channel=0, data=[79, 179]),\n",
      "   midi.NoteOnEvent(tick=29, channel=0, data=[62, 200]),\n",
      "   midi.NoteOnEvent(tick=0, channel=0, data=[114, 148]),\n",
      "   midi.NoteOffEvent(tick=6, channel=0, data=[101, 0]),\n",
      "   midi.NoteOffEvent(tick=3, channel=0, data=[81, 0]),\n",
      "   midi.NoteOffEvent(tick=20, channel=0, data=[67, 0]),\n",
      "   midi.NoteOffEvent(tick=2, channel=0, data=[4, 0]),\n",
      "   midi.NoteOffEvent(tick=52, channel=0, data=[88, 0]),\n",
      "   midi.NoteOffEvent(tick=16, channel=0, data=[127, 0]),\n",
      "   midi.NoteOffEvent(tick=8, channel=0, data=[121, 0]),\n",
      "   midi.NoteOffEvent(tick=38, channel=0, data=[62, 0]),\n",
      "   midi.NoteOffEvent(tick=21, channel=0, data=[83, 0]),\n",
      "   midi.NoteOffEvent(tick=8, channel=0, data=[61, 0]),\n",
      "   midi.NoteOffEvent(tick=8, channel=0, data=[114, 0]),\n",
      "   midi.NoteOffEvent(tick=30, channel=0, data=[12, 0]),\n",
      "   midi.NoteOffEvent(tick=1, channel=0, data=[79, 0]),\n",
      "   midi.NoteOffEvent(tick=11, channel=0, data=[80, 0]),\n",
      "   midi.NoteOffEvent(tick=42, channel=0, data=[64, 0]),\n",
      "   midi.NoteOffEvent(tick=82, channel=0, data=[5, 0]),\n",
      "   midi.NoteOffEvent(tick=74, channel=0, data=[48, 0]),\n",
      "   midi.NoteOffEvent(tick=11, channel=0, data=[106, 0]),\n",
      "   midi.NoteOffEvent(tick=56, channel=0, data=[21, 0]),\n",
      "   midi.NoteOffEvent(tick=2, channel=0, data=[46, 0]),\n",
      "   midi.NoteOffEvent(tick=33, channel=0, data=[82, 0]),\n",
      "   midi.NoteOffEvent(tick=37, channel=0, data=[99, 0]),\n",
      "   midi.NoteOffEvent(tick=118, channel=0, data=[9, 0]),\n",
      "   midi.NoteOffEvent(tick=203, channel=0, data=[94, 0]),\n",
      "   midi.EndOfTrackEvent(tick=0, data=[])]),\n",
      " midi.Track(\\\n",
      "  [midi.SetTempoEvent(tick=0, data=[8, 227, 124]),\n",
      "   midi.ProgramChangeEvent(tick=0, channel=0, data=[113]),\n",
      "   midi.NoteOnEvent(tick=4, channel=0, data=[106, 120]),\n",
      "   midi.NoteOnEvent(tick=4, channel=0, data=[104, 182]),\n",
      "   midi.NoteOnEvent(tick=75, channel=0, data=[103, 228]),\n",
      "   midi.NoteOnEvent(tick=0, channel=0, data=[116, 26]),\n",
      "   midi.NoteOnEvent(tick=16, channel=0, data=[63, 212]),\n",
      "   midi.NoteOnEvent(tick=22, channel=0, data=[8, 214]),\n",
      "   midi.NoteOnEvent(tick=2, channel=0, data=[27, 110]),\n",
      "   midi.NoteOnEvent(tick=11, channel=0, data=[2, 172]),\n",
      "   midi.NoteOnEvent(tick=12, channel=0, data=[49, 218]),\n",
      "   midi.NoteOnEvent(tick=0, channel=0, data=[78, 89]),\n",
      "   midi.NoteOnEvent(tick=7, channel=0, data=[102, 84]),\n",
      "   midi.NoteOnEvent(tick=7, channel=0, data=[110, 4]),\n",
      "   midi.NoteOffEvent(tick=22, channel=0, data=[106, 0]),\n",
      "   midi.NoteOnEvent(tick=36, channel=0, data=[122, 151]),\n",
      "   midi.NoteOnEvent(tick=13, channel=0, data=[124, 36]),\n",
      "   midi.NoteOnEvent(tick=14, channel=0, data=[49, 226]),\n",
      "   midi.NoteOnEvent(tick=6, channel=0, data=[20, 122]),\n",
      "   midi.NoteOnEvent(tick=8, channel=0, data=[96, 100]),\n",
      "   midi.NoteOnEvent(tick=6, channel=0, data=[41, 41]),\n",
      "   midi.NoteOffEvent(tick=2, channel=0, data=[103, 0]),\n",
      "   midi.NoteOffEvent(tick=3, channel=0, data=[49, 0]),\n",
      "   midi.NoteOnEvent(tick=28, channel=0, data=[123, 64]),\n",
      "   midi.NoteOnEvent(tick=11, channel=0, data=[99, 115]),\n",
      "   midi.NoteOnEvent(tick=39, channel=0, data=[111, 194]),\n",
      "   midi.NoteOnEvent(tick=2, channel=0, data=[17, 57]),\n",
      "   midi.NoteOffEvent(tick=4, channel=0, data=[110, 0]),\n",
      "   midi.NoteOnEvent(tick=0, channel=0, data=[25, 74]),\n",
      "   midi.NoteOnEvent(tick=18, channel=0, data=[110, 220]),\n",
      "   midi.NoteOnEvent(tick=14, channel=0, data=[34, 120]),\n",
      "   midi.NoteOnEvent(tick=5, channel=0, data=[94, 156]),\n",
      "   midi.NoteOnEvent(tick=12, channel=0, data=[48, 238]),\n",
      "   midi.NoteOnEvent(tick=3, channel=0, data=[94, 68]),\n",
      "   midi.NoteOffEvent(tick=9, channel=0, data=[104, 0]),\n",
      "   midi.NoteOnEvent(tick=6, channel=0, data=[87, 15]),\n",
      "   midi.NoteOnEvent(tick=12, channel=0, data=[49, 241]),\n",
      "   midi.NoteOnEvent(tick=9, channel=0, data=[114, 92]),\n",
      "   midi.NoteOffEvent(tick=17, channel=0, data=[114, 0]),\n",
      "   midi.NoteOnEvent(tick=13, channel=0, data=[6, 247]),\n",
      "   midi.NoteOnEvent(tick=33, channel=0, data=[116, 148]),\n",
      "   midi.NoteOnEvent(tick=11, channel=0, data=[123, 8]),\n",
      "   midi.NoteOnEvent(tick=5, channel=0, data=[126, 32]),\n",
      "   midi.NoteOffEvent(tick=4, channel=0, data=[116, 0]),\n",
      "   midi.NoteOnEvent(tick=7, channel=0, data=[7, 39]),\n",
      "   midi.NoteOnEvent(tick=22, channel=0, data=[40, 68]),\n",
      "   midi.NoteOnEvent(tick=2, channel=0, data=[104, 11]),\n",
      "   midi.NoteOnEvent(tick=1, channel=0, data=[123, 87]),\n",
      "   midi.NoteOffEvent(tick=4, channel=0, data=[2, 0]),\n",
      "   midi.NoteOnEvent(tick=0, channel=0, data=[119, 200]),\n",
      "   midi.NoteOffEvent(tick=3, channel=0, data=[102, 0]),\n",
      "   midi.NoteOnEvent(tick=11, channel=0, data=[115, 63]),\n",
      "   midi.NoteOnEvent(tick=15, channel=0, data=[25, 224]),\n",
      "   midi.NoteOnEvent(tick=0, channel=0, data=[20, 209]),\n",
      "   midi.NoteOnEvent(tick=1, channel=0, data=[47, 100]),\n",
      "   midi.NoteOnEvent(tick=2, channel=0, data=[116, 65]),\n",
      "   midi.NoteOffEvent(tick=27, channel=0, data=[99, 0]),\n",
      "   midi.NoteOnEvent(tick=1, channel=0, data=[17, 29]),\n",
      "   midi.NoteOnEvent(tick=13, channel=0, data=[20, 105]),\n",
      "   midi.NoteOffEvent(tick=9, channel=0, data=[7, 0]),\n",
      "   midi.NoteOnEvent(tick=4, channel=0, data=[72, 99]),\n",
      "   midi.NoteOnEvent(tick=19, channel=0, data=[59, 232]),\n",
      "   midi.NoteOffEvent(tick=35, channel=0, data=[124, 0]),\n",
      "   midi.NoteOffEvent(tick=3, channel=0, data=[48, 0]),\n",
      "   midi.NoteOnEvent(tick=7, channel=0, data=[64, 21]),\n",
      "   midi.NoteOnEvent(tick=2, channel=0, data=[43, 133]),\n",
      "   midi.NoteOnEvent(tick=20, channel=0, data=[41, 241]),\n",
      "   midi.NoteOffEvent(tick=10, channel=0, data=[63, 0]),\n",
      "   midi.NoteOffEvent(tick=3, channel=0, data=[49, 0]),\n",
      "   midi.NoteOffEvent(tick=15, channel=0, data=[40, 0]),\n",
      "   midi.NoteOffEvent(tick=1, channel=0, data=[96, 0]),\n",
      "   midi.NoteOnEvent(tick=17, channel=0, data=[50, 99]),\n",
      "   midi.NoteOffEvent(tick=35, channel=0, data=[87, 0]),\n",
      "   midi.NoteOnEvent(tick=4, channel=0, data=[9, 196]),\n",
      "   midi.NoteOnEvent(tick=8, channel=0, data=[97, 143]),\n",
      "   midi.NoteOffEvent(tick=17, channel=0, data=[122, 0]),\n",
      "   midi.NoteOffEvent(tick=10, channel=0, data=[8, 0]),\n",
      "   midi.NoteOnEvent(tick=5, channel=0, data=[17, 179]),\n",
      "   midi.NoteOffEvent(tick=41, channel=0, data=[78, 0]),\n",
      "   midi.NoteOffEvent(tick=28, channel=0, data=[27, 0]),\n",
      "   midi.NoteOnEvent(tick=4, channel=0, data=[12, 112]),\n",
      "   midi.NoteOnEvent(tick=18, channel=0, data=[123, 206]),\n",
      "   midi.NoteOffEvent(tick=33, channel=0, data=[110, 0]),\n",
      "   midi.NoteOffEvent(tick=4, channel=0, data=[9, 0]),\n",
      "   midi.NoteOffEvent(tick=22, channel=0, data=[59, 0]),\n",
      "   midi.NoteOffEvent(tick=16, channel=0, data=[104, 0]),\n",
      "   midi.NoteOffEvent(tick=45, channel=0, data=[126, 0]),\n",
      "   midi.NoteOffEvent(tick=21, channel=0, data=[6, 0]),\n",
      "   midi.NoteOffEvent(tick=18, channel=0, data=[72, 0]),\n",
      "   midi.NoteOffEvent(tick=17, channel=0, data=[12, 0]),\n",
      "   midi.NoteOffEvent(tick=12, channel=0, data=[25, 0]),\n",
      "   midi.NoteOffEvent(tick=9, channel=0, data=[111, 0]),\n",
      "   midi.NoteOffEvent(tick=54, channel=0, data=[64, 0]),\n",
      "   midi.NoteOffEvent(tick=61, channel=0, data=[115, 0]),\n",
      "   midi.NoteOffEvent(tick=17, channel=0, data=[123, 0]),\n",
      "   midi.NoteOffEvent(tick=48, channel=0, data=[94, 0]),\n",
      "   midi.NoteOffEvent(tick=24, channel=0, data=[34, 0]),\n",
      "   midi.NoteOffEvent(tick=49, channel=0, data=[119, 0]),\n",
      "   midi.NoteOffEvent(tick=91, channel=0, data=[47, 0]),\n",
      "   midi.NoteOffEvent(tick=18, channel=0, data=[116, 0]),\n",
      "   midi.NoteOffEvent(tick=4, channel=0, data=[97, 0]),\n",
      "   midi.NoteOffEvent(tick=67, channel=0, data=[17, 0]),\n",
      "   midi.NoteOffEvent(tick=22, channel=0, data=[43, 0]),\n",
      "   midi.NoteOffEvent(tick=4, channel=0, data=[20, 0]),\n",
      "   midi.NoteOffEvent(tick=31, channel=0, data=[50, 0]),\n",
      "   midi.NoteOffEvent(tick=31, channel=0, data=[41, 0]),\n",
      "   midi.EndOfTrackEvent(tick=0, data=[])]),\n",
      " midi.Track(\\\n",
      "  [midi.SetTempoEvent(tick=0, data=[8, 227, 124]),\n",
      "   midi.ProgramChangeEvent(tick=0, channel=0, data=[114]),\n",
      "   midi.NoteOnEvent(tick=50, channel=0, data=[109, 172]),\n",
      "   midi.NoteOnEvent(tick=18, channel=0, data=[121, 132]),\n",
      "   midi.NoteOnEvent(tick=51, channel=0, data=[23, 228]),\n",
      "   midi.NoteOnEvent(tick=7, channel=0, data=[14, 222]),\n",
      "   midi.NoteOnEvent(tick=0, channel=0, data=[104, 244]),\n",
      "   midi.NoteOnEvent(tick=27, channel=0, data=[31, 173]),\n",
      "   midi.NoteOnEvent(tick=13, channel=0, data=[92, 171]),\n",
      "   midi.NoteOnEvent(tick=15, channel=0, data=[100, 177]),\n",
      "   midi.NoteOnEvent(tick=24, channel=0, data=[117, 71]),\n",
      "   midi.NoteOnEvent(tick=3, channel=0, data=[38, 103]),\n",
      "   midi.NoteOnEvent(tick=10, channel=0, data=[93, 234]),\n",
      "   midi.NoteOnEvent(tick=8, channel=0, data=[73, 203]),\n",
      "   midi.NoteOnEvent(tick=2, channel=0, data=[92, 209]),\n",
      "   midi.NoteOnEvent(tick=20, channel=0, data=[89, 157]),\n",
      "   midi.NoteOnEvent(tick=3, channel=0, data=[67, 242]),\n",
      "   midi.NoteOnEvent(tick=6, channel=0, data=[33, 80]),\n",
      "   midi.NoteOffEvent(tick=26, channel=0, data=[38, 0]),\n",
      "   midi.NoteOnEvent(tick=6, channel=0, data=[112, 170]),\n",
      "   midi.NoteOnEvent(tick=4, channel=0, data=[83, 2]),\n",
      "   midi.NoteOffEvent(tick=2, channel=0, data=[92, 0]),\n",
      "   midi.NoteOnEvent(tick=4, channel=0, data=[114, 78]),\n",
      "   midi.NoteOffEvent(tick=19, channel=0, data=[33, 0]),\n",
      "   midi.NoteOffEvent(tick=1, channel=0, data=[23, 0]),\n",
      "   midi.NoteOnEvent(tick=52, channel=0, data=[97, 81]),\n",
      "   midi.NoteOnEvent(tick=31, channel=0, data=[13, 132]),\n",
      "   midi.NoteOnEvent(tick=0, channel=0, data=[5, 178]),\n",
      "   midi.NoteOnEvent(tick=1, channel=0, data=[99, 184]),\n",
      "   midi.NoteOnEvent(tick=12, channel=0, data=[92, 69]),\n",
      "   midi.NoteOnEvent(tick=0, channel=0, data=[61, 215]),\n",
      "   midi.NoteOnEvent(tick=1, channel=0, data=[45, 245]),\n",
      "   midi.NoteOnEvent(tick=5, channel=0, data=[114, 210]),\n",
      "   midi.NoteOnEvent(tick=51, channel=0, data=[24, 196]),\n",
      "   midi.NoteOnEvent(tick=4, channel=0, data=[75, 244]),\n",
      "   midi.NoteOffEvent(tick=2, channel=0, data=[31, 0]),\n",
      "   midi.NoteOnEvent(tick=4, channel=0, data=[95, 29]),\n",
      "   midi.NoteOnEvent(tick=37, channel=0, data=[120, 221]),\n",
      "   midi.NoteOffEvent(tick=13, channel=0, data=[112, 0]),\n",
      "   midi.NoteOnEvent(tick=22, channel=0, data=[109, 13]),\n",
      "   midi.NoteOffEvent(tick=15, channel=0, data=[67, 0]),\n",
      "   midi.NoteOnEvent(tick=2, channel=0, data=[19, 201]),\n",
      "   midi.NoteOnEvent(tick=0, channel=0, data=[100, 173]),\n",
      "   midi.NoteOnEvent(tick=3, channel=0, data=[55, 144]),\n",
      "   midi.NoteOnEvent(tick=0, channel=0, data=[63, 213]),\n",
      "   midi.NoteOnEvent(tick=18, channel=0, data=[44, 130]),\n",
      "   midi.NoteOnEvent(tick=11, channel=0, data=[65, 101]),\n",
      "   midi.NoteOnEvent(tick=2, channel=0, data=[41, 180]),\n",
      "   midi.NoteOnEvent(tick=5, channel=0, data=[114, 6]),\n",
      "   midi.NoteOnEvent(tick=6, channel=0, data=[93, 244]),\n",
      "   midi.NoteOnEvent(tick=22, channel=0, data=[24, 150]),\n",
      "   midi.NoteOnEvent(tick=23, channel=0, data=[125, 207]),\n",
      "   midi.NoteOnEvent(tick=8, channel=0, data=[76, 214]),\n",
      "   midi.NoteOnEvent(tick=16, channel=0, data=[58, 65]),\n",
      "   midi.NoteOnEvent(tick=26, channel=0, data=[89, 202]),\n",
      "   midi.NoteOffEvent(tick=8, channel=0, data=[65, 0]),\n",
      "   midi.NoteOffEvent(tick=6, channel=0, data=[99, 0]),\n",
      "   midi.NoteOnEvent(tick=19, channel=0, data=[61, 143]),\n",
      "   midi.NoteOnEvent(tick=4, channel=0, data=[92, 156]),\n",
      "   midi.NoteOnEvent(tick=4, channel=0, data=[23, 22]),\n",
      "   midi.NoteOffEvent(tick=4, channel=0, data=[24, 0]),\n",
      "   midi.NoteOffEvent(tick=1, channel=0, data=[117, 0]),\n",
      "   midi.NoteOnEvent(tick=3, channel=0, data=[63, 216]),\n",
      "   midi.NoteOffEvent(tick=19, channel=0, data=[121, 0]),\n",
      "   midi.NoteOffEvent(tick=9, channel=0, data=[61, 0]),\n",
      "   midi.NoteOffEvent(tick=6, channel=0, data=[104, 0]),\n",
      "   midi.NoteOnEvent(tick=19, channel=0, data=[16, 157]),\n",
      "   midi.NoteOffEvent(tick=13, channel=0, data=[63, 0]),\n",
      "   midi.NoteOffEvent(tick=17, channel=0, data=[13, 0]),\n",
      "   midi.NoteOffEvent(tick=11, channel=0, data=[75, 0]),\n",
      "   midi.NoteOffEvent(tick=9, channel=0, data=[125, 0]),\n",
      "   midi.NoteOnEvent(tick=0, channel=0, data=[98, 190]),\n",
      "   midi.NoteOffEvent(tick=7, channel=0, data=[83, 0]),\n",
      "   midi.NoteOffEvent(tick=2, channel=0, data=[58, 0]),\n",
      "   midi.NoteOnEvent(tick=0, channel=0, data=[4, 200]),\n",
      "   midi.NoteOnEvent(tick=32, channel=0, data=[24, 52]),\n",
      "   midi.NoteOffEvent(tick=19, channel=0, data=[5, 0]),\n",
      "   midi.NoteOffEvent(tick=5, channel=0, data=[23, 0]),\n",
      "   midi.NoteOffEvent(tick=10, channel=0, data=[95, 0]),\n",
      "   midi.NoteOnEvent(tick=20, channel=0, data=[3, 205]),\n",
      "   midi.NoteOnEvent(tick=0, channel=0, data=[111, 33]),\n",
      "   midi.NoteOnEvent(tick=2, channel=0, data=[1, 143]),\n",
      "   midi.NoteOnEvent(tick=2, channel=0, data=[120, 216]),\n",
      "   midi.NoteOnEvent(tick=10, channel=0, data=[116, 4]),\n",
      "   midi.NoteOffEvent(tick=13, channel=0, data=[73, 0]),\n",
      "   midi.NoteOffEvent(tick=9, channel=0, data=[89, 0]),\n",
      "   midi.NoteOnEvent(tick=4, channel=0, data=[14, 253]),\n",
      "   midi.NoteOffEvent(tick=20, channel=0, data=[98, 0]),\n",
      "   midi.NoteOffEvent(tick=17, channel=0, data=[16, 0]),\n",
      "   midi.NoteOffEvent(tick=4, channel=0, data=[93, 0]),\n",
      "   midi.NoteOffEvent(tick=30, channel=0, data=[100, 0]),\n",
      "   midi.NoteOffEvent(tick=8, channel=0, data=[111, 0]),\n",
      "   midi.NoteOffEvent(tick=56, channel=0, data=[4, 0]),\n",
      "   midi.NoteOffEvent(tick=46, channel=0, data=[92, 0]),\n",
      "   midi.NoteOffEvent(tick=7, channel=0, data=[45, 0]),\n",
      "   midi.NoteOffEvent(tick=14, channel=0, data=[41, 0]),\n",
      "   midi.NoteOffEvent(tick=34, channel=0, data=[114, 0]),\n",
      "   midi.NoteOffEvent(tick=41, channel=0, data=[97, 0]),\n",
      "   midi.NoteOffEvent(tick=61, channel=0, data=[55, 0]),\n",
      "   midi.NoteOffEvent(tick=67, channel=0, data=[3, 0]),\n",
      "   midi.NoteOffEvent(tick=8, channel=0, data=[19, 0]),\n",
      "   midi.NoteOffEvent(tick=25, channel=0, data=[120, 0]),\n",
      "   midi.NoteOffEvent(tick=3, channel=0, data=[76, 0]),\n",
      "   midi.NoteOffEvent(tick=15, channel=0, data=[109, 0]),\n",
      "   midi.NoteOffEvent(tick=33, channel=0, data=[44, 0]),\n",
      "   midi.NoteOffEvent(tick=174, channel=0, data=[1, 0]),\n",
      "   midi.NoteOffEvent(tick=62, channel=0, data=[14, 0]),\n",
      "   midi.NoteOffEvent(tick=5, channel=0, data=[116, 0]),\n",
      "   midi.NoteOffEvent(tick=76, channel=0, data=[24, 0]),\n",
      "   midi.EndOfTrackEvent(tick=0, data=[])]),\n",
      " midi.Track(\\\n",
      "  [midi.SetTempoEvent(tick=0, data=[8, 227, 124]),\n",
      "   midi.ProgramChangeEvent(tick=0, channel=0, data=[115]),\n",
      "   midi.NoteOnEvent(tick=6, channel=0, data=[14, 73]),\n",
      "   midi.NoteOnEvent(tick=1, channel=0, data=[59, 37]),\n",
      "   midi.NoteOnEvent(tick=21, channel=0, data=[82, 248]),\n",
      "   midi.NoteOnEvent(tick=2, channel=0, data=[66, 94]),\n",
      "   midi.NoteOffEvent(tick=9, channel=0, data=[59, 0]),\n",
      "   midi.NoteOnEvent(tick=20, channel=0, data=[99, 140]),\n",
      "   midi.NoteOnEvent(tick=53, channel=0, data=[78, 224]),\n",
      "   midi.NoteOnEvent(tick=14, channel=0, data=[125, 124]),\n",
      "   midi.NoteOnEvent(tick=4, channel=0, data=[95, 84]),\n",
      "   midi.NoteOnEvent(tick=30, channel=0, data=[65, 251]),\n",
      "   midi.NoteOffEvent(tick=13, channel=0, data=[82, 0]),\n",
      "   midi.NoteOnEvent(tick=21, channel=0, data=[105, 38]),\n",
      "   midi.NoteOnEvent(tick=13, channel=0, data=[36, 117]),\n",
      "   midi.NoteOffEvent(tick=23, channel=0, data=[66, 0]),\n",
      "   midi.NoteOnEvent(tick=16, channel=0, data=[54, 26]),\n",
      "   midi.NoteOnEvent(tick=11, channel=0, data=[37, 8]),\n",
      "   midi.NoteOnEvent(tick=8, channel=0, data=[119, 7]),\n",
      "   midi.NoteOnEvent(tick=3, channel=0, data=[45, 70]),\n",
      "   midi.NoteOffEvent(tick=2, channel=0, data=[78, 0]),\n",
      "   midi.NoteOnEvent(tick=29, channel=0, data=[40, 109]),\n",
      "   midi.NoteOnEvent(tick=9, channel=0, data=[47, 52]),\n",
      "   midi.NoteOnEvent(tick=0, channel=0, data=[43, 176]),\n",
      "   midi.NoteOnEvent(tick=14, channel=0, data=[35, 205]),\n",
      "   midi.NoteOffEvent(tick=6, channel=0, data=[40, 0]),\n",
      "   midi.NoteOnEvent(tick=9, channel=0, data=[55, 90]),\n",
      "   midi.NoteOffEvent(tick=1, channel=0, data=[35, 0]),\n",
      "   midi.NoteOnEvent(tick=3, channel=0, data=[1, 15]),\n",
      "   midi.NoteOnEvent(tick=5, channel=0, data=[21, 207]),\n",
      "   midi.NoteOnEvent(tick=4, channel=0, data=[41, 254]),\n",
      "   midi.NoteOnEvent(tick=9, channel=0, data=[4, 46]),\n",
      "   midi.NoteOffEvent(tick=54, channel=0, data=[125, 0]),\n",
      "   midi.NoteOffEvent(tick=7, channel=0, data=[4, 0]),\n",
      "   midi.NoteOnEvent(tick=5, channel=0, data=[104, 165]),\n",
      "   midi.NoteOffEvent(tick=5, channel=0, data=[41, 0]),\n",
      "   midi.NoteOnEvent(tick=8, channel=0, data=[76, 2]),\n",
      "   midi.NoteOffEvent(tick=8, channel=0, data=[21, 0]),\n",
      "   midi.NoteOnEvent(tick=8, channel=0, data=[77, 238]),\n",
      "   midi.NoteOnEvent(tick=3, channel=0, data=[123, 85]),\n",
      "   midi.NoteOnEvent(tick=5, channel=0, data=[69, 20]),\n",
      "   midi.NoteOnEvent(tick=5, channel=0, data=[114, 254]),\n",
      "   midi.NoteOnEvent(tick=5, channel=0, data=[29, 251]),\n",
      "   midi.NoteOnEvent(tick=2, channel=0, data=[73, 129]),\n",
      "   midi.NoteOnEvent(tick=1, channel=0, data=[112, 126]),\n",
      "   midi.NoteOnEvent(tick=1, channel=0, data=[70, 91]),\n",
      "   midi.NoteOnEvent(tick=3, channel=0, data=[28, 184]),\n",
      "   midi.NoteOnEvent(tick=3, channel=0, data=[78, 226]),\n",
      "   midi.NoteOnEvent(tick=1, channel=0, data=[103, 119]),\n",
      "   midi.NoteOnEvent(tick=0, channel=0, data=[59, 198]),\n",
      "   midi.NoteOffEvent(tick=1, channel=0, data=[99, 0]),\n",
      "   midi.NoteOffEvent(tick=1, channel=0, data=[105, 0]),\n",
      "   midi.NoteOffEvent(tick=13, channel=0, data=[69, 0]),\n",
      "   midi.NoteOffEvent(tick=30, channel=0, data=[1, 0]),\n",
      "   midi.NoteOnEvent(tick=18, channel=0, data=[11, 227]),\n",
      "   midi.NoteOffEvent(tick=6, channel=0, data=[29, 0]),\n",
      "   midi.NoteOffEvent(tick=8, channel=0, data=[45, 0]),\n",
      "   midi.NoteOffEvent(tick=52, channel=0, data=[70, 0]),\n",
      "   midi.NoteOnEvent(tick=4, channel=0, data=[77, 66]),\n",
      "   midi.NoteOffEvent(tick=2, channel=0, data=[11, 0]),\n",
      "   midi.NoteOffEvent(tick=3, channel=0, data=[78, 0]),\n",
      "   midi.NoteOnEvent(tick=13, channel=0, data=[64, 27]),\n",
      "   midi.NoteOnEvent(tick=13, channel=0, data=[16, 132]),\n",
      "   midi.NoteOffEvent(tick=6, channel=0, data=[54, 0]),\n",
      "   midi.NoteOffEvent(tick=11, channel=0, data=[119, 0]),\n",
      "   midi.NoteOffEvent(tick=11, channel=0, data=[59, 0]),\n",
      "   midi.NoteOnEvent(tick=2, channel=0, data=[124, 105]),\n",
      "   midi.NoteOnEvent(tick=20, channel=0, data=[71, 125]),\n",
      "   midi.NoteOffEvent(tick=1, channel=0, data=[14, 0]),\n",
      "   midi.NoteOffEvent(tick=7, channel=0, data=[16, 0]),\n",
      "   midi.NoteOnEvent(tick=10, channel=0, data=[67, 23]),\n",
      "   midi.NoteOnEvent(tick=12, channel=0, data=[40, 190]),\n",
      "   midi.NoteOnEvent(tick=6, channel=0, data=[62, 189]),\n",
      "   midi.NoteOnEvent(tick=50, channel=0, data=[65, 89]),\n",
      "   midi.NoteOnEvent(tick=4, channel=0, data=[22, 180]),\n",
      "   midi.NoteOffEvent(tick=14, channel=0, data=[28, 0]),\n",
      "   midi.NoteOnEvent(tick=17, channel=0, data=[65, 143]),\n",
      "   midi.NoteOnEvent(tick=2, channel=0, data=[112, 167]),\n",
      "   midi.NoteOnEvent(tick=6, channel=0, data=[127, 92]),\n",
      "   midi.NoteOffEvent(tick=10, channel=0, data=[124, 0]),\n",
      "   midi.NoteOffEvent(tick=5, channel=0, data=[36, 0]),\n",
      "   midi.NoteOnEvent(tick=1, channel=0, data=[113, 45]),\n",
      "   midi.NoteOffEvent(tick=13, channel=0, data=[43, 0]),\n",
      "   midi.NoteOnEvent(tick=0, channel=0, data=[78, 72]),\n",
      "   midi.NoteOnEvent(tick=22, channel=0, data=[114, 135]),\n",
      "   midi.NoteOnEvent(tick=6, channel=0, data=[9, 23]),\n",
      "   midi.NoteOffEvent(tick=20, channel=0, data=[113, 0]),\n",
      "   midi.NoteOnEvent(tick=4, channel=0, data=[113, 38]),\n",
      "   midi.NoteOffEvent(tick=10, channel=0, data=[47, 0]),\n",
      "   midi.NoteOffEvent(tick=9, channel=0, data=[37, 0]),\n",
      "   midi.NoteOnEvent(tick=6, channel=0, data=[26, 215]),\n",
      "   midi.NoteOffEvent(tick=21, channel=0, data=[76, 0]),\n",
      "   midi.NoteOnEvent(tick=16, channel=0, data=[125, 178]),\n",
      "   midi.NoteOnEvent(tick=3, channel=0, data=[35, 186]),\n",
      "   midi.NoteOffEvent(tick=12, channel=0, data=[26, 0]),\n",
      "   midi.NoteOnEvent(tick=8, channel=0, data=[103, 149]),\n",
      "   midi.NoteOffEvent(tick=39, channel=0, data=[95, 0]),\n",
      "   midi.NoteOffEvent(tick=51, channel=0, data=[127, 0]),\n",
      "   midi.NoteOffEvent(tick=39, channel=0, data=[35, 0]),\n",
      "   midi.NoteOffEvent(tick=29, channel=0, data=[104, 0]),\n",
      "   midi.NoteOffEvent(tick=5, channel=0, data=[77, 0]),\n",
      "   midi.NoteOffEvent(tick=1, channel=0, data=[55, 0]),\n",
      "   midi.NoteOffEvent(tick=109, channel=0, data=[114, 0]),\n",
      "   midi.NoteOffEvent(tick=14, channel=0, data=[64, 0]),\n",
      "   midi.NoteOffEvent(tick=24, channel=0, data=[123, 0]),\n",
      "   midi.NoteOffEvent(tick=28, channel=0, data=[103, 0]),\n",
      "   midi.NoteOffEvent(tick=4, channel=0, data=[73, 0]),\n",
      "   midi.NoteOffEvent(tick=9, channel=0, data=[65, 0]),\n",
      "   midi.NoteOffEvent(tick=4, channel=0, data=[112, 0]),\n",
      "   midi.NoteOffEvent(tick=84, channel=0, data=[78, 0]),\n",
      "   midi.NoteOffEvent(tick=51, channel=0, data=[125, 0]),\n",
      "   midi.NoteOffEvent(tick=25, channel=0, data=[40, 0]),\n",
      "   midi.NoteOffEvent(tick=12, channel=0, data=[67, 0]),\n",
      "   midi.NoteOffEvent(tick=139, channel=0, data=[62, 0]),\n",
      "   midi.NoteOffEvent(tick=36, channel=0, data=[71, 0]),\n",
      "   midi.NoteOffEvent(tick=48, channel=0, data=[22, 0]),\n",
      "   midi.NoteOffEvent(tick=24, channel=0, data=[113, 0]),\n",
      "   midi.NoteOffEvent(tick=54, channel=0, data=[9, 0]),\n",
      "   midi.EndOfTrackEvent(tick=0, data=[])]),\n",
      " midi.Track(\\\n",
      "  [midi.SetTempoEvent(tick=0, data=[8, 227, 124]),\n",
      "   midi.ProgramChangeEvent(tick=0, channel=0, data=[116]),\n",
      "   midi.NoteOnEvent(tick=14, channel=0, data=[111, 108]),\n",
      "   midi.NoteOnEvent(tick=16, channel=0, data=[24, 190]),\n",
      "   midi.NoteOnEvent(tick=100, channel=0, data=[60, 108]),\n",
      "   midi.NoteOnEvent(tick=0, channel=0, data=[21, 214]),\n",
      "   midi.NoteOnEvent(tick=12, channel=0, data=[81, 82]),\n",
      "   midi.NoteOnEvent(tick=1, channel=0, data=[16, 231]),\n",
      "   midi.NoteOnEvent(tick=2, channel=0, data=[75, 36]),\n",
      "   midi.NoteOnEvent(tick=10, channel=0, data=[52, 234]),\n",
      "   midi.NoteOnEvent(tick=0, channel=0, data=[108, 47]),\n",
      "   midi.NoteOnEvent(tick=11, channel=0, data=[119, 154]),\n",
      "   midi.NoteOnEvent(tick=4, channel=0, data=[20, 69]),\n",
      "   midi.NoteOffEvent(tick=16, channel=0, data=[81, 0]),\n",
      "   midi.NoteOnEvent(tick=21, channel=0, data=[66, 167]),\n",
      "   midi.NoteOnEvent(tick=10, channel=0, data=[120, 59]),\n",
      "   midi.NoteOnEvent(tick=9, channel=0, data=[16, 30]),\n",
      "   midi.NoteOnEvent(tick=10, channel=0, data=[71, 57]),\n",
      "   midi.NoteOnEvent(tick=9, channel=0, data=[113, 3]),\n",
      "   midi.NoteOnEvent(tick=1, channel=0, data=[14, 149]),\n",
      "   midi.NoteOnEvent(tick=8, channel=0, data=[86, 216]),\n",
      "   midi.NoteOffEvent(tick=1, channel=0, data=[111, 0]),\n",
      "   midi.NoteOnEvent(tick=10, channel=0, data=[109, 20]),\n",
      "   midi.NoteOffEvent(tick=5, channel=0, data=[71, 0]),\n",
      "   midi.NoteOnEvent(tick=29, channel=0, data=[77, 202]),\n",
      "   midi.NoteOnEvent(tick=14, channel=0, data=[124, 120]),\n",
      "   midi.NoteOnEvent(tick=0, channel=0, data=[17, 2]),\n",
      "   midi.NoteOnEvent(tick=17, channel=0, data=[58, 63]),\n",
      "   midi.NoteOnEvent(tick=2, channel=0, data=[54, 92]),\n",
      "   midi.NoteOnEvent(tick=5, channel=0, data=[108, 199]),\n",
      "   midi.NoteOnEvent(tick=20, channel=0, data=[34, 168]),\n",
      "   midi.NoteOffEvent(tick=9, channel=0, data=[54, 0]),\n",
      "   midi.NoteOnEvent(tick=9, channel=0, data=[34, 207]),\n",
      "   midi.NoteOnEvent(tick=0, channel=0, data=[92, 14]),\n",
      "   midi.NoteOnEvent(tick=87, channel=0, data=[26, 255]),\n",
      "   midi.NoteOffEvent(tick=38, channel=0, data=[124, 0]),\n",
      "   midi.NoteOnEvent(tick=16, channel=0, data=[111, 212]),\n",
      "   midi.NoteOnEvent(tick=14, channel=0, data=[41, 210]),\n",
      "   midi.NoteOnEvent(tick=1, channel=0, data=[3, 79]),\n",
      "   midi.NoteOffEvent(tick=5, channel=0, data=[86, 0]),\n",
      "   midi.NoteOnEvent(tick=18, channel=0, data=[60, 54]),\n",
      "   midi.NoteOnEvent(tick=3, channel=0, data=[127, 99]),\n",
      "   midi.NoteOffEvent(tick=3, channel=0, data=[60, 0]),\n",
      "   midi.NoteOnEvent(tick=8, channel=0, data=[7, 75]),\n",
      "   midi.NoteOnEvent(tick=0, channel=0, data=[71, 44]),\n",
      "   midi.NoteOffEvent(tick=1, channel=0, data=[26, 0]),\n",
      "   midi.NoteOffEvent(tick=0, channel=0, data=[58, 0]),\n",
      "   midi.NoteOnEvent(tick=6, channel=0, data=[103, 203]),\n",
      "   midi.NoteOnEvent(tick=18, channel=0, data=[118, 232]),\n",
      "   midi.NoteOnEvent(tick=3, channel=0, data=[55, 154]),\n",
      "   midi.NoteOffEvent(tick=1, channel=0, data=[14, 0]),\n",
      "   midi.NoteOnEvent(tick=28, channel=0, data=[122, 70]),\n",
      "   midi.NoteOffEvent(tick=37, channel=0, data=[77, 0]),\n",
      "   midi.NoteOffEvent(tick=1, channel=0, data=[20, 0]),\n",
      "   midi.NoteOnEvent(tick=6, channel=0, data=[50, 67]),\n",
      "   midi.NoteOnEvent(tick=8, channel=0, data=[106, 122]),\n",
      "   midi.NoteOnEvent(tick=3, channel=0, data=[42, 166]),\n",
      "   midi.NoteOffEvent(tick=2, channel=0, data=[92, 0]),\n",
      "   midi.NoteOffEvent(tick=3, channel=0, data=[120, 0]),\n",
      "   midi.NoteOnEvent(tick=0, channel=0, data=[30, 222]),\n",
      "   midi.NoteOffEvent(tick=37, channel=0, data=[119, 0]),\n",
      "   midi.NoteOnEvent(tick=17, channel=0, data=[92, 190]),\n",
      "   midi.NoteOnEvent(tick=9, channel=0, data=[57, 174]),\n",
      "   midi.NoteOnEvent(tick=4, channel=0, data=[56, 120]),\n",
      "   midi.NoteOnEvent(tick=7, channel=0, data=[126, 183]),\n",
      "   midi.NoteOnEvent(tick=0, channel=0, data=[94, 131]),\n",
      "   midi.NoteOffEvent(tick=14, channel=0, data=[108, 0]),\n",
      "   midi.NoteOffEvent(tick=7, channel=0, data=[16, 0]),\n",
      "   midi.NoteOffEvent(tick=6, channel=0, data=[127, 0]),\n",
      "   midi.NoteOffEvent(tick=12, channel=0, data=[122, 0]),\n",
      "   midi.NoteOffEvent(tick=9, channel=0, data=[66, 0]),\n",
      "   midi.NoteOnEvent(tick=0, channel=0, data=[16, 200]),\n",
      "   midi.NoteOnEvent(tick=13, channel=0, data=[121, 55]),\n",
      "   midi.NoteOnEvent(tick=55, channel=0, data=[43, 170]),\n",
      "   midi.NoteOffEvent(tick=4, channel=0, data=[106, 0]),\n",
      "   midi.NoteOffEvent(tick=5, channel=0, data=[75, 0]),\n",
      "   midi.NoteOffEvent(tick=18, channel=0, data=[34, 0]),\n",
      "   midi.NoteOffEvent(tick=3, channel=0, data=[41, 0]),\n",
      "   midi.NoteOnEvent(tick=16, channel=0, data=[28, 37]),\n",
      "   midi.NoteOnEvent(tick=0, channel=0, data=[80, 1]),\n",
      "   midi.NoteOnEvent(tick=11, channel=0, data=[81, 199]),\n",
      "   midi.NoteOffEvent(tick=19, channel=0, data=[92, 0]),\n",
      "   midi.NoteOffEvent(tick=5, channel=0, data=[21, 0]),\n",
      "   midi.NoteOnEvent(tick=5, channel=0, data=[116, 170]),\n",
      "   midi.NoteOnEvent(tick=4, channel=0, data=[122, 42]),\n",
      "   midi.NoteOffEvent(tick=5, channel=0, data=[52, 0]),\n",
      "   midi.NoteOffEvent(tick=9, channel=0, data=[55, 0]),\n",
      "   midi.NoteOffEvent(tick=4, channel=0, data=[116, 0]),\n",
      "   midi.NoteOnEvent(tick=9, channel=0, data=[40, 92]),\n",
      "   midi.NoteOnEvent(tick=6, channel=0, data=[116, 78]),\n",
      "   midi.NoteOffEvent(tick=7, channel=0, data=[24, 0]),\n",
      "   midi.NoteOffEvent(tick=9, channel=0, data=[71, 0]),\n",
      "   midi.NoteOffEvent(tick=29, channel=0, data=[113, 0]),\n",
      "   midi.NoteOffEvent(tick=27, channel=0, data=[50, 0]),\n",
      "   midi.NoteOffEvent(tick=29, channel=0, data=[116, 0]),\n",
      "   midi.NoteOffEvent(tick=6, channel=0, data=[111, 0]),\n",
      "   midi.NoteOffEvent(tick=41, channel=0, data=[109, 0]),\n",
      "   midi.NoteOffEvent(tick=11, channel=0, data=[30, 0]),\n",
      "   midi.NoteOffEvent(tick=5, channel=0, data=[17, 0]),\n",
      "   midi.NoteOffEvent(tick=25, channel=0, data=[3, 0]),\n",
      "   midi.NoteOffEvent(tick=50, channel=0, data=[42, 0]),\n",
      "   midi.NoteOffEvent(tick=47, channel=0, data=[118, 0]),\n",
      "   midi.NoteOffEvent(tick=31, channel=0, data=[126, 0]),\n",
      "   midi.NoteOffEvent(tick=26, channel=0, data=[81, 0]),\n",
      "   midi.NoteOffEvent(tick=15, channel=0, data=[121, 0]),\n",
      "   midi.NoteOffEvent(tick=54, channel=0, data=[43, 0]),\n",
      "   midi.NoteOffEvent(tick=24, channel=0, data=[7, 0]),\n",
      "   midi.NoteOffEvent(tick=23, channel=0, data=[57, 0]),\n",
      "   midi.NoteOffEvent(tick=6, channel=0, data=[103, 0]),\n",
      "   midi.NoteOffEvent(tick=21, channel=0, data=[94, 0]),\n",
      "   midi.NoteOffEvent(tick=6, channel=0, data=[40, 0]),\n",
      "   midi.NoteOffEvent(tick=137, channel=0, data=[56, 0]),\n",
      "   midi.NoteOffEvent(tick=39, channel=0, data=[80, 0]),\n",
      "   midi.NoteOffEvent(tick=70, channel=0, data=[16, 0]),\n",
      "   midi.NoteOffEvent(tick=33, channel=0, data=[122, 0]),\n",
      "   midi.NoteOffEvent(tick=127, channel=0, data=[28, 0]),\n",
      "   midi.EndOfTrackEvent(tick=0, data=[])]),\n",
      " midi.Track(\\\n",
      "  [midi.SetTempoEvent(tick=0, data=[8, 227, 124]),\n",
      "   midi.ProgramChangeEvent(tick=0, channel=0, data=[117]),\n",
      "   midi.NoteOnEvent(tick=8, channel=0, data=[69, 129]),\n",
      "   midi.NoteOnEvent(tick=0, channel=0, data=[79, 219]),\n",
      "   midi.NoteOnEvent(tick=8, channel=0, data=[26, 170]),\n",
      "   midi.NoteOnEvent(tick=8, channel=0, data=[65, 235]),\n",
      "   midi.NoteOnEvent(tick=11, channel=0, data=[98, 189]),\n",
      "   midi.NoteOnEvent(tick=12, channel=0, data=[78, 8]),\n",
      "   midi.NoteOnEvent(tick=3, channel=0, data=[107, 197]),\n",
      "   midi.NoteOnEvent(tick=19, channel=0, data=[126, 177]),\n",
      "   midi.NoteOnEvent(tick=25, channel=0, data=[30, 7]),\n",
      "   midi.NoteOnEvent(tick=16, channel=0, data=[25, 190]),\n",
      "   midi.NoteOnEvent(tick=2, channel=0, data=[106, 130]),\n",
      "   midi.NoteOnEvent(tick=10, channel=0, data=[73, 161]),\n",
      "   midi.NoteOnEvent(tick=0, channel=0, data=[91, 105]),\n",
      "   midi.NoteOffEvent(tick=4, channel=0, data=[25, 0]),\n",
      "   midi.NoteOnEvent(tick=3, channel=0, data=[82, 212]),\n",
      "   midi.NoteOffEvent(tick=40, channel=0, data=[98, 0]),\n",
      "   midi.NoteOnEvent(tick=14, channel=0, data=[113, 95]),\n",
      "   midi.NoteOnEvent(tick=3, channel=0, data=[16, 253]),\n",
      "   midi.NoteOnEvent(tick=11, channel=0, data=[87, 139]),\n",
      "   midi.NoteOnEvent(tick=35, channel=0, data=[32, 8]),\n",
      "   midi.NoteOnEvent(tick=29, channel=0, data=[120, 125]),\n",
      "   midi.NoteOffEvent(tick=1, channel=0, data=[65, 0]),\n",
      "   midi.NoteOnEvent(tick=7, channel=0, data=[9, 111]),\n",
      "   midi.NoteOnEvent(tick=4, channel=0, data=[107, 91]),\n",
      "   midi.NoteOnEvent(tick=39, channel=0, data=[107, 19]),\n",
      "   midi.NoteOffEvent(tick=2, channel=0, data=[78, 0]),\n",
      "   midi.NoteOnEvent(tick=7, channel=0, data=[20, 209]),\n",
      "   midi.NoteOffEvent(tick=15, channel=0, data=[79, 0]),\n",
      "   midi.NoteOnEvent(tick=36, channel=0, data=[1, 74]),\n",
      "   midi.NoteOnEvent(tick=11, channel=0, data=[81, 30]),\n",
      "   midi.NoteOffEvent(tick=19, channel=0, data=[30, 0]),\n",
      "   midi.NoteOffEvent(tick=2, channel=0, data=[120, 0]),\n",
      "   midi.NoteOffEvent(tick=3, channel=0, data=[16, 0]),\n",
      "   midi.NoteOnEvent(tick=3, channel=0, data=[88, 127]),\n",
      "   midi.NoteOnEvent(tick=28, channel=0, data=[30, 253]),\n",
      "   midi.NoteOnEvent(tick=3, channel=0, data=[90, 190]),\n",
      "   midi.NoteOnEvent(tick=33, channel=0, data=[6, 234]),\n",
      "   midi.NoteOffEvent(tick=8, channel=0, data=[26, 0]),\n",
      "   midi.NoteOnEvent(tick=6, channel=0, data=[22, 78]),\n",
      "   midi.NoteOffEvent(tick=28, channel=0, data=[82, 0]),\n",
      "   midi.NoteOnEvent(tick=15, channel=0, data=[21, 89]),\n",
      "   midi.NoteOnEvent(tick=16, channel=0, data=[63, 249]),\n",
      "   midi.NoteOnEvent(tick=7, channel=0, data=[85, 70]),\n",
      "   midi.NoteOnEvent(tick=0, channel=0, data=[101, 22]),\n",
      "   midi.NoteOnEvent(tick=3, channel=0, data=[79, 46]),\n",
      "   midi.NoteOnEvent(tick=3, channel=0, data=[13, 222]),\n",
      "   midi.NoteOnEvent(tick=1, channel=0, data=[97, 85]),\n",
      "   midi.NoteOffEvent(tick=8, channel=0, data=[107, 0]),\n",
      "   midi.NoteOnEvent(tick=2, channel=0, data=[4, 193]),\n",
      "   midi.NoteOnEvent(tick=10, channel=0, data=[99, 119]),\n",
      "   midi.NoteOnEvent(tick=9, channel=0, data=[49, 11]),\n",
      "   midi.NoteOnEvent(tick=1, channel=0, data=[117, 189]),\n",
      "   midi.NoteOnEvent(tick=0, channel=0, data=[10, 233]),\n",
      "   midi.NoteOnEvent(tick=2, channel=0, data=[104, 205]),\n",
      "   midi.NoteOffEvent(tick=8, channel=0, data=[99, 0]),\n",
      "   midi.NoteOffEvent(tick=21, channel=0, data=[30, 0]),\n",
      "   midi.NoteOnEvent(tick=8, channel=0, data=[30, 70]),\n",
      "   midi.NoteOffEvent(tick=4, channel=0, data=[106, 0]),\n",
      "   midi.NoteOnEvent(tick=1, channel=0, data=[35, 131]),\n",
      "   midi.NoteOffEvent(tick=20, channel=0, data=[9, 0]),\n",
      "   midi.NoteOnEvent(tick=7, channel=0, data=[58, 123]),\n",
      "   midi.NoteOffEvent(tick=4, channel=0, data=[97, 0]),\n",
      "   midi.NoteOnEvent(tick=3, channel=0, data=[12, 236]),\n",
      "   midi.NoteOffEvent(tick=3, channel=0, data=[35, 0]),\n",
      "   midi.NoteOnEvent(tick=3, channel=0, data=[18, 21]),\n",
      "   midi.NoteOffEvent(tick=10, channel=0, data=[6, 0]),\n",
      "   midi.NoteOffEvent(tick=14, channel=0, data=[13, 0]),\n",
      "   midi.NoteOffEvent(tick=6, channel=0, data=[126, 0]),\n",
      "   midi.NoteOffEvent(tick=25, channel=0, data=[69, 0]),\n",
      "   midi.NoteOnEvent(tick=22, channel=0, data=[99, 197]),\n",
      "   midi.NoteOnEvent(tick=7, channel=0, data=[121, 104]),\n",
      "   midi.NoteOffEvent(tick=2, channel=0, data=[73, 0]),\n",
      "   midi.NoteOnEvent(tick=1, channel=0, data=[37, 248]),\n",
      "   midi.NoteOnEvent(tick=1, channel=0, data=[69, 30]),\n",
      "   midi.NoteOnEvent(tick=33, channel=0, data=[96, 149]),\n",
      "   midi.NoteOnEvent(tick=22, channel=0, data=[109, 46]),\n",
      "   midi.NoteOnEvent(tick=7, channel=0, data=[2, 132]),\n",
      "   midi.NoteOffEvent(tick=3, channel=0, data=[81, 0]),\n",
      "   midi.NoteOffEvent(tick=12, channel=0, data=[87, 0]),\n",
      "   midi.NoteOnEvent(tick=15, channel=0, data=[56, 214]),\n",
      "   midi.NoteOffEvent(tick=2, channel=0, data=[58, 0]),\n",
      "   midi.NoteOffEvent(tick=16, channel=0, data=[4, 0]),\n",
      "   midi.NoteOnEvent(tick=3, channel=0, data=[11, 100]),\n",
      "   midi.NoteOffEvent(tick=2, channel=0, data=[1, 0]),\n",
      "   midi.NoteOffEvent(tick=2, channel=0, data=[121, 0]),\n",
      "   midi.NoteOnEvent(tick=7, channel=0, data=[30, 203]),\n",
      "   midi.NoteOffEvent(tick=10, channel=0, data=[88, 0]),\n",
      "   midi.NoteOnEvent(tick=16, channel=0, data=[51, 57]),\n",
      "   midi.NoteOffEvent(tick=2, channel=0, data=[113, 0]),\n",
      "   midi.NoteOffEvent(tick=13, channel=0, data=[91, 0]),\n",
      "   midi.NoteOnEvent(tick=10, channel=0, data=[116, 104]),\n",
      "   midi.NoteOnEvent(tick=12, channel=0, data=[64, 134]),\n",
      "   midi.NoteOffEvent(tick=13, channel=0, data=[49, 0]),\n",
      "   midi.NoteOnEvent(tick=9, channel=0, data=[47, 70]),\n",
      "   midi.NoteOffEvent(tick=1, channel=0, data=[79, 0]),\n",
      "   midi.NoteOffEvent(tick=3, channel=0, data=[11, 0]),\n",
      "   midi.NoteOffEvent(tick=36, channel=0, data=[96, 0]),\n",
      "   midi.NoteOffEvent(tick=34, channel=0, data=[109, 0]),\n",
      "   midi.NoteOffEvent(tick=11, channel=0, data=[90, 0]),\n",
      "   midi.NoteOffEvent(tick=36, channel=0, data=[32, 0]),\n",
      "   midi.NoteOffEvent(tick=30, channel=0, data=[22, 0]),\n",
      "   midi.NoteOffEvent(tick=36, channel=0, data=[47, 0]),\n",
      "   midi.NoteOffEvent(tick=40, channel=0, data=[20, 0]),\n",
      "   midi.NoteOffEvent(tick=74, channel=0, data=[104, 0]),\n",
      "   midi.NoteOffEvent(tick=15, channel=0, data=[63, 0]),\n",
      "   midi.NoteOffEvent(tick=3, channel=0, data=[64, 0]),\n",
      "   midi.NoteOffEvent(tick=6, channel=0, data=[117, 0]),\n",
      "   midi.NoteOffEvent(tick=15, channel=0, data=[21, 0]),\n",
      "   midi.NoteOffEvent(tick=15, channel=0, data=[30, 0]),\n",
      "   midi.NoteOffEvent(tick=5, channel=0, data=[69, 0]),\n",
      "   midi.NoteOffEvent(tick=13, channel=0, data=[2, 0]),\n",
      "   midi.NoteOffEvent(tick=0, channel=0, data=[101, 0]),\n",
      "   midi.NoteOffEvent(tick=7, channel=0, data=[99, 0]),\n",
      "   midi.NoteOffEvent(tick=62, channel=0, data=[85, 0]),\n",
      "   midi.NoteOffEvent(tick=16, channel=0, data=[18, 0]),\n",
      "   midi.NoteOffEvent(tick=6, channel=0, data=[10, 0]),\n",
      "   midi.NoteOffEvent(tick=104, channel=0, data=[12, 0]),\n",
      "   midi.NoteOffEvent(tick=38, channel=0, data=[37, 0]),\n",
      "   midi.NoteOffEvent(tick=15, channel=0, data=[56, 0]),\n",
      "   midi.NoteOffEvent(tick=91, channel=0, data=[51, 0]),\n",
      "   midi.NoteOffEvent(tick=88, channel=0, data=[116, 0]),\n",
      "   midi.EndOfTrackEvent(tick=0, data=[])]),\n",
      " midi.Track(\\\n",
      "  [midi.SetTempoEvent(tick=0, data=[8, 227, 124]),\n",
      "   midi.ProgramChangeEvent(tick=0, channel=0, data=[118]),\n",
      "   midi.NoteOnEvent(tick=4, channel=0, data=[7, 141]),\n",
      "   midi.NoteOnEvent(tick=12, channel=0, data=[113, 227]),\n",
      "   midi.NoteOnEvent(tick=19, channel=0, data=[55, 162]),\n",
      "   midi.NoteOnEvent(tick=18, channel=0, data=[19, 89]),\n",
      "   midi.NoteOnEvent(tick=1, channel=0, data=[67, 121]),\n",
      "   midi.NoteOnEvent(tick=15, channel=0, data=[122, 228]),\n",
      "   midi.NoteOnEvent(tick=25, channel=0, data=[24, 141]),\n",
      "   midi.NoteOnEvent(tick=18, channel=0, data=[34, 145]),\n",
      "   midi.NoteOnEvent(tick=2, channel=0, data=[94, 218]),\n",
      "   midi.NoteOnEvent(tick=7, channel=0, data=[97, 236]),\n",
      "   midi.NoteOnEvent(tick=3, channel=0, data=[55, 245]),\n",
      "   midi.NoteOnEvent(tick=10, channel=0, data=[24, 227]),\n",
      "   midi.NoteOnEvent(tick=4, channel=0, data=[20, 152]),\n",
      "   midi.NoteOnEvent(tick=4, channel=0, data=[6, 7]),\n",
      "   midi.NoteOnEvent(tick=2, channel=0, data=[36, 103]),\n",
      "   midi.NoteOnEvent(tick=47, channel=0, data=[47, 152]),\n",
      "   midi.NoteOnEvent(tick=12, channel=0, data=[91, 241]),\n",
      "   midi.NoteOnEvent(tick=6, channel=0, data=[77, 27]),\n",
      "   midi.NoteOnEvent(tick=8, channel=0, data=[31, 148]),\n",
      "   midi.NoteOnEvent(tick=5, channel=0, data=[96, 178]),\n",
      "   midi.NoteOnEvent(tick=4, channel=0, data=[120, 70]),\n",
      "   midi.NoteOnEvent(tick=6, channel=0, data=[51, 182]),\n",
      "   midi.NoteOnEvent(tick=4, channel=0, data=[111, 90]),\n",
      "   midi.NoteOnEvent(tick=18, channel=0, data=[58, 183]),\n",
      "   midi.NoteOnEvent(tick=0, channel=0, data=[43, 3]),\n",
      "   midi.NoteOnEvent(tick=14, channel=0, data=[47, 12]),\n",
      "   midi.NoteOnEvent(tick=1, channel=0, data=[87, 185]),\n",
      "   midi.NoteOffEvent(tick=20, channel=0, data=[47, 0]),\n",
      "   midi.NoteOnEvent(tick=10, channel=0, data=[1, 185]),\n",
      "   midi.NoteOffEvent(tick=2, channel=0, data=[67, 0]),\n",
      "   midi.NoteOnEvent(tick=8, channel=0, data=[100, 245]),\n",
      "   midi.NoteOffEvent(tick=10, channel=0, data=[97, 0]),\n",
      "   midi.NoteOffEvent(tick=13, channel=0, data=[7, 0]),\n",
      "   midi.NoteOnEvent(tick=0, channel=0, data=[64, 157]),\n",
      "   midi.NoteOffEvent(tick=14, channel=0, data=[87, 0]),\n",
      "   midi.NoteOnEvent(tick=3, channel=0, data=[13, 36]),\n",
      "   midi.NoteOffEvent(tick=10, channel=0, data=[24, 0]),\n",
      "   midi.NoteOnEvent(tick=37, channel=0, data=[36, 53]),\n",
      "   midi.NoteOnEvent(tick=2, channel=0, data=[122, 12]),\n",
      "   midi.NoteOffEvent(tick=20, channel=0, data=[34, 0]),\n",
      "   midi.NoteOnEvent(tick=7, channel=0, data=[72, 65]),\n",
      "   midi.NoteOffEvent(tick=23, channel=0, data=[55, 0]),\n",
      "   midi.NoteOnEvent(tick=14, channel=0, data=[32, 58]),\n",
      "   midi.NoteOffEvent(tick=17, channel=0, data=[94, 0]),\n",
      "   midi.NoteOnEvent(tick=14, channel=0, data=[83, 203]),\n",
      "   midi.NoteOnEvent(tick=22, channel=0, data=[70, 175]),\n",
      "   midi.NoteOnEvent(tick=20, channel=0, data=[66, 13]),\n",
      "   midi.NoteOffEvent(tick=11, channel=0, data=[19, 0]),\n",
      "   midi.NoteOnEvent(tick=14, channel=0, data=[60, 178]),\n",
      "   midi.NoteOnEvent(tick=1, channel=0, data=[59, 60]),\n",
      "   midi.NoteOffEvent(tick=10, channel=0, data=[96, 0]),\n",
      "   midi.NoteOffEvent(tick=8, channel=0, data=[36, 0]),\n",
      "   midi.NoteOnEvent(tick=14, channel=0, data=[88, 173]),\n",
      "   midi.NoteOffEvent(tick=2, channel=0, data=[6, 0]),\n",
      "   midi.NoteOffEvent(tick=0, channel=0, data=[100, 0]),\n",
      "   midi.NoteOnEvent(tick=10, channel=0, data=[40, 15]),\n",
      "   midi.NoteOnEvent(tick=11, channel=0, data=[100, 111]),\n",
      "   midi.NoteOnEvent(tick=18, channel=0, data=[126, 230]),\n",
      "   midi.NoteOffEvent(tick=3, channel=0, data=[113, 0]),\n",
      "   midi.NoteOnEvent(tick=10, channel=0, data=[2, 54]),\n",
      "   midi.NoteOffEvent(tick=14, channel=0, data=[111, 0]),\n",
      "   midi.NoteOnEvent(tick=4, channel=0, data=[57, 105]),\n",
      "   midi.NoteOnEvent(tick=1, channel=0, data=[19, 159]),\n",
      "   midi.NoteOffEvent(tick=12, channel=0, data=[20, 0]),\n",
      "   midi.NoteOffEvent(tick=21, channel=0, data=[19, 0]),\n",
      "   midi.NoteOnEvent(tick=5, channel=0, data=[79, 42]),\n",
      "   midi.NoteOffEvent(tick=6, channel=0, data=[66, 0]),\n",
      "   midi.NoteOffEvent(tick=26, channel=0, data=[83, 0]),\n",
      "   midi.NoteOnEvent(tick=3, channel=0, data=[114, 142]),\n",
      "   midi.NoteOffEvent(tick=7, channel=0, data=[43, 0]),\n",
      "   midi.NoteOnEvent(tick=7, channel=0, data=[125, 165]),\n",
      "   midi.NoteOffEvent(tick=6, channel=0, data=[13, 0]),\n",
      "   midi.NoteOffEvent(tick=1, channel=0, data=[59, 0]),\n",
      "   midi.NoteOnEvent(tick=3, channel=0, data=[73, 166]),\n",
      "   midi.NoteOnEvent(tick=1, channel=0, data=[79, 127]),\n",
      "   midi.NoteOffEvent(tick=9, channel=0, data=[1, 0]),\n",
      "   midi.NoteOffEvent(tick=25, channel=0, data=[73, 0]),\n",
      "   midi.NoteOffEvent(tick=8, channel=0, data=[57, 0]),\n",
      "   midi.NoteOnEvent(tick=2, channel=0, data=[30, 191]),\n",
      "   midi.NoteOnEvent(tick=6, channel=0, data=[49, 76]),\n",
      "   midi.NoteOnEvent(tick=12, channel=0, data=[124, 145]),\n",
      "   midi.NoteOnEvent(tick=5, channel=0, data=[65, 55]),\n",
      "   midi.NoteOffEvent(tick=11, channel=0, data=[32, 0]),\n",
      "   midi.NoteOnEvent(tick=16, channel=0, data=[65, 8]),\n",
      "   midi.NoteOffEvent(tick=7, channel=0, data=[124, 0]),\n",
      "   midi.NoteOnEvent(tick=12, channel=0, data=[68, 180]),\n",
      "   midi.NoteOnEvent(tick=10, channel=0, data=[112, 62]),\n",
      "   midi.NoteOnEvent(tick=0, channel=0, data=[17, 245]),\n",
      "   midi.NoteOnEvent(tick=17, channel=0, data=[124, 164]),\n",
      "   midi.NoteOffEvent(tick=3, channel=0, data=[31, 0]),\n",
      "   midi.NoteOffEvent(tick=6, channel=0, data=[2, 0]),\n",
      "   midi.NoteOffEvent(tick=7, channel=0, data=[126, 0]),\n",
      "   midi.NoteOnEvent(tick=1, channel=0, data=[96, 114]),\n",
      "   midi.NoteOnEvent(tick=11, channel=0, data=[59, 7]),\n",
      "   midi.NoteOffEvent(tick=2, channel=0, data=[79, 0]),\n",
      "   midi.NoteOnEvent(tick=4, channel=0, data=[28, 206]),\n",
      "   midi.NoteOnEvent(tick=4, channel=0, data=[126, 244]),\n",
      "   midi.NoteOffEvent(tick=41, channel=0, data=[72, 0]),\n",
      "   midi.NoteOffEvent(tick=33, channel=0, data=[49, 0]),\n",
      "   midi.NoteOffEvent(tick=9, channel=0, data=[51, 0]),\n",
      "   midi.NoteOffEvent(tick=33, channel=0, data=[88, 0]),\n",
      "   midi.NoteOffEvent(tick=23, channel=0, data=[64, 0]),\n",
      "   midi.NoteOffEvent(tick=6, channel=0, data=[28, 0]),\n",
      "   midi.NoteOffEvent(tick=0, channel=0, data=[65, 0]),\n",
      "   midi.NoteOffEvent(tick=53, channel=0, data=[77, 0]),\n",
      "   midi.NoteOffEvent(tick=1, channel=0, data=[58, 0]),\n",
      "   midi.NoteOffEvent(tick=6, channel=0, data=[70, 0]),\n",
      "   midi.NoteOffEvent(tick=13, channel=0, data=[60, 0]),\n",
      "   midi.NoteOffEvent(tick=0, channel=0, data=[120, 0]),\n",
      "   midi.NoteOffEvent(tick=31, channel=0, data=[91, 0]),\n",
      "   midi.NoteOffEvent(tick=4, channel=0, data=[122, 0]),\n",
      "   midi.NoteOffEvent(tick=7, channel=0, data=[30, 0]),\n",
      "   midi.NoteOffEvent(tick=102, channel=0, data=[59, 0]),\n",
      "   midi.NoteOffEvent(tick=41, channel=0, data=[100, 0]),\n",
      "   midi.NoteOffEvent(tick=4, channel=0, data=[125, 0]),\n",
      "   midi.NoteOffEvent(tick=22, channel=0, data=[112, 0]),\n",
      "   midi.NoteOffEvent(tick=3, channel=0, data=[17, 0]),\n",
      "   midi.NoteOffEvent(tick=40, channel=0, data=[124, 0]),\n",
      "   midi.NoteOffEvent(tick=68, channel=0, data=[68, 0]),\n",
      "   midi.NoteOffEvent(tick=24, channel=0, data=[114, 0]),\n",
      "   midi.NoteOffEvent(tick=30, channel=0, data=[96, 0]),\n",
      "   midi.NoteOffEvent(tick=21, channel=0, data=[40, 0]),\n",
      "   midi.NoteOffEvent(tick=336, channel=0, data=[126, 0]),\n",
      "   midi.EndOfTrackEvent(tick=0, data=[])]),\n",
      " midi.Track(\\\n",
      "  [midi.SetTempoEvent(tick=0, data=[8, 227, 124]),\n",
      "   midi.ProgramChangeEvent(tick=0, channel=0, data=[119]),\n",
      "   midi.NoteOnEvent(tick=28, channel=0, data=[36, 60]),\n",
      "   midi.NoteOnEvent(tick=19, channel=0, data=[86, 239]),\n",
      "   midi.NoteOffEvent(tick=3, channel=0, data=[36, 0]),\n",
      "   midi.NoteOnEvent(tick=9, channel=0, data=[40, 156]),\n",
      "   midi.NoteOnEvent(tick=9, channel=0, data=[66, 35]),\n",
      "   midi.NoteOnEvent(tick=29, channel=0, data=[17, 224]),\n",
      "   midi.NoteOnEvent(tick=13, channel=0, data=[105, 71]),\n",
      "   midi.NoteOnEvent(tick=11, channel=0, data=[71, 47]),\n",
      "   midi.NoteOffEvent(tick=18, channel=0, data=[66, 0]),\n",
      "   midi.NoteOnEvent(tick=7, channel=0, data=[2, 96]),\n",
      "   midi.NoteOffEvent(tick=5, channel=0, data=[71, 0]),\n",
      "   midi.NoteOnEvent(tick=8, channel=0, data=[58, 168]),\n",
      "   midi.NoteOffEvent(tick=12, channel=0, data=[58, 0]),\n",
      "   midi.NoteOnEvent(tick=5, channel=0, data=[101, 232]),\n",
      "   midi.NoteOnEvent(tick=10, channel=0, data=[109, 195]),\n",
      "   midi.NoteOnEvent(tick=5, channel=0, data=[123, 83]),\n",
      "   midi.NoteOnEvent(tick=6, channel=0, data=[110, 65]),\n",
      "   midi.NoteOnEvent(tick=31, channel=0, data=[95, 208]),\n",
      "   midi.NoteOnEvent(tick=8, channel=0, data=[94, 104]),\n",
      "   midi.NoteOnEvent(tick=1, channel=0, data=[77, 51]),\n",
      "   midi.NoteOnEvent(tick=53, channel=0, data=[83, 178]),\n",
      "   midi.NoteOnEvent(tick=9, channel=0, data=[49, 42]),\n",
      "   midi.NoteOffEvent(tick=1, channel=0, data=[123, 0]),\n",
      "   midi.NoteOnEvent(tick=1, channel=0, data=[9, 221]),\n",
      "   midi.NoteOnEvent(tick=21, channel=0, data=[90, 107]),\n",
      "   midi.NoteOnEvent(tick=15, channel=0, data=[14, 38]),\n",
      "   midi.NoteOnEvent(tick=4, channel=0, data=[100, 149]),\n",
      "   midi.NoteOnEvent(tick=30, channel=0, data=[62, 235]),\n",
      "   midi.NoteOffEvent(tick=7, channel=0, data=[86, 0]),\n",
      "   midi.NoteOffEvent(tick=17, channel=0, data=[9, 0]),\n",
      "   midi.NoteOnEvent(tick=15, channel=0, data=[56, 146]),\n",
      "   midi.NoteOnEvent(tick=11, channel=0, data=[21, 131]),\n",
      "   midi.NoteOffEvent(tick=5, channel=0, data=[109, 0]),\n",
      "   midi.NoteOnEvent(tick=12, channel=0, data=[71, 9]),\n",
      "   midi.NoteOffEvent(tick=3, channel=0, data=[94, 0]),\n",
      "   midi.NoteOnEvent(tick=10, channel=0, data=[118, 42]),\n",
      "   midi.NoteOnEvent(tick=11, channel=0, data=[30, 48]),\n",
      "   midi.NoteOnEvent(tick=12, channel=0, data=[121, 126]),\n",
      "   midi.NoteOnEvent(tick=5, channel=0, data=[125, 155]),\n",
      "   midi.NoteOnEvent(tick=4, channel=0, data=[44, 207]),\n",
      "   midi.NoteOnEvent(tick=0, channel=0, data=[68, 20]),\n",
      "   midi.NoteOnEvent(tick=13, channel=0, data=[18, 191]),\n",
      "   midi.NoteOffEvent(tick=2, channel=0, data=[18, 0]),\n",
      "   midi.NoteOnEvent(tick=17, channel=0, data=[54, 237]),\n",
      "   midi.NoteOnEvent(tick=3, channel=0, data=[41, 54]),\n",
      "   midi.NoteOffEvent(tick=4, channel=0, data=[110, 0]),\n",
      "   midi.NoteOnEvent(tick=16, channel=0, data=[73, 71]),\n",
      "   midi.NoteOffEvent(tick=3, channel=0, data=[2, 0]),\n",
      "   midi.NoteOffEvent(tick=5, channel=0, data=[54, 0]),\n",
      "   midi.NoteOnEvent(tick=8, channel=0, data=[38, 0]),\n",
      "   midi.NoteOnEvent(tick=17, channel=0, data=[50, 4]),\n",
      "   midi.NoteOnEvent(tick=0, channel=0, data=[70, 125]),\n",
      "   midi.NoteOnEvent(tick=1, channel=0, data=[63, 168]),\n",
      "   midi.NoteOnEvent(tick=2, channel=0, data=[22, 86]),\n",
      "   midi.NoteOffEvent(tick=12, channel=0, data=[49, 0]),\n",
      "   midi.NoteOnEvent(tick=7, channel=0, data=[57, 27]),\n",
      "   midi.NoteOnEvent(tick=12, channel=0, data=[93, 2]),\n",
      "   midi.NoteOnEvent(tick=0, channel=0, data=[48, 69]),\n",
      "   midi.NoteOffEvent(tick=4, channel=0, data=[125, 0]),\n",
      "   midi.NoteOffEvent(tick=58, channel=0, data=[71, 0]),\n",
      "   midi.NoteOffEvent(tick=8, channel=0, data=[101, 0]),\n",
      "   midi.NoteOffEvent(tick=4, channel=0, data=[90, 0]),\n",
      "   midi.NoteOnEvent(tick=6, channel=0, data=[32, 217]),\n",
      "   midi.NoteOnEvent(tick=7, channel=0, data=[81, 135]),\n",
      "   midi.NoteOnEvent(tick=27, channel=0, data=[27, 40]),\n",
      "   midi.NoteOnEvent(tick=0, channel=0, data=[88, 89]),\n",
      "   midi.NoteOnEvent(tick=18, channel=0, data=[85, 23]),\n",
      "   midi.NoteOffEvent(tick=1, channel=0, data=[40, 0]),\n",
      "   midi.NoteOnEvent(tick=14, channel=0, data=[118, 138]),\n",
      "   midi.NoteOnEvent(tick=1, channel=0, data=[65, 214]),\n",
      "   midi.NoteOnEvent(tick=7, channel=0, data=[40, 126]),\n",
      "   midi.NoteOnEvent(tick=1, channel=0, data=[76, 154]),\n",
      "   midi.NoteOnEvent(tick=1, channel=0, data=[89, 198]),\n",
      "   midi.NoteOffEvent(tick=8, channel=0, data=[68, 0]),\n",
      "   midi.NoteOnEvent(tick=2, channel=0, data=[106, 209]),\n",
      "   midi.NoteOffEvent(tick=8, channel=0, data=[95, 0]),\n",
      "   midi.NoteOffEvent(tick=9, channel=0, data=[40, 0]),\n",
      "   midi.NoteOnEvent(tick=25, channel=0, data=[46, 164]),\n",
      "   midi.NoteOffEvent(tick=3, channel=0, data=[38, 0]),\n",
      "   midi.NoteOffEvent(tick=31, channel=0, data=[88, 0]),\n",
      "   midi.NoteOffEvent(tick=28, channel=0, data=[118, 0]),\n",
      "   midi.NoteOnEvent(tick=1, channel=0, data=[125, 18]),\n",
      "   midi.NoteOnEvent(tick=0, channel=0, data=[12, 221]),\n",
      "   midi.NoteOnEvent(tick=13, channel=0, data=[84, 218]),\n",
      "   midi.NoteOffEvent(tick=15, channel=0, data=[17, 0]),\n",
      "   midi.NoteOffEvent(tick=23, channel=0, data=[100, 0]),\n",
      "   midi.NoteOffEvent(tick=13, channel=0, data=[83, 0]),\n",
      "   midi.NoteOffEvent(tick=6, channel=0, data=[70, 0]),\n",
      "   midi.NoteOffEvent(tick=6, channel=0, data=[21, 0]),\n",
      "   midi.NoteOffEvent(tick=4, channel=0, data=[22, 0]),\n",
      "   midi.NoteOnEvent(tick=12, channel=0, data=[67, 151]),\n",
      "   midi.NoteOffEvent(tick=6, channel=0, data=[105, 0]),\n",
      "   midi.NoteOffEvent(tick=1, channel=0, data=[81, 0]),\n",
      "   midi.NoteOffEvent(tick=103, channel=0, data=[27, 0]),\n",
      "   midi.NoteOffEvent(tick=1, channel=0, data=[85, 0]),\n",
      "   midi.NoteOffEvent(tick=17, channel=0, data=[77, 0]),\n",
      "   midi.NoteOffEvent(tick=6, channel=0, data=[62, 0]),\n",
      "   midi.NoteOffEvent(tick=75, channel=0, data=[89, 0]),\n",
      "   midi.NoteOffEvent(tick=20, channel=0, data=[44, 0]),\n",
      "   midi.NoteOffEvent(tick=5, channel=0, data=[63, 0]),\n",
      "   midi.NoteOffEvent(tick=17, channel=0, data=[73, 0]),\n",
      "   midi.NoteOffEvent(tick=8, channel=0, data=[84, 0]),\n",
      "   midi.NoteOffEvent(tick=57, channel=0, data=[32, 0]),\n",
      "   midi.NoteOffEvent(tick=5, channel=0, data=[14, 0]),\n",
      "   midi.NoteOffEvent(tick=25, channel=0, data=[56, 0]),\n",
      "   midi.NoteOffEvent(tick=26, channel=0, data=[65, 0]),\n",
      "   midi.NoteOffEvent(tick=16, channel=0, data=[41, 0]),\n",
      "   midi.NoteOffEvent(tick=8, channel=0, data=[48, 0]),\n",
      "   midi.NoteOffEvent(tick=13, channel=0, data=[50, 0]),\n",
      "   midi.NoteOffEvent(tick=35, channel=0, data=[76, 0]),\n",
      "   midi.NoteOffEvent(tick=22, channel=0, data=[30, 0]),\n",
      "   midi.NoteOffEvent(tick=5, channel=0, data=[121, 0]),\n",
      "   midi.NoteOffEvent(tick=16, channel=0, data=[125, 0]),\n",
      "   midi.NoteOffEvent(tick=50, channel=0, data=[57, 0]),\n",
      "   midi.NoteOffEvent(tick=19, channel=0, data=[46, 0]),\n",
      "   midi.NoteOffEvent(tick=15, channel=0, data=[93, 0]),\n",
      "   midi.NoteOffEvent(tick=15, channel=0, data=[106, 0]),\n",
      "   midi.NoteOffEvent(tick=85, channel=0, data=[67, 0]),\n",
      "   midi.NoteOffEvent(tick=199, channel=0, data=[12, 0]),\n",
      "   midi.EndOfTrackEvent(tick=0, data=[])]),\n",
      " midi.Track(\\\n",
      "  [midi.SetTempoEvent(tick=0, data=[8, 227, 124]),\n",
      "   midi.ProgramChangeEvent(tick=0, channel=0, data=[120]),\n",
      "   midi.NoteOnEvent(tick=11, channel=0, data=[69, 232]),\n",
      "   midi.NoteOnEvent(tick=41, channel=0, data=[31, 44]),\n",
      "   midi.NoteOnEvent(tick=2, channel=0, data=[61, 44]),\n",
      "   midi.NoteOnEvent(tick=15, channel=0, data=[113, 112]),\n",
      "   midi.NoteOnEvent(tick=14, channel=0, data=[25, 235]),\n",
      "   midi.NoteOnEvent(tick=34, channel=0, data=[24, 194]),\n",
      "   midi.NoteOnEvent(tick=17, channel=0, data=[11, 91]),\n",
      "   midi.NoteOnEvent(tick=12, channel=0, data=[72, 111]),\n",
      "   midi.NoteOffEvent(tick=1, channel=0, data=[72, 0]),\n",
      "   midi.NoteOnEvent(tick=36, channel=0, data=[115, 140]),\n",
      "   midi.NoteOnEvent(tick=17, channel=0, data=[87, 234]),\n",
      "   midi.NoteOffEvent(tick=7, channel=0, data=[24, 0]),\n",
      "   midi.NoteOnEvent(tick=19, channel=0, data=[70, 225]),\n",
      "   midi.NoteOnEvent(tick=0, channel=0, data=[69, 24]),\n",
      "   midi.NoteOffEvent(tick=5, channel=0, data=[25, 0]),\n",
      "   midi.NoteOnEvent(tick=17, channel=0, data=[123, 9]),\n",
      "   midi.NoteOnEvent(tick=6, channel=0, data=[59, 0]),\n",
      "   midi.NoteOnEvent(tick=0, channel=0, data=[69, 72]),\n",
      "   midi.NoteOnEvent(tick=14, channel=0, data=[71, 74]),\n",
      "   midi.NoteOnEvent(tick=1, channel=0, data=[83, 205]),\n",
      "   midi.NoteOffEvent(tick=10, channel=0, data=[69, 0]),\n",
      "   midi.NoteOffEvent(tick=35, channel=0, data=[83, 0]),\n",
      "   midi.NoteOnEvent(tick=31, channel=0, data=[76, 53]),\n",
      "   midi.NoteOnEvent(tick=4, channel=0, data=[89, 199]),\n",
      "   midi.NoteOnEvent(tick=4, channel=0, data=[76, 251]),\n",
      "   midi.NoteOnEvent(tick=1, channel=0, data=[49, 194]),\n",
      "   midi.NoteOnEvent(tick=18, channel=0, data=[38, 33]),\n",
      "   midi.NoteOffEvent(tick=12, channel=0, data=[76, 0]),\n",
      "   midi.NoteOffEvent(tick=4, channel=0, data=[38, 0]),\n",
      "   midi.NoteOnEvent(tick=28, channel=0, data=[42, 146]),\n",
      "   midi.NoteOnEvent(tick=35, channel=0, data=[42, 204]),\n",
      "   midi.NoteOnEvent(tick=22, channel=0, data=[26, 80]),\n",
      "   midi.NoteOnEvent(tick=1, channel=0, data=[58, 209]),\n",
      "   midi.NoteOnEvent(tick=14, channel=0, data=[68, 29]),\n",
      "   midi.NoteOnEvent(tick=1, channel=0, data=[106, 253]),\n",
      "   midi.NoteOnEvent(tick=11, channel=0, data=[50, 23]),\n",
      "   midi.NoteOnEvent(tick=15, channel=0, data=[94, 178]),\n",
      "   midi.NoteOffEvent(tick=2, channel=0, data=[115, 0]),\n",
      "   midi.NoteOnEvent(tick=1, channel=0, data=[4, 22]),\n",
      "   midi.NoteOnEvent(tick=1, channel=0, data=[101, 250]),\n",
      "   midi.NoteOnEvent(tick=3, channel=0, data=[36, 122]),\n",
      "   midi.NoteOnEvent(tick=0, channel=0, data=[56, 81]),\n",
      "   midi.NoteOnEvent(tick=8, channel=0, data=[91, 176]),\n",
      "   midi.NoteOnEvent(tick=22, channel=0, data=[114, 10]),\n",
      "   midi.NoteOnEvent(tick=2, channel=0, data=[82, 167]),\n",
      "   midi.NoteOffEvent(tick=2, channel=0, data=[68, 0]),\n",
      "   midi.NoteOnEvent(tick=0, channel=0, data=[27, 205]),\n",
      "   midi.NoteOnEvent(tick=4, channel=0, data=[31, 70]),\n",
      "   midi.NoteOffEvent(tick=16, channel=0, data=[94, 0]),\n",
      "   midi.NoteOnEvent(tick=15, channel=0, data=[125, 98]),\n",
      "   midi.NoteOnEvent(tick=27, channel=0, data=[0, 122]),\n",
      "   midi.NoteOnEvent(tick=0, channel=0, data=[73, 188]),\n",
      "   midi.NoteOnEvent(tick=1, channel=0, data=[122, 8]),\n",
      "   midi.NoteOffEvent(tick=7, channel=0, data=[61, 0]),\n",
      "   midi.NoteOnEvent(tick=4, channel=0, data=[69, 227]),\n",
      "   midi.NoteOffEvent(tick=2, channel=0, data=[123, 0]),\n",
      "   midi.NoteOffEvent(tick=14, channel=0, data=[11, 0]),\n",
      "   midi.NoteOnEvent(tick=4, channel=0, data=[34, 164]),\n",
      "   midi.NoteOnEvent(tick=3, channel=0, data=[39, 135]),\n",
      "   midi.NoteOnEvent(tick=4, channel=0, data=[22, 108]),\n",
      "   midi.NoteOnEvent(tick=3, channel=0, data=[2, 93]),\n",
      "   midi.NoteOnEvent(tick=53, channel=0, data=[37, 227]),\n",
      "   midi.NoteOnEvent(tick=14, channel=0, data=[4, 59]),\n",
      "   midi.NoteOffEvent(tick=8, channel=0, data=[89, 0]),\n",
      "   midi.NoteOffEvent(tick=1, channel=0, data=[22, 0]),\n",
      "   midi.NoteOnEvent(tick=3, channel=0, data=[62, 131]),\n",
      "   midi.NoteOnEvent(tick=2, channel=0, data=[91, 239]),\n",
      "   midi.NoteOnEvent(tick=14, channel=0, data=[85, 105]),\n",
      "   midi.NoteOffEvent(tick=12, channel=0, data=[59, 0]),\n",
      "   midi.NoteOnEvent(tick=10, channel=0, data=[42, 80]),\n",
      "   midi.NoteOnEvent(tick=2, channel=0, data=[50, 63]),\n",
      "   midi.NoteOnEvent(tick=8, channel=0, data=[30, 60]),\n",
      "   midi.NoteOffEvent(tick=20, channel=0, data=[37, 0]),\n",
      "   midi.NoteOnEvent(tick=0, channel=0, data=[110, 85]),\n",
      "   midi.NoteOffEvent(tick=6, channel=0, data=[50, 0]),\n",
      "   midi.NoteOnEvent(tick=0, channel=0, data=[104, 196]),\n",
      "   midi.NoteOnEvent(tick=6, channel=0, data=[2, 89]),\n",
      "   midi.NoteOnEvent(tick=1, channel=0, data=[28, 42]),\n",
      "   midi.NoteOnEvent(tick=0, channel=0, data=[84, 27]),\n",
      "   midi.NoteOffEvent(tick=6, channel=0, data=[30, 0]),\n",
      "   midi.NoteOffEvent(tick=2, channel=0, data=[73, 0]),\n",
      "   midi.NoteOffEvent(tick=14, channel=0, data=[70, 0]),\n",
      "   midi.NoteOffEvent(tick=10, channel=0, data=[113, 0]),\n",
      "   midi.NoteOnEvent(tick=3, channel=0, data=[75, 200]),\n",
      "   midi.NoteOffEvent(tick=11, channel=0, data=[104, 0]),\n",
      "   midi.NoteOffEvent(tick=3, channel=0, data=[49, 0]),\n",
      "   midi.NoteOffEvent(tick=2, channel=0, data=[2, 0]),\n",
      "   midi.NoteOnEvent(tick=5, channel=0, data=[122, 228]),\n",
      "   midi.NoteOffEvent(tick=13, channel=0, data=[56, 0]),\n",
      "   midi.NoteOffEvent(tick=25, channel=0, data=[87, 0]),\n",
      "   midi.NoteOnEvent(tick=11, channel=0, data=[87, 248]),\n",
      "   midi.NoteOnEvent(tick=0, channel=0, data=[16, 170]),\n",
      "   midi.NoteOnEvent(tick=6, channel=0, data=[58, 201]),\n",
      "   midi.NoteOnEvent(tick=1, channel=0, data=[47, 227]),\n",
      "   midi.NoteOnEvent(tick=7, channel=0, data=[19, 68]),\n",
      "   midi.NoteOffEvent(tick=24, channel=0, data=[34, 0]),\n",
      "   midi.NoteOnEvent(tick=9, channel=0, data=[105, 12]),\n",
      "   midi.NoteOnEvent(tick=7, channel=0, data=[6, 239]),\n",
      "   midi.NoteOffEvent(tick=16, channel=0, data=[69, 0]),\n",
      "   midi.NoteOffEvent(tick=18, channel=0, data=[101, 0]),\n",
      "   midi.NoteOffEvent(tick=4, channel=0, data=[58, 0]),\n",
      "   midi.NoteOffEvent(tick=21, channel=0, data=[82, 0]),\n",
      "   midi.NoteOffEvent(tick=9, channel=0, data=[84, 0]),\n",
      "   midi.NoteOffEvent(tick=76, channel=0, data=[36, 0]),\n",
      "   midi.NoteOffEvent(tick=18, channel=0, data=[122, 0]),\n",
      "   midi.NoteOffEvent(tick=18, channel=0, data=[26, 0]),\n",
      "   midi.NoteOffEvent(tick=1, channel=0, data=[106, 0]),\n",
      "   midi.NoteOffEvent(tick=12, channel=0, data=[71, 0]),\n",
      "   midi.NoteOffEvent(tick=20, channel=0, data=[0, 0]),\n",
      "   midi.NoteOffEvent(tick=31, channel=0, data=[19, 0]),\n",
      "   midi.NoteOffEvent(tick=3, channel=0, data=[87, 0]),\n",
      "   midi.NoteOffEvent(tick=4, channel=0, data=[47, 0]),\n",
      "   midi.NoteOffEvent(tick=10, channel=0, data=[6, 0]),\n",
      "   midi.NoteOffEvent(tick=0, channel=0, data=[125, 0]),\n",
      "   midi.NoteOffEvent(tick=87, channel=0, data=[62, 0]),\n",
      "   midi.NoteOffEvent(tick=37, channel=0, data=[91, 0]),\n",
      "   midi.NoteOffEvent(tick=20, channel=0, data=[114, 0]),\n",
      "   midi.NoteOffEvent(tick=6, channel=0, data=[16, 0]),\n",
      "   midi.NoteOffEvent(tick=90, channel=0, data=[4, 0]),\n",
      "   midi.NoteOffEvent(tick=17, channel=0, data=[31, 0]),\n",
      "   midi.NoteOffEvent(tick=35, channel=0, data=[27, 0]),\n",
      "   midi.NoteOffEvent(tick=102, channel=0, data=[39, 0]),\n",
      "   midi.NoteOffEvent(tick=15, channel=0, data=[75, 0]),\n",
      "   midi.NoteOffEvent(tick=65, channel=0, data=[28, 0]),\n",
      "   midi.NoteOffEvent(tick=4, channel=0, data=[85, 0]),\n",
      "   midi.NoteOffEvent(tick=41, channel=0, data=[110, 0]),\n",
      "   midi.NoteOffEvent(tick=7, channel=0, data=[42, 0]),\n",
      "   midi.NoteOffEvent(tick=101, channel=0, data=[105, 0]),\n",
      "   midi.EndOfTrackEvent(tick=0, data=[])]),\n",
      " midi.Track(\\\n",
      "  [midi.SetTempoEvent(tick=0, data=[8, 227, 124]),\n",
      "   midi.ProgramChangeEvent(tick=0, channel=0, data=[121]),\n",
      "   midi.NoteOnEvent(tick=6, channel=0, data=[98, 87]),\n",
      "   midi.NoteOnEvent(tick=0, channel=0, data=[5, 55]),\n",
      "   midi.NoteOnEvent(tick=5, channel=0, data=[76, 73]),\n",
      "   midi.NoteOnEvent(tick=36, channel=0, data=[84, 34]),\n",
      "   midi.NoteOnEvent(tick=21, channel=0, data=[85, 4]),\n",
      "   midi.NoteOnEvent(tick=1, channel=0, data=[15, 154]),\n",
      "   midi.NoteOnEvent(tick=30, channel=0, data=[87, 50]),\n",
      "   midi.NoteOnEvent(tick=0, channel=0, data=[89, 52]),\n",
      "   midi.NoteOnEvent(tick=13, channel=0, data=[77, 47]),\n",
      "   midi.NoteOnEvent(tick=0, channel=0, data=[9, 60]),\n",
      "   midi.NoteOnEvent(tick=2, channel=0, data=[120, 12]),\n",
      "   midi.NoteOnEvent(tick=3, channel=0, data=[13, 99]),\n",
      "   midi.NoteOnEvent(tick=6, channel=0, data=[59, 216]),\n",
      "   midi.NoteOffEvent(tick=2, channel=0, data=[98, 0]),\n",
      "   midi.NoteOnEvent(tick=5, channel=0, data=[115, 99]),\n",
      "   midi.NoteOnEvent(tick=10, channel=0, data=[112, 174]),\n",
      "   midi.NoteOffEvent(tick=8, channel=0, data=[89, 0]),\n",
      "   midi.NoteOffEvent(tick=4, channel=0, data=[9, 0]),\n",
      "   midi.NoteOnEvent(tick=1, channel=0, data=[100, 175]),\n",
      "   midi.NoteOnEvent(tick=2, channel=0, data=[67, 255]),\n",
      "   midi.NoteOnEvent(tick=11, channel=0, data=[56, 210]),\n",
      "   midi.NoteOnEvent(tick=17, channel=0, data=[114, 248]),\n",
      "   midi.NoteOnEvent(tick=0, channel=0, data=[43, 78]),\n",
      "   midi.NoteOnEvent(tick=14, channel=0, data=[32, 138]),\n",
      "   midi.NoteOnEvent(tick=6, channel=0, data=[125, 249]),\n",
      "   midi.NoteOnEvent(tick=15, channel=0, data=[53, 35]),\n",
      "   midi.NoteOnEvent(tick=4, channel=0, data=[45, 231]),\n",
      "   midi.NoteOnEvent(tick=9, channel=0, data=[102, 57]),\n",
      "   midi.NoteOnEvent(tick=14, channel=0, data=[63, 193]),\n",
      "   midi.NoteOnEvent(tick=9, channel=0, data=[126, 119]),\n",
      "   midi.NoteOnEvent(tick=2, channel=0, data=[55, 176]),\n",
      "   midi.NoteOnEvent(tick=5, channel=0, data=[120, 183]),\n",
      "   midi.NoteOnEvent(tick=4, channel=0, data=[37, 22]),\n",
      "   midi.NoteOffEvent(tick=21, channel=0, data=[114, 0]),\n",
      "   midi.NoteOffEvent(tick=11, channel=0, data=[115, 0]),\n",
      "   midi.NoteOnEvent(tick=21, channel=0, data=[94, 115]),\n",
      "   midi.NoteOnEvent(tick=14, channel=0, data=[40, 179]),\n",
      "   midi.NoteOffEvent(tick=2, channel=0, data=[15, 0]),\n",
      "   midi.NoteOnEvent(tick=2, channel=0, data=[62, 92]),\n",
      "   midi.NoteOnEvent(tick=5, channel=0, data=[101, 67]),\n",
      "   midi.NoteOffEvent(tick=3, channel=0, data=[87, 0]),\n",
      "   midi.NoteOffEvent(tick=3, channel=0, data=[67, 0]),\n",
      "   midi.NoteOnEvent(tick=6, channel=0, data=[18, 78]),\n",
      "   midi.NoteOnEvent(tick=4, channel=0, data=[60, 121]),\n",
      "   midi.NoteOffEvent(tick=11, channel=0, data=[101, 0]),\n",
      "   midi.NoteOffEvent(tick=20, channel=0, data=[120, 0]),\n",
      "   midi.NoteOffEvent(tick=6, channel=0, data=[126, 0]),\n",
      "   midi.NoteOffEvent(tick=5, channel=0, data=[102, 0]),\n",
      "   midi.NoteOnEvent(tick=17, channel=0, data=[52, 249]),\n",
      "   midi.NoteOnEvent(tick=9, channel=0, data=[82, 185]),\n",
      "   midi.NoteOnEvent(tick=46, channel=0, data=[33, 146]),\n",
      "   midi.NoteOnEvent(tick=3, channel=0, data=[40, 94]),\n",
      "   midi.NoteOnEvent(tick=5, channel=0, data=[91, 99]),\n",
      "   midi.NoteOffEvent(tick=4, channel=0, data=[91, 0]),\n",
      "   midi.NoteOnEvent(tick=0, channel=0, data=[22, 249]),\n",
      "   midi.NoteOnEvent(tick=0, channel=0, data=[20, 152]),\n",
      "   midi.NoteOnEvent(tick=6, channel=0, data=[110, 7]),\n",
      "   midi.NoteOnEvent(tick=7, channel=0, data=[117, 44]),\n",
      "   midi.NoteOffEvent(tick=18, channel=0, data=[62, 0]),\n",
      "   midi.NoteOnEvent(tick=2, channel=0, data=[46, 185]),\n",
      "   midi.NoteOnEvent(tick=3, channel=0, data=[41, 116]),\n",
      "   midi.NoteOffEvent(tick=1, channel=0, data=[46, 0]),\n",
      "   midi.NoteOffEvent(tick=13, channel=0, data=[100, 0]),\n",
      "   midi.NoteOnEvent(tick=2, channel=0, data=[32, 2]),\n",
      "   midi.NoteOnEvent(tick=18, channel=0, data=[53, 119]),\n",
      "   midi.NoteOnEvent(tick=2, channel=0, data=[2, 77]),\n",
      "   midi.NoteOffEvent(tick=1, channel=0, data=[125, 0]),\n",
      "   midi.NoteOnEvent(tick=0, channel=0, data=[28, 95]),\n",
      "   midi.NoteOffEvent(tick=12, channel=0, data=[13, 0]),\n",
      "   midi.NoteOnEvent(tick=0, channel=0, data=[111, 160]),\n",
      "   midi.NoteOffEvent(tick=4, channel=0, data=[112, 0]),\n",
      "   midi.NoteOffEvent(tick=5, channel=0, data=[2, 0]),\n",
      "   midi.NoteOnEvent(tick=16, channel=0, data=[59, 251]),\n",
      "   midi.NoteOnEvent(tick=0, channel=0, data=[94, 178]),\n",
      "   midi.NoteOnEvent(tick=23, channel=0, data=[14, 27]),\n",
      "   midi.NoteOnEvent(tick=3, channel=0, data=[0, 151]),\n",
      "   midi.NoteOnEvent(tick=2, channel=0, data=[70, 59]),\n",
      "   midi.NoteOnEvent(tick=5, channel=0, data=[12, 240]),\n",
      "   midi.NoteOnEvent(tick=6, channel=0, data=[104, 235]),\n",
      "   midi.NoteOnEvent(tick=0, channel=0, data=[34, 168]),\n",
      "   midi.NoteOnEvent(tick=19, channel=0, data=[86, 75]),\n",
      "   midi.NoteOnEvent(tick=6, channel=0, data=[51, 57]),\n",
      "   midi.NoteOffEvent(tick=18, channel=0, data=[94, 0]),\n",
      "   midi.NoteOffEvent(tick=8, channel=0, data=[12, 0]),\n",
      "   midi.NoteOffEvent(tick=0, channel=0, data=[76, 0]),\n",
      "   midi.NoteOnEvent(tick=2, channel=0, data=[6, 201]),\n",
      "   midi.NoteOnEvent(tick=0, channel=0, data=[37, 68]),\n",
      "   midi.NoteOffEvent(tick=5, channel=0, data=[110, 0]),\n",
      "   midi.NoteOnEvent(tick=25, channel=0, data=[114, 12]),\n",
      "   midi.NoteOnEvent(tick=24, channel=0, data=[26, 64]),\n",
      "   midi.NoteOffEvent(tick=8, channel=0, data=[111, 0]),\n",
      "   midi.NoteOffEvent(tick=1, channel=0, data=[34, 0]),\n",
      "   midi.NoteOnEvent(tick=2, channel=0, data=[78, 193]),\n",
      "   midi.NoteOffEvent(tick=5, channel=0, data=[45, 0]),\n",
      "   midi.NoteOffEvent(tick=5, channel=0, data=[82, 0]),\n",
      "   midi.NoteOnEvent(tick=23, channel=0, data=[45, 230]),\n",
      "   midi.NoteOnEvent(tick=6, channel=0, data=[88, 92]),\n",
      "   midi.NoteOffEvent(tick=15, channel=0, data=[5, 0]),\n",
      "   midi.NoteOffEvent(tick=1, channel=0, data=[20, 0]),\n",
      "   midi.NoteOffEvent(tick=3, channel=0, data=[37, 0]),\n",
      "   midi.NoteOnEvent(tick=6, channel=0, data=[122, 153]),\n",
      "   midi.NoteOffEvent(tick=18, channel=0, data=[85, 0]),\n",
      "   midi.NoteOnEvent(tick=22, channel=0, data=[3, 6]),\n",
      "   midi.NoteOnEvent(tick=1, channel=0, data=[12, 245]),\n",
      "   midi.NoteOnEvent(tick=3, channel=0, data=[94, 167]),\n",
      "   midi.NoteOnEvent(tick=0, channel=0, data=[60, 162]),\n",
      "   midi.NoteOffEvent(tick=14, channel=0, data=[45, 0]),\n",
      "   midi.NoteOnEvent(tick=11, channel=0, data=[74, 6]),\n",
      "   midi.NoteOffEvent(tick=25, channel=0, data=[53, 0]),\n",
      "   midi.NoteOffEvent(tick=3, channel=0, data=[32, 0]),\n",
      "   midi.NoteOffEvent(tick=19, channel=0, data=[74, 0]),\n",
      "   midi.NoteOnEvent(tick=1, channel=0, data=[58, 212]),\n",
      "   midi.NoteOffEvent(tick=12, channel=0, data=[60, 0]),\n",
      "   midi.NoteOffEvent(tick=2, channel=0, data=[41, 0]),\n",
      "   midi.NoteOffEvent(tick=3, channel=0, data=[33, 0]),\n",
      "   midi.NoteOffEvent(tick=6, channel=0, data=[63, 0]),\n",
      "   midi.NoteOnEvent(tick=15, channel=0, data=[79, 51]),\n",
      "   midi.NoteOnEvent(tick=0, channel=0, data=[81, 123]),\n",
      "   midi.NoteOffEvent(tick=8, channel=0, data=[78, 0]),\n",
      "   midi.NoteOnEvent(tick=0, channel=0, data=[96, 76]),\n",
      "   midi.NoteOffEvent(tick=2, channel=0, data=[14, 0]),\n",
      "   midi.NoteOffEvent(tick=1, channel=0, data=[77, 0]),\n",
      "   midi.NoteOffEvent(tick=3, channel=0, data=[84, 0]),\n",
      "   midi.NoteOnEvent(tick=4, channel=0, data=[16, 26]),\n",
      "   midi.NoteOnEvent(tick=0, channel=0, data=[53, 116]),\n",
      "   midi.NoteOnEvent(tick=4, channel=0, data=[111, 141]),\n",
      "   midi.NoteOnEvent(tick=8, channel=0, data=[107, 186]),\n",
      "   midi.NoteOffEvent(tick=9, channel=0, data=[79, 0]),\n",
      "   midi.NoteOffEvent(tick=4, channel=0, data=[70, 0]),\n",
      "   midi.NoteOffEvent(tick=11, channel=0, data=[12, 0]),\n",
      "   midi.NoteOffEvent(tick=26, channel=0, data=[114, 0]),\n",
      "   midi.NoteOffEvent(tick=15, channel=0, data=[111, 0]),\n",
      "   midi.NoteOffEvent(tick=15, channel=0, data=[104, 0]),\n",
      "   midi.NoteOffEvent(tick=30, channel=0, data=[117, 0]),\n",
      "   midi.NoteOffEvent(tick=7, channel=0, data=[55, 0]),\n",
      "   midi.NoteOffEvent(tick=1, channel=0, data=[43, 0]),\n",
      "   midi.NoteOffEvent(tick=3, channel=0, data=[94, 0]),\n",
      "   midi.NoteOffEvent(tick=5, channel=0, data=[28, 0]),\n",
      "   midi.NoteOffEvent(tick=17, channel=0, data=[107, 0]),\n",
      "   midi.NoteOffEvent(tick=6, channel=0, data=[96, 0]),\n",
      "   midi.NoteOffEvent(tick=6, channel=0, data=[59, 0]),\n",
      "   midi.NoteOffEvent(tick=1, channel=0, data=[56, 0]),\n",
      "   midi.NoteOffEvent(tick=73, channel=0, data=[18, 0]),\n",
      "   midi.NoteOffEvent(tick=28, channel=0, data=[88, 0]),\n",
      "   midi.NoteOffEvent(tick=11, channel=0, data=[26, 0]),\n",
      "   midi.NoteOffEvent(tick=34, channel=0, data=[122, 0]),\n",
      "   midi.NoteOffEvent(tick=31, channel=0, data=[52, 0]),\n",
      "   midi.NoteOffEvent(tick=51, channel=0, data=[86, 0]),\n",
      "   midi.NoteOffEvent(tick=5, channel=0, data=[40, 0]),\n",
      "   midi.NoteOffEvent(tick=21, channel=0, data=[6, 0]),\n",
      "   midi.NoteOffEvent(tick=36, channel=0, data=[0, 0]),\n",
      "   midi.NoteOffEvent(tick=51, channel=0, data=[51, 0]),\n",
      "   midi.NoteOffEvent(tick=181, channel=0, data=[3, 0]),\n",
      "   midi.NoteOffEvent(tick=64, channel=0, data=[58, 0]),\n",
      "   midi.NoteOffEvent(tick=57, channel=0, data=[53, 0]),\n",
      "   midi.NoteOffEvent(tick=88, channel=0, data=[16, 0]),\n",
      "   midi.NoteOffEvent(tick=31, channel=0, data=[81, 0]),\n",
      "   midi.EndOfTrackEvent(tick=0, data=[])]),\n",
      " midi.Track(\\\n",
      "  [midi.SetTempoEvent(tick=0, data=[8, 227, 124]),\n",
      "   midi.ProgramChangeEvent(tick=0, channel=0, data=[122]),\n",
      "   midi.NoteOnEvent(tick=3, channel=0, data=[98, 33]),\n",
      "   midi.NoteOnEvent(tick=3, channel=0, data=[54, 158]),\n",
      "   midi.NoteOnEvent(tick=2, channel=0, data=[70, 228]),\n",
      "   midi.NoteOnEvent(tick=5, channel=0, data=[104, 133]),\n",
      "   midi.NoteOnEvent(tick=19, channel=0, data=[102, 188]),\n",
      "   midi.NoteOnEvent(tick=15, channel=0, data=[110, 43]),\n",
      "   midi.NoteOnEvent(tick=7, channel=0, data=[117, 170]),\n",
      "   midi.NoteOnEvent(tick=9, channel=0, data=[58, 30]),\n",
      "   midi.NoteOnEvent(tick=5, channel=0, data=[32, 253]),\n",
      "   midi.NoteOnEvent(tick=1, channel=0, data=[43, 98]),\n",
      "   midi.NoteOnEvent(tick=25, channel=0, data=[67, 206]),\n",
      "   midi.NoteOnEvent(tick=0, channel=0, data=[47, 56]),\n",
      "   midi.NoteOffEvent(tick=7, channel=0, data=[110, 0]),\n",
      "   midi.NoteOnEvent(tick=21, channel=0, data=[64, 177]),\n",
      "   midi.NoteOnEvent(tick=0, channel=0, data=[2, 137]),\n",
      "   midi.NoteOnEvent(tick=1, channel=0, data=[118, 42]),\n",
      "   midi.NoteOnEvent(tick=7, channel=0, data=[55, 11]),\n",
      "   midi.NoteOffEvent(tick=5, channel=0, data=[47, 0]),\n",
      "   midi.NoteOnEvent(tick=3, channel=0, data=[94, 45]),\n",
      "   midi.NoteOnEvent(tick=4, channel=0, data=[14, 212]),\n",
      "   midi.NoteOnEvent(tick=11, channel=0, data=[119, 198]),\n",
      "   midi.NoteOffEvent(tick=16, channel=0, data=[117, 0]),\n",
      "   midi.NoteOnEvent(tick=38, channel=0, data=[53, 195]),\n",
      "   midi.NoteOnEvent(tick=11, channel=0, data=[76, 145]),\n",
      "   midi.NoteOffEvent(tick=6, channel=0, data=[64, 0]),\n",
      "   midi.NoteOnEvent(tick=11, channel=0, data=[75, 129]),\n",
      "   midi.NoteOnEvent(tick=1, channel=0, data=[35, 111]),\n",
      "   midi.NoteOnEvent(tick=5, channel=0, data=[6, 56]),\n",
      "   midi.NoteOnEvent(tick=10, channel=0, data=[90, 200]),\n",
      "   midi.NoteOnEvent(tick=17, channel=0, data=[17, 26]),\n",
      "   midi.NoteOffEvent(tick=16, channel=0, data=[67, 0]),\n",
      "   midi.NoteOffEvent(tick=3, channel=0, data=[119, 0]),\n",
      "   midi.NoteOnEvent(tick=6, channel=0, data=[27, 51]),\n",
      "   midi.NoteOnEvent(tick=19, channel=0, data=[73, 189]),\n",
      "   midi.NoteOnEvent(tick=9, channel=0, data=[14, 130]),\n",
      "   midi.NoteOffEvent(tick=11, channel=0, data=[14, 0]),\n",
      "   midi.NoteOnEvent(tick=13, channel=0, data=[34, 245]),\n",
      "   midi.NoteOnEvent(tick=8, channel=0, data=[74, 178]),\n",
      "   midi.NoteOffEvent(tick=7, channel=0, data=[6, 0]),\n",
      "   midi.NoteOffEvent(tick=2, channel=0, data=[35, 0]),\n",
      "   midi.NoteOnEvent(tick=13, channel=0, data=[51, 7]),\n",
      "   midi.NoteOnEvent(tick=11, channel=0, data=[59, 128]),\n",
      "   midi.NoteOnEvent(tick=18, channel=0, data=[55, 134]),\n",
      "   midi.NoteOnEvent(tick=4, channel=0, data=[15, 122]),\n",
      "   midi.NoteOnEvent(tick=8, channel=0, data=[118, 145]),\n",
      "   midi.NoteOnEvent(tick=5, channel=0, data=[48, 104]),\n",
      "   midi.NoteOnEvent(tick=30, channel=0, data=[97, 51]),\n",
      "   midi.NoteOffEvent(tick=6, channel=0, data=[74, 0]),\n",
      "   midi.NoteOnEvent(tick=14, channel=0, data=[71, 150]),\n",
      "   midi.NoteOnEvent(tick=2, channel=0, data=[17, 32]),\n",
      "   midi.NoteOnEvent(tick=3, channel=0, data=[97, 55]),\n",
      "   midi.NoteOnEvent(tick=7, channel=0, data=[106, 19]),\n",
      "   midi.NoteOnEvent(tick=4, channel=0, data=[69, 29]),\n",
      "   midi.NoteOffEvent(tick=5, channel=0, data=[75, 0]),\n",
      "   midi.NoteOnEvent(tick=23, channel=0, data=[84, 189]),\n",
      "   midi.NoteOnEvent(tick=0, channel=0, data=[82, 162]),\n",
      "   midi.NoteOnEvent(tick=1, channel=0, data=[59, 65]),\n",
      "   midi.NoteOnEvent(tick=2, channel=0, data=[116, 61]),\n",
      "   midi.NoteOffEvent(tick=4, channel=0, data=[71, 0]),\n",
      "   midi.NoteOffEvent(tick=5, channel=0, data=[98, 0]),\n",
      "   midi.NoteOnEvent(tick=3, channel=0, data=[124, 127]),\n",
      "   midi.NoteOnEvent(tick=1, channel=0, data=[78, 238]),\n",
      "   midi.NoteOnEvent(tick=7, channel=0, data=[38, 69]),\n",
      "   midi.NoteOnEvent(tick=15, channel=0, data=[7, 240]),\n",
      "   midi.NoteOnEvent(tick=1, channel=0, data=[48, 13]),\n",
      "   midi.NoteOffEvent(tick=5, channel=0, data=[58, 0]),\n",
      "   midi.NoteOnEvent(tick=1, channel=0, data=[85, 110]),\n",
      "   midi.NoteOffEvent(tick=10, channel=0, data=[54, 0]),\n",
      "   midi.NoteOnEvent(tick=4, channel=0, data=[88, 251]),\n",
      "   midi.NoteOnEvent(tick=5, channel=0, data=[116, 216]),\n",
      "   midi.NoteOnEvent(tick=12, channel=0, data=[84, 169]),\n",
      "   midi.NoteOnEvent(tick=2, channel=0, data=[125, 215]),\n",
      "   midi.NoteOnEvent(tick=23, channel=0, data=[91, 40]),\n",
      "   midi.NoteOnEvent(tick=5, channel=0, data=[122, 251]),\n",
      "   midi.NoteOnEvent(tick=5, channel=0, data=[38, 159]),\n",
      "   midi.NoteOffEvent(tick=26, channel=0, data=[104, 0]),\n",
      "   midi.NoteOnEvent(tick=28, channel=0, data=[36, 120]),\n",
      "   midi.NoteOnEvent(tick=0, channel=0, data=[32, 52]),\n",
      "   midi.NoteOnEvent(tick=12, channel=0, data=[51, 215]),\n",
      "   midi.NoteOnEvent(tick=2, channel=0, data=[55, 158]),\n",
      "   midi.NoteOnEvent(tick=24, channel=0, data=[20, 128]),\n",
      "   midi.NoteOnEvent(tick=21, channel=0, data=[23, 101]),\n",
      "   midi.NoteOnEvent(tick=5, channel=0, data=[72, 88]),\n",
      "   midi.NoteOffEvent(tick=2, channel=0, data=[48, 0]),\n",
      "   midi.NoteOffEvent(tick=11, channel=0, data=[70, 0]),\n",
      "   midi.NoteOnEvent(tick=4, channel=0, data=[84, 147]),\n",
      "   midi.NoteOffEvent(tick=26, channel=0, data=[34, 0]),\n",
      "   midi.NoteOnEvent(tick=21, channel=0, data=[5, 240]),\n",
      "   midi.NoteOffEvent(tick=7, channel=0, data=[84, 0]),\n",
      "   midi.NoteOffEvent(tick=12, channel=0, data=[59, 0]),\n",
      "   midi.NoteOffEvent(tick=7, channel=0, data=[94, 0]),\n",
      "   midi.NoteOnEvent(tick=8, channel=0, data=[66, 135]),\n",
      "   midi.NoteOnEvent(tick=12, channel=0, data=[102, 98]),\n",
      "   midi.NoteOffEvent(tick=27, channel=0, data=[32, 0]),\n",
      "   midi.NoteOnEvent(tick=6, channel=0, data=[5, 104]),\n",
      "   midi.NoteOnEvent(tick=3, channel=0, data=[74, 43]),\n",
      "   midi.NoteOffEvent(tick=8, channel=0, data=[97, 0]),\n",
      "   midi.NoteOnEvent(tick=6, channel=0, data=[22, 1]),\n",
      "   midi.NoteOffEvent(tick=18, channel=0, data=[27, 0]),\n",
      "   midi.NoteOnEvent(tick=7, channel=0, data=[91, 245]),\n",
      "   midi.NoteOnEvent(tick=9, channel=0, data=[56, 85]),\n",
      "   midi.NoteOffEvent(tick=6, channel=0, data=[69, 0]),\n",
      "   midi.NoteOffEvent(tick=22, channel=0, data=[66, 0]),\n",
      "   midi.NoteOffEvent(tick=18, channel=0, data=[43, 0]),\n",
      "   midi.NoteOffEvent(tick=86, channel=0, data=[17, 0]),\n",
      "   midi.NoteOffEvent(tick=6, channel=0, data=[90, 0]),\n",
      "   midi.NoteOffEvent(tick=35, channel=0, data=[2, 0]),\n",
      "   midi.NoteOffEvent(tick=5, channel=0, data=[22, 0]),\n",
      "   midi.NoteOffEvent(tick=9, channel=0, data=[85, 0]),\n",
      "   midi.NoteOffEvent(tick=12, channel=0, data=[78, 0]),\n",
      "   midi.NoteOffEvent(tick=43, channel=0, data=[53, 0]),\n",
      "   midi.NoteOffEvent(tick=9, channel=0, data=[76, 0]),\n",
      "   midi.NoteOffEvent(tick=18, channel=0, data=[36, 0]),\n",
      "   midi.NoteOffEvent(tick=12, channel=0, data=[106, 0]),\n",
      "   midi.NoteOffEvent(tick=1, channel=0, data=[73, 0]),\n",
      "   midi.NoteOffEvent(tick=5, channel=0, data=[51, 0]),\n",
      "   midi.NoteOffEvent(tick=25, channel=0, data=[122, 0]),\n",
      "   midi.NoteOffEvent(tick=91, channel=0, data=[7, 0]),\n",
      "   midi.NoteOffEvent(tick=0, channel=0, data=[15, 0]),\n",
      "   midi.NoteOffEvent(tick=28, channel=0, data=[124, 0]),\n",
      "   midi.NoteOffEvent(tick=24, channel=0, data=[118, 0]),\n",
      "   midi.NoteOffEvent(tick=3, channel=0, data=[82, 0]),\n",
      "   midi.NoteOffEvent(tick=2, channel=0, data=[116, 0]),\n",
      "   midi.NoteOffEvent(tick=23, channel=0, data=[72, 0]),\n",
      "   midi.NoteOffEvent(tick=15, channel=0, data=[5, 0]),\n",
      "   midi.NoteOffEvent(tick=16, channel=0, data=[125, 0]),\n",
      "   midi.NoteOffEvent(tick=4, channel=0, data=[88, 0]),\n",
      "   midi.NoteOffEvent(tick=57, channel=0, data=[55, 0]),\n",
      "   midi.NoteOffEvent(tick=37, channel=0, data=[23, 0]),\n",
      "   midi.NoteOffEvent(tick=29, channel=0, data=[102, 0]),\n",
      "   midi.NoteOffEvent(tick=36, channel=0, data=[91, 0]),\n",
      "   midi.NoteOffEvent(tick=5, channel=0, data=[38, 0]),\n",
      "   midi.NoteOffEvent(tick=59, channel=0, data=[74, 0]),\n",
      "   midi.NoteOffEvent(tick=4, channel=0, data=[20, 0]),\n",
      "   midi.NoteOffEvent(tick=233, channel=0, data=[56, 0]),\n",
      "   midi.EndOfTrackEvent(tick=0, data=[])]),\n",
      " midi.Track(\\\n",
      "  [midi.SetTempoEvent(tick=0, data=[8, 227, 124]),\n",
      "   midi.ProgramChangeEvent(tick=0, channel=0, data=[123]),\n",
      "   midi.NoteOnEvent(tick=6, channel=0, data=[100, 20]),\n",
      "   midi.NoteOnEvent(tick=12, channel=0, data=[85, 117]),\n",
      "   midi.NoteOnEvent(tick=45, channel=0, data=[33, 111]),\n",
      "   midi.NoteOnEvent(tick=0, channel=0, data=[6, 248]),\n",
      "   midi.NoteOnEvent(tick=41, channel=0, data=[108, 235]),\n",
      "   midi.NoteOnEvent(tick=26, channel=0, data=[55, 41]),\n",
      "   midi.NoteOnEvent(tick=2, channel=0, data=[124, 252]),\n",
      "   midi.NoteOffEvent(tick=6, channel=0, data=[6, 0]),\n",
      "   midi.NoteOnEvent(tick=0, channel=0, data=[41, 217]),\n",
      "   midi.NoteOnEvent(tick=7, channel=0, data=[74, 33]),\n",
      "   midi.NoteOffEvent(tick=30, channel=0, data=[85, 0]),\n",
      "   midi.NoteOnEvent(tick=32, channel=0, data=[70, 61]),\n",
      "   midi.NoteOnEvent(tick=15, channel=0, data=[124, 137]),\n",
      "   midi.NoteOffEvent(tick=2, channel=0, data=[55, 0]),\n",
      "   midi.NoteOnEvent(tick=16, channel=0, data=[16, 253]),\n",
      "   midi.NoteOnEvent(tick=8, channel=0, data=[28, 223]),\n",
      "   midi.NoteOffEvent(tick=6, channel=0, data=[16, 0]),\n",
      "   midi.NoteOnEvent(tick=5, channel=0, data=[52, 80]),\n",
      "   midi.NoteOnEvent(tick=50, channel=0, data=[27, 107]),\n",
      "   midi.NoteOnEvent(tick=3, channel=0, data=[46, 236]),\n",
      "   midi.NoteOnEvent(tick=10, channel=0, data=[78, 166]),\n",
      "   midi.NoteOffEvent(tick=2, channel=0, data=[41, 0]),\n",
      "   midi.NoteOffEvent(tick=8, channel=0, data=[108, 0]),\n",
      "   midi.NoteOnEvent(tick=17, channel=0, data=[44, 199]),\n",
      "   midi.NoteOffEvent(tick=5, channel=0, data=[44, 0]),\n",
      "   midi.NoteOnEvent(tick=0, channel=0, data=[20, 215]),\n",
      "   midi.NoteOnEvent(tick=20, channel=0, data=[84, 26]),\n",
      "   midi.NoteOnEvent(tick=16, channel=0, data=[82, 95]),\n",
      "   midi.NoteOnEvent(tick=0, channel=0, data=[105, 198]),\n",
      "   midi.NoteOnEvent(tick=8, channel=0, data=[52, 32]),\n",
      "   midi.NoteOnEvent(tick=8, channel=0, data=[25, 83]),\n",
      "   midi.NoteOffEvent(tick=33, channel=0, data=[33, 0]),\n",
      "   midi.NoteOnEvent(tick=3, channel=0, data=[118, 82]),\n",
      "   midi.NoteOnEvent(tick=12, channel=0, data=[26, 217]),\n",
      "   midi.NoteOnEvent(tick=16, channel=0, data=[37, 147]),\n",
      "   midi.NoteOffEvent(tick=4, channel=0, data=[46, 0]),\n",
      "   midi.NoteOffEvent(tick=11, channel=0, data=[100, 0]),\n",
      "   midi.NoteOnEvent(tick=2, channel=0, data=[104, 209]),\n",
      "   midi.NoteOnEvent(tick=32, channel=0, data=[63, 224]),\n",
      "   midi.NoteOnEvent(tick=12, channel=0, data=[119, 9]),\n",
      "   midi.NoteOnEvent(tick=4, channel=0, data=[97, 14]),\n",
      "   midi.NoteOnEvent(tick=0, channel=0, data=[28, 141]),\n",
      "   midi.NoteOnEvent(tick=11, channel=0, data=[36, 2]),\n",
      "   midi.NoteOffEvent(tick=3, channel=0, data=[119, 0]),\n",
      "   midi.NoteOnEvent(tick=11, channel=0, data=[26, 122]),\n",
      "   midi.NoteOnEvent(tick=3, channel=0, data=[98, 63]),\n",
      "   midi.NoteOnEvent(tick=5, channel=0, data=[105, 81]),\n",
      "   midi.NoteOnEvent(tick=5, channel=0, data=[41, 122]),\n",
      "   midi.NoteOnEvent(tick=1, channel=0, data=[3, 230]),\n",
      "   midi.NoteOnEvent(tick=1, channel=0, data=[44, 54]),\n",
      "   midi.NoteOnEvent(tick=6, channel=0, data=[110, 10]),\n",
      "   midi.NoteOnEvent(tick=10, channel=0, data=[106, 143]),\n",
      "   midi.NoteOffEvent(tick=16, channel=0, data=[20, 0]),\n",
      "   midi.NoteOnEvent(tick=12, channel=0, data=[94, 76]),\n",
      "   midi.NoteOnEvent(tick=7, channel=0, data=[43, 161]),\n",
      "   midi.NoteOnEvent(tick=9, channel=0, data=[86, 244]),\n",
      "   midi.NoteOnEvent(tick=0, channel=0, data=[11, 174]),\n",
      "   midi.NoteOnEvent(tick=22, channel=0, data=[5, 14]),\n",
      "   midi.NoteOffEvent(tick=11, channel=0, data=[86, 0]),\n",
      "   midi.NoteOffEvent(tick=8, channel=0, data=[5, 0]),\n",
      "   midi.NoteOnEvent(tick=9, channel=0, data=[28, 231]),\n",
      "   midi.NoteOffEvent(tick=19, channel=0, data=[44, 0]),\n",
      "   midi.NoteOffEvent(tick=16, channel=0, data=[97, 0]),\n",
      "   midi.NoteOffEvent(tick=6, channel=0, data=[74, 0]),\n",
      "   midi.NoteOffEvent(tick=18, channel=0, data=[70, 0]),\n",
      "   midi.NoteOnEvent(tick=19, channel=0, data=[82, 135]),\n",
      "   midi.NoteOffEvent(tick=11, channel=0, data=[26, 0]),\n",
      "   midi.NoteOffEvent(tick=8, channel=0, data=[105, 0]),\n",
      "   midi.NoteOffEvent(tick=20, channel=0, data=[27, 0]),\n",
      "   midi.NoteOnEvent(tick=16, channel=0, data=[56, 131]),\n",
      "   midi.NoteOnEvent(tick=1, channel=0, data=[30, 173]),\n",
      "   midi.NoteOnEvent(tick=19, channel=0, data=[82, 255]),\n",
      "   midi.NoteOffEvent(tick=2, channel=0, data=[11, 0]),\n",
      "   midi.NoteOnEvent(tick=2, channel=0, data=[109, 163]),\n",
      "   midi.NoteOffEvent(tick=5, channel=0, data=[118, 0]),\n",
      "   midi.NoteOffEvent(tick=12, channel=0, data=[37, 0]),\n",
      "   midi.NoteOffEvent(tick=28, channel=0, data=[104, 0]),\n",
      "   midi.NoteOnEvent(tick=0, channel=0, data=[16, 235]),\n",
      "   midi.NoteOnEvent(tick=16, channel=0, data=[57, 7]),\n",
      "   midi.NoteOffEvent(tick=14, channel=0, data=[124, 0]),\n",
      "   midi.NoteOnEvent(tick=21, channel=0, data=[84, 245]),\n",
      "   midi.NoteOnEvent(tick=1, channel=0, data=[70, 167]),\n",
      "   midi.NoteOnEvent(tick=36, channel=0, data=[98, 68]),\n",
      "   midi.NoteOnEvent(tick=18, channel=0, data=[28, 157]),\n",
      "   midi.NoteOffEvent(tick=70, channel=0, data=[56, 0]),\n",
      "   midi.NoteOffEvent(tick=10, channel=0, data=[63, 0]),\n",
      "   midi.NoteOffEvent(tick=5, channel=0, data=[106, 0]),\n",
      "   midi.NoteOffEvent(tick=80, channel=0, data=[30, 0]),\n",
      "   midi.NoteOffEvent(tick=16, channel=0, data=[41, 0]),\n",
      "   midi.NoteOffEvent(tick=5, channel=0, data=[78, 0]),\n",
      "   midi.NoteOffEvent(tick=20, channel=0, data=[52, 0]),\n",
      "   midi.NoteOffEvent(tick=17, channel=0, data=[94, 0]),\n",
      "   midi.NoteOffEvent(tick=9, channel=0, data=[16, 0]),\n",
      "   midi.NoteOffEvent(tick=41, channel=0, data=[25, 0]),\n",
      "   midi.NoteOffEvent(tick=28, channel=0, data=[82, 0]),\n",
      "   midi.NoteOffEvent(tick=44, channel=0, data=[3, 0]),\n",
      "   midi.NoteOffEvent(tick=19, channel=0, data=[57, 0]),\n",
      "   midi.NoteOffEvent(tick=26, channel=0, data=[43, 0]),\n",
      "   midi.NoteOffEvent(tick=33, channel=0, data=[110, 0]),\n",
      "   midi.NoteOffEvent(tick=70, channel=0, data=[36, 0]),\n",
      "   midi.NoteOffEvent(tick=114, channel=0, data=[28, 0]),\n",
      "   midi.NoteOffEvent(tick=22, channel=0, data=[109, 0]),\n",
      "   midi.NoteOffEvent(tick=23, channel=0, data=[70, 0]),\n",
      "   midi.NoteOffEvent(tick=227, channel=0, data=[84, 0]),\n",
      "   midi.NoteOffEvent(tick=1, channel=0, data=[98, 0]),\n",
      "   midi.EndOfTrackEvent(tick=0, data=[])]),\n",
      " midi.Track(\\\n",
      "  [midi.SetTempoEvent(tick=0, data=[8, 227, 124]),\n",
      "   midi.ProgramChangeEvent(tick=0, channel=0, data=[124]),\n",
      "   midi.NoteOnEvent(tick=8, channel=0, data=[48, 59]),\n",
      "   midi.NoteOnEvent(tick=44, channel=0, data=[62, 200]),\n",
      "   midi.NoteOnEvent(tick=60, channel=0, data=[75, 46]),\n",
      "   midi.NoteOnEvent(tick=7, channel=0, data=[112, 168]),\n",
      "   midi.NoteOnEvent(tick=5, channel=0, data=[0, 45]),\n",
      "   midi.NoteOnEvent(tick=2, channel=0, data=[8, 136]),\n",
      "   midi.NoteOffEvent(tick=16, channel=0, data=[75, 0]),\n",
      "   midi.NoteOnEvent(tick=1, channel=0, data=[58, 26]),\n",
      "   midi.NoteOnEvent(tick=2, channel=0, data=[114, 159]),\n",
      "   midi.NoteOnEvent(tick=0, channel=0, data=[52, 125]),\n",
      "   midi.NoteOnEvent(tick=21, channel=0, data=[57, 134]),\n",
      "   midi.NoteOnEvent(tick=13, channel=0, data=[38, 67]),\n",
      "   midi.NoteOnEvent(tick=30, channel=0, data=[27, 248]),\n",
      "   midi.NoteOffEvent(tick=2, channel=0, data=[48, 0]),\n",
      "   midi.NoteOnEvent(tick=21, channel=0, data=[73, 255]),\n",
      "   midi.NoteOffEvent(tick=34, channel=0, data=[0, 0]),\n",
      "   midi.NoteOnEvent(tick=2, channel=0, data=[19, 119]),\n",
      "   midi.NoteOnEvent(tick=12, channel=0, data=[68, 43]),\n",
      "   midi.NoteOnEvent(tick=19, channel=0, data=[10, 151]),\n",
      "   midi.NoteOnEvent(tick=4, channel=0, data=[119, 124]),\n",
      "   midi.NoteOnEvent(tick=6, channel=0, data=[72, 112]),\n",
      "   midi.NoteOffEvent(tick=2, channel=0, data=[114, 0]),\n",
      "   midi.NoteOnEvent(tick=7, channel=0, data=[71, 231]),\n",
      "   midi.NoteOnEvent(tick=4, channel=0, data=[62, 187]),\n",
      "   midi.NoteOnEvent(tick=8, channel=0, data=[54, 72]),\n",
      "   midi.NoteOnEvent(tick=1, channel=0, data=[45, 67]),\n",
      "   midi.NoteOnEvent(tick=1, channel=0, data=[14, 6]),\n",
      "   midi.NoteOnEvent(tick=0, channel=0, data=[81, 252]),\n",
      "   midi.NoteOnEvent(tick=13, channel=0, data=[72, 123]),\n",
      "   midi.NoteOnEvent(tick=30, channel=0, data=[102, 7]),\n",
      "   midi.NoteOnEvent(tick=8, channel=0, data=[87, 8]),\n",
      "   midi.NoteOnEvent(tick=3, channel=0, data=[76, 187]),\n",
      "   midi.NoteOffEvent(tick=3, channel=0, data=[81, 0]),\n",
      "   midi.NoteOnEvent(tick=13, channel=0, data=[114, 63]),\n",
      "   midi.NoteOnEvent(tick=0, channel=0, data=[5, 248]),\n",
      "   midi.NoteOffEvent(tick=8, channel=0, data=[87, 0]),\n",
      "   midi.NoteOffEvent(tick=6, channel=0, data=[112, 0]),\n",
      "   midi.NoteOffEvent(tick=40, channel=0, data=[45, 0]),\n",
      "   midi.NoteOnEvent(tick=4, channel=0, data=[82, 204]),\n",
      "   midi.NoteOnEvent(tick=13, channel=0, data=[114, 250]),\n",
      "   midi.NoteOnEvent(tick=1, channel=0, data=[93, 236]),\n",
      "   midi.NoteOnEvent(tick=9, channel=0, data=[121, 5]),\n",
      "   midi.NoteOffEvent(tick=7, channel=0, data=[38, 0]),\n",
      "   midi.NoteOffEvent(tick=19, channel=0, data=[54, 0]),\n",
      "   midi.NoteOffEvent(tick=11, channel=0, data=[68, 0]),\n",
      "   midi.NoteOffEvent(tick=6, channel=0, data=[62, 0]),\n",
      "   midi.NoteOffEvent(tick=2, channel=0, data=[14, 0]),\n",
      "   midi.NoteOnEvent(tick=14, channel=0, data=[85, 28]),\n",
      "   midi.NoteOnEvent(tick=10, channel=0, data=[97, 237]),\n",
      "   midi.NoteOffEvent(tick=4, channel=0, data=[73, 0]),\n",
      "   midi.NoteOnEvent(tick=2, channel=0, data=[109, 125]),\n",
      "   midi.NoteOnEvent(tick=5, channel=0, data=[89, 151]),\n",
      "   midi.NoteOnEvent(tick=12, channel=0, data=[11, 169]),\n",
      "   midi.NoteOnEvent(tick=16, channel=0, data=[45, 155]),\n",
      "   midi.NoteOffEvent(tick=10, channel=0, data=[57, 0]),\n",
      "   midi.NoteOffEvent(tick=4, channel=0, data=[114, 0]),\n",
      "   midi.NoteOffEvent(tick=14, channel=0, data=[27, 0]),\n",
      "   midi.NoteOnEvent(tick=0, channel=0, data=[59, 241]),\n",
      "   midi.NoteOnEvent(tick=7, channel=0, data=[115, 233]),\n",
      "   midi.NoteOnEvent(tick=8, channel=0, data=[100, 203]),\n",
      "   midi.NoteOnEvent(tick=23, channel=0, data=[116, 114]),\n",
      "   midi.NoteOffEvent(tick=6, channel=0, data=[58, 0]),\n",
      "   midi.NoteOnEvent(tick=21, channel=0, data=[83, 187]),\n",
      "   midi.NoteOnEvent(tick=9, channel=0, data=[18, 120]),\n",
      "   midi.NoteOnEvent(tick=47, channel=0, data=[74, 29]),\n",
      "   midi.NoteOnEvent(tick=1, channel=0, data=[54, 82]),\n",
      "   midi.NoteOnEvent(tick=21, channel=0, data=[2, 62]),\n",
      "   midi.NoteOnEvent(tick=0, channel=0, data=[93, 219]),\n",
      "   midi.NoteOffEvent(tick=7, channel=0, data=[82, 0]),\n",
      "   midi.NoteOffEvent(tick=19, channel=0, data=[93, 0]),\n",
      "   midi.NoteOffEvent(tick=4, channel=0, data=[76, 0]),\n",
      "   midi.NoteOnEvent(tick=16, channel=0, data=[81, 238]),\n",
      "   midi.NoteOffEvent(tick=6, channel=0, data=[45, 0]),\n",
      "   midi.NoteOnEvent(tick=0, channel=0, data=[32, 34]),\n",
      "   midi.NoteOnEvent(tick=5, channel=0, data=[71, 100]),\n",
      "   midi.NoteOffEvent(tick=15, channel=0, data=[52, 0]),\n",
      "   midi.NoteOffEvent(tick=10, channel=0, data=[116, 0]),\n",
      "   midi.NoteOffEvent(tick=26, channel=0, data=[89, 0]),\n",
      "   midi.NoteOnEvent(tick=2, channel=0, data=[120, 164]),\n",
      "   midi.NoteOnEvent(tick=5, channel=0, data=[9, 46]),\n",
      "   midi.NoteOffEvent(tick=19, channel=0, data=[8, 0]),\n",
      "   midi.NoteOnEvent(tick=3, channel=0, data=[109, 79]),\n",
      "   midi.NoteOnEvent(tick=4, channel=0, data=[60, 240]),\n",
      "   midi.NoteOnEvent(tick=4, channel=0, data=[68, 224]),\n",
      "   midi.NoteOffEvent(tick=5, channel=0, data=[2, 0]),\n",
      "   midi.NoteOnEvent(tick=9, channel=0, data=[26, 204]),\n",
      "   midi.NoteOnEvent(tick=18, channel=0, data=[100, 103]),\n",
      "   midi.NoteOnEvent(tick=11, channel=0, data=[26, 208]),\n",
      "   midi.NoteOffEvent(tick=13, channel=0, data=[11, 0]),\n",
      "   midi.NoteOffEvent(tick=16, channel=0, data=[54, 0]),\n",
      "   midi.NoteOnEvent(tick=0, channel=0, data=[41, 94]),\n",
      "   midi.NoteOffEvent(tick=5, channel=0, data=[19, 0]),\n",
      "   midi.NoteOffEvent(tick=7, channel=0, data=[120, 0]),\n",
      "   midi.NoteOnEvent(tick=2, channel=0, data=[120, 222]),\n",
      "   midi.NoteOffEvent(tick=54, channel=0, data=[68, 0]),\n",
      "   midi.NoteOffEvent(tick=29, channel=0, data=[119, 0]),\n",
      "   midi.NoteOffEvent(tick=1, channel=0, data=[83, 0]),\n",
      "   midi.NoteOffEvent(tick=10, channel=0, data=[102, 0]),\n",
      "   midi.NoteOffEvent(tick=40, channel=0, data=[10, 0]),\n",
      "   midi.NoteOffEvent(tick=53, channel=0, data=[26, 0]),\n",
      "   midi.NoteOffEvent(tick=4, channel=0, data=[121, 0]),\n",
      "   midi.NoteOffEvent(tick=9, channel=0, data=[109, 0]),\n",
      "   midi.NoteOffEvent(tick=1, channel=0, data=[32, 0]),\n",
      "   midi.NoteOffEvent(tick=18, channel=0, data=[100, 0]),\n",
      "   midi.NoteOffEvent(tick=12, channel=0, data=[5, 0]),\n",
      "   midi.NoteOffEvent(tick=51, channel=0, data=[72, 0]),\n",
      "   midi.NoteOffEvent(tick=45, channel=0, data=[97, 0]),\n",
      "   midi.NoteOffEvent(tick=2, channel=0, data=[71, 0]),\n",
      "   midi.NoteOffEvent(tick=2, channel=0, data=[115, 0]),\n",
      "   midi.NoteOffEvent(tick=57, channel=0, data=[74, 0]),\n",
      "   midi.NoteOffEvent(tick=44, channel=0, data=[59, 0]),\n",
      "   midi.NoteOffEvent(tick=15, channel=0, data=[85, 0]),\n",
      "   midi.NoteOffEvent(tick=58, channel=0, data=[81, 0]),\n",
      "   midi.NoteOffEvent(tick=34, channel=0, data=[18, 0]),\n",
      "   midi.NoteOffEvent(tick=5, channel=0, data=[60, 0]),\n",
      "   midi.NoteOffEvent(tick=69, channel=0, data=[120, 0]),\n",
      "   midi.NoteOffEvent(tick=158, channel=0, data=[9, 0]),\n",
      "   midi.NoteOffEvent(tick=72, channel=0, data=[41, 0]),\n",
      "   midi.EndOfTrackEvent(tick=0, data=[])]),\n",
      " midi.Track(\\\n",
      "  [midi.SetTempoEvent(tick=0, data=[8, 227, 124]),\n",
      "   midi.ProgramChangeEvent(tick=0, channel=0, data=[125]),\n",
      "   midi.NoteOnEvent(tick=11, channel=0, data=[33, 127]),\n",
      "   midi.NoteOnEvent(tick=7, channel=0, data=[98, 199]),\n",
      "   midi.NoteOnEvent(tick=10, channel=0, data=[94, 205]),\n",
      "   midi.NoteOnEvent(tick=2, channel=0, data=[48, 127]),\n",
      "   midi.NoteOnEvent(tick=39, channel=0, data=[60, 243]),\n",
      "   midi.NoteOnEvent(tick=0, channel=0, data=[91, 62]),\n",
      "   midi.NoteOnEvent(tick=41, channel=0, data=[65, 77]),\n",
      "   midi.NoteOnEvent(tick=0, channel=0, data=[88, 98]),\n",
      "   midi.NoteOnEvent(tick=19, channel=0, data=[91, 46]),\n",
      "   midi.NoteOnEvent(tick=1, channel=0, data=[14, 5]),\n",
      "   midi.NoteOnEvent(tick=8, channel=0, data=[86, 63]),\n",
      "   midi.NoteOnEvent(tick=4, channel=0, data=[34, 168]),\n",
      "   midi.NoteOnEvent(tick=0, channel=0, data=[61, 180]),\n",
      "   midi.NoteOnEvent(tick=21, channel=0, data=[113, 59]),\n",
      "   midi.NoteOnEvent(tick=14, channel=0, data=[17, 44]),\n",
      "   midi.NoteOnEvent(tick=45, channel=0, data=[58, 76]),\n",
      "   midi.NoteOnEvent(tick=4, channel=0, data=[50, 114]),\n",
      "   midi.NoteOnEvent(tick=0, channel=0, data=[115, 103]),\n",
      "   midi.NoteOnEvent(tick=11, channel=0, data=[30, 22]),\n",
      "   midi.NoteOnEvent(tick=14, channel=0, data=[70, 30]),\n",
      "   midi.NoteOnEvent(tick=3, channel=0, data=[89, 29]),\n",
      "   midi.NoteOnEvent(tick=3, channel=0, data=[85, 35]),\n",
      "   midi.NoteOnEvent(tick=4, channel=0, data=[31, 207]),\n",
      "   midi.NoteOnEvent(tick=4, channel=0, data=[127, 16]),\n",
      "   midi.NoteOnEvent(tick=4, channel=0, data=[48, 148]),\n",
      "   midi.NoteOffEvent(tick=27, channel=0, data=[33, 0]),\n",
      "   midi.NoteOnEvent(tick=22, channel=0, data=[73, 125]),\n",
      "   midi.NoteOnEvent(tick=23, channel=0, data=[28, 206]),\n",
      "   midi.NoteOffEvent(tick=13, channel=0, data=[31, 0]),\n",
      "   midi.NoteOnEvent(tick=18, channel=0, data=[0, 224]),\n",
      "   midi.NoteOnEvent(tick=28, channel=0, data=[35, 105]),\n",
      "   midi.NoteOnEvent(tick=0, channel=0, data=[25, 225]),\n",
      "   midi.NoteOnEvent(tick=4, channel=0, data=[66, 69]),\n",
      "   midi.NoteOffEvent(tick=9, channel=0, data=[115, 0]),\n",
      "   midi.NoteOnEvent(tick=8, channel=0, data=[114, 251]),\n",
      "   midi.NoteOnEvent(tick=12, channel=0, data=[82, 161]),\n",
      "   midi.NoteOnEvent(tick=0, channel=0, data=[126, 204]),\n",
      "   midi.NoteOnEvent(tick=44, channel=0, data=[65, 149]),\n",
      "   midi.NoteOnEvent(tick=6, channel=0, data=[49, 129]),\n",
      "   midi.NoteOnEvent(tick=6, channel=0, data=[52, 231]),\n",
      "   midi.NoteOffEvent(tick=14, channel=0, data=[60, 0]),\n",
      "   midi.NoteOffEvent(tick=12, channel=0, data=[89, 0]),\n",
      "   midi.NoteOnEvent(tick=1, channel=0, data=[5, 34]),\n",
      "   midi.NoteOnEvent(tick=0, channel=0, data=[27, 139]),\n",
      "   midi.NoteOnEvent(tick=3, channel=0, data=[11, 203]),\n",
      "   midi.NoteOffEvent(tick=11, channel=0, data=[127, 0]),\n",
      "   midi.NoteOnEvent(tick=8, channel=0, data=[29, 68]),\n",
      "   midi.NoteOffEvent(tick=2, channel=0, data=[91, 0]),\n",
      "   midi.NoteOnEvent(tick=6, channel=0, data=[116, 185]),\n",
      "   midi.NoteOnEvent(tick=7, channel=0, data=[60, 255]),\n",
      "   midi.NoteOnEvent(tick=15, channel=0, data=[63, 184]),\n",
      "   midi.NoteOnEvent(tick=0, channel=0, data=[92, 119]),\n",
      "   midi.NoteOnEvent(tick=13, channel=0, data=[94, 157]),\n",
      "   midi.NoteOnEvent(tick=12, channel=0, data=[15, 138]),\n",
      "   midi.NoteOnEvent(tick=26, channel=0, data=[33, 206]),\n",
      "   midi.NoteOffEvent(tick=13, channel=0, data=[61, 0]),\n",
      "   midi.NoteOffEvent(tick=1, channel=0, data=[52, 0]),\n",
      "   midi.NoteOnEvent(tick=1, channel=0, data=[91, 134]),\n",
      "   midi.NoteOnEvent(tick=28, channel=0, data=[110, 220]),\n",
      "   midi.NoteOnEvent(tick=3, channel=0, data=[22, 129]),\n",
      "   midi.NoteOffEvent(tick=3, channel=0, data=[73, 0]),\n",
      "   midi.NoteOnEvent(tick=7, channel=0, data=[112, 233]),\n",
      "   midi.NoteOffEvent(tick=4, channel=0, data=[22, 0]),\n",
      "   midi.NoteOffEvent(tick=19, channel=0, data=[33, 0]),\n",
      "   midi.NoteOnEvent(tick=15, channel=0, data=[67, 241]),\n",
      "   midi.NoteOnEvent(tick=2, channel=0, data=[85, 74]),\n",
      "   midi.NoteOffEvent(tick=6, channel=0, data=[113, 0]),\n",
      "   midi.NoteOffEvent(tick=7, channel=0, data=[63, 0]),\n",
      "   midi.NoteOffEvent(tick=11, channel=0, data=[110, 0]),\n",
      "   midi.NoteOnEvent(tick=0, channel=0, data=[108, 151]),\n",
      "   midi.NoteOffEvent(tick=5, channel=0, data=[34, 0]),\n",
      "   midi.NoteOnEvent(tick=18, channel=0, data=[51, 137]),\n",
      "   midi.NoteOnEvent(tick=0, channel=0, data=[48, 62]),\n",
      "   midi.NoteOnEvent(tick=15, channel=0, data=[7, 155]),\n",
      "   midi.NoteOnEvent(tick=14, channel=0, data=[124, 243]),\n",
      "   midi.NoteOffEvent(tick=1, channel=0, data=[14, 0]),\n",
      "   midi.NoteOffEvent(tick=9, channel=0, data=[50, 0]),\n",
      "   midi.NoteOffEvent(tick=2, channel=0, data=[91, 0]),\n",
      "   midi.NoteOnEvent(tick=15, channel=0, data=[3, 137]),\n",
      "   midi.NoteOffEvent(tick=6, channel=0, data=[85, 0]),\n",
      "   midi.NoteOffEvent(tick=7, channel=0, data=[98, 0]),\n",
      "   midi.NoteOffEvent(tick=3, channel=0, data=[17, 0]),\n",
      "   midi.NoteOffEvent(tick=13, channel=0, data=[35, 0]),\n",
      "   midi.NoteOnEvent(tick=3, channel=0, data=[32, 118]),\n",
      "   midi.NoteOffEvent(tick=1, channel=0, data=[82, 0]),\n",
      "   midi.NoteOffEvent(tick=4, channel=0, data=[67, 0]),\n",
      "   midi.NoteOffEvent(tick=9, channel=0, data=[29, 0]),\n",
      "   midi.NoteOnEvent(tick=11, channel=0, data=[93, 93]),\n",
      "   midi.NoteOnEvent(tick=2, channel=0, data=[86, 255]),\n",
      "   midi.NoteOnEvent(tick=10, channel=0, data=[34, 189]),\n",
      "   midi.NoteOffEvent(tick=3, channel=0, data=[25, 0]),\n",
      "   midi.NoteOnEvent(tick=0, channel=0, data=[80, 108]),\n",
      "   midi.NoteOnEvent(tick=0, channel=0, data=[112, 84]),\n",
      "   midi.NoteOffEvent(tick=5, channel=0, data=[58, 0]),\n",
      "   midi.NoteOffEvent(tick=0, channel=0, data=[92, 0]),\n",
      "   midi.NoteOnEvent(tick=8, channel=0, data=[102, 69]),\n",
      "   midi.NoteOffEvent(tick=4, channel=0, data=[88, 0]),\n",
      "   midi.NoteOffEvent(tick=3, channel=0, data=[15, 0]),\n",
      "   midi.NoteOnEvent(tick=3, channel=0, data=[97, 168]),\n",
      "   midi.NoteOnEvent(tick=4, channel=0, data=[17, 101]),\n",
      "   midi.NoteOffEvent(tick=3, channel=0, data=[65, 0]),\n",
      "   midi.NoteOffEvent(tick=2, channel=0, data=[94, 0]),\n",
      "   midi.NoteOnEvent(tick=9, channel=0, data=[103, 209]),\n",
      "   midi.NoteOnEvent(tick=8, channel=0, data=[100, 210]),\n",
      "   midi.NoteOnEvent(tick=0, channel=0, data=[95, 253]),\n",
      "   midi.NoteOffEvent(tick=4, channel=0, data=[30, 0]),\n",
      "   midi.NoteOffEvent(tick=15, channel=0, data=[102, 0]),\n",
      "   midi.NoteOnEvent(tick=12, channel=0, data=[91, 215]),\n",
      "   midi.NoteOffEvent(tick=1, channel=0, data=[126, 0]),\n",
      "   midi.NoteOnEvent(tick=28, channel=0, data=[99, 208]),\n",
      "   midi.NoteOffEvent(tick=4, channel=0, data=[5, 0]),\n",
      "   midi.NoteOffEvent(tick=16, channel=0, data=[86, 0]),\n",
      "   midi.NoteOffEvent(tick=13, channel=0, data=[124, 0]),\n",
      "   midi.NoteOffEvent(tick=37, channel=0, data=[70, 0]),\n",
      "   midi.NoteOffEvent(tick=36, channel=0, data=[0, 0]),\n",
      "   midi.NoteOffEvent(tick=8, channel=0, data=[103, 0]),\n",
      "   midi.NoteOffEvent(tick=51, channel=0, data=[116, 0]),\n",
      "   midi.NoteOffEvent(tick=2, channel=0, data=[60, 0]),\n",
      "   midi.NoteOffEvent(tick=4, channel=0, data=[27, 0]),\n",
      "   midi.NoteOffEvent(tick=15, channel=0, data=[32, 0]),\n",
      "   midi.NoteOffEvent(tick=20, channel=0, data=[114, 0]),\n",
      "   midi.NoteOffEvent(tick=22, channel=0, data=[80, 0]),\n",
      "   midi.NoteOffEvent(tick=17, channel=0, data=[66, 0]),\n",
      "   midi.NoteOffEvent(tick=18, channel=0, data=[51, 0]),\n",
      "   midi.NoteOffEvent(tick=33, channel=0, data=[28, 0]),\n",
      "   midi.NoteOffEvent(tick=52, channel=0, data=[11, 0]),\n",
      "   midi.NoteOffEvent(tick=11, channel=0, data=[48, 0]),\n",
      "   midi.NoteOffEvent(tick=13, channel=0, data=[100, 0]),\n",
      "   midi.NoteOffEvent(tick=9, channel=0, data=[49, 0]),\n",
      "   midi.NoteOffEvent(tick=25, channel=0, data=[112, 0]),\n",
      "   midi.NoteOffEvent(tick=49, channel=0, data=[91, 0]),\n",
      "   midi.NoteOffEvent(tick=177, channel=0, data=[7, 0]),\n",
      "   midi.NoteOffEvent(tick=33, channel=0, data=[3, 0]),\n",
      "   midi.NoteOffEvent(tick=20, channel=0, data=[93, 0]),\n",
      "   midi.NoteOffEvent(tick=45, channel=0, data=[108, 0]),\n",
      "   midi.NoteOffEvent(tick=83, channel=0, data=[17, 0]),\n",
      "   midi.NoteOffEvent(tick=75, channel=0, data=[34, 0]),\n",
      "   midi.NoteOffEvent(tick=22, channel=0, data=[97, 0]),\n",
      "   midi.NoteOffEvent(tick=4, channel=0, data=[95, 0]),\n",
      "   midi.NoteOffEvent(tick=47, channel=0, data=[99, 0]),\n",
      "   midi.EndOfTrackEvent(tick=0, data=[])]),\n",
      " midi.Track(\\\n",
      "  [midi.SetTempoEvent(tick=0, data=[8, 227, 124]),\n",
      "   midi.ProgramChangeEvent(tick=0, channel=0, data=[126]),\n",
      "   midi.NoteOnEvent(tick=6, channel=0, data=[104, 7]),\n",
      "   midi.NoteOnEvent(tick=2, channel=0, data=[74, 75]),\n",
      "   midi.NoteOnEvent(tick=20, channel=0, data=[61, 246]),\n",
      "   midi.NoteOnEvent(tick=2, channel=0, data=[102, 133]),\n",
      "   midi.NoteOffEvent(tick=41, channel=0, data=[102, 0]),\n",
      "   midi.NoteOnEvent(tick=12, channel=0, data=[29, 123]),\n",
      "   midi.NoteOnEvent(tick=39, channel=0, data=[92, 117]),\n",
      "   midi.NoteOnEvent(tick=8, channel=0, data=[6, 191]),\n",
      "   midi.NoteOnEvent(tick=23, channel=0, data=[28, 122]),\n",
      "   midi.NoteOffEvent(tick=28, channel=0, data=[28, 0]),\n",
      "   midi.NoteOnEvent(tick=22, channel=0, data=[104, 157]),\n",
      "   midi.NoteOnEvent(tick=19, channel=0, data=[9, 252]),\n",
      "   midi.NoteOnEvent(tick=4, channel=0, data=[81, 44]),\n",
      "   midi.NoteOnEvent(tick=9, channel=0, data=[118, 28]),\n",
      "   midi.NoteOffEvent(tick=17, channel=0, data=[81, 0]),\n",
      "   midi.NoteOnEvent(tick=57, channel=0, data=[20, 61]),\n",
      "   midi.NoteOnEvent(tick=3, channel=0, data=[17, 22]),\n",
      "   midi.NoteOffEvent(tick=13, channel=0, data=[74, 0]),\n",
      "   midi.NoteOffEvent(tick=1, channel=0, data=[6, 0]),\n",
      "   midi.NoteOnEvent(tick=6, channel=0, data=[54, 142]),\n",
      "   midi.NoteOffEvent(tick=5, channel=0, data=[118, 0]),\n",
      "   midi.NoteOffEvent(tick=21, channel=0, data=[29, 0]),\n",
      "   midi.NoteOffEvent(tick=0, channel=0, data=[20, 0]),\n",
      "   midi.NoteOnEvent(tick=57, channel=0, data=[108, 162]),\n",
      "   midi.NoteOnEvent(tick=0, channel=0, data=[122, 83]),\n",
      "   midi.NoteOnEvent(tick=12, channel=0, data=[108, 29]),\n",
      "   midi.NoteOffEvent(tick=9, channel=0, data=[122, 0]),\n",
      "   midi.NoteOnEvent(tick=2, channel=0, data=[70, 39]),\n",
      "   midi.NoteOnEvent(tick=0, channel=0, data=[117, 218]),\n",
      "   midi.NoteOnEvent(tick=2, channel=0, data=[106, 219]),\n",
      "   midi.NoteOnEvent(tick=2, channel=0, data=[9, 119]),\n",
      "   midi.NoteOffEvent(tick=28, channel=0, data=[92, 0]),\n",
      "   midi.NoteOnEvent(tick=3, channel=0, data=[78, 124]),\n",
      "   midi.NoteOnEvent(tick=0, channel=0, data=[57, 66]),\n",
      "   midi.NoteOnEvent(tick=1, channel=0, data=[87, 171]),\n",
      "   midi.NoteOnEvent(tick=31, channel=0, data=[9, 130]),\n",
      "   midi.NoteOnEvent(tick=0, channel=0, data=[2, 224]),\n",
      "   midi.NoteOnEvent(tick=16, channel=0, data=[55, 41]),\n",
      "   midi.NoteOffEvent(tick=4, channel=0, data=[2, 0]),\n",
      "   midi.NoteOnEvent(tick=7, channel=0, data=[101, 48]),\n",
      "   midi.NoteOffEvent(tick=6, channel=0, data=[70, 0]),\n",
      "   midi.NoteOnEvent(tick=0, channel=0, data=[55, 102]),\n",
      "   midi.NoteOffEvent(tick=3, channel=0, data=[17, 0]),\n",
      "   midi.NoteOnEvent(tick=6, channel=0, data=[53, 75]),\n",
      "   midi.NoteOnEvent(tick=5, channel=0, data=[19, 39]),\n",
      "   midi.NoteOffEvent(tick=2, channel=0, data=[78, 0]),\n",
      "   midi.NoteOnEvent(tick=6, channel=0, data=[32, 252]),\n",
      "   midi.NoteOffEvent(tick=6, channel=0, data=[53, 0]),\n",
      "   midi.NoteOnEvent(tick=2, channel=0, data=[22, 216]),\n",
      "   midi.NoteOffEvent(tick=12, channel=0, data=[108, 0]),\n",
      "   midi.NoteOnEvent(tick=11, channel=0, data=[42, 172]),\n",
      "   midi.NoteOnEvent(tick=2, channel=0, data=[24, 38]),\n",
      "   midi.NoteOnEvent(tick=12, channel=0, data=[9, 236]),\n",
      "   midi.NoteOffEvent(tick=2, channel=0, data=[57, 0]),\n",
      "   midi.NoteOnEvent(tick=12, channel=0, data=[100, 140]),\n",
      "   midi.NoteOnEvent(tick=11, channel=0, data=[49, 165]),\n",
      "   midi.NoteOnEvent(tick=2, channel=0, data=[102, 218]),\n",
      "   midi.NoteOnEvent(tick=2, channel=0, data=[115, 32]),\n",
      "   midi.NoteOnEvent(tick=4, channel=0, data=[95, 101]),\n",
      "   midi.NoteOnEvent(tick=22, channel=0, data=[87, 154]),\n",
      "   midi.NoteOnEvent(tick=1, channel=0, data=[66, 255]),\n",
      "   midi.NoteOnEvent(tick=8, channel=0, data=[73, 80]),\n",
      "   midi.NoteOnEvent(tick=0, channel=0, data=[77, 125]),\n",
      "   midi.NoteOnEvent(tick=8, channel=0, data=[33, 195]),\n",
      "   midi.NoteOffEvent(tick=14, channel=0, data=[117, 0]),\n",
      "   midi.NoteOffEvent(tick=7, channel=0, data=[33, 0]),\n",
      "   midi.NoteOnEvent(tick=64, channel=0, data=[78, 131]),\n",
      "   midi.NoteOnEvent(tick=24, channel=0, data=[13, 48]),\n",
      "   midi.NoteOffEvent(tick=29, channel=0, data=[104, 0]),\n",
      "   midi.NoteOnEvent(tick=11, channel=0, data=[74, 202]),\n",
      "   midi.NoteOffEvent(tick=25, channel=0, data=[100, 0]),\n",
      "   midi.NoteOffEvent(tick=8, channel=0, data=[61, 0]),\n",
      "   midi.NoteOffEvent(tick=19, channel=0, data=[55, 0]),\n",
      "   midi.NoteOffEvent(tick=31, channel=0, data=[115, 0]),\n",
      "   midi.NoteOnEvent(tick=8, channel=0, data=[67, 147]),\n",
      "   midi.NoteOnEvent(tick=12, channel=0, data=[7, 44]),\n",
      "   midi.NoteOnEvent(tick=9, channel=0, data=[77, 115]),\n",
      "   midi.NoteOnEvent(tick=22, channel=0, data=[15, 179]),\n",
      "   midi.NoteOnEvent(tick=2, channel=0, data=[2, 239]),\n",
      "   midi.NoteOffEvent(tick=18, channel=0, data=[54, 0]),\n",
      "   midi.NoteOnEvent(tick=18, channel=0, data=[20, 31]),\n",
      "   midi.NoteOffEvent(tick=16, channel=0, data=[49, 0]),\n",
      "   midi.NoteOffEvent(tick=6, channel=0, data=[102, 0]),\n",
      "   midi.NoteOffEvent(tick=66, channel=0, data=[73, 0]),\n",
      "   midi.NoteOffEvent(tick=99, channel=0, data=[19, 0]),\n",
      "   midi.NoteOffEvent(tick=52, channel=0, data=[2, 0]),\n",
      "   midi.NoteOffEvent(tick=59, channel=0, data=[66, 0]),\n",
      "   midi.NoteOffEvent(tick=4, channel=0, data=[77, 0]),\n",
      "   midi.NoteOffEvent(tick=19, channel=0, data=[42, 0]),\n",
      "   midi.NoteOffEvent(tick=48, channel=0, data=[106, 0]),\n",
      "   midi.NoteOffEvent(tick=12, channel=0, data=[101, 0]),\n",
      "   midi.NoteOffEvent(tick=31, channel=0, data=[87, 0]),\n",
      "   midi.NoteOffEvent(tick=11, channel=0, data=[78, 0]),\n",
      "   midi.NoteOffEvent(tick=1, channel=0, data=[32, 0]),\n",
      "   midi.NoteOffEvent(tick=2, channel=0, data=[24, 0]),\n",
      "   midi.NoteOffEvent(tick=5, channel=0, data=[9, 0]),\n",
      "   midi.NoteOffEvent(tick=4, channel=0, data=[13, 0]),\n",
      "   midi.NoteOffEvent(tick=10, channel=0, data=[74, 0]),\n",
      "   midi.NoteOffEvent(tick=23, channel=0, data=[22, 0]),\n",
      "   midi.NoteOffEvent(tick=1, channel=0, data=[20, 0]),\n",
      "   midi.NoteOffEvent(tick=59, channel=0, data=[95, 0]),\n",
      "   midi.NoteOffEvent(tick=87, channel=0, data=[7, 0]),\n",
      "   midi.NoteOffEvent(tick=217, channel=0, data=[67, 0]),\n",
      "   midi.NoteOffEvent(tick=79, channel=0, data=[15, 0]),\n",
      "   midi.EndOfTrackEvent(tick=0, data=[])]),\n",
      " midi.Track(\\\n",
      "  [midi.SetTempoEvent(tick=0, data=[8, 227, 124]),\n",
      "   midi.ProgramChangeEvent(tick=0, channel=0, data=[127]),\n",
      "   midi.NoteOnEvent(tick=6, channel=0, data=[73, 203]),\n",
      "   midi.NoteOnEvent(tick=10, channel=0, data=[86, 85]),\n",
      "   midi.NoteOnEvent(tick=31, channel=0, data=[2, 7]),\n",
      "   midi.NoteOnEvent(tick=21, channel=0, data=[80, 225]),\n",
      "   midi.NoteOnEvent(tick=1, channel=0, data=[85, 74]),\n",
      "   midi.NoteOnEvent(tick=0, channel=0, data=[107, 148]),\n",
      "   midi.NoteOnEvent(tick=9, channel=0, data=[32, 249]),\n",
      "   midi.NoteOnEvent(tick=16, channel=0, data=[95, 204]),\n",
      "   midi.NoteOnEvent(tick=3, channel=0, data=[6, 113]),\n",
      "   midi.NoteOnEvent(tick=0, channel=0, data=[31, 71]),\n",
      "   midi.NoteOnEvent(tick=2, channel=0, data=[39, 157]),\n",
      "   midi.NoteOffEvent(tick=3, channel=0, data=[95, 0]),\n",
      "   midi.NoteOnEvent(tick=15, channel=0, data=[35, 133]),\n",
      "   midi.NoteOnEvent(tick=7, channel=0, data=[110, 3]),\n",
      "   midi.NoteOnEvent(tick=6, channel=0, data=[90, 9]),\n",
      "   midi.NoteOnEvent(tick=7, channel=0, data=[4, 251]),\n",
      "   midi.NoteOnEvent(tick=5, channel=0, data=[96, 96]),\n",
      "   midi.NoteOnEvent(tick=17, channel=0, data=[11, 125]),\n",
      "   midi.NoteOffEvent(tick=14, channel=0, data=[90, 0]),\n",
      "   midi.NoteOnEvent(tick=13, channel=0, data=[98, 0]),\n",
      "   midi.NoteOnEvent(tick=23, channel=0, data=[69, 79]),\n",
      "   midi.NoteOnEvent(tick=8, channel=0, data=[19, 122]),\n",
      "   midi.NoteOnEvent(tick=15, channel=0, data=[121, 207]),\n",
      "   midi.NoteOnEvent(tick=0, channel=0, data=[90, 89]),\n",
      "   midi.NoteOnEvent(tick=16, channel=0, data=[28, 156]),\n",
      "   midi.NoteOnEvent(tick=11, channel=0, data=[114, 153]),\n",
      "   midi.NoteOnEvent(tick=17, channel=0, data=[96, 237]),\n",
      "   midi.NoteOffEvent(tick=1, channel=0, data=[73, 0]),\n",
      "   midi.NoteOnEvent(tick=13, channel=0, data=[96, 11]),\n",
      "   midi.NoteOnEvent(tick=19, channel=0, data=[53, 166]),\n",
      "   midi.NoteOnEvent(tick=0, channel=0, data=[79, 154]),\n",
      "   midi.NoteOffEvent(tick=66, channel=0, data=[11, 0]),\n",
      "   midi.NoteOffEvent(tick=10, channel=0, data=[110, 0]),\n",
      "   midi.NoteOffEvent(tick=22, channel=0, data=[114, 0]),\n",
      "   midi.NoteOffEvent(tick=27, channel=0, data=[19, 0]),\n",
      "   midi.NoteOnEvent(tick=7, channel=0, data=[39, 43]),\n",
      "   midi.NoteOnEvent(tick=1, channel=0, data=[6, 62]),\n",
      "   midi.NoteOnEvent(tick=20, channel=0, data=[104, 190]),\n",
      "   midi.NoteOnEvent(tick=5, channel=0, data=[68, 95]),\n",
      "   midi.NoteOnEvent(tick=16, channel=0, data=[123, 231]),\n",
      "   midi.NoteOnEvent(tick=31, channel=0, data=[30, 114]),\n",
      "   midi.NoteOnEvent(tick=28, channel=0, data=[60, 48]),\n",
      "   midi.NoteOnEvent(tick=0, channel=0, data=[15, 106]),\n",
      "   midi.NoteOffEvent(tick=4, channel=0, data=[86, 0]),\n",
      "   midi.NoteOnEvent(tick=8, channel=0, data=[68, 5]),\n",
      "   midi.NoteOffEvent(tick=14, channel=0, data=[90, 0]),\n",
      "   midi.NoteOffEvent(tick=12, channel=0, data=[69, 0]),\n",
      "   midi.NoteOffEvent(tick=9, channel=0, data=[31, 0]),\n",
      "   midi.NoteOffEvent(tick=4, channel=0, data=[4, 0]),\n",
      "   midi.NoteOffEvent(tick=20, channel=0, data=[39, 0]),\n",
      "   midi.NoteOffEvent(tick=1, channel=0, data=[96, 0]),\n",
      "   midi.NoteOnEvent(tick=21, channel=0, data=[93, 182]),\n",
      "   midi.NoteOnEvent(tick=3, channel=0, data=[51, 218]),\n",
      "   midi.NoteOnEvent(tick=5, channel=0, data=[99, 62]),\n",
      "   midi.NoteOffEvent(tick=20, channel=0, data=[98, 0]),\n",
      "   midi.NoteOffEvent(tick=3, channel=0, data=[28, 0]),\n",
      "   midi.NoteOffEvent(tick=15, channel=0, data=[32, 0]),\n",
      "   midi.NoteOnEvent(tick=4, channel=0, data=[13, 180]),\n",
      "   midi.NoteOnEvent(tick=20, channel=0, data=[42, 128]),\n",
      "   midi.NoteOnEvent(tick=12, channel=0, data=[85, 74]),\n",
      "   midi.NoteOnEvent(tick=22, channel=0, data=[79, 234]),\n",
      "   midi.NoteOnEvent(tick=22, channel=0, data=[77, 239]),\n",
      "   midi.NoteOnEvent(tick=0, channel=0, data=[82, 249]),\n",
      "   midi.NoteOnEvent(tick=25, channel=0, data=[79, 100]),\n",
      "   midi.NoteOnEvent(tick=1, channel=0, data=[59, 247]),\n",
      "   midi.NoteOnEvent(tick=2, channel=0, data=[120, 220]),\n",
      "   midi.NoteOffEvent(tick=23, channel=0, data=[79, 0]),\n",
      "   midi.NoteOffEvent(tick=15, channel=0, data=[13, 0]),\n",
      "   midi.NoteOffEvent(tick=7, channel=0, data=[15, 0]),\n",
      "   midi.NoteOffEvent(tick=4, channel=0, data=[51, 0]),\n",
      "   midi.NoteOffEvent(tick=41, channel=0, data=[120, 0]),\n",
      "   midi.NoteOnEvent(tick=8, channel=0, data=[123, 218]),\n",
      "   midi.NoteOffEvent(tick=1, channel=0, data=[30, 0]),\n",
      "   midi.NoteOffEvent(tick=12, channel=0, data=[107, 0]),\n",
      "   midi.NoteOffEvent(tick=3, channel=0, data=[123, 0]),\n",
      "   midi.NoteOffEvent(tick=27, channel=0, data=[104, 0]),\n",
      "   midi.NoteOffEvent(tick=2, channel=0, data=[60, 0]),\n",
      "   midi.NoteOnEvent(tick=7, channel=0, data=[29, 254]),\n",
      "   midi.NoteOnEvent(tick=7, channel=0, data=[35, 148]),\n",
      "   midi.NoteOnEvent(tick=3, channel=0, data=[49, 94]),\n",
      "   midi.NoteOffEvent(tick=6, channel=0, data=[59, 0]),\n",
      "   midi.NoteOnEvent(tick=20, channel=0, data=[27, 63]),\n",
      "   midi.NoteOnEvent(tick=0, channel=0, data=[21, 214]),\n",
      "   midi.NoteOnEvent(tick=6, channel=0, data=[93, 80]),\n",
      "   midi.NoteOnEvent(tick=0, channel=0, data=[37, 9]),\n",
      "   midi.NoteOnEvent(tick=10, channel=0, data=[89, 27]),\n",
      "   midi.NoteOnEvent(tick=7, channel=0, data=[8, 225]),\n",
      "   midi.NoteOffEvent(tick=7, channel=0, data=[77, 0]),\n",
      "   midi.NoteOffEvent(tick=0, channel=0, data=[80, 0]),\n",
      "   midi.NoteOffEvent(tick=13, channel=0, data=[121, 0]),\n",
      "   midi.NoteOffEvent(tick=20, channel=0, data=[2, 0]),\n",
      "   midi.NoteOffEvent(tick=43, channel=0, data=[85, 0]),\n",
      "   midi.NoteOffEvent(tick=54, channel=0, data=[35, 0]),\n",
      "   midi.NoteOffEvent(tick=38, channel=0, data=[49, 0]),\n",
      "   midi.NoteOffEvent(tick=36, channel=0, data=[82, 0]),\n",
      "   midi.NoteOffEvent(tick=11, channel=0, data=[42, 0]),\n",
      "   midi.NoteOffEvent(tick=3, channel=0, data=[53, 0]),\n",
      "   midi.NoteOffEvent(tick=35, channel=0, data=[8, 0]),\n",
      "   midi.NoteOffEvent(tick=80, channel=0, data=[99, 0]),\n",
      "   midi.NoteOffEvent(tick=63, channel=0, data=[6, 0]),\n",
      "   midi.NoteOffEvent(tick=107, channel=0, data=[68, 0]),\n",
      "   midi.NoteOffEvent(tick=90, channel=0, data=[93, 0]),\n",
      "   midi.NoteOffEvent(tick=122, channel=0, data=[29, 0]),\n",
      "   midi.NoteOffEvent(tick=39, channel=0, data=[27, 0]),\n",
      "   midi.NoteOffEvent(tick=60, channel=0, data=[21, 0]),\n",
      "   midi.NoteOffEvent(tick=43, channel=0, data=[37, 0]),\n",
      "   midi.NoteOffEvent(tick=75, channel=0, data=[89, 0]),\n",
      "   midi.EndOfTrackEvent(tick=0, data=[])])])\n"
     ]
    }
   ],
   "source": [
    "#random generation test\n",
    "\n",
    "data = gen_random_midi()\n",
    "print data\n",
    "pattern = vector_to_midi(data)\n",
    "print pattern\n",
    "midi.write_midifile('rando.mid', pattern)"
   ]
  },
  {
   "cell_type": "code",
   "execution_count": null,
   "metadata": {
    "collapsed": true
   },
   "outputs": [],
   "source": []
  }
 ],
 "metadata": {
  "kernelspec": {
   "display_name": "Python 2",
   "language": "python",
   "name": "python2"
  },
  "language_info": {
   "codemirror_mode": {
    "name": "ipython",
    "version": 2
   },
   "file_extension": ".py",
   "mimetype": "text/x-python",
   "name": "python",
   "nbconvert_exporter": "python",
   "pygments_lexer": "ipython2",
   "version": "2.7.11"
  }
 },
 "nbformat": 4,
 "nbformat_minor": 1
}
